%TF.GenerationSoftware,KiCad,Pcbnew,8.0.6*%
%TF.CreationDate,2025-02-16T20:57:11+01:00*%
%TF.ProjectId,TUSS4470_shield,54555353-3434-4373-905f-736869656c64,rev?*%
%TF.SameCoordinates,Original*%
%TF.FileFunction,Legend,Top*%
%TF.FilePolarity,Positive*%
%FSLAX46Y46*%
G04 Gerber Fmt 4.6, Leading zero omitted, Abs format (unit mm)*
G04 Created by KiCad (PCBNEW 8.0.6) date 2025-02-16 20:57:11*
%MOMM*%
%LPD*%
G01*
G04 APERTURE LIST*
%ADD10C,0.100000*%
%ADD11C,0.250000*%
%ADD12C,0.300000*%
%ADD13C,0.200000*%
%ADD14C,0.125000*%
%ADD15C,0.150000*%
%ADD16C,0.120000*%
G04 APERTURE END LIST*
D10*
X120000000Y-95000000D02*
G75*
G02*
X80000000Y-95000000I-20000000J0D01*
G01*
X80000000Y-95000000D02*
G75*
G02*
X120000000Y-95000000I20000000J0D01*
G01*
X104767505Y-96394971D02*
G75*
G02*
X104800000Y-93600001I232495J1394971D01*
G01*
X105000000Y-95000000D02*
G75*
G02*
X95000000Y-95000000I-5000000J0D01*
G01*
X95000000Y-95000000D02*
G75*
G02*
X105000000Y-95000000I5000000J0D01*
G01*
X104600001Y-96999998D02*
G75*
G02*
X104600000Y-93000002I399999J1999998D01*
G01*
D11*
G36*
X109472796Y-79750307D02*
G01*
X109526216Y-79757542D01*
X109573403Y-79770205D01*
X109620575Y-79791837D01*
X109664096Y-79825603D01*
X109689910Y-79857022D01*
X109713277Y-79900167D01*
X109729374Y-79950301D01*
X109737385Y-79998835D01*
X109740055Y-80052505D01*
X109738811Y-80087321D01*
X109730647Y-80143602D01*
X109714862Y-80193970D01*
X109691457Y-80238424D01*
X109660432Y-80276964D01*
X109655388Y-80281953D01*
X109615415Y-80312440D01*
X109567285Y-80335167D01*
X109519537Y-80348471D01*
X109465796Y-80356073D01*
X109416434Y-80358053D01*
X109367585Y-80357320D01*
X109331926Y-80355122D01*
X109331926Y-79752819D01*
X109376866Y-79749155D01*
X109423517Y-79748422D01*
X109472796Y-79750307D01*
G37*
G36*
X110627093Y-80670631D02*
G01*
X108987595Y-80670631D01*
X108987595Y-79584780D01*
X109112595Y-79584780D01*
X109112595Y-79752819D01*
X109112595Y-80520230D01*
X109165135Y-80529707D01*
X109218310Y-80536644D01*
X109267201Y-80540746D01*
X109300769Y-80542650D01*
X109353909Y-80544825D01*
X109405198Y-80545631D01*
X109429247Y-80545363D01*
X109483623Y-80542650D01*
X109535569Y-80537015D01*
X109585083Y-80528458D01*
X109638695Y-80515101D01*
X109682696Y-80500283D01*
X109729262Y-80479770D01*
X109771860Y-80455441D01*
X109815038Y-80423510D01*
X109841073Y-80399496D01*
X109875746Y-80359289D01*
X109905163Y-80314058D01*
X109926901Y-80269637D01*
X109931692Y-80257881D01*
X109947767Y-80208376D01*
X109949149Y-80201737D01*
X110094207Y-80201737D01*
X110502093Y-80201737D01*
X110502093Y-80014159D01*
X110094207Y-80014159D01*
X110094207Y-80201737D01*
X109949149Y-80201737D01*
X109958895Y-80154902D01*
X109964575Y-80104856D01*
X109966468Y-80051772D01*
X109966314Y-80035645D01*
X109963339Y-79981501D01*
X109956577Y-79930933D01*
X109944212Y-79877520D01*
X109926901Y-79828778D01*
X109913784Y-79800515D01*
X109885995Y-79753759D01*
X109852836Y-79712296D01*
X109814305Y-79676127D01*
X109780964Y-79651489D01*
X109734010Y-79624347D01*
X109688413Y-79604502D01*
X109639183Y-79588688D01*
X109619882Y-79583712D01*
X109566420Y-79572835D01*
X109517261Y-79566173D01*
X109465882Y-79562176D01*
X109412281Y-79560844D01*
X109368904Y-79561421D01*
X109320043Y-79563153D01*
X109270865Y-79565729D01*
X109265727Y-79566043D01*
X109215027Y-79570184D01*
X109165568Y-79576137D01*
X109112595Y-79584780D01*
X108987595Y-79584780D01*
X108987595Y-79435844D01*
X110627093Y-79435844D01*
X110627093Y-80670631D01*
G37*
G36*
X102372796Y-81350307D02*
G01*
X102426216Y-81357542D01*
X102473403Y-81370205D01*
X102520575Y-81391837D01*
X102564096Y-81425603D01*
X102589910Y-81457022D01*
X102613277Y-81500167D01*
X102629374Y-81550301D01*
X102637385Y-81598835D01*
X102640055Y-81652505D01*
X102638811Y-81687321D01*
X102630647Y-81743602D01*
X102614862Y-81793970D01*
X102591457Y-81838424D01*
X102560432Y-81876964D01*
X102555388Y-81881953D01*
X102515415Y-81912440D01*
X102467285Y-81935167D01*
X102419537Y-81948471D01*
X102365796Y-81956073D01*
X102316434Y-81958053D01*
X102267585Y-81957320D01*
X102231926Y-81955122D01*
X102231926Y-81352819D01*
X102276866Y-81349155D01*
X102323517Y-81348422D01*
X102372796Y-81350307D01*
G37*
G36*
X103786723Y-82270631D02*
G01*
X101887595Y-82270631D01*
X101887595Y-81184780D01*
X102012595Y-81184780D01*
X102012595Y-81352819D01*
X102012595Y-82120230D01*
X102065135Y-82129707D01*
X102118310Y-82136644D01*
X102167201Y-82140746D01*
X102200769Y-82142650D01*
X102253909Y-82144825D01*
X102305198Y-82145631D01*
X102329247Y-82145363D01*
X102383623Y-82142650D01*
X102435569Y-82137015D01*
X102485083Y-82128458D01*
X102538695Y-82115101D01*
X102582696Y-82100283D01*
X102629262Y-82079770D01*
X102671860Y-82055441D01*
X102715038Y-82023510D01*
X102741073Y-81999496D01*
X102775746Y-81959289D01*
X102805163Y-81914058D01*
X102826901Y-81869637D01*
X102831692Y-81857881D01*
X102847767Y-81808376D01*
X102858895Y-81754902D01*
X102864575Y-81704856D01*
X102866468Y-81651772D01*
X102866314Y-81635645D01*
X102865992Y-81629790D01*
X103000558Y-81629790D01*
X103000558Y-81801737D01*
X103235519Y-81801737D01*
X103235519Y-82051842D01*
X103427006Y-82051842D01*
X103427006Y-81801737D01*
X103661723Y-81801737D01*
X103661723Y-81629790D01*
X103427006Y-81629790D01*
X103427006Y-81379685D01*
X103235519Y-81379685D01*
X103235519Y-81629790D01*
X103000558Y-81629790D01*
X102865992Y-81629790D01*
X102863339Y-81581501D01*
X102856577Y-81530933D01*
X102844212Y-81477520D01*
X102826901Y-81428778D01*
X102813784Y-81400515D01*
X102785995Y-81353759D01*
X102752836Y-81312296D01*
X102714305Y-81276127D01*
X102680964Y-81251489D01*
X102634010Y-81224347D01*
X102588413Y-81204502D01*
X102539183Y-81188688D01*
X102519882Y-81183712D01*
X102466420Y-81172835D01*
X102417261Y-81166173D01*
X102365882Y-81162176D01*
X102312281Y-81160844D01*
X102268904Y-81161421D01*
X102220043Y-81163153D01*
X102170865Y-81165729D01*
X102165727Y-81166043D01*
X102115027Y-81170184D01*
X102065568Y-81176137D01*
X102012595Y-81184780D01*
X101887595Y-81184780D01*
X101887595Y-81035844D01*
X103786723Y-81035844D01*
X103786723Y-82270631D01*
G37*
G36*
X102364325Y-83548452D02*
G01*
X102418694Y-83551356D01*
X102469541Y-83560157D01*
X102517272Y-83578464D01*
X102532892Y-83588778D01*
X102562545Y-83628315D01*
X102571493Y-83679092D01*
X102570188Y-83701093D01*
X102554569Y-83748473D01*
X102518004Y-83783628D01*
X102491237Y-83795524D01*
X102441320Y-83807450D01*
X102391494Y-83812698D01*
X102340684Y-83814159D01*
X102278891Y-83814159D01*
X102278891Y-83552819D01*
X102314794Y-83549888D01*
X102357781Y-83548422D01*
X102364325Y-83548452D01*
G37*
G36*
X103968754Y-84455000D02*
G01*
X101934560Y-84455000D01*
X101934560Y-83386245D01*
X102059560Y-83386245D01*
X102059560Y-83552819D01*
X102059560Y-84330000D01*
X102278891Y-84330000D01*
X102278891Y-84001737D01*
X102387334Y-84001737D01*
X102413667Y-84032427D01*
X102443510Y-84071102D01*
X102471965Y-84110608D01*
X102500663Y-84152435D01*
X102502463Y-84155109D01*
X102530871Y-84198607D01*
X102556839Y-84240607D01*
X102558563Y-84243430D01*
X102584194Y-84285547D01*
X102611061Y-84330000D01*
X102857258Y-84330000D01*
X102922470Y-84330000D01*
X103172819Y-84330000D01*
X103186597Y-84305008D01*
X103212142Y-84261612D01*
X103215513Y-84256054D01*
X103241584Y-84214312D01*
X103269051Y-84172463D01*
X103270928Y-84169674D01*
X103299032Y-84129049D01*
X103328891Y-84088199D01*
X103346641Y-84065010D01*
X103378472Y-84025917D01*
X103398228Y-84044955D01*
X103431806Y-84082077D01*
X103462834Y-84122870D01*
X103491312Y-84167334D01*
X103506310Y-84193008D01*
X103532345Y-84238981D01*
X103557143Y-84284645D01*
X103580705Y-84330000D01*
X103843754Y-84330000D01*
X103825167Y-84297150D01*
X103800487Y-84254506D01*
X103772581Y-84207210D01*
X103746094Y-84162969D01*
X103717237Y-84115310D01*
X103701821Y-84090420D01*
X103674372Y-84048021D01*
X103644729Y-84004477D01*
X103612892Y-83959788D01*
X103578860Y-83913955D01*
X103542634Y-83866976D01*
X103512073Y-83828569D01*
X103828367Y-83360844D01*
X103578018Y-83360844D01*
X103388242Y-83641479D01*
X103202373Y-83360844D01*
X102936392Y-83360844D01*
X103254396Y-83839316D01*
X103222728Y-83882070D01*
X103191991Y-83924085D01*
X103162183Y-83965361D01*
X103133305Y-84005897D01*
X103099880Y-84053564D01*
X103067795Y-84100167D01*
X103062595Y-84107830D01*
X103032290Y-84153156D01*
X103003513Y-84197366D01*
X102976265Y-84240459D01*
X102950545Y-84282437D01*
X102922470Y-84330000D01*
X102857258Y-84330000D01*
X102850842Y-84317516D01*
X102827367Y-84273405D01*
X102802303Y-84228639D01*
X102794880Y-84215759D01*
X102768360Y-84171701D01*
X102740998Y-84129232D01*
X102735082Y-84120290D01*
X102707246Y-84079471D01*
X102677006Y-84037397D01*
X102647372Y-83998381D01*
X102615213Y-83959483D01*
X102631472Y-83952275D01*
X102675869Y-83927690D01*
X102717495Y-83895160D01*
X102751012Y-83857145D01*
X102764592Y-83835806D01*
X102784847Y-83787368D01*
X102795205Y-83737207D01*
X102798151Y-83687397D01*
X102797695Y-83666797D01*
X102790854Y-83609132D01*
X102775805Y-83557666D01*
X102752546Y-83512400D01*
X102721079Y-83473334D01*
X102681403Y-83440467D01*
X102658609Y-83426238D01*
X102607598Y-83401977D01*
X102559567Y-83386037D01*
X102506514Y-83373985D01*
X102448441Y-83365820D01*
X102398367Y-83362088D01*
X102345080Y-83360844D01*
X102309851Y-83361288D01*
X102258852Y-83363263D01*
X102208060Y-83366461D01*
X102160604Y-83370807D01*
X102109505Y-83377516D01*
X102059560Y-83386245D01*
X101934560Y-83386245D01*
X101934560Y-83235844D01*
X103968754Y-83235844D01*
X103968754Y-84455000D01*
G37*
G36*
X103936025Y-86455000D02*
G01*
X101882780Y-86455000D01*
X101882780Y-85548422D01*
X102007780Y-85548422D01*
X102301849Y-85548422D01*
X102301849Y-86330000D01*
X102521423Y-86330000D01*
X102889741Y-86330000D01*
X103140090Y-86330000D01*
X103153868Y-86305008D01*
X103179413Y-86261612D01*
X103182784Y-86256054D01*
X103208855Y-86214312D01*
X103236322Y-86172463D01*
X103238199Y-86169674D01*
X103266303Y-86129049D01*
X103296161Y-86088199D01*
X103313912Y-86065010D01*
X103345743Y-86025917D01*
X103365499Y-86044955D01*
X103399077Y-86082077D01*
X103430105Y-86122870D01*
X103458583Y-86167334D01*
X103473581Y-86193008D01*
X103499616Y-86238981D01*
X103524414Y-86284645D01*
X103547976Y-86330000D01*
X103811025Y-86330000D01*
X103792438Y-86297150D01*
X103767758Y-86254506D01*
X103739851Y-86207210D01*
X103713364Y-86162969D01*
X103684508Y-86115310D01*
X103669092Y-86090420D01*
X103641643Y-86048021D01*
X103612000Y-86004477D01*
X103580162Y-85959788D01*
X103546131Y-85913955D01*
X103509904Y-85866976D01*
X103479344Y-85828569D01*
X103795638Y-85360844D01*
X103545289Y-85360844D01*
X103355512Y-85641479D01*
X103169644Y-85360844D01*
X102903663Y-85360844D01*
X103221667Y-85839316D01*
X103189999Y-85882070D01*
X103159261Y-85924085D01*
X103129454Y-85965361D01*
X103100576Y-86005897D01*
X103067151Y-86053564D01*
X103035066Y-86100167D01*
X103029866Y-86107830D01*
X102999561Y-86153156D01*
X102970784Y-86197366D01*
X102943536Y-86240459D01*
X102917816Y-86282437D01*
X102889741Y-86330000D01*
X102521423Y-86330000D01*
X102521423Y-85548422D01*
X102815247Y-85548422D01*
X102815247Y-85360844D01*
X102007780Y-85360844D01*
X102007780Y-85548422D01*
X101882780Y-85548422D01*
X101882780Y-85235844D01*
X103936025Y-85235844D01*
X103936025Y-86455000D01*
G37*
D12*
G36*
X98464065Y-96701624D02*
G01*
X98540529Y-96704862D01*
X98617435Y-96711741D01*
X98628649Y-96713117D01*
X98701699Y-96725479D01*
X98773506Y-96745446D01*
X98814877Y-96763349D01*
X98874623Y-96808827D01*
X98893556Y-96835646D01*
X98910526Y-96907745D01*
X98907686Y-96939537D01*
X98874623Y-97006297D01*
X98840614Y-97035432D01*
X98773506Y-97069312D01*
X98765211Y-97072282D01*
X98691847Y-97092226D01*
X98617435Y-97104117D01*
X98570838Y-97108765D01*
X98496563Y-97113247D01*
X98417034Y-97114741D01*
X98370073Y-97114233D01*
X98294055Y-97110996D01*
X98218098Y-97104117D01*
X98206974Y-97102736D01*
X98134475Y-97090103D01*
X98063126Y-97069312D01*
X98021547Y-97050957D01*
X97961643Y-97006297D01*
X97942709Y-96979829D01*
X97925739Y-96907745D01*
X97928579Y-96876074D01*
X97961643Y-96808827D01*
X97995712Y-96778925D01*
X98063126Y-96745446D01*
X98071373Y-96742610D01*
X98144257Y-96723421D01*
X98218098Y-96711741D01*
X98264054Y-96707092D01*
X98337710Y-96702610D01*
X98417034Y-96701116D01*
X98464065Y-96701624D01*
G37*
G36*
X98464065Y-95508742D02*
G01*
X98540529Y-95511980D01*
X98617435Y-95518859D01*
X98628649Y-95520235D01*
X98701699Y-95532597D01*
X98773506Y-95552564D01*
X98814877Y-95570467D01*
X98874623Y-95615945D01*
X98893556Y-95642764D01*
X98910526Y-95714863D01*
X98907686Y-95746654D01*
X98874623Y-95813415D01*
X98840614Y-95842550D01*
X98773506Y-95876430D01*
X98765211Y-95879400D01*
X98691847Y-95899344D01*
X98617435Y-95911235D01*
X98570838Y-95915883D01*
X98496563Y-95920365D01*
X98417034Y-95921859D01*
X98370073Y-95921351D01*
X98294055Y-95918114D01*
X98218098Y-95911235D01*
X98206974Y-95909854D01*
X98134475Y-95897221D01*
X98063126Y-95876430D01*
X98021547Y-95858075D01*
X97961643Y-95813415D01*
X97942709Y-95786947D01*
X97925739Y-95714863D01*
X97928579Y-95683192D01*
X97961643Y-95615945D01*
X97995712Y-95586043D01*
X98063126Y-95552564D01*
X98071373Y-95549728D01*
X98144257Y-95530539D01*
X98218098Y-95518859D01*
X98264054Y-95514210D01*
X98337710Y-95509728D01*
X98417034Y-95508234D01*
X98464065Y-95508742D01*
G37*
G36*
X99335114Y-98792661D02*
G01*
X97337021Y-98792661D01*
X97337021Y-98144958D01*
X97667819Y-98144958D01*
X97669187Y-98188712D01*
X97678548Y-98265261D01*
X97696776Y-98338970D01*
X97723872Y-98409839D01*
X97734650Y-98432718D01*
X97770189Y-98498110D01*
X97815319Y-98565057D01*
X97866388Y-98625994D01*
X98073750Y-98469923D01*
X98034916Y-98425593D01*
X98027254Y-98416042D01*
X97986189Y-98354884D01*
X97974328Y-98333841D01*
X97943691Y-98264392D01*
X97934224Y-98232572D01*
X97925739Y-98157780D01*
X97932962Y-98094338D01*
X97963475Y-98026988D01*
X98018975Y-97985824D01*
X98093534Y-97974232D01*
X98104050Y-97974530D01*
X98176699Y-97993283D01*
X98197055Y-98003724D01*
X98258398Y-98046039D01*
X98289430Y-98072812D01*
X98342295Y-98124075D01*
X98380854Y-98164056D01*
X98433520Y-98218963D01*
X98457151Y-98243470D01*
X98508350Y-98296920D01*
X98559549Y-98350854D01*
X98579474Y-98371246D01*
X98633455Y-98421166D01*
X98695104Y-98469923D01*
X98713331Y-98482803D01*
X98780009Y-98523014D01*
X98851175Y-98555652D01*
X98888687Y-98568357D01*
X98962630Y-98583673D01*
X99035823Y-98588258D01*
X99086381Y-98588258D01*
X99145000Y-98583862D01*
X99145000Y-97608967D01*
X98887079Y-97608967D01*
X98887079Y-98238014D01*
X98833956Y-98205408D01*
X98819463Y-98193517D01*
X98763981Y-98145324D01*
X98742870Y-98125956D01*
X98689975Y-98074616D01*
X98676494Y-98060920D01*
X98624030Y-98005739D01*
X98609827Y-97990409D01*
X98558586Y-97936213D01*
X98504961Y-97881175D01*
X98489219Y-97865530D01*
X98432859Y-97813929D01*
X98374535Y-97767236D01*
X98366043Y-97760991D01*
X98301074Y-97718895D01*
X98233852Y-97685170D01*
X98224668Y-97681311D01*
X98154241Y-97660300D01*
X98081078Y-97653297D01*
X98063254Y-97653548D01*
X97984674Y-97661362D01*
X97908886Y-97681873D01*
X97899451Y-97685568D01*
X97834434Y-97721128D01*
X97779560Y-97770533D01*
X97763540Y-97790115D01*
X97724872Y-97853507D01*
X97697128Y-97923674D01*
X97680441Y-97991641D01*
X97670681Y-98068093D01*
X97667819Y-98144958D01*
X97337021Y-98144958D01*
X97337021Y-96907745D01*
X97667819Y-96907745D01*
X97672685Y-96980596D01*
X97689277Y-97055525D01*
X97717644Y-97125000D01*
X97753257Y-97182995D01*
X97802763Y-97240592D01*
X97863091Y-97291695D01*
X97887592Y-97308588D01*
X97954854Y-97346362D01*
X98022731Y-97374914D01*
X98097564Y-97398307D01*
X98106283Y-97400584D01*
X98178972Y-97416194D01*
X98256882Y-97427180D01*
X98340012Y-97433539D01*
X98417034Y-97435310D01*
X98505247Y-97433118D01*
X98588172Y-97426540D01*
X98665806Y-97415578D01*
X98755412Y-97395709D01*
X98836753Y-97368988D01*
X98909829Y-97335416D01*
X98974640Y-97294993D01*
X99009275Y-97267746D01*
X99068326Y-97207631D01*
X99113749Y-97140019D01*
X99145546Y-97064912D01*
X99163715Y-96982308D01*
X99168447Y-96907745D01*
X99167690Y-96877296D01*
X99156334Y-96790944D01*
X99131351Y-96712088D01*
X99092741Y-96640729D01*
X99040504Y-96576866D01*
X98974640Y-96520498D01*
X98962339Y-96511866D01*
X98895875Y-96472812D01*
X98821146Y-96440611D01*
X98738152Y-96415260D01*
X98665806Y-96399913D01*
X98588172Y-96388951D01*
X98505247Y-96382373D01*
X98417034Y-96380181D01*
X98329341Y-96382373D01*
X98246880Y-96388951D01*
X98169652Y-96399913D01*
X98080474Y-96419782D01*
X97999471Y-96446503D01*
X97926644Y-96480075D01*
X97861992Y-96520498D01*
X97827291Y-96547745D01*
X97768129Y-96607860D01*
X97722620Y-96675472D01*
X97690763Y-96750579D01*
X97672559Y-96833183D01*
X97667819Y-96907745D01*
X97337021Y-96907745D01*
X97337021Y-95714863D01*
X97667819Y-95714863D01*
X97672685Y-95787714D01*
X97689277Y-95862643D01*
X97717644Y-95932117D01*
X97753257Y-95990113D01*
X97802763Y-96047710D01*
X97863091Y-96098813D01*
X97887592Y-96115706D01*
X97954854Y-96153480D01*
X98022731Y-96182032D01*
X98097564Y-96205425D01*
X98106283Y-96207702D01*
X98178972Y-96223312D01*
X98256882Y-96234297D01*
X98340012Y-96240657D01*
X98417034Y-96242428D01*
X98505247Y-96240236D01*
X98588172Y-96233658D01*
X98665806Y-96222696D01*
X98755412Y-96202827D01*
X98836753Y-96176106D01*
X98909829Y-96142534D01*
X98974640Y-96102110D01*
X99009275Y-96074864D01*
X99068326Y-96014749D01*
X99113749Y-95947137D01*
X99145546Y-95872030D01*
X99163715Y-95789426D01*
X99168447Y-95714863D01*
X99167690Y-95684414D01*
X99156334Y-95598062D01*
X99131351Y-95519206D01*
X99092741Y-95447847D01*
X99040504Y-95383984D01*
X98974640Y-95327616D01*
X98962339Y-95318984D01*
X98895875Y-95279930D01*
X98821146Y-95247729D01*
X98738152Y-95222378D01*
X98665806Y-95207031D01*
X98588172Y-95196069D01*
X98505247Y-95189491D01*
X98417034Y-95187299D01*
X98329341Y-95189491D01*
X98246880Y-95196069D01*
X98169652Y-95207031D01*
X98080474Y-95226900D01*
X97999471Y-95253621D01*
X97926644Y-95287193D01*
X97861992Y-95327616D01*
X97827291Y-95354863D01*
X97768129Y-95414978D01*
X97722620Y-95482590D01*
X97690763Y-95557697D01*
X97672559Y-95640301D01*
X97667819Y-95714863D01*
X97337021Y-95714863D01*
X97337021Y-94659368D01*
X97503688Y-94659368D01*
X97554246Y-94973709D01*
X99145000Y-94973709D01*
X99145000Y-94659368D01*
X98661032Y-94659368D01*
X98707927Y-94606337D01*
X98764347Y-94552756D01*
X98771971Y-94546045D01*
X98830515Y-94497085D01*
X98891475Y-94450540D01*
X98899764Y-94444471D01*
X98961932Y-94400319D01*
X99024099Y-94358583D01*
X99079878Y-94322579D01*
X99145000Y-94281646D01*
X99145000Y-93920778D01*
X99122889Y-93932409D01*
X99057172Y-93969354D01*
X98991127Y-94009438D01*
X98948995Y-94036480D01*
X98885797Y-94079534D01*
X98822599Y-94125575D01*
X98780811Y-94157518D01*
X98719416Y-94206376D01*
X98659567Y-94256367D01*
X98635383Y-94277335D01*
X98577611Y-94330930D01*
X98523646Y-94387159D01*
X98508333Y-94371393D01*
X98455189Y-94317450D01*
X98402745Y-94265435D01*
X98343669Y-94208351D01*
X98285509Y-94153785D01*
X98278262Y-94147117D01*
X98219518Y-94093410D01*
X98159400Y-94039062D01*
X98097908Y-93984073D01*
X98042976Y-93935432D01*
X98042976Y-94308757D01*
X98067325Y-94330545D01*
X98121744Y-94379832D01*
X98162156Y-94416788D01*
X98216999Y-94467393D01*
X98263952Y-94511475D01*
X98317749Y-94563381D01*
X98361607Y-94606096D01*
X98415935Y-94659368D01*
X97503688Y-94659368D01*
X97337021Y-94659368D01*
X97337021Y-92855757D01*
X97691266Y-92855757D01*
X98254002Y-92855757D01*
X98254002Y-93408600D01*
X97691266Y-93408600D01*
X97691266Y-93737595D01*
X99145000Y-93737595D01*
X99145000Y-93408600D01*
X98535369Y-93408600D01*
X98535369Y-92855757D01*
X99145000Y-92855757D01*
X99145000Y-92526395D01*
X97691266Y-92526395D01*
X97691266Y-92855757D01*
X97337021Y-92855757D01*
X97337021Y-91385170D01*
X98042976Y-91385170D01*
X98042976Y-92267009D01*
X98300896Y-92267009D01*
X98300896Y-91794399D01*
X98331160Y-91819769D01*
X98391457Y-91869676D01*
X98451838Y-91918963D01*
X98504353Y-91961202D01*
X98563359Y-92007914D01*
X98623663Y-92054884D01*
X98678775Y-92097095D01*
X98739233Y-92142122D01*
X98799518Y-92185676D01*
X98837265Y-92212066D01*
X98899364Y-92253307D01*
X98962916Y-92292288D01*
X99145000Y-92292288D01*
X99145000Y-91374546D01*
X98887079Y-91374546D01*
X98887079Y-91910537D01*
X98825389Y-91866872D01*
X98762228Y-91820003D01*
X98703531Y-91774616D01*
X98697608Y-91769923D01*
X98639291Y-91723154D01*
X98582619Y-91676672D01*
X98522180Y-91625872D01*
X98479888Y-91589487D01*
X98419970Y-91537229D01*
X98364277Y-91487752D01*
X98307126Y-91436381D01*
X98250338Y-91385170D01*
X98042976Y-91385170D01*
X97337021Y-91385170D01*
X97337021Y-91207879D01*
X99335114Y-91207879D01*
X99335114Y-98792661D01*
G37*
D11*
G36*
X101772219Y-97161863D02*
G01*
X101772641Y-97170712D01*
X101773684Y-97220969D01*
X101770862Y-97263772D01*
X101756587Y-97311828D01*
X101741572Y-97330600D01*
X101694794Y-97344801D01*
X101656936Y-97333565D01*
X101632756Y-97302791D01*
X101620544Y-97256873D01*
X101619800Y-97250290D01*
X101617369Y-97201430D01*
X101620300Y-97155024D01*
X101625917Y-97116922D01*
X101768066Y-97116922D01*
X101772219Y-97161863D01*
G37*
G36*
X101771730Y-94822505D02*
G01*
X101771967Y-94825513D01*
X101773684Y-94874528D01*
X101768970Y-94919546D01*
X101750405Y-94965490D01*
X101714089Y-95004221D01*
X101706460Y-95009486D01*
X101659181Y-95032370D01*
X101608386Y-95044258D01*
X101556308Y-95047697D01*
X101543716Y-95047551D01*
X101486750Y-95042450D01*
X101431584Y-95026711D01*
X101385412Y-94995086D01*
X101358828Y-94949180D01*
X101351632Y-94898464D01*
X101352041Y-94884394D01*
X101360181Y-94834717D01*
X101361777Y-94828869D01*
X101381186Y-94783182D01*
X101766845Y-94783182D01*
X101771730Y-94822505D01*
G37*
G36*
X101492316Y-92712491D02*
G01*
X101489022Y-92711953D01*
X101440293Y-92699302D01*
X101437081Y-92698112D01*
X101394863Y-92673168D01*
X101392452Y-92671028D01*
X101363600Y-92630914D01*
X101358937Y-92619333D01*
X101351632Y-92570341D01*
X101352079Y-92557032D01*
X101364333Y-92509281D01*
X101365119Y-92507747D01*
X101396329Y-92468492D01*
X101397541Y-92467478D01*
X101440781Y-92444556D01*
X101443930Y-92443604D01*
X101492316Y-92435275D01*
X101492316Y-92712491D01*
G37*
G36*
X102070631Y-98833653D02*
G01*
X100710792Y-98833653D01*
X100710792Y-98498848D01*
X100976475Y-98498848D01*
X101010425Y-98708653D01*
X101628360Y-98708653D01*
X101658954Y-98708022D01*
X101708573Y-98704003D01*
X101758297Y-98695464D01*
X101769135Y-98692767D01*
X101815685Y-98675469D01*
X101858192Y-98648325D01*
X101865773Y-98641764D01*
X101898910Y-98603099D01*
X101922672Y-98558199D01*
X101935744Y-98515918D01*
X101943389Y-98466653D01*
X101945631Y-98415806D01*
X101945532Y-98403351D01*
X101942822Y-98353646D01*
X101934396Y-98301988D01*
X101924582Y-98265654D01*
X101907773Y-98217480D01*
X101749748Y-98247034D01*
X101755682Y-98264160D01*
X101767334Y-98312491D01*
X101770403Y-98332513D01*
X101773684Y-98382100D01*
X101773645Y-98386450D01*
X101764990Y-98437688D01*
X101734117Y-98475645D01*
X101726464Y-98479792D01*
X101677745Y-98495019D01*
X101628360Y-98498848D01*
X101367264Y-98498848D01*
X101367264Y-98247034D01*
X101195317Y-98247034D01*
X101195317Y-98498848D01*
X100976475Y-98498848D01*
X100710792Y-98498848D01*
X100710792Y-97776378D01*
X101179685Y-97776378D01*
X101179840Y-97793900D01*
X101182158Y-97844613D01*
X101187997Y-97897698D01*
X101197271Y-97947348D01*
X101205070Y-97979919D01*
X101218929Y-98031187D01*
X101234640Y-98080216D01*
X101930000Y-98080216D01*
X101930000Y-97870655D01*
X101362868Y-97870655D01*
X101355296Y-97829134D01*
X101351632Y-97781995D01*
X101352732Y-97750030D01*
X101359448Y-97700418D01*
X101363310Y-97681993D01*
X101374347Y-97634228D01*
X101207773Y-97599057D01*
X101195806Y-97639846D01*
X101187501Y-97687718D01*
X101181884Y-97735589D01*
X101179685Y-97776378D01*
X100710792Y-97776378D01*
X100710792Y-97237822D01*
X101179685Y-97237822D01*
X101180043Y-97260648D01*
X101183349Y-97310362D01*
X101185150Y-97328085D01*
X101191653Y-97378506D01*
X101193216Y-97388468D01*
X101202889Y-97438346D01*
X101214856Y-97484019D01*
X101381186Y-97457397D01*
X101368668Y-97415814D01*
X101359448Y-97367271D01*
X101358502Y-97360762D01*
X101353350Y-97311582D01*
X101351632Y-97261758D01*
X101352140Y-97242478D01*
X101359754Y-97193614D01*
X101384117Y-97149406D01*
X101418957Y-97126090D01*
X101469602Y-97116922D01*
X101489385Y-97116922D01*
X101488692Y-97119442D01*
X101480348Y-97168457D01*
X101478263Y-97191215D01*
X101477938Y-97201430D01*
X101476685Y-97240753D01*
X101476872Y-97255774D01*
X101480471Y-97307386D01*
X101488653Y-97357501D01*
X101489400Y-97361000D01*
X101504040Y-97410563D01*
X101526755Y-97457397D01*
X101557468Y-97496536D01*
X101597341Y-97527006D01*
X101605845Y-97531633D01*
X101653455Y-97547940D01*
X101705540Y-97552896D01*
X101721886Y-97552544D01*
X101770527Y-97546554D01*
X101818136Y-97530425D01*
X101859535Y-97503009D01*
X101892386Y-97465701D01*
X101897559Y-97457637D01*
X101919237Y-97413065D01*
X101933175Y-97365073D01*
X101938028Y-97338891D01*
X101943879Y-97286858D01*
X101945631Y-97234891D01*
X101945303Y-97200146D01*
X101943414Y-97147978D01*
X101939282Y-97094324D01*
X101932198Y-97040963D01*
X101928160Y-97016716D01*
X101919149Y-96965579D01*
X101909239Y-96915666D01*
X101478394Y-96915666D01*
X101457410Y-96916048D01*
X101405751Y-96920612D01*
X101354808Y-96931297D01*
X101347913Y-96933307D01*
X101300396Y-96953850D01*
X101260286Y-96984054D01*
X101248591Y-96996264D01*
X101220541Y-97036922D01*
X101200690Y-97083217D01*
X101199398Y-97087109D01*
X101187091Y-97138543D01*
X101181347Y-97188069D01*
X101179685Y-97237822D01*
X100710792Y-97237822D01*
X100710792Y-96414968D01*
X101179685Y-96414968D01*
X101179895Y-96438041D01*
X101181903Y-96489008D01*
X101186035Y-96538660D01*
X101193119Y-96592288D01*
X101199958Y-96632497D01*
X101209760Y-96681502D01*
X101221939Y-96730041D01*
X101930000Y-96730041D01*
X101930000Y-96520481D01*
X101358471Y-96520481D01*
X101353831Y-96475540D01*
X101351632Y-96427669D01*
X101352004Y-96414340D01*
X101362196Y-96366058D01*
X101393886Y-96327773D01*
X101433889Y-96311401D01*
X101485161Y-96303032D01*
X101537501Y-96300907D01*
X101930000Y-96300907D01*
X101930000Y-96091346D01*
X101515764Y-96091346D01*
X101479020Y-96092323D01*
X101427168Y-96097452D01*
X101379232Y-96106978D01*
X101364112Y-96111157D01*
X101315399Y-96131012D01*
X101273230Y-96159002D01*
X101259758Y-96171018D01*
X101227300Y-96211517D01*
X101204110Y-96258164D01*
X101201152Y-96266104D01*
X101188296Y-96314207D01*
X101181617Y-96364448D01*
X101179685Y-96414968D01*
X100710792Y-96414968D01*
X100710792Y-95639497D01*
X101179685Y-95639497D01*
X101179933Y-95656155D01*
X101184689Y-95710912D01*
X101195500Y-95760153D01*
X101215269Y-95809673D01*
X101242944Y-95851988D01*
X101268181Y-95878301D01*
X101312056Y-95907562D01*
X101363158Y-95924574D01*
X101414647Y-95929413D01*
X101460335Y-95926468D01*
X101510146Y-95914026D01*
X101538276Y-95900551D01*
X101578290Y-95870307D01*
X101597524Y-95847558D01*
X101619811Y-95802163D01*
X101631732Y-95762396D01*
X101644724Y-95712526D01*
X101658916Y-95663392D01*
X101678674Y-95618492D01*
X101679809Y-95616584D01*
X101721172Y-95587473D01*
X101762937Y-95611409D01*
X101770997Y-95643771D01*
X101773684Y-95692986D01*
X101773579Y-95703259D01*
X101769897Y-95755076D01*
X101761716Y-95804117D01*
X101758579Y-95818119D01*
X101745316Y-95866464D01*
X101728499Y-95913782D01*
X101900446Y-95948953D01*
X101914940Y-95907780D01*
X101928778Y-95858339D01*
X101930819Y-95850028D01*
X101939690Y-95799713D01*
X101944298Y-95747210D01*
X101945631Y-95694452D01*
X101944685Y-95657903D01*
X101939716Y-95607073D01*
X101928536Y-95553827D01*
X101911559Y-95507102D01*
X101885059Y-95461688D01*
X101851170Y-95425678D01*
X101804433Y-95397464D01*
X101755233Y-95383317D01*
X101706273Y-95379378D01*
X101667607Y-95381112D01*
X101618346Y-95389881D01*
X101590765Y-95399956D01*
X101549225Y-95426517D01*
X101525169Y-95452864D01*
X101503307Y-95497592D01*
X101497712Y-95515286D01*
X101484588Y-95563118D01*
X101473265Y-95611409D01*
X101471334Y-95619652D01*
X101459099Y-95667096D01*
X101443956Y-95701535D01*
X101425882Y-95718387D01*
X101404145Y-95722540D01*
X101383683Y-95717830D01*
X101356761Y-95676016D01*
X101351632Y-95624110D01*
X101353779Y-95576325D01*
X101361402Y-95527878D01*
X101369142Y-95496531D01*
X101383872Y-95448255D01*
X101217543Y-95411618D01*
X101216675Y-95413933D01*
X101202499Y-95460872D01*
X101191653Y-95510293D01*
X101186990Y-95537596D01*
X101181368Y-95589729D01*
X101179685Y-95639497D01*
X100710792Y-95639497D01*
X100710792Y-94573621D01*
X100835792Y-94573621D01*
X100869497Y-94783182D01*
X101211926Y-94783182D01*
X101203000Y-94805092D01*
X101188234Y-94852791D01*
X101183025Y-94879925D01*
X101181811Y-94898464D01*
X101179685Y-94930949D01*
X101181791Y-94973933D01*
X101190085Y-95022692D01*
X101206308Y-95071144D01*
X101217033Y-95093381D01*
X101245984Y-95137023D01*
X101282756Y-95174459D01*
X101312640Y-95196662D01*
X101357834Y-95221397D01*
X101404633Y-95239183D01*
X101409123Y-95240565D01*
X101460778Y-95252876D01*
X101511344Y-95259459D01*
X101565345Y-95261653D01*
X101570823Y-95261628D01*
X101623717Y-95258594D01*
X101673176Y-95250504D01*
X101723614Y-95235764D01*
X101757472Y-95221262D01*
X101803337Y-95194128D01*
X101843293Y-95160537D01*
X101871911Y-95127507D01*
X101898266Y-95086105D01*
X101919253Y-95039392D01*
X101923967Y-95025757D01*
X101936332Y-94977824D01*
X101943544Y-94926075D01*
X101945631Y-94876238D01*
X101945116Y-94847181D01*
X101941967Y-94796615D01*
X101939094Y-94765680D01*
X101932930Y-94715038D01*
X101928837Y-94687904D01*
X101919741Y-94638346D01*
X101916287Y-94622726D01*
X101903377Y-94573621D01*
X100835792Y-94573621D01*
X100710792Y-94573621D01*
X100710792Y-93959351D01*
X101195317Y-93959351D01*
X101766601Y-93959351D01*
X101771730Y-94004535D01*
X101773684Y-94052163D01*
X101773289Y-94065450D01*
X101762449Y-94113651D01*
X101728743Y-94152058D01*
X101686955Y-94168281D01*
X101634770Y-94176575D01*
X101582198Y-94178681D01*
X101195317Y-94178681D01*
X101195317Y-94388485D01*
X101603935Y-94388485D01*
X101640770Y-94387523D01*
X101693103Y-94382475D01*
X101741933Y-94373098D01*
X101761125Y-94367706D01*
X101807062Y-94348944D01*
X101850132Y-94321074D01*
X101863763Y-94308993D01*
X101896729Y-94268441D01*
X101920474Y-94221912D01*
X101923520Y-94213942D01*
X101936762Y-94165711D01*
X101943641Y-94115402D01*
X101945631Y-94064863D01*
X101945421Y-94041794D01*
X101943414Y-93990864D01*
X101939282Y-93941287D01*
X101932198Y-93887787D01*
X101925359Y-93847472D01*
X101915557Y-93798369D01*
X101903377Y-93749790D01*
X101195317Y-93749790D01*
X101195317Y-93959351D01*
X100710792Y-93959351D01*
X100710792Y-93210746D01*
X101179685Y-93210746D01*
X101179715Y-93216360D01*
X101183293Y-93270370D01*
X101192834Y-93320516D01*
X101210216Y-93371214D01*
X101231267Y-93413126D01*
X101259328Y-93454491D01*
X101292526Y-93490893D01*
X101326653Y-93519334D01*
X101368270Y-93545440D01*
X101414159Y-93566120D01*
X101458571Y-93579772D01*
X101509518Y-93588950D01*
X101562658Y-93592009D01*
X101612499Y-93589886D01*
X101664679Y-93582648D01*
X101714089Y-93570272D01*
X101747855Y-93557724D01*
X101794155Y-93533063D01*
X101835233Y-93501395D01*
X101865062Y-93469381D01*
X101893081Y-93428270D01*
X101916078Y-93380983D01*
X101924592Y-93357406D01*
X101937290Y-93306172D01*
X101943784Y-93255412D01*
X101945631Y-93206594D01*
X101945357Y-93186190D01*
X101942076Y-93135763D01*
X101934396Y-93085694D01*
X101923724Y-93041115D01*
X101907529Y-92994103D01*
X101744131Y-93023656D01*
X101755262Y-93054592D01*
X101766601Y-93104012D01*
X101770917Y-93135829D01*
X101773684Y-93185345D01*
X101773630Y-93191969D01*
X101768294Y-93245957D01*
X101752122Y-93294071D01*
X101718485Y-93335310D01*
X101711408Y-93340486D01*
X101666139Y-93362984D01*
X101615668Y-93374672D01*
X101562658Y-93378053D01*
X101550927Y-93377874D01*
X101501725Y-93372656D01*
X101453945Y-93358383D01*
X101409762Y-93332379D01*
X101376667Y-93295380D01*
X101357309Y-93247182D01*
X101351632Y-93193649D01*
X101352643Y-93164741D01*
X101360181Y-93115003D01*
X101364516Y-93097769D01*
X101379720Y-93050279D01*
X101220474Y-93006803D01*
X101203011Y-93053942D01*
X101190188Y-93102547D01*
X101188311Y-93111840D01*
X101181696Y-93160944D01*
X101179685Y-93210746D01*
X100710792Y-93210746D01*
X100710792Y-92573028D01*
X101179685Y-92573028D01*
X101181243Y-92606627D01*
X101189417Y-92656166D01*
X101204598Y-92704675D01*
X101218520Y-92735755D01*
X101244898Y-92778940D01*
X101277871Y-92818004D01*
X101310457Y-92846850D01*
X101351757Y-92874339D01*
X101398771Y-92897383D01*
X101417288Y-92904481D01*
X101466919Y-92918086D01*
X101515665Y-92925273D01*
X101568276Y-92927669D01*
X101617272Y-92925403D01*
X101668689Y-92917676D01*
X101717508Y-92904466D01*
X101750908Y-92891277D01*
X101796658Y-92865539D01*
X101837187Y-92832658D01*
X101866558Y-92799824D01*
X101894073Y-92758031D01*
X101916566Y-92710293D01*
X101923378Y-92691444D01*
X101936435Y-92640749D01*
X101943332Y-92590760D01*
X101945631Y-92536636D01*
X101945013Y-92506995D01*
X101941235Y-92457745D01*
X101938425Y-92433646D01*
X101930732Y-92383984D01*
X101927956Y-92369221D01*
X101916322Y-92321458D01*
X101899225Y-92276273D01*
X101737292Y-92304361D01*
X101752262Y-92347520D01*
X101763182Y-92395219D01*
X101765643Y-92409114D01*
X101771674Y-92458288D01*
X101773684Y-92508304D01*
X101770689Y-92556101D01*
X101758896Y-92606650D01*
X101735826Y-92651919D01*
X101723270Y-92667501D01*
X101681195Y-92699077D01*
X101633000Y-92712491D01*
X101633000Y-92236706D01*
X101594898Y-92234019D01*
X101555087Y-92232554D01*
X101521207Y-92233359D01*
X101468243Y-92238278D01*
X101410463Y-92250085D01*
X101358986Y-92268331D01*
X101313812Y-92293018D01*
X101274940Y-92324145D01*
X101237824Y-92367276D01*
X101209825Y-92416742D01*
X101193081Y-92464184D01*
X101183034Y-92516279D01*
X101179844Y-92570341D01*
X101179685Y-92573028D01*
X100710792Y-92573028D01*
X100710792Y-91771912D01*
X101179685Y-91771912D01*
X101179840Y-91789434D01*
X101182158Y-91840147D01*
X101187997Y-91893232D01*
X101197271Y-91942882D01*
X101205070Y-91975453D01*
X101218929Y-92026721D01*
X101234640Y-92075750D01*
X101930000Y-92075750D01*
X101930000Y-91866189D01*
X101362868Y-91866189D01*
X101355296Y-91824668D01*
X101351632Y-91777529D01*
X101352732Y-91745564D01*
X101359448Y-91695952D01*
X101363310Y-91677527D01*
X101374347Y-91629762D01*
X101207773Y-91594591D01*
X101195806Y-91635380D01*
X101187501Y-91683251D01*
X101181884Y-91731123D01*
X101179685Y-91771912D01*
X100710792Y-91771912D01*
X100710792Y-91469591D01*
X102070631Y-91469591D01*
X102070631Y-98833653D01*
G37*
G36*
X103821894Y-79270631D02*
G01*
X101828489Y-79270631D01*
X101828489Y-79095073D01*
X101953489Y-79095073D01*
X101954556Y-79095592D01*
X102001360Y-79111926D01*
X102021486Y-79117068D01*
X102070969Y-79128046D01*
X102100324Y-79133495D01*
X102151081Y-79140746D01*
X102181741Y-79143723D01*
X102230704Y-79145631D01*
X102248668Y-79145427D01*
X102299959Y-79142368D01*
X102352371Y-79134664D01*
X102399965Y-79122428D01*
X102430520Y-79111317D01*
X102477409Y-79088299D01*
X102520376Y-79057704D01*
X102537487Y-79041701D01*
X102568786Y-79003435D01*
X102592184Y-78960251D01*
X102600318Y-78938758D01*
X102612169Y-78889894D01*
X102616120Y-78837885D01*
X102614589Y-78803142D01*
X102604546Y-78747042D01*
X102585130Y-78696926D01*
X102556341Y-78652795D01*
X102518178Y-78614647D01*
X102511967Y-78609675D01*
X102470282Y-78582587D01*
X102421023Y-78560204D01*
X102374188Y-78545147D01*
X102322095Y-78533357D01*
X102264742Y-78524834D01*
X102215073Y-78520369D01*
X102218566Y-78485928D01*
X102222644Y-78434640D01*
X102226125Y-78384631D01*
X102229239Y-78332791D01*
X102580949Y-78332791D01*
X102580949Y-78160844D01*
X102709420Y-78160844D01*
X102711356Y-78166217D01*
X102729847Y-78217325D01*
X102747906Y-78266906D01*
X102764959Y-78313496D01*
X102783182Y-78363077D01*
X102802351Y-78414785D01*
X102822244Y-78467756D01*
X102839873Y-78514164D01*
X102858033Y-78561499D01*
X102876727Y-78609762D01*
X102883068Y-78625985D01*
X102902357Y-78674792D01*
X102922040Y-78723805D01*
X102942119Y-78773023D01*
X102962592Y-78822448D01*
X102983461Y-78872079D01*
X102990518Y-78888628D01*
X103011747Y-78937933D01*
X103033062Y-78986722D01*
X103054463Y-79034997D01*
X103075950Y-79082756D01*
X103097522Y-79130000D01*
X103308548Y-79130000D01*
X103315777Y-79114279D01*
X103337384Y-79066786D01*
X103358871Y-79018796D01*
X103380237Y-78970307D01*
X103401483Y-78921320D01*
X103422609Y-78871835D01*
X103429639Y-78855268D01*
X103450453Y-78805706D01*
X103470855Y-78756350D01*
X103490845Y-78707200D01*
X103510422Y-78658256D01*
X103529588Y-78609518D01*
X103548255Y-78561347D01*
X103566339Y-78514103D01*
X103583838Y-78467787D01*
X103603517Y-78414923D01*
X103622400Y-78363321D01*
X103625031Y-78356070D01*
X103642901Y-78306977D01*
X103659813Y-78260807D01*
X103677967Y-78211619D01*
X103696894Y-78160844D01*
X103463398Y-78160844D01*
X103452685Y-78190989D01*
X103435939Y-78238653D01*
X103418381Y-78289255D01*
X103402093Y-78336699D01*
X103385515Y-78385181D01*
X103368754Y-78433663D01*
X103351810Y-78482145D01*
X103334682Y-78530628D01*
X103319674Y-78572580D01*
X103302664Y-78619639D01*
X103285808Y-78665751D01*
X103267027Y-78716496D01*
X103262930Y-78727519D01*
X103245108Y-78774876D01*
X103226485Y-78823191D01*
X103207431Y-78871102D01*
X103203874Y-78862741D01*
X103183726Y-78813614D01*
X103164559Y-78764346D01*
X103146615Y-78716252D01*
X103132405Y-78676982D01*
X103113825Y-78625394D01*
X103097018Y-78578499D01*
X103079937Y-78530628D01*
X103062809Y-78482145D01*
X103045865Y-78433663D01*
X103029104Y-78385181D01*
X103012526Y-78336699D01*
X103004355Y-78312687D01*
X102986501Y-78260780D01*
X102969382Y-78211810D01*
X102951221Y-78160844D01*
X102709420Y-78160844D01*
X102580949Y-78160844D01*
X102053384Y-78160844D01*
X102050716Y-78214579D01*
X102047627Y-78269998D01*
X102044645Y-78318838D01*
X102041353Y-78368916D01*
X102037752Y-78420230D01*
X102036509Y-78437493D01*
X102032517Y-78489076D01*
X102028129Y-78540350D01*
X102023346Y-78591314D01*
X102018168Y-78641970D01*
X102012595Y-78692316D01*
X102047661Y-78692579D01*
X102099773Y-78694090D01*
X102152523Y-78697396D01*
X102203838Y-78703063D01*
X102226888Y-78706578D01*
X102275981Y-78716910D01*
X102324982Y-78733593D01*
X102352733Y-78748378D01*
X102388241Y-78783175D01*
X102397901Y-78802657D01*
X102406559Y-78851563D01*
X102395629Y-78897541D01*
X102362840Y-78937292D01*
X102322677Y-78959468D01*
X102272585Y-78970805D01*
X102222156Y-78973684D01*
X102188171Y-78972983D01*
X102134859Y-78968518D01*
X102084159Y-78959030D01*
X102038023Y-78945900D01*
X101991346Y-78928743D01*
X101953489Y-79095073D01*
X101828489Y-79095073D01*
X101828489Y-78035844D01*
X103821894Y-78035844D01*
X103821894Y-79270631D01*
G37*
D12*
G36*
X95123925Y-116928579D02*
G01*
X95191172Y-116961643D01*
X95221074Y-116995712D01*
X95254553Y-117063126D01*
X95257389Y-117071373D01*
X95276578Y-117144257D01*
X95288258Y-117218098D01*
X95292907Y-117264054D01*
X95297389Y-117337710D01*
X95298883Y-117417034D01*
X95298375Y-117464065D01*
X95295137Y-117540529D01*
X95288258Y-117617435D01*
X95286882Y-117628649D01*
X95274520Y-117701699D01*
X95254553Y-117773506D01*
X95236650Y-117814877D01*
X95191172Y-117874623D01*
X95164353Y-117893556D01*
X95092254Y-117910526D01*
X95060462Y-117907686D01*
X94993702Y-117874623D01*
X94964567Y-117840614D01*
X94930687Y-117773506D01*
X94927717Y-117765211D01*
X94907773Y-117691847D01*
X94895882Y-117617435D01*
X94891234Y-117570838D01*
X94886752Y-117496563D01*
X94885258Y-117417034D01*
X94885766Y-117370073D01*
X94889003Y-117294055D01*
X94895882Y-117218098D01*
X94897263Y-117206974D01*
X94909896Y-117134475D01*
X94930687Y-117063126D01*
X94949042Y-117021547D01*
X94993702Y-116961643D01*
X95020170Y-116942709D01*
X95092254Y-116925739D01*
X95123925Y-116928579D01*
G37*
G36*
X99416249Y-116928579D02*
G01*
X99483496Y-116961643D01*
X99513398Y-116995712D01*
X99546877Y-117063126D01*
X99549713Y-117071373D01*
X99568901Y-117144257D01*
X99580582Y-117218098D01*
X99585230Y-117264054D01*
X99589713Y-117337710D01*
X99591207Y-117417034D01*
X99590698Y-117464065D01*
X99587461Y-117540529D01*
X99580582Y-117617435D01*
X99579205Y-117628649D01*
X99566844Y-117701699D01*
X99546877Y-117773506D01*
X99528974Y-117814877D01*
X99483496Y-117874623D01*
X99456677Y-117893556D01*
X99384577Y-117910526D01*
X99352786Y-117907686D01*
X99286025Y-117874623D01*
X99256891Y-117840614D01*
X99223011Y-117773506D01*
X99220041Y-117765211D01*
X99200097Y-117691847D01*
X99188206Y-117617435D01*
X99183558Y-117570838D01*
X99179076Y-117496563D01*
X99177581Y-117417034D01*
X99178090Y-117370073D01*
X99181327Y-117294055D01*
X99188206Y-117218098D01*
X99189587Y-117206974D01*
X99202219Y-117134475D01*
X99223011Y-117063126D01*
X99241366Y-117021547D01*
X99286025Y-116961643D01*
X99312494Y-116942709D01*
X99384577Y-116925739D01*
X99416249Y-116928579D01*
G37*
G36*
X103708573Y-116928579D02*
G01*
X103775819Y-116961643D01*
X103805721Y-116995712D01*
X103839200Y-117063126D01*
X103842037Y-117071373D01*
X103861225Y-117144257D01*
X103872906Y-117218098D01*
X103877554Y-117264054D01*
X103882036Y-117337710D01*
X103883531Y-117417034D01*
X103883022Y-117464065D01*
X103879785Y-117540529D01*
X103872906Y-117617435D01*
X103871529Y-117628649D01*
X103859167Y-117701699D01*
X103839200Y-117773506D01*
X103821298Y-117814877D01*
X103775819Y-117874623D01*
X103749000Y-117893556D01*
X103676901Y-117910526D01*
X103645110Y-117907686D01*
X103578349Y-117874623D01*
X103549215Y-117840614D01*
X103515334Y-117773506D01*
X103512365Y-117765211D01*
X103492421Y-117691847D01*
X103480530Y-117617435D01*
X103475882Y-117570838D01*
X103471399Y-117496563D01*
X103469905Y-117417034D01*
X103470414Y-117370073D01*
X103473651Y-117294055D01*
X103480530Y-117218098D01*
X103481911Y-117206974D01*
X103494543Y-117134475D01*
X103515334Y-117063126D01*
X103533690Y-117021547D01*
X103578349Y-116961643D01*
X103604818Y-116942709D01*
X103676901Y-116925739D01*
X103708573Y-116928579D01*
G37*
G36*
X95076314Y-114758119D02*
G01*
X95147941Y-114776500D01*
X95150241Y-114777678D01*
X95209124Y-114824494D01*
X95210645Y-114826311D01*
X95245027Y-114891172D01*
X95246456Y-114895896D01*
X95258949Y-114968475D01*
X94843126Y-114968475D01*
X94843933Y-114963533D01*
X94862909Y-114890439D01*
X94864694Y-114885622D01*
X94902110Y-114822295D01*
X94905320Y-114818678D01*
X94965491Y-114775401D01*
X94982862Y-114768406D01*
X95056350Y-114757449D01*
X95076314Y-114758119D01*
G37*
G36*
X103408154Y-114408579D02*
G01*
X103475401Y-114441643D01*
X103505303Y-114475712D01*
X103538782Y-114543126D01*
X103541618Y-114551373D01*
X103560807Y-114624257D01*
X103572487Y-114698098D01*
X103577136Y-114744054D01*
X103581618Y-114817710D01*
X103583112Y-114897034D01*
X103582603Y-114944065D01*
X103579366Y-115020529D01*
X103572487Y-115097435D01*
X103571111Y-115108649D01*
X103558749Y-115181699D01*
X103538782Y-115253506D01*
X103520879Y-115294877D01*
X103475401Y-115354623D01*
X103448582Y-115373556D01*
X103376482Y-115390526D01*
X103344691Y-115387686D01*
X103277930Y-115354623D01*
X103248796Y-115320614D01*
X103214916Y-115253506D01*
X103211946Y-115245211D01*
X103192002Y-115171847D01*
X103180111Y-115097435D01*
X103175463Y-115050838D01*
X103170981Y-114976563D01*
X103169487Y-114897034D01*
X103169995Y-114850073D01*
X103173232Y-114774055D01*
X103180111Y-114698098D01*
X103181492Y-114686974D01*
X103194125Y-114614475D01*
X103214916Y-114543126D01*
X103233271Y-114501547D01*
X103277930Y-114441643D01*
X103304399Y-114422709D01*
X103376482Y-114405739D01*
X103408154Y-114408579D01*
G37*
G36*
X104601036Y-114408579D02*
G01*
X104668283Y-114441643D01*
X104698185Y-114475712D01*
X104731664Y-114543126D01*
X104734500Y-114551373D01*
X104753689Y-114624257D01*
X104765369Y-114698098D01*
X104770018Y-114744054D01*
X104774500Y-114817710D01*
X104775994Y-114897034D01*
X104775486Y-114944065D01*
X104772248Y-115020529D01*
X104765369Y-115097435D01*
X104763993Y-115108649D01*
X104751631Y-115181699D01*
X104731664Y-115253506D01*
X104713761Y-115294877D01*
X104668283Y-115354623D01*
X104641464Y-115373556D01*
X104569364Y-115390526D01*
X104537573Y-115387686D01*
X104470812Y-115354623D01*
X104441678Y-115320614D01*
X104407798Y-115253506D01*
X104404828Y-115245211D01*
X104384884Y-115171847D01*
X104372993Y-115097435D01*
X104368345Y-115050838D01*
X104363863Y-114976563D01*
X104362369Y-114897034D01*
X104362877Y-114850073D01*
X104366114Y-114774055D01*
X104372993Y-114698098D01*
X104374374Y-114686974D01*
X104387007Y-114614475D01*
X104407798Y-114543126D01*
X104426153Y-114501547D01*
X104470812Y-114441643D01*
X104497281Y-114422709D01*
X104569364Y-114405739D01*
X104601036Y-114408579D01*
G37*
G36*
X106420574Y-118335114D02*
G01*
X93154582Y-118335114D01*
X93154582Y-116866388D01*
X93374005Y-116866388D01*
X93530076Y-117073750D01*
X93574406Y-117034916D01*
X93583957Y-117027254D01*
X93645115Y-116986189D01*
X93666158Y-116974328D01*
X93735607Y-116943691D01*
X93767427Y-116934224D01*
X93842219Y-116925739D01*
X93905661Y-116932962D01*
X93973011Y-116963475D01*
X94014175Y-117018975D01*
X94025767Y-117093534D01*
X94025469Y-117104050D01*
X94006716Y-117176699D01*
X93996275Y-117197055D01*
X93953960Y-117258398D01*
X93927187Y-117289430D01*
X93875924Y-117342295D01*
X93835943Y-117380854D01*
X93781036Y-117433520D01*
X93756529Y-117457151D01*
X93703079Y-117508350D01*
X93649145Y-117559549D01*
X93628753Y-117579474D01*
X93578833Y-117633455D01*
X93530076Y-117695104D01*
X93517196Y-117713331D01*
X93476985Y-117780009D01*
X93444347Y-117851175D01*
X93431642Y-117888687D01*
X93416326Y-117962630D01*
X93411741Y-118035823D01*
X93411741Y-118086381D01*
X93416137Y-118145000D01*
X94391032Y-118145000D01*
X94391032Y-117887079D01*
X93761985Y-117887079D01*
X93794591Y-117833956D01*
X93806482Y-117819463D01*
X93854675Y-117763981D01*
X93874043Y-117742870D01*
X93925383Y-117689975D01*
X93939079Y-117676494D01*
X93994260Y-117624030D01*
X94009590Y-117609827D01*
X94063786Y-117558586D01*
X94118824Y-117504961D01*
X94134469Y-117489219D01*
X94186070Y-117432859D01*
X94198739Y-117417034D01*
X94564689Y-117417034D01*
X94566881Y-117505247D01*
X94573459Y-117588172D01*
X94584421Y-117665806D01*
X94604290Y-117755412D01*
X94631011Y-117836753D01*
X94664583Y-117909829D01*
X94705006Y-117974640D01*
X94732253Y-118009275D01*
X94792368Y-118068326D01*
X94859980Y-118113749D01*
X94935087Y-118145546D01*
X95017691Y-118163715D01*
X95092254Y-118168447D01*
X95122703Y-118167690D01*
X95209055Y-118156334D01*
X95287911Y-118131351D01*
X95359270Y-118092741D01*
X95423133Y-118040504D01*
X95479501Y-117974640D01*
X95488133Y-117962339D01*
X95527187Y-117895875D01*
X95559388Y-117821146D01*
X95584739Y-117738152D01*
X95600086Y-117665806D01*
X95611048Y-117588172D01*
X95617626Y-117505247D01*
X95619818Y-117417034D01*
X95617626Y-117329341D01*
X95611048Y-117246880D01*
X95600086Y-117169652D01*
X95580217Y-117080474D01*
X95553496Y-116999471D01*
X95519924Y-116926644D01*
X95482250Y-116866388D01*
X95759769Y-116866388D01*
X95915840Y-117073750D01*
X95960170Y-117034916D01*
X95969721Y-117027254D01*
X96030879Y-116986189D01*
X96051922Y-116974328D01*
X96121371Y-116943691D01*
X96153191Y-116934224D01*
X96227983Y-116925739D01*
X96291425Y-116932962D01*
X96358775Y-116963475D01*
X96399939Y-117018975D01*
X96411531Y-117093534D01*
X96411234Y-117104050D01*
X96392480Y-117176699D01*
X96382039Y-117197055D01*
X96339724Y-117258398D01*
X96312951Y-117289430D01*
X96261688Y-117342295D01*
X96221707Y-117380854D01*
X96166800Y-117433520D01*
X96142294Y-117457151D01*
X96088843Y-117508350D01*
X96034909Y-117559549D01*
X96014517Y-117579474D01*
X95964597Y-117633455D01*
X95915840Y-117695104D01*
X95902960Y-117713331D01*
X95862749Y-117780009D01*
X95830111Y-117851175D01*
X95817406Y-117888687D01*
X95802090Y-117962630D01*
X95797505Y-118035823D01*
X95797505Y-118086381D01*
X95801901Y-118145000D01*
X96776796Y-118145000D01*
X96776796Y-118092609D01*
X96958879Y-118092609D01*
X96960480Y-118093388D01*
X97030687Y-118117889D01*
X97060876Y-118125602D01*
X97135101Y-118142069D01*
X97179133Y-118150243D01*
X97255268Y-118161120D01*
X97301258Y-118165585D01*
X97374703Y-118168447D01*
X97401649Y-118168141D01*
X97478584Y-118163552D01*
X97557202Y-118151996D01*
X97628593Y-118133642D01*
X97674427Y-118116975D01*
X97744761Y-118082448D01*
X97809211Y-118036556D01*
X97834876Y-118012552D01*
X97881825Y-117955152D01*
X97916922Y-117890376D01*
X97929124Y-117858138D01*
X97946900Y-117784841D01*
X97952826Y-117706828D01*
X97950530Y-117654713D01*
X97950153Y-117652606D01*
X98124284Y-117652606D01*
X98736113Y-117652606D01*
X98736113Y-117417034D01*
X98857013Y-117417034D01*
X98859205Y-117505247D01*
X98865783Y-117588172D01*
X98876745Y-117665806D01*
X98896614Y-117755412D01*
X98923335Y-117836753D01*
X98956907Y-117909829D01*
X98997330Y-117974640D01*
X99024577Y-118009275D01*
X99084692Y-118068326D01*
X99152303Y-118113749D01*
X99227411Y-118145546D01*
X99310015Y-118163715D01*
X99384577Y-118168447D01*
X99415027Y-118167690D01*
X99501379Y-118156334D01*
X99580234Y-118131351D01*
X99651594Y-118092741D01*
X99715457Y-118040504D01*
X99771824Y-117974640D01*
X99780457Y-117962339D01*
X99819510Y-117895875D01*
X99851712Y-117821146D01*
X99877062Y-117738152D01*
X99892410Y-117665806D01*
X99903372Y-117588172D01*
X99909949Y-117505247D01*
X99912142Y-117417034D01*
X99909949Y-117329341D01*
X99903372Y-117246880D01*
X99892410Y-117169652D01*
X99872541Y-117080474D01*
X99845820Y-116999471D01*
X99844257Y-116996081D01*
X100125732Y-116996081D01*
X100220621Y-117230554D01*
X100234532Y-117225593D01*
X100305152Y-117198277D01*
X100372662Y-117169005D01*
X100382359Y-117164488D01*
X100451439Y-117128789D01*
X100514078Y-117089870D01*
X100514078Y-118145000D01*
X100828419Y-118145000D01*
X100828419Y-117652606D01*
X101223726Y-117652606D01*
X101835554Y-117652606D01*
X101835554Y-117371238D01*
X101223726Y-117371238D01*
X101223726Y-117652606D01*
X100828419Y-117652606D01*
X100828419Y-116866388D01*
X101958653Y-116866388D01*
X102114724Y-117073750D01*
X102159054Y-117034916D01*
X102168605Y-117027254D01*
X102229762Y-116986189D01*
X102250805Y-116974328D01*
X102320254Y-116943691D01*
X102352075Y-116934224D01*
X102426866Y-116925739D01*
X102490309Y-116932962D01*
X102557658Y-116963475D01*
X102598823Y-117018975D01*
X102610415Y-117093534D01*
X102610117Y-117104050D01*
X102591364Y-117176699D01*
X102580922Y-117197055D01*
X102538607Y-117258398D01*
X102511834Y-117289430D01*
X102460572Y-117342295D01*
X102420591Y-117380854D01*
X102365683Y-117433520D01*
X102341177Y-117457151D01*
X102287727Y-117508350D01*
X102233792Y-117559549D01*
X102213401Y-117579474D01*
X102163480Y-117633455D01*
X102114724Y-117695104D01*
X102101844Y-117713331D01*
X102061633Y-117780009D01*
X102028995Y-117851175D01*
X102016290Y-117888687D01*
X102000973Y-117962630D01*
X101996388Y-118035823D01*
X101996388Y-118086381D01*
X102000785Y-118145000D01*
X102975680Y-118145000D01*
X102975680Y-117887079D01*
X102346632Y-117887079D01*
X102379239Y-117833956D01*
X102391130Y-117819463D01*
X102439323Y-117763981D01*
X102458691Y-117742870D01*
X102510031Y-117689975D01*
X102523727Y-117676494D01*
X102578907Y-117624030D01*
X102594237Y-117609827D01*
X102648434Y-117558586D01*
X102703471Y-117504961D01*
X102719116Y-117489219D01*
X102770718Y-117432859D01*
X102783387Y-117417034D01*
X103149337Y-117417034D01*
X103151529Y-117505247D01*
X103158106Y-117588172D01*
X103169069Y-117665806D01*
X103188938Y-117755412D01*
X103215659Y-117836753D01*
X103249231Y-117909829D01*
X103289654Y-117974640D01*
X103316901Y-118009275D01*
X103377016Y-118068326D01*
X103444627Y-118113749D01*
X103519735Y-118145546D01*
X103602338Y-118163715D01*
X103676901Y-118168447D01*
X103707351Y-118167690D01*
X103793703Y-118156334D01*
X103872558Y-118131351D01*
X103943918Y-118092741D01*
X104007781Y-118040504D01*
X104064148Y-117974640D01*
X104072781Y-117962339D01*
X104111834Y-117895875D01*
X104144036Y-117821146D01*
X104169386Y-117738152D01*
X104184734Y-117665806D01*
X104195696Y-117588172D01*
X104202273Y-117505247D01*
X104204466Y-117417034D01*
X104202273Y-117329341D01*
X104195696Y-117246880D01*
X104184734Y-117169652D01*
X104164864Y-117080474D01*
X104138144Y-116999471D01*
X104104572Y-116926644D01*
X104064148Y-116861992D01*
X104036902Y-116827291D01*
X103976786Y-116768129D01*
X103909175Y-116722620D01*
X103834067Y-116690763D01*
X103751464Y-116672559D01*
X103676901Y-116667819D01*
X103604050Y-116672685D01*
X103529121Y-116689277D01*
X103459647Y-116717644D01*
X103401651Y-116753257D01*
X103344055Y-116802763D01*
X103292951Y-116863091D01*
X103276059Y-116887592D01*
X103238284Y-116954854D01*
X103209733Y-117022731D01*
X103186339Y-117097564D01*
X103184063Y-117106283D01*
X103168452Y-117178972D01*
X103157467Y-117256882D01*
X103151107Y-117340012D01*
X103149337Y-117417034D01*
X102783387Y-117417034D01*
X102817411Y-117374535D01*
X102823656Y-117366043D01*
X102865752Y-117301074D01*
X102899476Y-117233852D01*
X102903336Y-117224668D01*
X102924346Y-117154241D01*
X102931350Y-117081078D01*
X102931099Y-117063254D01*
X102923285Y-116984674D01*
X102902773Y-116908886D01*
X102899078Y-116899451D01*
X102863519Y-116834434D01*
X102814113Y-116779560D01*
X102794532Y-116763540D01*
X102731140Y-116724872D01*
X102660973Y-116697128D01*
X102593006Y-116680441D01*
X102516554Y-116670681D01*
X102439689Y-116667819D01*
X102395935Y-116669187D01*
X102319386Y-116678548D01*
X102245677Y-116696776D01*
X102174808Y-116723872D01*
X102151928Y-116734650D01*
X102086537Y-116770189D01*
X102019589Y-116815319D01*
X101958653Y-116866388D01*
X100828419Y-116866388D01*
X100828419Y-116691266D01*
X100608967Y-116691266D01*
X100562770Y-116735820D01*
X100504187Y-116783590D01*
X100444927Y-116825813D01*
X100382920Y-116866022D01*
X100318989Y-116903666D01*
X100253227Y-116938196D01*
X100196186Y-116965324D01*
X100125732Y-116996081D01*
X99844257Y-116996081D01*
X99812248Y-116926644D01*
X99771824Y-116861992D01*
X99744578Y-116827291D01*
X99684463Y-116768129D01*
X99616851Y-116722620D01*
X99541744Y-116690763D01*
X99459140Y-116672559D01*
X99384577Y-116667819D01*
X99311727Y-116672685D01*
X99236798Y-116689277D01*
X99167323Y-116717644D01*
X99109328Y-116753257D01*
X99051731Y-116802763D01*
X99000628Y-116863091D01*
X98983735Y-116887592D01*
X98945961Y-116954854D01*
X98917409Y-117022731D01*
X98894016Y-117097564D01*
X98891739Y-117106283D01*
X98876128Y-117178972D01*
X98865143Y-117256882D01*
X98858783Y-117340012D01*
X98857013Y-117417034D01*
X98736113Y-117417034D01*
X98736113Y-117371238D01*
X98124284Y-117371238D01*
X98124284Y-117652606D01*
X97950153Y-117652606D01*
X97935466Y-117570563D01*
X97906342Y-117495390D01*
X97863158Y-117429192D01*
X97805914Y-117371971D01*
X97796597Y-117364513D01*
X97734069Y-117323881D01*
X97660180Y-117290307D01*
X97589929Y-117267720D01*
X97511789Y-117250035D01*
X97425759Y-117237252D01*
X97351256Y-117230554D01*
X97356495Y-117178893D01*
X97362613Y-117101960D01*
X97367834Y-117026947D01*
X97372505Y-116949187D01*
X97900069Y-116949187D01*
X97900069Y-116691266D01*
X97108722Y-116691266D01*
X97104720Y-116771869D01*
X97100087Y-116854997D01*
X97095613Y-116928258D01*
X97090676Y-117003374D01*
X97085275Y-117080345D01*
X97083410Y-117106239D01*
X97077421Y-117183614D01*
X97070840Y-117260525D01*
X97063665Y-117336972D01*
X97055899Y-117412955D01*
X97047540Y-117488475D01*
X97100138Y-117488868D01*
X97178306Y-117491135D01*
X97257431Y-117496094D01*
X97334403Y-117504595D01*
X97368978Y-117509867D01*
X97442618Y-117525366D01*
X97516120Y-117550390D01*
X97557746Y-117572567D01*
X97611008Y-117624762D01*
X97625498Y-117653986D01*
X97638485Y-117727344D01*
X97622090Y-117796312D01*
X97572906Y-117855938D01*
X97512662Y-117889203D01*
X97437524Y-117906208D01*
X97361880Y-117910526D01*
X97310902Y-117909475D01*
X97230935Y-117902777D01*
X97154884Y-117888545D01*
X97085682Y-117868850D01*
X97015666Y-117843115D01*
X96958879Y-118092609D01*
X96776796Y-118092609D01*
X96776796Y-117887079D01*
X96147749Y-117887079D01*
X96180355Y-117833956D01*
X96192246Y-117819463D01*
X96240439Y-117763981D01*
X96259807Y-117742870D01*
X96311147Y-117689975D01*
X96324843Y-117676494D01*
X96380024Y-117624030D01*
X96395354Y-117609827D01*
X96449550Y-117558586D01*
X96504588Y-117504961D01*
X96520233Y-117489219D01*
X96571834Y-117432859D01*
X96618527Y-117374535D01*
X96624772Y-117366043D01*
X96666869Y-117301074D01*
X96700593Y-117233852D01*
X96704452Y-117224668D01*
X96725463Y-117154241D01*
X96732466Y-117081078D01*
X96732215Y-117063254D01*
X96724401Y-116984674D01*
X96703890Y-116908886D01*
X96700195Y-116899451D01*
X96664635Y-116834434D01*
X96615230Y-116779560D01*
X96595649Y-116763540D01*
X96532256Y-116724872D01*
X96462090Y-116697128D01*
X96394123Y-116680441D01*
X96317670Y-116670681D01*
X96240806Y-116667819D01*
X96197051Y-116669187D01*
X96120502Y-116678548D01*
X96046793Y-116696776D01*
X95975924Y-116723872D01*
X95953045Y-116734650D01*
X95887653Y-116770189D01*
X95820706Y-116815319D01*
X95759769Y-116866388D01*
X95482250Y-116866388D01*
X95479501Y-116861992D01*
X95452254Y-116827291D01*
X95392139Y-116768129D01*
X95324527Y-116722620D01*
X95249420Y-116690763D01*
X95166816Y-116672559D01*
X95092254Y-116667819D01*
X95019403Y-116672685D01*
X94944474Y-116689277D01*
X94875000Y-116717644D01*
X94817004Y-116753257D01*
X94759407Y-116802763D01*
X94708304Y-116863091D01*
X94691411Y-116887592D01*
X94653637Y-116954854D01*
X94625085Y-117022731D01*
X94601692Y-117097564D01*
X94599415Y-117106283D01*
X94583805Y-117178972D01*
X94572819Y-117256882D01*
X94566460Y-117340012D01*
X94564689Y-117417034D01*
X94198739Y-117417034D01*
X94232763Y-117374535D01*
X94239008Y-117366043D01*
X94281104Y-117301074D01*
X94314829Y-117233852D01*
X94318688Y-117224668D01*
X94339699Y-117154241D01*
X94346702Y-117081078D01*
X94346451Y-117063254D01*
X94338637Y-116984674D01*
X94318126Y-116908886D01*
X94314431Y-116899451D01*
X94278871Y-116834434D01*
X94229466Y-116779560D01*
X94209884Y-116763540D01*
X94146492Y-116724872D01*
X94076325Y-116697128D01*
X94008358Y-116680441D01*
X93931906Y-116670681D01*
X93855041Y-116667819D01*
X93811287Y-116669187D01*
X93734738Y-116678548D01*
X93661029Y-116696776D01*
X93590160Y-116723872D01*
X93567281Y-116734650D01*
X93501889Y-116770189D01*
X93434942Y-116815319D01*
X93374005Y-116866388D01*
X93154582Y-116866388D01*
X93154582Y-114522976D01*
X93321249Y-114522976D01*
X93346247Y-114604984D01*
X93371601Y-114685413D01*
X93397309Y-114764261D01*
X93423373Y-114841530D01*
X93449791Y-114917218D01*
X93476564Y-114991327D01*
X93503692Y-115063855D01*
X93531175Y-115134804D01*
X93544994Y-115169606D01*
X93579441Y-115254181D01*
X93613745Y-115335286D01*
X93647905Y-115412920D01*
X93681923Y-115487083D01*
X93715797Y-115557777D01*
X93749528Y-115625000D01*
X94011113Y-115625000D01*
X94031334Y-115585082D01*
X94065151Y-115515777D01*
X94099112Y-115443002D01*
X94133215Y-115366756D01*
X94167461Y-115287039D01*
X94201851Y-115203852D01*
X94229466Y-115134804D01*
X94249760Y-115082414D01*
X94520359Y-115082414D01*
X94523758Y-115155909D01*
X94535348Y-115233034D01*
X94555163Y-115306263D01*
X94574947Y-115356363D01*
X94613553Y-115424988D01*
X94662875Y-115485781D01*
X94712126Y-115529838D01*
X94774816Y-115571110D01*
X94846423Y-115604849D01*
X94874696Y-115615068D01*
X94950738Y-115634652D01*
X95025722Y-115644998D01*
X95106908Y-115648447D01*
X95151370Y-115647519D01*
X95225244Y-115641852D01*
X95261394Y-115637638D01*
X95335886Y-115626099D01*
X95358030Y-115621934D01*
X95429675Y-115604483D01*
X95497452Y-115578838D01*
X95455321Y-115335938D01*
X95390581Y-115358394D01*
X95319033Y-115374773D01*
X95298190Y-115378465D01*
X95224429Y-115387511D01*
X95149406Y-115390526D01*
X95077710Y-115386034D01*
X95001887Y-115368344D01*
X94933984Y-115333740D01*
X94910611Y-115314905D01*
X94863247Y-115251793D01*
X94843126Y-115179501D01*
X95556803Y-115179501D01*
X95560833Y-115122348D01*
X95563032Y-115062630D01*
X95561824Y-115011811D01*
X95554445Y-114932365D01*
X95536735Y-114845695D01*
X95509365Y-114768480D01*
X95472335Y-114700718D01*
X95425645Y-114642411D01*
X95360948Y-114586737D01*
X95352509Y-114581960D01*
X95798237Y-114581960D01*
X95798237Y-115625000D01*
X96112578Y-115625000D01*
X96112578Y-115449145D01*
X96637212Y-115449145D01*
X96637446Y-115461145D01*
X96652233Y-115534965D01*
X96697295Y-115597522D01*
X96761409Y-115635716D01*
X96833583Y-115648447D01*
X96905482Y-115635716D01*
X96969504Y-115597522D01*
X96976780Y-115590975D01*
X97018087Y-115525510D01*
X97029588Y-115449145D01*
X97029353Y-115437145D01*
X97014567Y-115363324D01*
X96969504Y-115300767D01*
X96909714Y-115264215D01*
X96833583Y-115249842D01*
X96761409Y-115262574D01*
X96697295Y-115300767D01*
X96690020Y-115307314D01*
X96648712Y-115372779D01*
X96637212Y-115449145D01*
X96112578Y-115449145D01*
X96112578Y-114774302D01*
X96174860Y-114762944D01*
X96245568Y-114757449D01*
X96293516Y-114759098D01*
X96367934Y-114769173D01*
X96395572Y-114774966D01*
X96467219Y-114791521D01*
X96486790Y-114698831D01*
X96637212Y-114698831D01*
X96637446Y-114710830D01*
X96652233Y-114784651D01*
X96697295Y-114847208D01*
X96761409Y-114885402D01*
X96833583Y-114898133D01*
X96905482Y-114885402D01*
X96969504Y-114847208D01*
X96976780Y-114840661D01*
X97018087Y-114775196D01*
X97029588Y-114698831D01*
X97029353Y-114686831D01*
X97014567Y-114613010D01*
X96978477Y-114562909D01*
X97741434Y-114562909D01*
X97741434Y-115625000D01*
X98055774Y-115625000D01*
X98055774Y-114767707D01*
X98123185Y-114760746D01*
X98194993Y-114757449D01*
X98214985Y-114758006D01*
X98287408Y-114773294D01*
X98344836Y-114820830D01*
X98369393Y-114880834D01*
X98381948Y-114957742D01*
X98385136Y-115036252D01*
X98385136Y-115625000D01*
X98699476Y-115625000D01*
X98999528Y-115625000D01*
X99328524Y-115625000D01*
X99661915Y-115625000D01*
X99986880Y-115625000D01*
X99986880Y-114675750D01*
X100010016Y-114702783D01*
X100067128Y-114771294D01*
X100123202Y-114841129D01*
X100178239Y-114912287D01*
X100232238Y-114984769D01*
X100285200Y-115058575D01*
X100337124Y-115133705D01*
X100357596Y-115164046D01*
X100407988Y-115240111D01*
X100457252Y-115316481D01*
X100505389Y-115393154D01*
X100552399Y-115470132D01*
X100598282Y-115547414D01*
X100643039Y-115625000D01*
X100919644Y-115625000D01*
X100919644Y-114476081D01*
X101227756Y-114476081D01*
X101322644Y-114710554D01*
X101336556Y-114705593D01*
X101407176Y-114678277D01*
X101474685Y-114649005D01*
X101484383Y-114644488D01*
X101553462Y-114608789D01*
X101616102Y-114569870D01*
X101616102Y-115625000D01*
X101930443Y-115625000D01*
X101930443Y-114897034D01*
X102848918Y-114897034D01*
X102851110Y-114985247D01*
X102857688Y-115068172D01*
X102868650Y-115145806D01*
X102888519Y-115235412D01*
X102915240Y-115316753D01*
X102948812Y-115389829D01*
X102989235Y-115454640D01*
X103016482Y-115489275D01*
X103076597Y-115548326D01*
X103144209Y-115593749D01*
X103219316Y-115625546D01*
X103301920Y-115643715D01*
X103376482Y-115648447D01*
X103406932Y-115647690D01*
X103493284Y-115636334D01*
X103572140Y-115611351D01*
X103643499Y-115572741D01*
X103707362Y-115520504D01*
X103763729Y-115454640D01*
X103772362Y-115442339D01*
X103811415Y-115375875D01*
X103843617Y-115301146D01*
X103868968Y-115218152D01*
X103884315Y-115145806D01*
X103895277Y-115068172D01*
X103901854Y-114985247D01*
X103904047Y-114897034D01*
X104041800Y-114897034D01*
X104043992Y-114985247D01*
X104050570Y-115068172D01*
X104061532Y-115145806D01*
X104081401Y-115235412D01*
X104108122Y-115316753D01*
X104141694Y-115389829D01*
X104182117Y-115454640D01*
X104209364Y-115489275D01*
X104269479Y-115548326D01*
X104337091Y-115593749D01*
X104412198Y-115625546D01*
X104494802Y-115643715D01*
X104569364Y-115648447D01*
X104599814Y-115647690D01*
X104686166Y-115636334D01*
X104765022Y-115611351D01*
X104836381Y-115572741D01*
X104900244Y-115520504D01*
X104956612Y-115454640D01*
X104965244Y-115442339D01*
X105004298Y-115375875D01*
X105036499Y-115301146D01*
X105061850Y-115218152D01*
X105077197Y-115145806D01*
X105088159Y-115068172D01*
X105094737Y-114985247D01*
X105096929Y-114897034D01*
X105094737Y-114809341D01*
X105088159Y-114726880D01*
X105077197Y-114649652D01*
X105057328Y-114560474D01*
X105030607Y-114479471D01*
X104997035Y-114406644D01*
X104959361Y-114346388D01*
X105236880Y-114346388D01*
X105392951Y-114553750D01*
X105437281Y-114514916D01*
X105446832Y-114507254D01*
X105507990Y-114466189D01*
X105529033Y-114454328D01*
X105598482Y-114423691D01*
X105630302Y-114414224D01*
X105705094Y-114405739D01*
X105768536Y-114412962D01*
X105835886Y-114443475D01*
X105877050Y-114498975D01*
X105888642Y-114573534D01*
X105888345Y-114584050D01*
X105869591Y-114656699D01*
X105859150Y-114677055D01*
X105816835Y-114738398D01*
X105790062Y-114769430D01*
X105738799Y-114822295D01*
X105698818Y-114860854D01*
X105643911Y-114913520D01*
X105619405Y-114937151D01*
X105565954Y-114988350D01*
X105512020Y-115039549D01*
X105491628Y-115059474D01*
X105441708Y-115113455D01*
X105392951Y-115175104D01*
X105380071Y-115193331D01*
X105339860Y-115260009D01*
X105307222Y-115331175D01*
X105294517Y-115368687D01*
X105279201Y-115442630D01*
X105274616Y-115515823D01*
X105274616Y-115566381D01*
X105279012Y-115625000D01*
X106253907Y-115625000D01*
X106253907Y-115367079D01*
X105624860Y-115367079D01*
X105657466Y-115313956D01*
X105669357Y-115299463D01*
X105717550Y-115243981D01*
X105736918Y-115222870D01*
X105788258Y-115169975D01*
X105801954Y-115156494D01*
X105857135Y-115104030D01*
X105872465Y-115089827D01*
X105926661Y-115038586D01*
X105981699Y-114984961D01*
X105997344Y-114969219D01*
X106048945Y-114912859D01*
X106095638Y-114854535D01*
X106101883Y-114846043D01*
X106143979Y-114781074D01*
X106177704Y-114713852D01*
X106181563Y-114704668D01*
X106202574Y-114634241D01*
X106209577Y-114561078D01*
X106209326Y-114543254D01*
X106201512Y-114464674D01*
X106181001Y-114388886D01*
X106177306Y-114379451D01*
X106141746Y-114314434D01*
X106092341Y-114259560D01*
X106072760Y-114243540D01*
X106009367Y-114204872D01*
X105939200Y-114177128D01*
X105871233Y-114160441D01*
X105794781Y-114150681D01*
X105717916Y-114147819D01*
X105674162Y-114149187D01*
X105597613Y-114158548D01*
X105523904Y-114176776D01*
X105453035Y-114203872D01*
X105430156Y-114214650D01*
X105364764Y-114250189D01*
X105297817Y-114295319D01*
X105236880Y-114346388D01*
X104959361Y-114346388D01*
X104956612Y-114341992D01*
X104929365Y-114307291D01*
X104869250Y-114248129D01*
X104801638Y-114202620D01*
X104726531Y-114170763D01*
X104643927Y-114152559D01*
X104569364Y-114147819D01*
X104496514Y-114152685D01*
X104421585Y-114169277D01*
X104352110Y-114197644D01*
X104294115Y-114233257D01*
X104236518Y-114282763D01*
X104185415Y-114343091D01*
X104168522Y-114367592D01*
X104130748Y-114434854D01*
X104102196Y-114502731D01*
X104078803Y-114577564D01*
X104076526Y-114586283D01*
X104060916Y-114658972D01*
X104049930Y-114736882D01*
X104043571Y-114820012D01*
X104041800Y-114897034D01*
X103904047Y-114897034D01*
X103901854Y-114809341D01*
X103895277Y-114726880D01*
X103884315Y-114649652D01*
X103864446Y-114560474D01*
X103837725Y-114479471D01*
X103804153Y-114406644D01*
X103763729Y-114341992D01*
X103736483Y-114307291D01*
X103676368Y-114248129D01*
X103608756Y-114202620D01*
X103533649Y-114170763D01*
X103451045Y-114152559D01*
X103376482Y-114147819D01*
X103303632Y-114152685D01*
X103228703Y-114169277D01*
X103159228Y-114197644D01*
X103101233Y-114233257D01*
X103043636Y-114282763D01*
X102992533Y-114343091D01*
X102975640Y-114367592D01*
X102937866Y-114434854D01*
X102909314Y-114502731D01*
X102885921Y-114577564D01*
X102883644Y-114586283D01*
X102868034Y-114658972D01*
X102857048Y-114736882D01*
X102850688Y-114820012D01*
X102848918Y-114897034D01*
X101930443Y-114897034D01*
X101930443Y-114171266D01*
X101710990Y-114171266D01*
X101664794Y-114215820D01*
X101606210Y-114263590D01*
X101546951Y-114305813D01*
X101484944Y-114346022D01*
X101421013Y-114383666D01*
X101355251Y-114418196D01*
X101298210Y-114445324D01*
X101227756Y-114476081D01*
X100919644Y-114476081D01*
X100919644Y-114171266D01*
X100592480Y-114171266D01*
X100592480Y-115025628D01*
X100563655Y-114982990D01*
X100518968Y-114917827D01*
X100472542Y-114851215D01*
X100429815Y-114790788D01*
X100397353Y-114745210D01*
X100353950Y-114685401D01*
X100304958Y-114619430D01*
X100255792Y-114554849D01*
X100228500Y-114519574D01*
X100179737Y-114457747D01*
X100131437Y-114398065D01*
X100083600Y-114340526D01*
X100037361Y-114286553D01*
X99983995Y-114227354D01*
X99929727Y-114171266D01*
X99661915Y-114171266D01*
X99661915Y-115625000D01*
X99328524Y-115625000D01*
X99328524Y-114171266D01*
X98999528Y-114171266D01*
X98999528Y-115625000D01*
X98699476Y-115625000D01*
X98699476Y-115003646D01*
X98698011Y-114948531D01*
X98690317Y-114870753D01*
X98676029Y-114798848D01*
X98669761Y-114776168D01*
X98639978Y-114703098D01*
X98597993Y-114639846D01*
X98579968Y-114619637D01*
X98519221Y-114570951D01*
X98449249Y-114536165D01*
X98437340Y-114531728D01*
X98365185Y-114512444D01*
X98289823Y-114502426D01*
X98214043Y-114499528D01*
X98179433Y-114499843D01*
X98102984Y-114502854D01*
X98028506Y-114509053D01*
X97948063Y-114519678D01*
X97887750Y-114529937D01*
X97814242Y-114544640D01*
X97741434Y-114562909D01*
X96978477Y-114562909D01*
X96969504Y-114550453D01*
X96909714Y-114513901D01*
X96833583Y-114499528D01*
X96761409Y-114512260D01*
X96697295Y-114550453D01*
X96690020Y-114557000D01*
X96648712Y-114622465D01*
X96637212Y-114698831D01*
X96486790Y-114698831D01*
X96519975Y-114541660D01*
X96458792Y-114523709D01*
X96386985Y-114511252D01*
X96315177Y-114502826D01*
X96253995Y-114499528D01*
X96227711Y-114499760D01*
X96151642Y-114503238D01*
X96072015Y-114511996D01*
X95997540Y-114525907D01*
X95948683Y-114537605D01*
X95871781Y-114558393D01*
X95798237Y-114581960D01*
X95352509Y-114581960D01*
X95286749Y-114544737D01*
X95215587Y-114519621D01*
X95137444Y-114504552D01*
X95052320Y-114499528D01*
X95001922Y-114501864D01*
X94927613Y-114514126D01*
X94854849Y-114536898D01*
X94808230Y-114557780D01*
X94743452Y-114597348D01*
X94684856Y-114646807D01*
X94641587Y-114695686D01*
X94600354Y-114757636D01*
X94565788Y-114828157D01*
X94555141Y-114855932D01*
X94534733Y-114930379D01*
X94529116Y-114968475D01*
X94523952Y-115003498D01*
X94520359Y-115082414D01*
X94249760Y-115082414D01*
X94256949Y-115063855D01*
X94284077Y-114991327D01*
X94310850Y-114917218D01*
X94337268Y-114841530D01*
X94363332Y-114764261D01*
X94389040Y-114685413D01*
X94414394Y-114604984D01*
X94439392Y-114522976D01*
X94114427Y-114522976D01*
X94106201Y-114554090D01*
X94086611Y-114624772D01*
X94064602Y-114699930D01*
X94050336Y-114747694D01*
X94028337Y-114819857D01*
X94005617Y-114892637D01*
X93990344Y-114941043D01*
X93967177Y-115012450D01*
X93943702Y-115082414D01*
X93933954Y-115110748D01*
X93909531Y-115180650D01*
X93884717Y-115249842D01*
X93875416Y-115225855D01*
X93849090Y-115154409D01*
X93824267Y-115082414D01*
X93809040Y-115035932D01*
X93786113Y-114965006D01*
X93763084Y-114892637D01*
X93747994Y-114844048D01*
X93725789Y-114771680D01*
X93704099Y-114699930D01*
X93695454Y-114670494D01*
X93674565Y-114597057D01*
X93654640Y-114522976D01*
X93321249Y-114522976D01*
X93154582Y-114522976D01*
X93154582Y-113981152D01*
X106420574Y-113981152D01*
X106420574Y-118335114D01*
G37*
D13*
G36*
X99905773Y-96671879D02*
G01*
X99953738Y-96690174D01*
X99985338Y-96727494D01*
X99992093Y-96742786D01*
X100006025Y-96793930D01*
X100012357Y-96845693D01*
X100014159Y-96899197D01*
X100014159Y-96968073D01*
X99752330Y-96968073D01*
X99749888Y-96928018D01*
X99748422Y-96880879D01*
X99749390Y-96843394D01*
X99754284Y-96793684D01*
X99757795Y-96774771D01*
X99775289Y-96727006D01*
X99779228Y-96720308D01*
X99815345Y-96684752D01*
X99828519Y-96678234D01*
X99878115Y-96669853D01*
X99905773Y-96671879D01*
G37*
G36*
X100076583Y-93443025D02*
G01*
X100125648Y-93448383D01*
X100174382Y-93459769D01*
X100184915Y-93463204D01*
X100230436Y-93482865D01*
X100272568Y-93510572D01*
X100275114Y-93512648D01*
X100310857Y-93550017D01*
X100335826Y-93592149D01*
X100339798Y-93601324D01*
X100353798Y-93650418D01*
X100358053Y-93701081D01*
X100357857Y-93712545D01*
X100351780Y-93762808D01*
X100335826Y-93810746D01*
X100308899Y-93854954D01*
X100272568Y-93891835D01*
X100264691Y-93897882D01*
X100221185Y-93924061D01*
X100174382Y-93942393D01*
X100148711Y-93949245D01*
X100097503Y-93957506D01*
X100046154Y-93959979D01*
X100016273Y-93959137D01*
X99967713Y-93953779D01*
X99918904Y-93942393D01*
X99908198Y-93938961D01*
X99862157Y-93919366D01*
X99819986Y-93891835D01*
X99817424Y-93889744D01*
X99781299Y-93852406D01*
X99755750Y-93810746D01*
X99751647Y-93801648D01*
X99737185Y-93752486D01*
X99732791Y-93701081D01*
X99732986Y-93689831D01*
X99739064Y-93640170D01*
X99755017Y-93592149D01*
X99756425Y-93589126D01*
X99782006Y-93547452D01*
X99818520Y-93510572D01*
X99826362Y-93504481D01*
X99870014Y-93478148D01*
X99917438Y-93459769D01*
X99943299Y-93452917D01*
X99994737Y-93444657D01*
X100046154Y-93442184D01*
X100076583Y-93443025D01*
G37*
G36*
X100656742Y-97298515D02*
G01*
X99434101Y-97298515D01*
X99434101Y-96894801D01*
X99560844Y-96894801D01*
X99561288Y-96930418D01*
X99563263Y-96982717D01*
X99566461Y-97035484D01*
X99570655Y-97084743D01*
X99577196Y-97137055D01*
X99585757Y-97187404D01*
X100530000Y-97187404D01*
X100530000Y-96968073D01*
X100201737Y-96968073D01*
X100201737Y-96899197D01*
X100201663Y-96885573D01*
X100199889Y-96833055D01*
X100194343Y-96771862D01*
X100185100Y-96715618D01*
X100172161Y-96664323D01*
X100151753Y-96609303D01*
X100126022Y-96561409D01*
X100110947Y-96540283D01*
X100075798Y-96504265D01*
X100033987Y-96476559D01*
X99985513Y-96457164D01*
X99930375Y-96446082D01*
X99879337Y-96443196D01*
X99858520Y-96443652D01*
X99800522Y-96450492D01*
X99749206Y-96465542D01*
X99704569Y-96488800D01*
X99666613Y-96520268D01*
X99635338Y-96559944D01*
X99622025Y-96582725D01*
X99599328Y-96633632D01*
X99584414Y-96681499D01*
X99573138Y-96734316D01*
X99565500Y-96792081D01*
X99562008Y-96841857D01*
X99561150Y-96880879D01*
X99560844Y-96894801D01*
X99434101Y-96894801D01*
X99434101Y-96286636D01*
X99560844Y-96286636D01*
X100530000Y-96286636D01*
X100530000Y-96067306D01*
X99560844Y-96067306D01*
X99560844Y-96286636D01*
X99434101Y-96286636D01*
X99434101Y-95186810D01*
X99560844Y-95186810D01*
X99560844Y-95845045D01*
X100530000Y-95845045D01*
X100530000Y-95154326D01*
X100342421Y-95154326D01*
X100342421Y-95625715D01*
X100107948Y-95625715D01*
X100107948Y-95235903D01*
X99920369Y-95235903D01*
X99920369Y-95625715D01*
X99748422Y-95625715D01*
X99748422Y-95186810D01*
X99560844Y-95186810D01*
X99434101Y-95186810D01*
X99434101Y-94293614D01*
X99560844Y-94293614D01*
X99560844Y-95022191D01*
X99748422Y-95022191D01*
X99748178Y-94584752D01*
X99773151Y-94605677D01*
X99812897Y-94638257D01*
X99855385Y-94672267D01*
X99895457Y-94703698D01*
X99936840Y-94735556D01*
X99978927Y-94767140D01*
X100021715Y-94798449D01*
X100065205Y-94829483D01*
X100108971Y-94860090D01*
X100152583Y-94890116D01*
X100196043Y-94919563D01*
X100239351Y-94948429D01*
X100260657Y-94962382D01*
X100306782Y-94991765D01*
X100350396Y-95018367D01*
X100395910Y-95044661D01*
X100530000Y-95044661D01*
X100530000Y-94277983D01*
X100342421Y-94277983D01*
X100342421Y-94774528D01*
X100300503Y-94748364D01*
X100257547Y-94720429D01*
X100213552Y-94690723D01*
X100168520Y-94659246D01*
X100123320Y-94626807D01*
X100078822Y-94594216D01*
X100035026Y-94561472D01*
X99991933Y-94528576D01*
X99955152Y-94499828D01*
X99914635Y-94467489D01*
X99875735Y-94435699D01*
X99833907Y-94400593D01*
X99829400Y-94396732D01*
X99791217Y-94363489D01*
X99753822Y-94329724D01*
X99715938Y-94293614D01*
X99560844Y-94293614D01*
X99434101Y-94293614D01*
X99434101Y-93701081D01*
X99545212Y-93701081D01*
X99545993Y-93731162D01*
X99551337Y-93784195D01*
X99561741Y-93835799D01*
X99577208Y-93885973D01*
X99587912Y-93912937D01*
X99611115Y-93958889D01*
X99639380Y-94001517D01*
X99672707Y-94040823D01*
X99697577Y-94064874D01*
X99738842Y-94097377D01*
X99784860Y-94125590D01*
X99829755Y-94147069D01*
X99841534Y-94151830D01*
X99890978Y-94167805D01*
X99944147Y-94178865D01*
X99993725Y-94184510D01*
X100046154Y-94186392D01*
X100061426Y-94186244D01*
X100113060Y-94183397D01*
X100161864Y-94176927D01*
X100214178Y-94165097D01*
X100262798Y-94148534D01*
X100291215Y-94135947D01*
X100338639Y-94109865D01*
X100381272Y-94079378D01*
X100419113Y-94044487D01*
X100437978Y-94023254D01*
X100468147Y-93982270D01*
X100493448Y-93937731D01*
X100513879Y-93889637D01*
X100524670Y-93855994D01*
X100536670Y-93804049D01*
X100543647Y-93750327D01*
X100545631Y-93701081D01*
X100544515Y-93663077D01*
X100539554Y-93613846D01*
X100529228Y-93560433D01*
X100513879Y-93509106D01*
X100503129Y-93481773D01*
X100479993Y-93435609D01*
X100451987Y-93393348D01*
X100419113Y-93354989D01*
X100394418Y-93331688D01*
X100353382Y-93300374D01*
X100307555Y-93273427D01*
X100262798Y-93253140D01*
X100250989Y-93248615D01*
X100201446Y-93233433D01*
X100148209Y-93222923D01*
X100098596Y-93217559D01*
X100046154Y-93215771D01*
X100030884Y-93215919D01*
X99979269Y-93218785D01*
X99930505Y-93225296D01*
X99878268Y-93237203D01*
X99829755Y-93253872D01*
X99801256Y-93266395D01*
X99753654Y-93292421D01*
X99710804Y-93322929D01*
X99672707Y-93357920D01*
X99653567Y-93379082D01*
X99623052Y-93419970D01*
X99597599Y-93464451D01*
X99577208Y-93512526D01*
X99566335Y-93546168D01*
X99554242Y-93598113D01*
X99547212Y-93651836D01*
X99545212Y-93701081D01*
X99434101Y-93701081D01*
X99434101Y-93104660D01*
X100656742Y-93104660D01*
X100656742Y-97298515D01*
G37*
D11*
G36*
X111613689Y-82850307D02*
G01*
X111667109Y-82857542D01*
X111714296Y-82870205D01*
X111761468Y-82891837D01*
X111804989Y-82925603D01*
X111830803Y-82957022D01*
X111854170Y-83000167D01*
X111870267Y-83050301D01*
X111878278Y-83098835D01*
X111880949Y-83152505D01*
X111879704Y-83187321D01*
X111871540Y-83243602D01*
X111855755Y-83293970D01*
X111832350Y-83338424D01*
X111801325Y-83376964D01*
X111796281Y-83381953D01*
X111756308Y-83412440D01*
X111708178Y-83435167D01*
X111660430Y-83448471D01*
X111606689Y-83456073D01*
X111557327Y-83458053D01*
X111508478Y-83457320D01*
X111472819Y-83455122D01*
X111472819Y-82852819D01*
X111517759Y-82849155D01*
X111564410Y-82848422D01*
X111613689Y-82850307D01*
G37*
G36*
X112232362Y-83770631D02*
G01*
X109045341Y-83770631D01*
X109045341Y-83146887D01*
X109170341Y-83146887D01*
X109170375Y-83154311D01*
X109172494Y-83204834D01*
X109178951Y-83259483D01*
X109189713Y-83310835D01*
X109204780Y-83358890D01*
X109216245Y-83387184D01*
X109240430Y-83434537D01*
X109269173Y-83477293D01*
X109302477Y-83515450D01*
X109322948Y-83534625D01*
X109362951Y-83565385D01*
X109407011Y-83591314D01*
X109455129Y-83612414D01*
X109501092Y-83626946D01*
X109549590Y-83637327D01*
X109600621Y-83643555D01*
X109654187Y-83645631D01*
X109662161Y-83645614D01*
X109715736Y-83644532D01*
X109765384Y-83641767D01*
X109817316Y-83636546D01*
X109857588Y-83630000D01*
X110195429Y-83630000D01*
X110412072Y-83630000D01*
X110412072Y-82997166D01*
X110427496Y-83015189D01*
X110465570Y-83060863D01*
X110502953Y-83107419D01*
X110539645Y-83154858D01*
X110575644Y-83203179D01*
X110610952Y-83252383D01*
X110645568Y-83302470D01*
X110659216Y-83322697D01*
X110692810Y-83373407D01*
X110725653Y-83424320D01*
X110757745Y-83475436D01*
X110789085Y-83526754D01*
X110819674Y-83578276D01*
X110849511Y-83630000D01*
X111033914Y-83630000D01*
X111033914Y-82684780D01*
X111253489Y-82684780D01*
X111253489Y-82852819D01*
X111253489Y-83620230D01*
X111306028Y-83629707D01*
X111359203Y-83636644D01*
X111408094Y-83640746D01*
X111441662Y-83642650D01*
X111494802Y-83644825D01*
X111546092Y-83645631D01*
X111570140Y-83645363D01*
X111624516Y-83642650D01*
X111676462Y-83637015D01*
X111725976Y-83628458D01*
X111779588Y-83615101D01*
X111823589Y-83600283D01*
X111870156Y-83579770D01*
X111912753Y-83555441D01*
X111955931Y-83523510D01*
X111981966Y-83499496D01*
X112016639Y-83459289D01*
X112046057Y-83414058D01*
X112067794Y-83369637D01*
X112072586Y-83357881D01*
X112088660Y-83308376D01*
X112099788Y-83254902D01*
X112105468Y-83204856D01*
X112107362Y-83151772D01*
X112107207Y-83135645D01*
X112104232Y-83081501D01*
X112097470Y-83030933D01*
X112085105Y-82977520D01*
X112067794Y-82928778D01*
X112054677Y-82900515D01*
X112026888Y-82853759D01*
X111993729Y-82812296D01*
X111955198Y-82776127D01*
X111921858Y-82751489D01*
X111874904Y-82724347D01*
X111829306Y-82704502D01*
X111780076Y-82688688D01*
X111760776Y-82683712D01*
X111707313Y-82672835D01*
X111658154Y-82666173D01*
X111606775Y-82662176D01*
X111553175Y-82660844D01*
X111509797Y-82661421D01*
X111460936Y-82663153D01*
X111411758Y-82665729D01*
X111406620Y-82666043D01*
X111355920Y-82670184D01*
X111306461Y-82676137D01*
X111253489Y-82684780D01*
X111033914Y-82684780D01*
X111033914Y-82660844D01*
X110815806Y-82660844D01*
X110815806Y-83230418D01*
X110796589Y-83201993D01*
X110766797Y-83158551D01*
X110735846Y-83114143D01*
X110707362Y-83073859D01*
X110685720Y-83043473D01*
X110656785Y-83003601D01*
X110624124Y-82959620D01*
X110591346Y-82916566D01*
X110573152Y-82893049D01*
X110540643Y-82851831D01*
X110508443Y-82812043D01*
X110476552Y-82773684D01*
X110445726Y-82737702D01*
X110410149Y-82698236D01*
X110373970Y-82660844D01*
X110195429Y-82660844D01*
X110195429Y-83630000D01*
X109857588Y-83630000D01*
X109869609Y-83628046D01*
X109900624Y-83621528D01*
X109948742Y-83609981D01*
X109996127Y-83595073D01*
X109996127Y-83114159D01*
X109776796Y-83114159D01*
X109776796Y-83450969D01*
X109730879Y-83456587D01*
X109717262Y-83457228D01*
X109668353Y-83458053D01*
X109647692Y-83457498D01*
X109597770Y-83450865D01*
X109550139Y-83435338D01*
X109543884Y-83432425D01*
X109501108Y-83405896D01*
X109465631Y-83371102D01*
X109459459Y-83363179D01*
X109433045Y-83319445D01*
X109415073Y-83272428D01*
X109408506Y-83246697D01*
X109400590Y-83195625D01*
X109398220Y-83144689D01*
X109399285Y-83109438D01*
X109404875Y-83060153D01*
X109417452Y-83008103D01*
X109436551Y-82961919D01*
X109466364Y-82916322D01*
X109489804Y-82892258D01*
X109535916Y-82862239D01*
X109584955Y-82844537D01*
X109633444Y-82835727D01*
X109687892Y-82832791D01*
X109717618Y-82833632D01*
X109766184Y-82838990D01*
X109815387Y-82850376D01*
X109826214Y-82853686D01*
X109873618Y-82870663D01*
X109918702Y-82891653D01*
X109982205Y-82719706D01*
X109944836Y-82700167D01*
X109925334Y-82691522D01*
X109878646Y-82675498D01*
X109831675Y-82663610D01*
X109782903Y-82654494D01*
X109758003Y-82650877D01*
X109708351Y-82646518D01*
X109658583Y-82645212D01*
X109620993Y-82646380D01*
X109572183Y-82651570D01*
X109519059Y-82662372D01*
X109467829Y-82678429D01*
X109440531Y-82689573D01*
X109394219Y-82713478D01*
X109351539Y-82742329D01*
X109312491Y-82776127D01*
X109288657Y-82801303D01*
X109256609Y-82842802D01*
X109229006Y-82888784D01*
X109208199Y-82933419D01*
X109203615Y-82945129D01*
X109188235Y-82994146D01*
X109177588Y-83046643D01*
X109172153Y-83095433D01*
X109170341Y-83146887D01*
X109045341Y-83146887D01*
X109045341Y-82520212D01*
X112232362Y-82520212D01*
X112232362Y-83770631D01*
G37*
D14*
X81478571Y-91677190D02*
X81454762Y-91701000D01*
X81454762Y-91701000D02*
X81383333Y-91724809D01*
X81383333Y-91724809D02*
X81335714Y-91724809D01*
X81335714Y-91724809D02*
X81264286Y-91701000D01*
X81264286Y-91701000D02*
X81216667Y-91653380D01*
X81216667Y-91653380D02*
X81192857Y-91605761D01*
X81192857Y-91605761D02*
X81169048Y-91510523D01*
X81169048Y-91510523D02*
X81169048Y-91439095D01*
X81169048Y-91439095D02*
X81192857Y-91343857D01*
X81192857Y-91343857D02*
X81216667Y-91296238D01*
X81216667Y-91296238D02*
X81264286Y-91248619D01*
X81264286Y-91248619D02*
X81335714Y-91224809D01*
X81335714Y-91224809D02*
X81383333Y-91224809D01*
X81383333Y-91224809D02*
X81454762Y-91248619D01*
X81454762Y-91248619D02*
X81478571Y-91272428D01*
X81954762Y-91724809D02*
X81669048Y-91724809D01*
X81811905Y-91724809D02*
X81811905Y-91224809D01*
X81811905Y-91224809D02*
X81764286Y-91296238D01*
X81764286Y-91296238D02*
X81716667Y-91343857D01*
X81716667Y-91343857D02*
X81669048Y-91367666D01*
X82121428Y-91224809D02*
X82454761Y-91224809D01*
X82454761Y-91224809D02*
X82240476Y-91724809D01*
X111324809Y-92683333D02*
X111086714Y-92849999D01*
X111324809Y-92969047D02*
X110824809Y-92969047D01*
X110824809Y-92969047D02*
X110824809Y-92778571D01*
X110824809Y-92778571D02*
X110848619Y-92730952D01*
X110848619Y-92730952D02*
X110872428Y-92707142D01*
X110872428Y-92707142D02*
X110920047Y-92683333D01*
X110920047Y-92683333D02*
X110991476Y-92683333D01*
X110991476Y-92683333D02*
X111039095Y-92707142D01*
X111039095Y-92707142D02*
X111062904Y-92730952D01*
X111062904Y-92730952D02*
X111086714Y-92778571D01*
X111086714Y-92778571D02*
X111086714Y-92969047D01*
X110872428Y-92492856D02*
X110848619Y-92469047D01*
X110848619Y-92469047D02*
X110824809Y-92421428D01*
X110824809Y-92421428D02*
X110824809Y-92302380D01*
X110824809Y-92302380D02*
X110848619Y-92254761D01*
X110848619Y-92254761D02*
X110872428Y-92230952D01*
X110872428Y-92230952D02*
X110920047Y-92207142D01*
X110920047Y-92207142D02*
X110967666Y-92207142D01*
X110967666Y-92207142D02*
X111039095Y-92230952D01*
X111039095Y-92230952D02*
X111324809Y-92516666D01*
X111324809Y-92516666D02*
X111324809Y-92207142D01*
X90177190Y-107121428D02*
X90201000Y-107145237D01*
X90201000Y-107145237D02*
X90224809Y-107216666D01*
X90224809Y-107216666D02*
X90224809Y-107264285D01*
X90224809Y-107264285D02*
X90201000Y-107335713D01*
X90201000Y-107335713D02*
X90153380Y-107383332D01*
X90153380Y-107383332D02*
X90105761Y-107407142D01*
X90105761Y-107407142D02*
X90010523Y-107430951D01*
X90010523Y-107430951D02*
X89939095Y-107430951D01*
X89939095Y-107430951D02*
X89843857Y-107407142D01*
X89843857Y-107407142D02*
X89796238Y-107383332D01*
X89796238Y-107383332D02*
X89748619Y-107335713D01*
X89748619Y-107335713D02*
X89724809Y-107264285D01*
X89724809Y-107264285D02*
X89724809Y-107216666D01*
X89724809Y-107216666D02*
X89748619Y-107145237D01*
X89748619Y-107145237D02*
X89772428Y-107121428D01*
X89772428Y-106930951D02*
X89748619Y-106907142D01*
X89748619Y-106907142D02*
X89724809Y-106859523D01*
X89724809Y-106859523D02*
X89724809Y-106740475D01*
X89724809Y-106740475D02*
X89748619Y-106692856D01*
X89748619Y-106692856D02*
X89772428Y-106669047D01*
X89772428Y-106669047D02*
X89820047Y-106645237D01*
X89820047Y-106645237D02*
X89867666Y-106645237D01*
X89867666Y-106645237D02*
X89939095Y-106669047D01*
X89939095Y-106669047D02*
X90224809Y-106954761D01*
X90224809Y-106954761D02*
X90224809Y-106645237D01*
X89724809Y-106478571D02*
X89724809Y-106145238D01*
X89724809Y-106145238D02*
X90224809Y-106359523D01*
X90341666Y-100124809D02*
X90175000Y-99886714D01*
X90055952Y-100124809D02*
X90055952Y-99624809D01*
X90055952Y-99624809D02*
X90246428Y-99624809D01*
X90246428Y-99624809D02*
X90294047Y-99648619D01*
X90294047Y-99648619D02*
X90317857Y-99672428D01*
X90317857Y-99672428D02*
X90341666Y-99720047D01*
X90341666Y-99720047D02*
X90341666Y-99791476D01*
X90341666Y-99791476D02*
X90317857Y-99839095D01*
X90317857Y-99839095D02*
X90294047Y-99862904D01*
X90294047Y-99862904D02*
X90246428Y-99886714D01*
X90246428Y-99886714D02*
X90055952Y-99886714D01*
X90508333Y-99624809D02*
X90841666Y-99624809D01*
X90841666Y-99624809D02*
X90627381Y-100124809D01*
X104716666Y-111184809D02*
X104550000Y-110946714D01*
X104430952Y-111184809D02*
X104430952Y-110684809D01*
X104430952Y-110684809D02*
X104621428Y-110684809D01*
X104621428Y-110684809D02*
X104669047Y-110708619D01*
X104669047Y-110708619D02*
X104692857Y-110732428D01*
X104692857Y-110732428D02*
X104716666Y-110780047D01*
X104716666Y-110780047D02*
X104716666Y-110851476D01*
X104716666Y-110851476D02*
X104692857Y-110899095D01*
X104692857Y-110899095D02*
X104669047Y-110922904D01*
X104669047Y-110922904D02*
X104621428Y-110946714D01*
X104621428Y-110946714D02*
X104430952Y-110946714D01*
X104954762Y-111184809D02*
X105050000Y-111184809D01*
X105050000Y-111184809D02*
X105097619Y-111161000D01*
X105097619Y-111161000D02*
X105121428Y-111137190D01*
X105121428Y-111137190D02*
X105169047Y-111065761D01*
X105169047Y-111065761D02*
X105192857Y-110970523D01*
X105192857Y-110970523D02*
X105192857Y-110780047D01*
X105192857Y-110780047D02*
X105169047Y-110732428D01*
X105169047Y-110732428D02*
X105145238Y-110708619D01*
X105145238Y-110708619D02*
X105097619Y-110684809D01*
X105097619Y-110684809D02*
X105002381Y-110684809D01*
X105002381Y-110684809D02*
X104954762Y-110708619D01*
X104954762Y-110708619D02*
X104930952Y-110732428D01*
X104930952Y-110732428D02*
X104907143Y-110780047D01*
X104907143Y-110780047D02*
X104907143Y-110899095D01*
X104907143Y-110899095D02*
X104930952Y-110946714D01*
X104930952Y-110946714D02*
X104954762Y-110970523D01*
X104954762Y-110970523D02*
X105002381Y-110994333D01*
X105002381Y-110994333D02*
X105097619Y-110994333D01*
X105097619Y-110994333D02*
X105145238Y-110970523D01*
X105145238Y-110970523D02*
X105169047Y-110946714D01*
X105169047Y-110946714D02*
X105192857Y-110899095D01*
X90124809Y-105221428D02*
X89886714Y-105388094D01*
X90124809Y-105507142D02*
X89624809Y-105507142D01*
X89624809Y-105507142D02*
X89624809Y-105316666D01*
X89624809Y-105316666D02*
X89648619Y-105269047D01*
X89648619Y-105269047D02*
X89672428Y-105245237D01*
X89672428Y-105245237D02*
X89720047Y-105221428D01*
X89720047Y-105221428D02*
X89791476Y-105221428D01*
X89791476Y-105221428D02*
X89839095Y-105245237D01*
X89839095Y-105245237D02*
X89862904Y-105269047D01*
X89862904Y-105269047D02*
X89886714Y-105316666D01*
X89886714Y-105316666D02*
X89886714Y-105507142D01*
X90124809Y-104745237D02*
X90124809Y-105030951D01*
X90124809Y-104888094D02*
X89624809Y-104888094D01*
X89624809Y-104888094D02*
X89696238Y-104935713D01*
X89696238Y-104935713D02*
X89743857Y-104983332D01*
X89743857Y-104983332D02*
X89767666Y-105030951D01*
X89624809Y-104292857D02*
X89624809Y-104530952D01*
X89624809Y-104530952D02*
X89862904Y-104554761D01*
X89862904Y-104554761D02*
X89839095Y-104530952D01*
X89839095Y-104530952D02*
X89815285Y-104483333D01*
X89815285Y-104483333D02*
X89815285Y-104364285D01*
X89815285Y-104364285D02*
X89839095Y-104316666D01*
X89839095Y-104316666D02*
X89862904Y-104292857D01*
X89862904Y-104292857D02*
X89910523Y-104269047D01*
X89910523Y-104269047D02*
X90029571Y-104269047D01*
X90029571Y-104269047D02*
X90077190Y-104292857D01*
X90077190Y-104292857D02*
X90101000Y-104316666D01*
X90101000Y-104316666D02*
X90124809Y-104364285D01*
X90124809Y-104364285D02*
X90124809Y-104483333D01*
X90124809Y-104483333D02*
X90101000Y-104530952D01*
X90101000Y-104530952D02*
X90077190Y-104554761D01*
X89978571Y-101677190D02*
X89954762Y-101701000D01*
X89954762Y-101701000D02*
X89883333Y-101724809D01*
X89883333Y-101724809D02*
X89835714Y-101724809D01*
X89835714Y-101724809D02*
X89764286Y-101701000D01*
X89764286Y-101701000D02*
X89716667Y-101653380D01*
X89716667Y-101653380D02*
X89692857Y-101605761D01*
X89692857Y-101605761D02*
X89669048Y-101510523D01*
X89669048Y-101510523D02*
X89669048Y-101439095D01*
X89669048Y-101439095D02*
X89692857Y-101343857D01*
X89692857Y-101343857D02*
X89716667Y-101296238D01*
X89716667Y-101296238D02*
X89764286Y-101248619D01*
X89764286Y-101248619D02*
X89835714Y-101224809D01*
X89835714Y-101224809D02*
X89883333Y-101224809D01*
X89883333Y-101224809D02*
X89954762Y-101248619D01*
X89954762Y-101248619D02*
X89978571Y-101272428D01*
X90169048Y-101272428D02*
X90192857Y-101248619D01*
X90192857Y-101248619D02*
X90240476Y-101224809D01*
X90240476Y-101224809D02*
X90359524Y-101224809D01*
X90359524Y-101224809D02*
X90407143Y-101248619D01*
X90407143Y-101248619D02*
X90430952Y-101272428D01*
X90430952Y-101272428D02*
X90454762Y-101320047D01*
X90454762Y-101320047D02*
X90454762Y-101367666D01*
X90454762Y-101367666D02*
X90430952Y-101439095D01*
X90430952Y-101439095D02*
X90145238Y-101724809D01*
X90145238Y-101724809D02*
X90454762Y-101724809D01*
X90907142Y-101224809D02*
X90669047Y-101224809D01*
X90669047Y-101224809D02*
X90645238Y-101462904D01*
X90645238Y-101462904D02*
X90669047Y-101439095D01*
X90669047Y-101439095D02*
X90716666Y-101415285D01*
X90716666Y-101415285D02*
X90835714Y-101415285D01*
X90835714Y-101415285D02*
X90883333Y-101439095D01*
X90883333Y-101439095D02*
X90907142Y-101462904D01*
X90907142Y-101462904D02*
X90930952Y-101510523D01*
X90930952Y-101510523D02*
X90930952Y-101629571D01*
X90930952Y-101629571D02*
X90907142Y-101677190D01*
X90907142Y-101677190D02*
X90883333Y-101701000D01*
X90883333Y-101701000D02*
X90835714Y-101724809D01*
X90835714Y-101724809D02*
X90716666Y-101724809D01*
X90716666Y-101724809D02*
X90669047Y-101701000D01*
X90669047Y-101701000D02*
X90645238Y-101677190D01*
X105024809Y-88721428D02*
X104786714Y-88888094D01*
X105024809Y-89007142D02*
X104524809Y-89007142D01*
X104524809Y-89007142D02*
X104524809Y-88816666D01*
X104524809Y-88816666D02*
X104548619Y-88769047D01*
X104548619Y-88769047D02*
X104572428Y-88745237D01*
X104572428Y-88745237D02*
X104620047Y-88721428D01*
X104620047Y-88721428D02*
X104691476Y-88721428D01*
X104691476Y-88721428D02*
X104739095Y-88745237D01*
X104739095Y-88745237D02*
X104762904Y-88769047D01*
X104762904Y-88769047D02*
X104786714Y-88816666D01*
X104786714Y-88816666D02*
X104786714Y-89007142D01*
X105024809Y-88245237D02*
X105024809Y-88530951D01*
X105024809Y-88388094D02*
X104524809Y-88388094D01*
X104524809Y-88388094D02*
X104596238Y-88435713D01*
X104596238Y-88435713D02*
X104643857Y-88483332D01*
X104643857Y-88483332D02*
X104667666Y-88530951D01*
X104524809Y-88078571D02*
X104524809Y-87769047D01*
X104524809Y-87769047D02*
X104715285Y-87935714D01*
X104715285Y-87935714D02*
X104715285Y-87864285D01*
X104715285Y-87864285D02*
X104739095Y-87816666D01*
X104739095Y-87816666D02*
X104762904Y-87792857D01*
X104762904Y-87792857D02*
X104810523Y-87769047D01*
X104810523Y-87769047D02*
X104929571Y-87769047D01*
X104929571Y-87769047D02*
X104977190Y-87792857D01*
X104977190Y-87792857D02*
X105001000Y-87816666D01*
X105001000Y-87816666D02*
X105024809Y-87864285D01*
X105024809Y-87864285D02*
X105024809Y-88007142D01*
X105024809Y-88007142D02*
X105001000Y-88054761D01*
X105001000Y-88054761D02*
X104977190Y-88078571D01*
X115262309Y-103118452D02*
X115667071Y-103118452D01*
X115667071Y-103118452D02*
X115714690Y-103094642D01*
X115714690Y-103094642D02*
X115738500Y-103070833D01*
X115738500Y-103070833D02*
X115762309Y-103023214D01*
X115762309Y-103023214D02*
X115762309Y-102927976D01*
X115762309Y-102927976D02*
X115738500Y-102880357D01*
X115738500Y-102880357D02*
X115714690Y-102856547D01*
X115714690Y-102856547D02*
X115667071Y-102832738D01*
X115667071Y-102832738D02*
X115262309Y-102832738D01*
X115762309Y-102332737D02*
X115762309Y-102618451D01*
X115762309Y-102475594D02*
X115262309Y-102475594D01*
X115262309Y-102475594D02*
X115333738Y-102523213D01*
X115333738Y-102523213D02*
X115381357Y-102570832D01*
X115381357Y-102570832D02*
X115405166Y-102618451D01*
X105224809Y-104169047D02*
X104724809Y-104169047D01*
X104724809Y-104169047D02*
X104724809Y-104049999D01*
X104724809Y-104049999D02*
X104748619Y-103978571D01*
X104748619Y-103978571D02*
X104796238Y-103930952D01*
X104796238Y-103930952D02*
X104843857Y-103907142D01*
X104843857Y-103907142D02*
X104939095Y-103883333D01*
X104939095Y-103883333D02*
X105010523Y-103883333D01*
X105010523Y-103883333D02*
X105105761Y-103907142D01*
X105105761Y-103907142D02*
X105153380Y-103930952D01*
X105153380Y-103930952D02*
X105201000Y-103978571D01*
X105201000Y-103978571D02*
X105224809Y-104049999D01*
X105224809Y-104049999D02*
X105224809Y-104169047D01*
X105224809Y-103407142D02*
X105224809Y-103692856D01*
X105224809Y-103549999D02*
X104724809Y-103549999D01*
X104724809Y-103549999D02*
X104796238Y-103597618D01*
X104796238Y-103597618D02*
X104843857Y-103645237D01*
X104843857Y-103645237D02*
X104867666Y-103692856D01*
X104716666Y-109824809D02*
X104550000Y-109586714D01*
X104430952Y-109824809D02*
X104430952Y-109324809D01*
X104430952Y-109324809D02*
X104621428Y-109324809D01*
X104621428Y-109324809D02*
X104669047Y-109348619D01*
X104669047Y-109348619D02*
X104692857Y-109372428D01*
X104692857Y-109372428D02*
X104716666Y-109420047D01*
X104716666Y-109420047D02*
X104716666Y-109491476D01*
X104716666Y-109491476D02*
X104692857Y-109539095D01*
X104692857Y-109539095D02*
X104669047Y-109562904D01*
X104669047Y-109562904D02*
X104621428Y-109586714D01*
X104621428Y-109586714D02*
X104430952Y-109586714D01*
X105002381Y-109539095D02*
X104954762Y-109515285D01*
X104954762Y-109515285D02*
X104930952Y-109491476D01*
X104930952Y-109491476D02*
X104907143Y-109443857D01*
X104907143Y-109443857D02*
X104907143Y-109420047D01*
X104907143Y-109420047D02*
X104930952Y-109372428D01*
X104930952Y-109372428D02*
X104954762Y-109348619D01*
X104954762Y-109348619D02*
X105002381Y-109324809D01*
X105002381Y-109324809D02*
X105097619Y-109324809D01*
X105097619Y-109324809D02*
X105145238Y-109348619D01*
X105145238Y-109348619D02*
X105169047Y-109372428D01*
X105169047Y-109372428D02*
X105192857Y-109420047D01*
X105192857Y-109420047D02*
X105192857Y-109443857D01*
X105192857Y-109443857D02*
X105169047Y-109491476D01*
X105169047Y-109491476D02*
X105145238Y-109515285D01*
X105145238Y-109515285D02*
X105097619Y-109539095D01*
X105097619Y-109539095D02*
X105002381Y-109539095D01*
X105002381Y-109539095D02*
X104954762Y-109562904D01*
X104954762Y-109562904D02*
X104930952Y-109586714D01*
X104930952Y-109586714D02*
X104907143Y-109634333D01*
X104907143Y-109634333D02*
X104907143Y-109729571D01*
X104907143Y-109729571D02*
X104930952Y-109777190D01*
X104930952Y-109777190D02*
X104954762Y-109801000D01*
X104954762Y-109801000D02*
X105002381Y-109824809D01*
X105002381Y-109824809D02*
X105097619Y-109824809D01*
X105097619Y-109824809D02*
X105145238Y-109801000D01*
X105145238Y-109801000D02*
X105169047Y-109777190D01*
X105169047Y-109777190D02*
X105192857Y-109729571D01*
X105192857Y-109729571D02*
X105192857Y-109634333D01*
X105192857Y-109634333D02*
X105169047Y-109586714D01*
X105169047Y-109586714D02*
X105145238Y-109562904D01*
X105145238Y-109562904D02*
X105097619Y-109539095D01*
X113177190Y-94283333D02*
X113201000Y-94307142D01*
X113201000Y-94307142D02*
X113224809Y-94378571D01*
X113224809Y-94378571D02*
X113224809Y-94426190D01*
X113224809Y-94426190D02*
X113201000Y-94497618D01*
X113201000Y-94497618D02*
X113153380Y-94545237D01*
X113153380Y-94545237D02*
X113105761Y-94569047D01*
X113105761Y-94569047D02*
X113010523Y-94592856D01*
X113010523Y-94592856D02*
X112939095Y-94592856D01*
X112939095Y-94592856D02*
X112843857Y-94569047D01*
X112843857Y-94569047D02*
X112796238Y-94545237D01*
X112796238Y-94545237D02*
X112748619Y-94497618D01*
X112748619Y-94497618D02*
X112724809Y-94426190D01*
X112724809Y-94426190D02*
X112724809Y-94378571D01*
X112724809Y-94378571D02*
X112748619Y-94307142D01*
X112748619Y-94307142D02*
X112772428Y-94283333D01*
X112724809Y-93830952D02*
X112724809Y-94069047D01*
X112724809Y-94069047D02*
X112962904Y-94092856D01*
X112962904Y-94092856D02*
X112939095Y-94069047D01*
X112939095Y-94069047D02*
X112915285Y-94021428D01*
X112915285Y-94021428D02*
X112915285Y-93902380D01*
X112915285Y-93902380D02*
X112939095Y-93854761D01*
X112939095Y-93854761D02*
X112962904Y-93830952D01*
X112962904Y-93830952D02*
X113010523Y-93807142D01*
X113010523Y-93807142D02*
X113129571Y-93807142D01*
X113129571Y-93807142D02*
X113177190Y-93830952D01*
X113177190Y-93830952D02*
X113201000Y-93854761D01*
X113201000Y-93854761D02*
X113224809Y-93902380D01*
X113224809Y-93902380D02*
X113224809Y-94021428D01*
X113224809Y-94021428D02*
X113201000Y-94069047D01*
X113201000Y-94069047D02*
X113177190Y-94092856D01*
X94178571Y-85524809D02*
X94011905Y-85286714D01*
X93892857Y-85524809D02*
X93892857Y-85024809D01*
X93892857Y-85024809D02*
X94083333Y-85024809D01*
X94083333Y-85024809D02*
X94130952Y-85048619D01*
X94130952Y-85048619D02*
X94154762Y-85072428D01*
X94154762Y-85072428D02*
X94178571Y-85120047D01*
X94178571Y-85120047D02*
X94178571Y-85191476D01*
X94178571Y-85191476D02*
X94154762Y-85239095D01*
X94154762Y-85239095D02*
X94130952Y-85262904D01*
X94130952Y-85262904D02*
X94083333Y-85286714D01*
X94083333Y-85286714D02*
X93892857Y-85286714D01*
X94654762Y-85524809D02*
X94369048Y-85524809D01*
X94511905Y-85524809D02*
X94511905Y-85024809D01*
X94511905Y-85024809D02*
X94464286Y-85096238D01*
X94464286Y-85096238D02*
X94416667Y-85143857D01*
X94416667Y-85143857D02*
X94369048Y-85167666D01*
X94964285Y-85024809D02*
X95011904Y-85024809D01*
X95011904Y-85024809D02*
X95059523Y-85048619D01*
X95059523Y-85048619D02*
X95083333Y-85072428D01*
X95083333Y-85072428D02*
X95107142Y-85120047D01*
X95107142Y-85120047D02*
X95130952Y-85215285D01*
X95130952Y-85215285D02*
X95130952Y-85334333D01*
X95130952Y-85334333D02*
X95107142Y-85429571D01*
X95107142Y-85429571D02*
X95083333Y-85477190D01*
X95083333Y-85477190D02*
X95059523Y-85501000D01*
X95059523Y-85501000D02*
X95011904Y-85524809D01*
X95011904Y-85524809D02*
X94964285Y-85524809D01*
X94964285Y-85524809D02*
X94916666Y-85501000D01*
X94916666Y-85501000D02*
X94892857Y-85477190D01*
X94892857Y-85477190D02*
X94869047Y-85429571D01*
X94869047Y-85429571D02*
X94845238Y-85334333D01*
X94845238Y-85334333D02*
X94845238Y-85215285D01*
X94845238Y-85215285D02*
X94869047Y-85120047D01*
X94869047Y-85120047D02*
X94892857Y-85072428D01*
X94892857Y-85072428D02*
X94916666Y-85048619D01*
X94916666Y-85048619D02*
X94964285Y-85024809D01*
X100177190Y-112621428D02*
X100201000Y-112645237D01*
X100201000Y-112645237D02*
X100224809Y-112716666D01*
X100224809Y-112716666D02*
X100224809Y-112764285D01*
X100224809Y-112764285D02*
X100201000Y-112835713D01*
X100201000Y-112835713D02*
X100153380Y-112883332D01*
X100153380Y-112883332D02*
X100105761Y-112907142D01*
X100105761Y-112907142D02*
X100010523Y-112930951D01*
X100010523Y-112930951D02*
X99939095Y-112930951D01*
X99939095Y-112930951D02*
X99843857Y-112907142D01*
X99843857Y-112907142D02*
X99796238Y-112883332D01*
X99796238Y-112883332D02*
X99748619Y-112835713D01*
X99748619Y-112835713D02*
X99724809Y-112764285D01*
X99724809Y-112764285D02*
X99724809Y-112716666D01*
X99724809Y-112716666D02*
X99748619Y-112645237D01*
X99748619Y-112645237D02*
X99772428Y-112621428D01*
X99772428Y-112430951D02*
X99748619Y-112407142D01*
X99748619Y-112407142D02*
X99724809Y-112359523D01*
X99724809Y-112359523D02*
X99724809Y-112240475D01*
X99724809Y-112240475D02*
X99748619Y-112192856D01*
X99748619Y-112192856D02*
X99772428Y-112169047D01*
X99772428Y-112169047D02*
X99820047Y-112145237D01*
X99820047Y-112145237D02*
X99867666Y-112145237D01*
X99867666Y-112145237D02*
X99939095Y-112169047D01*
X99939095Y-112169047D02*
X100224809Y-112454761D01*
X100224809Y-112454761D02*
X100224809Y-112145237D01*
X100224809Y-111907142D02*
X100224809Y-111811904D01*
X100224809Y-111811904D02*
X100201000Y-111764285D01*
X100201000Y-111764285D02*
X100177190Y-111740476D01*
X100177190Y-111740476D02*
X100105761Y-111692857D01*
X100105761Y-111692857D02*
X100010523Y-111669047D01*
X100010523Y-111669047D02*
X99820047Y-111669047D01*
X99820047Y-111669047D02*
X99772428Y-111692857D01*
X99772428Y-111692857D02*
X99748619Y-111716666D01*
X99748619Y-111716666D02*
X99724809Y-111764285D01*
X99724809Y-111764285D02*
X99724809Y-111859523D01*
X99724809Y-111859523D02*
X99748619Y-111907142D01*
X99748619Y-111907142D02*
X99772428Y-111930952D01*
X99772428Y-111930952D02*
X99820047Y-111954761D01*
X99820047Y-111954761D02*
X99939095Y-111954761D01*
X99939095Y-111954761D02*
X99986714Y-111930952D01*
X99986714Y-111930952D02*
X100010523Y-111907142D01*
X100010523Y-111907142D02*
X100034333Y-111859523D01*
X100034333Y-111859523D02*
X100034333Y-111764285D01*
X100034333Y-111764285D02*
X100010523Y-111716666D01*
X100010523Y-111716666D02*
X99986714Y-111692857D01*
X99986714Y-111692857D02*
X99939095Y-111669047D01*
X82778571Y-85977190D02*
X82754762Y-86001000D01*
X82754762Y-86001000D02*
X82683333Y-86024809D01*
X82683333Y-86024809D02*
X82635714Y-86024809D01*
X82635714Y-86024809D02*
X82564286Y-86001000D01*
X82564286Y-86001000D02*
X82516667Y-85953380D01*
X82516667Y-85953380D02*
X82492857Y-85905761D01*
X82492857Y-85905761D02*
X82469048Y-85810523D01*
X82469048Y-85810523D02*
X82469048Y-85739095D01*
X82469048Y-85739095D02*
X82492857Y-85643857D01*
X82492857Y-85643857D02*
X82516667Y-85596238D01*
X82516667Y-85596238D02*
X82564286Y-85548619D01*
X82564286Y-85548619D02*
X82635714Y-85524809D01*
X82635714Y-85524809D02*
X82683333Y-85524809D01*
X82683333Y-85524809D02*
X82754762Y-85548619D01*
X82754762Y-85548619D02*
X82778571Y-85572428D01*
X83254762Y-86024809D02*
X82969048Y-86024809D01*
X83111905Y-86024809D02*
X83111905Y-85524809D01*
X83111905Y-85524809D02*
X83064286Y-85596238D01*
X83064286Y-85596238D02*
X83016667Y-85643857D01*
X83016667Y-85643857D02*
X82969048Y-85667666D01*
X83445238Y-85572428D02*
X83469047Y-85548619D01*
X83469047Y-85548619D02*
X83516666Y-85524809D01*
X83516666Y-85524809D02*
X83635714Y-85524809D01*
X83635714Y-85524809D02*
X83683333Y-85548619D01*
X83683333Y-85548619D02*
X83707142Y-85572428D01*
X83707142Y-85572428D02*
X83730952Y-85620047D01*
X83730952Y-85620047D02*
X83730952Y-85667666D01*
X83730952Y-85667666D02*
X83707142Y-85739095D01*
X83707142Y-85739095D02*
X83421428Y-86024809D01*
X83421428Y-86024809D02*
X83730952Y-86024809D01*
X82555952Y-100224809D02*
X82555952Y-99724809D01*
X82555952Y-99724809D02*
X82675000Y-99724809D01*
X82675000Y-99724809D02*
X82746428Y-99748619D01*
X82746428Y-99748619D02*
X82794047Y-99796238D01*
X82794047Y-99796238D02*
X82817857Y-99843857D01*
X82817857Y-99843857D02*
X82841666Y-99939095D01*
X82841666Y-99939095D02*
X82841666Y-100010523D01*
X82841666Y-100010523D02*
X82817857Y-100105761D01*
X82817857Y-100105761D02*
X82794047Y-100153380D01*
X82794047Y-100153380D02*
X82746428Y-100201000D01*
X82746428Y-100201000D02*
X82675000Y-100224809D01*
X82675000Y-100224809D02*
X82555952Y-100224809D01*
X83294047Y-99724809D02*
X83055952Y-99724809D01*
X83055952Y-99724809D02*
X83032143Y-99962904D01*
X83032143Y-99962904D02*
X83055952Y-99939095D01*
X83055952Y-99939095D02*
X83103571Y-99915285D01*
X83103571Y-99915285D02*
X83222619Y-99915285D01*
X83222619Y-99915285D02*
X83270238Y-99939095D01*
X83270238Y-99939095D02*
X83294047Y-99962904D01*
X83294047Y-99962904D02*
X83317857Y-100010523D01*
X83317857Y-100010523D02*
X83317857Y-100129571D01*
X83317857Y-100129571D02*
X83294047Y-100177190D01*
X83294047Y-100177190D02*
X83270238Y-100201000D01*
X83270238Y-100201000D02*
X83222619Y-100224809D01*
X83222619Y-100224809D02*
X83103571Y-100224809D01*
X83103571Y-100224809D02*
X83055952Y-100201000D01*
X83055952Y-100201000D02*
X83032143Y-100177190D01*
X98019047Y-100024809D02*
X98019047Y-100429571D01*
X98019047Y-100429571D02*
X98042857Y-100477190D01*
X98042857Y-100477190D02*
X98066666Y-100501000D01*
X98066666Y-100501000D02*
X98114285Y-100524809D01*
X98114285Y-100524809D02*
X98209523Y-100524809D01*
X98209523Y-100524809D02*
X98257142Y-100501000D01*
X98257142Y-100501000D02*
X98280952Y-100477190D01*
X98280952Y-100477190D02*
X98304761Y-100429571D01*
X98304761Y-100429571D02*
X98304761Y-100024809D01*
X98757143Y-100191476D02*
X98757143Y-100524809D01*
X98638095Y-100001000D02*
X98519048Y-100358142D01*
X98519048Y-100358142D02*
X98828571Y-100358142D01*
X115816666Y-96677190D02*
X115792857Y-96701000D01*
X115792857Y-96701000D02*
X115721428Y-96724809D01*
X115721428Y-96724809D02*
X115673809Y-96724809D01*
X115673809Y-96724809D02*
X115602381Y-96701000D01*
X115602381Y-96701000D02*
X115554762Y-96653380D01*
X115554762Y-96653380D02*
X115530952Y-96605761D01*
X115530952Y-96605761D02*
X115507143Y-96510523D01*
X115507143Y-96510523D02*
X115507143Y-96439095D01*
X115507143Y-96439095D02*
X115530952Y-96343857D01*
X115530952Y-96343857D02*
X115554762Y-96296238D01*
X115554762Y-96296238D02*
X115602381Y-96248619D01*
X115602381Y-96248619D02*
X115673809Y-96224809D01*
X115673809Y-96224809D02*
X115721428Y-96224809D01*
X115721428Y-96224809D02*
X115792857Y-96248619D01*
X115792857Y-96248619D02*
X115816666Y-96272428D01*
X116102381Y-96439095D02*
X116054762Y-96415285D01*
X116054762Y-96415285D02*
X116030952Y-96391476D01*
X116030952Y-96391476D02*
X116007143Y-96343857D01*
X116007143Y-96343857D02*
X116007143Y-96320047D01*
X116007143Y-96320047D02*
X116030952Y-96272428D01*
X116030952Y-96272428D02*
X116054762Y-96248619D01*
X116054762Y-96248619D02*
X116102381Y-96224809D01*
X116102381Y-96224809D02*
X116197619Y-96224809D01*
X116197619Y-96224809D02*
X116245238Y-96248619D01*
X116245238Y-96248619D02*
X116269047Y-96272428D01*
X116269047Y-96272428D02*
X116292857Y-96320047D01*
X116292857Y-96320047D02*
X116292857Y-96343857D01*
X116292857Y-96343857D02*
X116269047Y-96391476D01*
X116269047Y-96391476D02*
X116245238Y-96415285D01*
X116245238Y-96415285D02*
X116197619Y-96439095D01*
X116197619Y-96439095D02*
X116102381Y-96439095D01*
X116102381Y-96439095D02*
X116054762Y-96462904D01*
X116054762Y-96462904D02*
X116030952Y-96486714D01*
X116030952Y-96486714D02*
X116007143Y-96534333D01*
X116007143Y-96534333D02*
X116007143Y-96629571D01*
X116007143Y-96629571D02*
X116030952Y-96677190D01*
X116030952Y-96677190D02*
X116054762Y-96701000D01*
X116054762Y-96701000D02*
X116102381Y-96724809D01*
X116102381Y-96724809D02*
X116197619Y-96724809D01*
X116197619Y-96724809D02*
X116245238Y-96701000D01*
X116245238Y-96701000D02*
X116269047Y-96677190D01*
X116269047Y-96677190D02*
X116292857Y-96629571D01*
X116292857Y-96629571D02*
X116292857Y-96534333D01*
X116292857Y-96534333D02*
X116269047Y-96486714D01*
X116269047Y-96486714D02*
X116245238Y-96462904D01*
X116245238Y-96462904D02*
X116197619Y-96439095D01*
X111033334Y-92441000D02*
X111104762Y-92464809D01*
X111104762Y-92464809D02*
X111223810Y-92464809D01*
X111223810Y-92464809D02*
X111271429Y-92441000D01*
X111271429Y-92441000D02*
X111295238Y-92417190D01*
X111295238Y-92417190D02*
X111319048Y-92369571D01*
X111319048Y-92369571D02*
X111319048Y-92321952D01*
X111319048Y-92321952D02*
X111295238Y-92274333D01*
X111295238Y-92274333D02*
X111271429Y-92250523D01*
X111271429Y-92250523D02*
X111223810Y-92226714D01*
X111223810Y-92226714D02*
X111128572Y-92202904D01*
X111128572Y-92202904D02*
X111080953Y-92179095D01*
X111080953Y-92179095D02*
X111057143Y-92155285D01*
X111057143Y-92155285D02*
X111033334Y-92107666D01*
X111033334Y-92107666D02*
X111033334Y-92060047D01*
X111033334Y-92060047D02*
X111057143Y-92012428D01*
X111057143Y-92012428D02*
X111080953Y-91988619D01*
X111080953Y-91988619D02*
X111128572Y-91964809D01*
X111128572Y-91964809D02*
X111247619Y-91964809D01*
X111247619Y-91964809D02*
X111319048Y-91988619D01*
X111485714Y-91964809D02*
X111604762Y-92464809D01*
X111604762Y-92464809D02*
X111700000Y-92107666D01*
X111700000Y-92107666D02*
X111795238Y-92464809D01*
X111795238Y-92464809D02*
X111914286Y-91964809D01*
X112080953Y-92012428D02*
X112104762Y-91988619D01*
X112104762Y-91988619D02*
X112152381Y-91964809D01*
X112152381Y-91964809D02*
X112271429Y-91964809D01*
X112271429Y-91964809D02*
X112319048Y-91988619D01*
X112319048Y-91988619D02*
X112342857Y-92012428D01*
X112342857Y-92012428D02*
X112366667Y-92060047D01*
X112366667Y-92060047D02*
X112366667Y-92107666D01*
X112366667Y-92107666D02*
X112342857Y-92179095D01*
X112342857Y-92179095D02*
X112057143Y-92464809D01*
X112057143Y-92464809D02*
X112366667Y-92464809D01*
X100378571Y-81077190D02*
X100354762Y-81101000D01*
X100354762Y-81101000D02*
X100283333Y-81124809D01*
X100283333Y-81124809D02*
X100235714Y-81124809D01*
X100235714Y-81124809D02*
X100164286Y-81101000D01*
X100164286Y-81101000D02*
X100116667Y-81053380D01*
X100116667Y-81053380D02*
X100092857Y-81005761D01*
X100092857Y-81005761D02*
X100069048Y-80910523D01*
X100069048Y-80910523D02*
X100069048Y-80839095D01*
X100069048Y-80839095D02*
X100092857Y-80743857D01*
X100092857Y-80743857D02*
X100116667Y-80696238D01*
X100116667Y-80696238D02*
X100164286Y-80648619D01*
X100164286Y-80648619D02*
X100235714Y-80624809D01*
X100235714Y-80624809D02*
X100283333Y-80624809D01*
X100283333Y-80624809D02*
X100354762Y-80648619D01*
X100354762Y-80648619D02*
X100378571Y-80672428D01*
X100569048Y-80672428D02*
X100592857Y-80648619D01*
X100592857Y-80648619D02*
X100640476Y-80624809D01*
X100640476Y-80624809D02*
X100759524Y-80624809D01*
X100759524Y-80624809D02*
X100807143Y-80648619D01*
X100807143Y-80648619D02*
X100830952Y-80672428D01*
X100830952Y-80672428D02*
X100854762Y-80720047D01*
X100854762Y-80720047D02*
X100854762Y-80767666D01*
X100854762Y-80767666D02*
X100830952Y-80839095D01*
X100830952Y-80839095D02*
X100545238Y-81124809D01*
X100545238Y-81124809D02*
X100854762Y-81124809D01*
X101021428Y-80624809D02*
X101330952Y-80624809D01*
X101330952Y-80624809D02*
X101164285Y-80815285D01*
X101164285Y-80815285D02*
X101235714Y-80815285D01*
X101235714Y-80815285D02*
X101283333Y-80839095D01*
X101283333Y-80839095D02*
X101307142Y-80862904D01*
X101307142Y-80862904D02*
X101330952Y-80910523D01*
X101330952Y-80910523D02*
X101330952Y-81029571D01*
X101330952Y-81029571D02*
X101307142Y-81077190D01*
X101307142Y-81077190D02*
X101283333Y-81101000D01*
X101283333Y-81101000D02*
X101235714Y-81124809D01*
X101235714Y-81124809D02*
X101092857Y-81124809D01*
X101092857Y-81124809D02*
X101045238Y-81101000D01*
X101045238Y-81101000D02*
X101021428Y-81077190D01*
X100678571Y-101117190D02*
X100654762Y-101141000D01*
X100654762Y-101141000D02*
X100583333Y-101164809D01*
X100583333Y-101164809D02*
X100535714Y-101164809D01*
X100535714Y-101164809D02*
X100464286Y-101141000D01*
X100464286Y-101141000D02*
X100416667Y-101093380D01*
X100416667Y-101093380D02*
X100392857Y-101045761D01*
X100392857Y-101045761D02*
X100369048Y-100950523D01*
X100369048Y-100950523D02*
X100369048Y-100879095D01*
X100369048Y-100879095D02*
X100392857Y-100783857D01*
X100392857Y-100783857D02*
X100416667Y-100736238D01*
X100416667Y-100736238D02*
X100464286Y-100688619D01*
X100464286Y-100688619D02*
X100535714Y-100664809D01*
X100535714Y-100664809D02*
X100583333Y-100664809D01*
X100583333Y-100664809D02*
X100654762Y-100688619D01*
X100654762Y-100688619D02*
X100678571Y-100712428D01*
X100869048Y-100712428D02*
X100892857Y-100688619D01*
X100892857Y-100688619D02*
X100940476Y-100664809D01*
X100940476Y-100664809D02*
X101059524Y-100664809D01*
X101059524Y-100664809D02*
X101107143Y-100688619D01*
X101107143Y-100688619D02*
X101130952Y-100712428D01*
X101130952Y-100712428D02*
X101154762Y-100760047D01*
X101154762Y-100760047D02*
X101154762Y-100807666D01*
X101154762Y-100807666D02*
X101130952Y-100879095D01*
X101130952Y-100879095D02*
X100845238Y-101164809D01*
X100845238Y-101164809D02*
X101154762Y-101164809D01*
X101440476Y-100879095D02*
X101392857Y-100855285D01*
X101392857Y-100855285D02*
X101369047Y-100831476D01*
X101369047Y-100831476D02*
X101345238Y-100783857D01*
X101345238Y-100783857D02*
X101345238Y-100760047D01*
X101345238Y-100760047D02*
X101369047Y-100712428D01*
X101369047Y-100712428D02*
X101392857Y-100688619D01*
X101392857Y-100688619D02*
X101440476Y-100664809D01*
X101440476Y-100664809D02*
X101535714Y-100664809D01*
X101535714Y-100664809D02*
X101583333Y-100688619D01*
X101583333Y-100688619D02*
X101607142Y-100712428D01*
X101607142Y-100712428D02*
X101630952Y-100760047D01*
X101630952Y-100760047D02*
X101630952Y-100783857D01*
X101630952Y-100783857D02*
X101607142Y-100831476D01*
X101607142Y-100831476D02*
X101583333Y-100855285D01*
X101583333Y-100855285D02*
X101535714Y-100879095D01*
X101535714Y-100879095D02*
X101440476Y-100879095D01*
X101440476Y-100879095D02*
X101392857Y-100902904D01*
X101392857Y-100902904D02*
X101369047Y-100926714D01*
X101369047Y-100926714D02*
X101345238Y-100974333D01*
X101345238Y-100974333D02*
X101345238Y-101069571D01*
X101345238Y-101069571D02*
X101369047Y-101117190D01*
X101369047Y-101117190D02*
X101392857Y-101141000D01*
X101392857Y-101141000D02*
X101440476Y-101164809D01*
X101440476Y-101164809D02*
X101535714Y-101164809D01*
X101535714Y-101164809D02*
X101583333Y-101141000D01*
X101583333Y-101141000D02*
X101607142Y-101117190D01*
X101607142Y-101117190D02*
X101630952Y-101069571D01*
X101630952Y-101069571D02*
X101630952Y-100974333D01*
X101630952Y-100974333D02*
X101607142Y-100926714D01*
X101607142Y-100926714D02*
X101583333Y-100902904D01*
X101583333Y-100902904D02*
X101535714Y-100879095D01*
X85578571Y-98077190D02*
X85554762Y-98101000D01*
X85554762Y-98101000D02*
X85483333Y-98124809D01*
X85483333Y-98124809D02*
X85435714Y-98124809D01*
X85435714Y-98124809D02*
X85364286Y-98101000D01*
X85364286Y-98101000D02*
X85316667Y-98053380D01*
X85316667Y-98053380D02*
X85292857Y-98005761D01*
X85292857Y-98005761D02*
X85269048Y-97910523D01*
X85269048Y-97910523D02*
X85269048Y-97839095D01*
X85269048Y-97839095D02*
X85292857Y-97743857D01*
X85292857Y-97743857D02*
X85316667Y-97696238D01*
X85316667Y-97696238D02*
X85364286Y-97648619D01*
X85364286Y-97648619D02*
X85435714Y-97624809D01*
X85435714Y-97624809D02*
X85483333Y-97624809D01*
X85483333Y-97624809D02*
X85554762Y-97648619D01*
X85554762Y-97648619D02*
X85578571Y-97672428D01*
X86054762Y-98124809D02*
X85769048Y-98124809D01*
X85911905Y-98124809D02*
X85911905Y-97624809D01*
X85911905Y-97624809D02*
X85864286Y-97696238D01*
X85864286Y-97696238D02*
X85816667Y-97743857D01*
X85816667Y-97743857D02*
X85769048Y-97767666D01*
X86483333Y-97624809D02*
X86388095Y-97624809D01*
X86388095Y-97624809D02*
X86340476Y-97648619D01*
X86340476Y-97648619D02*
X86316666Y-97672428D01*
X86316666Y-97672428D02*
X86269047Y-97743857D01*
X86269047Y-97743857D02*
X86245238Y-97839095D01*
X86245238Y-97839095D02*
X86245238Y-98029571D01*
X86245238Y-98029571D02*
X86269047Y-98077190D01*
X86269047Y-98077190D02*
X86292857Y-98101000D01*
X86292857Y-98101000D02*
X86340476Y-98124809D01*
X86340476Y-98124809D02*
X86435714Y-98124809D01*
X86435714Y-98124809D02*
X86483333Y-98101000D01*
X86483333Y-98101000D02*
X86507142Y-98077190D01*
X86507142Y-98077190D02*
X86530952Y-98029571D01*
X86530952Y-98029571D02*
X86530952Y-97910523D01*
X86530952Y-97910523D02*
X86507142Y-97862904D01*
X86507142Y-97862904D02*
X86483333Y-97839095D01*
X86483333Y-97839095D02*
X86435714Y-97815285D01*
X86435714Y-97815285D02*
X86340476Y-97815285D01*
X86340476Y-97815285D02*
X86292857Y-97839095D01*
X86292857Y-97839095D02*
X86269047Y-97862904D01*
X86269047Y-97862904D02*
X86245238Y-97910523D01*
X98530952Y-87624809D02*
X98530952Y-87124809D01*
X98530952Y-87124809D02*
X98650000Y-87124809D01*
X98650000Y-87124809D02*
X98721428Y-87148619D01*
X98721428Y-87148619D02*
X98769047Y-87196238D01*
X98769047Y-87196238D02*
X98792857Y-87243857D01*
X98792857Y-87243857D02*
X98816666Y-87339095D01*
X98816666Y-87339095D02*
X98816666Y-87410523D01*
X98816666Y-87410523D02*
X98792857Y-87505761D01*
X98792857Y-87505761D02*
X98769047Y-87553380D01*
X98769047Y-87553380D02*
X98721428Y-87601000D01*
X98721428Y-87601000D02*
X98650000Y-87624809D01*
X98650000Y-87624809D02*
X98530952Y-87624809D01*
X99102381Y-87339095D02*
X99054762Y-87315285D01*
X99054762Y-87315285D02*
X99030952Y-87291476D01*
X99030952Y-87291476D02*
X99007143Y-87243857D01*
X99007143Y-87243857D02*
X99007143Y-87220047D01*
X99007143Y-87220047D02*
X99030952Y-87172428D01*
X99030952Y-87172428D02*
X99054762Y-87148619D01*
X99054762Y-87148619D02*
X99102381Y-87124809D01*
X99102381Y-87124809D02*
X99197619Y-87124809D01*
X99197619Y-87124809D02*
X99245238Y-87148619D01*
X99245238Y-87148619D02*
X99269047Y-87172428D01*
X99269047Y-87172428D02*
X99292857Y-87220047D01*
X99292857Y-87220047D02*
X99292857Y-87243857D01*
X99292857Y-87243857D02*
X99269047Y-87291476D01*
X99269047Y-87291476D02*
X99245238Y-87315285D01*
X99245238Y-87315285D02*
X99197619Y-87339095D01*
X99197619Y-87339095D02*
X99102381Y-87339095D01*
X99102381Y-87339095D02*
X99054762Y-87362904D01*
X99054762Y-87362904D02*
X99030952Y-87386714D01*
X99030952Y-87386714D02*
X99007143Y-87434333D01*
X99007143Y-87434333D02*
X99007143Y-87529571D01*
X99007143Y-87529571D02*
X99030952Y-87577190D01*
X99030952Y-87577190D02*
X99054762Y-87601000D01*
X99054762Y-87601000D02*
X99102381Y-87624809D01*
X99102381Y-87624809D02*
X99197619Y-87624809D01*
X99197619Y-87624809D02*
X99245238Y-87601000D01*
X99245238Y-87601000D02*
X99269047Y-87577190D01*
X99269047Y-87577190D02*
X99292857Y-87529571D01*
X99292857Y-87529571D02*
X99292857Y-87434333D01*
X99292857Y-87434333D02*
X99269047Y-87386714D01*
X99269047Y-87386714D02*
X99245238Y-87362904D01*
X99245238Y-87362904D02*
X99197619Y-87339095D01*
X104877190Y-98583333D02*
X104901000Y-98607142D01*
X104901000Y-98607142D02*
X104924809Y-98678571D01*
X104924809Y-98678571D02*
X104924809Y-98726190D01*
X104924809Y-98726190D02*
X104901000Y-98797618D01*
X104901000Y-98797618D02*
X104853380Y-98845237D01*
X104853380Y-98845237D02*
X104805761Y-98869047D01*
X104805761Y-98869047D02*
X104710523Y-98892856D01*
X104710523Y-98892856D02*
X104639095Y-98892856D01*
X104639095Y-98892856D02*
X104543857Y-98869047D01*
X104543857Y-98869047D02*
X104496238Y-98845237D01*
X104496238Y-98845237D02*
X104448619Y-98797618D01*
X104448619Y-98797618D02*
X104424809Y-98726190D01*
X104424809Y-98726190D02*
X104424809Y-98678571D01*
X104424809Y-98678571D02*
X104448619Y-98607142D01*
X104448619Y-98607142D02*
X104472428Y-98583333D01*
X104424809Y-98154761D02*
X104424809Y-98249999D01*
X104424809Y-98249999D02*
X104448619Y-98297618D01*
X104448619Y-98297618D02*
X104472428Y-98321428D01*
X104472428Y-98321428D02*
X104543857Y-98369047D01*
X104543857Y-98369047D02*
X104639095Y-98392856D01*
X104639095Y-98392856D02*
X104829571Y-98392856D01*
X104829571Y-98392856D02*
X104877190Y-98369047D01*
X104877190Y-98369047D02*
X104901000Y-98345237D01*
X104901000Y-98345237D02*
X104924809Y-98297618D01*
X104924809Y-98297618D02*
X104924809Y-98202380D01*
X104924809Y-98202380D02*
X104901000Y-98154761D01*
X104901000Y-98154761D02*
X104877190Y-98130952D01*
X104877190Y-98130952D02*
X104829571Y-98107142D01*
X104829571Y-98107142D02*
X104710523Y-98107142D01*
X104710523Y-98107142D02*
X104662904Y-98130952D01*
X104662904Y-98130952D02*
X104639095Y-98154761D01*
X104639095Y-98154761D02*
X104615285Y-98202380D01*
X104615285Y-98202380D02*
X104615285Y-98297618D01*
X104615285Y-98297618D02*
X104639095Y-98345237D01*
X104639095Y-98345237D02*
X104662904Y-98369047D01*
X104662904Y-98369047D02*
X104710523Y-98392856D01*
X100478571Y-79777190D02*
X100454762Y-79801000D01*
X100454762Y-79801000D02*
X100383333Y-79824809D01*
X100383333Y-79824809D02*
X100335714Y-79824809D01*
X100335714Y-79824809D02*
X100264286Y-79801000D01*
X100264286Y-79801000D02*
X100216667Y-79753380D01*
X100216667Y-79753380D02*
X100192857Y-79705761D01*
X100192857Y-79705761D02*
X100169048Y-79610523D01*
X100169048Y-79610523D02*
X100169048Y-79539095D01*
X100169048Y-79539095D02*
X100192857Y-79443857D01*
X100192857Y-79443857D02*
X100216667Y-79396238D01*
X100216667Y-79396238D02*
X100264286Y-79348619D01*
X100264286Y-79348619D02*
X100335714Y-79324809D01*
X100335714Y-79324809D02*
X100383333Y-79324809D01*
X100383333Y-79324809D02*
X100454762Y-79348619D01*
X100454762Y-79348619D02*
X100478571Y-79372428D01*
X100669048Y-79372428D02*
X100692857Y-79348619D01*
X100692857Y-79348619D02*
X100740476Y-79324809D01*
X100740476Y-79324809D02*
X100859524Y-79324809D01*
X100859524Y-79324809D02*
X100907143Y-79348619D01*
X100907143Y-79348619D02*
X100930952Y-79372428D01*
X100930952Y-79372428D02*
X100954762Y-79420047D01*
X100954762Y-79420047D02*
X100954762Y-79467666D01*
X100954762Y-79467666D02*
X100930952Y-79539095D01*
X100930952Y-79539095D02*
X100645238Y-79824809D01*
X100645238Y-79824809D02*
X100954762Y-79824809D01*
X101145238Y-79372428D02*
X101169047Y-79348619D01*
X101169047Y-79348619D02*
X101216666Y-79324809D01*
X101216666Y-79324809D02*
X101335714Y-79324809D01*
X101335714Y-79324809D02*
X101383333Y-79348619D01*
X101383333Y-79348619D02*
X101407142Y-79372428D01*
X101407142Y-79372428D02*
X101430952Y-79420047D01*
X101430952Y-79420047D02*
X101430952Y-79467666D01*
X101430952Y-79467666D02*
X101407142Y-79539095D01*
X101407142Y-79539095D02*
X101121428Y-79824809D01*
X101121428Y-79824809D02*
X101430952Y-79824809D01*
X83919047Y-90124809D02*
X83919047Y-90529571D01*
X83919047Y-90529571D02*
X83942857Y-90577190D01*
X83942857Y-90577190D02*
X83966666Y-90601000D01*
X83966666Y-90601000D02*
X84014285Y-90624809D01*
X84014285Y-90624809D02*
X84109523Y-90624809D01*
X84109523Y-90624809D02*
X84157142Y-90601000D01*
X84157142Y-90601000D02*
X84180952Y-90577190D01*
X84180952Y-90577190D02*
X84204761Y-90529571D01*
X84204761Y-90529571D02*
X84204761Y-90124809D01*
X84419048Y-90172428D02*
X84442857Y-90148619D01*
X84442857Y-90148619D02*
X84490476Y-90124809D01*
X84490476Y-90124809D02*
X84609524Y-90124809D01*
X84609524Y-90124809D02*
X84657143Y-90148619D01*
X84657143Y-90148619D02*
X84680952Y-90172428D01*
X84680952Y-90172428D02*
X84704762Y-90220047D01*
X84704762Y-90220047D02*
X84704762Y-90267666D01*
X84704762Y-90267666D02*
X84680952Y-90339095D01*
X84680952Y-90339095D02*
X84395238Y-90624809D01*
X84395238Y-90624809D02*
X84704762Y-90624809D01*
X106477190Y-88721428D02*
X106501000Y-88745237D01*
X106501000Y-88745237D02*
X106524809Y-88816666D01*
X106524809Y-88816666D02*
X106524809Y-88864285D01*
X106524809Y-88864285D02*
X106501000Y-88935713D01*
X106501000Y-88935713D02*
X106453380Y-88983332D01*
X106453380Y-88983332D02*
X106405761Y-89007142D01*
X106405761Y-89007142D02*
X106310523Y-89030951D01*
X106310523Y-89030951D02*
X106239095Y-89030951D01*
X106239095Y-89030951D02*
X106143857Y-89007142D01*
X106143857Y-89007142D02*
X106096238Y-88983332D01*
X106096238Y-88983332D02*
X106048619Y-88935713D01*
X106048619Y-88935713D02*
X106024809Y-88864285D01*
X106024809Y-88864285D02*
X106024809Y-88816666D01*
X106024809Y-88816666D02*
X106048619Y-88745237D01*
X106048619Y-88745237D02*
X106072428Y-88721428D01*
X106072428Y-88530951D02*
X106048619Y-88507142D01*
X106048619Y-88507142D02*
X106024809Y-88459523D01*
X106024809Y-88459523D02*
X106024809Y-88340475D01*
X106024809Y-88340475D02*
X106048619Y-88292856D01*
X106048619Y-88292856D02*
X106072428Y-88269047D01*
X106072428Y-88269047D02*
X106120047Y-88245237D01*
X106120047Y-88245237D02*
X106167666Y-88245237D01*
X106167666Y-88245237D02*
X106239095Y-88269047D01*
X106239095Y-88269047D02*
X106524809Y-88554761D01*
X106524809Y-88554761D02*
X106524809Y-88245237D01*
X106191476Y-87816666D02*
X106524809Y-87816666D01*
X106001000Y-87935714D02*
X106358142Y-88054761D01*
X106358142Y-88054761D02*
X106358142Y-87745238D01*
X92424809Y-97041666D02*
X92781952Y-97041666D01*
X92781952Y-97041666D02*
X92853380Y-97065475D01*
X92853380Y-97065475D02*
X92901000Y-97113094D01*
X92901000Y-97113094D02*
X92924809Y-97184523D01*
X92924809Y-97184523D02*
X92924809Y-97232142D01*
X92924809Y-96803571D02*
X92424809Y-96803571D01*
X92424809Y-96803571D02*
X92424809Y-96613095D01*
X92424809Y-96613095D02*
X92448619Y-96565476D01*
X92448619Y-96565476D02*
X92472428Y-96541666D01*
X92472428Y-96541666D02*
X92520047Y-96517857D01*
X92520047Y-96517857D02*
X92591476Y-96517857D01*
X92591476Y-96517857D02*
X92639095Y-96541666D01*
X92639095Y-96541666D02*
X92662904Y-96565476D01*
X92662904Y-96565476D02*
X92686714Y-96613095D01*
X92686714Y-96613095D02*
X92686714Y-96803571D01*
X92424809Y-96351190D02*
X92424809Y-96017857D01*
X92424809Y-96017857D02*
X92924809Y-96232142D01*
X108824809Y-107483333D02*
X108586714Y-107649999D01*
X108824809Y-107769047D02*
X108324809Y-107769047D01*
X108324809Y-107769047D02*
X108324809Y-107578571D01*
X108324809Y-107578571D02*
X108348619Y-107530952D01*
X108348619Y-107530952D02*
X108372428Y-107507142D01*
X108372428Y-107507142D02*
X108420047Y-107483333D01*
X108420047Y-107483333D02*
X108491476Y-107483333D01*
X108491476Y-107483333D02*
X108539095Y-107507142D01*
X108539095Y-107507142D02*
X108562904Y-107530952D01*
X108562904Y-107530952D02*
X108586714Y-107578571D01*
X108586714Y-107578571D02*
X108586714Y-107769047D01*
X108824809Y-107007142D02*
X108824809Y-107292856D01*
X108824809Y-107149999D02*
X108324809Y-107149999D01*
X108324809Y-107149999D02*
X108396238Y-107197618D01*
X108396238Y-107197618D02*
X108443857Y-107245237D01*
X108443857Y-107245237D02*
X108467666Y-107292856D01*
X106777190Y-100533333D02*
X106801000Y-100557142D01*
X106801000Y-100557142D02*
X106824809Y-100628571D01*
X106824809Y-100628571D02*
X106824809Y-100676190D01*
X106824809Y-100676190D02*
X106801000Y-100747618D01*
X106801000Y-100747618D02*
X106753380Y-100795237D01*
X106753380Y-100795237D02*
X106705761Y-100819047D01*
X106705761Y-100819047D02*
X106610523Y-100842856D01*
X106610523Y-100842856D02*
X106539095Y-100842856D01*
X106539095Y-100842856D02*
X106443857Y-100819047D01*
X106443857Y-100819047D02*
X106396238Y-100795237D01*
X106396238Y-100795237D02*
X106348619Y-100747618D01*
X106348619Y-100747618D02*
X106324809Y-100676190D01*
X106324809Y-100676190D02*
X106324809Y-100628571D01*
X106324809Y-100628571D02*
X106348619Y-100557142D01*
X106348619Y-100557142D02*
X106372428Y-100533333D01*
X106324809Y-100366666D02*
X106324809Y-100057142D01*
X106324809Y-100057142D02*
X106515285Y-100223809D01*
X106515285Y-100223809D02*
X106515285Y-100152380D01*
X106515285Y-100152380D02*
X106539095Y-100104761D01*
X106539095Y-100104761D02*
X106562904Y-100080952D01*
X106562904Y-100080952D02*
X106610523Y-100057142D01*
X106610523Y-100057142D02*
X106729571Y-100057142D01*
X106729571Y-100057142D02*
X106777190Y-100080952D01*
X106777190Y-100080952D02*
X106801000Y-100104761D01*
X106801000Y-100104761D02*
X106824809Y-100152380D01*
X106824809Y-100152380D02*
X106824809Y-100295237D01*
X106824809Y-100295237D02*
X106801000Y-100342856D01*
X106801000Y-100342856D02*
X106777190Y-100366666D01*
X98530952Y-88324809D02*
X98530952Y-87824809D01*
X98530952Y-87824809D02*
X98650000Y-87824809D01*
X98650000Y-87824809D02*
X98721428Y-87848619D01*
X98721428Y-87848619D02*
X98769047Y-87896238D01*
X98769047Y-87896238D02*
X98792857Y-87943857D01*
X98792857Y-87943857D02*
X98816666Y-88039095D01*
X98816666Y-88039095D02*
X98816666Y-88110523D01*
X98816666Y-88110523D02*
X98792857Y-88205761D01*
X98792857Y-88205761D02*
X98769047Y-88253380D01*
X98769047Y-88253380D02*
X98721428Y-88301000D01*
X98721428Y-88301000D02*
X98650000Y-88324809D01*
X98650000Y-88324809D02*
X98530952Y-88324809D01*
X99245238Y-87824809D02*
X99150000Y-87824809D01*
X99150000Y-87824809D02*
X99102381Y-87848619D01*
X99102381Y-87848619D02*
X99078571Y-87872428D01*
X99078571Y-87872428D02*
X99030952Y-87943857D01*
X99030952Y-87943857D02*
X99007143Y-88039095D01*
X99007143Y-88039095D02*
X99007143Y-88229571D01*
X99007143Y-88229571D02*
X99030952Y-88277190D01*
X99030952Y-88277190D02*
X99054762Y-88301000D01*
X99054762Y-88301000D02*
X99102381Y-88324809D01*
X99102381Y-88324809D02*
X99197619Y-88324809D01*
X99197619Y-88324809D02*
X99245238Y-88301000D01*
X99245238Y-88301000D02*
X99269047Y-88277190D01*
X99269047Y-88277190D02*
X99292857Y-88229571D01*
X99292857Y-88229571D02*
X99292857Y-88110523D01*
X99292857Y-88110523D02*
X99269047Y-88062904D01*
X99269047Y-88062904D02*
X99245238Y-88039095D01*
X99245238Y-88039095D02*
X99197619Y-88015285D01*
X99197619Y-88015285D02*
X99102381Y-88015285D01*
X99102381Y-88015285D02*
X99054762Y-88039095D01*
X99054762Y-88039095D02*
X99030952Y-88062904D01*
X99030952Y-88062904D02*
X99007143Y-88110523D01*
D15*
X118683095Y-86454819D02*
X119254523Y-86454819D01*
X118968809Y-87454819D02*
X118968809Y-86454819D01*
X120111666Y-87454819D02*
X119540238Y-87454819D01*
X119825952Y-87454819D02*
X119825952Y-86454819D01*
X119825952Y-86454819D02*
X119730714Y-86597676D01*
X119730714Y-86597676D02*
X119635476Y-86692914D01*
X119635476Y-86692914D02*
X119540238Y-86740533D01*
D14*
X84186714Y-104938094D02*
X84424809Y-104938094D01*
X83924809Y-105104760D02*
X84186714Y-104938094D01*
X84186714Y-104938094D02*
X83924809Y-104771427D01*
X83972428Y-104628570D02*
X83948619Y-104604761D01*
X83948619Y-104604761D02*
X83924809Y-104557142D01*
X83924809Y-104557142D02*
X83924809Y-104438094D01*
X83924809Y-104438094D02*
X83948619Y-104390475D01*
X83948619Y-104390475D02*
X83972428Y-104366666D01*
X83972428Y-104366666D02*
X84020047Y-104342856D01*
X84020047Y-104342856D02*
X84067666Y-104342856D01*
X84067666Y-104342856D02*
X84139095Y-104366666D01*
X84139095Y-104366666D02*
X84424809Y-104652380D01*
X84424809Y-104652380D02*
X84424809Y-104342856D01*
X90177190Y-103321428D02*
X90201000Y-103345237D01*
X90201000Y-103345237D02*
X90224809Y-103416666D01*
X90224809Y-103416666D02*
X90224809Y-103464285D01*
X90224809Y-103464285D02*
X90201000Y-103535713D01*
X90201000Y-103535713D02*
X90153380Y-103583332D01*
X90153380Y-103583332D02*
X90105761Y-103607142D01*
X90105761Y-103607142D02*
X90010523Y-103630951D01*
X90010523Y-103630951D02*
X89939095Y-103630951D01*
X89939095Y-103630951D02*
X89843857Y-103607142D01*
X89843857Y-103607142D02*
X89796238Y-103583332D01*
X89796238Y-103583332D02*
X89748619Y-103535713D01*
X89748619Y-103535713D02*
X89724809Y-103464285D01*
X89724809Y-103464285D02*
X89724809Y-103416666D01*
X89724809Y-103416666D02*
X89748619Y-103345237D01*
X89748619Y-103345237D02*
X89772428Y-103321428D01*
X89772428Y-103130951D02*
X89748619Y-103107142D01*
X89748619Y-103107142D02*
X89724809Y-103059523D01*
X89724809Y-103059523D02*
X89724809Y-102940475D01*
X89724809Y-102940475D02*
X89748619Y-102892856D01*
X89748619Y-102892856D02*
X89772428Y-102869047D01*
X89772428Y-102869047D02*
X89820047Y-102845237D01*
X89820047Y-102845237D02*
X89867666Y-102845237D01*
X89867666Y-102845237D02*
X89939095Y-102869047D01*
X89939095Y-102869047D02*
X90224809Y-103154761D01*
X90224809Y-103154761D02*
X90224809Y-102845237D01*
X89724809Y-102416666D02*
X89724809Y-102511904D01*
X89724809Y-102511904D02*
X89748619Y-102559523D01*
X89748619Y-102559523D02*
X89772428Y-102583333D01*
X89772428Y-102583333D02*
X89843857Y-102630952D01*
X89843857Y-102630952D02*
X89939095Y-102654761D01*
X89939095Y-102654761D02*
X90129571Y-102654761D01*
X90129571Y-102654761D02*
X90177190Y-102630952D01*
X90177190Y-102630952D02*
X90201000Y-102607142D01*
X90201000Y-102607142D02*
X90224809Y-102559523D01*
X90224809Y-102559523D02*
X90224809Y-102464285D01*
X90224809Y-102464285D02*
X90201000Y-102416666D01*
X90201000Y-102416666D02*
X90177190Y-102392857D01*
X90177190Y-102392857D02*
X90129571Y-102369047D01*
X90129571Y-102369047D02*
X90010523Y-102369047D01*
X90010523Y-102369047D02*
X89962904Y-102392857D01*
X89962904Y-102392857D02*
X89939095Y-102416666D01*
X89939095Y-102416666D02*
X89915285Y-102464285D01*
X89915285Y-102464285D02*
X89915285Y-102559523D01*
X89915285Y-102559523D02*
X89939095Y-102607142D01*
X89939095Y-102607142D02*
X89962904Y-102630952D01*
X89962904Y-102630952D02*
X90010523Y-102654761D01*
X89377190Y-109121428D02*
X89401000Y-109145237D01*
X89401000Y-109145237D02*
X89424809Y-109216666D01*
X89424809Y-109216666D02*
X89424809Y-109264285D01*
X89424809Y-109264285D02*
X89401000Y-109335713D01*
X89401000Y-109335713D02*
X89353380Y-109383332D01*
X89353380Y-109383332D02*
X89305761Y-109407142D01*
X89305761Y-109407142D02*
X89210523Y-109430951D01*
X89210523Y-109430951D02*
X89139095Y-109430951D01*
X89139095Y-109430951D02*
X89043857Y-109407142D01*
X89043857Y-109407142D02*
X88996238Y-109383332D01*
X88996238Y-109383332D02*
X88948619Y-109335713D01*
X88948619Y-109335713D02*
X88924809Y-109264285D01*
X88924809Y-109264285D02*
X88924809Y-109216666D01*
X88924809Y-109216666D02*
X88948619Y-109145237D01*
X88948619Y-109145237D02*
X88972428Y-109121428D01*
X88924809Y-108954761D02*
X88924809Y-108645237D01*
X88924809Y-108645237D02*
X89115285Y-108811904D01*
X89115285Y-108811904D02*
X89115285Y-108740475D01*
X89115285Y-108740475D02*
X89139095Y-108692856D01*
X89139095Y-108692856D02*
X89162904Y-108669047D01*
X89162904Y-108669047D02*
X89210523Y-108645237D01*
X89210523Y-108645237D02*
X89329571Y-108645237D01*
X89329571Y-108645237D02*
X89377190Y-108669047D01*
X89377190Y-108669047D02*
X89401000Y-108692856D01*
X89401000Y-108692856D02*
X89424809Y-108740475D01*
X89424809Y-108740475D02*
X89424809Y-108883332D01*
X89424809Y-108883332D02*
X89401000Y-108930951D01*
X89401000Y-108930951D02*
X89377190Y-108954761D01*
X88924809Y-108335714D02*
X88924809Y-108288095D01*
X88924809Y-108288095D02*
X88948619Y-108240476D01*
X88948619Y-108240476D02*
X88972428Y-108216666D01*
X88972428Y-108216666D02*
X89020047Y-108192857D01*
X89020047Y-108192857D02*
X89115285Y-108169047D01*
X89115285Y-108169047D02*
X89234333Y-108169047D01*
X89234333Y-108169047D02*
X89329571Y-108192857D01*
X89329571Y-108192857D02*
X89377190Y-108216666D01*
X89377190Y-108216666D02*
X89401000Y-108240476D01*
X89401000Y-108240476D02*
X89424809Y-108288095D01*
X89424809Y-108288095D02*
X89424809Y-108335714D01*
X89424809Y-108335714D02*
X89401000Y-108383333D01*
X89401000Y-108383333D02*
X89377190Y-108407142D01*
X89377190Y-108407142D02*
X89329571Y-108430952D01*
X89329571Y-108430952D02*
X89234333Y-108454761D01*
X89234333Y-108454761D02*
X89115285Y-108454761D01*
X89115285Y-108454761D02*
X89020047Y-108430952D01*
X89020047Y-108430952D02*
X88972428Y-108407142D01*
X88972428Y-108407142D02*
X88948619Y-108383333D01*
X88948619Y-108383333D02*
X88924809Y-108335714D01*
X106777190Y-102583333D02*
X106801000Y-102607142D01*
X106801000Y-102607142D02*
X106824809Y-102678571D01*
X106824809Y-102678571D02*
X106824809Y-102726190D01*
X106824809Y-102726190D02*
X106801000Y-102797618D01*
X106801000Y-102797618D02*
X106753380Y-102845237D01*
X106753380Y-102845237D02*
X106705761Y-102869047D01*
X106705761Y-102869047D02*
X106610523Y-102892856D01*
X106610523Y-102892856D02*
X106539095Y-102892856D01*
X106539095Y-102892856D02*
X106443857Y-102869047D01*
X106443857Y-102869047D02*
X106396238Y-102845237D01*
X106396238Y-102845237D02*
X106348619Y-102797618D01*
X106348619Y-102797618D02*
X106324809Y-102726190D01*
X106324809Y-102726190D02*
X106324809Y-102678571D01*
X106324809Y-102678571D02*
X106348619Y-102607142D01*
X106348619Y-102607142D02*
X106372428Y-102583333D01*
X106324809Y-102416666D02*
X106324809Y-102083333D01*
X106324809Y-102083333D02*
X106824809Y-102297618D01*
X95024809Y-97171428D02*
X94786714Y-97338094D01*
X95024809Y-97457142D02*
X94524809Y-97457142D01*
X94524809Y-97457142D02*
X94524809Y-97266666D01*
X94524809Y-97266666D02*
X94548619Y-97219047D01*
X94548619Y-97219047D02*
X94572428Y-97195237D01*
X94572428Y-97195237D02*
X94620047Y-97171428D01*
X94620047Y-97171428D02*
X94691476Y-97171428D01*
X94691476Y-97171428D02*
X94739095Y-97195237D01*
X94739095Y-97195237D02*
X94762904Y-97219047D01*
X94762904Y-97219047D02*
X94786714Y-97266666D01*
X94786714Y-97266666D02*
X94786714Y-97457142D01*
X95024809Y-96695237D02*
X95024809Y-96980951D01*
X95024809Y-96838094D02*
X94524809Y-96838094D01*
X94524809Y-96838094D02*
X94596238Y-96885713D01*
X94596238Y-96885713D02*
X94643857Y-96933332D01*
X94643857Y-96933332D02*
X94667666Y-96980951D01*
X94691476Y-96266666D02*
X95024809Y-96266666D01*
X94501000Y-96385714D02*
X94858142Y-96504761D01*
X94858142Y-96504761D02*
X94858142Y-96195238D01*
X114316666Y-94952190D02*
X114292857Y-94976000D01*
X114292857Y-94976000D02*
X114221428Y-94999809D01*
X114221428Y-94999809D02*
X114173809Y-94999809D01*
X114173809Y-94999809D02*
X114102381Y-94976000D01*
X114102381Y-94976000D02*
X114054762Y-94928380D01*
X114054762Y-94928380D02*
X114030952Y-94880761D01*
X114030952Y-94880761D02*
X114007143Y-94785523D01*
X114007143Y-94785523D02*
X114007143Y-94714095D01*
X114007143Y-94714095D02*
X114030952Y-94618857D01*
X114030952Y-94618857D02*
X114054762Y-94571238D01*
X114054762Y-94571238D02*
X114102381Y-94523619D01*
X114102381Y-94523619D02*
X114173809Y-94499809D01*
X114173809Y-94499809D02*
X114221428Y-94499809D01*
X114221428Y-94499809D02*
X114292857Y-94523619D01*
X114292857Y-94523619D02*
X114316666Y-94547428D01*
X114745238Y-94666476D02*
X114745238Y-94999809D01*
X114626190Y-94476000D02*
X114507143Y-94833142D01*
X114507143Y-94833142D02*
X114816666Y-94833142D01*
X94178571Y-84024809D02*
X94011905Y-83786714D01*
X93892857Y-84024809D02*
X93892857Y-83524809D01*
X93892857Y-83524809D02*
X94083333Y-83524809D01*
X94083333Y-83524809D02*
X94130952Y-83548619D01*
X94130952Y-83548619D02*
X94154762Y-83572428D01*
X94154762Y-83572428D02*
X94178571Y-83620047D01*
X94178571Y-83620047D02*
X94178571Y-83691476D01*
X94178571Y-83691476D02*
X94154762Y-83739095D01*
X94154762Y-83739095D02*
X94130952Y-83762904D01*
X94130952Y-83762904D02*
X94083333Y-83786714D01*
X94083333Y-83786714D02*
X93892857Y-83786714D01*
X94654762Y-84024809D02*
X94369048Y-84024809D01*
X94511905Y-84024809D02*
X94511905Y-83524809D01*
X94511905Y-83524809D02*
X94464286Y-83596238D01*
X94464286Y-83596238D02*
X94416667Y-83643857D01*
X94416667Y-83643857D02*
X94369048Y-83667666D01*
X94845238Y-83572428D02*
X94869047Y-83548619D01*
X94869047Y-83548619D02*
X94916666Y-83524809D01*
X94916666Y-83524809D02*
X95035714Y-83524809D01*
X95035714Y-83524809D02*
X95083333Y-83548619D01*
X95083333Y-83548619D02*
X95107142Y-83572428D01*
X95107142Y-83572428D02*
X95130952Y-83620047D01*
X95130952Y-83620047D02*
X95130952Y-83667666D01*
X95130952Y-83667666D02*
X95107142Y-83739095D01*
X95107142Y-83739095D02*
X94821428Y-84024809D01*
X94821428Y-84024809D02*
X95130952Y-84024809D01*
X82778571Y-88327190D02*
X82754762Y-88351000D01*
X82754762Y-88351000D02*
X82683333Y-88374809D01*
X82683333Y-88374809D02*
X82635714Y-88374809D01*
X82635714Y-88374809D02*
X82564286Y-88351000D01*
X82564286Y-88351000D02*
X82516667Y-88303380D01*
X82516667Y-88303380D02*
X82492857Y-88255761D01*
X82492857Y-88255761D02*
X82469048Y-88160523D01*
X82469048Y-88160523D02*
X82469048Y-88089095D01*
X82469048Y-88089095D02*
X82492857Y-87993857D01*
X82492857Y-87993857D02*
X82516667Y-87946238D01*
X82516667Y-87946238D02*
X82564286Y-87898619D01*
X82564286Y-87898619D02*
X82635714Y-87874809D01*
X82635714Y-87874809D02*
X82683333Y-87874809D01*
X82683333Y-87874809D02*
X82754762Y-87898619D01*
X82754762Y-87898619D02*
X82778571Y-87922428D01*
X83254762Y-88374809D02*
X82969048Y-88374809D01*
X83111905Y-88374809D02*
X83111905Y-87874809D01*
X83111905Y-87874809D02*
X83064286Y-87946238D01*
X83064286Y-87946238D02*
X83016667Y-87993857D01*
X83016667Y-87993857D02*
X82969048Y-88017666D01*
X83730952Y-88374809D02*
X83445238Y-88374809D01*
X83588095Y-88374809D02*
X83588095Y-87874809D01*
X83588095Y-87874809D02*
X83540476Y-87946238D01*
X83540476Y-87946238D02*
X83492857Y-87993857D01*
X83492857Y-87993857D02*
X83445238Y-88017666D01*
X100478571Y-75977190D02*
X100454762Y-76001000D01*
X100454762Y-76001000D02*
X100383333Y-76024809D01*
X100383333Y-76024809D02*
X100335714Y-76024809D01*
X100335714Y-76024809D02*
X100264286Y-76001000D01*
X100264286Y-76001000D02*
X100216667Y-75953380D01*
X100216667Y-75953380D02*
X100192857Y-75905761D01*
X100192857Y-75905761D02*
X100169048Y-75810523D01*
X100169048Y-75810523D02*
X100169048Y-75739095D01*
X100169048Y-75739095D02*
X100192857Y-75643857D01*
X100192857Y-75643857D02*
X100216667Y-75596238D01*
X100216667Y-75596238D02*
X100264286Y-75548619D01*
X100264286Y-75548619D02*
X100335714Y-75524809D01*
X100335714Y-75524809D02*
X100383333Y-75524809D01*
X100383333Y-75524809D02*
X100454762Y-75548619D01*
X100454762Y-75548619D02*
X100478571Y-75572428D01*
X100669048Y-75572428D02*
X100692857Y-75548619D01*
X100692857Y-75548619D02*
X100740476Y-75524809D01*
X100740476Y-75524809D02*
X100859524Y-75524809D01*
X100859524Y-75524809D02*
X100907143Y-75548619D01*
X100907143Y-75548619D02*
X100930952Y-75572428D01*
X100930952Y-75572428D02*
X100954762Y-75620047D01*
X100954762Y-75620047D02*
X100954762Y-75667666D01*
X100954762Y-75667666D02*
X100930952Y-75739095D01*
X100930952Y-75739095D02*
X100645238Y-76024809D01*
X100645238Y-76024809D02*
X100954762Y-76024809D01*
X101430952Y-76024809D02*
X101145238Y-76024809D01*
X101288095Y-76024809D02*
X101288095Y-75524809D01*
X101288095Y-75524809D02*
X101240476Y-75596238D01*
X101240476Y-75596238D02*
X101192857Y-75643857D01*
X101192857Y-75643857D02*
X101145238Y-75667666D01*
X92539047Y-82574809D02*
X92539047Y-82979571D01*
X92539047Y-82979571D02*
X92562857Y-83027190D01*
X92562857Y-83027190D02*
X92586666Y-83051000D01*
X92586666Y-83051000D02*
X92634285Y-83074809D01*
X92634285Y-83074809D02*
X92729523Y-83074809D01*
X92729523Y-83074809D02*
X92777142Y-83051000D01*
X92777142Y-83051000D02*
X92800952Y-83027190D01*
X92800952Y-83027190D02*
X92824761Y-82979571D01*
X92824761Y-82979571D02*
X92824761Y-82574809D01*
X93015238Y-82574809D02*
X93324762Y-82574809D01*
X93324762Y-82574809D02*
X93158095Y-82765285D01*
X93158095Y-82765285D02*
X93229524Y-82765285D01*
X93229524Y-82765285D02*
X93277143Y-82789095D01*
X93277143Y-82789095D02*
X93300952Y-82812904D01*
X93300952Y-82812904D02*
X93324762Y-82860523D01*
X93324762Y-82860523D02*
X93324762Y-82979571D01*
X93324762Y-82979571D02*
X93300952Y-83027190D01*
X93300952Y-83027190D02*
X93277143Y-83051000D01*
X93277143Y-83051000D02*
X93229524Y-83074809D01*
X93229524Y-83074809D02*
X93086667Y-83074809D01*
X93086667Y-83074809D02*
X93039048Y-83051000D01*
X93039048Y-83051000D02*
X93015238Y-83027190D01*
D16*
%TO.C,C17*%
X80815000Y-93488748D02*
X80815000Y-94911252D01*
X82635000Y-93488748D02*
X82635000Y-94911252D01*
%TO.C,R2*%
X110090000Y-95072936D02*
X110090000Y-96527064D01*
X111910000Y-95072936D02*
X111910000Y-96527064D01*
%TO.C,C27*%
X88740000Y-106692164D02*
X88740000Y-106907836D01*
X89460000Y-106692164D02*
X89460000Y-106907836D01*
%TO.C,R7*%
X88162742Y-99477500D02*
X88637258Y-99477500D01*
X88162742Y-100522500D02*
X88637258Y-100522500D01*
%TO.C,R9*%
X102662742Y-110477500D02*
X103137258Y-110477500D01*
X102662742Y-111522500D02*
X103137258Y-111522500D01*
%TO.C,Y1*%
X105090000Y-95727064D02*
X105090000Y-94272936D01*
X106910000Y-95727064D02*
X106910000Y-94272936D01*
%TO.C,TP7*%
X106200000Y-81700000D02*
G75*
G02*
X103800000Y-81700000I-1200000J0D01*
G01*
X103800000Y-81700000D02*
G75*
G02*
X106200000Y-81700000I1200000J0D01*
G01*
%TO.C,R15*%
X88720000Y-104746359D02*
X88720000Y-105053641D01*
X89480000Y-104746359D02*
X89480000Y-105053641D01*
%TO.C,C25*%
X92107836Y-101140000D02*
X91892164Y-101140000D01*
X92107836Y-101860000D02*
X91892164Y-101860000D01*
%TO.C,R13*%
X104277500Y-86437258D02*
X104277500Y-85962742D01*
X105322500Y-86437258D02*
X105322500Y-85962742D01*
%TO.C,U1*%
X110390000Y-98627500D02*
X111115000Y-98627500D01*
X110390000Y-99352500D02*
X110390000Y-98627500D01*
X110390000Y-102122500D02*
X110390000Y-102547500D01*
X111115000Y-102847500D02*
X110630000Y-102847500D01*
X114610000Y-98627500D02*
X113885000Y-98627500D01*
X114610000Y-99352500D02*
X114610000Y-98627500D01*
X114610000Y-102122500D02*
X114610000Y-102847500D01*
X114610000Y-102847500D02*
X113885000Y-102847500D01*
X110390000Y-102847500D02*
X110060000Y-103087500D01*
X110060000Y-102607500D01*
X110390000Y-102847500D01*
G36*
X110390000Y-102847500D02*
G01*
X110060000Y-103087500D01*
X110060000Y-102607500D01*
X110390000Y-102847500D01*
G37*
%TO.C,D1*%
X105550000Y-103290000D02*
X105550000Y-108800000D01*
X108850000Y-103290000D02*
X105550000Y-103290000D01*
X108850000Y-103290000D02*
X108850000Y-108800000D01*
%TO.C,R8*%
X103137258Y-108977500D02*
X102662742Y-108977500D01*
X103137258Y-110022500D02*
X102662742Y-110022500D01*
%TO.C,C5*%
X112390000Y-96459420D02*
X112390000Y-96740580D01*
X113410000Y-96459420D02*
X113410000Y-96740580D01*
%TO.C,R10*%
X97057258Y-84827500D02*
X96582742Y-84827500D01*
X97057258Y-85872500D02*
X96582742Y-85872500D01*
%TO.C,C29*%
X99640000Y-110592164D02*
X99640000Y-110807836D01*
X100360000Y-110592164D02*
X100360000Y-110807836D01*
%TO.C,C12*%
X87111252Y-84890000D02*
X85688748Y-84890000D01*
X87111252Y-86710000D02*
X85688748Y-86710000D01*
%TO.C,D5*%
X83490000Y-99040000D02*
X83490000Y-100960000D01*
X83490000Y-100960000D02*
X86175000Y-100960000D01*
X86175000Y-99040000D02*
X83490000Y-99040000D01*
%TO.C,TP4*%
X94700000Y-87700000D02*
G75*
G02*
X92300000Y-87700000I-1200000J0D01*
G01*
X92300000Y-87700000D02*
G75*
G02*
X94700000Y-87700000I1200000J0D01*
G01*
%TO.C,TP3*%
X97800000Y-87800000D02*
G75*
G02*
X95400000Y-87800000I-1200000J0D01*
G01*
X95400000Y-87800000D02*
G75*
G02*
X97800000Y-87800000I1200000J0D01*
G01*
%TO.C,U4*%
X92590000Y-102190000D02*
X92590000Y-102640000D01*
X92590000Y-109410000D02*
X92590000Y-108960000D01*
X93040000Y-102190000D02*
X92590000Y-102190000D01*
X93040000Y-109410000D02*
X92590000Y-109410000D01*
X99360000Y-102190000D02*
X99810000Y-102190000D01*
X99360000Y-109410000D02*
X99810000Y-109410000D01*
X99810000Y-102190000D02*
X99810000Y-102640000D01*
X99810000Y-109410000D02*
X99810000Y-108960000D01*
X92000000Y-102640000D02*
X91660000Y-102170000D01*
X92340000Y-102170000D01*
X92000000Y-102640000D01*
G36*
X92000000Y-102640000D02*
G01*
X91660000Y-102170000D01*
X92340000Y-102170000D01*
X92000000Y-102640000D01*
G37*
%TO.C,C8*%
X115390000Y-98559420D02*
X115390000Y-98840580D01*
X116410000Y-98559420D02*
X116410000Y-98840580D01*
%TO.C,SW2*%
X108490000Y-84790000D02*
X108490000Y-85200000D01*
X108490000Y-86800000D02*
X108490000Y-89200000D01*
X108490000Y-90800000D02*
X108490000Y-91210000D01*
X108490000Y-91210000D02*
X114910000Y-91210000D01*
X114910000Y-84790000D02*
X108490000Y-84790000D01*
X114910000Y-85200000D02*
X114910000Y-84790000D01*
X114910000Y-89200000D02*
X114910000Y-86800000D01*
X114910000Y-91210000D02*
X114910000Y-90930000D01*
%TO.C,C23*%
X99859420Y-81490000D02*
X100140580Y-81490000D01*
X99859420Y-82510000D02*
X100140580Y-82510000D01*
%TO.C,C28*%
X100892164Y-101740000D02*
X101107836Y-101740000D01*
X100892164Y-102460000D02*
X101107836Y-102460000D01*
%TO.C,C16*%
X83536252Y-96890000D02*
X82113748Y-96890000D01*
X83536252Y-98710000D02*
X82113748Y-98710000D01*
%TO.C,D8*%
X98535000Y-82890000D02*
X98535000Y-84810000D01*
X98535000Y-84810000D02*
X101220000Y-84810000D01*
X101220000Y-82890000D02*
X98535000Y-82890000D01*
%TO.C,TP6*%
X94600000Y-93900000D02*
G75*
G02*
X92200000Y-93900000I-1200000J0D01*
G01*
X92200000Y-93900000D02*
G75*
G02*
X94600000Y-93900000I1200000J0D01*
G01*
%TO.C,C6*%
X108111252Y-97590000D02*
X106688748Y-97590000D01*
X108111252Y-99410000D02*
X106688748Y-99410000D01*
%TO.C,C22*%
X100160580Y-77940000D02*
X99879420Y-77940000D01*
X100160580Y-78960000D02*
X99879420Y-78960000D01*
%TO.C,TP5*%
X94700000Y-90800000D02*
G75*
G02*
X92300000Y-90800000I-1200000J0D01*
G01*
X92300000Y-90800000D02*
G75*
G02*
X94700000Y-90800000I1200000J0D01*
G01*
%TO.C,U2*%
X85465000Y-89590000D02*
X85465000Y-90850000D01*
X85465000Y-96410000D02*
X85465000Y-95150000D01*
X89225000Y-89590000D02*
X85465000Y-89590000D01*
X89225000Y-96410000D02*
X85465000Y-96410000D01*
X90745000Y-96640000D02*
X90265000Y-96640000D01*
X90505000Y-96310000D01*
X90745000Y-96640000D01*
G36*
X90745000Y-96640000D02*
G01*
X90265000Y-96640000D01*
X90505000Y-96310000D01*
X90745000Y-96640000D01*
G37*
%TO.C,C24*%
X105790000Y-86059420D02*
X105790000Y-86340580D01*
X106810000Y-86059420D02*
X106810000Y-86340580D01*
%TO.C,JP7*%
X91700000Y-99625000D02*
X91700000Y-98225000D01*
X92400000Y-97525000D02*
X93000000Y-97525000D01*
X93000000Y-100325000D02*
X92400000Y-100325000D01*
X93700000Y-98225000D02*
X93700000Y-99625000D01*
X91700000Y-98225000D02*
G75*
G02*
X92400000Y-97525000I700000J0D01*
G01*
X92400000Y-100325000D02*
G75*
G02*
X91700000Y-99625000I-1J699999D01*
G01*
X93000000Y-97525000D02*
G75*
G02*
X93700000Y-98225000I0J-700000D01*
G01*
X93700000Y-99625000D02*
G75*
G02*
X93000000Y-100325000I-699999J-1D01*
G01*
%TO.C,R1*%
X109190000Y-104872936D02*
X109190000Y-106327064D01*
X111010000Y-104872936D02*
X111010000Y-106327064D01*
%TO.C,TP2*%
X106200000Y-78600000D02*
G75*
G02*
X103800000Y-78600000I-1200000J0D01*
G01*
X103800000Y-78600000D02*
G75*
G02*
X106200000Y-78600000I1200000J0D01*
G01*
%TO.C,C3*%
X108440580Y-99890000D02*
X108159420Y-99890000D01*
X108440580Y-100910000D02*
X108159420Y-100910000D01*
%TO.C,D6*%
X98497500Y-84990000D02*
X98497500Y-86910000D01*
X98497500Y-86910000D02*
X101182500Y-86910000D01*
X101182500Y-84990000D02*
X98497500Y-84990000D01*
%TO.C,TP8*%
X109000000Y-80000000D02*
G75*
G02*
X106600000Y-80000000I-1200000J0D01*
G01*
X106600000Y-80000000D02*
G75*
G02*
X109000000Y-80000000I1200000J0D01*
G01*
%TO.C,T1*%
X115945000Y-88500000D02*
X115945000Y-89000000D01*
X115945000Y-88500000D02*
X117545000Y-88500000D01*
X115945000Y-95500000D02*
X115945000Y-95000000D01*
X117545000Y-95500000D02*
X115945000Y-95500000D01*
X121345000Y-88500000D02*
X122945000Y-88500000D01*
X121345000Y-95500000D02*
X122945000Y-95500000D01*
X122945000Y-88500000D02*
X122945000Y-89000000D01*
X122945000Y-95500000D02*
X122945000Y-95000000D01*
X115445000Y-89000000D02*
X115205000Y-88670000D01*
X115685000Y-88670000D01*
X115445000Y-89000000D01*
G36*
X115445000Y-89000000D02*
G01*
X115205000Y-88670000D01*
X115685000Y-88670000D01*
X115445000Y-89000000D01*
G37*
%TO.C,Y2*%
X84800000Y-101750000D02*
X84800000Y-107500000D01*
X88400000Y-101750000D02*
X84800000Y-101750000D01*
X88400000Y-107500000D02*
X88400000Y-101750000D01*
%TO.C,C26*%
X88740000Y-102892164D02*
X88740000Y-103107836D01*
X89460000Y-102892164D02*
X89460000Y-103107836D01*
%TO.C,C30*%
X89640000Y-108692164D02*
X89640000Y-108907836D01*
X90360000Y-108692164D02*
X90360000Y-108907836D01*
%TO.C,C7*%
X108540580Y-101990000D02*
X108259420Y-101990000D01*
X108540580Y-103010000D02*
X108259420Y-103010000D01*
%TO.C,R14*%
X94277500Y-99312258D02*
X94277500Y-98837742D01*
X95322500Y-99312258D02*
X95322500Y-98837742D01*
%TO.C,TP1*%
X109000000Y-83100000D02*
G75*
G02*
X106600000Y-83100000I-1200000J0D01*
G01*
X106600000Y-83100000D02*
G75*
G02*
X109000000Y-83100000I1200000J0D01*
G01*
%TO.C,C4*%
X113890000Y-96740580D02*
X113890000Y-96459420D01*
X114910000Y-96740580D02*
X114910000Y-96459420D01*
%TO.C,R12*%
X97057258Y-83227500D02*
X96582742Y-83227500D01*
X97057258Y-84272500D02*
X96582742Y-84272500D01*
%TO.C,C11*%
X87111252Y-87240000D02*
X85688748Y-87240000D01*
X87111252Y-89060000D02*
X85688748Y-89060000D01*
%TO.C,C21*%
X100160580Y-76340000D02*
X99879420Y-76340000D01*
X100160580Y-77360000D02*
X99879420Y-77360000D01*
%TO.C,U3*%
X92690000Y-77140000D02*
X92690000Y-77865000D01*
X92690000Y-82360000D02*
X92690000Y-81635000D01*
X93415000Y-77140000D02*
X92690000Y-77140000D01*
X93415000Y-82360000D02*
X92690000Y-82360000D01*
X97185000Y-77140000D02*
X97910000Y-77140000D01*
X97185000Y-82360000D02*
X97610000Y-82360000D01*
X97910000Y-77140000D02*
X97910000Y-77865000D01*
X97910000Y-81635000D02*
X97910000Y-82120000D01*
X98150000Y-82690000D02*
X97670000Y-82690000D01*
X97910000Y-82360000D01*
X98150000Y-82690000D01*
G36*
X98150000Y-82690000D02*
G01*
X97670000Y-82690000D01*
X97910000Y-82360000D01*
X98150000Y-82690000D01*
G37*
%TD*%
M02*
