%TF.GenerationSoftware,KiCad,Pcbnew,8.0.6*%
%TF.CreationDate,2025-02-16T20:57:11+01:00*%
%TF.ProjectId,TUSS4470_shield,54555353-3434-4373-905f-736869656c64,rev?*%
%TF.SameCoordinates,Original*%
%TF.FileFunction,Paste,Top*%
%TF.FilePolarity,Positive*%
%FSLAX46Y46*%
G04 Gerber Fmt 4.6, Leading zero omitted, Abs format (unit mm)*
G04 Created by KiCad (PCBNEW 8.0.6) date 2025-02-16 20:57:11*
%MOMM*%
%LPD*%
G01*
G04 APERTURE LIST*
G04 Aperture macros list*
%AMRoundRect*
0 Rectangle with rounded corners*
0 $1 Rounding radius*
0 $2 $3 $4 $5 $6 $7 $8 $9 X,Y pos of 4 corners*
0 Add a 4 corners polygon primitive as box body*
4,1,4,$2,$3,$4,$5,$6,$7,$8,$9,$2,$3,0*
0 Add four circle primitives for the rounded corners*
1,1,$1+$1,$2,$3*
1,1,$1+$1,$4,$5*
1,1,$1+$1,$6,$7*
1,1,$1+$1,$8,$9*
0 Add four rect primitives between the rounded corners*
20,1,$1+$1,$2,$3,$4,$5,0*
20,1,$1+$1,$4,$5,$6,$7,0*
20,1,$1+$1,$6,$7,$8,$9,0*
20,1,$1+$1,$8,$9,$2,$3,0*%
G04 Aperture macros list end*
%ADD10RoundRect,0.250000X-0.650000X0.325000X-0.650000X-0.325000X0.650000X-0.325000X0.650000X0.325000X0*%
%ADD11RoundRect,0.250000X-0.625000X0.312500X-0.625000X-0.312500X0.625000X-0.312500X0.625000X0.312500X0*%
%ADD12RoundRect,0.140000X-0.170000X0.140000X-0.170000X-0.140000X0.170000X-0.140000X0.170000X0.140000X0*%
%ADD13RoundRect,0.200000X-0.200000X-0.275000X0.200000X-0.275000X0.200000X0.275000X-0.200000X0.275000X0*%
%ADD14RoundRect,0.250000X0.625000X-0.312500X0.625000X0.312500X-0.625000X0.312500X-0.625000X-0.312500X0*%
%ADD15RoundRect,0.135000X-0.185000X0.135000X-0.185000X-0.135000X0.185000X-0.135000X0.185000X0.135000X0*%
%ADD16RoundRect,0.140000X0.140000X0.170000X-0.140000X0.170000X-0.140000X-0.170000X0.140000X-0.170000X0*%
%ADD17RoundRect,0.200000X0.275000X-0.200000X0.275000X0.200000X-0.275000X0.200000X-0.275000X-0.200000X0*%
%ADD18RoundRect,0.249999X0.290001X-0.290001X0.290001X0.290001X-0.290001X0.290001X-0.290001X-0.290001X0*%
%ADD19RoundRect,0.062500X0.062500X-0.350000X0.062500X0.350000X-0.062500X0.350000X-0.062500X-0.350000X0*%
%ADD20RoundRect,0.062500X0.350000X-0.062500X0.350000X0.062500X-0.350000X0.062500X-0.350000X-0.062500X0*%
%ADD21RoundRect,0.250000X-0.650000X1.000000X-0.650000X-1.000000X0.650000X-1.000000X0.650000X1.000000X0*%
%ADD22RoundRect,0.200000X0.200000X0.275000X-0.200000X0.275000X-0.200000X-0.275000X0.200000X-0.275000X0*%
%ADD23RoundRect,0.225000X-0.250000X0.225000X-0.250000X-0.225000X0.250000X-0.225000X0.250000X0.225000X0*%
%ADD24RoundRect,0.250000X0.325000X0.650000X-0.325000X0.650000X-0.325000X-0.650000X0.325000X-0.650000X0*%
%ADD25RoundRect,0.243750X-0.243750X-0.456250X0.243750X-0.456250X0.243750X0.456250X-0.243750X0.456250X0*%
%ADD26RoundRect,0.075000X-0.662500X-0.075000X0.662500X-0.075000X0.662500X0.075000X-0.662500X0.075000X0*%
%ADD27RoundRect,0.075000X-0.075000X-0.662500X0.075000X-0.662500X0.075000X0.662500X-0.075000X0.662500X0*%
%ADD28R,2.800000X1.000000*%
%ADD29RoundRect,0.225000X-0.225000X-0.250000X0.225000X-0.250000X0.225000X0.250000X-0.225000X0.250000X0*%
%ADD30RoundRect,0.140000X-0.140000X-0.170000X0.140000X-0.170000X0.140000X0.170000X-0.140000X0.170000X0*%
%ADD31RoundRect,0.225000X0.225000X0.250000X-0.225000X0.250000X-0.225000X-0.250000X0.225000X-0.250000X0*%
%ADD32RoundRect,0.375000X0.625000X0.375000X-0.625000X0.375000X-0.625000X-0.375000X0.625000X-0.375000X0*%
%ADD33RoundRect,0.500000X0.500000X1.400000X-0.500000X1.400000X-0.500000X-1.400000X0.500000X-1.400000X0*%
%ADD34R,3.050000X2.600000*%
%ADD35R,1.524000X1.524000*%
%ADD36R,2.400000X2.000000*%
%ADD37RoundRect,0.225000X0.250000X-0.225000X0.250000X0.225000X-0.250000X0.225000X-0.250000X-0.225000X0*%
%ADD38RoundRect,0.225000X0.225000X0.225000X-0.225000X0.225000X-0.225000X-0.225000X0.225000X-0.225000X0*%
%ADD39RoundRect,0.062500X0.337500X0.062500X-0.337500X0.062500X-0.337500X-0.062500X0.337500X-0.062500X0*%
%ADD40RoundRect,0.062500X0.062500X0.337500X-0.062500X0.337500X-0.062500X-0.337500X0.062500X-0.337500X0*%
G04 APERTURE END LIST*
D10*
%TO.C,C17*%
X81725000Y-92725000D03*
X81725000Y-95675000D03*
%TD*%
D11*
%TO.C,R2*%
X111000000Y-94337500D03*
X111000000Y-97262500D03*
%TD*%
D12*
%TO.C,C27*%
X89100000Y-106320000D03*
X89100000Y-107280000D03*
%TD*%
D13*
%TO.C,R7*%
X87575000Y-100000000D03*
X89225000Y-100000000D03*
%TD*%
%TO.C,R9*%
X102075000Y-111000000D03*
X103725000Y-111000000D03*
%TD*%
D14*
%TO.C,Y1*%
X106000000Y-96462500D03*
X106000000Y-93537500D03*
%TD*%
D15*
%TO.C,R15*%
X89100000Y-104390000D03*
X89100000Y-105410000D03*
%TD*%
D16*
%TO.C,C25*%
X92480000Y-101500000D03*
X91520000Y-101500000D03*
%TD*%
D17*
%TO.C,R13*%
X104800000Y-87025000D03*
X104800000Y-85375000D03*
%TD*%
D18*
%TO.C,U1*%
X111875000Y-101362500D03*
X113125000Y-101362500D03*
X111875000Y-100112500D03*
X113125000Y-100112500D03*
D19*
X111500000Y-102675000D03*
X112000000Y-102675000D03*
X112500000Y-102675000D03*
X113000000Y-102675000D03*
X113500000Y-102675000D03*
D20*
X114437500Y-101737500D03*
X114437500Y-101237500D03*
X114437500Y-100737500D03*
X114437500Y-100237500D03*
X114437500Y-99737500D03*
D19*
X113500000Y-98800000D03*
X113000000Y-98800000D03*
X112500000Y-98800000D03*
X112000000Y-98800000D03*
X111500000Y-98800000D03*
D20*
X110562500Y-99737500D03*
X110562500Y-100237500D03*
X110562500Y-100737500D03*
X110562500Y-101237500D03*
X110562500Y-101737500D03*
%TD*%
D21*
%TO.C,D1*%
X107200000Y-104800000D03*
X107200000Y-108800000D03*
%TD*%
D22*
%TO.C,R8*%
X103725000Y-109500000D03*
X102075000Y-109500000D03*
%TD*%
D23*
%TO.C,C5*%
X112900000Y-95825000D03*
X112900000Y-97375000D03*
%TD*%
D22*
%TO.C,R10*%
X97645000Y-85350000D03*
X95995000Y-85350000D03*
%TD*%
D12*
%TO.C,C29*%
X100000000Y-110220000D03*
X100000000Y-111180000D03*
%TD*%
D24*
%TO.C,C12*%
X87875000Y-85800000D03*
X84925000Y-85800000D03*
%TD*%
D25*
%TO.C,D5*%
X84237500Y-100000000D03*
X86112500Y-100000000D03*
%TD*%
D26*
%TO.C,U4*%
X92037500Y-103050000D03*
X92037500Y-103550000D03*
X92037500Y-104050000D03*
X92037500Y-104550000D03*
X92037500Y-105050000D03*
X92037500Y-105550000D03*
X92037500Y-106050000D03*
X92037500Y-106550000D03*
X92037500Y-107050000D03*
X92037500Y-107550000D03*
X92037500Y-108050000D03*
X92037500Y-108550000D03*
D27*
X93450000Y-109962500D03*
X93950000Y-109962500D03*
X94450000Y-109962500D03*
X94950000Y-109962500D03*
X95450000Y-109962500D03*
X95950000Y-109962500D03*
X96450000Y-109962500D03*
X96950000Y-109962500D03*
X97450000Y-109962500D03*
X97950000Y-109962500D03*
X98450000Y-109962500D03*
X98950000Y-109962500D03*
D26*
X100362500Y-108550000D03*
X100362500Y-108050000D03*
X100362500Y-107550000D03*
X100362500Y-107050000D03*
X100362500Y-106550000D03*
X100362500Y-106050000D03*
X100362500Y-105550000D03*
X100362500Y-105050000D03*
X100362500Y-104550000D03*
X100362500Y-104050000D03*
X100362500Y-103550000D03*
X100362500Y-103050000D03*
D27*
X98950000Y-101637500D03*
X98450000Y-101637500D03*
X97950000Y-101637500D03*
X97450000Y-101637500D03*
X96950000Y-101637500D03*
X96450000Y-101637500D03*
X95950000Y-101637500D03*
X95450000Y-101637500D03*
X94950000Y-101637500D03*
X94450000Y-101637500D03*
X93950000Y-101637500D03*
X93450000Y-101637500D03*
%TD*%
D23*
%TO.C,C8*%
X115900000Y-97925000D03*
X115900000Y-99475000D03*
%TD*%
D28*
%TO.C,SW2*%
X108800000Y-86000000D03*
X114600000Y-86000000D03*
X108800000Y-90000000D03*
X114600000Y-90000000D03*
%TD*%
D29*
%TO.C,C23*%
X99225000Y-82000000D03*
X100775000Y-82000000D03*
%TD*%
D30*
%TO.C,C28*%
X100520000Y-102100000D03*
X101480000Y-102100000D03*
%TD*%
D24*
%TO.C,C16*%
X84300000Y-97800000D03*
X81350000Y-97800000D03*
%TD*%
D25*
%TO.C,D8*%
X99282500Y-83850000D03*
X101157500Y-83850000D03*
%TD*%
D24*
%TO.C,C6*%
X108875000Y-98500000D03*
X105925000Y-98500000D03*
%TD*%
D31*
%TO.C,C22*%
X100795000Y-78450000D03*
X99245000Y-78450000D03*
%TD*%
D32*
%TO.C,U2*%
X90525000Y-95300000D03*
X90525000Y-93000000D03*
D33*
X84225000Y-93000000D03*
D32*
X90525000Y-90700000D03*
%TD*%
D23*
%TO.C,C24*%
X106300000Y-85425000D03*
X106300000Y-86975000D03*
%TD*%
D11*
%TO.C,R1*%
X110100000Y-104137500D03*
X110100000Y-107062500D03*
%TD*%
D31*
%TO.C,C3*%
X109075000Y-100400000D03*
X107525000Y-100400000D03*
%TD*%
D25*
%TO.C,D6*%
X99245000Y-85950000D03*
X101120000Y-85950000D03*
%TD*%
D34*
%TO.C,T1*%
X119445000Y-89385000D03*
X119445000Y-94615000D03*
D35*
X115890000Y-90150000D03*
X115890000Y-93850000D03*
X123000000Y-93850000D03*
X123000000Y-92000000D03*
X123000000Y-90150000D03*
%TD*%
D36*
%TO.C,Y2*%
X86600000Y-102950000D03*
X86600000Y-106650000D03*
%TD*%
D12*
%TO.C,C26*%
X89100000Y-102520000D03*
X89100000Y-103480000D03*
%TD*%
%TO.C,C30*%
X90000000Y-108320000D03*
X90000000Y-109280000D03*
%TD*%
D31*
%TO.C,C7*%
X109175000Y-102500000D03*
X107625000Y-102500000D03*
%TD*%
D17*
%TO.C,R14*%
X94800000Y-99900000D03*
X94800000Y-98250000D03*
%TD*%
D37*
%TO.C,C4*%
X114400000Y-97375000D03*
X114400000Y-95825000D03*
%TD*%
D22*
%TO.C,R12*%
X97645000Y-83750000D03*
X95995000Y-83750000D03*
%TD*%
D24*
%TO.C,C11*%
X87875000Y-88150000D03*
X84925000Y-88150000D03*
%TD*%
D31*
%TO.C,C21*%
X100795000Y-76850000D03*
X99245000Y-76850000D03*
%TD*%
D38*
%TO.C,U3*%
X96420000Y-80870000D03*
X96420000Y-79750000D03*
X96420000Y-78630000D03*
X95300000Y-80870000D03*
X95300000Y-79750000D03*
X95300000Y-78630000D03*
X94180000Y-80870000D03*
X94180000Y-79750000D03*
X94180000Y-78630000D03*
D39*
X97750000Y-81250000D03*
X97750000Y-80750000D03*
X97750000Y-80250000D03*
X97750000Y-79750000D03*
X97750000Y-79250000D03*
X97750000Y-78750000D03*
X97750000Y-78250000D03*
D40*
X96800000Y-77300000D03*
X96300000Y-77300000D03*
X95800000Y-77300000D03*
X95300000Y-77300000D03*
X94800000Y-77300000D03*
X94300000Y-77300000D03*
X93800000Y-77300000D03*
D39*
X92850000Y-78250000D03*
X92850000Y-78750000D03*
X92850000Y-79250000D03*
X92850000Y-79750000D03*
X92850000Y-80250000D03*
X92850000Y-80750000D03*
X92850000Y-81250000D03*
D40*
X93800000Y-82200000D03*
X94300000Y-82200000D03*
X94800000Y-82200000D03*
X95300000Y-82200000D03*
X95800000Y-82200000D03*
X96300000Y-82200000D03*
X96800000Y-82200000D03*
%TD*%
M02*
