%TF.GenerationSoftware,KiCad,Pcbnew,8.0.6*%
%TF.CreationDate,2025-02-16T20:57:11+01:00*%
%TF.ProjectId,TUSS4470_shield,54555353-3434-4373-905f-736869656c64,rev?*%
%TF.SameCoordinates,Original*%
%TF.FileFunction,Copper,L1,Top*%
%TF.FilePolarity,Positive*%
%FSLAX46Y46*%
G04 Gerber Fmt 4.6, Leading zero omitted, Abs format (unit mm)*
G04 Created by KiCad (PCBNEW 8.0.6) date 2025-02-16 20:57:11*
%MOMM*%
%LPD*%
G01*
G04 APERTURE LIST*
G04 Aperture macros list*
%AMRoundRect*
0 Rectangle with rounded corners*
0 $1 Rounding radius*
0 $2 $3 $4 $5 $6 $7 $8 $9 X,Y pos of 4 corners*
0 Add a 4 corners polygon primitive as box body*
4,1,4,$2,$3,$4,$5,$6,$7,$8,$9,$2,$3,0*
0 Add four circle primitives for the rounded corners*
1,1,$1+$1,$2,$3*
1,1,$1+$1,$4,$5*
1,1,$1+$1,$6,$7*
1,1,$1+$1,$8,$9*
0 Add four rect primitives between the rounded corners*
20,1,$1+$1,$2,$3,$4,$5,0*
20,1,$1+$1,$4,$5,$6,$7,0*
20,1,$1+$1,$6,$7,$8,$9,0*
20,1,$1+$1,$8,$9,$2,$3,0*%
%AMFreePoly0*
4,1,19,0.500000,-0.750000,0.000000,-0.750000,0.000000,-0.744911,-0.071157,-0.744911,-0.207708,-0.704816,-0.327430,-0.627875,-0.420627,-0.520320,-0.479746,-0.390866,-0.500000,-0.250000,-0.500000,0.250000,-0.479746,0.390866,-0.420627,0.520320,-0.327430,0.627875,-0.207708,0.704816,-0.071157,0.744911,0.000000,0.744911,0.000000,0.750000,0.500000,0.750000,0.500000,-0.750000,0.500000,-0.750000,
$1*%
%AMFreePoly1*
4,1,19,0.000000,0.744911,0.071157,0.744911,0.207708,0.704816,0.327430,0.627875,0.420627,0.520320,0.479746,0.390866,0.500000,0.250000,0.500000,-0.250000,0.479746,-0.390866,0.420627,-0.520320,0.327430,-0.627875,0.207708,-0.704816,0.071157,-0.744911,0.000000,-0.744911,0.000000,-0.750000,-0.500000,-0.750000,-0.500000,0.750000,0.000000,0.750000,0.000000,0.744911,0.000000,0.744911,
$1*%
G04 Aperture macros list end*
%TA.AperFunction,SMDPad,CuDef*%
%ADD10RoundRect,0.250000X-0.650000X0.325000X-0.650000X-0.325000X0.650000X-0.325000X0.650000X0.325000X0*%
%TD*%
%TA.AperFunction,SMDPad,CuDef*%
%ADD11RoundRect,0.250000X-0.625000X0.312500X-0.625000X-0.312500X0.625000X-0.312500X0.625000X0.312500X0*%
%TD*%
%TA.AperFunction,SMDPad,CuDef*%
%ADD12RoundRect,0.140000X-0.170000X0.140000X-0.170000X-0.140000X0.170000X-0.140000X0.170000X0.140000X0*%
%TD*%
%TA.AperFunction,SMDPad,CuDef*%
%ADD13RoundRect,0.200000X-0.200000X-0.275000X0.200000X-0.275000X0.200000X0.275000X-0.200000X0.275000X0*%
%TD*%
%TA.AperFunction,SMDPad,CuDef*%
%ADD14RoundRect,0.250000X0.625000X-0.312500X0.625000X0.312500X-0.625000X0.312500X-0.625000X-0.312500X0*%
%TD*%
%TA.AperFunction,SMDPad,CuDef*%
%ADD15C,2.000000*%
%TD*%
%TA.AperFunction,SMDPad,CuDef*%
%ADD16RoundRect,0.135000X-0.185000X0.135000X-0.185000X-0.135000X0.185000X-0.135000X0.185000X0.135000X0*%
%TD*%
%TA.AperFunction,SMDPad,CuDef*%
%ADD17RoundRect,0.140000X0.140000X0.170000X-0.140000X0.170000X-0.140000X-0.170000X0.140000X-0.170000X0*%
%TD*%
%TA.AperFunction,SMDPad,CuDef*%
%ADD18RoundRect,0.200000X0.275000X-0.200000X0.275000X0.200000X-0.275000X0.200000X-0.275000X-0.200000X0*%
%TD*%
%TA.AperFunction,SMDPad,CuDef*%
%ADD19RoundRect,0.062500X0.062500X-0.350000X0.062500X0.350000X-0.062500X0.350000X-0.062500X-0.350000X0*%
%TD*%
%TA.AperFunction,SMDPad,CuDef*%
%ADD20RoundRect,0.062500X0.350000X-0.062500X0.350000X0.062500X-0.350000X0.062500X-0.350000X-0.062500X0*%
%TD*%
%TA.AperFunction,HeatsinkPad*%
%ADD21C,0.500000*%
%TD*%
%TA.AperFunction,HeatsinkPad*%
%ADD22R,2.500000X2.500000*%
%TD*%
%TA.AperFunction,SMDPad,CuDef*%
%ADD23RoundRect,0.250000X-0.650000X1.000000X-0.650000X-1.000000X0.650000X-1.000000X0.650000X1.000000X0*%
%TD*%
%TA.AperFunction,SMDPad,CuDef*%
%ADD24RoundRect,0.200000X0.200000X0.275000X-0.200000X0.275000X-0.200000X-0.275000X0.200000X-0.275000X0*%
%TD*%
%TA.AperFunction,SMDPad,CuDef*%
%ADD25RoundRect,0.225000X-0.250000X0.225000X-0.250000X-0.225000X0.250000X-0.225000X0.250000X0.225000X0*%
%TD*%
%TA.AperFunction,SMDPad,CuDef*%
%ADD26RoundRect,0.250000X0.325000X0.650000X-0.325000X0.650000X-0.325000X-0.650000X0.325000X-0.650000X0*%
%TD*%
%TA.AperFunction,SMDPad,CuDef*%
%ADD27RoundRect,0.243750X-0.243750X-0.456250X0.243750X-0.456250X0.243750X0.456250X-0.243750X0.456250X0*%
%TD*%
%TA.AperFunction,SMDPad,CuDef*%
%ADD28RoundRect,0.075000X-0.662500X-0.075000X0.662500X-0.075000X0.662500X0.075000X-0.662500X0.075000X0*%
%TD*%
%TA.AperFunction,SMDPad,CuDef*%
%ADD29RoundRect,0.075000X-0.075000X-0.662500X0.075000X-0.662500X0.075000X0.662500X-0.075000X0.662500X0*%
%TD*%
%TA.AperFunction,SMDPad,CuDef*%
%ADD30R,2.800000X1.000000*%
%TD*%
%TA.AperFunction,SMDPad,CuDef*%
%ADD31RoundRect,0.225000X-0.225000X-0.250000X0.225000X-0.250000X0.225000X0.250000X-0.225000X0.250000X0*%
%TD*%
%TA.AperFunction,SMDPad,CuDef*%
%ADD32RoundRect,0.140000X-0.140000X-0.170000X0.140000X-0.170000X0.140000X0.170000X-0.140000X0.170000X0*%
%TD*%
%TA.AperFunction,SMDPad,CuDef*%
%ADD33RoundRect,0.225000X0.225000X0.250000X-0.225000X0.250000X-0.225000X-0.250000X0.225000X-0.250000X0*%
%TD*%
%TA.AperFunction,SMDPad,CuDef*%
%ADD34RoundRect,0.375000X0.625000X0.375000X-0.625000X0.375000X-0.625000X-0.375000X0.625000X-0.375000X0*%
%TD*%
%TA.AperFunction,SMDPad,CuDef*%
%ADD35RoundRect,0.500000X0.500000X1.400000X-0.500000X1.400000X-0.500000X-1.400000X0.500000X-1.400000X0*%
%TD*%
%TA.AperFunction,SMDPad,CuDef*%
%ADD36FreePoly0,90.000000*%
%TD*%
%TA.AperFunction,SMDPad,CuDef*%
%ADD37FreePoly1,90.000000*%
%TD*%
%TA.AperFunction,SMDPad,CuDef*%
%ADD38R,3.050000X2.600000*%
%TD*%
%TA.AperFunction,SMDPad,CuDef*%
%ADD39R,1.524000X1.524000*%
%TD*%
%TA.AperFunction,SMDPad,CuDef*%
%ADD40R,2.400000X2.000000*%
%TD*%
%TA.AperFunction,SMDPad,CuDef*%
%ADD41RoundRect,0.225000X0.250000X-0.225000X0.250000X0.225000X-0.250000X0.225000X-0.250000X-0.225000X0*%
%TD*%
%TA.AperFunction,SMDPad,CuDef*%
%ADD42RoundRect,0.062500X0.337500X0.062500X-0.337500X0.062500X-0.337500X-0.062500X0.337500X-0.062500X0*%
%TD*%
%TA.AperFunction,SMDPad,CuDef*%
%ADD43RoundRect,0.062500X0.062500X0.337500X-0.062500X0.337500X-0.062500X-0.337500X0.062500X-0.337500X0*%
%TD*%
%TA.AperFunction,HeatsinkPad*%
%ADD44R,3.350000X3.350000*%
%TD*%
%TA.AperFunction,ViaPad*%
%ADD45C,0.600000*%
%TD*%
%TA.AperFunction,Conductor*%
%ADD46C,0.200000*%
%TD*%
G04 APERTURE END LIST*
D10*
%TO.P,C17,1*%
%TO.N,+3.3V*%
X81725000Y-92725000D03*
%TO.P,C17,2*%
%TO.N,GND*%
X81725000Y-95675000D03*
%TD*%
D11*
%TO.P,R2,1*%
%TO.N,Net-(C5-Pad1)*%
X111000000Y-94337500D03*
%TO.P,R2,2*%
%TO.N,Net-(U1-OUTA)*%
X111000000Y-97262500D03*
%TD*%
D12*
%TO.P,C27,1*%
%TO.N,Net-(U4-PD0-OSC_OUT)*%
X89100000Y-106320000D03*
%TO.P,C27,2*%
%TO.N,GND*%
X89100000Y-107280000D03*
%TD*%
D13*
%TO.P,R7,1*%
%TO.N,Net-(D5-A)*%
X87575000Y-100000000D03*
%TO.P,R7,2*%
%TO.N,Net-(U4-PC13-TAMPER-RTC)*%
X89225000Y-100000000D03*
%TD*%
%TO.P,R9,1*%
%TO.N,5V_voltage_detect*%
X102075000Y-111000000D03*
%TO.P,R9,2*%
%TO.N,GND*%
X103725000Y-111000000D03*
%TD*%
D14*
%TO.P,Y1,1,1*%
%TO.N,Net-(U1-OUTB)*%
X106000000Y-96462500D03*
%TO.P,Y1,2,2*%
%TO.N,Net-(U1-OUTA)*%
X106000000Y-93537500D03*
%TD*%
D15*
%TO.P,TP7,1,1*%
%TO.N,Net-(U3-D+)*%
X105000000Y-81700000D03*
%TD*%
D16*
%TO.P,R15,1*%
%TO.N,Net-(U4-PD0-OSC_IN)*%
X89100000Y-104390000D03*
%TO.P,R15,2*%
%TO.N,Net-(U4-PD0-OSC_OUT)*%
X89100000Y-105410000D03*
%TD*%
D17*
%TO.P,C25,1*%
%TO.N,+3.3V*%
X92480000Y-101500000D03*
%TO.P,C25,2*%
%TO.N,GND*%
X91520000Y-101500000D03*
%TD*%
D18*
%TO.P,R13,1*%
%TO.N,+3.3V*%
X104800000Y-87025000D03*
%TO.P,R13,2*%
%TO.N,rst*%
X104800000Y-85375000D03*
%TD*%
D19*
%TO.P,U1,1,OUT3*%
%TO.N,OUT_3*%
X111500000Y-102675000D03*
%TO.P,U1,2,DGND*%
%TO.N,GND*%
X112000000Y-102675000D03*
%TO.P,U1,3,NCS*%
%TO.N,NCS*%
X112500000Y-102675000D03*
%TO.P,U1,4,SCLK*%
%TO.N,SCLK*%
X113000000Y-102675000D03*
%TO.P,U1,5,SDI*%
%TO.N,SDI*%
X113500000Y-102675000D03*
D20*
%TO.P,U1,6,SDO*%
%TO.N,SDO*%
X114437500Y-101737500D03*
%TO.P,U1,7,IO1*%
%TO.N,IO_1*%
X114437500Y-101237500D03*
%TO.P,U1,8,IO2*%
%TO.N,IO_2*%
X114437500Y-100737500D03*
%TO.P,U1,9,VOUT*%
%TO.N,ADC*%
X114437500Y-100237500D03*
%TO.P,U1,10,VDD*%
%TO.N,+5V*%
X114437500Y-99737500D03*
D19*
%TO.P,U1,11,INN*%
%TO.N,Net-(U1-INN)*%
X113500000Y-98800000D03*
%TO.P,U1,12,INP*%
%TO.N,Net-(U1-INP)*%
X113000000Y-98800000D03*
%TO.P,U1,13,SGND*%
%TO.N,GND*%
X112500000Y-98800000D03*
%TO.P,U1,14,GND*%
X112000000Y-98800000D03*
%TO.P,U1,15,OUTA*%
%TO.N,Net-(U1-OUTA)*%
X111500000Y-98800000D03*
D20*
%TO.P,U1,16,OUTB*%
%TO.N,Net-(U1-OUTB)*%
X110562500Y-99737500D03*
%TO.P,U1,17,VDRV*%
%TO.N,Net-(U1-VDRV)*%
X110562500Y-100237500D03*
%TO.P,U1,18,FLT*%
%TO.N,Net-(U1-FLT)*%
X110562500Y-100737500D03*
%TO.P,U1,19,OUT4*%
%TO.N,OUT_4*%
X110562500Y-101237500D03*
%TO.P,U1,20,VPWR*%
%TO.N,Net-(U1-VPWR)*%
X110562500Y-101737500D03*
D21*
%TO.P,U1,21,EXP*%
%TO.N,GND*%
X111500000Y-101737500D03*
X113500000Y-101737500D03*
D22*
X112500000Y-100737500D03*
D21*
X111500000Y-99737500D03*
X113500000Y-99737500D03*
%TD*%
D23*
%TO.P,D1,1,K*%
%TO.N,Net-(D1-K)*%
X107200000Y-104800000D03*
%TO.P,D1,2,A*%
%TO.N,VCC*%
X107200000Y-108800000D03*
%TD*%
D24*
%TO.P,R8,1*%
%TO.N,+5V*%
X103725000Y-109500000D03*
%TO.P,R8,2*%
%TO.N,5V_voltage_detect*%
X102075000Y-109500000D03*
%TD*%
D25*
%TO.P,C5,1*%
%TO.N,Net-(C5-Pad1)*%
X112900000Y-95825000D03*
%TO.P,C5,2*%
%TO.N,Net-(U1-INP)*%
X112900000Y-97375000D03*
%TD*%
D24*
%TO.P,R10,1*%
%TO.N,Net-(D6-K)*%
X97645000Y-85350000D03*
%TO.P,R10,2*%
%TO.N,uC_TX*%
X95995000Y-85350000D03*
%TD*%
D12*
%TO.P,C29,1*%
%TO.N,+3.3V*%
X100000000Y-110220000D03*
%TO.P,C29,2*%
%TO.N,GND*%
X100000000Y-111180000D03*
%TD*%
D26*
%TO.P,C12,1*%
%TO.N,+5V*%
X87875000Y-85800000D03*
%TO.P,C12,2*%
%TO.N,GND*%
X84925000Y-85800000D03*
%TD*%
D27*
%TO.P,D5,1,K*%
%TO.N,GND*%
X84237500Y-100000000D03*
%TO.P,D5,2,A*%
%TO.N,Net-(D5-A)*%
X86112500Y-100000000D03*
%TD*%
D15*
%TO.P,TP4,1,1*%
%TO.N,uC_TX*%
X93500000Y-87700000D03*
%TD*%
%TO.P,TP3,1,1*%
%TO.N,uC_RX*%
X96600000Y-87800000D03*
%TD*%
D28*
%TO.P,U4,1,VBAT*%
%TO.N,unconnected-(U4-VBAT-Pad1)*%
X92037500Y-103050000D03*
%TO.P,U4,2,PC13-TAMPER-RTC*%
%TO.N,Net-(U4-PC13-TAMPER-RTC)*%
X92037500Y-103550000D03*
%TO.P,U4,3,PC14-OSC32_IN*%
%TO.N,unconnected-(U4-PC14-OSC32_IN-Pad3)*%
X92037500Y-104050000D03*
%TO.P,U4,4,PC15-OSC32_OUT*%
%TO.N,unconnected-(U4-PC15-OSC32_OUT-Pad4)*%
X92037500Y-104550000D03*
%TO.P,U4,5,PD0-OSC_IN*%
%TO.N,Net-(U4-PD0-OSC_IN)*%
X92037500Y-105050000D03*
%TO.P,U4,6,PD0-OSC_OUT*%
%TO.N,Net-(U4-PD0-OSC_OUT)*%
X92037500Y-105550000D03*
%TO.P,U4,7,NRST*%
%TO.N,rst*%
X92037500Y-106050000D03*
%TO.P,U4,8,VSSA*%
%TO.N,GND*%
X92037500Y-106550000D03*
%TO.P,U4,9,VDDA*%
%TO.N,+3.3V*%
X92037500Y-107050000D03*
%TO.P,U4,10,PA0-WKUP*%
%TO.N,unconnected-(U4-PA0-WKUP-Pad10)*%
X92037500Y-107550000D03*
%TO.P,U4,11,PA1*%
%TO.N,ADC*%
X92037500Y-108050000D03*
%TO.P,U4,12,PA2*%
%TO.N,IO_2*%
X92037500Y-108550000D03*
D29*
%TO.P,U4,13,PA3*%
%TO.N,IO_1*%
X93450000Y-109962500D03*
%TO.P,U4,14,PA4*%
%TO.N,NCS*%
X93950000Y-109962500D03*
%TO.P,U4,15,PA5*%
%TO.N,SCLK*%
X94450000Y-109962500D03*
%TO.P,U4,16,PA6*%
%TO.N,SDO*%
X94950000Y-109962500D03*
%TO.P,U4,17,PA7*%
%TO.N,SDI*%
X95450000Y-109962500D03*
%TO.P,U4,18,PB0*%
%TO.N,unconnected-(U4-PB0-Pad18)*%
X95950000Y-109962500D03*
%TO.P,U4,19,PB1*%
%TO.N,5V_voltage_detect*%
X96450000Y-109962500D03*
%TO.P,U4,20,PB2*%
%TO.N,BOOT_1*%
X96950000Y-109962500D03*
%TO.P,U4,21,PB10*%
%TO.N,unconnected-(U4-PB10-Pad21)*%
X97450000Y-109962500D03*
%TO.P,U4,22,PB11*%
%TO.N,unconnected-(U4-PB11-Pad22)*%
X97950000Y-109962500D03*
%TO.P,U4,23,VSS*%
%TO.N,GND*%
X98450000Y-109962500D03*
%TO.P,U4,24,VDD*%
%TO.N,+3.3V*%
X98950000Y-109962500D03*
D28*
%TO.P,U4,25,PB12*%
%TO.N,OUT_3*%
X100362500Y-108550000D03*
%TO.P,U4,26,PB13*%
%TO.N,OUT_4*%
X100362500Y-108050000D03*
%TO.P,U4,27,PB14*%
%TO.N,unconnected-(U4-PB14-Pad27)*%
X100362500Y-107550000D03*
%TO.P,U4,28,PB15*%
%TO.N,unconnected-(U4-PB15-Pad28)*%
X100362500Y-107050000D03*
%TO.P,U4,29,PA8*%
%TO.N,unconnected-(U4-PA8-Pad29)*%
X100362500Y-106550000D03*
%TO.P,U4,30,PA9*%
%TO.N,uC_TX*%
X100362500Y-106050000D03*
%TO.P,U4,31,PA10*%
%TO.N,uC_RX*%
X100362500Y-105550000D03*
%TO.P,U4,32,PA11*%
%TO.N,unconnected-(U4-PA11-Pad32)*%
X100362500Y-105050000D03*
%TO.P,U4,33,PA12*%
%TO.N,unconnected-(U4-PA12-Pad33)*%
X100362500Y-104550000D03*
%TO.P,U4,34,PA13*%
%TO.N,unconnected-(U4-PA13-Pad34)*%
X100362500Y-104050000D03*
%TO.P,U4,35,VSS*%
%TO.N,GND*%
X100362500Y-103550000D03*
%TO.P,U4,36,VDD*%
%TO.N,+3.3V*%
X100362500Y-103050000D03*
D29*
%TO.P,U4,37,PA14*%
%TO.N,unconnected-(U4-PA14-Pad37)*%
X98950000Y-101637500D03*
%TO.P,U4,38,PA15*%
%TO.N,unconnected-(U4-PA15-Pad38)*%
X98450000Y-101637500D03*
%TO.P,U4,39,PB3*%
%TO.N,unconnected-(U4-PB3-Pad39)*%
X97950000Y-101637500D03*
%TO.P,U4,40,PB4*%
%TO.N,unconnected-(U4-PB4-Pad40)*%
X97450000Y-101637500D03*
%TO.P,U4,41,PB5*%
%TO.N,unconnected-(U4-PB5-Pad41)*%
X96950000Y-101637500D03*
%TO.P,U4,42,PB6*%
%TO.N,unconnected-(U4-PB6-Pad42)*%
X96450000Y-101637500D03*
%TO.P,U4,43,PB7*%
%TO.N,unconnected-(U4-PB7-Pad43)*%
X95950000Y-101637500D03*
%TO.P,U4,44,BOOT0*%
%TO.N,BOOT_0*%
X95450000Y-101637500D03*
%TO.P,U4,45,PB8*%
%TO.N,unconnected-(U4-PB8-Pad45)*%
X94950000Y-101637500D03*
%TO.P,U4,46,PB9*%
%TO.N,unconnected-(U4-PB9-Pad46)*%
X94450000Y-101637500D03*
%TO.P,U4,47,VSS*%
%TO.N,GND*%
X93950000Y-101637500D03*
%TO.P,U4,48,VDD*%
%TO.N,+3.3V*%
X93450000Y-101637500D03*
%TD*%
D25*
%TO.P,C8,1*%
%TO.N,GND*%
X115900000Y-97925000D03*
%TO.P,C8,2*%
%TO.N,+5V*%
X115900000Y-99475000D03*
%TD*%
D30*
%TO.P,SW2,1,1*%
%TO.N,rst*%
X108800000Y-86000000D03*
X114600000Y-86000000D03*
%TO.P,SW2,2,2*%
%TO.N,GND*%
X108800000Y-90000000D03*
X114600000Y-90000000D03*
%TD*%
D31*
%TO.P,C23,1*%
%TO.N,Net-(U3-~{DTR})*%
X99225000Y-82000000D03*
%TO.P,C23,2*%
%TO.N,rst*%
X100775000Y-82000000D03*
%TD*%
D32*
%TO.P,C28,1*%
%TO.N,+3.3V*%
X100520000Y-102100000D03*
%TO.P,C28,2*%
%TO.N,GND*%
X101480000Y-102100000D03*
%TD*%
D26*
%TO.P,C16,1*%
%TO.N,+3.3V*%
X84300000Y-97800000D03*
%TO.P,C16,2*%
%TO.N,GND*%
X81350000Y-97800000D03*
%TD*%
D27*
%TO.P,D8,1,K*%
%TO.N,Net-(D8-K)*%
X99282500Y-83850000D03*
%TO.P,D8,2,A*%
%TO.N,+3.3V*%
X101157500Y-83850000D03*
%TD*%
D15*
%TO.P,TP6,1,1*%
%TO.N,+3.3V*%
X93400000Y-93900000D03*
%TD*%
D26*
%TO.P,C6,1*%
%TO.N,Net-(U1-VDRV)*%
X108875000Y-98500000D03*
%TO.P,C6,2*%
%TO.N,GND*%
X105925000Y-98500000D03*
%TD*%
D33*
%TO.P,C22,1*%
%TO.N,GND*%
X100795000Y-78450000D03*
%TO.P,C22,2*%
%TO.N,Net-(U3-VDD)*%
X99245000Y-78450000D03*
%TD*%
D15*
%TO.P,TP5,1,1*%
%TO.N,GND*%
X93500000Y-90800000D03*
%TD*%
D34*
%TO.P,U2,1,GND*%
%TO.N,GND*%
X90525000Y-95300000D03*
%TO.P,U2,2,VO*%
%TO.N,+3.3V*%
X90525000Y-93000000D03*
D35*
X84225000Y-93000000D03*
D34*
%TO.P,U2,3,VI*%
%TO.N,+5V*%
X90525000Y-90700000D03*
%TD*%
D25*
%TO.P,C24,1*%
%TO.N,rst*%
X106300000Y-85425000D03*
%TO.P,C24,2*%
%TO.N,GND*%
X106300000Y-86975000D03*
%TD*%
D36*
%TO.P,JP7,1,A*%
%TO.N,BOOT_0*%
X92700000Y-99575000D03*
D37*
%TO.P,JP7,2,B*%
%TO.N,+3.3V*%
X92700000Y-98275000D03*
%TD*%
D11*
%TO.P,R1,1*%
%TO.N,Net-(U1-VPWR)*%
X110100000Y-104137500D03*
%TO.P,R1,2*%
%TO.N,Net-(D1-K)*%
X110100000Y-107062500D03*
%TD*%
D15*
%TO.P,TP2,1,1*%
%TO.N,+5V*%
X105000000Y-78600000D03*
%TD*%
D33*
%TO.P,C3,1*%
%TO.N,Net-(U1-FLT)*%
X109075000Y-100400000D03*
%TO.P,C3,2*%
%TO.N,GND*%
X107525000Y-100400000D03*
%TD*%
D27*
%TO.P,D6,1,K*%
%TO.N,Net-(D6-K)*%
X99245000Y-85950000D03*
%TO.P,D6,2,A*%
%TO.N,+3.3V*%
X101120000Y-85950000D03*
%TD*%
D15*
%TO.P,TP8,1,1*%
%TO.N,Net-(U3-D-)*%
X107800000Y-80000000D03*
%TD*%
D38*
%TO.P,T1,*%
%TO.N,*%
X119445000Y-89385000D03*
X119445000Y-94615000D03*
D39*
%TO.P,T1,1,AA*%
%TO.N,unconnected-(T1-AA-Pad1)*%
X115890000Y-90150000D03*
%TO.P,T1,2,AB*%
%TO.N,unconnected-(T1-AB-Pad2)*%
X115890000Y-93850000D03*
%TO.P,T1,3,SA*%
%TO.N,unconnected-(T1-SA-Pad3)*%
X123000000Y-93850000D03*
%TO.P,T1,4,SC*%
%TO.N,unconnected-(T1-SC-Pad4)*%
X123000000Y-92000000D03*
%TO.P,T1,5,SB*%
%TO.N,unconnected-(T1-SB-Pad5)*%
X123000000Y-90150000D03*
%TD*%
D40*
%TO.P,Y2,1,1*%
%TO.N,Net-(U4-PD0-OSC_IN)*%
X86600000Y-102950000D03*
%TO.P,Y2,2,2*%
%TO.N,Net-(U4-PD0-OSC_OUT)*%
X86600000Y-106650000D03*
%TD*%
D12*
%TO.P,C26,1*%
%TO.N,GND*%
X89100000Y-102520000D03*
%TO.P,C26,2*%
%TO.N,Net-(U4-PD0-OSC_IN)*%
X89100000Y-103480000D03*
%TD*%
%TO.P,C30,1*%
%TO.N,+3.3V*%
X90000000Y-108320000D03*
%TO.P,C30,2*%
%TO.N,GND*%
X90000000Y-109280000D03*
%TD*%
D33*
%TO.P,C7,1*%
%TO.N,Net-(U1-VPWR)*%
X109175000Y-102500000D03*
%TO.P,C7,2*%
%TO.N,GND*%
X107625000Y-102500000D03*
%TD*%
D18*
%TO.P,R14,1*%
%TO.N,BOOT_0*%
X94800000Y-99900000D03*
%TO.P,R14,2*%
%TO.N,GND*%
X94800000Y-98250000D03*
%TD*%
D15*
%TO.P,TP1,1,1*%
%TO.N,GND*%
X107800000Y-83100000D03*
%TD*%
D41*
%TO.P,C4,1*%
%TO.N,Net-(U1-INN)*%
X114400000Y-97375000D03*
%TO.P,C4,2*%
%TO.N,GND*%
X114400000Y-95825000D03*
%TD*%
D24*
%TO.P,R12,1*%
%TO.N,Net-(D8-K)*%
X97645000Y-83750000D03*
%TO.P,R12,2*%
%TO.N,uC_RX*%
X95995000Y-83750000D03*
%TD*%
D26*
%TO.P,C11,1*%
%TO.N,+5V*%
X87875000Y-88150000D03*
%TO.P,C11,2*%
%TO.N,GND*%
X84925000Y-88150000D03*
%TD*%
D33*
%TO.P,C21,1*%
%TO.N,GND*%
X100795000Y-76850000D03*
%TO.P,C21,2*%
%TO.N,+5V*%
X99245000Y-76850000D03*
%TD*%
D42*
%TO.P,U3,1,~{DCD}*%
%TO.N,unconnected-(U3-~{DCD}-Pad1)*%
X97750000Y-81250000D03*
%TO.P,U3,2,~{RI}/CLK*%
%TO.N,unconnected-(U3-~{RI}{slash}CLK-Pad2)*%
X97750000Y-80750000D03*
%TO.P,U3,3,GND*%
%TO.N,GND*%
X97750000Y-80250000D03*
%TO.P,U3,4,D+*%
%TO.N,Net-(U3-D+)*%
X97750000Y-79750000D03*
%TO.P,U3,5,D-*%
%TO.N,Net-(U3-D-)*%
X97750000Y-79250000D03*
%TO.P,U3,6,VDD*%
%TO.N,Net-(U3-VDD)*%
X97750000Y-78750000D03*
%TO.P,U3,7,REGIN*%
%TO.N,+5V*%
X97750000Y-78250000D03*
D43*
%TO.P,U3,8,VBUS*%
X96800000Y-77300000D03*
%TO.P,U3,9,~{RSTb}*%
%TO.N,unconnected-(U3-~{RSTb}-Pad9)*%
X96300000Y-77300000D03*
%TO.P,U3,10,NC*%
%TO.N,unconnected-(U3-NC-Pad10)*%
X95800000Y-77300000D03*
%TO.P,U3,11,~{SUSPENDb}*%
%TO.N,unconnected-(U3-~{SUSPENDb}-Pad11)*%
X95300000Y-77300000D03*
%TO.P,U3,12,SUSPEND*%
%TO.N,unconnected-(U3-SUSPEND-Pad12)*%
X94800000Y-77300000D03*
%TO.P,U3,13,CHREN*%
%TO.N,unconnected-(U3-CHREN-Pad13)*%
X94300000Y-77300000D03*
%TO.P,U3,14,CHR1*%
%TO.N,unconnected-(U3-CHR1-Pad14)*%
X93800000Y-77300000D03*
D42*
%TO.P,U3,15,CHR0*%
%TO.N,unconnected-(U3-CHR0-Pad15)*%
X92850000Y-78250000D03*
%TO.P,U3,16,~{WAKEUP}/GPIO.3*%
%TO.N,unconnected-(U3-~{WAKEUP}{slash}GPIO.3-Pad16)*%
X92850000Y-78750000D03*
%TO.P,U3,17,RS485/GPIO.2*%
%TO.N,unconnected-(U3-RS485{slash}GPIO.2-Pad17)*%
X92850000Y-79250000D03*
%TO.P,U3,18,~{RXT}/GPIO.1*%
%TO.N,unconnected-(U3-~{RXT}{slash}GPIO.1-Pad18)*%
X92850000Y-79750000D03*
%TO.P,U3,19,~{TXT}/GPIO.0*%
%TO.N,unconnected-(U3-~{TXT}{slash}GPIO.0-Pad19)*%
X92850000Y-80250000D03*
%TO.P,U3,20,GPIO.6*%
%TO.N,unconnected-(U3-GPIO.6-Pad20)*%
X92850000Y-80750000D03*
%TO.P,U3,21,GPIO.5*%
%TO.N,unconnected-(U3-GPIO.5-Pad21)*%
X92850000Y-81250000D03*
D43*
%TO.P,U3,22,GPIO.4*%
%TO.N,unconnected-(U3-GPIO.4-Pad22)*%
X93800000Y-82200000D03*
%TO.P,U3,23,~{CTS}*%
%TO.N,unconnected-(U3-~{CTS}-Pad23)*%
X94300000Y-82200000D03*
%TO.P,U3,24,~{RTS}*%
%TO.N,unconnected-(U3-~{RTS}-Pad24)*%
X94800000Y-82200000D03*
%TO.P,U3,25,RXD*%
%TO.N,uC_TX*%
X95300000Y-82200000D03*
%TO.P,U3,26,TXD*%
%TO.N,uC_RX*%
X95800000Y-82200000D03*
%TO.P,U3,27,~{DSR}*%
%TO.N,unconnected-(U3-~{DSR}-Pad27)*%
X96300000Y-82200000D03*
%TO.P,U3,28,~{DTR}*%
%TO.N,Net-(U3-~{DTR})*%
X96800000Y-82200000D03*
D44*
%TO.P,U3,29,GND*%
%TO.N,GND*%
X95300000Y-79750000D03*
%TD*%
D45*
%TO.N,GND*%
X115900000Y-95800000D03*
X99400000Y-80600000D03*
X91400000Y-109400000D03*
X90400000Y-104200000D03*
X103400000Y-107400000D03*
X112500000Y-100737500D03*
X115900000Y-96600000D03*
X88900000Y-101400000D03*
X88900000Y-108500000D03*
X104900000Y-111300000D03*
X102100000Y-78300000D03*
X102100000Y-76800000D03*
X112200000Y-104100000D03*
X102200000Y-105900000D03*
X94100000Y-103300000D03*
X90300000Y-106300000D03*
X94800000Y-97000000D03*
X98800000Y-111600000D03*
X93900000Y-106500000D03*
X91500000Y-102300000D03*
%TO.N,NCS*%
X96000000Y-113400000D03*
X103000000Y-112200000D03*
%TO.N,ADC*%
X93800000Y-108200000D03*
X92000000Y-112400000D03*
%TD*%
D46*
%TO.N,Net-(U3-VDD)*%
X98945000Y-78750000D02*
X97750000Y-78750000D01*
X99245000Y-78450000D02*
X98945000Y-78750000D01*
%TO.N,rst*%
X104800000Y-84200000D02*
X104800000Y-85375000D01*
X104850000Y-85425000D02*
X104800000Y-85375000D01*
X106300000Y-85425000D02*
X104850000Y-85425000D01*
X108800000Y-86000000D02*
X106875000Y-86000000D01*
X106875000Y-86000000D02*
X106300000Y-85425000D01*
X100775000Y-82000000D02*
X102600000Y-82000000D01*
X102600000Y-82000000D02*
X104800000Y-84200000D01*
X114600000Y-86000000D02*
X108800000Y-86000000D01*
%TO.N,GND*%
X91520000Y-101500000D02*
X91520000Y-102280000D01*
X115875000Y-95825000D02*
X115900000Y-95800000D01*
X91520000Y-102280000D02*
X91500000Y-102300000D01*
X93950000Y-103150000D02*
X94100000Y-103300000D01*
X93950000Y-101637500D02*
X93950000Y-103150000D01*
X100795000Y-78450000D02*
X101950000Y-78450000D01*
X89100000Y-107280000D02*
X89100000Y-108300000D01*
X112000000Y-102675000D02*
X112000000Y-101237500D01*
X112000000Y-101237500D02*
X112500000Y-100737500D01*
X115900000Y-97925000D02*
X115900000Y-96600000D01*
X103725000Y-111000000D02*
X104600000Y-111000000D01*
X102050000Y-76850000D02*
X102100000Y-76800000D01*
X89100000Y-102520000D02*
X89100000Y-101600000D01*
X114400000Y-95825000D02*
X115875000Y-95825000D01*
X101950000Y-78450000D02*
X102100000Y-78300000D01*
X100795000Y-76850000D02*
X102050000Y-76850000D01*
X99050000Y-80250000D02*
X99400000Y-80600000D01*
X97750000Y-80250000D02*
X99050000Y-80250000D01*
X89100000Y-108300000D02*
X88900000Y-108500000D01*
X104600000Y-111000000D02*
X104900000Y-111300000D01*
X112500000Y-98800000D02*
X112000000Y-98800000D01*
X89100000Y-101600000D02*
X88900000Y-101400000D01*
%TO.N,NCS*%
X103900000Y-112600000D02*
X109468628Y-112600000D01*
X113600000Y-104400000D02*
X112500000Y-103300000D01*
X113600000Y-108468628D02*
X113600000Y-104400000D01*
X93950000Y-111350000D02*
X96000000Y-113400000D01*
X112500000Y-103300000D02*
X112500000Y-102675000D01*
X103900000Y-112600000D02*
X103400000Y-112600000D01*
X103400000Y-112600000D02*
X103000000Y-112200000D01*
X93950000Y-109962500D02*
X93950000Y-111350000D01*
X109468628Y-112600000D02*
X113600000Y-108468628D01*
%TO.N,OUT_4*%
X103700000Y-105500000D02*
X101150000Y-108050000D01*
X103700000Y-103200000D02*
X103700000Y-105500000D01*
X101150000Y-108050000D02*
X100362500Y-108050000D01*
X105662500Y-101237500D02*
X103700000Y-103200000D01*
X110562500Y-101237500D02*
X105662500Y-101237500D01*
%TO.N,ADC*%
X95068628Y-115000000D02*
X92468628Y-112400000D01*
X114437500Y-100237500D02*
X114995758Y-100237500D01*
X116200000Y-101441742D02*
X116200000Y-109400000D01*
X92468628Y-112400000D02*
X92000000Y-112400000D01*
X93650000Y-108050000D02*
X93800000Y-108200000D01*
X92037500Y-108050000D02*
X93650000Y-108050000D01*
X114995758Y-100237500D02*
X116200000Y-101441742D01*
X116200000Y-109400000D02*
X110600000Y-115000000D01*
X110600000Y-115000000D02*
X95068628Y-115000000D01*
%TO.N,IO_2*%
X93000000Y-109512500D02*
X92037500Y-108550000D01*
X95234314Y-114600000D02*
X93000000Y-112365686D01*
X114930072Y-100737500D02*
X115600000Y-101407428D01*
X115600000Y-109297057D02*
X110297057Y-114600000D01*
X115600000Y-101407428D02*
X115600000Y-109297057D01*
X93000000Y-112365686D02*
X93000000Y-109512500D01*
X114437500Y-100737500D02*
X114930072Y-100737500D01*
X110297057Y-114600000D02*
X95234314Y-114600000D01*
%TO.N,Net-(U3-~{DTR})*%
X96800000Y-82200000D02*
X97000000Y-82000000D01*
X97000000Y-82000000D02*
X99225000Y-82000000D01*
%TO.N,OUT_3*%
X113100000Y-108402942D02*
X113100000Y-105900000D01*
X104450000Y-108550000D02*
X105050000Y-109150000D01*
X105050000Y-109150000D02*
X105050000Y-110300000D01*
X105050000Y-110300000D02*
X106650000Y-111900000D01*
X113100000Y-105900000D02*
X111500000Y-104300000D01*
X109602942Y-111900000D02*
X113100000Y-108402942D01*
X100362500Y-108550000D02*
X104450000Y-108550000D01*
X106650000Y-111900000D02*
X109602942Y-111900000D01*
X111500000Y-104300000D02*
X111500000Y-102675000D01*
%TO.N,SDO*%
X114800000Y-108965686D02*
X109965686Y-113800000D01*
X94950000Y-110798096D02*
X94950000Y-109962500D01*
X109965686Y-113800000D02*
X97951904Y-113800000D01*
X114800000Y-102100000D02*
X114800000Y-108965686D01*
X97951904Y-113800000D02*
X94950000Y-110798096D01*
X114437500Y-101737500D02*
X114800000Y-102100000D01*
%TO.N,SCLK*%
X101000000Y-110283866D02*
X101000000Y-112300000D01*
X94717590Y-108925000D02*
X99467590Y-108925000D01*
X99467590Y-108925000D02*
X100142590Y-109600000D01*
X114000000Y-104200000D02*
X114000000Y-108634314D01*
X113000000Y-102675000D02*
X113000000Y-103200000D01*
X113000000Y-103200000D02*
X114000000Y-104200000D01*
X100316134Y-109600000D02*
X101000000Y-110283866D01*
X101000000Y-112300000D02*
X101700000Y-113000000D01*
X94450000Y-109192590D02*
X94717590Y-108925000D01*
X100142590Y-109600000D02*
X100316134Y-109600000D01*
X114000000Y-108634314D02*
X109634314Y-113000000D01*
X101700000Y-113000000D02*
X101800000Y-113000000D01*
X94450000Y-109962500D02*
X94450000Y-109192590D01*
X109634314Y-113000000D02*
X101800000Y-113000000D01*
%TO.N,IO_1*%
X115200000Y-109131371D02*
X115200000Y-101573114D01*
X93450000Y-109962500D02*
X93450000Y-112250000D01*
X110131371Y-114200000D02*
X115200000Y-109131371D01*
X93450000Y-112250000D02*
X95400000Y-114200000D01*
X114864386Y-101237500D02*
X114437500Y-101237500D01*
X95400000Y-114200000D02*
X110131371Y-114200000D01*
X115200000Y-101573114D02*
X114864386Y-101237500D01*
%TO.N,+5V*%
X114437500Y-99737500D02*
X115637500Y-99737500D01*
X99150000Y-76850000D02*
X99245000Y-76850000D01*
X100020000Y-77625000D02*
X104025000Y-77625000D01*
X100020000Y-77625000D02*
X99245000Y-76850000D01*
X104025000Y-77625000D02*
X105000000Y-78600000D01*
X115637500Y-99737500D02*
X115900000Y-99475000D01*
X97750000Y-78250000D02*
X96800000Y-77300000D01*
X97750000Y-78250000D02*
X99150000Y-76850000D01*
%TO.N,SDI*%
X114400000Y-108800000D02*
X114400000Y-104000000D01*
X113500000Y-102675000D02*
X113500000Y-103100000D01*
X95450000Y-110732410D02*
X98117590Y-113400000D01*
X109800000Y-113400000D02*
X114400000Y-108800000D01*
X98117590Y-113400000D02*
X109800000Y-113400000D01*
X113500000Y-103100000D02*
X114400000Y-104000000D01*
X95450000Y-109962500D02*
X95450000Y-110732410D01*
%TO.N,Net-(U1-FLT)*%
X109412500Y-100737500D02*
X109075000Y-100400000D01*
X110562500Y-100737500D02*
X109412500Y-100737500D01*
%TO.N,Net-(U1-INN)*%
X113500000Y-98800000D02*
X113500000Y-98275000D01*
X113500000Y-98275000D02*
X114400000Y-97375000D01*
%TO.N,+3.3V*%
X100362500Y-103050000D02*
X100362500Y-102257500D01*
X91645000Y-100665000D02*
X91645000Y-98575000D01*
X90000000Y-108320000D02*
X90000000Y-107600000D01*
X100000000Y-110220000D02*
X99207500Y-110220000D01*
X90000000Y-107600000D02*
X90550000Y-107050000D01*
X100362500Y-102257500D02*
X100520000Y-102100000D01*
X99207500Y-110220000D02*
X98950000Y-109962500D01*
X101157500Y-83850000D02*
X101157500Y-85912500D01*
X92480000Y-101500000D02*
X93312500Y-101500000D01*
X90550000Y-107050000D02*
X92037500Y-107050000D01*
X91945000Y-98275000D02*
X92700000Y-98275000D01*
X91645000Y-98575000D02*
X91945000Y-98275000D01*
X93312500Y-101500000D02*
X93450000Y-101637500D01*
X92480000Y-101500000D02*
X91645000Y-100665000D01*
X101157500Y-85912500D02*
X101120000Y-85950000D01*
%TO.N,Net-(D6-K)*%
X98645000Y-85350000D02*
X99245000Y-85950000D01*
X97645000Y-85350000D02*
X98645000Y-85350000D01*
%TO.N,Net-(U3-D+)*%
X105000000Y-81700000D02*
X103050000Y-79750000D01*
X103050000Y-79750000D02*
X97750000Y-79750000D01*
%TO.N,Net-(U3-D-)*%
X104561522Y-80000000D02*
X107800000Y-80000000D01*
X97750000Y-79250000D02*
X103811522Y-79250000D01*
X103811522Y-79250000D02*
X104561522Y-80000000D01*
%TO.N,BOOT_0*%
X95450000Y-100550000D02*
X95450000Y-101637500D01*
X94475000Y-99575000D02*
X94800000Y-99900000D01*
X95450000Y-100550000D02*
X94800000Y-99900000D01*
X92700000Y-99575000D02*
X94475000Y-99575000D01*
%TO.N,5V_voltage_detect*%
X102075000Y-111000000D02*
X102075000Y-109500000D01*
%TO.N,uC_TX*%
X95995000Y-85350000D02*
X95295000Y-84650000D01*
X95295000Y-82205000D02*
X95300000Y-82200000D01*
X95995000Y-85350000D02*
X95850000Y-85350000D01*
X95295000Y-84650000D02*
X95295000Y-82205000D01*
X95850000Y-85350000D02*
X93500000Y-87700000D01*
%TO.N,uC_RX*%
X95800000Y-83555000D02*
X95800000Y-82200000D01*
X96600000Y-87800000D02*
X96695000Y-87705000D01*
X95995000Y-83750000D02*
X95800000Y-83555000D01*
X96695000Y-87705000D02*
X96695000Y-84450000D01*
X96695000Y-84450000D02*
X95995000Y-83750000D01*
%TO.N,Net-(C5-Pad1)*%
X112900000Y-95825000D02*
X112487500Y-95825000D01*
X112487500Y-95825000D02*
X111000000Y-94337500D01*
%TO.N,Net-(U1-INP)*%
X113000000Y-97475000D02*
X112900000Y-97375000D01*
X113000000Y-98800000D02*
X113000000Y-97475000D01*
%TO.N,Net-(U1-VDRV)*%
X108975000Y-99076886D02*
X108975000Y-98500000D01*
X110135614Y-100237500D02*
X108975000Y-99076886D01*
X110562500Y-100237500D02*
X110135614Y-100237500D01*
%TO.N,Net-(U1-VPWR)*%
X110100000Y-104137500D02*
X110100000Y-102200000D01*
X109175000Y-102500000D02*
X109800000Y-102500000D01*
X109800000Y-102500000D02*
X110100000Y-102200000D01*
X110100000Y-102200000D02*
X110562500Y-101737500D01*
%TO.N,Net-(U4-PD0-OSC_IN)*%
X89100000Y-104390000D02*
X89190000Y-104390000D01*
X87130000Y-103480000D02*
X86600000Y-102950000D01*
X89100000Y-104390000D02*
X89100000Y-103480000D01*
X89850000Y-105050000D02*
X92037500Y-105050000D01*
X89190000Y-104390000D02*
X89850000Y-105050000D01*
X89100000Y-103480000D02*
X87130000Y-103480000D01*
%TO.N,Net-(U4-PD0-OSC_OUT)*%
X92037500Y-105550000D02*
X89240000Y-105550000D01*
X86930000Y-106320000D02*
X86600000Y-106650000D01*
X89240000Y-105550000D02*
X89100000Y-105410000D01*
X89100000Y-106320000D02*
X86930000Y-106320000D01*
X89100000Y-105410000D02*
X89100000Y-106320000D01*
%TO.N,Net-(D1-K)*%
X107837500Y-104800000D02*
X107200000Y-104800000D01*
X110100000Y-107062500D02*
X107837500Y-104800000D01*
%TO.N,Net-(D5-A)*%
X86112500Y-100000000D02*
X87575000Y-100000000D01*
%TO.N,Net-(D8-K)*%
X97645000Y-83750000D02*
X99182500Y-83750000D01*
X99182500Y-83750000D02*
X99282500Y-83850000D01*
%TO.N,Net-(U1-OUTA)*%
X109500000Y-96734315D02*
X110028185Y-97262500D01*
X108828185Y-96062500D02*
X108828186Y-96062500D01*
X110028185Y-97262500D02*
X111000000Y-97262500D01*
X111500000Y-98800000D02*
X111500000Y-97762500D01*
X108828186Y-96062500D02*
X109500000Y-96734315D01*
X106000000Y-93537500D02*
X106303185Y-93537500D01*
X111500000Y-97762500D02*
X111000000Y-97262500D01*
X106303185Y-93537500D02*
X108828185Y-96062500D01*
%TO.N,Net-(U4-PC13-TAMPER-RTC)*%
X92037500Y-103550000D02*
X91267590Y-103550000D01*
X89225000Y-100525000D02*
X89225000Y-100000000D01*
X91267590Y-103550000D02*
X90700000Y-102982410D01*
X90700000Y-102982410D02*
X90700000Y-102000000D01*
X90700000Y-102000000D02*
X89225000Y-100525000D01*
%TO.N,Net-(U1-OUTB)*%
X109750000Y-98925000D02*
X109750000Y-97550000D01*
X108662500Y-96462500D02*
X106000000Y-96462500D01*
X109750000Y-97550000D02*
X108662500Y-96462500D01*
X110562500Y-99737500D02*
X109750000Y-98925000D01*
%TD*%
%TA.AperFunction,Conductor*%
%TO.N,GND*%
G36*
X98542539Y-109832185D02*
G01*
X98588294Y-109884989D01*
X98599500Y-109936500D01*
X98599500Y-110653141D01*
X98600000Y-110663289D01*
X98600000Y-111195086D01*
X98600001Y-111195087D01*
X98675098Y-111185201D01*
X98675103Y-111185200D01*
X98814978Y-111127263D01*
X98935096Y-111035093D01*
X99007143Y-110941199D01*
X99063571Y-110899996D01*
X99133317Y-110895841D01*
X99194143Y-110930000D01*
X100126000Y-110930000D01*
X100193039Y-110949685D01*
X100238794Y-111002489D01*
X100250000Y-111054000D01*
X100250000Y-111958789D01*
X100270910Y-111957145D01*
X100426193Y-111912032D01*
X100512378Y-111861062D01*
X100580102Y-111843879D01*
X100646365Y-111866039D01*
X100690128Y-111920504D01*
X100699500Y-111967794D01*
X100699500Y-112339562D01*
X100700276Y-112342457D01*
X100719979Y-112415990D01*
X100733588Y-112439560D01*
X100733590Y-112439563D01*
X100759537Y-112484507D01*
X100759541Y-112484512D01*
X101162848Y-112887819D01*
X101196333Y-112949142D01*
X101191349Y-113018834D01*
X101149477Y-113074767D01*
X101084013Y-113099184D01*
X101075167Y-113099500D01*
X98293423Y-113099500D01*
X98226384Y-113079815D01*
X98205742Y-113063181D01*
X96572561Y-111430000D01*
X99195496Y-111430000D01*
X99237968Y-111576195D01*
X99320278Y-111715374D01*
X99320285Y-111715383D01*
X99434616Y-111829714D01*
X99434625Y-111829721D01*
X99573804Y-111912031D01*
X99729089Y-111957145D01*
X99750000Y-111958789D01*
X99750000Y-111430000D01*
X99195496Y-111430000D01*
X96572561Y-111430000D01*
X96254741Y-111112180D01*
X96221256Y-111050857D01*
X96226240Y-110981165D01*
X96268112Y-110925232D01*
X96333576Y-110900815D01*
X96342422Y-110900499D01*
X96347862Y-110900499D01*
X96347867Y-110900500D01*
X96552132Y-110900499D01*
X96632495Y-110884515D01*
X96632498Y-110884512D01*
X96643778Y-110879841D01*
X96644376Y-110881286D01*
X96697782Y-110864563D01*
X96755943Y-110880516D01*
X96756223Y-110879842D01*
X96761590Y-110882065D01*
X96765162Y-110883045D01*
X96767351Y-110884451D01*
X96767506Y-110884516D01*
X96818326Y-110894624D01*
X96847867Y-110900500D01*
X97052132Y-110900499D01*
X97132495Y-110884515D01*
X97132498Y-110884512D01*
X97143778Y-110879841D01*
X97144376Y-110881286D01*
X97197782Y-110864563D01*
X97255943Y-110880516D01*
X97256223Y-110879842D01*
X97261590Y-110882065D01*
X97265162Y-110883045D01*
X97267351Y-110884451D01*
X97267506Y-110884516D01*
X97318326Y-110894624D01*
X97347867Y-110900500D01*
X97552132Y-110900499D01*
X97632495Y-110884515D01*
X97632498Y-110884512D01*
X97643778Y-110879841D01*
X97644376Y-110881286D01*
X97697782Y-110864563D01*
X97755943Y-110880516D01*
X97756223Y-110879842D01*
X97761590Y-110882065D01*
X97765162Y-110883045D01*
X97767351Y-110884451D01*
X97767502Y-110884514D01*
X97767504Y-110884514D01*
X97767505Y-110884515D01*
X97818332Y-110894625D01*
X97880241Y-110927009D01*
X97892516Y-110940755D01*
X97964905Y-111035094D01*
X98085021Y-111127263D01*
X98224896Y-111185200D01*
X98224901Y-111185201D01*
X98299998Y-111195087D01*
X98300000Y-111195086D01*
X98300000Y-110663300D01*
X98300499Y-110653132D01*
X98300499Y-110652138D01*
X98300500Y-110652133D01*
X98300499Y-109936498D01*
X98320183Y-109869461D01*
X98372987Y-109823706D01*
X98424499Y-109812500D01*
X98475500Y-109812500D01*
X98542539Y-109832185D01*
G37*
%TD.AperFunction*%
%TA.AperFunction,Conductor*%
G36*
X104815046Y-110492313D02*
G01*
X104830337Y-110505308D01*
X106412848Y-112087819D01*
X106446333Y-112149142D01*
X106441349Y-112218834D01*
X106399477Y-112274767D01*
X106334013Y-112299184D01*
X106325167Y-112299500D01*
X103627400Y-112299500D01*
X103560361Y-112279815D01*
X103514606Y-112227011D01*
X103504662Y-112193147D01*
X103485165Y-112057542D01*
X103482667Y-112049036D01*
X103483786Y-112048707D01*
X103475000Y-112008310D01*
X103475000Y-111974999D01*
X103975000Y-111974999D01*
X103981581Y-111974999D01*
X104052102Y-111968591D01*
X104052107Y-111968590D01*
X104214396Y-111918018D01*
X104359877Y-111830072D01*
X104480072Y-111709877D01*
X104568019Y-111564395D01*
X104618590Y-111402106D01*
X104625000Y-111331572D01*
X104625000Y-111250000D01*
X103975000Y-111250000D01*
X103975000Y-111974999D01*
X103475000Y-111974999D01*
X103475000Y-110874000D01*
X103494685Y-110806961D01*
X103547489Y-110761206D01*
X103599000Y-110750000D01*
X104624999Y-110750000D01*
X104624999Y-110668417D01*
X104619165Y-110604209D01*
X104632702Y-110535664D01*
X104681149Y-110485319D01*
X104749124Y-110469158D01*
X104815046Y-110492313D01*
G37*
%TD.AperFunction*%
%TA.AperFunction,Conductor*%
G36*
X106854372Y-101557685D02*
G01*
X106900127Y-101610489D01*
X106910071Y-101679647D01*
X106881046Y-101743203D01*
X106875014Y-101749681D01*
X106827427Y-101797267D01*
X106827424Y-101797271D01*
X106738457Y-101941507D01*
X106738452Y-101941518D01*
X106685144Y-102102393D01*
X106675000Y-102201677D01*
X106675000Y-102250000D01*
X107751000Y-102250000D01*
X107818039Y-102269685D01*
X107863794Y-102322489D01*
X107875000Y-102374000D01*
X107875000Y-102626000D01*
X107855315Y-102693039D01*
X107802511Y-102738794D01*
X107751000Y-102750000D01*
X106675001Y-102750000D01*
X106675001Y-102798322D01*
X106685144Y-102897607D01*
X106738452Y-103058481D01*
X106738454Y-103058486D01*
X106801318Y-103160403D01*
X106819758Y-103227795D01*
X106798836Y-103294459D01*
X106745194Y-103339229D01*
X106695779Y-103349500D01*
X106495730Y-103349500D01*
X106465300Y-103352353D01*
X106465298Y-103352353D01*
X106337119Y-103397206D01*
X106337117Y-103397207D01*
X106227850Y-103477850D01*
X106147207Y-103587117D01*
X106147206Y-103587119D01*
X106102353Y-103715298D01*
X106102353Y-103715300D01*
X106099500Y-103745730D01*
X106099500Y-105854269D01*
X106102353Y-105884699D01*
X106102353Y-105884701D01*
X106140080Y-105992515D01*
X106147207Y-106012882D01*
X106227850Y-106122150D01*
X106337118Y-106202793D01*
X106379845Y-106217744D01*
X106465299Y-106247646D01*
X106495730Y-106250500D01*
X106495734Y-106250500D01*
X107904270Y-106250500D01*
X107934699Y-106247646D01*
X107934701Y-106247646D01*
X107998790Y-106225219D01*
X108062882Y-106202793D01*
X108172150Y-106122150D01*
X108252793Y-106012882D01*
X108284202Y-105923121D01*
X108324924Y-105866345D01*
X108389876Y-105840598D01*
X108458438Y-105854054D01*
X108488924Y-105876395D01*
X109037186Y-106424657D01*
X109070671Y-106485980D01*
X109066547Y-106553292D01*
X109027353Y-106665301D01*
X109024500Y-106695730D01*
X109024500Y-107429269D01*
X109027353Y-107459699D01*
X109027353Y-107459701D01*
X109071940Y-107587119D01*
X109072207Y-107587882D01*
X109152850Y-107697150D01*
X109262118Y-107777793D01*
X109304845Y-107792744D01*
X109390299Y-107822646D01*
X109420730Y-107825500D01*
X109420734Y-107825500D01*
X110779270Y-107825500D01*
X110809699Y-107822646D01*
X110809701Y-107822646D01*
X110880739Y-107797788D01*
X110937882Y-107777793D01*
X111047150Y-107697150D01*
X111127793Y-107587882D01*
X111167457Y-107474529D01*
X111172646Y-107459701D01*
X111172646Y-107459699D01*
X111175500Y-107429269D01*
X111175500Y-106695730D01*
X111172646Y-106665300D01*
X111172646Y-106665298D01*
X111135101Y-106558004D01*
X111127793Y-106537118D01*
X111047150Y-106427850D01*
X110937882Y-106347207D01*
X110937880Y-106347206D01*
X110809700Y-106302353D01*
X110779270Y-106299500D01*
X110779266Y-106299500D01*
X109813333Y-106299500D01*
X109746294Y-106279815D01*
X109725652Y-106263181D01*
X108336819Y-104874348D01*
X108303334Y-104813025D01*
X108300500Y-104786667D01*
X108300500Y-103745730D01*
X108297646Y-103715300D01*
X108297646Y-103715298D01*
X108261540Y-103612117D01*
X108252793Y-103587118D01*
X108214269Y-103534919D01*
X108190299Y-103469293D01*
X108205614Y-103401123D01*
X108248944Y-103355749D01*
X108302731Y-103322573D01*
X108422573Y-103202731D01*
X108484606Y-103102160D01*
X108536554Y-103055435D01*
X108605516Y-103044212D01*
X108669599Y-103072056D01*
X108677826Y-103079575D01*
X108696774Y-103098523D01*
X108696778Y-103098526D01*
X108696780Y-103098528D01*
X108816874Y-103159719D01*
X108816876Y-103159719D01*
X108816878Y-103159720D01*
X108916507Y-103175500D01*
X109237356Y-103175500D01*
X109304395Y-103195185D01*
X109350150Y-103247989D01*
X109360094Y-103317147D01*
X109331069Y-103380703D01*
X109278311Y-103416541D01*
X109262119Y-103422206D01*
X109262117Y-103422207D01*
X109152850Y-103502850D01*
X109072207Y-103612117D01*
X109072206Y-103612119D01*
X109027353Y-103740298D01*
X109027353Y-103740300D01*
X109024500Y-103770730D01*
X109024500Y-104504269D01*
X109027353Y-104534699D01*
X109027353Y-104534701D01*
X109072206Y-104662880D01*
X109072207Y-104662882D01*
X109152850Y-104772150D01*
X109262118Y-104852793D01*
X109271918Y-104856222D01*
X109390299Y-104897646D01*
X109420730Y-104900500D01*
X109420734Y-104900500D01*
X110779270Y-104900500D01*
X110809699Y-104897646D01*
X110809701Y-104897646D01*
X110895840Y-104867504D01*
X110937882Y-104852793D01*
X111047150Y-104772150D01*
X111127793Y-104662882D01*
X111143001Y-104619420D01*
X111183723Y-104562644D01*
X111248675Y-104536897D01*
X111317237Y-104550353D01*
X111347723Y-104572694D01*
X112763181Y-105988152D01*
X112796666Y-106049475D01*
X112799500Y-106075833D01*
X112799500Y-108227109D01*
X112779815Y-108294148D01*
X112763181Y-108314790D01*
X109514790Y-111563181D01*
X109453467Y-111596666D01*
X109427109Y-111599500D01*
X106825833Y-111599500D01*
X106758794Y-111579815D01*
X106738152Y-111563181D01*
X105386819Y-110211848D01*
X105353334Y-110150525D01*
X105350500Y-110124167D01*
X105350500Y-109110439D01*
X105347622Y-109099697D01*
X105330021Y-109034011D01*
X105327705Y-109030000D01*
X105290464Y-108965495D01*
X105290458Y-108965487D01*
X104634512Y-108309541D01*
X104634507Y-108309537D01*
X104601462Y-108290459D01*
X104601462Y-108290458D01*
X104601460Y-108290458D01*
X104580698Y-108278471D01*
X104565990Y-108269979D01*
X104565991Y-108269979D01*
X104527775Y-108259739D01*
X104489562Y-108249500D01*
X104489560Y-108249500D01*
X101674833Y-108249500D01*
X101607794Y-108229815D01*
X101562039Y-108177011D01*
X101552095Y-108107853D01*
X101581120Y-108044297D01*
X101587152Y-108037819D01*
X101879241Y-107745730D01*
X106099500Y-107745730D01*
X106099500Y-109854269D01*
X106102353Y-109884699D01*
X106102353Y-109884701D01*
X106146909Y-110012031D01*
X106147207Y-110012882D01*
X106227850Y-110122150D01*
X106337118Y-110202793D01*
X106362996Y-110211848D01*
X106465299Y-110247646D01*
X106495730Y-110250500D01*
X106495734Y-110250500D01*
X107904270Y-110250500D01*
X107934699Y-110247646D01*
X107934701Y-110247646D01*
X107998790Y-110225219D01*
X108062882Y-110202793D01*
X108172150Y-110122150D01*
X108252793Y-110012882D01*
X108285469Y-109919500D01*
X108297646Y-109884701D01*
X108297646Y-109884699D01*
X108300500Y-109854269D01*
X108300500Y-107745730D01*
X108297646Y-107715300D01*
X108297646Y-107715298D01*
X108253060Y-107587882D01*
X108252793Y-107587118D01*
X108172150Y-107477850D01*
X108062882Y-107397207D01*
X108062880Y-107397206D01*
X107934700Y-107352353D01*
X107904270Y-107349500D01*
X107904266Y-107349500D01*
X106495734Y-107349500D01*
X106495730Y-107349500D01*
X106465300Y-107352353D01*
X106465298Y-107352353D01*
X106337119Y-107397206D01*
X106337117Y-107397207D01*
X106227850Y-107477850D01*
X106147207Y-107587117D01*
X106147206Y-107587119D01*
X106102353Y-107715298D01*
X106102353Y-107715300D01*
X106099500Y-107745730D01*
X101879241Y-107745730D01*
X102763362Y-106861609D01*
X103940460Y-105684511D01*
X103980022Y-105615988D01*
X104000500Y-105539562D01*
X104000500Y-105460438D01*
X104000500Y-103375833D01*
X104020185Y-103308794D01*
X104036819Y-103288152D01*
X105750652Y-101574319D01*
X105811975Y-101540834D01*
X105838333Y-101538000D01*
X106787333Y-101538000D01*
X106854372Y-101557685D01*
G37*
%TD.AperFunction*%
%TA.AperFunction,Conductor*%
G36*
X112068039Y-102569685D02*
G01*
X112113794Y-102622489D01*
X112125000Y-102674000D01*
X112125000Y-103584124D01*
X112125001Y-103584125D01*
X112209334Y-103573023D01*
X112209338Y-103573022D01*
X112230873Y-103564102D01*
X112300342Y-103556632D01*
X112362822Y-103587905D01*
X112366010Y-103590981D01*
X113263181Y-104488152D01*
X113296666Y-104549475D01*
X113299500Y-104575833D01*
X113299500Y-105375167D01*
X113279815Y-105442206D01*
X113227011Y-105487961D01*
X113157853Y-105497905D01*
X113094297Y-105468880D01*
X113087819Y-105462848D01*
X111836819Y-104211848D01*
X111803334Y-104150525D01*
X111800500Y-104124167D01*
X111800500Y-103705643D01*
X111820185Y-103638604D01*
X111842742Y-103612414D01*
X111875000Y-103584124D01*
X111875000Y-102674000D01*
X111894685Y-102606961D01*
X111947489Y-102561206D01*
X111999000Y-102550000D01*
X112001000Y-102550000D01*
X112068039Y-102569685D01*
G37*
%TD.AperFunction*%
%TA.AperFunction,Conductor*%
G36*
X110215449Y-97996454D02*
G01*
X110290301Y-98022646D01*
X110290300Y-98022646D01*
X110320730Y-98025500D01*
X110320734Y-98025500D01*
X111075500Y-98025500D01*
X111142539Y-98045185D01*
X111188294Y-98097989D01*
X111199500Y-98149500D01*
X111199500Y-98299203D01*
X111190060Y-98346658D01*
X111189758Y-98347385D01*
X111174500Y-98424094D01*
X111174500Y-99037949D01*
X111171400Y-99065504D01*
X111168592Y-99077822D01*
X111171666Y-99083451D01*
X111174500Y-99109807D01*
X111174500Y-99175898D01*
X111189760Y-99252618D01*
X111189762Y-99252622D01*
X111195096Y-99260605D01*
X111215973Y-99327283D01*
X111199207Y-99388393D01*
X111204490Y-99383648D01*
X111273460Y-99372472D01*
X111326894Y-99392402D01*
X111334883Y-99397740D01*
X111334885Y-99397740D01*
X111334886Y-99397741D01*
X111385797Y-99407867D01*
X111411599Y-99413000D01*
X111477690Y-99412999D01*
X111544728Y-99432683D01*
X111565371Y-99449318D01*
X112180266Y-100064213D01*
X112180267Y-100064213D01*
X112235822Y-99905447D01*
X112245507Y-99819487D01*
X112272573Y-99755073D01*
X112330168Y-99715517D01*
X112372159Y-99711614D01*
X112375000Y-99709124D01*
X112375000Y-98799000D01*
X112394685Y-98731961D01*
X112447489Y-98686206D01*
X112499000Y-98675000D01*
X112501000Y-98675000D01*
X112568039Y-98694685D01*
X112613794Y-98747489D01*
X112625000Y-98799000D01*
X112625000Y-99709124D01*
X112628955Y-99712592D01*
X112684122Y-99721196D01*
X112736377Y-99767576D01*
X112754491Y-99819486D01*
X112764175Y-99905438D01*
X112764176Y-99905443D01*
X112819732Y-100064213D01*
X112819732Y-100064214D01*
X113166337Y-99717609D01*
X113400000Y-99717609D01*
X113400000Y-99757391D01*
X113415224Y-99794145D01*
X113443355Y-99822276D01*
X113480109Y-99837500D01*
X113519891Y-99837500D01*
X113556645Y-99822276D01*
X113584776Y-99794145D01*
X113600000Y-99757391D01*
X113600000Y-99717609D01*
X113584776Y-99680855D01*
X113556645Y-99652724D01*
X113519891Y-99637500D01*
X113480109Y-99637500D01*
X113443355Y-99652724D01*
X113415224Y-99680855D01*
X113400000Y-99717609D01*
X113166337Y-99717609D01*
X113434628Y-99449318D01*
X113495951Y-99415833D01*
X113522305Y-99412999D01*
X113588400Y-99412999D01*
X113665117Y-99397740D01*
X113673101Y-99392404D01*
X113739778Y-99371526D01*
X113800893Y-99388290D01*
X113796146Y-99383005D01*
X113784972Y-99314034D01*
X113804903Y-99260603D01*
X113810240Y-99252617D01*
X113825500Y-99175901D01*
X113825499Y-99109806D01*
X113832929Y-99084503D01*
X113828599Y-99065504D01*
X113825499Y-99037956D01*
X113825499Y-98425832D01*
X113845184Y-98358794D01*
X113861818Y-98338152D01*
X113996860Y-98203111D01*
X114138152Y-98061819D01*
X114199475Y-98028334D01*
X114225833Y-98025500D01*
X114683492Y-98025500D01*
X114736700Y-98017071D01*
X114781602Y-98009960D01*
X114850894Y-98018914D01*
X114904347Y-98063910D01*
X114924987Y-98130661D01*
X114925000Y-98132431D01*
X114925000Y-98198306D01*
X114925001Y-98198323D01*
X114935144Y-98297607D01*
X114988452Y-98458481D01*
X114988457Y-98458492D01*
X115077424Y-98602728D01*
X115077427Y-98602732D01*
X115197266Y-98722571D01*
X115297840Y-98784606D01*
X115344564Y-98836554D01*
X115355787Y-98905517D01*
X115327943Y-98969599D01*
X115320426Y-98977825D01*
X115301473Y-98996778D01*
X115240279Y-99116878D01*
X115224500Y-99216506D01*
X115224500Y-99313000D01*
X115204815Y-99380039D01*
X115152011Y-99425794D01*
X115100500Y-99437000D01*
X114938297Y-99437000D01*
X114890842Y-99427560D01*
X114890114Y-99427258D01*
X114813404Y-99412000D01*
X114199549Y-99412000D01*
X114171994Y-99408900D01*
X114159674Y-99406092D01*
X114154043Y-99409167D01*
X114127691Y-99412000D01*
X114061601Y-99412000D01*
X113984881Y-99427260D01*
X113984875Y-99427263D01*
X113976891Y-99432598D01*
X113910213Y-99453473D01*
X113849107Y-99436707D01*
X113853850Y-99441987D01*
X113865028Y-99510957D01*
X113845097Y-99564395D01*
X113839761Y-99572381D01*
X113839758Y-99572387D01*
X113824500Y-99649094D01*
X113824500Y-99715190D01*
X113804815Y-99782229D01*
X113788181Y-99802871D01*
X113500000Y-100091053D01*
X113173285Y-100417766D01*
X113332056Y-100473324D01*
X113499996Y-100492246D01*
X113500004Y-100492246D01*
X113667941Y-100473324D01*
X113667949Y-100473322D01*
X113668851Y-100473007D01*
X113669470Y-100472975D01*
X113674739Y-100471773D01*
X113674949Y-100472695D01*
X113738629Y-100469438D01*
X113799260Y-100504161D01*
X113831493Y-100566151D01*
X113831434Y-100614235D01*
X113824500Y-100649094D01*
X113824500Y-100825898D01*
X113824501Y-100825901D01*
X113831417Y-100860673D01*
X113831436Y-100860765D01*
X113825207Y-100930356D01*
X113782344Y-100985533D01*
X113716454Y-101008777D01*
X113674825Y-101002847D01*
X113674739Y-101003227D01*
X113670167Y-101002183D01*
X113668871Y-101001999D01*
X113667956Y-101001679D01*
X113667941Y-101001675D01*
X113500004Y-100982754D01*
X113499996Y-100982754D01*
X113332058Y-101001675D01*
X113332053Y-101001676D01*
X113173285Y-101057232D01*
X113788181Y-101672128D01*
X113821666Y-101733451D01*
X113824500Y-101759807D01*
X113824500Y-101825898D01*
X113839760Y-101902618D01*
X113839762Y-101902622D01*
X113845096Y-101910605D01*
X113865973Y-101977283D01*
X113849207Y-102038393D01*
X113854490Y-102033648D01*
X113923460Y-102022472D01*
X113976894Y-102042402D01*
X113984883Y-102047740D01*
X113984885Y-102047740D01*
X113984886Y-102047741D01*
X114035797Y-102057867D01*
X114061599Y-102063000D01*
X114127690Y-102062999D01*
X114152994Y-102070429D01*
X114171994Y-102066099D01*
X114199544Y-102062999D01*
X114286666Y-102062999D01*
X114353705Y-102082684D01*
X114374347Y-102099318D01*
X114463181Y-102188152D01*
X114496666Y-102249475D01*
X114499500Y-102275833D01*
X114499500Y-103375167D01*
X114479815Y-103442206D01*
X114427011Y-103487961D01*
X114357853Y-103497905D01*
X114294297Y-103468880D01*
X114287819Y-103462848D01*
X113861818Y-103036847D01*
X113828333Y-102975524D01*
X113825499Y-102949166D01*
X113825499Y-102437049D01*
X113828599Y-102409494D01*
X113831406Y-102397176D01*
X113828333Y-102391548D01*
X113825499Y-102365190D01*
X113825499Y-102299102D01*
X113825499Y-102299100D01*
X113810240Y-102222383D01*
X113810239Y-102222381D01*
X113810237Y-102222376D01*
X113804904Y-102214395D01*
X113784026Y-102147718D01*
X113800791Y-102086606D01*
X113795508Y-102091352D01*
X113726538Y-102102527D01*
X113673105Y-102082597D01*
X113665117Y-102077260D01*
X113665114Y-102077259D01*
X113665112Y-102077258D01*
X113588404Y-102062000D01*
X113522309Y-102062000D01*
X113455270Y-102042315D01*
X113434628Y-102025681D01*
X113126556Y-101717609D01*
X113400000Y-101717609D01*
X113400000Y-101757391D01*
X113415224Y-101794145D01*
X113443355Y-101822276D01*
X113480109Y-101837500D01*
X113519891Y-101837500D01*
X113556645Y-101822276D01*
X113584776Y-101794145D01*
X113600000Y-101757391D01*
X113600000Y-101717609D01*
X113584776Y-101680855D01*
X113556645Y-101652724D01*
X113519891Y-101637500D01*
X113480109Y-101637500D01*
X113443355Y-101652724D01*
X113415224Y-101680855D01*
X113400000Y-101717609D01*
X113126556Y-101717609D01*
X112819732Y-101410785D01*
X112764176Y-101569553D01*
X112764175Y-101569558D01*
X112745254Y-101737496D01*
X112745254Y-101737503D01*
X112764175Y-101905441D01*
X112764179Y-101905456D01*
X112764497Y-101906365D01*
X112764528Y-101906988D01*
X112765727Y-101912239D01*
X112764807Y-101912448D01*
X112768058Y-101976144D01*
X112733328Y-102036770D01*
X112671334Y-102068996D01*
X112623260Y-102068934D01*
X112612111Y-102066716D01*
X112550201Y-102034329D01*
X112537930Y-102020585D01*
X112463681Y-101923821D01*
X112346175Y-101833656D01*
X112329212Y-101826630D01*
X112274809Y-101782789D01*
X112253445Y-101725952D01*
X112235824Y-101569556D01*
X112180266Y-101410785D01*
X111565370Y-102025681D01*
X111504047Y-102059166D01*
X111477691Y-102062000D01*
X111411601Y-102062000D01*
X111334881Y-102077260D01*
X111334875Y-102077263D01*
X111326891Y-102082598D01*
X111260213Y-102103473D01*
X111199107Y-102086707D01*
X111203850Y-102091987D01*
X111215028Y-102160957D01*
X111195097Y-102214395D01*
X111189761Y-102222381D01*
X111189758Y-102222387D01*
X111174500Y-102299094D01*
X111174500Y-102365190D01*
X111167069Y-102390494D01*
X111171400Y-102409494D01*
X111174500Y-102437049D01*
X111174500Y-103050897D01*
X111189759Y-103127613D01*
X111189760Y-103127617D01*
X111189761Y-103127619D01*
X111190059Y-103128336D01*
X111199500Y-103175795D01*
X111199500Y-103369659D01*
X111179815Y-103436698D01*
X111127011Y-103482453D01*
X111057853Y-103492397D01*
X111001867Y-103469430D01*
X110937882Y-103422207D01*
X110937880Y-103422206D01*
X110809700Y-103377353D01*
X110779270Y-103374500D01*
X110779266Y-103374500D01*
X110524500Y-103374500D01*
X110457461Y-103354815D01*
X110411706Y-103302011D01*
X110400500Y-103250500D01*
X110400500Y-102375832D01*
X110420185Y-102308793D01*
X110436815Y-102288155D01*
X110625652Y-102099317D01*
X110686975Y-102065833D01*
X110713333Y-102062999D01*
X110800429Y-102062999D01*
X110828053Y-102066115D01*
X110840303Y-102068914D01*
X110845972Y-102065822D01*
X110872280Y-102062999D01*
X110938398Y-102062999D01*
X110938400Y-102062999D01*
X111015117Y-102047740D01*
X111023101Y-102042404D01*
X111089778Y-102021526D01*
X111150893Y-102038290D01*
X111146146Y-102033005D01*
X111134972Y-101964034D01*
X111154903Y-101910603D01*
X111160240Y-101902617D01*
X111175500Y-101825901D01*
X111175499Y-101759807D01*
X111187890Y-101717609D01*
X111400000Y-101717609D01*
X111400000Y-101757391D01*
X111415224Y-101794145D01*
X111443355Y-101822276D01*
X111480109Y-101837500D01*
X111519891Y-101837500D01*
X111556645Y-101822276D01*
X111584776Y-101794145D01*
X111600000Y-101757391D01*
X111600000Y-101717609D01*
X111584776Y-101680855D01*
X111556645Y-101652724D01*
X111519891Y-101637500D01*
X111480109Y-101637500D01*
X111443355Y-101652724D01*
X111415224Y-101680855D01*
X111400000Y-101717609D01*
X111187890Y-101717609D01*
X111195183Y-101692770D01*
X111211818Y-101672126D01*
X111500000Y-101383946D01*
X111826714Y-101057232D01*
X111667943Y-101001676D01*
X111667938Y-101001675D01*
X111500004Y-100982754D01*
X111499996Y-100982754D01*
X111332058Y-101001675D01*
X111332043Y-101001679D01*
X111331129Y-101001999D01*
X111330501Y-101002030D01*
X111325261Y-101003227D01*
X111325051Y-101002308D01*
X111261350Y-101005557D01*
X111200725Y-100970824D01*
X111168502Y-100908829D01*
X111168564Y-100860765D01*
X111175500Y-100825901D01*
X111175499Y-100649100D01*
X111168564Y-100614234D01*
X111174791Y-100544645D01*
X111217653Y-100489467D01*
X111283543Y-100466222D01*
X111325174Y-100472153D01*
X111325261Y-100471773D01*
X111329842Y-100472818D01*
X111331137Y-100473003D01*
X111332049Y-100473322D01*
X111332058Y-100473324D01*
X111499996Y-100492246D01*
X111500004Y-100492246D01*
X111667943Y-100473324D01*
X111826713Y-100417767D01*
X111826713Y-100417766D01*
X111211818Y-99802871D01*
X111178333Y-99741548D01*
X111175759Y-99717609D01*
X111400000Y-99717609D01*
X111400000Y-99757391D01*
X111415224Y-99794145D01*
X111443355Y-99822276D01*
X111480109Y-99837500D01*
X111519891Y-99837500D01*
X111556645Y-99822276D01*
X111584776Y-99794145D01*
X111600000Y-99757391D01*
X111600000Y-99717609D01*
X111584776Y-99680855D01*
X111556645Y-99652724D01*
X111519891Y-99637500D01*
X111480109Y-99637500D01*
X111443355Y-99652724D01*
X111415224Y-99680855D01*
X111400000Y-99717609D01*
X111175759Y-99717609D01*
X111175499Y-99715190D01*
X111175499Y-99649102D01*
X111175499Y-99649100D01*
X111160240Y-99572383D01*
X111160239Y-99572381D01*
X111160237Y-99572376D01*
X111154904Y-99564395D01*
X111134026Y-99497718D01*
X111150791Y-99436606D01*
X111145508Y-99441352D01*
X111076538Y-99452527D01*
X111023105Y-99432597D01*
X111015117Y-99427260D01*
X111015114Y-99427259D01*
X111015112Y-99427258D01*
X110938404Y-99412000D01*
X110938401Y-99412000D01*
X110872309Y-99412000D01*
X110846984Y-99404563D01*
X110828034Y-99408890D01*
X110800435Y-99412000D01*
X110713333Y-99412000D01*
X110646294Y-99392315D01*
X110625652Y-99375681D01*
X110086819Y-98836848D01*
X110053334Y-98775525D01*
X110050500Y-98749167D01*
X110050500Y-98113497D01*
X110070185Y-98046458D01*
X110122989Y-98000703D01*
X110192147Y-97990759D01*
X110215449Y-97996454D01*
G37*
%TD.AperFunction*%
%TA.AperFunction,Conductor*%
G36*
X100988039Y-77945185D02*
G01*
X101033794Y-77997989D01*
X101045000Y-78049500D01*
X101045000Y-78200000D01*
X101744999Y-78200000D01*
X101744999Y-78151692D01*
X101744998Y-78151674D01*
X101735848Y-78062101D01*
X101748618Y-77993408D01*
X101796499Y-77942524D01*
X101859206Y-77925500D01*
X103794498Y-77925500D01*
X103861537Y-77945185D01*
X103907292Y-77997989D01*
X103917236Y-78067147D01*
X103905498Y-78104772D01*
X103875771Y-78164470D01*
X103875768Y-78164476D01*
X103814885Y-78378461D01*
X103814884Y-78378464D01*
X103794357Y-78599999D01*
X103794357Y-78600000D01*
X103814192Y-78814059D01*
X103800777Y-78882629D01*
X103752420Y-78933060D01*
X103690721Y-78949500D01*
X101861760Y-78949500D01*
X101794721Y-78929815D01*
X101748966Y-78877011D01*
X101738402Y-78812897D01*
X101744999Y-78748322D01*
X101745000Y-78748309D01*
X101745000Y-78700000D01*
X100669000Y-78700000D01*
X100601961Y-78680315D01*
X100556206Y-78627511D01*
X100545000Y-78576000D01*
X100545000Y-78049500D01*
X100564685Y-77982461D01*
X100617489Y-77936706D01*
X100669000Y-77925500D01*
X100921000Y-77925500D01*
X100988039Y-77945185D01*
G37*
%TD.AperFunction*%
%TA.AperFunction,Conductor*%
G36*
X100984027Y-70520319D02*
G01*
X100988954Y-70520517D01*
X101968919Y-70579794D01*
X101973860Y-70580193D01*
X102950617Y-70678879D01*
X102955551Y-70679478D01*
X103927534Y-70817412D01*
X103932431Y-70818208D01*
X104898078Y-70995170D01*
X104902963Y-70996167D01*
X105860684Y-71211863D01*
X105865511Y-71213053D01*
X106813819Y-71467152D01*
X106818568Y-71468528D01*
X107755844Y-71760594D01*
X107760506Y-71762150D01*
X108685317Y-72091741D01*
X108689942Y-72093496D01*
X109600690Y-72460040D01*
X109605229Y-72461973D01*
X110500476Y-72864891D01*
X110504979Y-72867028D01*
X111383264Y-73305661D01*
X111387664Y-73307970D01*
X112247571Y-73781611D01*
X112251876Y-73784096D01*
X113092031Y-74291986D01*
X113096200Y-74294623D01*
X113915219Y-74835930D01*
X113919320Y-74838760D01*
X114715881Y-75412608D01*
X114719834Y-75415579D01*
X115306240Y-75874999D01*
X115492642Y-76021036D01*
X115496510Y-76024195D01*
X116244250Y-76660225D01*
X116247989Y-76663536D01*
X116969580Y-77329222D01*
X116973181Y-77332682D01*
X117667317Y-78026818D01*
X117670777Y-78030419D01*
X118336463Y-78752010D01*
X118339774Y-78755749D01*
X118975804Y-79503489D01*
X118978963Y-79507357D01*
X119584403Y-80280143D01*
X119587403Y-80284135D01*
X120161232Y-81080670D01*
X120164069Y-81084780D01*
X120687260Y-81876388D01*
X120705360Y-81903773D01*
X120708021Y-81907982D01*
X120965971Y-82334683D01*
X121215897Y-82748113D01*
X121218394Y-82752438D01*
X121692023Y-83612324D01*
X121694344Y-83616746D01*
X122132967Y-84495011D01*
X122135108Y-84499523D01*
X122538014Y-85394743D01*
X122539971Y-85399337D01*
X122906498Y-86310043D01*
X122908267Y-86314709D01*
X123187954Y-87099490D01*
X123237834Y-87239448D01*
X123239415Y-87244186D01*
X123531464Y-88181408D01*
X123532854Y-88186204D01*
X123546073Y-88235538D01*
X123751044Y-89000500D01*
X123759326Y-89031406D01*
X123757663Y-89101256D01*
X123718501Y-89159119D01*
X123654272Y-89186623D01*
X123639551Y-89187500D01*
X122218247Y-89187500D01*
X122159770Y-89199131D01*
X122159769Y-89199132D01*
X122093447Y-89243447D01*
X122049132Y-89309769D01*
X122049131Y-89309770D01*
X122037500Y-89368247D01*
X122037500Y-90931752D01*
X122049131Y-90990229D01*
X122049132Y-90990230D01*
X122059742Y-91006109D01*
X122080620Y-91072787D01*
X122062135Y-91140167D01*
X122059742Y-91143891D01*
X122049132Y-91159769D01*
X122049131Y-91159770D01*
X122037500Y-91218247D01*
X122037500Y-92781752D01*
X122049131Y-92840229D01*
X122049132Y-92840230D01*
X122059742Y-92856109D01*
X122080620Y-92922787D01*
X122062135Y-92990167D01*
X122059742Y-92993891D01*
X122049132Y-93009769D01*
X122049131Y-93009770D01*
X122037500Y-93068247D01*
X122037500Y-94631752D01*
X122049131Y-94690229D01*
X122049132Y-94690230D01*
X122093447Y-94756552D01*
X122159769Y-94800867D01*
X122159770Y-94800868D01*
X122218247Y-94812499D01*
X122218250Y-94812500D01*
X122218252Y-94812500D01*
X123781750Y-94812500D01*
X123781751Y-94812499D01*
X123796568Y-94809552D01*
X123840229Y-94800868D01*
X123840229Y-94800867D01*
X123840231Y-94800867D01*
X123906552Y-94756552D01*
X123950867Y-94690231D01*
X123950867Y-94690229D01*
X123950868Y-94690229D01*
X123962499Y-94631752D01*
X123962500Y-94631750D01*
X123962500Y-93068249D01*
X123962499Y-93068247D01*
X123950868Y-93009770D01*
X123950867Y-93009768D01*
X123940259Y-92993893D01*
X123919379Y-92927216D01*
X123937862Y-92859836D01*
X123940259Y-92856107D01*
X123950867Y-92840231D01*
X123950868Y-92840229D01*
X123962499Y-92781752D01*
X123962500Y-92781750D01*
X123962500Y-91277912D01*
X123982185Y-91210873D01*
X124034989Y-91165118D01*
X124104147Y-91155174D01*
X124167703Y-91184199D01*
X124205477Y-91242977D01*
X124209270Y-91260490D01*
X124320519Y-92044436D01*
X124321121Y-92049393D01*
X124419804Y-93026120D01*
X124420206Y-93031098D01*
X124479480Y-94011014D01*
X124479681Y-94016004D01*
X124499449Y-94997503D01*
X124499449Y-95002497D01*
X124479681Y-95983995D01*
X124479480Y-95988985D01*
X124420206Y-96968901D01*
X124419804Y-96973879D01*
X124321121Y-97950606D01*
X124320519Y-97955563D01*
X124182589Y-98927518D01*
X124181788Y-98932448D01*
X124004830Y-99898074D01*
X124003831Y-99902967D01*
X123788138Y-100860673D01*
X123786943Y-100865522D01*
X123532854Y-101813795D01*
X123531464Y-101818591D01*
X123239415Y-102755813D01*
X123237834Y-102760551D01*
X122908269Y-103685287D01*
X122906498Y-103689956D01*
X122539971Y-104600662D01*
X122538014Y-104605256D01*
X122135108Y-105500476D01*
X122132967Y-105504988D01*
X121694344Y-106383253D01*
X121692023Y-106387675D01*
X121218394Y-107247561D01*
X121215897Y-107251886D01*
X120708029Y-108092005D01*
X120705360Y-108096226D01*
X120164069Y-108915219D01*
X120161232Y-108919329D01*
X119587405Y-109715862D01*
X119584405Y-109719854D01*
X118978963Y-110492642D01*
X118975804Y-110496510D01*
X118339774Y-111244250D01*
X118336463Y-111247989D01*
X117670777Y-111969580D01*
X117667317Y-111973181D01*
X116973181Y-112667317D01*
X116969580Y-112670777D01*
X116247989Y-113336463D01*
X116244250Y-113339774D01*
X115496510Y-113975804D01*
X115492642Y-113978963D01*
X114719854Y-114584405D01*
X114715862Y-114587405D01*
X113919329Y-115161232D01*
X113915219Y-115164069D01*
X113096226Y-115705360D01*
X113092005Y-115708029D01*
X112251886Y-116215897D01*
X112247561Y-116218394D01*
X111387675Y-116692023D01*
X111383253Y-116694344D01*
X110504988Y-117132967D01*
X110500476Y-117135108D01*
X109605256Y-117538014D01*
X109600662Y-117539971D01*
X108689956Y-117906498D01*
X108685287Y-117908269D01*
X107760551Y-118237834D01*
X107755813Y-118239415D01*
X106818591Y-118531464D01*
X106813795Y-118532854D01*
X105865522Y-118786943D01*
X105860673Y-118788138D01*
X104902967Y-119003831D01*
X104898074Y-119004830D01*
X103932448Y-119181788D01*
X103927518Y-119182589D01*
X102955563Y-119320519D01*
X102950606Y-119321121D01*
X101973879Y-119419804D01*
X101968901Y-119420206D01*
X100988985Y-119479480D01*
X100983995Y-119479681D01*
X100002497Y-119499449D01*
X99997503Y-119499449D01*
X99016004Y-119479681D01*
X99011014Y-119479480D01*
X98031098Y-119420206D01*
X98026120Y-119419804D01*
X97049393Y-119321121D01*
X97044436Y-119320519D01*
X96072481Y-119182589D01*
X96067551Y-119181788D01*
X95101925Y-119004830D01*
X95097032Y-119003831D01*
X94139326Y-118788138D01*
X94134477Y-118786943D01*
X93186204Y-118532854D01*
X93181408Y-118531464D01*
X92244186Y-118239415D01*
X92239464Y-118237839D01*
X91314709Y-117908267D01*
X91310043Y-117906498D01*
X90399337Y-117539971D01*
X90394743Y-117538014D01*
X89499523Y-117135108D01*
X89495011Y-117132967D01*
X88616746Y-116694344D01*
X88612324Y-116692023D01*
X87752438Y-116218394D01*
X87748113Y-116215897D01*
X87494922Y-116062838D01*
X86907982Y-115708021D01*
X86903786Y-115705368D01*
X86084780Y-115164069D01*
X86080670Y-115161232D01*
X85284137Y-114587405D01*
X85280157Y-114584414D01*
X84507357Y-113978963D01*
X84503489Y-113975804D01*
X83755749Y-113339774D01*
X83752010Y-113336463D01*
X83030419Y-112670777D01*
X83026818Y-112667317D01*
X82332682Y-111973181D01*
X82329222Y-111969580D01*
X81663536Y-111247989D01*
X81660225Y-111244250D01*
X81024195Y-110496510D01*
X81021036Y-110492642D01*
X80880481Y-110313237D01*
X80415579Y-109719834D01*
X80412608Y-109715881D01*
X80278698Y-109530000D01*
X89195496Y-109530000D01*
X89237968Y-109676195D01*
X89320278Y-109815374D01*
X89320285Y-109815383D01*
X89434616Y-109929714D01*
X89434625Y-109929721D01*
X89573804Y-110012031D01*
X89729089Y-110057145D01*
X89750000Y-110058789D01*
X90250000Y-110058789D01*
X90270910Y-110057145D01*
X90426195Y-110012031D01*
X90565374Y-109929721D01*
X90565383Y-109929714D01*
X90679714Y-109815383D01*
X90679721Y-109815374D01*
X90762031Y-109676195D01*
X90804504Y-109530000D01*
X90250000Y-109530000D01*
X90250000Y-110058789D01*
X89750000Y-110058789D01*
X89750000Y-109530000D01*
X89195496Y-109530000D01*
X80278698Y-109530000D01*
X79838760Y-108919320D01*
X79835930Y-108915219D01*
X79826202Y-108900500D01*
X79294623Y-108096200D01*
X79291986Y-108092031D01*
X78784096Y-107251876D01*
X78781605Y-107247561D01*
X78779674Y-107244056D01*
X78307970Y-106387664D01*
X78305655Y-106383253D01*
X78297710Y-106367345D01*
X77867028Y-105504979D01*
X77864891Y-105500476D01*
X77863734Y-105497905D01*
X77461973Y-104605229D01*
X77460040Y-104600690D01*
X77093496Y-103689942D01*
X77091741Y-103685317D01*
X76762150Y-102760506D01*
X76760594Y-102755844D01*
X76468528Y-101818568D01*
X76467152Y-101813819D01*
X76436654Y-101700000D01*
X84700000Y-101700000D01*
X84700000Y-107900000D01*
X88453853Y-107900000D01*
X88520892Y-107919685D01*
X88529851Y-107926019D01*
X88534620Y-107929718D01*
X88673804Y-108012031D01*
X88829089Y-108057145D01*
X88850000Y-108058789D01*
X88850000Y-108024000D01*
X88869685Y-107956961D01*
X88922489Y-107911206D01*
X88974000Y-107900000D01*
X89226000Y-107900000D01*
X89293039Y-107919685D01*
X89338794Y-107972489D01*
X89350000Y-108024000D01*
X89350000Y-108058789D01*
X89355775Y-108058335D01*
X89424152Y-108072701D01*
X89473907Y-108121754D01*
X89489500Y-108181953D01*
X89489500Y-108499896D01*
X89489501Y-108499900D01*
X89490768Y-108509528D01*
X89490770Y-108509538D01*
X89480001Y-108578573D01*
X89439650Y-108624032D01*
X89440788Y-108625499D01*
X89434621Y-108630282D01*
X89320282Y-108744620D01*
X89320278Y-108744625D01*
X89237968Y-108883804D01*
X89195496Y-109030000D01*
X90804504Y-109030000D01*
X90762031Y-108883804D01*
X90679721Y-108744625D01*
X90679714Y-108744616D01*
X90565381Y-108630283D01*
X90559217Y-108625502D01*
X90560733Y-108623547D01*
X90521363Y-108581378D01*
X90508862Y-108512635D01*
X90509231Y-108509538D01*
X90510500Y-108499901D01*
X90510499Y-108140100D01*
X90503972Y-108090513D01*
X90453224Y-107981684D01*
X90368316Y-107896776D01*
X90368314Y-107896774D01*
X90359427Y-107890551D01*
X90360797Y-107888593D01*
X90319647Y-107852351D01*
X90300500Y-107786155D01*
X90300500Y-107775833D01*
X90320185Y-107708794D01*
X90336819Y-107688152D01*
X90638152Y-107386819D01*
X90699475Y-107353334D01*
X90725833Y-107350500D01*
X90975500Y-107350500D01*
X91042539Y-107370185D01*
X91088294Y-107422989D01*
X91099500Y-107474499D01*
X91099500Y-107652129D01*
X91115486Y-107732498D01*
X91120159Y-107743780D01*
X91118714Y-107744378D01*
X91135436Y-107797788D01*
X91119482Y-107855938D01*
X91120159Y-107856219D01*
X91117926Y-107861609D01*
X91116950Y-107865168D01*
X91115550Y-107867345D01*
X91115484Y-107867505D01*
X91099500Y-107947863D01*
X91099500Y-108152129D01*
X91115486Y-108232498D01*
X91120159Y-108243780D01*
X91118714Y-108244378D01*
X91135436Y-108297788D01*
X91119482Y-108355938D01*
X91120159Y-108356219D01*
X91117926Y-108361609D01*
X91116950Y-108365168D01*
X91115550Y-108367345D01*
X91115484Y-108367505D01*
X91099500Y-108447863D01*
X91099500Y-108652129D01*
X91115485Y-108732495D01*
X91176375Y-108823624D01*
X91212876Y-108848013D01*
X91267505Y-108884515D01*
X91267508Y-108884515D01*
X91267509Y-108884516D01*
X91294533Y-108889891D01*
X91347867Y-108900500D01*
X91911666Y-108900499D01*
X91978705Y-108920183D01*
X91999347Y-108936818D01*
X92663181Y-109600652D01*
X92696666Y-109661975D01*
X92699500Y-109688333D01*
X92699500Y-111989161D01*
X92679815Y-112056200D01*
X92627011Y-112101955D01*
X92557853Y-112111899D01*
X92543408Y-112108936D01*
X92508192Y-112099500D01*
X92508190Y-112099500D01*
X92458501Y-112099500D01*
X92391462Y-112079815D01*
X92364788Y-112056703D01*
X92364352Y-112056200D01*
X92331128Y-112017857D01*
X92210053Y-111940047D01*
X92210051Y-111940046D01*
X92210049Y-111940045D01*
X92210050Y-111940045D01*
X92071963Y-111899500D01*
X92071961Y-111899500D01*
X91928039Y-111899500D01*
X91928036Y-111899500D01*
X91789949Y-111940045D01*
X91668873Y-112017856D01*
X91574623Y-112126626D01*
X91574622Y-112126628D01*
X91514834Y-112257543D01*
X91494353Y-112400000D01*
X91514834Y-112542456D01*
X91521866Y-112557853D01*
X91574623Y-112673373D01*
X91668872Y-112782143D01*
X91789947Y-112859953D01*
X91789950Y-112859954D01*
X91789949Y-112859954D01*
X91884851Y-112887819D01*
X91924633Y-112899500D01*
X91928036Y-112900499D01*
X91928038Y-112900500D01*
X91928039Y-112900500D01*
X92071962Y-112900500D01*
X92071962Y-112900499D01*
X92179121Y-112869035D01*
X92210050Y-112859954D01*
X92210051Y-112859954D01*
X92210053Y-112859953D01*
X92304699Y-112799127D01*
X92371738Y-112779443D01*
X92438777Y-112799127D01*
X92459419Y-112815762D01*
X94828168Y-115184511D01*
X94884117Y-115240460D01*
X94884119Y-115240461D01*
X94884123Y-115240464D01*
X94952632Y-115280017D01*
X94952639Y-115280021D01*
X95029066Y-115300500D01*
X95029068Y-115300500D01*
X110639560Y-115300500D01*
X110639562Y-115300500D01*
X110715989Y-115280021D01*
X110784511Y-115240460D01*
X110840460Y-115184511D01*
X116440460Y-109584511D01*
X116442113Y-109581648D01*
X116459194Y-109552064D01*
X116459194Y-109552062D01*
X116480021Y-109515989D01*
X116500500Y-109439562D01*
X116500500Y-101402180D01*
X116480021Y-101325753D01*
X116474198Y-101315667D01*
X116440464Y-101257237D01*
X116440458Y-101257229D01*
X115520107Y-100336878D01*
X115486622Y-100275555D01*
X115491606Y-100205863D01*
X115533478Y-100149930D01*
X115598942Y-100125513D01*
X115611640Y-100125558D01*
X115611640Y-100125500D01*
X116183493Y-100125500D01*
X116283121Y-100109720D01*
X116283121Y-100109719D01*
X116283126Y-100109719D01*
X116403220Y-100048528D01*
X116498528Y-99953220D01*
X116559719Y-99833126D01*
X116559720Y-99833121D01*
X116575500Y-99733493D01*
X116575500Y-99216506D01*
X116559720Y-99116878D01*
X116559719Y-99116876D01*
X116559719Y-99116874D01*
X116498528Y-98996780D01*
X116498526Y-98996778D01*
X116498523Y-98996774D01*
X116479575Y-98977826D01*
X116446090Y-98916503D01*
X116451074Y-98846811D01*
X116492946Y-98790878D01*
X116502160Y-98784606D01*
X116602731Y-98722573D01*
X116722572Y-98602732D01*
X116722575Y-98602728D01*
X116811542Y-98458492D01*
X116811547Y-98458481D01*
X116864855Y-98297606D01*
X116874999Y-98198322D01*
X116875000Y-98198309D01*
X116875000Y-98175000D01*
X115774000Y-98175000D01*
X115706961Y-98155315D01*
X115661206Y-98102511D01*
X115650000Y-98051000D01*
X115650000Y-97675000D01*
X116150000Y-97675000D01*
X116874999Y-97675000D01*
X116874999Y-97651692D01*
X116874998Y-97651677D01*
X116864855Y-97552392D01*
X116811547Y-97391518D01*
X116811542Y-97391507D01*
X116722575Y-97247271D01*
X116722572Y-97247267D01*
X116602732Y-97127427D01*
X116602728Y-97127424D01*
X116458492Y-97038457D01*
X116458481Y-97038452D01*
X116297606Y-96985144D01*
X116198322Y-96975000D01*
X116150000Y-96975000D01*
X116150000Y-97675000D01*
X115650000Y-97675000D01*
X115650000Y-96975000D01*
X115649999Y-96974999D01*
X115601693Y-96975000D01*
X115601675Y-96975001D01*
X115502392Y-96985144D01*
X115341518Y-97038452D01*
X115341513Y-97038454D01*
X115246360Y-97097146D01*
X115178967Y-97115586D01*
X115112304Y-97094663D01*
X115067534Y-97041021D01*
X115063164Y-97026021D01*
X115062737Y-97026160D01*
X115059721Y-97016880D01*
X115059719Y-97016877D01*
X115059719Y-97016874D01*
X114998528Y-96896780D01*
X114998525Y-96896777D01*
X114998523Y-96896774D01*
X114979575Y-96877826D01*
X114946090Y-96816503D01*
X114951074Y-96746811D01*
X114992946Y-96690878D01*
X115002160Y-96684606D01*
X115102731Y-96622573D01*
X115222572Y-96502732D01*
X115222575Y-96502728D01*
X115311542Y-96358492D01*
X115311547Y-96358481D01*
X115364855Y-96197606D01*
X115374999Y-96098322D01*
X115375000Y-96098309D01*
X115375000Y-96075000D01*
X114274000Y-96075000D01*
X114206961Y-96055315D01*
X114161206Y-96002511D01*
X114150000Y-95951000D01*
X114150000Y-94875000D01*
X114650000Y-94875000D01*
X114650000Y-95575000D01*
X115374999Y-95575000D01*
X115374999Y-95551692D01*
X115374998Y-95551677D01*
X115364855Y-95452392D01*
X115311547Y-95291518D01*
X115311542Y-95291507D01*
X115222575Y-95147271D01*
X115222572Y-95147267D01*
X115099486Y-95024181D01*
X115066001Y-94962858D01*
X115070985Y-94893166D01*
X115112857Y-94837233D01*
X115178321Y-94812816D01*
X115187167Y-94812500D01*
X116671750Y-94812500D01*
X116671751Y-94812499D01*
X116686568Y-94809552D01*
X116730229Y-94800868D01*
X116730229Y-94800867D01*
X116730231Y-94800867D01*
X116796552Y-94756552D01*
X116840867Y-94690231D01*
X116840867Y-94690229D01*
X116840868Y-94690229D01*
X116852499Y-94631752D01*
X116852500Y-94631750D01*
X116852500Y-93295247D01*
X117719500Y-93295247D01*
X117719500Y-95934752D01*
X117731131Y-95993229D01*
X117731132Y-95993230D01*
X117775447Y-96059552D01*
X117841769Y-96103867D01*
X117841770Y-96103868D01*
X117900247Y-96115499D01*
X117900250Y-96115500D01*
X117900252Y-96115500D01*
X120989750Y-96115500D01*
X120989751Y-96115499D01*
X121004568Y-96112552D01*
X121048229Y-96103868D01*
X121048229Y-96103867D01*
X121048231Y-96103867D01*
X121114552Y-96059552D01*
X121158867Y-95993231D01*
X121158867Y-95993229D01*
X121158868Y-95993229D01*
X121170028Y-95937119D01*
X121170500Y-95934748D01*
X121170500Y-93295252D01*
X121170500Y-93295249D01*
X121170499Y-93295247D01*
X121158868Y-93236770D01*
X121158867Y-93236769D01*
X121114552Y-93170447D01*
X121048230Y-93126132D01*
X121048229Y-93126131D01*
X120989752Y-93114500D01*
X120989748Y-93114500D01*
X117900252Y-93114500D01*
X117900247Y-93114500D01*
X117841770Y-93126131D01*
X117841769Y-93126132D01*
X117775447Y-93170447D01*
X117731132Y-93236769D01*
X117731131Y-93236770D01*
X117719500Y-93295247D01*
X116852500Y-93295247D01*
X116852500Y-93068249D01*
X116852499Y-93068247D01*
X116840868Y-93009770D01*
X116840867Y-93009769D01*
X116796552Y-92943447D01*
X116730230Y-92899132D01*
X116730229Y-92899131D01*
X116671752Y-92887500D01*
X116671748Y-92887500D01*
X115108252Y-92887500D01*
X115108247Y-92887500D01*
X115049770Y-92899131D01*
X115049769Y-92899132D01*
X114983447Y-92943447D01*
X114939132Y-93009769D01*
X114939131Y-93009770D01*
X114927500Y-93068247D01*
X114927500Y-94631752D01*
X114939131Y-94690229D01*
X114939133Y-94690232D01*
X114946105Y-94700667D01*
X114966982Y-94767345D01*
X114948496Y-94834724D01*
X114896517Y-94881414D01*
X114827547Y-94892589D01*
X114803996Y-94887261D01*
X114797607Y-94885144D01*
X114797608Y-94885144D01*
X114698322Y-94875000D01*
X114650000Y-94875000D01*
X114150000Y-94875000D01*
X114149999Y-94874999D01*
X114101693Y-94875000D01*
X114101675Y-94875001D01*
X114002392Y-94885144D01*
X113841518Y-94938452D01*
X113841507Y-94938457D01*
X113697271Y-95027424D01*
X113697267Y-95027427D01*
X113577427Y-95147267D01*
X113577424Y-95147271D01*
X113546864Y-95196817D01*
X113494916Y-95243542D01*
X113425954Y-95254763D01*
X113385034Y-95242206D01*
X113283126Y-95190281D01*
X113283124Y-95190280D01*
X113283121Y-95190279D01*
X113183493Y-95174500D01*
X113183488Y-95174500D01*
X112616512Y-95174500D01*
X112616507Y-95174500D01*
X112516877Y-95190279D01*
X112438734Y-95230094D01*
X112370064Y-95242989D01*
X112305324Y-95216711D01*
X112294760Y-95207289D01*
X112062813Y-94975342D01*
X112029328Y-94914019D01*
X112033453Y-94846706D01*
X112037484Y-94835188D01*
X112049493Y-94800867D01*
X112072646Y-94734701D01*
X112072646Y-94734699D01*
X112075500Y-94704269D01*
X112075500Y-93970730D01*
X112072646Y-93940300D01*
X112072646Y-93940298D01*
X112039006Y-93844163D01*
X112027793Y-93812118D01*
X111947150Y-93702850D01*
X111837882Y-93622207D01*
X111837880Y-93622206D01*
X111709700Y-93577353D01*
X111679270Y-93574500D01*
X111679266Y-93574500D01*
X110320734Y-93574500D01*
X110320730Y-93574500D01*
X110290300Y-93577353D01*
X110290298Y-93577353D01*
X110162119Y-93622206D01*
X110162117Y-93622207D01*
X110052850Y-93702850D01*
X109972207Y-93812117D01*
X109972206Y-93812119D01*
X109927353Y-93940298D01*
X109927353Y-93940300D01*
X109924500Y-93970730D01*
X109924500Y-94704269D01*
X109927353Y-94734699D01*
X109927353Y-94734701D01*
X109971942Y-94862125D01*
X109972207Y-94862882D01*
X110052850Y-94972150D01*
X110162118Y-95052793D01*
X110181620Y-95059617D01*
X110290299Y-95097646D01*
X110320730Y-95100500D01*
X110320734Y-95100500D01*
X111286667Y-95100500D01*
X111353706Y-95120185D01*
X111374348Y-95136819D01*
X112188181Y-95950652D01*
X112221666Y-96011975D01*
X112224500Y-96038333D01*
X112224500Y-96083493D01*
X112240279Y-96183121D01*
X112240280Y-96183124D01*
X112240281Y-96183126D01*
X112298490Y-96297367D01*
X112301473Y-96303221D01*
X112301476Y-96303225D01*
X112396774Y-96398523D01*
X112396778Y-96398526D01*
X112396780Y-96398528D01*
X112516874Y-96459719D01*
X112516876Y-96459719D01*
X112516878Y-96459720D01*
X112616507Y-96475500D01*
X112616512Y-96475500D01*
X113183493Y-96475500D01*
X113283122Y-96459720D01*
X113283123Y-96459719D01*
X113283126Y-96459719D01*
X113385033Y-96407794D01*
X113453700Y-96394898D01*
X113518440Y-96421174D01*
X113546865Y-96453182D01*
X113577428Y-96502733D01*
X113697266Y-96622571D01*
X113797840Y-96684606D01*
X113844564Y-96736554D01*
X113855787Y-96805517D01*
X113827943Y-96869599D01*
X113820426Y-96877825D01*
X113801474Y-96896777D01*
X113801473Y-96896779D01*
X113801472Y-96896780D01*
X113760485Y-96977222D01*
X113712510Y-97028018D01*
X113644689Y-97044813D01*
X113578554Y-97022275D01*
X113539515Y-96977222D01*
X113498528Y-96896780D01*
X113498524Y-96896776D01*
X113498523Y-96896774D01*
X113403225Y-96801476D01*
X113403221Y-96801473D01*
X113403220Y-96801472D01*
X113283126Y-96740281D01*
X113283124Y-96740280D01*
X113283121Y-96740279D01*
X113183493Y-96724500D01*
X113183488Y-96724500D01*
X112616512Y-96724500D01*
X112616507Y-96724500D01*
X112516878Y-96740279D01*
X112516874Y-96740280D01*
X112516874Y-96740281D01*
X112466769Y-96765811D01*
X112396778Y-96801473D01*
X112396774Y-96801476D01*
X112301476Y-96896774D01*
X112295739Y-96904672D01*
X112293600Y-96903118D01*
X112255690Y-96943244D01*
X112187866Y-96960026D01*
X112121735Y-96937476D01*
X112078294Y-96882752D01*
X112074775Y-96871383D01*
X112031323Y-96747206D01*
X112027793Y-96737118D01*
X111947150Y-96627850D01*
X111837882Y-96547207D01*
X111837880Y-96547206D01*
X111709700Y-96502353D01*
X111679270Y-96499500D01*
X111679266Y-96499500D01*
X110320734Y-96499500D01*
X110320730Y-96499500D01*
X110290300Y-96502353D01*
X110290298Y-96502353D01*
X110162119Y-96547206D01*
X110162117Y-96547207D01*
X110052848Y-96627851D01*
X110038900Y-96646750D01*
X109983251Y-96689000D01*
X109913595Y-96694456D01*
X109852047Y-96661387D01*
X109851451Y-96660795D01*
X109684511Y-96493855D01*
X109008378Y-95817720D01*
X109008355Y-95817699D01*
X107111819Y-93921163D01*
X107078334Y-93859840D01*
X107075500Y-93833482D01*
X107075500Y-93170730D01*
X107072646Y-93140300D01*
X107072646Y-93140298D01*
X107027793Y-93012119D01*
X107027792Y-93012117D01*
X107026059Y-93009769D01*
X106947150Y-92902850D01*
X106837882Y-92822207D01*
X106837880Y-92822206D01*
X106709700Y-92777353D01*
X106679270Y-92774500D01*
X106679266Y-92774500D01*
X105320734Y-92774500D01*
X105320730Y-92774500D01*
X105290300Y-92777353D01*
X105290298Y-92777353D01*
X105162119Y-92822206D01*
X105162117Y-92822207D01*
X105052850Y-92902850D01*
X104972207Y-93012117D01*
X104972206Y-93012119D01*
X104927353Y-93140298D01*
X104927353Y-93140300D01*
X104924500Y-93170730D01*
X104924500Y-93904269D01*
X104927353Y-93934699D01*
X104927353Y-93934701D01*
X104971709Y-94061459D01*
X104972207Y-94062882D01*
X105052850Y-94172150D01*
X105162118Y-94252793D01*
X105204845Y-94267744D01*
X105290299Y-94297646D01*
X105320730Y-94300500D01*
X105320734Y-94300500D01*
X106589852Y-94300500D01*
X106656891Y-94320185D01*
X106677533Y-94336819D01*
X108291033Y-95950319D01*
X108324518Y-96011642D01*
X108319534Y-96081334D01*
X108277662Y-96137267D01*
X108212198Y-96161684D01*
X108203352Y-96162000D01*
X107193607Y-96162000D01*
X107126568Y-96142315D01*
X107080813Y-96089511D01*
X107074669Y-96071082D01*
X107042281Y-95978523D01*
X107027793Y-95937118D01*
X106947150Y-95827850D01*
X106837882Y-95747207D01*
X106837880Y-95747206D01*
X106709700Y-95702353D01*
X106679270Y-95699500D01*
X106679266Y-95699500D01*
X105320734Y-95699500D01*
X105320730Y-95699500D01*
X105290300Y-95702353D01*
X105290298Y-95702353D01*
X105162119Y-95747206D01*
X105162117Y-95747207D01*
X105052850Y-95827850D01*
X104972207Y-95937117D01*
X104972206Y-95937119D01*
X104927353Y-96065298D01*
X104927353Y-96065300D01*
X104924500Y-96095730D01*
X104924500Y-96829269D01*
X104927353Y-96859699D01*
X104927353Y-96859701D01*
X104968477Y-96977222D01*
X104972207Y-96987882D01*
X105052850Y-97097150D01*
X105074622Y-97113218D01*
X105116872Y-97168865D01*
X105122331Y-97238522D01*
X105089263Y-97300071D01*
X105088670Y-97300669D01*
X105007682Y-97381657D01*
X104915643Y-97530875D01*
X104915641Y-97530880D01*
X104860494Y-97697302D01*
X104860493Y-97697309D01*
X104850000Y-97800013D01*
X104850000Y-98250000D01*
X106999999Y-98250000D01*
X106999999Y-97800028D01*
X106999998Y-97800013D01*
X106989505Y-97697302D01*
X106934358Y-97530880D01*
X106934356Y-97530875D01*
X106842315Y-97381654D01*
X106825025Y-97364364D01*
X106791540Y-97303041D01*
X106796524Y-97233349D01*
X106838396Y-97177416D01*
X106838760Y-97177144D01*
X106947150Y-97097150D01*
X107027793Y-96987882D01*
X107048324Y-96929204D01*
X107075139Y-96852577D01*
X107076548Y-96853070D01*
X107106003Y-96799241D01*
X107167356Y-96765811D01*
X107193607Y-96763000D01*
X108486667Y-96763000D01*
X108553706Y-96782685D01*
X108574348Y-96799319D01*
X108962848Y-97187819D01*
X108996333Y-97249142D01*
X108991349Y-97318834D01*
X108949477Y-97374767D01*
X108884013Y-97399184D01*
X108875167Y-97399500D01*
X108495730Y-97399500D01*
X108465300Y-97402353D01*
X108465298Y-97402353D01*
X108337119Y-97447206D01*
X108337117Y-97447207D01*
X108227850Y-97527850D01*
X108147207Y-97637117D01*
X108147206Y-97637119D01*
X108102353Y-97765298D01*
X108102353Y-97765300D01*
X108099500Y-97795730D01*
X108099500Y-99204269D01*
X108102353Y-99234698D01*
X108125280Y-99300219D01*
X108128841Y-99369997D01*
X108094112Y-99430625D01*
X108032119Y-99462852D01*
X107969234Y-99458879D01*
X107897606Y-99435144D01*
X107798322Y-99425000D01*
X107775000Y-99425000D01*
X107775000Y-100526000D01*
X107755315Y-100593039D01*
X107702511Y-100638794D01*
X107651000Y-100650000D01*
X106575001Y-100650000D01*
X106575001Y-100698313D01*
X106585429Y-100800399D01*
X106572659Y-100869091D01*
X106524778Y-100919976D01*
X106462071Y-100937000D01*
X105622938Y-100937000D01*
X105592367Y-100945191D01*
X105546508Y-100957479D01*
X105546507Y-100957480D01*
X105511038Y-100977959D01*
X105477992Y-100997037D01*
X105477987Y-100997041D01*
X103459541Y-103015487D01*
X103459535Y-103015495D01*
X103419982Y-103084004D01*
X103419979Y-103084009D01*
X103408102Y-103128336D01*
X103399510Y-103160403D01*
X103399500Y-103160439D01*
X103399500Y-105324166D01*
X103379815Y-105391205D01*
X103363181Y-105411847D01*
X101509494Y-107265533D01*
X101448171Y-107299018D01*
X101378479Y-107294034D01*
X101322546Y-107252162D01*
X101298129Y-107186698D01*
X101299912Y-107158197D01*
X101299903Y-107158197D01*
X101299929Y-107157930D01*
X101300196Y-107153658D01*
X101300500Y-107152133D01*
X101300499Y-106947868D01*
X101284515Y-106867505D01*
X101284513Y-106867502D01*
X101279841Y-106856222D01*
X101281285Y-106855623D01*
X101264563Y-106802211D01*
X101280517Y-106744056D01*
X101279842Y-106743777D01*
X101282070Y-106738396D01*
X101283049Y-106734831D01*
X101284452Y-106732647D01*
X101284516Y-106732493D01*
X101294088Y-106684365D01*
X101300500Y-106652133D01*
X101300499Y-106447868D01*
X101284515Y-106367505D01*
X101284513Y-106367502D01*
X101279841Y-106356222D01*
X101281285Y-106355623D01*
X101264563Y-106302211D01*
X101280517Y-106244056D01*
X101279842Y-106243777D01*
X101282070Y-106238396D01*
X101283049Y-106234831D01*
X101284452Y-106232647D01*
X101284516Y-106232493D01*
X101300499Y-106152136D01*
X101300500Y-106152133D01*
X101300499Y-105947868D01*
X101284515Y-105867505D01*
X101284513Y-105867502D01*
X101279841Y-105856222D01*
X101281285Y-105855623D01*
X101264563Y-105802211D01*
X101280517Y-105744056D01*
X101279842Y-105743777D01*
X101282070Y-105738396D01*
X101283049Y-105734831D01*
X101284452Y-105732647D01*
X101284516Y-105732493D01*
X101300499Y-105652136D01*
X101300500Y-105652133D01*
X101300499Y-105447868D01*
X101284515Y-105367505D01*
X101284513Y-105367502D01*
X101279841Y-105356222D01*
X101281285Y-105355623D01*
X101264563Y-105302211D01*
X101280517Y-105244056D01*
X101279842Y-105243777D01*
X101282070Y-105238396D01*
X101283049Y-105234831D01*
X101284452Y-105232647D01*
X101284516Y-105232493D01*
X101300499Y-105152136D01*
X101300500Y-105152133D01*
X101300499Y-104947868D01*
X101284515Y-104867505D01*
X101284513Y-104867502D01*
X101279841Y-104856222D01*
X101281285Y-104855623D01*
X101264563Y-104802211D01*
X101280517Y-104744056D01*
X101279842Y-104743777D01*
X101282070Y-104738396D01*
X101283049Y-104734831D01*
X101284452Y-104732647D01*
X101284516Y-104732493D01*
X101300499Y-104652136D01*
X101300500Y-104652133D01*
X101300499Y-104447868D01*
X101284515Y-104367505D01*
X101284513Y-104367502D01*
X101279841Y-104356222D01*
X101281285Y-104355623D01*
X101264563Y-104302211D01*
X101280517Y-104244056D01*
X101279842Y-104243777D01*
X101282070Y-104238396D01*
X101283049Y-104234831D01*
X101284452Y-104232647D01*
X101284514Y-104232497D01*
X101284514Y-104232496D01*
X101284515Y-104232495D01*
X101294625Y-104181666D01*
X101327009Y-104119758D01*
X101340756Y-104107483D01*
X101435093Y-104035096D01*
X101527263Y-103914978D01*
X101585198Y-103775108D01*
X101585199Y-103775103D01*
X101595088Y-103700000D01*
X101063301Y-103700000D01*
X101053122Y-103699500D01*
X99671870Y-103699500D01*
X99661711Y-103700000D01*
X99129912Y-103700000D01*
X99139800Y-103775103D01*
X99139801Y-103775108D01*
X99197736Y-103914978D01*
X99289905Y-104035094D01*
X99384245Y-104107484D01*
X99425447Y-104163912D01*
X99430375Y-104181669D01*
X99440484Y-104232494D01*
X99445159Y-104243780D01*
X99443714Y-104244378D01*
X99460436Y-104297788D01*
X99444482Y-104355938D01*
X99445159Y-104356219D01*
X99442926Y-104361609D01*
X99441950Y-104365168D01*
X99440550Y-104367345D01*
X99440484Y-104367505D01*
X99424500Y-104447863D01*
X99424500Y-104652129D01*
X99426639Y-104662882D01*
X99436643Y-104713181D01*
X99440486Y-104732498D01*
X99445159Y-104743780D01*
X99443714Y-104744378D01*
X99460436Y-104797788D01*
X99444482Y-104855938D01*
X99445159Y-104856219D01*
X99442926Y-104861609D01*
X99441950Y-104865168D01*
X99440550Y-104867345D01*
X99440484Y-104867505D01*
X99424500Y-104947863D01*
X99424500Y-105152129D01*
X99440486Y-105232498D01*
X99445159Y-105243780D01*
X99443714Y-105244378D01*
X99460436Y-105297788D01*
X99444482Y-105355938D01*
X99445159Y-105356219D01*
X99442926Y-105361609D01*
X99441950Y-105365168D01*
X99440550Y-105367345D01*
X99440484Y-105367505D01*
X99424500Y-105447863D01*
X99424500Y-105652129D01*
X99440486Y-105732498D01*
X99445159Y-105743780D01*
X99443714Y-105744378D01*
X99460436Y-105797788D01*
X99444482Y-105855938D01*
X99445159Y-105856219D01*
X99442926Y-105861609D01*
X99441950Y-105865168D01*
X99440550Y-105867345D01*
X99440484Y-105867505D01*
X99424500Y-105947863D01*
X99424500Y-106152129D01*
X99440486Y-106232498D01*
X99445159Y-106243780D01*
X99443714Y-106244378D01*
X99460436Y-106297788D01*
X99444482Y-106355938D01*
X99445159Y-106356219D01*
X99442926Y-106361609D01*
X99441950Y-106365168D01*
X99440550Y-106367345D01*
X99440484Y-106367505D01*
X99424500Y-106447863D01*
X99424500Y-106652129D01*
X99440486Y-106732498D01*
X99445159Y-106743780D01*
X99443714Y-106744378D01*
X99460436Y-106797788D01*
X99444482Y-106855938D01*
X99445159Y-106856219D01*
X99442926Y-106861609D01*
X99441950Y-106865168D01*
X99440550Y-106867345D01*
X99440484Y-106867505D01*
X99424500Y-106947863D01*
X99424500Y-107152129D01*
X99440486Y-107232498D01*
X99445159Y-107243780D01*
X99443714Y-107244378D01*
X99460436Y-107297788D01*
X99444482Y-107355938D01*
X99445159Y-107356219D01*
X99442926Y-107361609D01*
X99441950Y-107365168D01*
X99440550Y-107367345D01*
X99440484Y-107367505D01*
X99424500Y-107447863D01*
X99424500Y-107652129D01*
X99440486Y-107732498D01*
X99445159Y-107743780D01*
X99443714Y-107744378D01*
X99460436Y-107797788D01*
X99444482Y-107855938D01*
X99445159Y-107856219D01*
X99442926Y-107861609D01*
X99441950Y-107865168D01*
X99440550Y-107867345D01*
X99440484Y-107867505D01*
X99424500Y-107947863D01*
X99424500Y-108152129D01*
X99440486Y-108232498D01*
X99445159Y-108243780D01*
X99443714Y-108244378D01*
X99460436Y-108297788D01*
X99444482Y-108355938D01*
X99445159Y-108356219D01*
X99442926Y-108361609D01*
X99441950Y-108365168D01*
X99440550Y-108367345D01*
X99440484Y-108367505D01*
X99424500Y-108447863D01*
X99424500Y-108500500D01*
X99404815Y-108567539D01*
X99352011Y-108613294D01*
X99300500Y-108624500D01*
X94678028Y-108624500D01*
X94647457Y-108632691D01*
X94601598Y-108644979D01*
X94601597Y-108644980D01*
X94551551Y-108673875D01*
X94551550Y-108673876D01*
X94533080Y-108684539D01*
X94533077Y-108684541D01*
X94265489Y-108952130D01*
X94265488Y-108952131D01*
X94216593Y-109001025D01*
X94155270Y-109034509D01*
X94104722Y-109034960D01*
X94052135Y-109024500D01*
X93847870Y-109024500D01*
X93795283Y-109034960D01*
X93767505Y-109040485D01*
X93767504Y-109040485D01*
X93767501Y-109040486D01*
X93756220Y-109045159D01*
X93755621Y-109043714D01*
X93702204Y-109060436D01*
X93644061Y-109044481D01*
X93643781Y-109045159D01*
X93638383Y-109042923D01*
X93634825Y-109041947D01*
X93632648Y-109040547D01*
X93632494Y-109040484D01*
X93552135Y-109024500D01*
X93347870Y-109024500D01*
X93267504Y-109040485D01*
X93166221Y-109108161D01*
X93164187Y-109105117D01*
X93121469Y-109128444D01*
X93051777Y-109123460D01*
X93007430Y-109094959D01*
X92905041Y-108992570D01*
X92871556Y-108931247D01*
X92876540Y-108861555D01*
X92893624Y-108834971D01*
X92891839Y-108833779D01*
X92918437Y-108793972D01*
X92959515Y-108732495D01*
X92975500Y-108652133D01*
X92975499Y-108474500D01*
X92995183Y-108407461D01*
X93047987Y-108361706D01*
X93099499Y-108350500D01*
X93238819Y-108350500D01*
X93305858Y-108370185D01*
X93351613Y-108422989D01*
X93374620Y-108473369D01*
X93374623Y-108473373D01*
X93468872Y-108582143D01*
X93589947Y-108659953D01*
X93589950Y-108659954D01*
X93589949Y-108659954D01*
X93728036Y-108700499D01*
X93728038Y-108700500D01*
X93728039Y-108700500D01*
X93871962Y-108700500D01*
X93871962Y-108700499D01*
X94010053Y-108659953D01*
X94131128Y-108582143D01*
X94225377Y-108473373D01*
X94285165Y-108342457D01*
X94305647Y-108200000D01*
X94285165Y-108057543D01*
X94225377Y-107926627D01*
X94131128Y-107817857D01*
X94010053Y-107740047D01*
X94010051Y-107740046D01*
X94010049Y-107740045D01*
X94010050Y-107740045D01*
X93871963Y-107699500D01*
X93871961Y-107699500D01*
X93728039Y-107699500D01*
X93728036Y-107699500D01*
X93581437Y-107742545D01*
X93581004Y-107741073D01*
X93542273Y-107749500D01*
X93099500Y-107749500D01*
X93032461Y-107729815D01*
X92986706Y-107677011D01*
X92975500Y-107625501D01*
X92975499Y-107447870D01*
X92975499Y-107447868D01*
X92959515Y-107367505D01*
X92959513Y-107367502D01*
X92954841Y-107356222D01*
X92956285Y-107355623D01*
X92939563Y-107302211D01*
X92955517Y-107244056D01*
X92954842Y-107243777D01*
X92957070Y-107238396D01*
X92958049Y-107234831D01*
X92959452Y-107232647D01*
X92959514Y-107232497D01*
X92959514Y-107232496D01*
X92959515Y-107232495D01*
X92969625Y-107181666D01*
X93002009Y-107119758D01*
X93015756Y-107107483D01*
X93110093Y-107035096D01*
X93202263Y-106914978D01*
X93260198Y-106775108D01*
X93260199Y-106775103D01*
X93270088Y-106700000D01*
X92738301Y-106700000D01*
X92728122Y-106699500D01*
X91346870Y-106699500D01*
X91336711Y-106700000D01*
X90804912Y-106700000D01*
X90798546Y-106707259D01*
X90739545Y-106744683D01*
X90705318Y-106749500D01*
X90510438Y-106749500D01*
X90479867Y-106757691D01*
X90434008Y-106769979D01*
X90434007Y-106769980D01*
X90392455Y-106793971D01*
X90392454Y-106793971D01*
X90365495Y-106809535D01*
X90365487Y-106809541D01*
X90106913Y-107068115D01*
X90045590Y-107101600D01*
X89975898Y-107096616D01*
X89919965Y-107054744D01*
X89900155Y-107015029D01*
X89862030Y-106883803D01*
X89779721Y-106744625D01*
X89779714Y-106744616D01*
X89665381Y-106630283D01*
X89659217Y-106625502D01*
X89660733Y-106623547D01*
X89621363Y-106581378D01*
X89608862Y-106512635D01*
X89609226Y-106509576D01*
X89610500Y-106499901D01*
X89610499Y-106140100D01*
X89603972Y-106090513D01*
X89603970Y-106090510D01*
X89602733Y-106081106D01*
X89603122Y-106081054D01*
X89600000Y-106059183D01*
X89600000Y-105974500D01*
X89619685Y-105907461D01*
X89672489Y-105861706D01*
X89724000Y-105850500D01*
X90879948Y-105850500D01*
X90946987Y-105870185D01*
X90992742Y-105922989D01*
X91002686Y-105992147D01*
X90973661Y-106055703D01*
X90967629Y-106062181D01*
X90964909Y-106064900D01*
X90872736Y-106185021D01*
X90814801Y-106324891D01*
X90814800Y-106324896D01*
X90804911Y-106399999D01*
X90804912Y-106400000D01*
X91336699Y-106400000D01*
X91346877Y-106400499D01*
X91347862Y-106400499D01*
X91347867Y-106400500D01*
X92727132Y-106400499D01*
X92728129Y-106400499D01*
X92738289Y-106400000D01*
X93270088Y-106400000D01*
X93270088Y-106399999D01*
X93260199Y-106324896D01*
X93260198Y-106324891D01*
X93202263Y-106185021D01*
X93110094Y-106064905D01*
X93015754Y-105992515D01*
X92974552Y-105936086D01*
X92969625Y-105918335D01*
X92959515Y-105867505D01*
X92959513Y-105867502D01*
X92954841Y-105856222D01*
X92956285Y-105855623D01*
X92939563Y-105802211D01*
X92955517Y-105744056D01*
X92954842Y-105743777D01*
X92957070Y-105738396D01*
X92958049Y-105734831D01*
X92959452Y-105732647D01*
X92959516Y-105732493D01*
X92975499Y-105652136D01*
X92975500Y-105652133D01*
X92975499Y-105447868D01*
X92959515Y-105367505D01*
X92959513Y-105367502D01*
X92954841Y-105356222D01*
X92956285Y-105355623D01*
X92939563Y-105302211D01*
X92955517Y-105244056D01*
X92954842Y-105243777D01*
X92957070Y-105238396D01*
X92958049Y-105234831D01*
X92959452Y-105232647D01*
X92959516Y-105232493D01*
X92975499Y-105152136D01*
X92975500Y-105152133D01*
X92975499Y-104947868D01*
X92959515Y-104867505D01*
X92959513Y-104867502D01*
X92954841Y-104856222D01*
X92956285Y-104855623D01*
X92939563Y-104802211D01*
X92955517Y-104744056D01*
X92954842Y-104743777D01*
X92957070Y-104738396D01*
X92958049Y-104734831D01*
X92959452Y-104732647D01*
X92959516Y-104732493D01*
X92975499Y-104652136D01*
X92975500Y-104652133D01*
X92975499Y-104447868D01*
X92959515Y-104367505D01*
X92959513Y-104367502D01*
X92954841Y-104356222D01*
X92956285Y-104355623D01*
X92939563Y-104302211D01*
X92955517Y-104244056D01*
X92954842Y-104243777D01*
X92957070Y-104238396D01*
X92958049Y-104234831D01*
X92959452Y-104232647D01*
X92959516Y-104232493D01*
X92970846Y-104175529D01*
X92975500Y-104152133D01*
X92975499Y-103947868D01*
X92959515Y-103867505D01*
X92959513Y-103867502D01*
X92954841Y-103856222D01*
X92956285Y-103855623D01*
X92939563Y-103802211D01*
X92955517Y-103744056D01*
X92954842Y-103743777D01*
X92957070Y-103738396D01*
X92958049Y-103734831D01*
X92959452Y-103732647D01*
X92959516Y-103732493D01*
X92975499Y-103652136D01*
X92975500Y-103652133D01*
X92975499Y-103447868D01*
X92965978Y-103399999D01*
X99129911Y-103399999D01*
X99129912Y-103400000D01*
X99661699Y-103400000D01*
X99671877Y-103400499D01*
X99672862Y-103400499D01*
X99672867Y-103400500D01*
X101052132Y-103400499D01*
X101053129Y-103400499D01*
X101063289Y-103400000D01*
X101595088Y-103400000D01*
X101595088Y-103399999D01*
X101585199Y-103324896D01*
X101585198Y-103324891D01*
X101527263Y-103185021D01*
X101435094Y-103064905D01*
X101340754Y-102992515D01*
X101299552Y-102936086D01*
X101294624Y-102918331D01*
X101291874Y-102904503D01*
X101730000Y-102904503D01*
X101876195Y-102862031D01*
X102015374Y-102779721D01*
X102015383Y-102779714D01*
X102129714Y-102665383D01*
X102129721Y-102665374D01*
X102212031Y-102526195D01*
X102212033Y-102526190D01*
X102257144Y-102370918D01*
X102257145Y-102370912D01*
X102258790Y-102350000D01*
X101730000Y-102350000D01*
X101730000Y-102904503D01*
X101291874Y-102904503D01*
X101284515Y-102867505D01*
X101284513Y-102867503D01*
X101284513Y-102867501D01*
X101250898Y-102817193D01*
X101230020Y-102750516D01*
X101230000Y-102748302D01*
X101230000Y-101295494D01*
X101730000Y-101295494D01*
X101730000Y-101850000D01*
X102258790Y-101850000D01*
X102257145Y-101829089D01*
X102212031Y-101673804D01*
X102129721Y-101534625D01*
X102129714Y-101534616D01*
X102015383Y-101420285D01*
X102015374Y-101420278D01*
X101876193Y-101337967D01*
X101876190Y-101337965D01*
X101730001Y-101295493D01*
X101730000Y-101295494D01*
X101230000Y-101295494D01*
X101229998Y-101295493D01*
X101083809Y-101337965D01*
X101083806Y-101337967D01*
X100944625Y-101420278D01*
X100944620Y-101420282D01*
X100830282Y-101534621D01*
X100825499Y-101540788D01*
X100823544Y-101539272D01*
X100781362Y-101578644D01*
X100712618Y-101591135D01*
X100709537Y-101590768D01*
X100699904Y-101589500D01*
X100340105Y-101589500D01*
X100327686Y-101591135D01*
X100290513Y-101596028D01*
X100290511Y-101596029D01*
X100290509Y-101596029D01*
X100181683Y-101646776D01*
X100096776Y-101731683D01*
X100046027Y-101840514D01*
X100039500Y-101890098D01*
X100039500Y-102309894D01*
X100039501Y-102309900D01*
X100046028Y-102359487D01*
X100050382Y-102368825D01*
X100062000Y-102421228D01*
X100062000Y-102575500D01*
X100042315Y-102642539D01*
X99989511Y-102688294D01*
X99938000Y-102699500D01*
X99672870Y-102699500D01*
X99592504Y-102715485D01*
X99501375Y-102776375D01*
X99440485Y-102867505D01*
X99440483Y-102867509D01*
X99430374Y-102918331D01*
X99397989Y-102980242D01*
X99384245Y-102992514D01*
X99289906Y-103064904D01*
X99197736Y-103185021D01*
X99139801Y-103324891D01*
X99139800Y-103324896D01*
X99129911Y-103399999D01*
X92965978Y-103399999D01*
X92959515Y-103367505D01*
X92959513Y-103367502D01*
X92954841Y-103356222D01*
X92956285Y-103355623D01*
X92939563Y-103302211D01*
X92955517Y-103244056D01*
X92954842Y-103243777D01*
X92957070Y-103238396D01*
X92958049Y-103234831D01*
X92959452Y-103232647D01*
X92959516Y-103232493D01*
X92975499Y-103152136D01*
X92975500Y-103152131D01*
X92975499Y-102947870D01*
X92975499Y-102947868D01*
X92959515Y-102867505D01*
X92939309Y-102837266D01*
X92898624Y-102776375D01*
X92842379Y-102738794D01*
X92807495Y-102715485D01*
X92807493Y-102715484D01*
X92807490Y-102715483D01*
X92727136Y-102699500D01*
X91347870Y-102699500D01*
X91267505Y-102715485D01*
X91193390Y-102765007D01*
X91126713Y-102785884D01*
X91059333Y-102767399D01*
X91012643Y-102715420D01*
X91000500Y-102661904D01*
X91000500Y-102391360D01*
X91020185Y-102324321D01*
X91072989Y-102278566D01*
X91142147Y-102268622D01*
X91159095Y-102272284D01*
X91270000Y-102304504D01*
X91270000Y-101374000D01*
X91289685Y-101306961D01*
X91342489Y-101261206D01*
X91394000Y-101250000D01*
X91646000Y-101250000D01*
X91713039Y-101269685D01*
X91758794Y-101322489D01*
X91770000Y-101374000D01*
X91770000Y-102304503D01*
X91916195Y-102262031D01*
X92055374Y-102179721D01*
X92055383Y-102179714D01*
X92169714Y-102065383D01*
X92174499Y-102059215D01*
X92176459Y-102060735D01*
X92218583Y-102021382D01*
X92287321Y-102008858D01*
X92290443Y-102009228D01*
X92300099Y-102010500D01*
X92659900Y-102010499D01*
X92709487Y-102003972D01*
X92818316Y-101953224D01*
X92887820Y-101883720D01*
X92949143Y-101850235D01*
X93018835Y-101855219D01*
X93074768Y-101897091D01*
X93099185Y-101962555D01*
X93099501Y-101971401D01*
X93099501Y-102327132D01*
X93112104Y-102390494D01*
X93115485Y-102407495D01*
X93176375Y-102498624D01*
X93212876Y-102523013D01*
X93267505Y-102559515D01*
X93318332Y-102569625D01*
X93380241Y-102602009D01*
X93392516Y-102615755D01*
X93464905Y-102710094D01*
X93585021Y-102802263D01*
X93724896Y-102860200D01*
X93724901Y-102860201D01*
X93799998Y-102870087D01*
X93800000Y-102870086D01*
X93800000Y-102338300D01*
X93800499Y-102328132D01*
X93800499Y-102327137D01*
X93800500Y-102327133D01*
X93800499Y-100947868D01*
X93800499Y-100947867D01*
X93800499Y-100946868D01*
X93800000Y-100936710D01*
X93800000Y-100404911D01*
X93799999Y-100404911D01*
X93724896Y-100414800D01*
X93724891Y-100414801D01*
X93585021Y-100472736D01*
X93464902Y-100564907D01*
X93392514Y-100659245D01*
X93336086Y-100700448D01*
X93318330Y-100705375D01*
X93267508Y-100715483D01*
X93267504Y-100715485D01*
X93176375Y-100776375D01*
X93115485Y-100867505D01*
X93115483Y-100867509D01*
X93099500Y-100947862D01*
X93099500Y-101028598D01*
X93079815Y-101095637D01*
X93027011Y-101141392D01*
X92957853Y-101151336D01*
X92894297Y-101122311D01*
X92887819Y-101116279D01*
X92818316Y-101046776D01*
X92736827Y-101008777D01*
X92709487Y-100996028D01*
X92709485Y-100996027D01*
X92709486Y-100996027D01*
X92659902Y-100989500D01*
X92659901Y-100989500D01*
X92445833Y-100989500D01*
X92378794Y-100969815D01*
X92358152Y-100953181D01*
X91981819Y-100576848D01*
X91948334Y-100515525D01*
X91945500Y-100489167D01*
X91945500Y-100313138D01*
X91965185Y-100246099D01*
X92017989Y-100200344D01*
X92087147Y-100190400D01*
X92121010Y-100200343D01*
X92222317Y-100246609D01*
X92278439Y-100263088D01*
X92278441Y-100263088D01*
X92278443Y-100263089D01*
X92320878Y-100269189D01*
X92420754Y-100283550D01*
X92420755Y-100283550D01*
X92479242Y-100283550D01*
X92479245Y-100283550D01*
X92491681Y-100281761D01*
X92509327Y-100280500D01*
X92890673Y-100280500D01*
X92908318Y-100281761D01*
X92920755Y-100283550D01*
X92920758Y-100283550D01*
X92979245Y-100283550D01*
X92979246Y-100283550D01*
X93093480Y-100267125D01*
X93121556Y-100263089D01*
X93121557Y-100263088D01*
X93121561Y-100263088D01*
X93177683Y-100246609D01*
X93266904Y-100205863D01*
X93308456Y-100186887D01*
X93308460Y-100186884D01*
X93308468Y-100186881D01*
X93357673Y-100155259D01*
X93357681Y-100155252D01*
X93357684Y-100155250D01*
X93402390Y-100116512D01*
X93466334Y-100061105D01*
X93504639Y-100016899D01*
X93548925Y-99947989D01*
X93558905Y-99932460D01*
X93611709Y-99886705D01*
X93663220Y-99875500D01*
X94000500Y-99875500D01*
X94067539Y-99895185D01*
X94113294Y-99947989D01*
X94124500Y-99999499D01*
X94124500Y-100131517D01*
X94133268Y-100186878D01*
X94139354Y-100225304D01*
X94146667Y-100239657D01*
X94159563Y-100308325D01*
X94133287Y-100373065D01*
X94117941Y-100389178D01*
X94100000Y-100404911D01*
X94100000Y-100936699D01*
X94099500Y-100946877D01*
X94099500Y-102328142D01*
X94100000Y-102338289D01*
X94100000Y-102870086D01*
X94100001Y-102870087D01*
X94175098Y-102860201D01*
X94175103Y-102860200D01*
X94314978Y-102802263D01*
X94435096Y-102710093D01*
X94507484Y-102615755D01*
X94563912Y-102574552D01*
X94581661Y-102569625D01*
X94632495Y-102559515D01*
X94632498Y-102559512D01*
X94643778Y-102554841D01*
X94644376Y-102556286D01*
X94697782Y-102539563D01*
X94755943Y-102555516D01*
X94756223Y-102554842D01*
X94761590Y-102557065D01*
X94765162Y-102558045D01*
X94767351Y-102559451D01*
X94767506Y-102559516D01*
X94818321Y-102569623D01*
X94847867Y-102575500D01*
X95052132Y-102575499D01*
X95132495Y-102559515D01*
X95132498Y-102559512D01*
X95143778Y-102554841D01*
X95144376Y-102556286D01*
X95197782Y-102539563D01*
X95255943Y-102555516D01*
X95256223Y-102554842D01*
X95261590Y-102557065D01*
X95265162Y-102558045D01*
X95267351Y-102559451D01*
X95267506Y-102559516D01*
X95318321Y-102569623D01*
X95347867Y-102575500D01*
X95552132Y-102575499D01*
X95632495Y-102559515D01*
X95632498Y-102559512D01*
X95643778Y-102554841D01*
X95644376Y-102556286D01*
X95697782Y-102539563D01*
X95755943Y-102555516D01*
X95756223Y-102554842D01*
X95761590Y-102557065D01*
X95765162Y-102558045D01*
X95767351Y-102559451D01*
X95767506Y-102559516D01*
X95818321Y-102569623D01*
X95847867Y-102575500D01*
X96052132Y-102575499D01*
X96132495Y-102559515D01*
X96132498Y-102559512D01*
X96143778Y-102554841D01*
X96144376Y-102556286D01*
X96197782Y-102539563D01*
X96255943Y-102555516D01*
X96256223Y-102554842D01*
X96261590Y-102557065D01*
X96265162Y-102558045D01*
X96267351Y-102559451D01*
X96267506Y-102559516D01*
X96318321Y-102569623D01*
X96347867Y-102575500D01*
X96552132Y-102575499D01*
X96632495Y-102559515D01*
X96632498Y-102559512D01*
X96643778Y-102554841D01*
X96644376Y-102556286D01*
X96697782Y-102539563D01*
X96755943Y-102555516D01*
X96756223Y-102554842D01*
X96761590Y-102557065D01*
X96765162Y-102558045D01*
X96767351Y-102559451D01*
X96767506Y-102559516D01*
X96818321Y-102569623D01*
X96847867Y-102575500D01*
X97052132Y-102575499D01*
X97132495Y-102559515D01*
X97132498Y-102559512D01*
X97143778Y-102554841D01*
X97144376Y-102556286D01*
X97197782Y-102539563D01*
X97255943Y-102555516D01*
X97256223Y-102554842D01*
X97261590Y-102557065D01*
X97265162Y-102558045D01*
X97267351Y-102559451D01*
X97267506Y-102559516D01*
X97318321Y-102569623D01*
X97347867Y-102575500D01*
X97552132Y-102575499D01*
X97632495Y-102559515D01*
X97632498Y-102559512D01*
X97643778Y-102554841D01*
X97644376Y-102556286D01*
X97697782Y-102539563D01*
X97755943Y-102555516D01*
X97756223Y-102554842D01*
X97761590Y-102557065D01*
X97765162Y-102558045D01*
X97767351Y-102559451D01*
X97767506Y-102559516D01*
X97818321Y-102569623D01*
X97847867Y-102575500D01*
X98052132Y-102575499D01*
X98132495Y-102559515D01*
X98132498Y-102559512D01*
X98143778Y-102554841D01*
X98144376Y-102556286D01*
X98197782Y-102539563D01*
X98255943Y-102555516D01*
X98256223Y-102554842D01*
X98261590Y-102557065D01*
X98265162Y-102558045D01*
X98267351Y-102559451D01*
X98267506Y-102559516D01*
X98318321Y-102569623D01*
X98347867Y-102575500D01*
X98552132Y-102575499D01*
X98632495Y-102559515D01*
X98632498Y-102559512D01*
X98643778Y-102554841D01*
X98644376Y-102556286D01*
X98697782Y-102539563D01*
X98755943Y-102555516D01*
X98756223Y-102554842D01*
X98761590Y-102557065D01*
X98765162Y-102558045D01*
X98767351Y-102559451D01*
X98767506Y-102559516D01*
X98818321Y-102569623D01*
X98847867Y-102575500D01*
X99052132Y-102575499D01*
X99132495Y-102559515D01*
X99223624Y-102498624D01*
X99284515Y-102407495D01*
X99300500Y-102327133D01*
X99300499Y-100947868D01*
X99284515Y-100867505D01*
X99256714Y-100825898D01*
X99223624Y-100776375D01*
X99166140Y-100737966D01*
X99132495Y-100715485D01*
X99132493Y-100715484D01*
X99132490Y-100715483D01*
X99052135Y-100699500D01*
X98847870Y-100699500D01*
X98787867Y-100711434D01*
X98767505Y-100715485D01*
X98767504Y-100715485D01*
X98767501Y-100715486D01*
X98756220Y-100720159D01*
X98755621Y-100718714D01*
X98702204Y-100735436D01*
X98644061Y-100719481D01*
X98643781Y-100720159D01*
X98638383Y-100717923D01*
X98634825Y-100716947D01*
X98632648Y-100715547D01*
X98632494Y-100715484D01*
X98552135Y-100699500D01*
X98347870Y-100699500D01*
X98287867Y-100711434D01*
X98267505Y-100715485D01*
X98267504Y-100715485D01*
X98267501Y-100715486D01*
X98256220Y-100720159D01*
X98255621Y-100718714D01*
X98202204Y-100735436D01*
X98144061Y-100719481D01*
X98143781Y-100720159D01*
X98138383Y-100717923D01*
X98134825Y-100716947D01*
X98132648Y-100715547D01*
X98132494Y-100715484D01*
X98052135Y-100699500D01*
X97847870Y-100699500D01*
X97787867Y-100711434D01*
X97767505Y-100715485D01*
X97767504Y-100715485D01*
X97767501Y-100715486D01*
X97756220Y-100720159D01*
X97755621Y-100718714D01*
X97702204Y-100735436D01*
X97644061Y-100719481D01*
X97643781Y-100720159D01*
X97638383Y-100717923D01*
X97634825Y-100716947D01*
X97632648Y-100715547D01*
X97632494Y-100715484D01*
X97552135Y-100699500D01*
X97347870Y-100699500D01*
X97287867Y-100711434D01*
X97267505Y-100715485D01*
X97267504Y-100715485D01*
X97267501Y-100715486D01*
X97256220Y-100720159D01*
X97255621Y-100718714D01*
X97202204Y-100735436D01*
X97144061Y-100719481D01*
X97143781Y-100720159D01*
X97138383Y-100717923D01*
X97134825Y-100716947D01*
X97132648Y-100715547D01*
X97132494Y-100715484D01*
X97052135Y-100699500D01*
X96847870Y-100699500D01*
X96787867Y-100711434D01*
X96767505Y-100715485D01*
X96767504Y-100715485D01*
X96767501Y-100715486D01*
X96756220Y-100720159D01*
X96755621Y-100718714D01*
X96702204Y-100735436D01*
X96644061Y-100719481D01*
X96643781Y-100720159D01*
X96638383Y-100717923D01*
X96634825Y-100716947D01*
X96632648Y-100715547D01*
X96632494Y-100715484D01*
X96552135Y-100699500D01*
X96347870Y-100699500D01*
X96287867Y-100711434D01*
X96267505Y-100715485D01*
X96267504Y-100715485D01*
X96267501Y-100715486D01*
X96256220Y-100720159D01*
X96255621Y-100718714D01*
X96202204Y-100735436D01*
X96144061Y-100719481D01*
X96143781Y-100720159D01*
X96138383Y-100717923D01*
X96134825Y-100716947D01*
X96132648Y-100715547D01*
X96132494Y-100715484D01*
X96052136Y-100699500D01*
X95874500Y-100699500D01*
X95807461Y-100679815D01*
X95761706Y-100627011D01*
X95750500Y-100575500D01*
X95750500Y-100510439D01*
X95745625Y-100492246D01*
X95730021Y-100434011D01*
X95730017Y-100434004D01*
X95690464Y-100365495D01*
X95690458Y-100365487D01*
X95511818Y-100186847D01*
X95478333Y-100125524D01*
X95475499Y-100099174D01*
X95475499Y-99668482D01*
X95460646Y-99574696D01*
X95403050Y-99461658D01*
X95403046Y-99461654D01*
X95403045Y-99461652D01*
X95313347Y-99371954D01*
X95313343Y-99371951D01*
X95313342Y-99371950D01*
X95309509Y-99369997D01*
X95264386Y-99347005D01*
X95213590Y-99299030D01*
X95196796Y-99231209D01*
X95207436Y-99199986D01*
X104850001Y-99199986D01*
X104860494Y-99302697D01*
X104915641Y-99469119D01*
X104915643Y-99469124D01*
X105007684Y-99618345D01*
X105131654Y-99742315D01*
X105280875Y-99834356D01*
X105280880Y-99834358D01*
X105447302Y-99889505D01*
X105447309Y-99889506D01*
X105550019Y-99899999D01*
X105674999Y-99899999D01*
X106175000Y-99899999D01*
X106299972Y-99899999D01*
X106299986Y-99899998D01*
X106402694Y-99889506D01*
X106421639Y-99883228D01*
X106491468Y-99880824D01*
X106551511Y-99916554D01*
X106582705Y-99979074D01*
X106584005Y-100013535D01*
X106575000Y-100101675D01*
X106575000Y-100150000D01*
X107275000Y-100150000D01*
X107275000Y-99424999D01*
X107251693Y-99425000D01*
X107251674Y-99425001D01*
X107152392Y-99435144D01*
X107151620Y-99435400D01*
X107151113Y-99435417D01*
X107145771Y-99436561D01*
X107145567Y-99435608D01*
X107081792Y-99437800D01*
X107021751Y-99402067D01*
X106990560Y-99339546D01*
X106989261Y-99305090D01*
X106999999Y-99199985D01*
X107000000Y-99199973D01*
X107000000Y-98750000D01*
X106175000Y-98750000D01*
X106175000Y-99899999D01*
X105674999Y-99899999D01*
X105675000Y-99899998D01*
X105675000Y-98750000D01*
X104850001Y-98750000D01*
X104850001Y-99199986D01*
X95207436Y-99199986D01*
X95219334Y-99165074D01*
X95274050Y-99121623D01*
X95283792Y-99118135D01*
X95364399Y-99093017D01*
X95509877Y-99005072D01*
X95630072Y-98884877D01*
X95718019Y-98739395D01*
X95768590Y-98577106D01*
X95775000Y-98506572D01*
X95775000Y-98500000D01*
X94674000Y-98500000D01*
X94606961Y-98480315D01*
X94561206Y-98427511D01*
X94550000Y-98376000D01*
X94550000Y-98000000D01*
X95050000Y-98000000D01*
X95774999Y-98000000D01*
X95774999Y-97993417D01*
X95768591Y-97922897D01*
X95768590Y-97922892D01*
X95718018Y-97760603D01*
X95630072Y-97615122D01*
X95509877Y-97494927D01*
X95364395Y-97406980D01*
X95364396Y-97406980D01*
X95202105Y-97356409D01*
X95202106Y-97356409D01*
X95131572Y-97350000D01*
X95050000Y-97350000D01*
X95050000Y-98000000D01*
X94550000Y-98000000D01*
X94550000Y-97350000D01*
X94549999Y-97349999D01*
X94468417Y-97350000D01*
X94397897Y-97356408D01*
X94397892Y-97356409D01*
X94235603Y-97406981D01*
X94090122Y-97494927D01*
X93969927Y-97615122D01*
X93881980Y-97760604D01*
X93831409Y-97922893D01*
X93829984Y-97938574D01*
X93804311Y-98003556D01*
X93747581Y-98044343D01*
X93677806Y-98047984D01*
X93617139Y-98013324D01*
X93593698Y-97978858D01*
X93582373Y-97954059D01*
X93582368Y-97954049D01*
X93504639Y-97833101D01*
X93504638Y-97833100D01*
X93466334Y-97788895D01*
X93433683Y-97760603D01*
X93357684Y-97694749D01*
X93357675Y-97694743D01*
X93357673Y-97694741D01*
X93344282Y-97686135D01*
X93308472Y-97663121D01*
X93308456Y-97663112D01*
X93177689Y-97603393D01*
X93177684Y-97603391D01*
X93177683Y-97603391D01*
X93121561Y-97586912D01*
X93121556Y-97586910D01*
X92991682Y-97568238D01*
X92979246Y-97566450D01*
X92920755Y-97566450D01*
X92920753Y-97566450D01*
X92908319Y-97568238D01*
X92890673Y-97569500D01*
X92509327Y-97569500D01*
X92491681Y-97568238D01*
X92479246Y-97566450D01*
X92479245Y-97566450D01*
X92420754Y-97566450D01*
X92278443Y-97586910D01*
X92278438Y-97586912D01*
X92222310Y-97603393D01*
X92091543Y-97663112D01*
X92091527Y-97663121D01*
X92042331Y-97694738D01*
X92042315Y-97694749D01*
X91934835Y-97787882D01*
X91933666Y-97788895D01*
X91927740Y-97795734D01*
X91895361Y-97833100D01*
X91895360Y-97833101D01*
X91817631Y-97954049D01*
X91817627Y-97954057D01*
X91804637Y-97982502D01*
X91765479Y-98027690D01*
X91766938Y-98029592D01*
X91760486Y-98034542D01*
X91404541Y-98390487D01*
X91404535Y-98390495D01*
X91364982Y-98459004D01*
X91364979Y-98459009D01*
X91353996Y-98500000D01*
X91344698Y-98534701D01*
X91344500Y-98535439D01*
X91344500Y-100580748D01*
X91324815Y-100647787D01*
X91272011Y-100693542D01*
X91255095Y-100699824D01*
X91123810Y-100737966D01*
X91123804Y-100737968D01*
X90984625Y-100820278D01*
X90984616Y-100820285D01*
X90870285Y-100934616D01*
X90870278Y-100934625D01*
X90787969Y-101073803D01*
X90742854Y-101229089D01*
X90742854Y-101229092D01*
X90740000Y-101265355D01*
X90740000Y-101315667D01*
X90720315Y-101382706D01*
X90667511Y-101428461D01*
X90598353Y-101438405D01*
X90534797Y-101409380D01*
X90528319Y-101403348D01*
X89778025Y-100653054D01*
X89744540Y-100591731D01*
X89749524Y-100522039D01*
X89755214Y-100509093D01*
X89810646Y-100400304D01*
X89810646Y-100400302D01*
X89810647Y-100400301D01*
X89824452Y-100313138D01*
X89825500Y-100306519D01*
X89825499Y-99693482D01*
X89810646Y-99599696D01*
X89753050Y-99486658D01*
X89753046Y-99486654D01*
X89753045Y-99486652D01*
X89663347Y-99396954D01*
X89663344Y-99396952D01*
X89663342Y-99396950D01*
X89553580Y-99341023D01*
X89550301Y-99339352D01*
X89456524Y-99324500D01*
X88993482Y-99324500D01*
X88912519Y-99337323D01*
X88899696Y-99339354D01*
X88786658Y-99396950D01*
X88786657Y-99396951D01*
X88786652Y-99396954D01*
X88696954Y-99486652D01*
X88696951Y-99486657D01*
X88696950Y-99486658D01*
X88691315Y-99497718D01*
X88639352Y-99599698D01*
X88624500Y-99693475D01*
X88624500Y-100306517D01*
X88629309Y-100336878D01*
X88639354Y-100400304D01*
X88696950Y-100513342D01*
X88696952Y-100513344D01*
X88696954Y-100513347D01*
X88786652Y-100603045D01*
X88786654Y-100603046D01*
X88786658Y-100603050D01*
X88899696Y-100660646D01*
X88904730Y-100661443D01*
X88967866Y-100691372D01*
X88983707Y-100708426D01*
X88984538Y-100709509D01*
X90363181Y-102088152D01*
X90396666Y-102149475D01*
X90399500Y-102175833D01*
X90399500Y-103021972D01*
X90408453Y-103055383D01*
X90419979Y-103098399D01*
X90451000Y-103152128D01*
X90451001Y-103152131D01*
X90459540Y-103166921D01*
X90459541Y-103166923D01*
X91027130Y-103734511D01*
X91076024Y-103783405D01*
X91109509Y-103844728D01*
X91109960Y-103895277D01*
X91099500Y-103947863D01*
X91099500Y-104152129D01*
X91105376Y-104181669D01*
X91112141Y-104215684D01*
X91115486Y-104232498D01*
X91120159Y-104243780D01*
X91118714Y-104244378D01*
X91135436Y-104297788D01*
X91119482Y-104355938D01*
X91120159Y-104356219D01*
X91117926Y-104361609D01*
X91116950Y-104365168D01*
X91115550Y-104367345D01*
X91115484Y-104367505D01*
X91099500Y-104447863D01*
X91099500Y-104447865D01*
X91099500Y-104447867D01*
X91099500Y-104549475D01*
X91099501Y-104625499D01*
X91079817Y-104692539D01*
X91027013Y-104738294D01*
X90975501Y-104749500D01*
X90025833Y-104749500D01*
X89958794Y-104729815D01*
X89938152Y-104713181D01*
X89656819Y-104431848D01*
X89623334Y-104370525D01*
X89620500Y-104344167D01*
X89620500Y-104215683D01*
X89616022Y-104181669D01*
X89614068Y-104166827D01*
X89611617Y-104161570D01*
X89600000Y-104109167D01*
X89600000Y-103740817D01*
X89603123Y-103718946D01*
X89602734Y-103718895D01*
X89608574Y-103674529D01*
X89610500Y-103659901D01*
X89610499Y-103300100D01*
X89609230Y-103290463D01*
X89619994Y-103221433D01*
X89660350Y-103175962D01*
X89659215Y-103174499D01*
X89665383Y-103169714D01*
X89779714Y-103055383D01*
X89779721Y-103055374D01*
X89862031Y-102916195D01*
X89904504Y-102770000D01*
X89724000Y-102770000D01*
X89656961Y-102750315D01*
X89611206Y-102697511D01*
X89600000Y-102646000D01*
X89600000Y-102394000D01*
X89619685Y-102326961D01*
X89672489Y-102281206D01*
X89724000Y-102270000D01*
X89904504Y-102270000D01*
X89862031Y-102123804D01*
X89779721Y-101984625D01*
X89779714Y-101984616D01*
X89665381Y-101870283D01*
X89665377Y-101870280D01*
X89660876Y-101867618D01*
X89613194Y-101816547D01*
X89600000Y-101760888D01*
X89600000Y-101700000D01*
X84700000Y-101700000D01*
X76436654Y-101700000D01*
X76213053Y-100865511D01*
X76211861Y-100860673D01*
X76210235Y-100853455D01*
X76131940Y-100505815D01*
X83250000Y-100505815D01*
X83260407Y-100607673D01*
X83315094Y-100772709D01*
X83315096Y-100772714D01*
X83406370Y-100920691D01*
X83529308Y-101043629D01*
X83677285Y-101134903D01*
X83677290Y-101134905D01*
X83842326Y-101189592D01*
X83944184Y-101199999D01*
X83944197Y-101200000D01*
X83987500Y-101200000D01*
X83987500Y-100250000D01*
X83250000Y-100250000D01*
X83250000Y-100505815D01*
X76131940Y-100505815D01*
X75996167Y-99902963D01*
X75995169Y-99898074D01*
X75981943Y-99825900D01*
X75921154Y-99494184D01*
X83250000Y-99494184D01*
X83250000Y-99750000D01*
X84363500Y-99750000D01*
X84430539Y-99769685D01*
X84476294Y-99822489D01*
X84487500Y-99874000D01*
X84487500Y-101200000D01*
X84530803Y-101200000D01*
X84530815Y-101199999D01*
X84632673Y-101189592D01*
X84797709Y-101134905D01*
X84797714Y-101134903D01*
X84945691Y-101043629D01*
X85068629Y-100920691D01*
X85159903Y-100772714D01*
X85159906Y-100772707D01*
X85215103Y-100606133D01*
X85254875Y-100548687D01*
X85319391Y-100521864D01*
X85388167Y-100534179D01*
X85439367Y-100581722D01*
X85449850Y-100604180D01*
X85471545Y-100666180D01*
X85551069Y-100773930D01*
X85658819Y-100853454D01*
X85658821Y-100853455D01*
X85785218Y-100897684D01*
X85785222Y-100897684D01*
X85785226Y-100897686D01*
X85800231Y-100899093D01*
X85815232Y-100900500D01*
X85815236Y-100900500D01*
X86409768Y-100900500D01*
X86423101Y-100899249D01*
X86439774Y-100897686D01*
X86439778Y-100897684D01*
X86439781Y-100897684D01*
X86545288Y-100860765D01*
X86566179Y-100853455D01*
X86673930Y-100773930D01*
X86753455Y-100666179D01*
X86775545Y-100603050D01*
X86797684Y-100539781D01*
X86797685Y-100539776D01*
X86797686Y-100539774D01*
X86798619Y-100529823D01*
X86824473Y-100464916D01*
X86881316Y-100424289D01*
X86951101Y-100420843D01*
X87011671Y-100455672D01*
X87032560Y-100485100D01*
X87046950Y-100513342D01*
X87046952Y-100513344D01*
X87046954Y-100513347D01*
X87136652Y-100603045D01*
X87136654Y-100603046D01*
X87136658Y-100603050D01*
X87249694Y-100660645D01*
X87249698Y-100660647D01*
X87343475Y-100675499D01*
X87343481Y-100675500D01*
X87806518Y-100675499D01*
X87900304Y-100660646D01*
X88013342Y-100603050D01*
X88103050Y-100513342D01*
X88160646Y-100400304D01*
X88160646Y-100400302D01*
X88160647Y-100400301D01*
X88174452Y-100313138D01*
X88175500Y-100306519D01*
X88175499Y-99693482D01*
X88160646Y-99599696D01*
X88103050Y-99486658D01*
X88103046Y-99486654D01*
X88103045Y-99486652D01*
X88013347Y-99396954D01*
X88013344Y-99396952D01*
X88013342Y-99396950D01*
X87903580Y-99341023D01*
X87900301Y-99339352D01*
X87806524Y-99324500D01*
X87343482Y-99324500D01*
X87262519Y-99337323D01*
X87249696Y-99339354D01*
X87136658Y-99396950D01*
X87136657Y-99396951D01*
X87136652Y-99396954D01*
X87046954Y-99486652D01*
X87046948Y-99486660D01*
X87032560Y-99514898D01*
X86984585Y-99565692D01*
X86916763Y-99582486D01*
X86850629Y-99559947D01*
X86807179Y-99505231D01*
X86798619Y-99470177D01*
X86797686Y-99460226D01*
X86797685Y-99460223D01*
X86797684Y-99460218D01*
X86753455Y-99333821D01*
X86753454Y-99333819D01*
X86673930Y-99226069D01*
X86566180Y-99146545D01*
X86566178Y-99146544D01*
X86439781Y-99102315D01*
X86439769Y-99102313D01*
X86409768Y-99099500D01*
X86409764Y-99099500D01*
X85815236Y-99099500D01*
X85815232Y-99099500D01*
X85785230Y-99102313D01*
X85785218Y-99102315D01*
X85658821Y-99146544D01*
X85658819Y-99146545D01*
X85551069Y-99226069D01*
X85471545Y-99333819D01*
X85449850Y-99395819D01*
X85409127Y-99452595D01*
X85344174Y-99478341D01*
X85275613Y-99464884D01*
X85225211Y-99416496D01*
X85215103Y-99393867D01*
X85159905Y-99227290D01*
X85159903Y-99227285D01*
X85068629Y-99079308D01*
X84941991Y-98952670D01*
X84908506Y-98891347D01*
X84913490Y-98821655D01*
X84941994Y-98777304D01*
X84947138Y-98772158D01*
X84947150Y-98772150D01*
X85027793Y-98662882D01*
X85057807Y-98577106D01*
X85072646Y-98534701D01*
X85072646Y-98534699D01*
X85075500Y-98504269D01*
X85075500Y-97095730D01*
X85072646Y-97065300D01*
X85072646Y-97065298D01*
X85035809Y-96960026D01*
X85027793Y-96937118D01*
X84947150Y-96827850D01*
X84837882Y-96747207D01*
X84837880Y-96747206D01*
X84709700Y-96702353D01*
X84679270Y-96699500D01*
X84679266Y-96699500D01*
X83920734Y-96699500D01*
X83920730Y-96699500D01*
X83890300Y-96702353D01*
X83890298Y-96702353D01*
X83762119Y-96747206D01*
X83762117Y-96747207D01*
X83652850Y-96827850D01*
X83572207Y-96937117D01*
X83572206Y-96937119D01*
X83527353Y-97065298D01*
X83527353Y-97065300D01*
X83524500Y-97095730D01*
X83524500Y-98504269D01*
X83527353Y-98534699D01*
X83527353Y-98534701D01*
X83572206Y-98662880D01*
X83572207Y-98662882D01*
X83627610Y-98737951D01*
X83651581Y-98803579D01*
X83636266Y-98871750D01*
X83592938Y-98917122D01*
X83529310Y-98956368D01*
X83406370Y-99079308D01*
X83315096Y-99227285D01*
X83315094Y-99227290D01*
X83260407Y-99392326D01*
X83250000Y-99494184D01*
X75921154Y-99494184D01*
X75818208Y-98932431D01*
X75817410Y-98927518D01*
X75817287Y-98926654D01*
X75756739Y-98499986D01*
X80275001Y-98499986D01*
X80285494Y-98602697D01*
X80340641Y-98769119D01*
X80340643Y-98769124D01*
X80432684Y-98918345D01*
X80556654Y-99042315D01*
X80705875Y-99134356D01*
X80705880Y-99134358D01*
X80872302Y-99189505D01*
X80872309Y-99189506D01*
X80975019Y-99199999D01*
X81099999Y-99199999D01*
X81600000Y-99199999D01*
X81724972Y-99199999D01*
X81724986Y-99199998D01*
X81827697Y-99189505D01*
X81994119Y-99134358D01*
X81994124Y-99134356D01*
X82143345Y-99042315D01*
X82267315Y-98918345D01*
X82359356Y-98769124D01*
X82359358Y-98769119D01*
X82414505Y-98602697D01*
X82414506Y-98602690D01*
X82424999Y-98499986D01*
X82425000Y-98499973D01*
X82425000Y-98050000D01*
X81600000Y-98050000D01*
X81600000Y-99199999D01*
X81099999Y-99199999D01*
X81100000Y-99199998D01*
X81100000Y-98050000D01*
X80275001Y-98050000D01*
X80275001Y-98499986D01*
X75756739Y-98499986D01*
X75679478Y-97955551D01*
X75678878Y-97950606D01*
X75592939Y-97100013D01*
X80275000Y-97100013D01*
X80275000Y-97550000D01*
X82424999Y-97550000D01*
X82424999Y-97100028D01*
X82424998Y-97100013D01*
X82414506Y-96997304D01*
X82384181Y-96905792D01*
X82381779Y-96835964D01*
X82417510Y-96775921D01*
X82480030Y-96744728D01*
X82489288Y-96743429D01*
X82527696Y-96739506D01*
X82694119Y-96684358D01*
X82694124Y-96684356D01*
X82843345Y-96592315D01*
X82967315Y-96468345D01*
X83059356Y-96319124D01*
X83059358Y-96319119D01*
X83114505Y-96152697D01*
X83114506Y-96152690D01*
X83124999Y-96049986D01*
X83125000Y-96049973D01*
X83125000Y-95925000D01*
X80325001Y-95925000D01*
X80325001Y-96049986D01*
X80335494Y-96152697D01*
X80390641Y-96319119D01*
X80390643Y-96319124D01*
X80482682Y-96468342D01*
X80486349Y-96472979D01*
X80512490Y-96537774D01*
X80499452Y-96606416D01*
X80476766Y-96637572D01*
X80432684Y-96681654D01*
X80340643Y-96830875D01*
X80340641Y-96830880D01*
X80285494Y-96997302D01*
X80285493Y-96997309D01*
X80275000Y-97100013D01*
X75592939Y-97100013D01*
X75580193Y-96973860D01*
X75579793Y-96968901D01*
X75520517Y-95988954D01*
X75520319Y-95984027D01*
X75515627Y-95751096D01*
X89025000Y-95751096D01*
X89027897Y-95793824D01*
X89073831Y-95978523D01*
X89158390Y-96149022D01*
X89158392Y-96149025D01*
X89277632Y-96297366D01*
X89277633Y-96297367D01*
X89425974Y-96416607D01*
X89425977Y-96416609D01*
X89596476Y-96501168D01*
X89781175Y-96547102D01*
X89823903Y-96550000D01*
X90275000Y-96550000D01*
X90775000Y-96550000D01*
X91226097Y-96550000D01*
X91268824Y-96547102D01*
X91453523Y-96501168D01*
X91624022Y-96416609D01*
X91624025Y-96416607D01*
X91772366Y-96297367D01*
X91772367Y-96297366D01*
X91891607Y-96149025D01*
X91891609Y-96149022D01*
X91976168Y-95978523D01*
X92022102Y-95793824D01*
X92025000Y-95751096D01*
X92025000Y-95550000D01*
X90775000Y-95550000D01*
X90775000Y-96550000D01*
X90275000Y-96550000D01*
X90275000Y-95550000D01*
X89025000Y-95550000D01*
X89025000Y-95751096D01*
X75515627Y-95751096D01*
X75506542Y-95300013D01*
X80325000Y-95300013D01*
X80325000Y-95425000D01*
X81475000Y-95425000D01*
X81475000Y-94600000D01*
X81025028Y-94600000D01*
X81025012Y-94600001D01*
X80922302Y-94610494D01*
X80755880Y-94665641D01*
X80755875Y-94665643D01*
X80606654Y-94757684D01*
X80482684Y-94881654D01*
X80390643Y-95030875D01*
X80390641Y-95030880D01*
X80335494Y-95197302D01*
X80335493Y-95197309D01*
X80325000Y-95300013D01*
X75506542Y-95300013D01*
X75500550Y-95002482D01*
X75500550Y-94997503D01*
X75500918Y-94979245D01*
X75520319Y-94015970D01*
X75520517Y-94011047D01*
X75579794Y-93031076D01*
X75580195Y-93026120D01*
X75581848Y-93009768D01*
X75648938Y-92345730D01*
X80624500Y-92345730D01*
X80624500Y-93104269D01*
X80627353Y-93134699D01*
X80627353Y-93134701D01*
X80672206Y-93262880D01*
X80672207Y-93262882D01*
X80752850Y-93372150D01*
X80862118Y-93452793D01*
X80895495Y-93464472D01*
X80990299Y-93497646D01*
X81020730Y-93500500D01*
X81020734Y-93500500D01*
X82429270Y-93500500D01*
X82459699Y-93497646D01*
X82459701Y-93497646D01*
X82523790Y-93475219D01*
X82587882Y-93452793D01*
X82697150Y-93372150D01*
X82777793Y-93262882D01*
X82783459Y-93246688D01*
X82824180Y-93189913D01*
X82889133Y-93164166D01*
X82957695Y-93177622D01*
X83008097Y-93226010D01*
X83024500Y-93287644D01*
X83024500Y-94456616D01*
X83030914Y-94527196D01*
X83053600Y-94600000D01*
X83070485Y-94654187D01*
X83071635Y-94724047D01*
X83034834Y-94783439D01*
X82971765Y-94813507D01*
X82902452Y-94804703D01*
X82864418Y-94778757D01*
X82843345Y-94757684D01*
X82694124Y-94665643D01*
X82694119Y-94665641D01*
X82527697Y-94610494D01*
X82527690Y-94610493D01*
X82424986Y-94600000D01*
X81975000Y-94600000D01*
X81975000Y-95425000D01*
X83124999Y-95425000D01*
X83124999Y-95300028D01*
X83124998Y-95300013D01*
X83114506Y-95197304D01*
X83072346Y-95070077D01*
X83069944Y-95000248D01*
X83105675Y-94940206D01*
X83168195Y-94909013D01*
X83237655Y-94916573D01*
X83277733Y-94943391D01*
X83289811Y-94955469D01*
X83289813Y-94955470D01*
X83289815Y-94955472D01*
X83435394Y-95043478D01*
X83597804Y-95094086D01*
X83668384Y-95100500D01*
X83668387Y-95100500D01*
X84781613Y-95100500D01*
X84781616Y-95100500D01*
X84852196Y-95094086D01*
X85014606Y-95043478D01*
X85160185Y-94955472D01*
X85266754Y-94848903D01*
X89025000Y-94848903D01*
X89025000Y-95050000D01*
X92025000Y-95050000D01*
X92025000Y-94848903D01*
X92022102Y-94806175D01*
X91976168Y-94621476D01*
X91891609Y-94450977D01*
X91891607Y-94450974D01*
X91772367Y-94302633D01*
X91772366Y-94302632D01*
X91624025Y-94183392D01*
X91447611Y-94095899D01*
X91396299Y-94048478D01*
X91378770Y-93980843D01*
X91400589Y-93914468D01*
X91416259Y-93899999D01*
X92194357Y-93899999D01*
X92194357Y-93900000D01*
X92214884Y-94121535D01*
X92214885Y-94121537D01*
X92275769Y-94335523D01*
X92275775Y-94335538D01*
X92374938Y-94534683D01*
X92374943Y-94534691D01*
X92509020Y-94712238D01*
X92673437Y-94862123D01*
X92673439Y-94862125D01*
X92862595Y-94979245D01*
X92862596Y-94979245D01*
X92862599Y-94979247D01*
X93070060Y-95059618D01*
X93288757Y-95100500D01*
X93288759Y-95100500D01*
X93511241Y-95100500D01*
X93511243Y-95100500D01*
X93729940Y-95059618D01*
X93937401Y-94979247D01*
X94126562Y-94862124D01*
X94290981Y-94712236D01*
X94425058Y-94534689D01*
X94524229Y-94335528D01*
X94585115Y-94121536D01*
X94605643Y-93900000D01*
X94604098Y-93883331D01*
X94585115Y-93678464D01*
X94585114Y-93678462D01*
X94556346Y-93577354D01*
X94524229Y-93464472D01*
X94498463Y-93412727D01*
X94425061Y-93265316D01*
X94425056Y-93265308D01*
X94290979Y-93087761D01*
X94126562Y-92937876D01*
X94126560Y-92937874D01*
X93937404Y-92820754D01*
X93937398Y-92820752D01*
X93729940Y-92740382D01*
X93511243Y-92699500D01*
X93288757Y-92699500D01*
X93070060Y-92740382D01*
X92963282Y-92781748D01*
X92862601Y-92820752D01*
X92862595Y-92820754D01*
X92673439Y-92937874D01*
X92673437Y-92937876D01*
X92509020Y-93087761D01*
X92374943Y-93265308D01*
X92374938Y-93265316D01*
X92275775Y-93464461D01*
X92275769Y-93464476D01*
X92214885Y-93678462D01*
X92214884Y-93678464D01*
X92194357Y-93899999D01*
X91416259Y-93899999D01*
X91434311Y-93883331D01*
X91433785Y-93882645D01*
X91440230Y-93877698D01*
X91440233Y-93877698D01*
X91560451Y-93785451D01*
X91652698Y-93665233D01*
X91710687Y-93525236D01*
X91725500Y-93412720D01*
X91725500Y-92587280D01*
X91710687Y-92474764D01*
X91652698Y-92334767D01*
X91560451Y-92214549D01*
X91440233Y-92122302D01*
X91440229Y-92122300D01*
X91376801Y-92096027D01*
X91300236Y-92064313D01*
X91286171Y-92062461D01*
X91187727Y-92049500D01*
X91187720Y-92049500D01*
X89862280Y-92049500D01*
X89862272Y-92049500D01*
X89749764Y-92064313D01*
X89749763Y-92064313D01*
X89609770Y-92122300D01*
X89609767Y-92122301D01*
X89609767Y-92122302D01*
X89489549Y-92214549D01*
X89435419Y-92285093D01*
X89397300Y-92334770D01*
X89339313Y-92474763D01*
X89339313Y-92474764D01*
X89324500Y-92587272D01*
X89324500Y-93412727D01*
X89339313Y-93525235D01*
X89339313Y-93525236D01*
X89379479Y-93622206D01*
X89397302Y-93665233D01*
X89489549Y-93785451D01*
X89609767Y-93877698D01*
X89609769Y-93877698D01*
X89616215Y-93882645D01*
X89615347Y-93883775D01*
X89657507Y-93927987D01*
X89670732Y-93996594D01*
X89644766Y-94061459D01*
X89602388Y-94095899D01*
X89425974Y-94183392D01*
X89277633Y-94302632D01*
X89277632Y-94302633D01*
X89158392Y-94450974D01*
X89158390Y-94450977D01*
X89073831Y-94621476D01*
X89027897Y-94806175D01*
X89025000Y-94848903D01*
X85266754Y-94848903D01*
X85280472Y-94835185D01*
X85368478Y-94689606D01*
X85419086Y-94527196D01*
X85425500Y-94456616D01*
X85425500Y-92023609D01*
X92629942Y-92023609D01*
X92676768Y-92060055D01*
X92676770Y-92060056D01*
X92895385Y-92178364D01*
X92895396Y-92178369D01*
X93130506Y-92259083D01*
X93375707Y-92300000D01*
X93624293Y-92300000D01*
X93869493Y-92259083D01*
X94104603Y-92178369D01*
X94104614Y-92178364D01*
X94323228Y-92060057D01*
X94323231Y-92060055D01*
X94370056Y-92023609D01*
X93500000Y-91153553D01*
X92629942Y-92023609D01*
X85425500Y-92023609D01*
X85425500Y-91543384D01*
X85419086Y-91472804D01*
X85368478Y-91310394D01*
X85280472Y-91164815D01*
X85280470Y-91164813D01*
X85280469Y-91164811D01*
X85160188Y-91044530D01*
X85096632Y-91006109D01*
X85014606Y-90956522D01*
X84852196Y-90905914D01*
X84852194Y-90905913D01*
X84852192Y-90905913D01*
X84802778Y-90901423D01*
X84781616Y-90899500D01*
X83668384Y-90899500D01*
X83649145Y-90901248D01*
X83597807Y-90905913D01*
X83435393Y-90956522D01*
X83289811Y-91044530D01*
X83169530Y-91164811D01*
X83081522Y-91310393D01*
X83030913Y-91472807D01*
X83024500Y-91543386D01*
X83024500Y-92162355D01*
X83004815Y-92229394D01*
X82952011Y-92275149D01*
X82882853Y-92285093D01*
X82819297Y-92256068D01*
X82783459Y-92203311D01*
X82777793Y-92187119D01*
X82777793Y-92187118D01*
X82697150Y-92077850D01*
X82587882Y-91997207D01*
X82587880Y-91997206D01*
X82459700Y-91952353D01*
X82429270Y-91949500D01*
X82429266Y-91949500D01*
X81020734Y-91949500D01*
X81020730Y-91949500D01*
X80990300Y-91952353D01*
X80990298Y-91952353D01*
X80862119Y-91997206D01*
X80862117Y-91997207D01*
X80752850Y-92077850D01*
X80672207Y-92187117D01*
X80672206Y-92187119D01*
X80627353Y-92315298D01*
X80627353Y-92315300D01*
X80624500Y-92345730D01*
X75648938Y-92345730D01*
X75678879Y-92049376D01*
X75679480Y-92044436D01*
X75682436Y-92023609D01*
X75817413Y-91072457D01*
X75818206Y-91067576D01*
X75961202Y-90287272D01*
X89324500Y-90287272D01*
X89324500Y-91112727D01*
X89331358Y-91164815D01*
X89339313Y-91225236D01*
X89397302Y-91365233D01*
X89489549Y-91485451D01*
X89609767Y-91577698D01*
X89749764Y-91635687D01*
X89862280Y-91650500D01*
X89862287Y-91650500D01*
X91187713Y-91650500D01*
X91187720Y-91650500D01*
X91300236Y-91635687D01*
X91440233Y-91577698D01*
X91560451Y-91485451D01*
X91652698Y-91365233D01*
X91710687Y-91225236D01*
X91725500Y-91112720D01*
X91725500Y-90799994D01*
X91994859Y-90799994D01*
X91994859Y-90800005D01*
X92015385Y-91047729D01*
X92015387Y-91047738D01*
X92076412Y-91288717D01*
X92176266Y-91516364D01*
X92276564Y-91669882D01*
X93146447Y-90800000D01*
X93146447Y-90799999D01*
X93853553Y-90799999D01*
X93853553Y-90800000D01*
X94723434Y-91669882D01*
X94823731Y-91516369D01*
X94923587Y-91288717D01*
X94984612Y-91047738D01*
X94984614Y-91047729D01*
X95005141Y-90800005D01*
X95005141Y-90799994D01*
X94984614Y-90552270D01*
X94984612Y-90552261D01*
X94983493Y-90547844D01*
X106900000Y-90547844D01*
X106906401Y-90607372D01*
X106906403Y-90607379D01*
X106956645Y-90742086D01*
X106956649Y-90742093D01*
X107042809Y-90857187D01*
X107042812Y-90857190D01*
X107157906Y-90943350D01*
X107157913Y-90943354D01*
X107292620Y-90993596D01*
X107292627Y-90993598D01*
X107352155Y-90999999D01*
X107352172Y-91000000D01*
X108550000Y-91000000D01*
X109050000Y-91000000D01*
X110247828Y-91000000D01*
X110247844Y-90999999D01*
X110307372Y-90993598D01*
X110307379Y-90993596D01*
X110442086Y-90943354D01*
X110442093Y-90943350D01*
X110557187Y-90857190D01*
X110557190Y-90857187D01*
X110643350Y-90742093D01*
X110643354Y-90742086D01*
X110693596Y-90607379D01*
X110693598Y-90607372D01*
X110699999Y-90547844D01*
X112700000Y-90547844D01*
X112706401Y-90607372D01*
X112706403Y-90607379D01*
X112756645Y-90742086D01*
X112756649Y-90742093D01*
X112842809Y-90857187D01*
X112842812Y-90857190D01*
X112957906Y-90943350D01*
X112957913Y-90943354D01*
X113092620Y-90993596D01*
X113092627Y-90993598D01*
X113152155Y-90999999D01*
X113152172Y-91000000D01*
X114350000Y-91000000D01*
X114850000Y-91000000D01*
X114879382Y-91000000D01*
X114946421Y-91019685D01*
X114982481Y-91055105D01*
X114983448Y-91056552D01*
X114983449Y-91056553D01*
X114983450Y-91056554D01*
X115049769Y-91100867D01*
X115049770Y-91100868D01*
X115108247Y-91112499D01*
X115108250Y-91112500D01*
X115108252Y-91112500D01*
X116671750Y-91112500D01*
X116671751Y-91112499D01*
X116686568Y-91109552D01*
X116730229Y-91100868D01*
X116730229Y-91100867D01*
X116730231Y-91100867D01*
X116796552Y-91056552D01*
X116840867Y-90990231D01*
X116840867Y-90990229D01*
X116840868Y-90990229D01*
X116852499Y-90931752D01*
X116852500Y-90931750D01*
X116852500Y-89368249D01*
X116852499Y-89368247D01*
X116840868Y-89309770D01*
X116840867Y-89309769D01*
X116796552Y-89243447D01*
X116730230Y-89199132D01*
X116730229Y-89199131D01*
X116671752Y-89187500D01*
X116671748Y-89187500D01*
X116452712Y-89187500D01*
X116385673Y-89167815D01*
X116364465Y-89148069D01*
X116363456Y-89149079D01*
X116357186Y-89142809D01*
X116242088Y-89056647D01*
X116242086Y-89056645D01*
X116107379Y-89006403D01*
X116107372Y-89006401D01*
X116047844Y-89000000D01*
X114850000Y-89000000D01*
X114850000Y-91000000D01*
X114350000Y-91000000D01*
X114350000Y-90250000D01*
X112700000Y-90250000D01*
X112700000Y-90547844D01*
X110699999Y-90547844D01*
X110700000Y-90547827D01*
X110700000Y-90250000D01*
X109050000Y-90250000D01*
X109050000Y-91000000D01*
X108550000Y-91000000D01*
X108550000Y-90250000D01*
X106900000Y-90250000D01*
X106900000Y-90547844D01*
X94983493Y-90547844D01*
X94923587Y-90311282D01*
X94823731Y-90083630D01*
X94723434Y-89930116D01*
X93853553Y-90799999D01*
X93146447Y-90799999D01*
X92276564Y-89930116D01*
X92176267Y-90083632D01*
X92076412Y-90311282D01*
X92015387Y-90552261D01*
X92015385Y-90552270D01*
X91994859Y-90799994D01*
X91725500Y-90799994D01*
X91725500Y-90287280D01*
X91710687Y-90174764D01*
X91652698Y-90034767D01*
X91560451Y-89914549D01*
X91440233Y-89822302D01*
X91440229Y-89822300D01*
X91376801Y-89796027D01*
X91300236Y-89764313D01*
X91286171Y-89762461D01*
X91187727Y-89749500D01*
X91187720Y-89749500D01*
X89862280Y-89749500D01*
X89862272Y-89749500D01*
X89749764Y-89764313D01*
X89749763Y-89764313D01*
X89609770Y-89822300D01*
X89609767Y-89822301D01*
X89609767Y-89822302D01*
X89489549Y-89914549D01*
X89405457Y-90024140D01*
X89397300Y-90034770D01*
X89339313Y-90174763D01*
X89339313Y-90174764D01*
X89324500Y-90287272D01*
X75961202Y-90287272D01*
X75995171Y-90101911D01*
X75996168Y-90097032D01*
X75999186Y-90083632D01*
X76113427Y-89576388D01*
X92629942Y-89576388D01*
X92629942Y-89576390D01*
X93500000Y-90446447D01*
X93500001Y-90446447D01*
X94370057Y-89576390D01*
X94370056Y-89576389D01*
X94323229Y-89539943D01*
X94161010Y-89452155D01*
X106900000Y-89452155D01*
X106900000Y-89750000D01*
X108550000Y-89750000D01*
X109050000Y-89750000D01*
X110700000Y-89750000D01*
X110700000Y-89452172D01*
X110699999Y-89452155D01*
X112700000Y-89452155D01*
X112700000Y-89750000D01*
X114350000Y-89750000D01*
X114350000Y-89000000D01*
X113152155Y-89000000D01*
X113092627Y-89006401D01*
X113092620Y-89006403D01*
X112957913Y-89056645D01*
X112957906Y-89056649D01*
X112842812Y-89142809D01*
X112842809Y-89142812D01*
X112756649Y-89257906D01*
X112756645Y-89257913D01*
X112706403Y-89392620D01*
X112706401Y-89392627D01*
X112700000Y-89452155D01*
X110699999Y-89452155D01*
X110693598Y-89392627D01*
X110693596Y-89392620D01*
X110643354Y-89257913D01*
X110643350Y-89257906D01*
X110557190Y-89142812D01*
X110557187Y-89142809D01*
X110442093Y-89056649D01*
X110442086Y-89056645D01*
X110307379Y-89006403D01*
X110307372Y-89006401D01*
X110247844Y-89000000D01*
X109050000Y-89000000D01*
X109050000Y-89750000D01*
X108550000Y-89750000D01*
X108550000Y-89000000D01*
X107352155Y-89000000D01*
X107292627Y-89006401D01*
X107292620Y-89006403D01*
X107157913Y-89056645D01*
X107157906Y-89056649D01*
X107042812Y-89142809D01*
X107042809Y-89142812D01*
X106956649Y-89257906D01*
X106956645Y-89257913D01*
X106906403Y-89392620D01*
X106906401Y-89392627D01*
X106900000Y-89452155D01*
X94161010Y-89452155D01*
X94104614Y-89421635D01*
X94104603Y-89421630D01*
X93869493Y-89340916D01*
X93624293Y-89300000D01*
X93375707Y-89300000D01*
X93130506Y-89340916D01*
X92895396Y-89421630D01*
X92895390Y-89421632D01*
X92676761Y-89539949D01*
X92629942Y-89576388D01*
X76113427Y-89576388D01*
X76211866Y-89139304D01*
X76213056Y-89134477D01*
X76289285Y-88849986D01*
X83850001Y-88849986D01*
X83860494Y-88952697D01*
X83915641Y-89119119D01*
X83915643Y-89119124D01*
X84007684Y-89268345D01*
X84131654Y-89392315D01*
X84280875Y-89484356D01*
X84280880Y-89484358D01*
X84447302Y-89539505D01*
X84447309Y-89539506D01*
X84550019Y-89549999D01*
X84674999Y-89549999D01*
X85175000Y-89549999D01*
X85299972Y-89549999D01*
X85299986Y-89549998D01*
X85402697Y-89539505D01*
X85569119Y-89484358D01*
X85569124Y-89484356D01*
X85718345Y-89392315D01*
X85842315Y-89268345D01*
X85934356Y-89119124D01*
X85934358Y-89119119D01*
X85989505Y-88952697D01*
X85989506Y-88952690D01*
X85999999Y-88849986D01*
X86000000Y-88849973D01*
X86000000Y-88400000D01*
X85175000Y-88400000D01*
X85175000Y-89549999D01*
X84674999Y-89549999D01*
X84675000Y-89549998D01*
X84675000Y-88400000D01*
X83850001Y-88400000D01*
X83850001Y-88849986D01*
X76289285Y-88849986D01*
X76467155Y-88186167D01*
X76468524Y-88181444D01*
X76696447Y-87450013D01*
X83850000Y-87450013D01*
X83850000Y-87900000D01*
X84675000Y-87900000D01*
X85175000Y-87900000D01*
X85999999Y-87900000D01*
X85999999Y-87450028D01*
X85999998Y-87450013D01*
X85989505Y-87347302D01*
X85934358Y-87180880D01*
X85934353Y-87180869D01*
X85847523Y-87040097D01*
X85829082Y-86972705D01*
X85847523Y-86909903D01*
X85934353Y-86769130D01*
X85934358Y-86769119D01*
X85989505Y-86602697D01*
X85989506Y-86602690D01*
X85999999Y-86499986D01*
X86000000Y-86499973D01*
X86000000Y-86050000D01*
X85175000Y-86050000D01*
X85175000Y-87900000D01*
X84675000Y-87900000D01*
X84675000Y-86050000D01*
X83850001Y-86050000D01*
X83850001Y-86499986D01*
X83860494Y-86602697D01*
X83915641Y-86769119D01*
X83915643Y-86769124D01*
X84002477Y-86909903D01*
X84020917Y-86977296D01*
X84002477Y-87040097D01*
X83915643Y-87180875D01*
X83915641Y-87180880D01*
X83860494Y-87347302D01*
X83860493Y-87347309D01*
X83850000Y-87450013D01*
X76696447Y-87450013D01*
X76760599Y-87244140D01*
X76762144Y-87239508D01*
X77091747Y-86314665D01*
X77093489Y-86310073D01*
X77460047Y-85399291D01*
X77461965Y-85394788D01*
X77594632Y-85100013D01*
X83850000Y-85100013D01*
X83850000Y-85550000D01*
X84675000Y-85550000D01*
X85175000Y-85550000D01*
X85999999Y-85550000D01*
X85999999Y-85100028D01*
X85999998Y-85100013D01*
X85999560Y-85095730D01*
X87099500Y-85095730D01*
X87099500Y-86504269D01*
X87102353Y-86534699D01*
X87102353Y-86534701D01*
X87140793Y-86644552D01*
X87147207Y-86662882D01*
X87227850Y-86772150D01*
X87337118Y-86852793D01*
X87351884Y-86857959D01*
X87408658Y-86898682D01*
X87434404Y-86963635D01*
X87420947Y-87032196D01*
X87372559Y-87082598D01*
X87351887Y-87092038D01*
X87337118Y-87097207D01*
X87337117Y-87097207D01*
X87337116Y-87097208D01*
X87227850Y-87177850D01*
X87147207Y-87287117D01*
X87147206Y-87287119D01*
X87102353Y-87415298D01*
X87102353Y-87415300D01*
X87099500Y-87445730D01*
X87099500Y-88854269D01*
X87102353Y-88884699D01*
X87102353Y-88884701D01*
X87142699Y-89000000D01*
X87147207Y-89012882D01*
X87227850Y-89122150D01*
X87337118Y-89202793D01*
X87379845Y-89217744D01*
X87465299Y-89247646D01*
X87495730Y-89250500D01*
X87495734Y-89250500D01*
X88254270Y-89250500D01*
X88284699Y-89247646D01*
X88284701Y-89247646D01*
X88348790Y-89225219D01*
X88412882Y-89202793D01*
X88522150Y-89122150D01*
X88602793Y-89012882D01*
X88625219Y-88948790D01*
X88647646Y-88884701D01*
X88647646Y-88884699D01*
X88650500Y-88854269D01*
X88650500Y-87699999D01*
X92294357Y-87699999D01*
X92294357Y-87700000D01*
X92314884Y-87921535D01*
X92314885Y-87921537D01*
X92375769Y-88135523D01*
X92375775Y-88135538D01*
X92474938Y-88334683D01*
X92474943Y-88334691D01*
X92609020Y-88512238D01*
X92773437Y-88662123D01*
X92773439Y-88662125D01*
X92962595Y-88779245D01*
X92962596Y-88779245D01*
X92962599Y-88779247D01*
X93170060Y-88859618D01*
X93388757Y-88900500D01*
X93388759Y-88900500D01*
X93611241Y-88900500D01*
X93611243Y-88900500D01*
X93829940Y-88859618D01*
X94037401Y-88779247D01*
X94226562Y-88662124D01*
X94390981Y-88512236D01*
X94525058Y-88334689D01*
X94624229Y-88135528D01*
X94685115Y-87921536D01*
X94705643Y-87700000D01*
X94685115Y-87478464D01*
X94624229Y-87264472D01*
X94576327Y-87168273D01*
X94564066Y-87099490D01*
X94590939Y-87034995D01*
X94599637Y-87025332D01*
X95577220Y-86047749D01*
X95638541Y-86014266D01*
X95684297Y-86012959D01*
X95763475Y-86025499D01*
X95763481Y-86025500D01*
X96226518Y-86025499D01*
X96226522Y-86025499D01*
X96251102Y-86021606D01*
X96320396Y-86030561D01*
X96373848Y-86075557D01*
X96394487Y-86142308D01*
X96394500Y-86144079D01*
X96394500Y-86514151D01*
X96374815Y-86581190D01*
X96322011Y-86626945D01*
X96293289Y-86636039D01*
X96270065Y-86640380D01*
X96270060Y-86640382D01*
X96062601Y-86720751D01*
X96062595Y-86720754D01*
X95873439Y-86837874D01*
X95873437Y-86837876D01*
X95709020Y-86987761D01*
X95574943Y-87165308D01*
X95574938Y-87165316D01*
X95475775Y-87364461D01*
X95475769Y-87364476D01*
X95414885Y-87578462D01*
X95414884Y-87578464D01*
X95394357Y-87799999D01*
X95394357Y-87800000D01*
X95414884Y-88021535D01*
X95414885Y-88021537D01*
X95475769Y-88235523D01*
X95475775Y-88235538D01*
X95574938Y-88434683D01*
X95574943Y-88434691D01*
X95709020Y-88612238D01*
X95873437Y-88762123D01*
X95873439Y-88762125D01*
X96062595Y-88879245D01*
X96062596Y-88879245D01*
X96062599Y-88879247D01*
X96270060Y-88959618D01*
X96488757Y-89000500D01*
X96488759Y-89000500D01*
X96711241Y-89000500D01*
X96711243Y-89000500D01*
X96929940Y-88959618D01*
X97137401Y-88879247D01*
X97326562Y-88762124D01*
X97490981Y-88612236D01*
X97625058Y-88434689D01*
X97724229Y-88235528D01*
X97772678Y-88065247D01*
X117719500Y-88065247D01*
X117719500Y-90704752D01*
X117731131Y-90763229D01*
X117731132Y-90763230D01*
X117775447Y-90829552D01*
X117841769Y-90873867D01*
X117841770Y-90873868D01*
X117900247Y-90885499D01*
X117900250Y-90885500D01*
X117900252Y-90885500D01*
X120989750Y-90885500D01*
X120989751Y-90885499D01*
X121004568Y-90882552D01*
X121048229Y-90873868D01*
X121048229Y-90873867D01*
X121048231Y-90873867D01*
X121114552Y-90829552D01*
X121158867Y-90763231D01*
X121158867Y-90763229D01*
X121158868Y-90763229D01*
X121170499Y-90704752D01*
X121170500Y-90704750D01*
X121170500Y-88065249D01*
X121170499Y-88065247D01*
X121158868Y-88006770D01*
X121158867Y-88006769D01*
X121114552Y-87940447D01*
X121048230Y-87896132D01*
X121048229Y-87896131D01*
X120989752Y-87884500D01*
X120989748Y-87884500D01*
X117900252Y-87884500D01*
X117900247Y-87884500D01*
X117841770Y-87896131D01*
X117841769Y-87896132D01*
X117775447Y-87940447D01*
X117731132Y-88006769D01*
X117731131Y-88006770D01*
X117719500Y-88065247D01*
X97772678Y-88065247D01*
X97785115Y-88021536D01*
X97805643Y-87800000D01*
X97803101Y-87772572D01*
X97785115Y-87578464D01*
X97785114Y-87578462D01*
X97781329Y-87565160D01*
X97724229Y-87364472D01*
X97724224Y-87364461D01*
X97625061Y-87165316D01*
X97625056Y-87165308D01*
X97490979Y-86987761D01*
X97326562Y-86837876D01*
X97326560Y-86837874D01*
X97137404Y-86720754D01*
X97137398Y-86720752D01*
X97074705Y-86696464D01*
X97019305Y-86653892D01*
X96995714Y-86588125D01*
X96995500Y-86580838D01*
X96995500Y-86041255D01*
X97015185Y-85974216D01*
X97067989Y-85928461D01*
X97137147Y-85918517D01*
X97200703Y-85947542D01*
X97206474Y-85952916D01*
X97206653Y-85953045D01*
X97206658Y-85953050D01*
X97319694Y-86010645D01*
X97319698Y-86010647D01*
X97413475Y-86025499D01*
X97413481Y-86025500D01*
X97876518Y-86025499D01*
X97970304Y-86010646D01*
X98083342Y-85953050D01*
X98173050Y-85863342D01*
X98230646Y-85750304D01*
X98230646Y-85750302D01*
X98230647Y-85750301D01*
X98233663Y-85741020D01*
X98236174Y-85741836D01*
X98259820Y-85691963D01*
X98319134Y-85655034D01*
X98352360Y-85650500D01*
X98433000Y-85650500D01*
X98500039Y-85670185D01*
X98545794Y-85722989D01*
X98557000Y-85774500D01*
X98557000Y-86459768D01*
X98559813Y-86489769D01*
X98559815Y-86489781D01*
X98604044Y-86616178D01*
X98604045Y-86616180D01*
X98683569Y-86723930D01*
X98791319Y-86803454D01*
X98791321Y-86803455D01*
X98917718Y-86847684D01*
X98917722Y-86847684D01*
X98917726Y-86847686D01*
X98931739Y-86849000D01*
X98947732Y-86850500D01*
X98947736Y-86850500D01*
X99542268Y-86850500D01*
X99555601Y-86849249D01*
X99572274Y-86847686D01*
X99572278Y-86847684D01*
X99572281Y-86847684D01*
X99643345Y-86822816D01*
X99698679Y-86803455D01*
X99806430Y-86723930D01*
X99885955Y-86616179D01*
X99912478Y-86540382D01*
X99930184Y-86489781D01*
X99930184Y-86489778D01*
X99930186Y-86489774D01*
X99933000Y-86459764D01*
X99933000Y-85440236D01*
X99933000Y-85440231D01*
X100432000Y-85440231D01*
X100432000Y-86459768D01*
X100434813Y-86489769D01*
X100434815Y-86489781D01*
X100479044Y-86616178D01*
X100479045Y-86616180D01*
X100558569Y-86723930D01*
X100666319Y-86803454D01*
X100666321Y-86803455D01*
X100792718Y-86847684D01*
X100792722Y-86847684D01*
X100792726Y-86847686D01*
X100806739Y-86849000D01*
X100822732Y-86850500D01*
X100822736Y-86850500D01*
X101417268Y-86850500D01*
X101430601Y-86849249D01*
X101447274Y-86847686D01*
X101447278Y-86847684D01*
X101447281Y-86847684D01*
X101518345Y-86822816D01*
X101573679Y-86803455D01*
X101681430Y-86723930D01*
X101760955Y-86616179D01*
X101787478Y-86540382D01*
X101805184Y-86489781D01*
X101805184Y-86489778D01*
X101805186Y-86489774D01*
X101808000Y-86459764D01*
X101808000Y-85440236D01*
X101805186Y-85410226D01*
X101805184Y-85410222D01*
X101805184Y-85410218D01*
X101760955Y-85283821D01*
X101760954Y-85283819D01*
X101681430Y-85176069D01*
X101573681Y-85096546D01*
X101573679Y-85096545D01*
X101541043Y-85085125D01*
X101484268Y-85044402D01*
X101458522Y-84979449D01*
X101458000Y-84968084D01*
X101458000Y-84845037D01*
X101477685Y-84777998D01*
X101530489Y-84732243D01*
X101541027Y-84728002D01*
X101611179Y-84703455D01*
X101718930Y-84623930D01*
X101798455Y-84516179D01*
X101830185Y-84425500D01*
X101842684Y-84389781D01*
X101842684Y-84389778D01*
X101842686Y-84389774D01*
X101845500Y-84359764D01*
X101845500Y-83340236D01*
X101842686Y-83310226D01*
X101842684Y-83310222D01*
X101842684Y-83310218D01*
X101798455Y-83183821D01*
X101798454Y-83183819D01*
X101718930Y-83076069D01*
X101611180Y-82996545D01*
X101611178Y-82996544D01*
X101484781Y-82952315D01*
X101484769Y-82952313D01*
X101454768Y-82949500D01*
X101454764Y-82949500D01*
X100860236Y-82949500D01*
X100860232Y-82949500D01*
X100830230Y-82952313D01*
X100830218Y-82952315D01*
X100703821Y-82996544D01*
X100703819Y-82996545D01*
X100596069Y-83076069D01*
X100516545Y-83183819D01*
X100516544Y-83183821D01*
X100472315Y-83310218D01*
X100472313Y-83310230D01*
X100469500Y-83340231D01*
X100469500Y-84359768D01*
X100472313Y-84389769D01*
X100472315Y-84389781D01*
X100516544Y-84516178D01*
X100516545Y-84516180D01*
X100596069Y-84623930D01*
X100674282Y-84681654D01*
X100703821Y-84703455D01*
X100773957Y-84727996D01*
X100830731Y-84768717D01*
X100856478Y-84833670D01*
X100857000Y-84845037D01*
X100857000Y-84941840D01*
X100837315Y-85008879D01*
X100784511Y-85054634D01*
X100773956Y-85058881D01*
X100666319Y-85096545D01*
X100558569Y-85176069D01*
X100479045Y-85283819D01*
X100479044Y-85283821D01*
X100434815Y-85410218D01*
X100434813Y-85410230D01*
X100432000Y-85440231D01*
X99933000Y-85440231D01*
X99930186Y-85410226D01*
X99930184Y-85410222D01*
X99930184Y-85410218D01*
X99885955Y-85283821D01*
X99885954Y-85283819D01*
X99806430Y-85176069D01*
X99698680Y-85096545D01*
X99698678Y-85096544D01*
X99572281Y-85052315D01*
X99572269Y-85052313D01*
X99542268Y-85049500D01*
X99542264Y-85049500D01*
X98947736Y-85049500D01*
X98947732Y-85049500D01*
X98917728Y-85052313D01*
X98854321Y-85074500D01*
X98784542Y-85078061D01*
X98765917Y-85072020D01*
X98760993Y-85069980D01*
X98743527Y-85065300D01*
X98684562Y-85049500D01*
X98684560Y-85049500D01*
X98352360Y-85049500D01*
X98285321Y-85029815D01*
X98239566Y-84977011D01*
X98234088Y-84958842D01*
X98233663Y-84958981D01*
X98230647Y-84949699D01*
X98230646Y-84949697D01*
X98230646Y-84949696D01*
X98173050Y-84836658D01*
X98173046Y-84836654D01*
X98173045Y-84836652D01*
X98083347Y-84746954D01*
X98083344Y-84746952D01*
X98083342Y-84746950D01*
X97995816Y-84702353D01*
X97970301Y-84689352D01*
X97876524Y-84674500D01*
X97413482Y-84674500D01*
X97332519Y-84687323D01*
X97319696Y-84689354D01*
X97206658Y-84746950D01*
X97206657Y-84746951D01*
X97198759Y-84752689D01*
X97197893Y-84751497D01*
X97145858Y-84779911D01*
X97076166Y-84774927D01*
X97020233Y-84733055D01*
X96995816Y-84667591D01*
X96995500Y-84658745D01*
X96995500Y-84441255D01*
X97015185Y-84374216D01*
X97067989Y-84328461D01*
X97137147Y-84318517D01*
X97200703Y-84347542D01*
X97206474Y-84352916D01*
X97206653Y-84353045D01*
X97206658Y-84353050D01*
X97319288Y-84410438D01*
X97319698Y-84410647D01*
X97413475Y-84425499D01*
X97413481Y-84425500D01*
X97876518Y-84425499D01*
X97970304Y-84410646D01*
X98083342Y-84353050D01*
X98173050Y-84263342D01*
X98230646Y-84150304D01*
X98230646Y-84150302D01*
X98230647Y-84150301D01*
X98233663Y-84141020D01*
X98236174Y-84141836D01*
X98259820Y-84091963D01*
X98319134Y-84055034D01*
X98352360Y-84050500D01*
X98470500Y-84050500D01*
X98537539Y-84070185D01*
X98583294Y-84122989D01*
X98594500Y-84174500D01*
X98594500Y-84359768D01*
X98597313Y-84389769D01*
X98597315Y-84389781D01*
X98641544Y-84516178D01*
X98641545Y-84516180D01*
X98721069Y-84623930D01*
X98828819Y-84703454D01*
X98828821Y-84703455D01*
X98955218Y-84747684D01*
X98955222Y-84747684D01*
X98955226Y-84747686D01*
X98970231Y-84749093D01*
X98985232Y-84750500D01*
X98985236Y-84750500D01*
X99579768Y-84750500D01*
X99593101Y-84749249D01*
X99609774Y-84747686D01*
X99609778Y-84747684D01*
X99609781Y-84747684D01*
X99680845Y-84722816D01*
X99736179Y-84703455D01*
X99843930Y-84623930D01*
X99923455Y-84516179D01*
X99955185Y-84425500D01*
X99967684Y-84389781D01*
X99967684Y-84389778D01*
X99967686Y-84389774D01*
X99970500Y-84359764D01*
X99970500Y-83340236D01*
X99967686Y-83310226D01*
X99967684Y-83310222D01*
X99967684Y-83310218D01*
X99923455Y-83183821D01*
X99923454Y-83183819D01*
X99843930Y-83076069D01*
X99736180Y-82996545D01*
X99736178Y-82996544D01*
X99609781Y-82952315D01*
X99609769Y-82952313D01*
X99579768Y-82949500D01*
X99579764Y-82949500D01*
X98985236Y-82949500D01*
X98985232Y-82949500D01*
X98955230Y-82952313D01*
X98955218Y-82952315D01*
X98828821Y-82996544D01*
X98828819Y-82996545D01*
X98721069Y-83076069D01*
X98641545Y-83183819D01*
X98641544Y-83183821D01*
X98597315Y-83310218D01*
X98597313Y-83310230D01*
X98594796Y-83337076D01*
X98568939Y-83401985D01*
X98512095Y-83442611D01*
X98471338Y-83449500D01*
X98352360Y-83449500D01*
X98285321Y-83429815D01*
X98239566Y-83377011D01*
X98234088Y-83358842D01*
X98233663Y-83358981D01*
X98230647Y-83349699D01*
X98230646Y-83349697D01*
X98230646Y-83349696D01*
X98173050Y-83236658D01*
X98173046Y-83236654D01*
X98173045Y-83236652D01*
X98083347Y-83146954D01*
X98083344Y-83146952D01*
X98083342Y-83146950D01*
X97991186Y-83099994D01*
X97970301Y-83089352D01*
X97876524Y-83074500D01*
X97413482Y-83074500D01*
X97332519Y-83087323D01*
X97319696Y-83089354D01*
X97206658Y-83146950D01*
X97206657Y-83146951D01*
X97206652Y-83146954D01*
X97116954Y-83236652D01*
X97116951Y-83236657D01*
X97059352Y-83349698D01*
X97044500Y-83443475D01*
X97044500Y-84056520D01*
X97044649Y-84057456D01*
X97044602Y-84057814D01*
X97044883Y-84061380D01*
X97044133Y-84061438D01*
X97035686Y-84126748D01*
X96990684Y-84180195D01*
X96923930Y-84200828D01*
X96856618Y-84182095D01*
X96834492Y-84164521D01*
X96631818Y-83961847D01*
X96598333Y-83900524D01*
X96595499Y-83874166D01*
X96595499Y-83443482D01*
X96595361Y-83442611D01*
X96580646Y-83349696D01*
X96523050Y-83236658D01*
X96523046Y-83236654D01*
X96523045Y-83236652D01*
X96433347Y-83146954D01*
X96433344Y-83146952D01*
X96433342Y-83146950D01*
X96341186Y-83099994D01*
X96320301Y-83089352D01*
X96226524Y-83074500D01*
X96226519Y-83074500D01*
X96224500Y-83074500D01*
X96223758Y-83074282D01*
X96221669Y-83074118D01*
X96221703Y-83073678D01*
X96157461Y-83054815D01*
X96111706Y-83002011D01*
X96100500Y-82950500D01*
X96100500Y-82924499D01*
X96120185Y-82857460D01*
X96172989Y-82811705D01*
X96224495Y-82800499D01*
X96388400Y-82800499D01*
X96465117Y-82785240D01*
X96481107Y-82774555D01*
X96547783Y-82753676D01*
X96615164Y-82772159D01*
X96618871Y-82774541D01*
X96625911Y-82779245D01*
X96634883Y-82785240D01*
X96634887Y-82785241D01*
X96673241Y-82792870D01*
X96711599Y-82800500D01*
X96888400Y-82800499D01*
X96965117Y-82785240D01*
X97052112Y-82727112D01*
X97110240Y-82640117D01*
X97125500Y-82563401D01*
X97125500Y-82424500D01*
X97145185Y-82357461D01*
X97197989Y-82311706D01*
X97249500Y-82300500D01*
X98473343Y-82300500D01*
X98540382Y-82320185D01*
X98586137Y-82372989D01*
X98589445Y-82381486D01*
X98606445Y-82414851D01*
X98651472Y-82503220D01*
X98651474Y-82503222D01*
X98651476Y-82503225D01*
X98746774Y-82598523D01*
X98746778Y-82598526D01*
X98746780Y-82598528D01*
X98866874Y-82659719D01*
X98866876Y-82659719D01*
X98866878Y-82659720D01*
X98966507Y-82675500D01*
X98966512Y-82675500D01*
X99483493Y-82675500D01*
X99583121Y-82659720D01*
X99583121Y-82659719D01*
X99583126Y-82659719D01*
X99703220Y-82598528D01*
X99798528Y-82503220D01*
X99859719Y-82383126D01*
X99863784Y-82357461D01*
X99875500Y-82283493D01*
X99875500Y-81716506D01*
X100124500Y-81716506D01*
X100124500Y-82283493D01*
X100140279Y-82383121D01*
X100140280Y-82383124D01*
X100140281Y-82383126D01*
X100201472Y-82503220D01*
X100201473Y-82503221D01*
X100201476Y-82503225D01*
X100296774Y-82598523D01*
X100296778Y-82598526D01*
X100296780Y-82598528D01*
X100416874Y-82659719D01*
X100416876Y-82659719D01*
X100416878Y-82659720D01*
X100516507Y-82675500D01*
X100516512Y-82675500D01*
X101033493Y-82675500D01*
X101133121Y-82659720D01*
X101133121Y-82659719D01*
X101133126Y-82659719D01*
X101253220Y-82598528D01*
X101348528Y-82503220D01*
X101409719Y-82383126D01*
X101409719Y-82383124D01*
X101414149Y-82374431D01*
X101416085Y-82375417D01*
X101448164Y-82328506D01*
X101512523Y-82301308D01*
X101526657Y-82300500D01*
X102424167Y-82300500D01*
X102491206Y-82320185D01*
X102511848Y-82336819D01*
X104463181Y-84288152D01*
X104496666Y-84349475D01*
X104499500Y-84375833D01*
X104499500Y-84667640D01*
X104479815Y-84734679D01*
X104427011Y-84780434D01*
X104408842Y-84785911D01*
X104408981Y-84786337D01*
X104399699Y-84789352D01*
X104344297Y-84817580D01*
X104286658Y-84846950D01*
X104286657Y-84846951D01*
X104286652Y-84846954D01*
X104196954Y-84936652D01*
X104196951Y-84936657D01*
X104196950Y-84936658D01*
X104185647Y-84958842D01*
X104139352Y-85049698D01*
X104124500Y-85143475D01*
X104124500Y-85606517D01*
X104134584Y-85670185D01*
X104139354Y-85700304D01*
X104196950Y-85813342D01*
X104196952Y-85813344D01*
X104196954Y-85813347D01*
X104286652Y-85903045D01*
X104286654Y-85903046D01*
X104286658Y-85903050D01*
X104384788Y-85953050D01*
X104399698Y-85960647D01*
X104493475Y-85975499D01*
X104493481Y-85975500D01*
X105106518Y-85975499D01*
X105200304Y-85960646D01*
X105313342Y-85903050D01*
X105403050Y-85813342D01*
X105413311Y-85793204D01*
X105461286Y-85742409D01*
X105523795Y-85725500D01*
X105534932Y-85725500D01*
X105601971Y-85745185D01*
X105645415Y-85793203D01*
X105701472Y-85903220D01*
X105701474Y-85903222D01*
X105701476Y-85903225D01*
X105720424Y-85922173D01*
X105753909Y-85983496D01*
X105748925Y-86053188D01*
X105707053Y-86109121D01*
X105697841Y-86115392D01*
X105597268Y-86177426D01*
X105477426Y-86297268D01*
X105404475Y-86415539D01*
X105352527Y-86462263D01*
X105283564Y-86473484D01*
X105242643Y-86460926D01*
X105200304Y-86439353D01*
X105200301Y-86439352D01*
X105106524Y-86424500D01*
X104493482Y-86424500D01*
X104412519Y-86437323D01*
X104399696Y-86439354D01*
X104286658Y-86496950D01*
X104286657Y-86496951D01*
X104286652Y-86496954D01*
X104196954Y-86586652D01*
X104196951Y-86586657D01*
X104196950Y-86586658D01*
X104188778Y-86602697D01*
X104139352Y-86699698D01*
X104124500Y-86793475D01*
X104124500Y-87256517D01*
X104125761Y-87264476D01*
X104139354Y-87350304D01*
X104196950Y-87463342D01*
X104196952Y-87463344D01*
X104196954Y-87463347D01*
X104286652Y-87553045D01*
X104286654Y-87553046D01*
X104286658Y-87553050D01*
X104399500Y-87610546D01*
X104399698Y-87610647D01*
X104493475Y-87625499D01*
X104493481Y-87625500D01*
X105106518Y-87625499D01*
X105200304Y-87610646D01*
X105289576Y-87565159D01*
X105358242Y-87552264D01*
X105422983Y-87578540D01*
X105451405Y-87610546D01*
X105477424Y-87652729D01*
X105597267Y-87772572D01*
X105597271Y-87772575D01*
X105741507Y-87861542D01*
X105741518Y-87861547D01*
X105902393Y-87914855D01*
X106001683Y-87924999D01*
X106550000Y-87924999D01*
X106598308Y-87924999D01*
X106598322Y-87924998D01*
X106697607Y-87914855D01*
X106858481Y-87861547D01*
X106858492Y-87861542D01*
X107002728Y-87772575D01*
X107002732Y-87772572D01*
X107122572Y-87652732D01*
X107122575Y-87652728D01*
X107211542Y-87508492D01*
X107211547Y-87508481D01*
X107264855Y-87347606D01*
X107274999Y-87248322D01*
X107275000Y-87248309D01*
X107275000Y-87225000D01*
X106550000Y-87225000D01*
X106550000Y-87924999D01*
X106001683Y-87924999D01*
X106049999Y-87924998D01*
X106050000Y-87924998D01*
X106050000Y-86849000D01*
X106069685Y-86781961D01*
X106122489Y-86736206D01*
X106174000Y-86725000D01*
X107282454Y-86725000D01*
X107327350Y-86700484D01*
X107374170Y-86700066D01*
X107374187Y-86699903D01*
X107375706Y-86700052D01*
X107377902Y-86700033D01*
X107380249Y-86700500D01*
X107380252Y-86700500D01*
X110219750Y-86700500D01*
X110219751Y-86700499D01*
X110234568Y-86697552D01*
X110278229Y-86688868D01*
X110278229Y-86688867D01*
X110278231Y-86688867D01*
X110344552Y-86644552D01*
X110388867Y-86578231D01*
X110388867Y-86578229D01*
X110388868Y-86578229D01*
X110400499Y-86519752D01*
X110400500Y-86519750D01*
X110400500Y-86424500D01*
X110420185Y-86357461D01*
X110472989Y-86311706D01*
X110524500Y-86300500D01*
X112875500Y-86300500D01*
X112942539Y-86320185D01*
X112988294Y-86372989D01*
X112999500Y-86424500D01*
X112999500Y-86519752D01*
X113011131Y-86578229D01*
X113011132Y-86578230D01*
X113055447Y-86644552D01*
X113121769Y-86688867D01*
X113121770Y-86688868D01*
X113180247Y-86700499D01*
X113180250Y-86700500D01*
X113180252Y-86700500D01*
X116019750Y-86700500D01*
X116019751Y-86700499D01*
X116034568Y-86697552D01*
X116078229Y-86688868D01*
X116078229Y-86688867D01*
X116078231Y-86688867D01*
X116144552Y-86644552D01*
X116188867Y-86578231D01*
X116188867Y-86578229D01*
X116188868Y-86578229D01*
X116200499Y-86519752D01*
X116200500Y-86519750D01*
X116200500Y-85480249D01*
X116200499Y-85480247D01*
X116188868Y-85421770D01*
X116188867Y-85421769D01*
X116144552Y-85355447D01*
X116078230Y-85311132D01*
X116078229Y-85311131D01*
X116019752Y-85299500D01*
X116019748Y-85299500D01*
X113180252Y-85299500D01*
X113180247Y-85299500D01*
X113121770Y-85311131D01*
X113121769Y-85311132D01*
X113055447Y-85355447D01*
X113011132Y-85421769D01*
X113011131Y-85421770D01*
X112999500Y-85480247D01*
X112999500Y-85575500D01*
X112979815Y-85642539D01*
X112927011Y-85688294D01*
X112875500Y-85699500D01*
X110524500Y-85699500D01*
X110457461Y-85679815D01*
X110411706Y-85627011D01*
X110400500Y-85575500D01*
X110400500Y-85480249D01*
X110400499Y-85480247D01*
X110388868Y-85421770D01*
X110388867Y-85421769D01*
X110344552Y-85355447D01*
X110278230Y-85311132D01*
X110278229Y-85311131D01*
X110219752Y-85299500D01*
X110219748Y-85299500D01*
X107380252Y-85299500D01*
X107380247Y-85299500D01*
X107321770Y-85311131D01*
X107321769Y-85311132D01*
X107255447Y-85355447D01*
X107204348Y-85431923D01*
X107201639Y-85430113D01*
X107170218Y-85469104D01*
X107103924Y-85491168D01*
X107036225Y-85473888D01*
X106988615Y-85422750D01*
X106975500Y-85367247D01*
X106975500Y-85166506D01*
X106959720Y-85066878D01*
X106959719Y-85066876D01*
X106959719Y-85066874D01*
X106898528Y-84946780D01*
X106898526Y-84946778D01*
X106898523Y-84946774D01*
X106803225Y-84851476D01*
X106803221Y-84851473D01*
X106803220Y-84851472D01*
X106683126Y-84790281D01*
X106683124Y-84790280D01*
X106683121Y-84790279D01*
X106583493Y-84774500D01*
X106583488Y-84774500D01*
X106016512Y-84774500D01*
X106016507Y-84774500D01*
X105916878Y-84790279D01*
X105796778Y-84851473D01*
X105796774Y-84851476D01*
X105701476Y-84946774D01*
X105701471Y-84946781D01*
X105665323Y-85017725D01*
X105617348Y-85068520D01*
X105549527Y-85085315D01*
X105483393Y-85062777D01*
X105444356Y-85017725D01*
X105403050Y-84936658D01*
X105403047Y-84936655D01*
X105403045Y-84936652D01*
X105313347Y-84846954D01*
X105313344Y-84846952D01*
X105313342Y-84846950D01*
X105236517Y-84807805D01*
X105200301Y-84789352D01*
X105191020Y-84786337D01*
X105191836Y-84783825D01*
X105141963Y-84760180D01*
X105105034Y-84700866D01*
X105100500Y-84667640D01*
X105100500Y-84323609D01*
X106929942Y-84323609D01*
X106976768Y-84360055D01*
X106976770Y-84360056D01*
X107195385Y-84478364D01*
X107195396Y-84478369D01*
X107430506Y-84559083D01*
X107675707Y-84600000D01*
X107924293Y-84600000D01*
X108169493Y-84559083D01*
X108404603Y-84478369D01*
X108404614Y-84478364D01*
X108623228Y-84360057D01*
X108623231Y-84360055D01*
X108670056Y-84323609D01*
X107800000Y-83453553D01*
X106929942Y-84323609D01*
X105100500Y-84323609D01*
X105100500Y-84160439D01*
X105100500Y-84160438D01*
X105080021Y-84084011D01*
X105060674Y-84050500D01*
X105040464Y-84015495D01*
X105040458Y-84015487D01*
X104124965Y-83099994D01*
X106294859Y-83099994D01*
X106294859Y-83100005D01*
X106315385Y-83347729D01*
X106315387Y-83347738D01*
X106376412Y-83588717D01*
X106476266Y-83816364D01*
X106576564Y-83969882D01*
X107446447Y-83100000D01*
X107446447Y-83099999D01*
X108153553Y-83099999D01*
X108153553Y-83100001D01*
X109023434Y-83969882D01*
X109123731Y-83816369D01*
X109223587Y-83588717D01*
X109284612Y-83347738D01*
X109284614Y-83347729D01*
X109305141Y-83100005D01*
X109305141Y-83099994D01*
X109284614Y-82852270D01*
X109284612Y-82852261D01*
X109223587Y-82611282D01*
X109123731Y-82383630D01*
X109023434Y-82230116D01*
X108153553Y-83099999D01*
X107446447Y-83099999D01*
X106576564Y-82230116D01*
X106476267Y-82383632D01*
X106376412Y-82611282D01*
X106315387Y-82852261D01*
X106315385Y-82852270D01*
X106294859Y-83099994D01*
X104124965Y-83099994D01*
X102784512Y-81759541D01*
X102784504Y-81759535D01*
X102715995Y-81719982D01*
X102715990Y-81719979D01*
X102690513Y-81713152D01*
X102639562Y-81699500D01*
X102639560Y-81699500D01*
X101526657Y-81699500D01*
X101459618Y-81679815D01*
X101413863Y-81627011D01*
X101410554Y-81618513D01*
X101400866Y-81599500D01*
X101348528Y-81496780D01*
X101348524Y-81496776D01*
X101348523Y-81496774D01*
X101253225Y-81401476D01*
X101253221Y-81401473D01*
X101253220Y-81401472D01*
X101133126Y-81340281D01*
X101133124Y-81340280D01*
X101133121Y-81340279D01*
X101033493Y-81324500D01*
X101033488Y-81324500D01*
X100516512Y-81324500D01*
X100516507Y-81324500D01*
X100416878Y-81340279D01*
X100296778Y-81401473D01*
X100296774Y-81401476D01*
X100201476Y-81496774D01*
X100201473Y-81496778D01*
X100140279Y-81616878D01*
X100124500Y-81716506D01*
X99875500Y-81716506D01*
X99859720Y-81616878D01*
X99859719Y-81616876D01*
X99859719Y-81616874D01*
X99798528Y-81496780D01*
X99798526Y-81496778D01*
X99798523Y-81496774D01*
X99703225Y-81401476D01*
X99703221Y-81401473D01*
X99703220Y-81401472D01*
X99583126Y-81340281D01*
X99583124Y-81340280D01*
X99583121Y-81340279D01*
X99483493Y-81324500D01*
X99483488Y-81324500D01*
X98966512Y-81324500D01*
X98966507Y-81324500D01*
X98866878Y-81340279D01*
X98746778Y-81401473D01*
X98746774Y-81401476D01*
X98651476Y-81496774D01*
X98651474Y-81496778D01*
X98651472Y-81496780D01*
X98599134Y-81599500D01*
X98585851Y-81625569D01*
X98583914Y-81624582D01*
X98551836Y-81671494D01*
X98487477Y-81698692D01*
X98473343Y-81699500D01*
X98377209Y-81699500D01*
X98310170Y-81679815D01*
X98264415Y-81627011D01*
X98254471Y-81557853D01*
X98274107Y-81506610D01*
X98299040Y-81469293D01*
X98335240Y-81415117D01*
X98350500Y-81338401D01*
X98350499Y-81161600D01*
X98335240Y-81084883D01*
X98335239Y-81084881D01*
X98335238Y-81084878D01*
X98324555Y-81068891D01*
X98303676Y-81002214D01*
X98322160Y-80934833D01*
X98324517Y-80931164D01*
X98335240Y-80915117D01*
X98345783Y-80862113D01*
X98378167Y-80800204D01*
X98391914Y-80787930D01*
X98488678Y-80713681D01*
X98578843Y-80596175D01*
X98635521Y-80459342D01*
X98635521Y-80459340D01*
X98646626Y-80375000D01*
X96853374Y-80375000D01*
X96864478Y-80459340D01*
X96864478Y-80459342D01*
X96921156Y-80596175D01*
X97011321Y-80713681D01*
X97108086Y-80787931D01*
X97149289Y-80844359D01*
X97154217Y-80862116D01*
X97164759Y-80915115D01*
X97164760Y-80915118D01*
X97175446Y-80931111D01*
X97196323Y-80997788D01*
X97177837Y-81065168D01*
X97175446Y-81068889D01*
X97164759Y-81084882D01*
X97149500Y-81161596D01*
X97149500Y-81338398D01*
X97164760Y-81415118D01*
X97164761Y-81415120D01*
X97220438Y-81498445D01*
X97241316Y-81565122D01*
X97222832Y-81632502D01*
X97170853Y-81679193D01*
X97101883Y-81690369D01*
X97048446Y-81670438D01*
X96965119Y-81614761D01*
X96965112Y-81614758D01*
X96888404Y-81599500D01*
X96711601Y-81599500D01*
X96634880Y-81614760D01*
X96618889Y-81625446D01*
X96552212Y-81646323D01*
X96484832Y-81627837D01*
X96481111Y-81625446D01*
X96465117Y-81614759D01*
X96388403Y-81599500D01*
X96211601Y-81599500D01*
X96134880Y-81614760D01*
X96118889Y-81625446D01*
X96052212Y-81646323D01*
X95984832Y-81627837D01*
X95981111Y-81625446D01*
X95965117Y-81614759D01*
X95888403Y-81599500D01*
X95711601Y-81599500D01*
X95634880Y-81614760D01*
X95618889Y-81625446D01*
X95552212Y-81646323D01*
X95484832Y-81627837D01*
X95481111Y-81625446D01*
X95465117Y-81614759D01*
X95388403Y-81599500D01*
X95211601Y-81599500D01*
X95134880Y-81614760D01*
X95118889Y-81625446D01*
X95052212Y-81646323D01*
X94984832Y-81627837D01*
X94981111Y-81625446D01*
X94965117Y-81614759D01*
X94888403Y-81599500D01*
X94711601Y-81599500D01*
X94634880Y-81614760D01*
X94618889Y-81625446D01*
X94552212Y-81646323D01*
X94484832Y-81627837D01*
X94481111Y-81625446D01*
X94465117Y-81614759D01*
X94388403Y-81599500D01*
X94211601Y-81599500D01*
X94134880Y-81614760D01*
X94118889Y-81625446D01*
X94052212Y-81646323D01*
X93984832Y-81627837D01*
X93981111Y-81625446D01*
X93965117Y-81614759D01*
X93888403Y-81599500D01*
X93711601Y-81599500D01*
X93634881Y-81614760D01*
X93634879Y-81614761D01*
X93551554Y-81670438D01*
X93547212Y-81671797D01*
X93545439Y-81676553D01*
X93489759Y-81759884D01*
X93489758Y-81759887D01*
X93474500Y-81836594D01*
X93474500Y-82563397D01*
X93489760Y-82640118D01*
X93489761Y-82640120D01*
X93504465Y-82662125D01*
X93547888Y-82727112D01*
X93634883Y-82785240D01*
X93634886Y-82785240D01*
X93634887Y-82785241D01*
X93673241Y-82792870D01*
X93711599Y-82800500D01*
X93888400Y-82800499D01*
X93965117Y-82785240D01*
X93981107Y-82774555D01*
X94047783Y-82753676D01*
X94115164Y-82772159D01*
X94118871Y-82774541D01*
X94125911Y-82779245D01*
X94134883Y-82785240D01*
X94134887Y-82785241D01*
X94173241Y-82792870D01*
X94211599Y-82800500D01*
X94388400Y-82800499D01*
X94465117Y-82785240D01*
X94481107Y-82774555D01*
X94547783Y-82753676D01*
X94615164Y-82772159D01*
X94618871Y-82774541D01*
X94625911Y-82779245D01*
X94634883Y-82785240D01*
X94634887Y-82785241D01*
X94673241Y-82792870D01*
X94711599Y-82800500D01*
X94870499Y-82800499D01*
X94937539Y-82820183D01*
X94983294Y-82872987D01*
X94994500Y-82924499D01*
X94994500Y-84689562D01*
X95014979Y-84765989D01*
X95020139Y-84774927D01*
X95028469Y-84789355D01*
X95054537Y-84834507D01*
X95054541Y-84834512D01*
X95358181Y-85138152D01*
X95391666Y-85199475D01*
X95394500Y-85225833D01*
X95394500Y-85329166D01*
X95374815Y-85396205D01*
X95358181Y-85416847D01*
X94178511Y-86596516D01*
X94117188Y-86630001D01*
X94047496Y-86625017D01*
X94039936Y-86621735D01*
X93990775Y-86602690D01*
X93829940Y-86540382D01*
X93611243Y-86499500D01*
X93388757Y-86499500D01*
X93170060Y-86540382D01*
X93072361Y-86578231D01*
X92962601Y-86620752D01*
X92962595Y-86620754D01*
X92773439Y-86737874D01*
X92773437Y-86737876D01*
X92609020Y-86887761D01*
X92474943Y-87065308D01*
X92474938Y-87065316D01*
X92375775Y-87264461D01*
X92375769Y-87264476D01*
X92314885Y-87478462D01*
X92314884Y-87478464D01*
X92294357Y-87699999D01*
X88650500Y-87699999D01*
X88650500Y-87445730D01*
X88647646Y-87415300D01*
X88647646Y-87415298D01*
X88602793Y-87287119D01*
X88602792Y-87287117D01*
X88522150Y-87177850D01*
X88412882Y-87097207D01*
X88412880Y-87097206D01*
X88398118Y-87092041D01*
X88341342Y-87051320D01*
X88315595Y-86986367D01*
X88329051Y-86917805D01*
X88377439Y-86867402D01*
X88398118Y-86857959D01*
X88412882Y-86852793D01*
X88522150Y-86772150D01*
X88602793Y-86662882D01*
X88631378Y-86581190D01*
X88647646Y-86534701D01*
X88647646Y-86534699D01*
X88650500Y-86504269D01*
X88650500Y-85095730D01*
X88647646Y-85065300D01*
X88647646Y-85065298D01*
X88610443Y-84958981D01*
X88602793Y-84937118D01*
X88522150Y-84827850D01*
X88412882Y-84747207D01*
X88412880Y-84747206D01*
X88284700Y-84702353D01*
X88254270Y-84699500D01*
X88254266Y-84699500D01*
X87495734Y-84699500D01*
X87495730Y-84699500D01*
X87465300Y-84702353D01*
X87465298Y-84702353D01*
X87337119Y-84747206D01*
X87337117Y-84747207D01*
X87227850Y-84827850D01*
X87147207Y-84937117D01*
X87147206Y-84937119D01*
X87102353Y-85065298D01*
X87102353Y-85065300D01*
X87099500Y-85095730D01*
X85999560Y-85095730D01*
X85989505Y-84997302D01*
X85934358Y-84830880D01*
X85934356Y-84830875D01*
X85842315Y-84681654D01*
X85718345Y-84557684D01*
X85569124Y-84465643D01*
X85569119Y-84465641D01*
X85402697Y-84410494D01*
X85402690Y-84410493D01*
X85299986Y-84400000D01*
X85175000Y-84400000D01*
X85175000Y-85550000D01*
X84675000Y-85550000D01*
X84675000Y-84400000D01*
X84550027Y-84400000D01*
X84550012Y-84400001D01*
X84447302Y-84410494D01*
X84280880Y-84465641D01*
X84280875Y-84465643D01*
X84131654Y-84557684D01*
X84007684Y-84681654D01*
X83915643Y-84830875D01*
X83915641Y-84830880D01*
X83860494Y-84997302D01*
X83860493Y-84997309D01*
X83850000Y-85100013D01*
X77594632Y-85100013D01*
X77864903Y-84499496D01*
X77867018Y-84495039D01*
X78305671Y-83616714D01*
X78307959Y-83612355D01*
X78781623Y-82752406D01*
X78784083Y-82748144D01*
X79292000Y-81907946D01*
X79294608Y-81903821D01*
X79835952Y-81084747D01*
X79838744Y-81080702D01*
X80373504Y-80338400D01*
X80412597Y-80284135D01*
X80415597Y-80280143D01*
X80508469Y-80161601D01*
X81021053Y-79507335D01*
X81024176Y-79503511D01*
X81660232Y-78755740D01*
X81663536Y-78752010D01*
X82208209Y-78161595D01*
X92249500Y-78161595D01*
X92249500Y-78338398D01*
X92264760Y-78415119D01*
X92275446Y-78431111D01*
X92296323Y-78497788D01*
X92277837Y-78565168D01*
X92275446Y-78568889D01*
X92264759Y-78584882D01*
X92249500Y-78661596D01*
X92249500Y-78838398D01*
X92264760Y-78915119D01*
X92275446Y-78931111D01*
X92296323Y-78997788D01*
X92277837Y-79065168D01*
X92275446Y-79068889D01*
X92264759Y-79084882D01*
X92249500Y-79161596D01*
X92249500Y-79338398D01*
X92264760Y-79415119D01*
X92275446Y-79431111D01*
X92296323Y-79497788D01*
X92277837Y-79565168D01*
X92275446Y-79568889D01*
X92264759Y-79584882D01*
X92249500Y-79661596D01*
X92249500Y-79838398D01*
X92264760Y-79915119D01*
X92275446Y-79931111D01*
X92296323Y-79997788D01*
X92277837Y-80065168D01*
X92275446Y-80068889D01*
X92264759Y-80084882D01*
X92249500Y-80161596D01*
X92249500Y-80338398D01*
X92264760Y-80415119D01*
X92275446Y-80431111D01*
X92296323Y-80497788D01*
X92277837Y-80565168D01*
X92275446Y-80568889D01*
X92264759Y-80584882D01*
X92249500Y-80661596D01*
X92249500Y-80838398D01*
X92264760Y-80915119D01*
X92275446Y-80931111D01*
X92296323Y-80997788D01*
X92277837Y-81065168D01*
X92275446Y-81068889D01*
X92264759Y-81084882D01*
X92249500Y-81161596D01*
X92249500Y-81338398D01*
X92264760Y-81415118D01*
X92264761Y-81415120D01*
X92299668Y-81467361D01*
X92322888Y-81502112D01*
X92409883Y-81560240D01*
X92409886Y-81560240D01*
X92409887Y-81560241D01*
X92434426Y-81565122D01*
X92486599Y-81575500D01*
X93213400Y-81575499D01*
X93290117Y-81560240D01*
X93290118Y-81560238D01*
X93290121Y-81560238D01*
X93326435Y-81535972D01*
X93373446Y-81504561D01*
X93377786Y-81503202D01*
X93379559Y-81498449D01*
X93435240Y-81415117D01*
X93450500Y-81338401D01*
X93450499Y-81161600D01*
X93435240Y-81084883D01*
X93435239Y-81084881D01*
X93435238Y-81084878D01*
X93424555Y-81068891D01*
X93403676Y-81002214D01*
X93422160Y-80934833D01*
X93424517Y-80931164D01*
X93435240Y-80915117D01*
X93450500Y-80838401D01*
X93450499Y-80661600D01*
X93435240Y-80584883D01*
X93435239Y-80584881D01*
X93435238Y-80584878D01*
X93424555Y-80568891D01*
X93403676Y-80502214D01*
X93422160Y-80434833D01*
X93424517Y-80431164D01*
X93435240Y-80415117D01*
X93450500Y-80338401D01*
X93450499Y-80161600D01*
X93435240Y-80084883D01*
X93435239Y-80084881D01*
X93435238Y-80084878D01*
X93424555Y-80068891D01*
X93403676Y-80002214D01*
X93422160Y-79934833D01*
X93424517Y-79931164D01*
X93435240Y-79915117D01*
X93450500Y-79838401D01*
X93450499Y-79661600D01*
X93435240Y-79584883D01*
X93435239Y-79584881D01*
X93435238Y-79584878D01*
X93424555Y-79568891D01*
X93403676Y-79502214D01*
X93422160Y-79434833D01*
X93424517Y-79431164D01*
X93435240Y-79415117D01*
X93450500Y-79338401D01*
X93450499Y-79161600D01*
X93435240Y-79084883D01*
X93435239Y-79084881D01*
X93435238Y-79084878D01*
X93424555Y-79068891D01*
X93403676Y-79002214D01*
X93422160Y-78934833D01*
X93424517Y-78931164D01*
X93435240Y-78915117D01*
X93450500Y-78838401D01*
X93450499Y-78661600D01*
X93435240Y-78584883D01*
X93435239Y-78584881D01*
X93435238Y-78584878D01*
X93424555Y-78568891D01*
X93403676Y-78502214D01*
X93422160Y-78434833D01*
X93424517Y-78431164D01*
X93435240Y-78415117D01*
X93450500Y-78338401D01*
X93450499Y-78161600D01*
X93435240Y-78084883D01*
X93435239Y-78084881D01*
X93435238Y-78084879D01*
X93396442Y-78026818D01*
X93379560Y-78001552D01*
X93378201Y-77997211D01*
X93373446Y-77995438D01*
X93290119Y-77939761D01*
X93290112Y-77939758D01*
X93213404Y-77924500D01*
X92486602Y-77924500D01*
X92409881Y-77939760D01*
X92409879Y-77939761D01*
X92322888Y-77997888D01*
X92264760Y-78084883D01*
X92264758Y-78084887D01*
X92249500Y-78161595D01*
X82208209Y-78161595D01*
X82329245Y-78030394D01*
X82332657Y-78026843D01*
X83026843Y-77332657D01*
X83030394Y-77329245D01*
X83456020Y-76936594D01*
X93474500Y-76936594D01*
X93474500Y-77663397D01*
X93489760Y-77740118D01*
X93489761Y-77740120D01*
X93545438Y-77823445D01*
X93546797Y-77827786D01*
X93551552Y-77829560D01*
X93634883Y-77885240D01*
X93634886Y-77885240D01*
X93634887Y-77885241D01*
X93673241Y-77892870D01*
X93711599Y-77900500D01*
X93888400Y-77900499D01*
X93965117Y-77885240D01*
X93981107Y-77874555D01*
X94047783Y-77853676D01*
X94115164Y-77872159D01*
X94118871Y-77874541D01*
X94134880Y-77885238D01*
X94134883Y-77885240D01*
X94134887Y-77885241D01*
X94173241Y-77892870D01*
X94211599Y-77900500D01*
X94388400Y-77900499D01*
X94465117Y-77885240D01*
X94481107Y-77874555D01*
X94547783Y-77853676D01*
X94615164Y-77872159D01*
X94618871Y-77874541D01*
X94634880Y-77885238D01*
X94634883Y-77885240D01*
X94634887Y-77885241D01*
X94673241Y-77892870D01*
X94711599Y-77900500D01*
X94888400Y-77900499D01*
X94965117Y-77885240D01*
X94981107Y-77874555D01*
X95047783Y-77853676D01*
X95115164Y-77872159D01*
X95118871Y-77874541D01*
X95134880Y-77885238D01*
X95134883Y-77885240D01*
X95134887Y-77885241D01*
X95173241Y-77892870D01*
X95211599Y-77900500D01*
X95388400Y-77900499D01*
X95465117Y-77885240D01*
X95481107Y-77874555D01*
X95547783Y-77853676D01*
X95615164Y-77872159D01*
X95618871Y-77874541D01*
X95634880Y-77885238D01*
X95634883Y-77885240D01*
X95634887Y-77885241D01*
X95673241Y-77892870D01*
X95711599Y-77900500D01*
X95888400Y-77900499D01*
X95965117Y-77885240D01*
X95981107Y-77874555D01*
X96047783Y-77853676D01*
X96115164Y-77872159D01*
X96118871Y-77874541D01*
X96134880Y-77885238D01*
X96134883Y-77885240D01*
X96134887Y-77885241D01*
X96173241Y-77892870D01*
X96211599Y-77900500D01*
X96388400Y-77900499D01*
X96465117Y-77885240D01*
X96481107Y-77874555D01*
X96547783Y-77853676D01*
X96615164Y-77872159D01*
X96618871Y-77874541D01*
X96634880Y-77885238D01*
X96634883Y-77885240D01*
X96634887Y-77885241D01*
X96673241Y-77892870D01*
X96711599Y-77900500D01*
X96888400Y-77900499D01*
X96896065Y-77898974D01*
X96965655Y-77905200D01*
X97007939Y-77932910D01*
X97117088Y-78042059D01*
X97150573Y-78103382D01*
X97151026Y-78153925D01*
X97149500Y-78161598D01*
X97149500Y-78338398D01*
X97164760Y-78415119D01*
X97175446Y-78431111D01*
X97196323Y-78497788D01*
X97177837Y-78565168D01*
X97175446Y-78568889D01*
X97164759Y-78584882D01*
X97149500Y-78661596D01*
X97149500Y-78838398D01*
X97164760Y-78915119D01*
X97175446Y-78931111D01*
X97196323Y-78997788D01*
X97177837Y-79065168D01*
X97175446Y-79068889D01*
X97164759Y-79084882D01*
X97149500Y-79161596D01*
X97149500Y-79338398D01*
X97164760Y-79415119D01*
X97175446Y-79431111D01*
X97196323Y-79497788D01*
X97177837Y-79565168D01*
X97175446Y-79568889D01*
X97164759Y-79584882D01*
X97154216Y-79637886D01*
X97121830Y-79699796D01*
X97108086Y-79712068D01*
X97011322Y-79786318D01*
X96921156Y-79903824D01*
X96864478Y-80040657D01*
X96864478Y-80040659D01*
X96853373Y-80125000D01*
X98646627Y-80125000D01*
X98674917Y-80092741D01*
X98733919Y-80055317D01*
X98768145Y-80050500D01*
X102874167Y-80050500D01*
X102941206Y-80070185D01*
X102961848Y-80086819D01*
X103900351Y-81025322D01*
X103933836Y-81086645D01*
X103928852Y-81156337D01*
X103923671Y-81168274D01*
X103875769Y-81264474D01*
X103875768Y-81264476D01*
X103814885Y-81478461D01*
X103814884Y-81478464D01*
X103794357Y-81699999D01*
X103794357Y-81700000D01*
X103814884Y-81921535D01*
X103814885Y-81921537D01*
X103875769Y-82135523D01*
X103875775Y-82135538D01*
X103974938Y-82334683D01*
X103974943Y-82334691D01*
X104109020Y-82512238D01*
X104273437Y-82662123D01*
X104273439Y-82662125D01*
X104462595Y-82779245D01*
X104462596Y-82779245D01*
X104462599Y-82779247D01*
X104670060Y-82859618D01*
X104888757Y-82900500D01*
X104888759Y-82900500D01*
X105111241Y-82900500D01*
X105111243Y-82900500D01*
X105329940Y-82859618D01*
X105537401Y-82779247D01*
X105726562Y-82662124D01*
X105890981Y-82512236D01*
X106025058Y-82334689D01*
X106124229Y-82135528D01*
X106185115Y-81921536D01*
X106189299Y-81876388D01*
X106929942Y-81876388D01*
X106929942Y-81876390D01*
X107800000Y-82746447D01*
X107800001Y-82746447D01*
X108670057Y-81876390D01*
X108670056Y-81876389D01*
X108623229Y-81839943D01*
X108404614Y-81721635D01*
X108404603Y-81721630D01*
X108169493Y-81640916D01*
X107924293Y-81600000D01*
X107675707Y-81600000D01*
X107430506Y-81640916D01*
X107195396Y-81721630D01*
X107195390Y-81721632D01*
X106976761Y-81839949D01*
X106929942Y-81876388D01*
X106189299Y-81876388D01*
X106205643Y-81700000D01*
X106203183Y-81673457D01*
X106185115Y-81478464D01*
X106185114Y-81478462D01*
X106167091Y-81415119D01*
X106124229Y-81264472D01*
X106076328Y-81168274D01*
X106025061Y-81065316D01*
X106025056Y-81065308D01*
X105890979Y-80887761D01*
X105726562Y-80737876D01*
X105726560Y-80737874D01*
X105537404Y-80620754D01*
X105537398Y-80620752D01*
X105329940Y-80540382D01*
X105329934Y-80540381D01*
X105329279Y-80540127D01*
X105273878Y-80497554D01*
X105250287Y-80431787D01*
X105265998Y-80363707D01*
X105316022Y-80314928D01*
X105374073Y-80300500D01*
X106543712Y-80300500D01*
X106610751Y-80320185D01*
X106656506Y-80372989D01*
X106662978Y-80390565D01*
X106675770Y-80435525D01*
X106675774Y-80435534D01*
X106774936Y-80634679D01*
X106774943Y-80634691D01*
X106909020Y-80812238D01*
X107073437Y-80962123D01*
X107073439Y-80962125D01*
X107262595Y-81079245D01*
X107262596Y-81079245D01*
X107262599Y-81079247D01*
X107470060Y-81159618D01*
X107688757Y-81200500D01*
X107688759Y-81200500D01*
X107911241Y-81200500D01*
X107911243Y-81200500D01*
X108129940Y-81159618D01*
X108337401Y-81079247D01*
X108526562Y-80962124D01*
X108690981Y-80812236D01*
X108825058Y-80634689D01*
X108924229Y-80435528D01*
X108985115Y-80221536D01*
X109005643Y-80000000D01*
X108999604Y-79934833D01*
X108985115Y-79778464D01*
X108985114Y-79778462D01*
X108966223Y-79712068D01*
X108924229Y-79564472D01*
X108923060Y-79562124D01*
X108825061Y-79365316D01*
X108825056Y-79365308D01*
X108690979Y-79187761D01*
X108526562Y-79037876D01*
X108526560Y-79037874D01*
X108337404Y-78920754D01*
X108337398Y-78920752D01*
X108129940Y-78840382D01*
X107911243Y-78799500D01*
X107688757Y-78799500D01*
X107470060Y-78840382D01*
X107375510Y-78877011D01*
X107262601Y-78920752D01*
X107262595Y-78920754D01*
X107073439Y-79037874D01*
X107073437Y-79037876D01*
X106909020Y-79187761D01*
X106774943Y-79365308D01*
X106774936Y-79365320D01*
X106675774Y-79564465D01*
X106675770Y-79564474D01*
X106662978Y-79609435D01*
X106625698Y-79668528D01*
X106562389Y-79698085D01*
X106543712Y-79699500D01*
X105895949Y-79699500D01*
X105828910Y-79679815D01*
X105783155Y-79627011D01*
X105773211Y-79557853D01*
X105802236Y-79494297D01*
X105812410Y-79483863D01*
X105866193Y-79434833D01*
X105890981Y-79412236D01*
X106025058Y-79234689D01*
X106124229Y-79035528D01*
X106185115Y-78821536D01*
X106205643Y-78600000D01*
X106185115Y-78378464D01*
X106124229Y-78164472D01*
X106124224Y-78164461D01*
X106025061Y-77965316D01*
X106025056Y-77965308D01*
X105890979Y-77787761D01*
X105726562Y-77637876D01*
X105726560Y-77637874D01*
X105537404Y-77520754D01*
X105537398Y-77520752D01*
X105518934Y-77513599D01*
X105329940Y-77440382D01*
X105111243Y-77399500D01*
X104888757Y-77399500D01*
X104670060Y-77440382D01*
X104462599Y-77520753D01*
X104462597Y-77520753D01*
X104457254Y-77522824D01*
X104456638Y-77521234D01*
X104395617Y-77532092D01*
X104331131Y-77505200D01*
X104321487Y-77496516D01*
X104209512Y-77384541D01*
X104209504Y-77384535D01*
X104140995Y-77344982D01*
X104140990Y-77344979D01*
X104115513Y-77338152D01*
X104064562Y-77324500D01*
X104064560Y-77324500D01*
X101864314Y-77324500D01*
X101797275Y-77304815D01*
X101751520Y-77252011D01*
X101740956Y-77187897D01*
X101744999Y-77148321D01*
X101745000Y-77148309D01*
X101745000Y-77100000D01*
X101045000Y-77100000D01*
X101045000Y-77200500D01*
X101025315Y-77267539D01*
X100972511Y-77313294D01*
X100921000Y-77324500D01*
X100669000Y-77324500D01*
X100601961Y-77304815D01*
X100556206Y-77252011D01*
X100545000Y-77200500D01*
X100545000Y-76600000D01*
X101045000Y-76600000D01*
X101744999Y-76600000D01*
X101744999Y-76551692D01*
X101744998Y-76551677D01*
X101734855Y-76452392D01*
X101681547Y-76291518D01*
X101681542Y-76291507D01*
X101592575Y-76147271D01*
X101592572Y-76147267D01*
X101472732Y-76027427D01*
X101472728Y-76027424D01*
X101328492Y-75938457D01*
X101328481Y-75938452D01*
X101167606Y-75885144D01*
X101068322Y-75875000D01*
X101045000Y-75875000D01*
X101045000Y-76600000D01*
X100545000Y-76600000D01*
X100545000Y-75874999D01*
X100521693Y-75875000D01*
X100521674Y-75875001D01*
X100422392Y-75885144D01*
X100261518Y-75938452D01*
X100261507Y-75938457D01*
X100117271Y-76027424D01*
X100117267Y-76027427D01*
X99997426Y-76147268D01*
X99935392Y-76247841D01*
X99883444Y-76294565D01*
X99814481Y-76305786D01*
X99750399Y-76277943D01*
X99742173Y-76270424D01*
X99723225Y-76251476D01*
X99723221Y-76251473D01*
X99723220Y-76251472D01*
X99603126Y-76190281D01*
X99603124Y-76190280D01*
X99603121Y-76190279D01*
X99503493Y-76174500D01*
X99503488Y-76174500D01*
X98986512Y-76174500D01*
X98986507Y-76174500D01*
X98886878Y-76190279D01*
X98766778Y-76251473D01*
X98766774Y-76251476D01*
X98671476Y-76346774D01*
X98671473Y-76346778D01*
X98610279Y-76466878D01*
X98594500Y-76566506D01*
X98594500Y-76929167D01*
X98574815Y-76996206D01*
X98558181Y-77016848D01*
X97837681Y-77737348D01*
X97776358Y-77770833D01*
X97706666Y-77765849D01*
X97662319Y-77737348D01*
X97161818Y-77236847D01*
X97128333Y-77175524D01*
X97125499Y-77149166D01*
X97125499Y-76936602D01*
X97125499Y-76936600D01*
X97110240Y-76859883D01*
X97110239Y-76859881D01*
X97110238Y-76859879D01*
X97086861Y-76824894D01*
X97052112Y-76772888D01*
X96965117Y-76714760D01*
X96965115Y-76714759D01*
X96965112Y-76714758D01*
X96888404Y-76699500D01*
X96711601Y-76699500D01*
X96634880Y-76714760D01*
X96618889Y-76725446D01*
X96552212Y-76746323D01*
X96484832Y-76727837D01*
X96481111Y-76725446D01*
X96465117Y-76714759D01*
X96388403Y-76699500D01*
X96211601Y-76699500D01*
X96134880Y-76714760D01*
X96118889Y-76725446D01*
X96052212Y-76746323D01*
X95984832Y-76727837D01*
X95981111Y-76725446D01*
X95965117Y-76714759D01*
X95888403Y-76699500D01*
X95711601Y-76699500D01*
X95634880Y-76714760D01*
X95618889Y-76725446D01*
X95552212Y-76746323D01*
X95484832Y-76727837D01*
X95481111Y-76725446D01*
X95465117Y-76714759D01*
X95388403Y-76699500D01*
X95211601Y-76699500D01*
X95134880Y-76714760D01*
X95118889Y-76725446D01*
X95052212Y-76746323D01*
X94984832Y-76727837D01*
X94981111Y-76725446D01*
X94965117Y-76714759D01*
X94888403Y-76699500D01*
X94711601Y-76699500D01*
X94634880Y-76714760D01*
X94618889Y-76725446D01*
X94552212Y-76746323D01*
X94484832Y-76727837D01*
X94481111Y-76725446D01*
X94465117Y-76714759D01*
X94388403Y-76699500D01*
X94211601Y-76699500D01*
X94134880Y-76714760D01*
X94118889Y-76725446D01*
X94052212Y-76746323D01*
X93984832Y-76727837D01*
X93981111Y-76725446D01*
X93965117Y-76714759D01*
X93888403Y-76699500D01*
X93711601Y-76699500D01*
X93634881Y-76714760D01*
X93634879Y-76714761D01*
X93547888Y-76772888D01*
X93489760Y-76859883D01*
X93489758Y-76859887D01*
X93474500Y-76936594D01*
X83456020Y-76936594D01*
X83752018Y-76663528D01*
X83755749Y-76660225D01*
X83826552Y-76600000D01*
X84503511Y-76024176D01*
X84507335Y-76021053D01*
X85280188Y-75415561D01*
X85284093Y-75412626D01*
X86080702Y-74838744D01*
X86084747Y-74835952D01*
X86903821Y-74294608D01*
X86907946Y-74292000D01*
X87748144Y-73784083D01*
X87752406Y-73781623D01*
X88612355Y-73307959D01*
X88616714Y-73305671D01*
X89495039Y-72867018D01*
X89499496Y-72864903D01*
X90394788Y-72461965D01*
X90399291Y-72460047D01*
X91310073Y-72093489D01*
X91314665Y-72091747D01*
X92239508Y-71762144D01*
X92244140Y-71760599D01*
X93181444Y-71468524D01*
X93186167Y-71467155D01*
X94134499Y-71213050D01*
X94139304Y-71211866D01*
X95097046Y-70996165D01*
X95101911Y-70995171D01*
X96067576Y-70818206D01*
X96072457Y-70817413D01*
X97044454Y-70679477D01*
X97049376Y-70678879D01*
X98026143Y-70580193D01*
X98031076Y-70579794D01*
X99011047Y-70520517D01*
X99015970Y-70520319D01*
X99997518Y-70500550D01*
X100002482Y-70500550D01*
X100984027Y-70520319D01*
G37*
%TD.AperFunction*%
%TD*%
M02*
