M48
; DRILL file {KiCad 8.0.6} date 2025-02-16T20:54:23+0100
; FORMAT={-:-/ absolute / metric / decimal}
; #@! TF.CreationDate,2025-02-16T20:54:23+01:00
; #@! TF.GenerationSoftware,Kicad,Pcbnew,8.0.6
; #@! TF.FileFunction,Plated,1,2,PTH
FMAT,2
METRIC
; #@! TA.AperFunction,Plated,PTH,ComponentDrill
T1C0.200
; #@! TA.AperFunction,Plated,PTH,ComponentDrill
T2C0.700
; #@! TA.AperFunction,Plated,PTH,ComponentDrill
T3C0.800
; #@! TA.AperFunction,Plated,PTH,ComponentDrill
T4C0.950
; #@! TA.AperFunction,Plated,PTH,ComponentDrill
T5C1.000
; #@! TA.AperFunction,Plated,PTH,ComponentDrill
T6C1.300
%
G90
G05
T1
X199.237Y-111.0
X199.237Y-113.0
X201.237Y-111.0
X201.237Y-113.0
T2
X246.1Y-49.25
X246.9Y-51.0
X247.7Y-49.25
X248.5Y-51.0
X249.3Y-49.25
T3
X175.5Y-76.42
X175.5Y-78.96
X175.5Y-81.5
T4
X199.25Y-127.5
X201.75Y-127.5
X204.25Y-127.5
X206.75Y-127.5
X212.75Y-127.468
X215.25Y-127.468
X217.75Y-127.468
X224.0Y-127.468
X226.5Y-127.468
X229.0Y-127.468
X231.5Y-127.468
T5
X174.46Y-87.95
X175.42Y-110.5
X177.0Y-87.95
X177.96Y-110.5
X179.54Y-87.95
X180.5Y-110.5
X202.267Y-68.892
X204.807Y-68.892
X207.347Y-68.892
X209.887Y-68.892
X212.427Y-68.892
X214.967Y-68.892
X217.507Y-68.892
X220.067Y-68.894
X221.42Y-119.5
X222.607Y-68.895
X223.96Y-119.5
X226.5Y-119.5
X229.5Y-76.0
X229.5Y-78.54
X278.195Y-48.03
X278.195Y-50.57
X278.695Y-71.56
X278.695Y-74.1
X282.845Y-48.03
X282.845Y-50.57
X283.345Y-71.56
X283.345Y-74.1
T6
X185.75Y-129.545
X189.25Y-129.545
X246.0Y-128.5
X249.5Y-128.5
T2
G00X244.05Y-50.775
M15
G01X244.05Y-49.475
M16
G05
G00X251.35Y-50.775
M15
G01X251.35Y-49.475
M16
G05
M30
