%TF.GenerationSoftware,KiCad,Pcbnew,8.0.6*%
%TF.CreationDate,2025-02-16T20:54:21+01:00*%
%TF.ProjectId,TUSS4470_shield,54555353-3434-4373-905f-736869656c64,rev?*%
%TF.SameCoordinates,Original*%
%TF.FileFunction,Copper,L2,Bot*%
%TF.FilePolarity,Positive*%
%FSLAX46Y46*%
G04 Gerber Fmt 4.6, Leading zero omitted, Abs format (unit mm)*
G04 Created by KiCad (PCBNEW 8.0.6) date 2025-02-16 20:54:21*
%MOMM*%
%LPD*%
G01*
G04 APERTURE LIST*
G04 Aperture macros list*
%AMRoundRect*
0 Rectangle with rounded corners*
0 $1 Rounding radius*
0 $2 $3 $4 $5 $6 $7 $8 $9 X,Y pos of 4 corners*
0 Add a 4 corners polygon primitive as box body*
4,1,4,$2,$3,$4,$5,$6,$7,$8,$9,$2,$3,0*
0 Add four circle primitives for the rounded corners*
1,1,$1+$1,$2,$3*
1,1,$1+$1,$4,$5*
1,1,$1+$1,$6,$7*
1,1,$1+$1,$8,$9*
0 Add four rect primitives between the rounded corners*
20,1,$1+$1,$2,$3,$4,$5,0*
20,1,$1+$1,$4,$5,$6,$7,0*
20,1,$1+$1,$6,$7,$8,$9,0*
20,1,$1+$1,$8,$9,$2,$3,0*%
G04 Aperture macros list end*
%TA.AperFunction,ComponentPad*%
%ADD10R,1.700000X1.700000*%
%TD*%
%TA.AperFunction,ComponentPad*%
%ADD11O,1.700000X1.700000*%
%TD*%
%TA.AperFunction,ComponentPad*%
%ADD12RoundRect,0.250000X0.600000X0.725000X-0.600000X0.725000X-0.600000X-0.725000X0.600000X-0.725000X0*%
%TD*%
%TA.AperFunction,ComponentPad*%
%ADD13O,1.700000X1.950000*%
%TD*%
%TA.AperFunction,HeatsinkPad*%
%ADD14C,0.500000*%
%TD*%
%TA.AperFunction,HeatsinkPad*%
%ADD15R,2.500000X2.500000*%
%TD*%
%TA.AperFunction,ComponentPad*%
%ADD16R,2.600000X2.600000*%
%TD*%
%TA.AperFunction,ComponentPad*%
%ADD17C,2.600000*%
%TD*%
%TA.AperFunction,ComponentPad*%
%ADD18C,1.440000*%
%TD*%
%TA.AperFunction,ComponentPad*%
%ADD19R,1.100000X1.100000*%
%TD*%
%TA.AperFunction,ComponentPad*%
%ADD20C,1.100000*%
%TD*%
%TA.AperFunction,ComponentPad*%
%ADD21O,1.100000X2.400000*%
%TD*%
G04 APERTURE END LIST*
D10*
%TO.P,JP8,1,A*%
%TO.N,GND*%
X278695000Y-71560000D03*
D11*
%TO.P,JP8,2,B*%
%TO.N,Net-(J9-Pin_1)*%
X278695000Y-74100000D03*
%TD*%
D10*
%TO.P,J2,1,Pin_1*%
%TO.N,+5V*%
X226500000Y-119500000D03*
D11*
%TO.P,J2,2,Pin_2*%
%TO.N,GND*%
X223960000Y-119500000D03*
%TO.P,J2,3,Pin_3*%
%TO.N,Net-(J2-Pin_3)*%
X221420000Y-119500000D03*
%TD*%
D10*
%TO.P,JP11,1,A*%
%TO.N,Net-(J9-Pin_2)*%
X282845000Y-48030000D03*
D11*
%TO.P,JP11,2,B*%
%TO.N,Net-(D12-K)*%
X282845000Y-50570000D03*
%TD*%
D12*
%TO.P,J3,1,Pin_1*%
%TO.N,+3.3V*%
X217750000Y-127467500D03*
D13*
%TO.P,J3,2,Pin_2*%
%TO.N,GND*%
X215250000Y-127467500D03*
%TO.P,J3,3,Pin_3*%
%TO.N,DS18B20_DATA*%
X212750000Y-127467500D03*
%TD*%
D14*
%TO.P,U1,21,EXP*%
%TO.N,GND*%
X201237500Y-113000000D03*
X201237500Y-111000000D03*
D15*
X200237500Y-112000000D03*
D14*
X199237500Y-113000000D03*
X199237500Y-111000000D03*
%TD*%
D10*
%TO.P,J10,1,Pin_1*%
%TO.N,+12V*%
X179540000Y-87950000D03*
D11*
%TO.P,J10,2,Pin_2*%
%TO.N,Net-(J10-Pin_2)*%
X177000000Y-87950000D03*
%TO.P,J10,3,Pin_3*%
%TO.N,+5V*%
X174460000Y-87950000D03*
%TD*%
D12*
%TO.P,J6,1,Pin_1*%
%TO.N,SDA_1*%
X231500000Y-127467500D03*
D13*
%TO.P,J6,2,Pin_2*%
%TO.N,SCL_1*%
X229000000Y-127467500D03*
%TO.P,J6,3,Pin_3*%
%TO.N,+3.3V*%
X226500000Y-127467500D03*
%TO.P,J6,4,Pin_4*%
%TO.N,GND*%
X224000000Y-127467500D03*
%TD*%
D10*
%TO.P,JP9,1,A*%
%TO.N,Net-(JP9-A)*%
X283345000Y-71560000D03*
D11*
%TO.P,JP9,2,B*%
%TO.N,Net-(J9-Pin_2)*%
X283345000Y-74100000D03*
%TD*%
D16*
%TO.P,J4,1,Pin_1*%
%TO.N,+12V*%
X246000000Y-128500000D03*
D17*
%TO.P,J4,2,Pin_2*%
%TO.N,GND*%
X249500000Y-128500000D03*
%TD*%
D12*
%TO.P,J5,1,Pin_1*%
%TO.N,uC_TX2*%
X206750000Y-127500000D03*
D13*
%TO.P,J5,2,Pin_2*%
%TO.N,uC_RX2*%
X204250000Y-127500000D03*
%TO.P,J5,3,Pin_3*%
%TO.N,+3.3V*%
X201750000Y-127500000D03*
%TO.P,J5,4,Pin_4*%
%TO.N,GND*%
X199250000Y-127500000D03*
%TD*%
D10*
%TO.P,JP10,1,A*%
%TO.N,Net-(J9-Pin_2)*%
X278195000Y-48030000D03*
D11*
%TO.P,JP10,2,B*%
%TO.N,Net-(JP10-B)*%
X278195000Y-50570000D03*
%TD*%
D10*
%TO.P,JP7,1,A*%
%TO.N,BOOT_0*%
X229500000Y-76000000D03*
D11*
%TO.P,JP7,2,B*%
%TO.N,+3.3V*%
X229500000Y-78540000D03*
%TD*%
D18*
%TO.P,RV1,1,1*%
%TO.N,Net-(R6-Pad2)*%
X175500000Y-81500000D03*
%TO.P,RV1,2,2*%
%TO.N,Net-(U2-FB)*%
X175500000Y-78960000D03*
%TO.P,RV1,3,3*%
%TO.N,TUSS_DRV*%
X175500000Y-76420000D03*
%TD*%
D10*
%TO.P,J11,1,Pin_1*%
%TO.N,+12V*%
X180500000Y-110500000D03*
D11*
%TO.P,J11,2,Pin_2*%
%TO.N,Net-(D1-A)*%
X177960000Y-110500000D03*
%TO.P,J11,3,Pin_3*%
%TO.N,TUSS_DRV*%
X175420000Y-110500000D03*
%TD*%
D10*
%TO.P,J1,1,Pin_1*%
%TO.N,DISPLAY_CS*%
X202267400Y-68891700D03*
D11*
%TO.P,J1,2,Pin_2*%
%TO.N,DISPLAY_RSE*%
X204807400Y-68891700D03*
%TO.P,J1,3,Pin_3*%
%TO.N,DISPLAY_RS*%
X207347400Y-68891700D03*
%TO.P,J1,4,Pin_4*%
%TO.N,DISPLAY_SCL*%
X209887400Y-68891700D03*
%TO.P,J1,5,Pin_5*%
%TO.N,DISPLAY_SI*%
X212427400Y-68891700D03*
%TO.P,J1,6,Pin_6*%
%TO.N,+3.3V*%
X214967400Y-68891700D03*
%TO.P,J1,7,Pin_7*%
%TO.N,GND*%
X217507400Y-68891700D03*
%TO.P,J1,8,Pin_8*%
%TO.N,+3.3V*%
X220067400Y-68893861D03*
%TO.P,J1,9,Pin_9*%
%TO.N,Net-(J1-Pin_9)*%
X222607400Y-68894926D03*
%TD*%
D19*
%TO.P,J8,1,VBUS*%
%TO.N,+5V*%
X249300000Y-49250000D03*
D20*
%TO.P,J8,2,D-*%
%TO.N,Net-(J8-D-)*%
X248500000Y-51000000D03*
%TO.P,J8,3,D+*%
%TO.N,Net-(J8-D+)*%
X247700000Y-49250000D03*
%TO.P,J8,4,ID*%
%TO.N,unconnected-(J8-ID-Pad4)*%
X246900000Y-51000000D03*
%TO.P,J8,5,GND*%
%TO.N,GND*%
X246100000Y-49250000D03*
D21*
%TO.P,J8,6,Shield*%
%TO.N,unconnected-(J8-Shield-Pad6)*%
X251350000Y-50125000D03*
X244050000Y-50125000D03*
%TD*%
D16*
%TO.P,J9,1,Pin_1*%
%TO.N,Net-(J9-Pin_1)*%
X185750000Y-129545000D03*
D17*
%TO.P,J9,2,Pin_2*%
%TO.N,Net-(J9-Pin_2)*%
X189250000Y-129545000D03*
%TD*%
%TA.AperFunction,Conductor*%
%TO.N,GND*%
G36*
X263192539Y-46770185D02*
G01*
X263238294Y-46822989D01*
X263249500Y-46874500D01*
X263249500Y-133125500D01*
X263229815Y-133192539D01*
X263177011Y-133238294D01*
X263125500Y-133249500D01*
X171874500Y-133249500D01*
X171807461Y-133229815D01*
X171761706Y-133177011D01*
X171750500Y-133125500D01*
X171750500Y-129878711D01*
X173149500Y-129878711D01*
X173149500Y-130121288D01*
X173181161Y-130361785D01*
X173243947Y-130596104D01*
X173267406Y-130652738D01*
X173336776Y-130820212D01*
X173458064Y-131030289D01*
X173458066Y-131030292D01*
X173458067Y-131030293D01*
X173605733Y-131222736D01*
X173605739Y-131222743D01*
X173777256Y-131394260D01*
X173777262Y-131394265D01*
X173969711Y-131541936D01*
X174179788Y-131663224D01*
X174403900Y-131756054D01*
X174638211Y-131818838D01*
X174818586Y-131842584D01*
X174878711Y-131850500D01*
X174878712Y-131850500D01*
X175121289Y-131850500D01*
X175169388Y-131844167D01*
X175361789Y-131818838D01*
X175596100Y-131756054D01*
X175820212Y-131663224D01*
X176030289Y-131541936D01*
X176222738Y-131394265D01*
X176394265Y-131222738D01*
X176541936Y-131030289D01*
X176663224Y-130820212D01*
X176756054Y-130596100D01*
X176818838Y-130361789D01*
X176850500Y-130121288D01*
X176850500Y-129878712D01*
X176850436Y-129878229D01*
X176818838Y-129638214D01*
X176818838Y-129638211D01*
X176756054Y-129403900D01*
X176663224Y-129179788D01*
X176541936Y-128969711D01*
X176417767Y-128807890D01*
X176394266Y-128777263D01*
X176394260Y-128777256D01*
X176222743Y-128605739D01*
X176222736Y-128605733D01*
X176030293Y-128458067D01*
X176030292Y-128458066D01*
X176030289Y-128458064D01*
X175820212Y-128336776D01*
X175820205Y-128336773D01*
X175596104Y-128243947D01*
X175526315Y-128225247D01*
X184249500Y-128225247D01*
X184249500Y-130864752D01*
X184261131Y-130923229D01*
X184261132Y-130923230D01*
X184305447Y-130989552D01*
X184371769Y-131033867D01*
X184371770Y-131033868D01*
X184430247Y-131045499D01*
X184430250Y-131045500D01*
X184430252Y-131045500D01*
X187069750Y-131045500D01*
X187069751Y-131045499D01*
X187084568Y-131042552D01*
X187128229Y-131033868D01*
X187128229Y-131033867D01*
X187128231Y-131033867D01*
X187194552Y-130989552D01*
X187238867Y-130923231D01*
X187238867Y-130923229D01*
X187238868Y-130923229D01*
X187250499Y-130864752D01*
X187250500Y-130864750D01*
X187250500Y-129544994D01*
X187744357Y-129544994D01*
X187744357Y-129545005D01*
X187764890Y-129792812D01*
X187764892Y-129792824D01*
X187825936Y-130033881D01*
X187925826Y-130261606D01*
X188061833Y-130469782D01*
X188061836Y-130469785D01*
X188230256Y-130652738D01*
X188426491Y-130805474D01*
X188645190Y-130923828D01*
X188880386Y-131004571D01*
X189125665Y-131045500D01*
X189374335Y-131045500D01*
X189619614Y-131004571D01*
X189854810Y-130923828D01*
X190073509Y-130805474D01*
X190269744Y-130652738D01*
X190438164Y-130469785D01*
X190574173Y-130261607D01*
X190674063Y-130033881D01*
X190735108Y-129792821D01*
X190747919Y-129638214D01*
X190755643Y-129545005D01*
X190755643Y-129544994D01*
X190735109Y-129297187D01*
X190735107Y-129297175D01*
X190674063Y-129056118D01*
X190574173Y-128828393D01*
X190438166Y-128620217D01*
X190386432Y-128564019D01*
X190269744Y-128437262D01*
X190073509Y-128284526D01*
X190073507Y-128284525D01*
X190073506Y-128284524D01*
X189854811Y-128166172D01*
X189854802Y-128166169D01*
X189619616Y-128085429D01*
X189374335Y-128044500D01*
X189125665Y-128044500D01*
X188880383Y-128085429D01*
X188645197Y-128166169D01*
X188645188Y-128166172D01*
X188426493Y-128284524D01*
X188230257Y-128437261D01*
X188061833Y-128620217D01*
X187925826Y-128828393D01*
X187825936Y-129056118D01*
X187764892Y-129297175D01*
X187764890Y-129297187D01*
X187744357Y-129544994D01*
X187250500Y-129544994D01*
X187250500Y-128225249D01*
X187250499Y-128225247D01*
X187238868Y-128166770D01*
X187238867Y-128166769D01*
X187194552Y-128100447D01*
X187128230Y-128056132D01*
X187128229Y-128056131D01*
X187069752Y-128044500D01*
X187069748Y-128044500D01*
X184430252Y-128044500D01*
X184430247Y-128044500D01*
X184371770Y-128056131D01*
X184371769Y-128056132D01*
X184305447Y-128100447D01*
X184261132Y-128166769D01*
X184261131Y-128166770D01*
X184249500Y-128225247D01*
X175526315Y-128225247D01*
X175478944Y-128212554D01*
X175361789Y-128181162D01*
X175361788Y-128181161D01*
X175361785Y-128181161D01*
X175121289Y-128149500D01*
X175121288Y-128149500D01*
X174878712Y-128149500D01*
X174878711Y-128149500D01*
X174638214Y-128181161D01*
X174403895Y-128243947D01*
X174179794Y-128336773D01*
X174179785Y-128336777D01*
X173969706Y-128458067D01*
X173777263Y-128605733D01*
X173777256Y-128605739D01*
X173605739Y-128777256D01*
X173605733Y-128777263D01*
X173458067Y-128969706D01*
X173336777Y-129179785D01*
X173336773Y-129179794D01*
X173243947Y-129403895D01*
X173181161Y-129638214D01*
X173149500Y-129878711D01*
X171750500Y-129878711D01*
X171750500Y-127250000D01*
X197902970Y-127250000D01*
X198845854Y-127250000D01*
X198807370Y-127316657D01*
X198775000Y-127437465D01*
X198775000Y-127562535D01*
X198807370Y-127683343D01*
X198845854Y-127750000D01*
X197902970Y-127750000D01*
X197933242Y-127941127D01*
X197933242Y-127941130D01*
X197998904Y-128143217D01*
X198095379Y-128332557D01*
X198220272Y-128504459D01*
X198220276Y-128504464D01*
X198370535Y-128654723D01*
X198370540Y-128654727D01*
X198542442Y-128779620D01*
X198731782Y-128876095D01*
X198933871Y-128941757D01*
X199000000Y-128952231D01*
X199000000Y-127904145D01*
X199066657Y-127942630D01*
X199187465Y-127975000D01*
X199312535Y-127975000D01*
X199433343Y-127942630D01*
X199500000Y-127904145D01*
X199500000Y-128952230D01*
X199566126Y-128941757D01*
X199566129Y-128941757D01*
X199768217Y-128876095D01*
X199957557Y-128779620D01*
X200129459Y-128654727D01*
X200129464Y-128654723D01*
X200279723Y-128504464D01*
X200279727Y-128504459D01*
X200404620Y-128332557D01*
X200501095Y-128143217D01*
X200540759Y-128021144D01*
X200580196Y-127963469D01*
X200644555Y-127936270D01*
X200713401Y-127948184D01*
X200764877Y-127995428D01*
X200773251Y-128012009D01*
X200819057Y-128122596D01*
X200934024Y-128294657D01*
X201080342Y-128440975D01*
X201080345Y-128440977D01*
X201252402Y-128555941D01*
X201443580Y-128635130D01*
X201632187Y-128672646D01*
X201646530Y-128675499D01*
X201646534Y-128675500D01*
X201646535Y-128675500D01*
X201853466Y-128675500D01*
X201853467Y-128675499D01*
X202056420Y-128635130D01*
X202247598Y-128555941D01*
X202419655Y-128440977D01*
X202565977Y-128294655D01*
X202680941Y-128122598D01*
X202760130Y-127931420D01*
X202800500Y-127728465D01*
X202800500Y-127271535D01*
X202800499Y-127271530D01*
X203199500Y-127271530D01*
X203199500Y-127728469D01*
X203239868Y-127931412D01*
X203239870Y-127931420D01*
X203286709Y-128044500D01*
X203319059Y-128122598D01*
X203361729Y-128186458D01*
X203434024Y-128294657D01*
X203580342Y-128440975D01*
X203580345Y-128440977D01*
X203752402Y-128555941D01*
X203943580Y-128635130D01*
X204132187Y-128672646D01*
X204146530Y-128675499D01*
X204146534Y-128675500D01*
X204146535Y-128675500D01*
X204353466Y-128675500D01*
X204353467Y-128675499D01*
X204556420Y-128635130D01*
X204747598Y-128555941D01*
X204919655Y-128440977D01*
X205065977Y-128294655D01*
X205180941Y-128122598D01*
X205260130Y-127931420D01*
X205300500Y-127728465D01*
X205300500Y-127271535D01*
X205260130Y-127068580D01*
X205180941Y-126877402D01*
X205076257Y-126720730D01*
X205699500Y-126720730D01*
X205699500Y-128279269D01*
X205702353Y-128309699D01*
X205702353Y-128309701D01*
X205746990Y-128437262D01*
X205747207Y-128437882D01*
X205827850Y-128547150D01*
X205937118Y-128627793D01*
X205958089Y-128635131D01*
X206065299Y-128672646D01*
X206095730Y-128675500D01*
X206095734Y-128675500D01*
X207404270Y-128675500D01*
X207434699Y-128672646D01*
X207434701Y-128672646D01*
X207498790Y-128650219D01*
X207562882Y-128627793D01*
X207672150Y-128547150D01*
X207752793Y-128437882D01*
X207788171Y-128336777D01*
X207797646Y-128309701D01*
X207797646Y-128309699D01*
X207800500Y-128279269D01*
X207800500Y-127239030D01*
X211699500Y-127239030D01*
X211699500Y-127695969D01*
X211739868Y-127898912D01*
X211739870Y-127898920D01*
X211800171Y-128044500D01*
X211819059Y-128090098D01*
X211840775Y-128122598D01*
X211934024Y-128262157D01*
X212080342Y-128408475D01*
X212080345Y-128408477D01*
X212252402Y-128523441D01*
X212443580Y-128602630D01*
X212606965Y-128635129D01*
X212646530Y-128642999D01*
X212646534Y-128643000D01*
X212646535Y-128643000D01*
X212853466Y-128643000D01*
X212853467Y-128642999D01*
X213056420Y-128602630D01*
X213247598Y-128523441D01*
X213419655Y-128408477D01*
X213565977Y-128262155D01*
X213680941Y-128090098D01*
X213726748Y-127979509D01*
X213770589Y-127925106D01*
X213836883Y-127903041D01*
X213904582Y-127920320D01*
X213952193Y-127971457D01*
X213959240Y-127988644D01*
X213998904Y-128110716D01*
X214095379Y-128300057D01*
X214220272Y-128471959D01*
X214220276Y-128471964D01*
X214370535Y-128622223D01*
X214370540Y-128622227D01*
X214542442Y-128747120D01*
X214731782Y-128843595D01*
X214933871Y-128909257D01*
X215000000Y-128919731D01*
X215000000Y-127871645D01*
X215066657Y-127910130D01*
X215187465Y-127942500D01*
X215312535Y-127942500D01*
X215433343Y-127910130D01*
X215500000Y-127871645D01*
X215500000Y-128919730D01*
X215566126Y-128909257D01*
X215566129Y-128909257D01*
X215768217Y-128843595D01*
X215957557Y-128747120D01*
X216129459Y-128622227D01*
X216129464Y-128622223D01*
X216279723Y-128471964D01*
X216279727Y-128471959D01*
X216404620Y-128300057D01*
X216465015Y-128181528D01*
X216512990Y-128130732D01*
X216580811Y-128113937D01*
X216646946Y-128136474D01*
X216690397Y-128191190D01*
X216699500Y-128237823D01*
X216699500Y-128246769D01*
X216702353Y-128277199D01*
X216702353Y-128277201D01*
X216747206Y-128405380D01*
X216747207Y-128405382D01*
X216827850Y-128514650D01*
X216937118Y-128595293D01*
X216958089Y-128602631D01*
X217065299Y-128640146D01*
X217095730Y-128643000D01*
X217095734Y-128643000D01*
X218404270Y-128643000D01*
X218434699Y-128640146D01*
X218434701Y-128640146D01*
X218498790Y-128617719D01*
X218562882Y-128595293D01*
X218672150Y-128514650D01*
X218752793Y-128405382D01*
X218776800Y-128336773D01*
X218797646Y-128277201D01*
X218797646Y-128277199D01*
X218800500Y-128246769D01*
X218800500Y-127217500D01*
X222652970Y-127217500D01*
X223595854Y-127217500D01*
X223557370Y-127284157D01*
X223525000Y-127404965D01*
X223525000Y-127530035D01*
X223557370Y-127650843D01*
X223595854Y-127717500D01*
X222652970Y-127717500D01*
X222683242Y-127908627D01*
X222683242Y-127908630D01*
X222748904Y-128110717D01*
X222845379Y-128300057D01*
X222970272Y-128471959D01*
X222970276Y-128471964D01*
X223120535Y-128622223D01*
X223120540Y-128622227D01*
X223292442Y-128747120D01*
X223481782Y-128843595D01*
X223683871Y-128909257D01*
X223750000Y-128919731D01*
X223750000Y-127871645D01*
X223816657Y-127910130D01*
X223937465Y-127942500D01*
X224062535Y-127942500D01*
X224183343Y-127910130D01*
X224250000Y-127871645D01*
X224250000Y-128919730D01*
X224316126Y-128909257D01*
X224316129Y-128909257D01*
X224518217Y-128843595D01*
X224707557Y-128747120D01*
X224879459Y-128622227D01*
X224879464Y-128622223D01*
X225029723Y-128471964D01*
X225029727Y-128471959D01*
X225154620Y-128300057D01*
X225251095Y-128110717D01*
X225290759Y-127988644D01*
X225330196Y-127930969D01*
X225394555Y-127903770D01*
X225463401Y-127915684D01*
X225514877Y-127962928D01*
X225523251Y-127979509D01*
X225569057Y-128090096D01*
X225684024Y-128262157D01*
X225830342Y-128408475D01*
X225830345Y-128408477D01*
X226002402Y-128523441D01*
X226193580Y-128602630D01*
X226356965Y-128635129D01*
X226396530Y-128642999D01*
X226396534Y-128643000D01*
X226396535Y-128643000D01*
X226603466Y-128643000D01*
X226603467Y-128642999D01*
X226806420Y-128602630D01*
X226997598Y-128523441D01*
X227169655Y-128408477D01*
X227315977Y-128262155D01*
X227430941Y-128090098D01*
X227510130Y-127898920D01*
X227550500Y-127695965D01*
X227550500Y-127239035D01*
X227550499Y-127239030D01*
X227949500Y-127239030D01*
X227949500Y-127695969D01*
X227989868Y-127898912D01*
X227989870Y-127898920D01*
X228050171Y-128044500D01*
X228069059Y-128090098D01*
X228090775Y-128122598D01*
X228184024Y-128262157D01*
X228330342Y-128408475D01*
X228330345Y-128408477D01*
X228502402Y-128523441D01*
X228693580Y-128602630D01*
X228856965Y-128635129D01*
X228896530Y-128642999D01*
X228896534Y-128643000D01*
X228896535Y-128643000D01*
X229103466Y-128643000D01*
X229103467Y-128642999D01*
X229306420Y-128602630D01*
X229497598Y-128523441D01*
X229669655Y-128408477D01*
X229815977Y-128262155D01*
X229930941Y-128090098D01*
X230010130Y-127898920D01*
X230050500Y-127695965D01*
X230050500Y-127239035D01*
X230010130Y-127036080D01*
X229930941Y-126844902D01*
X229826257Y-126688230D01*
X230449500Y-126688230D01*
X230449500Y-128246769D01*
X230452353Y-128277199D01*
X230452353Y-128277201D01*
X230497206Y-128405380D01*
X230497207Y-128405382D01*
X230577850Y-128514650D01*
X230687118Y-128595293D01*
X230708089Y-128602631D01*
X230815299Y-128640146D01*
X230845730Y-128643000D01*
X230845734Y-128643000D01*
X232154270Y-128643000D01*
X232184699Y-128640146D01*
X232184701Y-128640146D01*
X232248790Y-128617719D01*
X232312882Y-128595293D01*
X232422150Y-128514650D01*
X232502793Y-128405382D01*
X232526800Y-128336773D01*
X232547646Y-128277201D01*
X232547646Y-128277199D01*
X232550500Y-128246769D01*
X232550500Y-127180247D01*
X244499500Y-127180247D01*
X244499500Y-129819752D01*
X244511131Y-129878229D01*
X244511132Y-129878230D01*
X244555447Y-129944552D01*
X244621769Y-129988867D01*
X244621770Y-129988868D01*
X244680247Y-130000499D01*
X244680250Y-130000500D01*
X244680252Y-130000500D01*
X247319750Y-130000500D01*
X247319751Y-130000499D01*
X247334568Y-129997552D01*
X247378229Y-129988868D01*
X247378229Y-129988867D01*
X247378231Y-129988867D01*
X247444552Y-129944552D01*
X247488867Y-129878231D01*
X247488867Y-129878229D01*
X247488868Y-129878229D01*
X247500499Y-129819752D01*
X247500500Y-129819750D01*
X247500500Y-128929275D01*
X247520185Y-128862236D01*
X247572989Y-128816481D01*
X247642147Y-128806537D01*
X247705703Y-128835562D01*
X247743477Y-128894340D01*
X247745391Y-128901683D01*
X247775142Y-129032033D01*
X247775148Y-129032052D01*
X247873709Y-129283181D01*
X247873708Y-129283181D01*
X248008602Y-129516822D01*
X248062294Y-129584151D01*
X248898957Y-128747487D01*
X248923978Y-128807890D01*
X248995112Y-128914351D01*
X249085649Y-129004888D01*
X249192110Y-129076022D01*
X249252510Y-129101041D01*
X248414848Y-129938702D01*
X248597483Y-130063220D01*
X248597485Y-130063221D01*
X248840539Y-130180269D01*
X248840537Y-130180269D01*
X249098337Y-130259790D01*
X249098343Y-130259792D01*
X249365101Y-130299999D01*
X249365110Y-130300000D01*
X249634890Y-130300000D01*
X249634898Y-130299999D01*
X249901656Y-130259792D01*
X249901662Y-130259790D01*
X250159461Y-130180269D01*
X250402521Y-130063218D01*
X250585150Y-129938702D01*
X250525159Y-129878711D01*
X258149500Y-129878711D01*
X258149500Y-130121288D01*
X258181161Y-130361785D01*
X258243947Y-130596104D01*
X258267406Y-130652738D01*
X258336776Y-130820212D01*
X258458064Y-131030289D01*
X258458066Y-131030292D01*
X258458067Y-131030293D01*
X258605733Y-131222736D01*
X258605739Y-131222743D01*
X258777256Y-131394260D01*
X258777262Y-131394265D01*
X258969711Y-131541936D01*
X259179788Y-131663224D01*
X259403900Y-131756054D01*
X259638211Y-131818838D01*
X259818586Y-131842584D01*
X259878711Y-131850500D01*
X259878712Y-131850500D01*
X260121289Y-131850500D01*
X260169388Y-131844167D01*
X260361789Y-131818838D01*
X260596100Y-131756054D01*
X260820212Y-131663224D01*
X261030289Y-131541936D01*
X261222738Y-131394265D01*
X261394265Y-131222738D01*
X261541936Y-131030289D01*
X261663224Y-130820212D01*
X261756054Y-130596100D01*
X261818838Y-130361789D01*
X261850500Y-130121288D01*
X261850500Y-129878712D01*
X261850436Y-129878229D01*
X261818838Y-129638214D01*
X261818838Y-129638211D01*
X261756054Y-129403900D01*
X261663224Y-129179788D01*
X261541936Y-128969711D01*
X261417767Y-128807890D01*
X261394266Y-128777263D01*
X261394260Y-128777256D01*
X261222743Y-128605739D01*
X261222736Y-128605733D01*
X261030293Y-128458067D01*
X261030292Y-128458066D01*
X261030289Y-128458064D01*
X260820212Y-128336776D01*
X260820205Y-128336773D01*
X260596104Y-128243947D01*
X260478944Y-128212554D01*
X260361789Y-128181162D01*
X260361788Y-128181161D01*
X260361785Y-128181161D01*
X260121289Y-128149500D01*
X260121288Y-128149500D01*
X259878712Y-128149500D01*
X259878711Y-128149500D01*
X259638214Y-128181161D01*
X259403895Y-128243947D01*
X259179794Y-128336773D01*
X259179785Y-128336777D01*
X258969706Y-128458067D01*
X258777263Y-128605733D01*
X258777256Y-128605739D01*
X258605739Y-128777256D01*
X258605733Y-128777263D01*
X258458067Y-128969706D01*
X258336777Y-129179785D01*
X258336773Y-129179794D01*
X258243947Y-129403895D01*
X258181161Y-129638214D01*
X258149500Y-129878711D01*
X250525159Y-129878711D01*
X249747488Y-129101041D01*
X249807890Y-129076022D01*
X249914351Y-129004888D01*
X250004888Y-128914351D01*
X250076022Y-128807890D01*
X250101041Y-128747488D01*
X250937703Y-129584151D01*
X250937704Y-129584150D01*
X250991393Y-129516828D01*
X250991400Y-129516817D01*
X251126290Y-129283181D01*
X251224851Y-129032052D01*
X251224857Y-129032033D01*
X251284886Y-128769028D01*
X251284886Y-128769026D01*
X251305047Y-128500004D01*
X251305047Y-128499995D01*
X251284886Y-128230973D01*
X251284886Y-128230971D01*
X251224857Y-127967966D01*
X251224851Y-127967947D01*
X251126290Y-127716818D01*
X251126291Y-127716818D01*
X250991397Y-127483177D01*
X250937704Y-127415847D01*
X250101041Y-128252510D01*
X250076022Y-128192110D01*
X250004888Y-128085649D01*
X249914351Y-127995112D01*
X249807890Y-127923978D01*
X249747488Y-127898958D01*
X250585150Y-127061296D01*
X250402517Y-126936779D01*
X250402516Y-126936778D01*
X250159460Y-126819730D01*
X250159462Y-126819730D01*
X249901662Y-126740209D01*
X249901656Y-126740207D01*
X249634898Y-126700000D01*
X249365101Y-126700000D01*
X249098343Y-126740207D01*
X249098337Y-126740209D01*
X248840538Y-126819730D01*
X248597485Y-126936778D01*
X248597476Y-126936783D01*
X248414848Y-127061296D01*
X249252511Y-127898958D01*
X249192110Y-127923978D01*
X249085649Y-127995112D01*
X248995112Y-128085649D01*
X248923978Y-128192110D01*
X248898958Y-128252511D01*
X248062295Y-127415848D01*
X248008600Y-127483180D01*
X247873709Y-127716818D01*
X247775148Y-127967947D01*
X247775143Y-127967964D01*
X247745391Y-128098317D01*
X247711282Y-128159295D01*
X247649621Y-128192153D01*
X247579984Y-128186458D01*
X247524480Y-128144018D01*
X247500732Y-128078308D01*
X247500500Y-128070724D01*
X247500500Y-127180249D01*
X247500499Y-127180247D01*
X247488868Y-127121770D01*
X247488867Y-127121769D01*
X247444552Y-127055447D01*
X247378230Y-127011132D01*
X247378229Y-127011131D01*
X247319752Y-126999500D01*
X247319748Y-126999500D01*
X244680252Y-126999500D01*
X244680247Y-126999500D01*
X244621770Y-127011131D01*
X244621769Y-127011132D01*
X244555447Y-127055447D01*
X244511132Y-127121769D01*
X244511131Y-127121770D01*
X244499500Y-127180247D01*
X232550500Y-127180247D01*
X232550500Y-126688230D01*
X232547646Y-126657800D01*
X232547646Y-126657798D01*
X232502793Y-126529619D01*
X232502792Y-126529617D01*
X232422150Y-126420350D01*
X232312882Y-126339707D01*
X232312880Y-126339706D01*
X232184700Y-126294853D01*
X232154270Y-126292000D01*
X232154266Y-126292000D01*
X230845734Y-126292000D01*
X230845730Y-126292000D01*
X230815300Y-126294853D01*
X230815298Y-126294853D01*
X230687119Y-126339706D01*
X230687117Y-126339707D01*
X230577850Y-126420350D01*
X230497207Y-126529617D01*
X230497206Y-126529619D01*
X230452353Y-126657798D01*
X230452353Y-126657800D01*
X230449500Y-126688230D01*
X229826257Y-126688230D01*
X229815977Y-126672845D01*
X229815975Y-126672842D01*
X229669657Y-126526524D01*
X229546238Y-126444059D01*
X229497598Y-126411559D01*
X229402594Y-126372207D01*
X229306420Y-126332370D01*
X229306412Y-126332368D01*
X229103469Y-126292000D01*
X229103465Y-126292000D01*
X228896535Y-126292000D01*
X228896530Y-126292000D01*
X228693587Y-126332368D01*
X228693579Y-126332370D01*
X228502403Y-126411558D01*
X228330342Y-126526524D01*
X228184024Y-126672842D01*
X228069058Y-126844903D01*
X227989870Y-127036079D01*
X227989868Y-127036087D01*
X227949500Y-127239030D01*
X227550499Y-127239030D01*
X227510130Y-127036080D01*
X227430941Y-126844902D01*
X227315977Y-126672845D01*
X227315975Y-126672842D01*
X227169657Y-126526524D01*
X227046238Y-126444059D01*
X226997598Y-126411559D01*
X226902594Y-126372207D01*
X226806420Y-126332370D01*
X226806412Y-126332368D01*
X226603469Y-126292000D01*
X226603465Y-126292000D01*
X226396535Y-126292000D01*
X226396530Y-126292000D01*
X226193587Y-126332368D01*
X226193579Y-126332370D01*
X226002403Y-126411558D01*
X225830342Y-126526524D01*
X225684024Y-126672842D01*
X225569057Y-126844904D01*
X225523251Y-126955490D01*
X225479409Y-127009894D01*
X225413115Y-127031958D01*
X225345416Y-127014678D01*
X225297806Y-126963541D01*
X225290759Y-126946355D01*
X225251095Y-126824282D01*
X225154620Y-126634942D01*
X225029727Y-126463040D01*
X225029723Y-126463035D01*
X224879464Y-126312776D01*
X224879459Y-126312772D01*
X224707557Y-126187879D01*
X224518215Y-126091403D01*
X224316124Y-126025741D01*
X224250000Y-126015268D01*
X224250000Y-127063354D01*
X224183343Y-127024870D01*
X224062535Y-126992500D01*
X223937465Y-126992500D01*
X223816657Y-127024870D01*
X223750000Y-127063354D01*
X223750000Y-126015268D01*
X223749999Y-126015268D01*
X223683875Y-126025741D01*
X223481784Y-126091403D01*
X223292442Y-126187879D01*
X223120540Y-126312772D01*
X223120535Y-126312776D01*
X222970276Y-126463035D01*
X222970272Y-126463040D01*
X222845379Y-126634942D01*
X222748904Y-126824282D01*
X222683242Y-127026369D01*
X222683242Y-127026372D01*
X222652970Y-127217500D01*
X218800500Y-127217500D01*
X218800500Y-126688230D01*
X218797646Y-126657800D01*
X218797646Y-126657798D01*
X218752793Y-126529619D01*
X218752792Y-126529617D01*
X218672150Y-126420350D01*
X218562882Y-126339707D01*
X218562880Y-126339706D01*
X218434700Y-126294853D01*
X218404270Y-126292000D01*
X218404266Y-126292000D01*
X217095734Y-126292000D01*
X217095730Y-126292000D01*
X217065300Y-126294853D01*
X217065298Y-126294853D01*
X216937119Y-126339706D01*
X216937117Y-126339707D01*
X216827850Y-126420350D01*
X216747207Y-126529617D01*
X216747206Y-126529619D01*
X216702353Y-126657798D01*
X216702353Y-126657800D01*
X216699500Y-126688230D01*
X216699500Y-126697176D01*
X216679815Y-126764215D01*
X216627011Y-126809970D01*
X216557853Y-126819914D01*
X216494297Y-126790889D01*
X216465015Y-126753471D01*
X216404620Y-126634942D01*
X216279727Y-126463040D01*
X216279723Y-126463035D01*
X216129464Y-126312776D01*
X216129459Y-126312772D01*
X215957557Y-126187879D01*
X215768215Y-126091403D01*
X215566124Y-126025741D01*
X215500000Y-126015268D01*
X215500000Y-127063354D01*
X215433343Y-127024870D01*
X215312535Y-126992500D01*
X215187465Y-126992500D01*
X215066657Y-127024870D01*
X215000000Y-127063354D01*
X215000000Y-126015268D01*
X214999999Y-126015268D01*
X214933875Y-126025741D01*
X214731784Y-126091403D01*
X214542442Y-126187879D01*
X214370540Y-126312772D01*
X214370535Y-126312776D01*
X214220276Y-126463035D01*
X214220272Y-126463040D01*
X214095379Y-126634942D01*
X213998905Y-126824281D01*
X213959240Y-126946356D01*
X213919802Y-127004031D01*
X213855443Y-127031229D01*
X213786597Y-127019314D01*
X213735121Y-126972070D01*
X213726748Y-126955490D01*
X213722964Y-126946355D01*
X213680941Y-126844902D01*
X213565977Y-126672845D01*
X213565975Y-126672842D01*
X213419657Y-126526524D01*
X213296238Y-126444059D01*
X213247598Y-126411559D01*
X213152594Y-126372207D01*
X213056420Y-126332370D01*
X213056412Y-126332368D01*
X212853469Y-126292000D01*
X212853465Y-126292000D01*
X212646535Y-126292000D01*
X212646530Y-126292000D01*
X212443587Y-126332368D01*
X212443579Y-126332370D01*
X212252403Y-126411558D01*
X212080342Y-126526524D01*
X211934024Y-126672842D01*
X211819058Y-126844903D01*
X211739870Y-127036079D01*
X211739868Y-127036087D01*
X211699500Y-127239030D01*
X207800500Y-127239030D01*
X207800500Y-126720730D01*
X207797646Y-126690300D01*
X207797646Y-126690298D01*
X207752793Y-126562119D01*
X207752792Y-126562117D01*
X207672150Y-126452850D01*
X207562882Y-126372207D01*
X207562880Y-126372206D01*
X207434700Y-126327353D01*
X207404270Y-126324500D01*
X207404266Y-126324500D01*
X206095734Y-126324500D01*
X206095730Y-126324500D01*
X206065300Y-126327353D01*
X206065298Y-126327353D01*
X205937119Y-126372206D01*
X205937117Y-126372207D01*
X205827850Y-126452850D01*
X205747207Y-126562117D01*
X205747206Y-126562119D01*
X205702353Y-126690298D01*
X205702353Y-126690300D01*
X205699500Y-126720730D01*
X205076257Y-126720730D01*
X205065977Y-126705345D01*
X205065975Y-126705342D01*
X204919657Y-126559024D01*
X204776005Y-126463040D01*
X204747598Y-126444059D01*
X204556420Y-126364870D01*
X204556412Y-126364868D01*
X204353469Y-126324500D01*
X204353465Y-126324500D01*
X204146535Y-126324500D01*
X204146530Y-126324500D01*
X203943587Y-126364868D01*
X203943579Y-126364870D01*
X203752403Y-126444058D01*
X203580342Y-126559024D01*
X203434024Y-126705342D01*
X203319058Y-126877403D01*
X203239870Y-127068579D01*
X203239868Y-127068587D01*
X203199500Y-127271530D01*
X202800499Y-127271530D01*
X202760130Y-127068580D01*
X202680941Y-126877402D01*
X202565977Y-126705345D01*
X202565975Y-126705342D01*
X202419657Y-126559024D01*
X202276005Y-126463040D01*
X202247598Y-126444059D01*
X202056420Y-126364870D01*
X202056412Y-126364868D01*
X201853469Y-126324500D01*
X201853465Y-126324500D01*
X201646535Y-126324500D01*
X201646530Y-126324500D01*
X201443587Y-126364868D01*
X201443579Y-126364870D01*
X201252403Y-126444058D01*
X201080342Y-126559024D01*
X200934024Y-126705342D01*
X200819057Y-126877404D01*
X200773251Y-126987990D01*
X200729409Y-127042394D01*
X200663115Y-127064458D01*
X200595416Y-127047178D01*
X200547806Y-126996041D01*
X200540759Y-126978855D01*
X200501095Y-126856782D01*
X200404620Y-126667442D01*
X200279727Y-126495540D01*
X200279723Y-126495535D01*
X200129464Y-126345276D01*
X200129459Y-126345272D01*
X199957557Y-126220379D01*
X199768215Y-126123903D01*
X199566124Y-126058241D01*
X199500000Y-126047768D01*
X199500000Y-127095854D01*
X199433343Y-127057370D01*
X199312535Y-127025000D01*
X199187465Y-127025000D01*
X199066657Y-127057370D01*
X199000000Y-127095854D01*
X199000000Y-126047768D01*
X198999999Y-126047768D01*
X198933875Y-126058241D01*
X198731784Y-126123903D01*
X198542442Y-126220379D01*
X198370540Y-126345272D01*
X198370535Y-126345276D01*
X198220276Y-126495535D01*
X198220272Y-126495540D01*
X198095379Y-126667442D01*
X197998904Y-126856782D01*
X197933242Y-127058869D01*
X197933242Y-127058872D01*
X197902970Y-127250000D01*
X171750500Y-127250000D01*
X171750500Y-119500000D01*
X220364417Y-119500000D01*
X220384699Y-119705932D01*
X220384700Y-119705934D01*
X220444768Y-119903954D01*
X220542315Y-120086450D01*
X220542317Y-120086452D01*
X220673589Y-120246410D01*
X220770209Y-120325702D01*
X220833550Y-120377685D01*
X221016046Y-120475232D01*
X221214066Y-120535300D01*
X221214065Y-120535300D01*
X221232529Y-120537118D01*
X221420000Y-120555583D01*
X221625934Y-120535300D01*
X221823954Y-120475232D01*
X222006450Y-120377685D01*
X222166410Y-120246410D01*
X222297685Y-120086450D01*
X222395232Y-119903954D01*
X222415406Y-119837446D01*
X222453702Y-119779010D01*
X222517514Y-119750553D01*
X222586581Y-119761112D01*
X222638975Y-119807336D01*
X222653841Y-119841349D01*
X222686567Y-119963486D01*
X222686570Y-119963492D01*
X222786399Y-120177578D01*
X222921894Y-120371082D01*
X223088917Y-120538105D01*
X223282421Y-120673600D01*
X223496507Y-120773429D01*
X223496516Y-120773433D01*
X223710000Y-120830634D01*
X223710000Y-119933012D01*
X223767007Y-119965925D01*
X223894174Y-120000000D01*
X224025826Y-120000000D01*
X224152993Y-119965925D01*
X224210000Y-119933012D01*
X224210000Y-120830633D01*
X224423483Y-120773433D01*
X224423492Y-120773429D01*
X224637578Y-120673600D01*
X224831082Y-120538105D01*
X224998105Y-120371082D01*
X225133599Y-120177578D01*
X225213118Y-120007051D01*
X225259290Y-119954612D01*
X225326484Y-119935460D01*
X225393365Y-119955676D01*
X225438699Y-120008841D01*
X225449500Y-120059456D01*
X225449500Y-120369752D01*
X225461131Y-120428229D01*
X225461132Y-120428230D01*
X225505447Y-120494552D01*
X225571769Y-120538867D01*
X225571770Y-120538868D01*
X225630247Y-120550499D01*
X225630250Y-120550500D01*
X225630252Y-120550500D01*
X227369750Y-120550500D01*
X227369751Y-120550499D01*
X227384568Y-120547552D01*
X227428229Y-120538868D01*
X227428229Y-120538867D01*
X227428231Y-120538867D01*
X227494552Y-120494552D01*
X227538867Y-120428231D01*
X227538867Y-120428229D01*
X227538868Y-120428229D01*
X227548922Y-120377682D01*
X227550500Y-120369748D01*
X227550500Y-118630252D01*
X227550500Y-118630249D01*
X227550499Y-118630247D01*
X227538868Y-118571770D01*
X227538867Y-118571769D01*
X227494552Y-118505447D01*
X227428230Y-118461132D01*
X227428229Y-118461131D01*
X227369752Y-118449500D01*
X227369748Y-118449500D01*
X225630252Y-118449500D01*
X225630247Y-118449500D01*
X225571770Y-118461131D01*
X225571769Y-118461132D01*
X225505447Y-118505447D01*
X225461132Y-118571769D01*
X225461131Y-118571770D01*
X225449500Y-118630247D01*
X225449500Y-118940543D01*
X225429815Y-119007582D01*
X225377011Y-119053337D01*
X225307853Y-119063281D01*
X225244297Y-119034256D01*
X225213118Y-118992948D01*
X225133600Y-118822422D01*
X225133599Y-118822420D01*
X224998113Y-118628926D01*
X224998108Y-118628920D01*
X224831082Y-118461894D01*
X224637578Y-118326399D01*
X224423492Y-118226570D01*
X224423486Y-118226567D01*
X224210000Y-118169364D01*
X224210000Y-119066988D01*
X224152993Y-119034075D01*
X224025826Y-119000000D01*
X223894174Y-119000000D01*
X223767007Y-119034075D01*
X223710000Y-119066988D01*
X223710000Y-118169364D01*
X223709999Y-118169364D01*
X223496513Y-118226567D01*
X223496507Y-118226570D01*
X223282422Y-118326399D01*
X223282420Y-118326400D01*
X223088926Y-118461886D01*
X223088920Y-118461891D01*
X222921891Y-118628920D01*
X222921886Y-118628926D01*
X222786400Y-118822420D01*
X222786399Y-118822422D01*
X222686570Y-119036507D01*
X222686567Y-119036514D01*
X222653841Y-119158650D01*
X222617476Y-119218310D01*
X222554629Y-119248839D01*
X222485253Y-119240544D01*
X222431375Y-119196059D01*
X222415406Y-119162553D01*
X222395232Y-119096046D01*
X222297685Y-118913550D01*
X222222897Y-118822420D01*
X222166410Y-118753589D01*
X222016121Y-118630252D01*
X222006450Y-118622315D01*
X221823954Y-118524768D01*
X221625934Y-118464700D01*
X221625932Y-118464699D01*
X221625934Y-118464699D01*
X221420000Y-118444417D01*
X221214067Y-118464699D01*
X221016043Y-118524769D01*
X220928114Y-118571769D01*
X220833550Y-118622315D01*
X220833548Y-118622316D01*
X220833547Y-118622317D01*
X220673589Y-118753589D01*
X220542317Y-118913547D01*
X220444769Y-119096043D01*
X220384699Y-119294067D01*
X220364417Y-119500000D01*
X171750500Y-119500000D01*
X171750500Y-113680266D01*
X198910785Y-113680266D01*
X199069556Y-113735824D01*
X199237496Y-113754746D01*
X199237504Y-113754746D01*
X199405443Y-113735824D01*
X199564213Y-113680267D01*
X199564214Y-113680266D01*
X200910785Y-113680266D01*
X201069556Y-113735824D01*
X201237496Y-113754746D01*
X201237504Y-113754746D01*
X201405443Y-113735824D01*
X201564213Y-113680267D01*
X201564214Y-113680266D01*
X201237501Y-113353553D01*
X201237500Y-113353553D01*
X200910785Y-113680266D01*
X199564214Y-113680266D01*
X199237501Y-113353553D01*
X199237500Y-113353553D01*
X198910785Y-113680266D01*
X171750500Y-113680266D01*
X171750500Y-112999996D01*
X198482754Y-112999996D01*
X198482754Y-113000003D01*
X198501675Y-113167938D01*
X198501676Y-113167943D01*
X198557232Y-113326714D01*
X198883947Y-113000000D01*
X198864056Y-112980109D01*
X199137500Y-112980109D01*
X199137500Y-113019891D01*
X199152724Y-113056645D01*
X199180855Y-113084776D01*
X199217609Y-113100000D01*
X199257391Y-113100000D01*
X199294145Y-113084776D01*
X199322276Y-113056645D01*
X199337500Y-113019891D01*
X199337500Y-112999999D01*
X199591053Y-112999999D01*
X199591053Y-113000001D01*
X199917766Y-113326714D01*
X199917767Y-113326713D01*
X199973324Y-113167943D01*
X199992246Y-113000003D01*
X199992246Y-112999996D01*
X200482754Y-112999996D01*
X200482754Y-113000003D01*
X200501675Y-113167938D01*
X200501676Y-113167943D01*
X200557232Y-113326714D01*
X200883947Y-113000000D01*
X200864056Y-112980109D01*
X201137500Y-112980109D01*
X201137500Y-113019891D01*
X201152724Y-113056645D01*
X201180855Y-113084776D01*
X201217609Y-113100000D01*
X201257391Y-113100000D01*
X201294145Y-113084776D01*
X201322276Y-113056645D01*
X201337500Y-113019891D01*
X201337500Y-112999999D01*
X201591053Y-112999999D01*
X201591053Y-113000001D01*
X201917766Y-113326714D01*
X201917767Y-113326713D01*
X201973324Y-113167943D01*
X201992246Y-113000003D01*
X201992246Y-112999996D01*
X201973324Y-112832056D01*
X201917766Y-112673285D01*
X201591053Y-112999999D01*
X201337500Y-112999999D01*
X201337500Y-112980109D01*
X201322276Y-112943355D01*
X201294145Y-112915224D01*
X201257391Y-112900000D01*
X201217609Y-112900000D01*
X201180855Y-112915224D01*
X201152724Y-112943355D01*
X201137500Y-112980109D01*
X200864056Y-112980109D01*
X200557232Y-112673285D01*
X200501676Y-112832053D01*
X200501675Y-112832058D01*
X200482754Y-112999996D01*
X199992246Y-112999996D01*
X199973324Y-112832056D01*
X199917766Y-112673285D01*
X199591053Y-112999999D01*
X199337500Y-112999999D01*
X199337500Y-112980109D01*
X199322276Y-112943355D01*
X199294145Y-112915224D01*
X199257391Y-112900000D01*
X199217609Y-112900000D01*
X199180855Y-112915224D01*
X199152724Y-112943355D01*
X199137500Y-112980109D01*
X198864056Y-112980109D01*
X198557232Y-112673285D01*
X198501676Y-112832053D01*
X198501675Y-112832058D01*
X198482754Y-112999996D01*
X171750500Y-112999996D01*
X171750500Y-110500000D01*
X174364417Y-110500000D01*
X174384699Y-110705932D01*
X174414734Y-110804944D01*
X174444768Y-110903954D01*
X174542315Y-111086450D01*
X174542317Y-111086452D01*
X174673589Y-111246410D01*
X174770209Y-111325702D01*
X174833550Y-111377685D01*
X175016046Y-111475232D01*
X175214066Y-111535300D01*
X175214065Y-111535300D01*
X175232529Y-111537118D01*
X175420000Y-111555583D01*
X175625934Y-111535300D01*
X175823954Y-111475232D01*
X176006450Y-111377685D01*
X176166410Y-111246410D01*
X176297685Y-111086450D01*
X176395232Y-110903954D01*
X176455300Y-110705934D01*
X176475583Y-110500000D01*
X176904417Y-110500000D01*
X176924699Y-110705932D01*
X176954734Y-110804944D01*
X176984768Y-110903954D01*
X177082315Y-111086450D01*
X177082317Y-111086452D01*
X177213589Y-111246410D01*
X177310209Y-111325702D01*
X177373550Y-111377685D01*
X177556046Y-111475232D01*
X177754066Y-111535300D01*
X177754065Y-111535300D01*
X177772529Y-111537118D01*
X177960000Y-111555583D01*
X178165934Y-111535300D01*
X178363954Y-111475232D01*
X178546450Y-111377685D01*
X178706410Y-111246410D01*
X178837685Y-111086450D01*
X178935232Y-110903954D01*
X178995300Y-110705934D01*
X179015583Y-110500000D01*
X178995300Y-110294066D01*
X178935232Y-110096046D01*
X178837685Y-109913550D01*
X178785702Y-109850209D01*
X178706410Y-109753589D01*
X178556121Y-109630252D01*
X178556115Y-109630247D01*
X179449500Y-109630247D01*
X179449500Y-111369752D01*
X179461131Y-111428229D01*
X179461132Y-111428230D01*
X179505447Y-111494552D01*
X179571769Y-111538867D01*
X179571770Y-111538868D01*
X179630247Y-111550499D01*
X179630250Y-111550500D01*
X179630252Y-111550500D01*
X181369750Y-111550500D01*
X181369751Y-111550499D01*
X181384568Y-111547552D01*
X181428229Y-111538868D01*
X181428229Y-111538867D01*
X181428231Y-111538867D01*
X181494552Y-111494552D01*
X181538867Y-111428231D01*
X181538867Y-111428229D01*
X181538868Y-111428229D01*
X181550499Y-111369752D01*
X181550500Y-111369750D01*
X181550500Y-111199195D01*
X186896992Y-111199195D01*
X186896992Y-111199204D01*
X186916596Y-111460820D01*
X186916597Y-111460825D01*
X186974976Y-111716602D01*
X186974978Y-111716611D01*
X186974980Y-111716616D01*
X187070832Y-111960843D01*
X187202014Y-112188057D01*
X187334136Y-112353733D01*
X187365598Y-112393185D01*
X187547153Y-112561641D01*
X187557921Y-112571633D01*
X187774696Y-112719428D01*
X187774701Y-112719430D01*
X187774702Y-112719431D01*
X187774703Y-112719432D01*
X187900243Y-112779888D01*
X188011073Y-112833261D01*
X188011074Y-112833261D01*
X188011077Y-112833263D01*
X188261785Y-112910596D01*
X188521218Y-112949700D01*
X188783582Y-112949700D01*
X189043015Y-112910596D01*
X189293723Y-112833263D01*
X189530104Y-112719428D01*
X189746879Y-112571633D01*
X189939205Y-112393181D01*
X189997779Y-112319732D01*
X198910785Y-112319732D01*
X199237500Y-112646447D01*
X199237501Y-112646447D01*
X199564214Y-112319732D01*
X200910785Y-112319732D01*
X201237500Y-112646447D01*
X201237501Y-112646447D01*
X201564214Y-112319732D01*
X201405443Y-112264176D01*
X201405438Y-112264175D01*
X201237504Y-112245254D01*
X201237496Y-112245254D01*
X201069558Y-112264175D01*
X201069553Y-112264176D01*
X200910785Y-112319732D01*
X199564214Y-112319732D01*
X199405443Y-112264176D01*
X199405438Y-112264175D01*
X199237504Y-112245254D01*
X199237496Y-112245254D01*
X199069558Y-112264175D01*
X199069553Y-112264176D01*
X198910785Y-112319732D01*
X189997779Y-112319732D01*
X190102786Y-112188057D01*
X190233968Y-111960843D01*
X190329820Y-111716616D01*
X190338117Y-111680266D01*
X198910785Y-111680266D01*
X199069556Y-111735824D01*
X199237496Y-111754746D01*
X199237504Y-111754746D01*
X199405443Y-111735824D01*
X199564213Y-111680267D01*
X199564214Y-111680266D01*
X200910785Y-111680266D01*
X201069556Y-111735824D01*
X201237496Y-111754746D01*
X201237504Y-111754746D01*
X201405443Y-111735824D01*
X201564213Y-111680267D01*
X201564214Y-111680266D01*
X201237501Y-111353553D01*
X201237500Y-111353553D01*
X200910785Y-111680266D01*
X199564214Y-111680266D01*
X199237501Y-111353553D01*
X199237500Y-111353553D01*
X198910785Y-111680266D01*
X190338117Y-111680266D01*
X190388202Y-111460830D01*
X190395027Y-111369752D01*
X190407808Y-111199204D01*
X190407808Y-111199195D01*
X190392880Y-110999996D01*
X198482754Y-110999996D01*
X198482754Y-111000003D01*
X198501675Y-111167938D01*
X198501676Y-111167943D01*
X198557232Y-111326714D01*
X198883947Y-111000000D01*
X198864056Y-110980109D01*
X199137500Y-110980109D01*
X199137500Y-111019891D01*
X199152724Y-111056645D01*
X199180855Y-111084776D01*
X199217609Y-111100000D01*
X199257391Y-111100000D01*
X199294145Y-111084776D01*
X199322276Y-111056645D01*
X199337500Y-111019891D01*
X199337500Y-110999999D01*
X199591053Y-110999999D01*
X199591053Y-111000001D01*
X199917766Y-111326714D01*
X199917767Y-111326713D01*
X199973324Y-111167943D01*
X199992246Y-111000003D01*
X199992246Y-110999996D01*
X200482754Y-110999996D01*
X200482754Y-111000003D01*
X200501675Y-111167938D01*
X200501676Y-111167943D01*
X200557232Y-111326714D01*
X200883947Y-111000000D01*
X200864056Y-110980109D01*
X201137500Y-110980109D01*
X201137500Y-111019891D01*
X201152724Y-111056645D01*
X201180855Y-111084776D01*
X201217609Y-111100000D01*
X201257391Y-111100000D01*
X201294145Y-111084776D01*
X201322276Y-111056645D01*
X201337500Y-111019891D01*
X201337500Y-110999999D01*
X201591053Y-110999999D01*
X201591053Y-111000001D01*
X201917766Y-111326714D01*
X201917767Y-111326713D01*
X201962388Y-111199195D01*
X245146992Y-111199195D01*
X245146992Y-111199204D01*
X245166596Y-111460820D01*
X245166597Y-111460825D01*
X245224976Y-111716602D01*
X245224978Y-111716611D01*
X245224980Y-111716616D01*
X245320832Y-111960843D01*
X245452014Y-112188057D01*
X245584136Y-112353733D01*
X245615598Y-112393185D01*
X245797153Y-112561641D01*
X245807921Y-112571633D01*
X246024696Y-112719428D01*
X246024701Y-112719430D01*
X246024702Y-112719431D01*
X246024703Y-112719432D01*
X246150243Y-112779888D01*
X246261073Y-112833261D01*
X246261074Y-112833261D01*
X246261077Y-112833263D01*
X246511785Y-112910596D01*
X246771218Y-112949700D01*
X247033582Y-112949700D01*
X247293015Y-112910596D01*
X247543723Y-112833263D01*
X247780104Y-112719428D01*
X247996879Y-112571633D01*
X248189205Y-112393181D01*
X248352786Y-112188057D01*
X248483968Y-111960843D01*
X248579820Y-111716616D01*
X248638202Y-111460830D01*
X248645027Y-111369752D01*
X248657808Y-111199204D01*
X248657808Y-111199195D01*
X248638203Y-110937579D01*
X248638202Y-110937574D01*
X248638202Y-110937570D01*
X248579820Y-110681784D01*
X248483968Y-110437557D01*
X248352786Y-110210343D01*
X248189205Y-110005219D01*
X248189204Y-110005218D01*
X248189201Y-110005214D01*
X247996879Y-109826767D01*
X247889548Y-109753590D01*
X247780104Y-109678972D01*
X247780100Y-109678970D01*
X247780097Y-109678968D01*
X247780096Y-109678967D01*
X247543725Y-109565138D01*
X247543727Y-109565138D01*
X247293023Y-109487806D01*
X247293019Y-109487805D01*
X247293015Y-109487804D01*
X247168223Y-109468994D01*
X247033587Y-109448700D01*
X247033582Y-109448700D01*
X246771218Y-109448700D01*
X246771212Y-109448700D01*
X246609647Y-109473053D01*
X246511785Y-109487804D01*
X246511782Y-109487805D01*
X246511776Y-109487806D01*
X246261073Y-109565138D01*
X246024703Y-109678967D01*
X246024702Y-109678968D01*
X245807920Y-109826767D01*
X245615598Y-110005214D01*
X245452014Y-110210343D01*
X245320832Y-110437556D01*
X245224982Y-110681778D01*
X245224976Y-110681797D01*
X245166597Y-110937574D01*
X245166596Y-110937579D01*
X245146992Y-111199195D01*
X201962388Y-111199195D01*
X201973324Y-111167943D01*
X201992246Y-111000003D01*
X201992246Y-110999996D01*
X201973324Y-110832056D01*
X201917766Y-110673285D01*
X201591053Y-110999999D01*
X201337500Y-110999999D01*
X201337500Y-110980109D01*
X201322276Y-110943355D01*
X201294145Y-110915224D01*
X201257391Y-110900000D01*
X201217609Y-110900000D01*
X201180855Y-110915224D01*
X201152724Y-110943355D01*
X201137500Y-110980109D01*
X200864056Y-110980109D01*
X200557232Y-110673285D01*
X200501676Y-110832053D01*
X200501675Y-110832058D01*
X200482754Y-110999996D01*
X199992246Y-110999996D01*
X199973324Y-110832056D01*
X199917766Y-110673285D01*
X199591053Y-110999999D01*
X199337500Y-110999999D01*
X199337500Y-110980109D01*
X199322276Y-110943355D01*
X199294145Y-110915224D01*
X199257391Y-110900000D01*
X199217609Y-110900000D01*
X199180855Y-110915224D01*
X199152724Y-110943355D01*
X199137500Y-110980109D01*
X198864056Y-110980109D01*
X198557232Y-110673285D01*
X198501676Y-110832053D01*
X198501675Y-110832058D01*
X198482754Y-110999996D01*
X190392880Y-110999996D01*
X190388203Y-110937579D01*
X190388202Y-110937574D01*
X190388202Y-110937570D01*
X190329820Y-110681784D01*
X190233968Y-110437557D01*
X190165942Y-110319732D01*
X198910785Y-110319732D01*
X199237500Y-110646447D01*
X199237501Y-110646447D01*
X199564214Y-110319732D01*
X200910785Y-110319732D01*
X201237500Y-110646447D01*
X201237501Y-110646447D01*
X201564214Y-110319732D01*
X201405443Y-110264176D01*
X201405438Y-110264175D01*
X201237504Y-110245254D01*
X201237496Y-110245254D01*
X201069558Y-110264175D01*
X201069553Y-110264176D01*
X200910785Y-110319732D01*
X199564214Y-110319732D01*
X199405443Y-110264176D01*
X199405438Y-110264175D01*
X199237504Y-110245254D01*
X199237496Y-110245254D01*
X199069558Y-110264175D01*
X199069553Y-110264176D01*
X198910785Y-110319732D01*
X190165942Y-110319732D01*
X190102786Y-110210343D01*
X189939205Y-110005219D01*
X189939204Y-110005218D01*
X189939201Y-110005214D01*
X189746879Y-109826767D01*
X189639548Y-109753590D01*
X189530104Y-109678972D01*
X189530100Y-109678970D01*
X189530097Y-109678968D01*
X189530096Y-109678967D01*
X189293725Y-109565138D01*
X189293727Y-109565138D01*
X189043023Y-109487806D01*
X189043019Y-109487805D01*
X189043015Y-109487804D01*
X188918223Y-109468994D01*
X188783587Y-109448700D01*
X188783582Y-109448700D01*
X188521218Y-109448700D01*
X188521212Y-109448700D01*
X188359647Y-109473053D01*
X188261785Y-109487804D01*
X188261782Y-109487805D01*
X188261776Y-109487806D01*
X188011073Y-109565138D01*
X187774703Y-109678967D01*
X187774702Y-109678968D01*
X187557920Y-109826767D01*
X187365598Y-110005214D01*
X187202014Y-110210343D01*
X187070832Y-110437556D01*
X186974982Y-110681778D01*
X186974976Y-110681797D01*
X186916597Y-110937574D01*
X186916596Y-110937579D01*
X186896992Y-111199195D01*
X181550500Y-111199195D01*
X181550500Y-109630249D01*
X181550499Y-109630247D01*
X181538868Y-109571770D01*
X181538867Y-109571769D01*
X181494552Y-109505447D01*
X181428230Y-109461132D01*
X181428229Y-109461131D01*
X181369752Y-109449500D01*
X181369748Y-109449500D01*
X179630252Y-109449500D01*
X179630247Y-109449500D01*
X179571770Y-109461131D01*
X179571769Y-109461132D01*
X179505447Y-109505447D01*
X179461132Y-109571769D01*
X179461131Y-109571770D01*
X179449500Y-109630247D01*
X178556115Y-109630247D01*
X178546450Y-109622315D01*
X178363954Y-109524768D01*
X178165934Y-109464700D01*
X178165932Y-109464699D01*
X178165934Y-109464699D01*
X177960000Y-109444417D01*
X177754067Y-109464699D01*
X177556043Y-109524769D01*
X177468114Y-109571769D01*
X177373550Y-109622315D01*
X177373548Y-109622316D01*
X177373547Y-109622317D01*
X177213589Y-109753589D01*
X177082317Y-109913547D01*
X176984769Y-110096043D01*
X176924699Y-110294067D01*
X176904417Y-110500000D01*
X176475583Y-110500000D01*
X176455300Y-110294066D01*
X176395232Y-110096046D01*
X176297685Y-109913550D01*
X176245702Y-109850209D01*
X176166410Y-109753589D01*
X176016121Y-109630252D01*
X176006450Y-109622315D01*
X175823954Y-109524768D01*
X175625934Y-109464700D01*
X175625932Y-109464699D01*
X175625934Y-109464699D01*
X175420000Y-109444417D01*
X175214067Y-109464699D01*
X175016043Y-109524769D01*
X174928114Y-109571769D01*
X174833550Y-109622315D01*
X174833548Y-109622316D01*
X174833547Y-109622317D01*
X174673589Y-109753589D01*
X174542317Y-109913547D01*
X174444769Y-110096043D01*
X174384699Y-110294067D01*
X174364417Y-110500000D01*
X171750500Y-110500000D01*
X171750500Y-87950000D01*
X173404417Y-87950000D01*
X173424699Y-88155932D01*
X173424700Y-88155934D01*
X173484768Y-88353954D01*
X173582315Y-88536450D01*
X173582317Y-88536452D01*
X173713589Y-88696410D01*
X173810209Y-88775702D01*
X173873550Y-88827685D01*
X174056046Y-88925232D01*
X174254066Y-88985300D01*
X174254065Y-88985300D01*
X174272529Y-88987118D01*
X174460000Y-89005583D01*
X174665934Y-88985300D01*
X174863954Y-88925232D01*
X175046450Y-88827685D01*
X175206410Y-88696410D01*
X175337685Y-88536450D01*
X175435232Y-88353954D01*
X175495300Y-88155934D01*
X175515583Y-87950000D01*
X175944417Y-87950000D01*
X175964699Y-88155932D01*
X175964700Y-88155934D01*
X176024768Y-88353954D01*
X176122315Y-88536450D01*
X176122317Y-88536452D01*
X176253589Y-88696410D01*
X176350209Y-88775702D01*
X176413550Y-88827685D01*
X176596046Y-88925232D01*
X176794066Y-88985300D01*
X176794065Y-88985300D01*
X176812529Y-88987118D01*
X177000000Y-89005583D01*
X177205934Y-88985300D01*
X177403954Y-88925232D01*
X177586450Y-88827685D01*
X177746410Y-88696410D01*
X177877685Y-88536450D01*
X177975232Y-88353954D01*
X178035300Y-88155934D01*
X178055583Y-87950000D01*
X178035300Y-87744066D01*
X177975232Y-87546046D01*
X177877685Y-87363550D01*
X177825702Y-87300209D01*
X177746410Y-87203589D01*
X177596121Y-87080252D01*
X177596115Y-87080247D01*
X178489500Y-87080247D01*
X178489500Y-88819752D01*
X178501131Y-88878229D01*
X178501132Y-88878230D01*
X178545447Y-88944552D01*
X178611769Y-88988867D01*
X178611770Y-88988868D01*
X178670247Y-89000499D01*
X178670250Y-89000500D01*
X178670252Y-89000500D01*
X180409750Y-89000500D01*
X180409751Y-89000499D01*
X180424568Y-88997552D01*
X180468229Y-88988868D01*
X180468229Y-88988867D01*
X180468231Y-88988867D01*
X180534552Y-88944552D01*
X180578867Y-88878231D01*
X180578867Y-88878229D01*
X180578868Y-88878229D01*
X180590499Y-88819752D01*
X180590500Y-88819750D01*
X180590500Y-87080249D01*
X180590499Y-87080247D01*
X180578868Y-87021770D01*
X180578867Y-87021769D01*
X180534552Y-86955447D01*
X180468230Y-86911132D01*
X180468229Y-86911131D01*
X180409752Y-86899500D01*
X180409748Y-86899500D01*
X178670252Y-86899500D01*
X178670247Y-86899500D01*
X178611770Y-86911131D01*
X178611769Y-86911132D01*
X178545447Y-86955447D01*
X178501132Y-87021769D01*
X178501131Y-87021770D01*
X178489500Y-87080247D01*
X177596115Y-87080247D01*
X177586450Y-87072315D01*
X177403954Y-86974768D01*
X177205934Y-86914700D01*
X177205932Y-86914699D01*
X177205934Y-86914699D01*
X177000000Y-86894417D01*
X176794067Y-86914699D01*
X176596043Y-86974769D01*
X176508114Y-87021769D01*
X176413550Y-87072315D01*
X176413548Y-87072316D01*
X176413547Y-87072317D01*
X176253589Y-87203589D01*
X176122317Y-87363547D01*
X176024769Y-87546043D01*
X175964699Y-87744067D01*
X175944417Y-87950000D01*
X175515583Y-87950000D01*
X175495300Y-87744066D01*
X175435232Y-87546046D01*
X175337685Y-87363550D01*
X175285702Y-87300209D01*
X175206410Y-87203589D01*
X175056121Y-87080252D01*
X175046450Y-87072315D01*
X174863954Y-86974768D01*
X174665934Y-86914700D01*
X174665932Y-86914699D01*
X174665934Y-86914699D01*
X174460000Y-86894417D01*
X174254067Y-86914699D01*
X174056043Y-86974769D01*
X173968114Y-87021769D01*
X173873550Y-87072315D01*
X173873548Y-87072316D01*
X173873547Y-87072317D01*
X173713589Y-87203589D01*
X173582317Y-87363547D01*
X173484769Y-87546043D01*
X173424699Y-87744067D01*
X173404417Y-87950000D01*
X171750500Y-87950000D01*
X171750500Y-81500000D01*
X174574430Y-81500000D01*
X174594656Y-81692439D01*
X174594657Y-81692441D01*
X174654447Y-81876456D01*
X174654450Y-81876463D01*
X174751197Y-82044035D01*
X174880667Y-82187828D01*
X174880674Y-82187834D01*
X175037210Y-82301564D01*
X175037211Y-82301564D01*
X175037215Y-82301567D01*
X175181377Y-82365752D01*
X175213978Y-82380267D01*
X175213983Y-82380269D01*
X175403252Y-82420500D01*
X175596748Y-82420500D01*
X175786017Y-82380269D01*
X175962785Y-82301567D01*
X176119327Y-82187833D01*
X176248802Y-82044036D01*
X176345550Y-81876463D01*
X176405344Y-81692437D01*
X176425570Y-81500000D01*
X176405344Y-81307563D01*
X176345550Y-81123537D01*
X176248802Y-80955964D01*
X176119332Y-80812171D01*
X176119325Y-80812165D01*
X175962789Y-80698435D01*
X175962786Y-80698433D01*
X175962785Y-80698433D01*
X175898598Y-80669855D01*
X175786021Y-80619732D01*
X175786016Y-80619730D01*
X175596748Y-80579500D01*
X175403252Y-80579500D01*
X175213983Y-80619730D01*
X175213978Y-80619732D01*
X175037215Y-80698433D01*
X175037210Y-80698435D01*
X174880674Y-80812165D01*
X174880667Y-80812171D01*
X174751197Y-80955964D01*
X174654450Y-81123536D01*
X174654447Y-81123543D01*
X174594657Y-81307558D01*
X174594656Y-81307560D01*
X174574430Y-81500000D01*
X171750500Y-81500000D01*
X171750500Y-78960000D01*
X174574430Y-78960000D01*
X174594656Y-79152439D01*
X174594657Y-79152441D01*
X174654447Y-79336456D01*
X174654450Y-79336463D01*
X174751197Y-79504035D01*
X174880667Y-79647828D01*
X174880674Y-79647834D01*
X175037210Y-79761564D01*
X175037211Y-79761564D01*
X175037215Y-79761567D01*
X175181377Y-79825752D01*
X175213978Y-79840267D01*
X175213983Y-79840269D01*
X175403252Y-79880500D01*
X175596748Y-79880500D01*
X175786017Y-79840269D01*
X175962785Y-79761567D01*
X176119327Y-79647833D01*
X176248802Y-79504036D01*
X176345550Y-79336463D01*
X176405344Y-79152437D01*
X176425570Y-78960000D01*
X176405344Y-78767563D01*
X176345550Y-78583537D01*
X176320414Y-78540000D01*
X228444417Y-78540000D01*
X228464699Y-78745932D01*
X228464700Y-78745934D01*
X228524768Y-78943954D01*
X228622315Y-79126450D01*
X228643645Y-79152441D01*
X228753589Y-79286410D01*
X228814580Y-79336463D01*
X228913550Y-79417685D01*
X229096046Y-79515232D01*
X229294066Y-79575300D01*
X229294065Y-79575300D01*
X229312529Y-79577118D01*
X229500000Y-79595583D01*
X229705934Y-79575300D01*
X229903954Y-79515232D01*
X230086450Y-79417685D01*
X230246410Y-79286410D01*
X230377685Y-79126450D01*
X230475232Y-78943954D01*
X230535300Y-78745934D01*
X230555583Y-78540000D01*
X230535300Y-78334066D01*
X230475232Y-78136046D01*
X230377685Y-77953550D01*
X230325702Y-77890209D01*
X230246410Y-77793589D01*
X230086452Y-77662317D01*
X230086453Y-77662317D01*
X230086450Y-77662315D01*
X229903954Y-77564768D01*
X229705934Y-77504700D01*
X229705932Y-77504699D01*
X229705934Y-77504699D01*
X229500000Y-77484417D01*
X229294067Y-77504699D01*
X229096043Y-77564769D01*
X228985898Y-77623643D01*
X228913550Y-77662315D01*
X228913548Y-77662316D01*
X228913547Y-77662317D01*
X228753589Y-77793589D01*
X228622317Y-77953547D01*
X228524769Y-78136043D01*
X228464699Y-78334067D01*
X228444417Y-78540000D01*
X176320414Y-78540000D01*
X176248802Y-78415964D01*
X176119332Y-78272171D01*
X176119325Y-78272165D01*
X175962789Y-78158435D01*
X175962786Y-78158433D01*
X175962785Y-78158433D01*
X175898598Y-78129855D01*
X175786021Y-78079732D01*
X175786016Y-78079730D01*
X175596748Y-78039500D01*
X175403252Y-78039500D01*
X175213983Y-78079730D01*
X175213978Y-78079732D01*
X175037215Y-78158433D01*
X175037210Y-78158435D01*
X174880674Y-78272165D01*
X174880667Y-78272171D01*
X174751197Y-78415964D01*
X174654450Y-78583536D01*
X174654447Y-78583543D01*
X174594657Y-78767558D01*
X174594656Y-78767560D01*
X174574430Y-78960000D01*
X171750500Y-78960000D01*
X171750500Y-76420000D01*
X174574430Y-76420000D01*
X174594656Y-76612439D01*
X174594657Y-76612441D01*
X174654447Y-76796456D01*
X174654450Y-76796463D01*
X174751197Y-76964035D01*
X174880667Y-77107828D01*
X174880674Y-77107834D01*
X175037210Y-77221564D01*
X175037211Y-77221564D01*
X175037215Y-77221567D01*
X175181377Y-77285752D01*
X175213978Y-77300267D01*
X175213983Y-77300269D01*
X175403252Y-77340500D01*
X175596748Y-77340500D01*
X175786017Y-77300269D01*
X175962785Y-77221567D01*
X176119327Y-77107833D01*
X176248802Y-76964036D01*
X176345550Y-76796463D01*
X176405344Y-76612437D01*
X176425570Y-76420000D01*
X176405344Y-76227563D01*
X176345550Y-76043537D01*
X176248802Y-75875964D01*
X176119332Y-75732171D01*
X176119325Y-75732165D01*
X175962789Y-75618435D01*
X175962786Y-75618433D01*
X175962785Y-75618433D01*
X175898598Y-75589855D01*
X175786021Y-75539732D01*
X175786016Y-75539730D01*
X175596748Y-75499500D01*
X175403252Y-75499500D01*
X175213983Y-75539730D01*
X175213978Y-75539732D01*
X175037215Y-75618433D01*
X175037210Y-75618435D01*
X174880674Y-75732165D01*
X174880667Y-75732171D01*
X174751197Y-75875964D01*
X174654450Y-76043536D01*
X174654447Y-76043543D01*
X174594657Y-76227558D01*
X174594656Y-76227560D01*
X174574430Y-76420000D01*
X171750500Y-76420000D01*
X171750500Y-75130247D01*
X228449500Y-75130247D01*
X228449500Y-76869752D01*
X228461131Y-76928229D01*
X228461132Y-76928230D01*
X228505447Y-76994552D01*
X228571769Y-77038867D01*
X228571770Y-77038868D01*
X228630247Y-77050499D01*
X228630250Y-77050500D01*
X228630252Y-77050500D01*
X230369750Y-77050500D01*
X230369751Y-77050499D01*
X230384568Y-77047552D01*
X230428229Y-77038868D01*
X230428229Y-77038867D01*
X230428231Y-77038867D01*
X230494552Y-76994552D01*
X230538867Y-76928231D01*
X230538867Y-76928229D01*
X230538868Y-76928229D01*
X230550499Y-76869752D01*
X230550500Y-76869750D01*
X230550500Y-75130249D01*
X230550499Y-75130247D01*
X230538868Y-75071770D01*
X230538867Y-75071769D01*
X230494552Y-75005447D01*
X230428230Y-74961132D01*
X230428229Y-74961131D01*
X230369752Y-74949500D01*
X230369748Y-74949500D01*
X228630252Y-74949500D01*
X228630247Y-74949500D01*
X228571770Y-74961131D01*
X228571769Y-74961132D01*
X228505447Y-75005447D01*
X228461132Y-75071769D01*
X228461131Y-75071770D01*
X228449500Y-75130247D01*
X171750500Y-75130247D01*
X171750500Y-68699195D01*
X186896992Y-68699195D01*
X186896992Y-68699204D01*
X186916596Y-68960820D01*
X186916597Y-68960825D01*
X186974976Y-69216602D01*
X186974978Y-69216611D01*
X186974980Y-69216616D01*
X187070832Y-69460843D01*
X187202014Y-69688057D01*
X187307179Y-69819930D01*
X187365598Y-69893185D01*
X187547153Y-70061641D01*
X187557921Y-70071633D01*
X187774696Y-70219428D01*
X187774701Y-70219430D01*
X187774702Y-70219431D01*
X187774703Y-70219432D01*
X187900243Y-70279888D01*
X188011073Y-70333261D01*
X188011074Y-70333261D01*
X188011077Y-70333263D01*
X188261785Y-70410596D01*
X188521218Y-70449700D01*
X188783582Y-70449700D01*
X189043015Y-70410596D01*
X189293723Y-70333263D01*
X189530104Y-70219428D01*
X189746879Y-70071633D01*
X189939205Y-69893181D01*
X190102786Y-69688057D01*
X190233968Y-69460843D01*
X190329820Y-69216616D01*
X190388202Y-68960830D01*
X190393221Y-68893861D01*
X190407808Y-68699204D01*
X190407808Y-68699195D01*
X190388203Y-68437579D01*
X190388202Y-68437574D01*
X190388202Y-68437570D01*
X190329820Y-68181784D01*
X190267089Y-68021947D01*
X201216900Y-68021947D01*
X201216900Y-69761452D01*
X201228531Y-69819929D01*
X201228532Y-69819930D01*
X201272847Y-69886252D01*
X201339169Y-69930567D01*
X201339170Y-69930568D01*
X201397647Y-69942199D01*
X201397650Y-69942200D01*
X201397652Y-69942200D01*
X203137150Y-69942200D01*
X203137151Y-69942199D01*
X203151968Y-69939252D01*
X203195629Y-69930568D01*
X203195629Y-69930567D01*
X203195631Y-69930567D01*
X203261952Y-69886252D01*
X203306267Y-69819931D01*
X203306267Y-69819929D01*
X203306268Y-69819929D01*
X203314952Y-69776268D01*
X203317900Y-69761448D01*
X203317900Y-68891700D01*
X203751817Y-68891700D01*
X203772099Y-69097632D01*
X203785635Y-69142253D01*
X203832168Y-69295654D01*
X203929715Y-69478150D01*
X203932364Y-69481378D01*
X204060989Y-69638110D01*
X204121851Y-69688057D01*
X204220950Y-69769385D01*
X204403446Y-69866932D01*
X204601466Y-69927000D01*
X204601465Y-69927000D01*
X204619929Y-69928818D01*
X204807400Y-69947283D01*
X205013334Y-69927000D01*
X205211354Y-69866932D01*
X205393850Y-69769385D01*
X205553810Y-69638110D01*
X205685085Y-69478150D01*
X205782632Y-69295654D01*
X205842700Y-69097634D01*
X205862983Y-68891700D01*
X206291817Y-68891700D01*
X206312099Y-69097632D01*
X206325635Y-69142253D01*
X206372168Y-69295654D01*
X206469715Y-69478150D01*
X206472364Y-69481378D01*
X206600989Y-69638110D01*
X206661851Y-69688057D01*
X206760950Y-69769385D01*
X206943446Y-69866932D01*
X207141466Y-69927000D01*
X207141465Y-69927000D01*
X207159929Y-69928818D01*
X207347400Y-69947283D01*
X207553334Y-69927000D01*
X207751354Y-69866932D01*
X207933850Y-69769385D01*
X208093810Y-69638110D01*
X208225085Y-69478150D01*
X208322632Y-69295654D01*
X208382700Y-69097634D01*
X208402983Y-68891700D01*
X208831817Y-68891700D01*
X208852099Y-69097632D01*
X208865635Y-69142253D01*
X208912168Y-69295654D01*
X209009715Y-69478150D01*
X209012364Y-69481378D01*
X209140989Y-69638110D01*
X209201851Y-69688057D01*
X209300950Y-69769385D01*
X209483446Y-69866932D01*
X209681466Y-69927000D01*
X209681465Y-69927000D01*
X209699929Y-69928818D01*
X209887400Y-69947283D01*
X210093334Y-69927000D01*
X210291354Y-69866932D01*
X210473850Y-69769385D01*
X210633810Y-69638110D01*
X210765085Y-69478150D01*
X210862632Y-69295654D01*
X210922700Y-69097634D01*
X210942983Y-68891700D01*
X211371817Y-68891700D01*
X211392099Y-69097632D01*
X211405635Y-69142253D01*
X211452168Y-69295654D01*
X211549715Y-69478150D01*
X211552364Y-69481378D01*
X211680989Y-69638110D01*
X211741851Y-69688057D01*
X211840950Y-69769385D01*
X212023446Y-69866932D01*
X212221466Y-69927000D01*
X212221465Y-69927000D01*
X212239929Y-69928818D01*
X212427400Y-69947283D01*
X212633334Y-69927000D01*
X212831354Y-69866932D01*
X213013850Y-69769385D01*
X213173810Y-69638110D01*
X213305085Y-69478150D01*
X213402632Y-69295654D01*
X213462700Y-69097634D01*
X213482983Y-68891700D01*
X213911817Y-68891700D01*
X213932099Y-69097632D01*
X213945635Y-69142253D01*
X213992168Y-69295654D01*
X214089715Y-69478150D01*
X214092364Y-69481378D01*
X214220989Y-69638110D01*
X214281851Y-69688057D01*
X214380950Y-69769385D01*
X214563446Y-69866932D01*
X214761466Y-69927000D01*
X214761465Y-69927000D01*
X214779929Y-69928818D01*
X214967400Y-69947283D01*
X215173334Y-69927000D01*
X215371354Y-69866932D01*
X215553850Y-69769385D01*
X215713810Y-69638110D01*
X215845085Y-69478150D01*
X215942632Y-69295654D01*
X215962806Y-69229146D01*
X216001102Y-69170710D01*
X216064914Y-69142253D01*
X216133981Y-69152812D01*
X216186375Y-69199036D01*
X216201241Y-69233049D01*
X216233967Y-69355186D01*
X216233970Y-69355192D01*
X216333799Y-69569278D01*
X216469294Y-69762782D01*
X216636317Y-69929805D01*
X216829821Y-70065300D01*
X217043907Y-70165129D01*
X217043916Y-70165133D01*
X217257400Y-70222334D01*
X217257400Y-69324712D01*
X217314407Y-69357625D01*
X217441574Y-69391700D01*
X217573226Y-69391700D01*
X217700393Y-69357625D01*
X217757400Y-69324712D01*
X217757400Y-70222333D01*
X217970883Y-70165133D01*
X217970892Y-70165129D01*
X218184978Y-70065300D01*
X218378482Y-69929805D01*
X218545505Y-69762782D01*
X218681000Y-69569278D01*
X218780829Y-69355192D01*
X218780833Y-69355183D01*
X218822631Y-69199189D01*
X218858996Y-69139529D01*
X218921842Y-69108999D01*
X218991218Y-69117293D01*
X219045096Y-69161778D01*
X219061066Y-69195286D01*
X219092168Y-69297815D01*
X219189715Y-69480311D01*
X219189717Y-69480313D01*
X219320989Y-69640271D01*
X219417609Y-69719563D01*
X219480950Y-69771546D01*
X219663446Y-69869093D01*
X219861466Y-69929161D01*
X219861465Y-69929161D01*
X219872279Y-69930226D01*
X220067400Y-69949444D01*
X220273334Y-69929161D01*
X220471354Y-69869093D01*
X220653850Y-69771546D01*
X220813810Y-69640271D01*
X220945085Y-69480311D01*
X221042632Y-69297815D01*
X221102700Y-69099795D01*
X221122878Y-68894926D01*
X221551817Y-68894926D01*
X221572099Y-69100858D01*
X221600744Y-69195287D01*
X221632168Y-69298880D01*
X221729715Y-69481376D01*
X221729717Y-69481378D01*
X221860989Y-69641336D01*
X221917920Y-69688057D01*
X222020950Y-69772611D01*
X222203446Y-69870158D01*
X222401466Y-69930226D01*
X222401465Y-69930226D01*
X222404938Y-69930568D01*
X222607400Y-69950509D01*
X222813334Y-69930226D01*
X223011354Y-69870158D01*
X223193850Y-69772611D01*
X223353810Y-69641336D01*
X223485085Y-69481376D01*
X223582632Y-69298880D01*
X223642700Y-69100860D01*
X223662983Y-68894926D01*
X223643705Y-68699195D01*
X245146992Y-68699195D01*
X245146992Y-68699204D01*
X245166596Y-68960820D01*
X245166597Y-68960825D01*
X245224976Y-69216602D01*
X245224978Y-69216611D01*
X245224980Y-69216616D01*
X245320832Y-69460843D01*
X245452014Y-69688057D01*
X245557179Y-69819930D01*
X245615598Y-69893185D01*
X245797153Y-70061641D01*
X245807921Y-70071633D01*
X246024696Y-70219428D01*
X246024701Y-70219430D01*
X246024702Y-70219431D01*
X246024703Y-70219432D01*
X246150243Y-70279888D01*
X246261073Y-70333261D01*
X246261074Y-70333261D01*
X246261077Y-70333263D01*
X246511785Y-70410596D01*
X246771218Y-70449700D01*
X247033582Y-70449700D01*
X247293015Y-70410596D01*
X247543723Y-70333263D01*
X247780104Y-70219428D01*
X247996879Y-70071633D01*
X248189205Y-69893181D01*
X248352786Y-69688057D01*
X248483968Y-69460843D01*
X248579820Y-69216616D01*
X248638202Y-68960830D01*
X248643221Y-68893861D01*
X248657808Y-68699204D01*
X248657808Y-68699195D01*
X248638203Y-68437579D01*
X248638202Y-68437574D01*
X248638202Y-68437570D01*
X248579820Y-68181784D01*
X248483968Y-67937557D01*
X248352786Y-67710343D01*
X248189205Y-67505219D01*
X248189204Y-67505218D01*
X248189201Y-67505214D01*
X247996879Y-67326767D01*
X247780104Y-67178972D01*
X247780100Y-67178970D01*
X247780097Y-67178968D01*
X247780096Y-67178967D01*
X247543725Y-67065138D01*
X247543727Y-67065138D01*
X247293023Y-66987806D01*
X247293019Y-66987805D01*
X247293015Y-66987804D01*
X247168223Y-66968994D01*
X247033587Y-66948700D01*
X247033582Y-66948700D01*
X246771218Y-66948700D01*
X246771212Y-66948700D01*
X246609647Y-66973053D01*
X246511785Y-66987804D01*
X246511782Y-66987805D01*
X246511776Y-66987806D01*
X246261073Y-67065138D01*
X246024703Y-67178967D01*
X246024702Y-67178968D01*
X245807920Y-67326767D01*
X245615598Y-67505214D01*
X245452014Y-67710343D01*
X245320832Y-67937556D01*
X245224982Y-68181778D01*
X245224976Y-68181797D01*
X245166597Y-68437574D01*
X245166596Y-68437579D01*
X245146992Y-68699195D01*
X223643705Y-68699195D01*
X223642700Y-68688992D01*
X223582632Y-68490972D01*
X223485085Y-68308476D01*
X223407651Y-68214122D01*
X223353810Y-68148515D01*
X223199590Y-68021952D01*
X223193850Y-68017241D01*
X223011354Y-67919694D01*
X222813334Y-67859626D01*
X222813332Y-67859625D01*
X222813334Y-67859625D01*
X222607400Y-67839343D01*
X222401467Y-67859625D01*
X222203443Y-67919695D01*
X222112152Y-67968492D01*
X222020950Y-68017241D01*
X222020948Y-68017242D01*
X222020947Y-68017243D01*
X221860989Y-68148515D01*
X221729717Y-68308473D01*
X221632169Y-68490969D01*
X221572099Y-68688993D01*
X221551817Y-68894926D01*
X221122878Y-68894926D01*
X221122983Y-68893861D01*
X221102700Y-68687927D01*
X221042632Y-68489907D01*
X220945085Y-68307411D01*
X220841997Y-68181797D01*
X220813810Y-68147450D01*
X220655150Y-68017243D01*
X220653850Y-68016176D01*
X220473348Y-67919695D01*
X220471356Y-67918630D01*
X220471355Y-67918629D01*
X220471354Y-67918629D01*
X220273334Y-67858561D01*
X220273332Y-67858560D01*
X220273334Y-67858560D01*
X220067400Y-67838278D01*
X219861467Y-67858560D01*
X219663443Y-67918630D01*
X219579557Y-67963469D01*
X219480950Y-68016176D01*
X219480948Y-68016177D01*
X219480947Y-68016178D01*
X219320989Y-68147450D01*
X219191488Y-68305250D01*
X219189715Y-68307411D01*
X219189146Y-68308476D01*
X219092169Y-68489904D01*
X219061682Y-68590407D01*
X219023384Y-68648846D01*
X218959572Y-68677302D01*
X218890505Y-68666742D01*
X218838111Y-68620518D01*
X218823246Y-68586505D01*
X218780833Y-68428216D01*
X218780829Y-68428207D01*
X218681000Y-68214122D01*
X218680999Y-68214120D01*
X218545513Y-68020626D01*
X218545508Y-68020620D01*
X218378482Y-67853594D01*
X218184978Y-67718099D01*
X217970892Y-67618270D01*
X217970886Y-67618267D01*
X217757400Y-67561064D01*
X217757400Y-68458688D01*
X217700393Y-68425775D01*
X217573226Y-68391700D01*
X217441574Y-68391700D01*
X217314407Y-68425775D01*
X217257400Y-68458688D01*
X217257400Y-67561064D01*
X217257399Y-67561064D01*
X217043913Y-67618267D01*
X217043907Y-67618270D01*
X216829822Y-67718099D01*
X216829820Y-67718100D01*
X216636326Y-67853586D01*
X216636320Y-67853591D01*
X216469291Y-68020620D01*
X216469286Y-68020626D01*
X216333800Y-68214120D01*
X216333799Y-68214122D01*
X216233970Y-68428207D01*
X216233967Y-68428214D01*
X216201241Y-68550350D01*
X216164876Y-68610010D01*
X216102029Y-68640539D01*
X216032653Y-68632244D01*
X215978775Y-68587759D01*
X215962806Y-68554253D01*
X215942632Y-68487746D01*
X215845085Y-68305250D01*
X215770297Y-68214120D01*
X215713810Y-68145289D01*
X215563521Y-68021952D01*
X215553850Y-68014015D01*
X215371354Y-67916468D01*
X215173334Y-67856400D01*
X215173332Y-67856399D01*
X215173334Y-67856399D01*
X214967400Y-67836117D01*
X214761467Y-67856399D01*
X214563443Y-67916469D01*
X214475514Y-67963469D01*
X214380950Y-68014015D01*
X214380948Y-68014016D01*
X214380947Y-68014017D01*
X214220989Y-68145289D01*
X214089717Y-68305247D01*
X214089715Y-68305250D01*
X214087991Y-68308476D01*
X213992169Y-68487743D01*
X213992169Y-68487744D01*
X213992168Y-68487746D01*
X213991190Y-68490969D01*
X213932099Y-68685767D01*
X213911817Y-68891700D01*
X213482983Y-68891700D01*
X213462700Y-68685766D01*
X213402632Y-68487746D01*
X213305085Y-68305250D01*
X213230297Y-68214120D01*
X213173810Y-68145289D01*
X213023521Y-68021952D01*
X213013850Y-68014015D01*
X212831354Y-67916468D01*
X212633334Y-67856400D01*
X212633332Y-67856399D01*
X212633334Y-67856399D01*
X212427400Y-67836117D01*
X212221467Y-67856399D01*
X212023443Y-67916469D01*
X211935514Y-67963469D01*
X211840950Y-68014015D01*
X211840948Y-68014016D01*
X211840947Y-68014017D01*
X211680989Y-68145289D01*
X211549717Y-68305247D01*
X211549715Y-68305250D01*
X211547991Y-68308476D01*
X211452169Y-68487743D01*
X211452169Y-68487744D01*
X211452168Y-68487746D01*
X211451190Y-68490969D01*
X211392099Y-68685767D01*
X211371817Y-68891700D01*
X210942983Y-68891700D01*
X210922700Y-68685766D01*
X210862632Y-68487746D01*
X210765085Y-68305250D01*
X210690297Y-68214120D01*
X210633810Y-68145289D01*
X210483521Y-68021952D01*
X210473850Y-68014015D01*
X210291354Y-67916468D01*
X210093334Y-67856400D01*
X210093332Y-67856399D01*
X210093334Y-67856399D01*
X209887400Y-67836117D01*
X209681467Y-67856399D01*
X209483443Y-67916469D01*
X209395514Y-67963469D01*
X209300950Y-68014015D01*
X209300948Y-68014016D01*
X209300947Y-68014017D01*
X209140989Y-68145289D01*
X209009717Y-68305247D01*
X209009715Y-68305250D01*
X209007991Y-68308476D01*
X208912169Y-68487743D01*
X208912169Y-68487744D01*
X208912168Y-68487746D01*
X208911190Y-68490969D01*
X208852099Y-68685767D01*
X208831817Y-68891700D01*
X208402983Y-68891700D01*
X208382700Y-68685766D01*
X208322632Y-68487746D01*
X208225085Y-68305250D01*
X208150297Y-68214120D01*
X208093810Y-68145289D01*
X207943521Y-68021952D01*
X207933850Y-68014015D01*
X207751354Y-67916468D01*
X207553334Y-67856400D01*
X207553332Y-67856399D01*
X207553334Y-67856399D01*
X207347400Y-67836117D01*
X207141467Y-67856399D01*
X206943443Y-67916469D01*
X206855514Y-67963469D01*
X206760950Y-68014015D01*
X206760948Y-68014016D01*
X206760947Y-68014017D01*
X206600989Y-68145289D01*
X206469717Y-68305247D01*
X206469715Y-68305250D01*
X206467991Y-68308476D01*
X206372169Y-68487743D01*
X206372169Y-68487744D01*
X206372168Y-68487746D01*
X206371190Y-68490969D01*
X206312099Y-68685767D01*
X206291817Y-68891700D01*
X205862983Y-68891700D01*
X205842700Y-68685766D01*
X205782632Y-68487746D01*
X205685085Y-68305250D01*
X205610297Y-68214120D01*
X205553810Y-68145289D01*
X205403521Y-68021952D01*
X205393850Y-68014015D01*
X205211354Y-67916468D01*
X205013334Y-67856400D01*
X205013332Y-67856399D01*
X205013334Y-67856399D01*
X204807400Y-67836117D01*
X204601467Y-67856399D01*
X204403443Y-67916469D01*
X204315514Y-67963469D01*
X204220950Y-68014015D01*
X204220948Y-68014016D01*
X204220947Y-68014017D01*
X204060989Y-68145289D01*
X203929717Y-68305247D01*
X203929715Y-68305250D01*
X203927991Y-68308476D01*
X203832169Y-68487743D01*
X203832169Y-68487744D01*
X203832168Y-68487746D01*
X203831190Y-68490969D01*
X203772099Y-68685767D01*
X203751817Y-68891700D01*
X203317900Y-68891700D01*
X203317900Y-68021952D01*
X203317900Y-68021949D01*
X203317899Y-68021947D01*
X203306268Y-67963470D01*
X203306267Y-67963469D01*
X203261952Y-67897147D01*
X203195630Y-67852832D01*
X203195629Y-67852831D01*
X203137152Y-67841200D01*
X203137148Y-67841200D01*
X201397652Y-67841200D01*
X201397647Y-67841200D01*
X201339170Y-67852831D01*
X201339169Y-67852832D01*
X201272847Y-67897147D01*
X201228532Y-67963469D01*
X201228531Y-67963470D01*
X201216900Y-68021947D01*
X190267089Y-68021947D01*
X190233968Y-67937557D01*
X190102786Y-67710343D01*
X189939205Y-67505219D01*
X189939204Y-67505218D01*
X189939201Y-67505214D01*
X189746879Y-67326767D01*
X189530104Y-67178972D01*
X189530100Y-67178970D01*
X189530097Y-67178968D01*
X189530096Y-67178967D01*
X189293725Y-67065138D01*
X189293727Y-67065138D01*
X189043023Y-66987806D01*
X189043019Y-66987805D01*
X189043015Y-66987804D01*
X188918223Y-66968994D01*
X188783587Y-66948700D01*
X188783582Y-66948700D01*
X188521218Y-66948700D01*
X188521212Y-66948700D01*
X188359647Y-66973053D01*
X188261785Y-66987804D01*
X188261782Y-66987805D01*
X188261776Y-66987806D01*
X188011073Y-67065138D01*
X187774703Y-67178967D01*
X187774702Y-67178968D01*
X187557920Y-67326767D01*
X187365598Y-67505214D01*
X187202014Y-67710343D01*
X187070832Y-67937556D01*
X186974982Y-68181778D01*
X186974976Y-68181797D01*
X186916597Y-68437574D01*
X186916596Y-68437579D01*
X186896992Y-68699195D01*
X171750500Y-68699195D01*
X171750500Y-49878711D01*
X173149500Y-49878711D01*
X173149500Y-50121288D01*
X173181161Y-50361785D01*
X173243947Y-50596104D01*
X173307083Y-50748527D01*
X173336776Y-50820212D01*
X173458064Y-51030289D01*
X173458066Y-51030292D01*
X173458067Y-51030293D01*
X173605733Y-51222736D01*
X173605739Y-51222743D01*
X173777256Y-51394260D01*
X173777263Y-51394266D01*
X173877114Y-51470884D01*
X173969711Y-51541936D01*
X174179788Y-51663224D01*
X174356241Y-51736313D01*
X174401956Y-51755249D01*
X174403900Y-51756054D01*
X174638211Y-51818838D01*
X174818586Y-51842584D01*
X174878711Y-51850500D01*
X174878712Y-51850500D01*
X175121289Y-51850500D01*
X175169388Y-51844167D01*
X175361789Y-51818838D01*
X175596100Y-51756054D01*
X175820212Y-51663224D01*
X176030289Y-51541936D01*
X176222738Y-51394265D01*
X176394265Y-51222738D01*
X176541936Y-51030289D01*
X176646649Y-50848920D01*
X243299499Y-50848920D01*
X243328340Y-50993907D01*
X243328343Y-50993917D01*
X243384912Y-51130488D01*
X243384919Y-51130501D01*
X243467048Y-51253415D01*
X243467051Y-51253419D01*
X243571580Y-51357948D01*
X243571584Y-51357951D01*
X243694498Y-51440080D01*
X243694511Y-51440087D01*
X243768877Y-51470890D01*
X243831087Y-51496658D01*
X243831091Y-51496658D01*
X243831092Y-51496659D01*
X243976079Y-51525500D01*
X243976082Y-51525500D01*
X244123920Y-51525500D01*
X244221462Y-51506096D01*
X244268913Y-51496658D01*
X244405495Y-51440084D01*
X244528416Y-51357951D01*
X244632951Y-51253416D01*
X244715084Y-51130495D01*
X244771658Y-50993913D01*
X244800500Y-50848918D01*
X244800500Y-50149023D01*
X245554528Y-50149023D01*
X245696233Y-50224766D01*
X245894165Y-50284808D01*
X246099999Y-50305080D01*
X246236030Y-50291683D01*
X246304676Y-50304702D01*
X246355386Y-50352767D01*
X246372061Y-50420618D01*
X246349405Y-50486712D01*
X246335867Y-50502766D01*
X246309518Y-50529115D01*
X246219547Y-50672302D01*
X246219545Y-50672305D01*
X246163685Y-50831943D01*
X246144751Y-50999997D01*
X246144751Y-51000002D01*
X246163685Y-51168056D01*
X246219545Y-51327694D01*
X246219547Y-51327697D01*
X246309518Y-51470884D01*
X246309523Y-51470890D01*
X246429109Y-51590476D01*
X246429115Y-51590481D01*
X246572302Y-51680452D01*
X246572305Y-51680454D01*
X246572309Y-51680455D01*
X246572310Y-51680456D01*
X246644913Y-51705860D01*
X246731943Y-51736314D01*
X246899997Y-51755249D01*
X246900000Y-51755249D01*
X246900003Y-51755249D01*
X247068056Y-51736314D01*
X247068059Y-51736313D01*
X247227690Y-51680456D01*
X247227692Y-51680454D01*
X247227694Y-51680454D01*
X247227697Y-51680452D01*
X247370884Y-51590481D01*
X247370885Y-51590480D01*
X247370890Y-51590477D01*
X247490477Y-51470890D01*
X247509834Y-51440084D01*
X247580452Y-51327697D01*
X247580456Y-51327689D01*
X247582958Y-51320540D01*
X247623679Y-51263764D01*
X247688631Y-51238015D01*
X247757193Y-51251470D01*
X247807596Y-51299857D01*
X247817042Y-51320540D01*
X247819543Y-51327689D01*
X247819547Y-51327697D01*
X247909518Y-51470884D01*
X247909523Y-51470890D01*
X248029109Y-51590476D01*
X248029115Y-51590481D01*
X248172302Y-51680452D01*
X248172305Y-51680454D01*
X248172309Y-51680455D01*
X248172310Y-51680456D01*
X248244913Y-51705860D01*
X248331943Y-51736314D01*
X248499997Y-51755249D01*
X248500000Y-51755249D01*
X248500003Y-51755249D01*
X248668056Y-51736314D01*
X248668059Y-51736313D01*
X248827690Y-51680456D01*
X248827692Y-51680454D01*
X248827694Y-51680454D01*
X248827697Y-51680452D01*
X248970884Y-51590481D01*
X248970885Y-51590480D01*
X248970890Y-51590477D01*
X249090477Y-51470890D01*
X249109834Y-51440084D01*
X249180452Y-51327697D01*
X249180454Y-51327694D01*
X249180454Y-51327692D01*
X249180456Y-51327690D01*
X249236313Y-51168059D01*
X249236313Y-51168058D01*
X249236314Y-51168056D01*
X249255249Y-51000002D01*
X249255249Y-50999997D01*
X249238227Y-50848920D01*
X250599499Y-50848920D01*
X250628340Y-50993907D01*
X250628343Y-50993917D01*
X250684912Y-51130488D01*
X250684919Y-51130501D01*
X250767048Y-51253415D01*
X250767051Y-51253419D01*
X250871580Y-51357948D01*
X250871584Y-51357951D01*
X250994498Y-51440080D01*
X250994511Y-51440087D01*
X251068877Y-51470890D01*
X251131087Y-51496658D01*
X251131091Y-51496658D01*
X251131092Y-51496659D01*
X251276079Y-51525500D01*
X251276082Y-51525500D01*
X251423920Y-51525500D01*
X251521462Y-51506096D01*
X251568913Y-51496658D01*
X251705495Y-51440084D01*
X251828416Y-51357951D01*
X251932951Y-51253416D01*
X252015084Y-51130495D01*
X252071658Y-50993913D01*
X252100500Y-50848918D01*
X252100500Y-49878711D01*
X258149500Y-49878711D01*
X258149500Y-50121288D01*
X258181161Y-50361785D01*
X258243947Y-50596104D01*
X258307083Y-50748527D01*
X258336776Y-50820212D01*
X258458064Y-51030289D01*
X258458066Y-51030292D01*
X258458067Y-51030293D01*
X258605733Y-51222736D01*
X258605739Y-51222743D01*
X258777256Y-51394260D01*
X258777263Y-51394266D01*
X258877114Y-51470884D01*
X258969711Y-51541936D01*
X259179788Y-51663224D01*
X259356241Y-51736313D01*
X259401956Y-51755249D01*
X259403900Y-51756054D01*
X259638211Y-51818838D01*
X259818586Y-51842584D01*
X259878711Y-51850500D01*
X259878712Y-51850500D01*
X260121289Y-51850500D01*
X260169388Y-51844167D01*
X260361789Y-51818838D01*
X260596100Y-51756054D01*
X260820212Y-51663224D01*
X261030289Y-51541936D01*
X261222738Y-51394265D01*
X261394265Y-51222738D01*
X261541936Y-51030289D01*
X261663224Y-50820212D01*
X261756054Y-50596100D01*
X261818838Y-50361789D01*
X261850500Y-50121288D01*
X261850500Y-49878712D01*
X261850436Y-49878229D01*
X261832116Y-49739071D01*
X261818838Y-49638211D01*
X261756054Y-49403900D01*
X261663224Y-49179788D01*
X261541936Y-48969711D01*
X261481018Y-48890321D01*
X261394266Y-48777263D01*
X261394260Y-48777256D01*
X261222743Y-48605739D01*
X261222736Y-48605733D01*
X261030293Y-48458067D01*
X261030292Y-48458066D01*
X261030289Y-48458064D01*
X260820212Y-48336776D01*
X260820205Y-48336773D01*
X260596104Y-48243947D01*
X260361785Y-48181161D01*
X260121289Y-48149500D01*
X260121288Y-48149500D01*
X259878712Y-48149500D01*
X259878711Y-48149500D01*
X259638214Y-48181161D01*
X259403895Y-48243947D01*
X259179794Y-48336773D01*
X259179785Y-48336777D01*
X258969706Y-48458067D01*
X258777263Y-48605733D01*
X258777256Y-48605739D01*
X258605739Y-48777256D01*
X258605733Y-48777263D01*
X258458067Y-48969706D01*
X258336777Y-49179785D01*
X258336773Y-49179794D01*
X258243947Y-49403895D01*
X258181161Y-49638214D01*
X258149500Y-49878711D01*
X252100500Y-49878711D01*
X252100500Y-49401082D01*
X252100500Y-49401079D01*
X252071659Y-49256092D01*
X252071658Y-49256091D01*
X252071658Y-49256087D01*
X252050051Y-49203922D01*
X252015087Y-49119511D01*
X252015080Y-49119498D01*
X251932951Y-48996584D01*
X251932948Y-48996580D01*
X251828419Y-48892051D01*
X251828415Y-48892048D01*
X251705501Y-48809919D01*
X251705488Y-48809912D01*
X251568917Y-48753343D01*
X251568907Y-48753340D01*
X251423920Y-48724500D01*
X251423918Y-48724500D01*
X251276082Y-48724500D01*
X251276080Y-48724500D01*
X251131092Y-48753340D01*
X251131082Y-48753343D01*
X250994511Y-48809912D01*
X250994498Y-48809919D01*
X250871584Y-48892048D01*
X250871580Y-48892051D01*
X250767051Y-48996580D01*
X250767048Y-48996584D01*
X250684919Y-49119498D01*
X250684912Y-49119511D01*
X250628343Y-49256082D01*
X250628340Y-49256092D01*
X250599500Y-49401079D01*
X250599500Y-49401082D01*
X250599500Y-50848918D01*
X250599500Y-50848920D01*
X250599499Y-50848920D01*
X249238227Y-50848920D01*
X249236314Y-50831943D01*
X249180454Y-50672305D01*
X249180452Y-50672302D01*
X249090481Y-50529115D01*
X249090476Y-50529109D01*
X248970890Y-50409523D01*
X248970884Y-50409518D01*
X248827697Y-50319547D01*
X248827694Y-50319545D01*
X248668056Y-50263685D01*
X248500003Y-50244751D01*
X248499997Y-50244751D01*
X248331943Y-50263685D01*
X248172305Y-50319545D01*
X248172302Y-50319547D01*
X248029115Y-50409518D01*
X248029109Y-50409523D01*
X247909523Y-50529109D01*
X247909518Y-50529115D01*
X247819547Y-50672302D01*
X247819542Y-50672313D01*
X247817041Y-50679461D01*
X247776319Y-50736237D01*
X247711366Y-50761984D01*
X247642805Y-50748527D01*
X247592402Y-50700140D01*
X247582959Y-50679461D01*
X247580457Y-50672313D01*
X247580452Y-50672302D01*
X247490481Y-50529115D01*
X247490476Y-50529109D01*
X247370890Y-50409523D01*
X247370884Y-50409518D01*
X247227697Y-50319547D01*
X247227694Y-50319545D01*
X247068056Y-50263685D01*
X246900003Y-50244751D01*
X246899996Y-50244751D01*
X246786897Y-50257494D01*
X246718075Y-50245439D01*
X246666696Y-50198090D01*
X246656879Y-50160432D01*
X246100001Y-49603553D01*
X246100000Y-49603553D01*
X245554528Y-50149023D01*
X244800500Y-50149023D01*
X244800500Y-49401082D01*
X244800500Y-49401079D01*
X244771659Y-49256092D01*
X244771658Y-49256091D01*
X244771658Y-49256087D01*
X244769137Y-49250000D01*
X245044919Y-49250000D01*
X245065191Y-49455834D01*
X245125233Y-49653766D01*
X245200975Y-49795469D01*
X245200976Y-49795469D01*
X245746447Y-49250000D01*
X245700369Y-49203922D01*
X245750000Y-49203922D01*
X245750000Y-49296078D01*
X245773852Y-49385095D01*
X245819930Y-49464905D01*
X245885095Y-49530070D01*
X245964905Y-49576148D01*
X246053922Y-49600000D01*
X246146078Y-49600000D01*
X246235095Y-49576148D01*
X246314905Y-49530070D01*
X246380070Y-49464905D01*
X246426148Y-49385095D01*
X246450000Y-49296078D01*
X246450000Y-49249999D01*
X246453553Y-49249999D01*
X246453553Y-49250000D01*
X246999022Y-49795469D01*
X247013090Y-49793382D01*
X247033637Y-49772466D01*
X247101774Y-49757005D01*
X247167454Y-49780836D01*
X247181715Y-49793082D01*
X247229109Y-49840476D01*
X247229115Y-49840481D01*
X247372302Y-49930452D01*
X247372305Y-49930454D01*
X247372309Y-49930455D01*
X247372310Y-49930456D01*
X247444913Y-49955860D01*
X247531943Y-49986314D01*
X247699997Y-50005249D01*
X247700000Y-50005249D01*
X247700003Y-50005249D01*
X247868056Y-49986314D01*
X247868059Y-49986313D01*
X248027690Y-49930456D01*
X248027692Y-49930454D01*
X248027694Y-49930454D01*
X248027697Y-49930452D01*
X248170884Y-49840481D01*
X248170885Y-49840480D01*
X248170890Y-49840477D01*
X248290477Y-49720890D01*
X248320506Y-49673098D01*
X248372841Y-49626808D01*
X248441895Y-49616160D01*
X248505743Y-49644535D01*
X248544115Y-49702925D01*
X248549500Y-49739071D01*
X248549500Y-49819752D01*
X248561131Y-49878229D01*
X248561132Y-49878230D01*
X248605447Y-49944552D01*
X248671769Y-49988867D01*
X248671770Y-49988868D01*
X248730247Y-50000499D01*
X248730250Y-50000500D01*
X248730252Y-50000500D01*
X249869750Y-50000500D01*
X249869751Y-50000499D01*
X249884568Y-49997552D01*
X249928229Y-49988868D01*
X249928229Y-49988867D01*
X249928231Y-49988867D01*
X249994552Y-49944552D01*
X250038867Y-49878231D01*
X250038867Y-49878229D01*
X250038868Y-49878229D01*
X250050499Y-49819752D01*
X250050500Y-49819750D01*
X250050500Y-48680249D01*
X250050499Y-48680247D01*
X250038868Y-48621770D01*
X250038867Y-48621769D01*
X249994552Y-48555447D01*
X249928230Y-48511132D01*
X249928229Y-48511131D01*
X249869752Y-48499500D01*
X249869748Y-48499500D01*
X248730252Y-48499500D01*
X248730247Y-48499500D01*
X248671770Y-48511131D01*
X248671769Y-48511132D01*
X248605447Y-48555447D01*
X248561132Y-48621769D01*
X248561131Y-48621770D01*
X248549500Y-48680247D01*
X248549500Y-48760928D01*
X248529815Y-48827967D01*
X248477011Y-48873722D01*
X248407853Y-48883666D01*
X248344297Y-48854641D01*
X248320507Y-48826901D01*
X248290478Y-48779112D01*
X248290476Y-48779109D01*
X248170890Y-48659523D01*
X248170884Y-48659518D01*
X248027697Y-48569547D01*
X248027694Y-48569545D01*
X247868056Y-48513685D01*
X247700003Y-48494751D01*
X247699997Y-48494751D01*
X247531943Y-48513685D01*
X247372305Y-48569545D01*
X247372302Y-48569547D01*
X247229115Y-48659518D01*
X247229108Y-48659524D01*
X247181714Y-48706918D01*
X247120391Y-48740402D01*
X247050699Y-48735417D01*
X247012013Y-48706456D01*
X246999022Y-48704529D01*
X246453553Y-49249999D01*
X246450000Y-49249999D01*
X246450000Y-49203922D01*
X246426148Y-49114905D01*
X246380070Y-49035095D01*
X246314905Y-48969930D01*
X246235095Y-48923852D01*
X246146078Y-48900000D01*
X246053922Y-48900000D01*
X245964905Y-48923852D01*
X245885095Y-48969930D01*
X245819930Y-49035095D01*
X245773852Y-49114905D01*
X245750000Y-49203922D01*
X245700369Y-49203922D01*
X245200976Y-48704529D01*
X245200975Y-48704529D01*
X245125234Y-48846234D01*
X245065191Y-49044166D01*
X245044919Y-49250000D01*
X244769137Y-49250000D01*
X244750051Y-49203922D01*
X244715087Y-49119511D01*
X244715080Y-49119498D01*
X244632951Y-48996584D01*
X244632948Y-48996580D01*
X244528419Y-48892051D01*
X244528415Y-48892048D01*
X244405501Y-48809919D01*
X244405488Y-48809912D01*
X244268917Y-48753343D01*
X244268907Y-48753340D01*
X244123920Y-48724500D01*
X244123918Y-48724500D01*
X243976082Y-48724500D01*
X243976080Y-48724500D01*
X243831092Y-48753340D01*
X243831082Y-48753343D01*
X243694511Y-48809912D01*
X243694498Y-48809919D01*
X243571584Y-48892048D01*
X243571580Y-48892051D01*
X243467051Y-48996580D01*
X243467048Y-48996584D01*
X243384919Y-49119498D01*
X243384912Y-49119511D01*
X243328343Y-49256082D01*
X243328340Y-49256092D01*
X243299500Y-49401079D01*
X243299500Y-49401082D01*
X243299500Y-50848918D01*
X243299500Y-50848920D01*
X243299499Y-50848920D01*
X176646649Y-50848920D01*
X176663224Y-50820212D01*
X176756054Y-50596100D01*
X176818838Y-50361789D01*
X176850500Y-50121288D01*
X176850500Y-49878712D01*
X176850436Y-49878229D01*
X176832116Y-49739071D01*
X176818838Y-49638211D01*
X176756054Y-49403900D01*
X176663224Y-49179788D01*
X176541936Y-48969711D01*
X176481018Y-48890321D01*
X176394266Y-48777263D01*
X176394260Y-48777256D01*
X176222743Y-48605739D01*
X176222736Y-48605733D01*
X176030293Y-48458067D01*
X176030292Y-48458066D01*
X176030289Y-48458064D01*
X175844805Y-48350975D01*
X245554529Y-48350975D01*
X245554529Y-48350976D01*
X246100000Y-48896447D01*
X246100001Y-48896447D01*
X246645469Y-48350976D01*
X246645469Y-48350975D01*
X246503766Y-48275233D01*
X246305834Y-48215191D01*
X246100000Y-48194919D01*
X245894166Y-48215191D01*
X245696234Y-48275234D01*
X245554529Y-48350975D01*
X175844805Y-48350975D01*
X175820212Y-48336776D01*
X175820205Y-48336773D01*
X175596104Y-48243947D01*
X175361785Y-48181161D01*
X175121289Y-48149500D01*
X175121288Y-48149500D01*
X174878712Y-48149500D01*
X174878711Y-48149500D01*
X174638214Y-48181161D01*
X174403895Y-48243947D01*
X174179794Y-48336773D01*
X174179785Y-48336777D01*
X173969706Y-48458067D01*
X173777263Y-48605733D01*
X173777256Y-48605739D01*
X173605739Y-48777256D01*
X173605733Y-48777263D01*
X173458067Y-48969706D01*
X173336777Y-49179785D01*
X173336773Y-49179794D01*
X173243947Y-49403895D01*
X173181161Y-49638214D01*
X173149500Y-49878711D01*
X171750500Y-49878711D01*
X171750500Y-46874500D01*
X171770185Y-46807461D01*
X171822989Y-46761706D01*
X171874500Y-46750500D01*
X263125500Y-46750500D01*
X263192539Y-46770185D01*
G37*
%TD.AperFunction*%
%TD*%
M02*
