%TF.GenerationSoftware,KiCad,Pcbnew,8.0.6*%
%TF.CreationDate,2025-02-16T20:54:21+01:00*%
%TF.ProjectId,TUSS4470_shield,54555353-3434-4373-905f-736869656c64,rev?*%
%TF.SameCoordinates,Original*%
%TF.FileFunction,Soldermask,Top*%
%TF.FilePolarity,Negative*%
%FSLAX46Y46*%
G04 Gerber Fmt 4.6, Leading zero omitted, Abs format (unit mm)*
G04 Created by KiCad (PCBNEW 8.0.6) date 2025-02-16 20:54:21*
%MOMM*%
%LPD*%
G01*
G04 APERTURE LIST*
G04 Aperture macros list*
%AMRoundRect*
0 Rectangle with rounded corners*
0 $1 Rounding radius*
0 $2 $3 $4 $5 $6 $7 $8 $9 X,Y pos of 4 corners*
0 Add a 4 corners polygon primitive as box body*
4,1,4,$2,$3,$4,$5,$6,$7,$8,$9,$2,$3,0*
0 Add four circle primitives for the rounded corners*
1,1,$1+$1,$2,$3*
1,1,$1+$1,$4,$5*
1,1,$1+$1,$6,$7*
1,1,$1+$1,$8,$9*
0 Add four rect primitives between the rounded corners*
20,1,$1+$1,$2,$3,$4,$5,0*
20,1,$1+$1,$4,$5,$6,$7,0*
20,1,$1+$1,$6,$7,$8,$9,0*
20,1,$1+$1,$8,$9,$2,$3,0*%
%AMFreePoly0*
4,1,19,0.500000,-0.750000,0.000000,-0.750000,0.000000,-0.744911,-0.071157,-0.744911,-0.207708,-0.704816,-0.327430,-0.627875,-0.420627,-0.520320,-0.479746,-0.390866,-0.500000,-0.250000,-0.500000,0.250000,-0.479746,0.390866,-0.420627,0.520320,-0.327430,0.627875,-0.207708,0.704816,-0.071157,0.744911,0.000000,0.744911,0.000000,0.750000,0.500000,0.750000,0.500000,-0.750000,0.500000,-0.750000,
$1*%
%AMFreePoly1*
4,1,19,0.000000,0.744911,0.071157,0.744911,0.207708,0.704816,0.327430,0.627875,0.420627,0.520320,0.479746,0.390866,0.500000,0.250000,0.500000,-0.250000,0.479746,-0.390866,0.420627,-0.520320,0.327430,-0.627875,0.207708,-0.704816,0.071157,-0.744911,0.000000,-0.744911,0.000000,-0.750000,-0.500000,-0.750000,-0.500000,0.750000,0.000000,0.750000,0.000000,0.744911,0.000000,0.744911,
$1*%
G04 Aperture macros list end*
%ADD10C,2.000000*%
%ADD11RoundRect,0.243750X-0.243750X-0.456250X0.243750X-0.456250X0.243750X0.456250X-0.243750X0.456250X0*%
%ADD12C,3.200000*%
%ADD13RoundRect,0.150000X-0.150000X0.512500X-0.150000X-0.512500X0.150000X-0.512500X0.150000X0.512500X0*%
%ADD14FreePoly0,0.000000*%
%ADD15FreePoly1,0.000000*%
%ADD16RoundRect,0.250000X-0.312500X-0.625000X0.312500X-0.625000X0.312500X0.625000X-0.312500X0.625000X0*%
%ADD17RoundRect,0.140000X-0.140000X-0.170000X0.140000X-0.170000X0.140000X0.170000X-0.140000X0.170000X0*%
%ADD18R,1.700000X1.700000*%
%ADD19O,1.700000X1.700000*%
%ADD20RoundRect,0.218750X-0.218750X-0.256250X0.218750X-0.256250X0.218750X0.256250X-0.218750X0.256250X0*%
%ADD21RoundRect,0.140000X-0.170000X0.140000X-0.170000X-0.140000X0.170000X-0.140000X0.170000X0.140000X0*%
%ADD22RoundRect,0.200000X-0.275000X0.200000X-0.275000X-0.200000X0.275000X-0.200000X0.275000X0.200000X0*%
%ADD23RoundRect,0.250000X0.650000X-1.000000X0.650000X1.000000X-0.650000X1.000000X-0.650000X-1.000000X0*%
%ADD24RoundRect,0.200000X-0.200000X-0.275000X0.200000X-0.275000X0.200000X0.275000X-0.200000X0.275000X0*%
%ADD25RoundRect,0.218750X-0.256250X0.218750X-0.256250X-0.218750X0.256250X-0.218750X0.256250X0.218750X0*%
%ADD26RoundRect,0.250000X0.600000X0.725000X-0.600000X0.725000X-0.600000X-0.725000X0.600000X-0.725000X0*%
%ADD27O,1.700000X1.950000*%
%ADD28RoundRect,0.135000X-0.185000X0.135000X-0.185000X-0.135000X0.185000X-0.135000X0.185000X0.135000X0*%
%ADD29RoundRect,0.140000X0.170000X-0.140000X0.170000X0.140000X-0.170000X0.140000X-0.170000X-0.140000X0*%
%ADD30RoundRect,0.062500X0.350000X0.062500X-0.350000X0.062500X-0.350000X-0.062500X0.350000X-0.062500X0*%
%ADD31RoundRect,0.062500X0.062500X0.350000X-0.062500X0.350000X-0.062500X-0.350000X0.062500X-0.350000X0*%
%ADD32R,2.500000X2.500000*%
%ADD33R,2.800000X1.000000*%
%ADD34RoundRect,0.250000X-1.000000X-0.650000X1.000000X-0.650000X1.000000X0.650000X-1.000000X0.650000X0*%
%ADD35RoundRect,0.200000X0.275000X-0.200000X0.275000X0.200000X-0.275000X0.200000X-0.275000X-0.200000X0*%
%ADD36RoundRect,0.225000X-0.225000X-0.250000X0.225000X-0.250000X0.225000X0.250000X-0.225000X0.250000X0*%
%ADD37FreePoly0,270.000000*%
%ADD38FreePoly1,270.000000*%
%ADD39RoundRect,0.250000X-0.650000X0.325000X-0.650000X-0.325000X0.650000X-0.325000X0.650000X0.325000X0*%
%ADD40RoundRect,0.225000X0.250000X-0.225000X0.250000X0.225000X-0.250000X0.225000X-0.250000X-0.225000X0*%
%ADD41RoundRect,0.587500X1.162500X-0.587500X1.162500X0.587500X-1.162500X0.587500X-1.162500X-0.587500X0*%
%ADD42RoundRect,0.225000X0.225000X0.250000X-0.225000X0.250000X-0.225000X-0.250000X0.225000X-0.250000X0*%
%ADD43R,2.600000X3.050000*%
%ADD44R,1.524000X1.524000*%
%ADD45RoundRect,0.075000X-0.662500X-0.075000X0.662500X-0.075000X0.662500X0.075000X-0.662500X0.075000X0*%
%ADD46RoundRect,0.075000X-0.075000X-0.662500X0.075000X-0.662500X0.075000X0.662500X-0.075000X0.662500X0*%
%ADD47R,2.600000X2.600000*%
%ADD48C,2.600000*%
%ADD49RoundRect,0.250000X0.325000X0.650000X-0.325000X0.650000X-0.325000X-0.650000X0.325000X-0.650000X0*%
%ADD50RoundRect,0.250000X-0.625000X0.312500X-0.625000X-0.312500X0.625000X-0.312500X0.625000X0.312500X0*%
%ADD51R,0.700000X1.200000*%
%ADD52R,1.000000X0.800000*%
%ADD53R,1.000000X1.200000*%
%ADD54R,1.000000X2.800000*%
%ADD55R,1.300000X1.900000*%
%ADD56C,1.440000*%
%ADD57RoundRect,0.218750X0.256250X-0.218750X0.256250X0.218750X-0.256250X0.218750X-0.256250X-0.218750X0*%
%ADD58RoundRect,0.375000X0.625000X0.375000X-0.625000X0.375000X-0.625000X-0.375000X0.625000X-0.375000X0*%
%ADD59RoundRect,0.500000X0.500000X1.400000X-0.500000X1.400000X-0.500000X-1.400000X0.500000X-1.400000X0*%
%ADD60RoundRect,0.250000X-0.325000X-0.650000X0.325000X-0.650000X0.325000X0.650000X-0.325000X0.650000X0*%
%ADD61R,2.400000X2.000000*%
%ADD62RoundRect,0.150000X-0.587500X-0.150000X0.587500X-0.150000X0.587500X0.150000X-0.587500X0.150000X0*%
%ADD63R,1.100000X1.100000*%
%ADD64C,1.100000*%
%ADD65O,1.100000X2.400000*%
%ADD66RoundRect,0.140000X0.140000X0.170000X-0.140000X0.170000X-0.140000X-0.170000X0.140000X-0.170000X0*%
%ADD67RoundRect,0.225000X-0.250000X0.225000X-0.250000X-0.225000X0.250000X-0.225000X0.250000X0.225000X0*%
%ADD68RoundRect,0.250000X-1.050000X-0.550000X1.050000X-0.550000X1.050000X0.550000X-1.050000X0.550000X0*%
%ADD69RoundRect,0.250000X-0.850000X-0.350000X0.850000X-0.350000X0.850000X0.350000X-0.850000X0.350000X0*%
%ADD70RoundRect,0.249997X-2.950003X-2.650003X2.950003X-2.650003X2.950003X2.650003X-2.950003X2.650003X0*%
%ADD71RoundRect,0.062500X-0.062500X0.337500X-0.062500X-0.337500X0.062500X-0.337500X0.062500X0.337500X0*%
%ADD72RoundRect,0.062500X-0.337500X0.062500X-0.337500X-0.062500X0.337500X-0.062500X0.337500X0.062500X0*%
%ADD73R,3.350000X3.350000*%
G04 APERTURE END LIST*
D10*
%TO.C,TP8*%
X281945000Y-43680000D03*
%TD*%
D11*
%TO.C,D8*%
X344157500Y-92145000D03*
X346032500Y-92145000D03*
%TD*%
D12*
%TO.C,H4*%
X260000000Y-130000000D03*
%TD*%
D13*
%TO.C,U2*%
X181450000Y-82362500D03*
X180500000Y-82362500D03*
X179550000Y-82362500D03*
X179550000Y-84637500D03*
X180500000Y-84637500D03*
X181450000Y-84637500D03*
%TD*%
D14*
%TO.C,JP6*%
X150900000Y-102450000D03*
D15*
X152200000Y-102450000D03*
%TD*%
D16*
%TO.C,R2*%
X193737500Y-112500000D03*
X196662500Y-112500000D03*
%TD*%
D17*
%TO.C,C11*%
X287375000Y-59860000D03*
X288335000Y-59860000D03*
%TD*%
%TO.C,C15*%
X154352500Y-63910000D03*
X155312500Y-63910000D03*
%TD*%
D14*
%TO.C,JP2*%
X150900000Y-106250000D03*
D15*
X152200000Y-106250000D03*
%TD*%
D18*
%TO.C,JP8*%
X278695000Y-71560000D03*
D19*
X278695000Y-74100000D03*
%TD*%
D20*
%TO.C,D3*%
X163175000Y-68160000D03*
X164750000Y-68160000D03*
%TD*%
D21*
%TO.C,C27*%
X210850000Y-90970000D03*
X210850000Y-91930000D03*
%TD*%
D22*
%TO.C,R7*%
X208550000Y-81050000D03*
X208550000Y-82700000D03*
%TD*%
D23*
%TO.C,D5*%
X180500000Y-79500000D03*
X180500000Y-75500000D03*
%TD*%
D24*
%TO.C,R4*%
X286850000Y-70490000D03*
X288500000Y-70490000D03*
%TD*%
D18*
%TO.C,J2*%
X226500000Y-119500000D03*
D19*
X223960000Y-119500000D03*
X221420000Y-119500000D03*
%TD*%
D25*
%TO.C,D2*%
X231000000Y-48212500D03*
X231000000Y-49787500D03*
%TD*%
D22*
%TO.C,R9*%
X204150000Y-82462500D03*
X204150000Y-84112500D03*
%TD*%
D18*
%TO.C,JP11*%
X282845000Y-48030000D03*
D19*
X282845000Y-50570000D03*
%TD*%
D24*
%TO.C,R6*%
X176175000Y-85000000D03*
X177825000Y-85000000D03*
%TD*%
D26*
%TO.C,J3*%
X217750000Y-127467500D03*
D27*
X215250000Y-127467500D03*
X212750000Y-127467500D03*
%TD*%
D28*
%TO.C,R15*%
X210850000Y-89040000D03*
X210850000Y-90060000D03*
%TD*%
D29*
%TO.C,C25*%
X214150000Y-84360000D03*
X214150000Y-83400000D03*
%TD*%
D30*
%TO.C,U1*%
X202175000Y-113000000D03*
X202175000Y-112500000D03*
X202175000Y-112000000D03*
X202175000Y-111500000D03*
X202175000Y-111000000D03*
D31*
X201237500Y-110062500D03*
X200737500Y-110062500D03*
X200237500Y-110062500D03*
X199737500Y-110062500D03*
X199237500Y-110062500D03*
D30*
X198300000Y-111000000D03*
X198300000Y-111500000D03*
X198300000Y-112000000D03*
X198300000Y-112500000D03*
X198300000Y-113000000D03*
D31*
X199237500Y-113937500D03*
X199737500Y-113937500D03*
X200237500Y-113937500D03*
X200737500Y-113937500D03*
X201237500Y-113937500D03*
D32*
X200237500Y-112000000D03*
%TD*%
D33*
%TO.C,SW4*%
X184600000Y-48500000D03*
X190400000Y-48500000D03*
X184600000Y-52500000D03*
X190400000Y-52500000D03*
%TD*%
D24*
%TO.C,R19*%
X306980000Y-89470000D03*
X308630000Y-89470000D03*
%TD*%
D34*
%TO.C,D12*%
X281000000Y-83550000D03*
X285000000Y-83550000D03*
%TD*%
D23*
%TO.C,D1*%
X207000000Y-117000000D03*
X207000000Y-113000000D03*
%TD*%
D18*
%TO.C,J10*%
X179540000Y-87950000D03*
D19*
X177000000Y-87950000D03*
X174460000Y-87950000D03*
%TD*%
D35*
%TO.C,R8*%
X205650000Y-84112500D03*
X205650000Y-82462500D03*
%TD*%
D17*
%TO.C,C17*%
X154352500Y-67850000D03*
X155312500Y-67850000D03*
%TD*%
D36*
%TO.C,C5*%
X195225000Y-110600000D03*
X196775000Y-110600000D03*
%TD*%
D22*
%TO.C,R10*%
X256500000Y-60887500D03*
X256500000Y-62537500D03*
%TD*%
D21*
%TO.C,C29*%
X221050000Y-94420000D03*
X221050000Y-95380000D03*
%TD*%
D37*
%TO.C,JP3*%
X148490000Y-88200000D03*
D38*
X148490000Y-89500000D03*
%TD*%
D39*
%TO.C,C32*%
X296650000Y-132000000D03*
X296650000Y-134950000D03*
%TD*%
D40*
%TO.C,C2*%
X154200000Y-107025000D03*
X154200000Y-105475000D03*
%TD*%
D36*
%TO.C,C37*%
X303020000Y-94490000D03*
X304570000Y-94490000D03*
%TD*%
D41*
%TO.C,L1*%
X186000000Y-87025000D03*
X186000000Y-80975000D03*
%TD*%
D11*
%TO.C,D10*%
X344157500Y-98225000D03*
X346032500Y-98225000D03*
%TD*%
D42*
%TO.C,C21*%
X174000000Y-84950000D03*
X172450000Y-84950000D03*
%TD*%
D33*
%TO.C,SW3*%
X194600000Y-48500000D03*
X200400000Y-48500000D03*
X194600000Y-52500000D03*
X200400000Y-52500000D03*
%TD*%
D10*
%TO.C,TP4*%
X252200000Y-86450000D03*
%TD*%
D17*
%TO.C,C7*%
X154352500Y-58000000D03*
X155312500Y-58000000D03*
%TD*%
D26*
%TO.C,J6*%
X231500000Y-127467500D03*
D27*
X229000000Y-127467500D03*
X226500000Y-127467500D03*
X224000000Y-127467500D03*
%TD*%
D18*
%TO.C,JP9*%
X283345000Y-71560000D03*
D19*
X283345000Y-74100000D03*
%TD*%
D33*
%TO.C,SW1*%
X204600000Y-48500000D03*
X210400000Y-48500000D03*
X204600000Y-52500000D03*
X210400000Y-52500000D03*
%TD*%
D10*
%TO.C,TP7*%
X281945000Y-39630000D03*
%TD*%
D24*
%TO.C,R5*%
X286850000Y-73000000D03*
X288500000Y-73000000D03*
%TD*%
D43*
%TO.C,T1*%
X190115000Y-118945000D03*
X184885000Y-118945000D03*
D44*
X189350000Y-115390000D03*
X185650000Y-115390000D03*
X185650000Y-122500000D03*
X187500000Y-122500000D03*
X189350000Y-122500000D03*
%TD*%
D10*
%TO.C,TP3*%
X252200000Y-82400000D03*
%TD*%
D24*
%TO.C,R26*%
X310990000Y-91980000D03*
X312640000Y-91980000D03*
%TD*%
D45*
%TO.C,U4*%
X213087500Y-87250000D03*
X213087500Y-87750000D03*
X213087500Y-88250000D03*
X213087500Y-88750000D03*
X213087500Y-89250000D03*
X213087500Y-89750000D03*
X213087500Y-90250000D03*
X213087500Y-90750000D03*
X213087500Y-91250000D03*
X213087500Y-91750000D03*
X213087500Y-92250000D03*
X213087500Y-92750000D03*
D46*
X214500000Y-94162500D03*
X215000000Y-94162500D03*
X215500000Y-94162500D03*
X216000000Y-94162500D03*
X216500000Y-94162500D03*
X217000000Y-94162500D03*
X217500000Y-94162500D03*
X218000000Y-94162500D03*
X218500000Y-94162500D03*
X219000000Y-94162500D03*
X219500000Y-94162500D03*
X220000000Y-94162500D03*
D45*
X221412500Y-92750000D03*
X221412500Y-92250000D03*
X221412500Y-91750000D03*
X221412500Y-91250000D03*
X221412500Y-90750000D03*
X221412500Y-90250000D03*
X221412500Y-89750000D03*
X221412500Y-89250000D03*
X221412500Y-88750000D03*
X221412500Y-88250000D03*
X221412500Y-87750000D03*
X221412500Y-87250000D03*
D46*
X220000000Y-85837500D03*
X219500000Y-85837500D03*
X219000000Y-85837500D03*
X218500000Y-85837500D03*
X218000000Y-85837500D03*
X217500000Y-85837500D03*
X217000000Y-85837500D03*
X216500000Y-85837500D03*
X216000000Y-85837500D03*
X215500000Y-85837500D03*
X215000000Y-85837500D03*
X214500000Y-85837500D03*
%TD*%
D39*
%TO.C,C24*%
X299150000Y-132000000D03*
X299150000Y-134950000D03*
%TD*%
D36*
%TO.C,C8*%
X197462500Y-108562500D03*
X199012500Y-108562500D03*
%TD*%
D24*
%TO.C,R34*%
X315000000Y-97000000D03*
X316650000Y-97000000D03*
%TD*%
D17*
%TO.C,C28*%
X221670000Y-86300000D03*
X222630000Y-86300000D03*
%TD*%
D47*
%TO.C,J4*%
X246000000Y-128500000D03*
D48*
X249500000Y-128500000D03*
%TD*%
D12*
%TO.C,H2*%
X175000000Y-130000000D03*
%TD*%
D17*
%TO.C,R11*%
X288975000Y-38590000D03*
X289935000Y-38590000D03*
%TD*%
D26*
%TO.C,J5*%
X206750000Y-127500000D03*
D27*
X204250000Y-127500000D03*
X201750000Y-127500000D03*
X199250000Y-127500000D03*
%TD*%
D22*
%TO.C,R3*%
X231000000Y-51175000D03*
X231000000Y-52825000D03*
%TD*%
D14*
%TO.C,JP4*%
X150900000Y-109850000D03*
D15*
X152200000Y-109850000D03*
%TD*%
D24*
%TO.C,R18*%
X306980000Y-86960000D03*
X308630000Y-86960000D03*
%TD*%
D10*
%TO.C,TP6*%
X249000000Y-86500000D03*
%TD*%
D12*
%TO.C,H3*%
X260000000Y-50000000D03*
%TD*%
D39*
%TO.C,C6*%
X199500000Y-115925000D03*
X199500000Y-118875000D03*
%TD*%
D22*
%TO.C,R32*%
X193470000Y-58125000D03*
X193470000Y-59775000D03*
%TD*%
D10*
%TO.C,TP5*%
X249000000Y-82450000D03*
%TD*%
%TO.C,TP10*%
X285995000Y-43680000D03*
%TD*%
D40*
%TO.C,C10*%
X154200000Y-103350000D03*
X154200000Y-101800000D03*
%TD*%
%TO.C,C9*%
X151150000Y-93625000D03*
X151150000Y-92075000D03*
%TD*%
D11*
%TO.C,C13*%
X286477500Y-47225000D03*
X288352500Y-47225000D03*
%TD*%
D18*
%TO.C,JP10*%
X278195000Y-48030000D03*
D19*
X278195000Y-50570000D03*
%TD*%
D40*
%TO.C,C1*%
X151150000Y-85825000D03*
X151150000Y-84275000D03*
%TD*%
D18*
%TO.C,JP7*%
X229500000Y-76000000D03*
D19*
X229500000Y-78540000D03*
%TD*%
D24*
%TO.C,R23*%
X310990000Y-84450000D03*
X312640000Y-84450000D03*
%TD*%
D49*
%TO.C,C23*%
X294275000Y-126575000D03*
X291325000Y-126575000D03*
%TD*%
D11*
%TO.C,D9*%
X344157500Y-95185000D03*
X346032500Y-95185000D03*
%TD*%
D10*
%TO.C,TP2*%
X277895000Y-43680000D03*
%TD*%
D24*
%TO.C,R21*%
X306980000Y-94490000D03*
X308630000Y-94490000D03*
%TD*%
D50*
%TO.C,R1*%
X202700000Y-115437500D03*
X202700000Y-118362500D03*
%TD*%
D33*
%TO.C,SW5*%
X234100000Y-48500000D03*
X239900000Y-48500000D03*
X234100000Y-52500000D03*
X239900000Y-52500000D03*
%TD*%
D51*
%TO.C,J7*%
X218755000Y-63190000D03*
X219855000Y-63190000D03*
X220955000Y-63190000D03*
X222055000Y-63190000D03*
X223155000Y-63190000D03*
X224255000Y-63190000D03*
X225355000Y-63190000D03*
X226455000Y-63190000D03*
X227405000Y-63190000D03*
D52*
X228355000Y-52690000D03*
D53*
X228355000Y-58890000D03*
D54*
X228355000Y-48540000D03*
D53*
X217205000Y-63190000D03*
D55*
X214855000Y-48090000D03*
%TD*%
D56*
%TO.C,RV1*%
X175500000Y-81500000D03*
X175500000Y-78960000D03*
X175500000Y-76420000D03*
%TD*%
D40*
%TO.C,C3*%
X151150000Y-89925000D03*
X151150000Y-88375000D03*
%TD*%
D57*
%TO.C,D6*%
X256500000Y-59000000D03*
X256500000Y-57425000D03*
%TD*%
D58*
%TO.C,U5*%
X293800000Y-134275000D03*
X293800000Y-131975000D03*
D59*
X287500000Y-131975000D03*
D58*
X293800000Y-129675000D03*
%TD*%
D18*
%TO.C,J11*%
X180500000Y-110500000D03*
D19*
X177960000Y-110500000D03*
X175420000Y-110500000D03*
%TD*%
D24*
%TO.C,R30*%
X315000000Y-86960000D03*
X316650000Y-86960000D03*
%TD*%
D35*
%TO.C,R22*%
X219000000Y-75825000D03*
X219000000Y-74175000D03*
%TD*%
D60*
%TO.C,C33*%
X298700000Y-123475000D03*
X301650000Y-123475000D03*
%TD*%
D61*
%TO.C,Y2*%
X208350000Y-87600000D03*
X208350000Y-91300000D03*
%TD*%
D24*
%TO.C,R20*%
X306980000Y-91980000D03*
X308630000Y-91980000D03*
%TD*%
D18*
%TO.C,J1*%
X202267400Y-68891700D03*
D19*
X204807400Y-68891700D03*
X207347400Y-68891700D03*
X209887400Y-68891700D03*
X212427400Y-68891700D03*
X214967400Y-68891700D03*
X217507400Y-68891700D03*
X220067400Y-68893861D03*
X222607400Y-68894926D03*
%TD*%
D62*
%TO.C,Q1*%
X221000000Y-74100000D03*
X221000000Y-76000000D03*
X222875000Y-75050000D03*
%TD*%
D21*
%TO.C,C26*%
X210850000Y-87170000D03*
X210850000Y-88130000D03*
%TD*%
D60*
%TO.C,C20*%
X298700000Y-113475000D03*
X301650000Y-113475000D03*
%TD*%
D22*
%TO.C,R33*%
X190960000Y-58125000D03*
X190960000Y-59775000D03*
%TD*%
D10*
%TO.C,TP9*%
X285995000Y-39630000D03*
%TD*%
D63*
%TO.C,J8*%
X249300000Y-49250000D03*
D64*
X248500000Y-51000000D03*
X247700000Y-49250000D03*
X246900000Y-51000000D03*
X246100000Y-49250000D03*
D65*
X251350000Y-50125000D03*
X244050000Y-50125000D03*
%TD*%
D17*
%TO.C,C19*%
X154352500Y-71790000D03*
X155312500Y-71790000D03*
%TD*%
D66*
%TO.C,C30*%
X212930000Y-93700000D03*
X211970000Y-93700000D03*
%TD*%
D12*
%TO.C,H1*%
X175000000Y-50000000D03*
%TD*%
D67*
%TO.C,C35*%
X193490000Y-61450000D03*
X193490000Y-63000000D03*
%TD*%
D24*
%TO.C,R24*%
X310990000Y-86960000D03*
X312640000Y-86960000D03*
%TD*%
D11*
%TO.C,D11*%
X344157500Y-101265000D03*
X346032500Y-101265000D03*
%TD*%
D34*
%TO.C,D7*%
X281000000Y-79000000D03*
X285000000Y-79000000D03*
%TD*%
D47*
%TO.C,J9*%
X185750000Y-129545000D03*
D48*
X189250000Y-129545000D03*
%TD*%
D68*
%TO.C,C22*%
X299175000Y-109475000D03*
X302775000Y-109475000D03*
%TD*%
D35*
%TO.C,R14*%
X203750000Y-79675000D03*
X203750000Y-78025000D03*
%TD*%
D24*
%TO.C,R13*%
X286350000Y-50000000D03*
X288000000Y-50000000D03*
%TD*%
D67*
%TO.C,C36*%
X190980000Y-61450000D03*
X190980000Y-63000000D03*
%TD*%
%TO.C,C34*%
X196000000Y-61450000D03*
X196000000Y-63000000D03*
%TD*%
D17*
%TO.C,C12*%
X287375000Y-61830000D03*
X288335000Y-61830000D03*
%TD*%
D60*
%TO.C,C31*%
X298700000Y-125975000D03*
X301650000Y-125975000D03*
%TD*%
D69*
%TO.C,U6*%
X299200000Y-116220000D03*
D70*
X305500000Y-118500000D03*
D69*
X299200000Y-120780000D03*
%TD*%
D40*
%TO.C,C4*%
X154200000Y-110750000D03*
X154200000Y-109200000D03*
%TD*%
D57*
%TO.C,D4*%
X255000000Y-59000000D03*
X255000000Y-57425000D03*
%TD*%
D10*
%TO.C,TP1*%
X277895000Y-39630000D03*
%TD*%
D37*
%TO.C,JP5*%
X148490000Y-91900000D03*
D38*
X148490000Y-93200000D03*
%TD*%
D37*
%TO.C,JP1*%
X148490000Y-84500000D03*
D38*
X148490000Y-85800000D03*
%TD*%
D17*
%TO.C,C18*%
X154352500Y-69820000D03*
X155312500Y-69820000D03*
%TD*%
D22*
%TO.C,R12*%
X255000000Y-60887500D03*
X255000000Y-62537500D03*
%TD*%
%TO.C,R31*%
X195980000Y-58125000D03*
X195980000Y-59775000D03*
%TD*%
D71*
%TO.C,U3*%
X249500000Y-58500000D03*
X249000000Y-58500000D03*
X248500000Y-58500000D03*
X248000000Y-58500000D03*
X247500000Y-58500000D03*
X247000000Y-58500000D03*
X246500000Y-58500000D03*
D72*
X245550000Y-59450000D03*
X245550000Y-59950000D03*
X245550000Y-60450000D03*
X245550000Y-60950000D03*
X245550000Y-61450000D03*
X245550000Y-61950000D03*
X245550000Y-62450000D03*
D71*
X246500000Y-63400000D03*
X247000000Y-63400000D03*
X247500000Y-63400000D03*
X248000000Y-63400000D03*
X248500000Y-63400000D03*
X249000000Y-63400000D03*
X249500000Y-63400000D03*
D72*
X250450000Y-62450000D03*
X250450000Y-61950000D03*
X250450000Y-61450000D03*
X250450000Y-60950000D03*
X250450000Y-60450000D03*
X250450000Y-59950000D03*
X250450000Y-59450000D03*
D73*
X248000000Y-60950000D03*
%TD*%
M02*
