%TF.GenerationSoftware,KiCad,Pcbnew,8.0.6*%
%TF.CreationDate,2024-12-12T11:47:03+01:00*%
%TF.ProjectId,TUSS4470_shield,54555353-3434-4373-905f-736869656c64,rev?*%
%TF.SameCoordinates,Original*%
%TF.FileFunction,Copper,L2,Bot*%
%TF.FilePolarity,Positive*%
%FSLAX46Y46*%
G04 Gerber Fmt 4.6, Leading zero omitted, Abs format (unit mm)*
G04 Created by KiCad (PCBNEW 8.0.6) date 2024-12-12 11:47:03*
%MOMM*%
%LPD*%
G01*
G04 APERTURE LIST*
G04 Aperture macros list*
%AMRoundRect*
0 Rectangle with rounded corners*
0 $1 Rounding radius*
0 $2 $3 $4 $5 $6 $7 $8 $9 X,Y pos of 4 corners*
0 Add a 4 corners polygon primitive as box body*
4,1,4,$2,$3,$4,$5,$6,$7,$8,$9,$2,$3,0*
0 Add four circle primitives for the rounded corners*
1,1,$1+$1,$2,$3*
1,1,$1+$1,$4,$5*
1,1,$1+$1,$6,$7*
1,1,$1+$1,$8,$9*
0 Add four rect primitives between the rounded corners*
20,1,$1+$1,$2,$3,$4,$5,0*
20,1,$1+$1,$4,$5,$6,$7,0*
20,1,$1+$1,$6,$7,$8,$9,0*
20,1,$1+$1,$8,$9,$2,$3,0*%
G04 Aperture macros list end*
%TA.AperFunction,ComponentPad*%
%ADD10R,2.400000X2.400000*%
%TD*%
%TA.AperFunction,ComponentPad*%
%ADD11C,2.400000*%
%TD*%
%TA.AperFunction,HeatsinkPad*%
%ADD12C,0.500000*%
%TD*%
%TA.AperFunction,HeatsinkPad*%
%ADD13R,2.500000X2.500000*%
%TD*%
%TA.AperFunction,ComponentPad*%
%ADD14R,1.700000X1.700000*%
%TD*%
%TA.AperFunction,ComponentPad*%
%ADD15O,1.700000X1.700000*%
%TD*%
%TA.AperFunction,ComponentPad*%
%ADD16C,1.400000*%
%TD*%
%TA.AperFunction,ComponentPad*%
%ADD17RoundRect,0.770000X0.980000X-0.980000X0.980000X0.980000X-0.980000X0.980000X-0.980000X-0.980000X0*%
%TD*%
%TA.AperFunction,ComponentPad*%
%ADD18C,3.500000*%
%TD*%
%TA.AperFunction,ComponentPad*%
%ADD19R,1.600000X1.600000*%
%TD*%
%TA.AperFunction,ComponentPad*%
%ADD20O,1.600000X1.600000*%
%TD*%
%TA.AperFunction,ViaPad*%
%ADD21C,0.600000*%
%TD*%
%TA.AperFunction,Conductor*%
%ADD22C,0.200000*%
%TD*%
%TA.AperFunction,Conductor*%
%ADD23C,0.500000*%
%TD*%
%TA.AperFunction,Conductor*%
%ADD24C,1.000000*%
%TD*%
G04 APERTURE END LIST*
D10*
%TO.P,J2,1,Pin_1*%
%TO.N,Net-(J2-Pin_1)*%
X128900000Y-57350000D03*
D11*
%TO.P,J2,2,Pin_2*%
%TO.N,Net-(J2-Pin_2)*%
X128900000Y-53850000D03*
%TD*%
D12*
%TO.P,U1,21,EXP*%
%TO.N,GND*%
X111462500Y-56500000D03*
X111462500Y-58500000D03*
D13*
X112462500Y-57500000D03*
D12*
X113462500Y-56500000D03*
X113462500Y-58500000D03*
%TD*%
D14*
%TO.P,JP2,1,A*%
%TO.N,Net-(JP2-A)*%
X118740000Y-65700000D03*
D15*
%TO.P,JP2,2,B*%
%TO.N,Net-(JP2-B)*%
X116200000Y-65700000D03*
%TD*%
D14*
%TO.P,JP3,1,A*%
%TO.N,Net-(JP3-A)*%
X118740000Y-49300000D03*
D15*
%TO.P,JP3,2,B*%
%TO.N,Net-(JP1-B)*%
X116200000Y-49300000D03*
%TD*%
D14*
%TO.P,J6,1,Pin_1*%
%TO.N,ADC*%
X115143426Y-82000000D03*
D15*
%TO.P,J6,2,Pin_2*%
%TO.N,Net-(A1-A1)*%
X117683426Y-82000000D03*
%TO.P,J6,3,Pin_3*%
%TO.N,Net-(A1-A2)*%
X120223426Y-82000000D03*
%TO.P,J6,4,Pin_4*%
%TO.N,Net-(A1-A3)*%
X122763426Y-82000000D03*
%TO.P,J6,5,Pin_5*%
%TO.N,Net-(J6-Pin_5)*%
X125303426Y-82000000D03*
%TO.P,J6,6,Pin_6*%
%TO.N,Net-(J6-Pin_6)*%
X127843426Y-82000000D03*
%TD*%
D16*
%TO.P,J1,*%
%TO.N,*%
X67675000Y-72500000D03*
X67675000Y-61500000D03*
D17*
%TO.P,J1,1,Pin_1*%
%TO.N,GND*%
X77675000Y-64500000D03*
D18*
%TO.P,J1,2,Pin_2*%
%TO.N,Net-(J1-Pin_2)*%
X77675000Y-69500000D03*
%TD*%
D14*
%TO.P,JP4,1,A*%
%TO.N,Net-(JP4-A)*%
X118740000Y-69400000D03*
D15*
%TO.P,JP4,2,B*%
%TO.N,Net-(JP2-B)*%
X116200000Y-69400000D03*
%TD*%
D14*
%TO.P,J7,1,Pin_1*%
%TO.N,unconnected-(J7-Pin_1-Pad1)*%
X92292675Y-81999189D03*
D15*
%TO.P,J7,2,Pin_2*%
%TO.N,UREF*%
X94832675Y-81999189D03*
%TO.P,J7,3,Pin_3*%
%TO.N,RESET*%
X97372675Y-81999189D03*
%TO.P,J7,4,Pin_4*%
%TO.N,+3.3V*%
X99912675Y-81999189D03*
%TO.P,J7,5,Pin_5*%
%TO.N,+5V*%
X102452675Y-81999189D03*
%TO.P,J7,6,Pin_6*%
%TO.N,GND*%
X104992675Y-81999189D03*
%TO.P,J7,7,Pin_7*%
X107532675Y-81999189D03*
%TO.P,J7,8,Pin_8*%
%TO.N,Net-(A1-VIN)*%
X110072675Y-81999189D03*
%TD*%
D14*
%TO.P,J5,1,Pin_1*%
%TO.N,Net-(A1-D7)*%
X110062821Y-40000000D03*
D15*
%TO.P,J5,2,Pin_2*%
%TO.N,OUT_3*%
X112602821Y-40000000D03*
%TO.P,J5,3,Pin_3*%
%TO.N,OUT_4*%
X115142821Y-40000000D03*
%TO.P,J5,4,Pin_4*%
%TO.N,Net-(A1-D4)*%
X117682821Y-40000000D03*
%TO.P,J5,5,Pin_5*%
%TO.N,Net-(A1-D3)*%
X120222821Y-40000000D03*
%TO.P,J5,6,Pin_6*%
%TO.N,Net-(A1-D2)*%
X122762821Y-40000000D03*
%TO.P,J5,7,Pin_7*%
%TO.N,Net-(A1-D1{slash}TX)*%
X125302821Y-40000000D03*
%TO.P,J5,8,Pin_8*%
%TO.N,Net-(A1-D0{slash}RX)*%
X127842821Y-40000000D03*
%TD*%
D14*
%TO.P,J3,1,Pin_1*%
%TO.N,Net-(J3-Pin_1)*%
X83137057Y-40008896D03*
D15*
%TO.P,J3,2,Pin_2*%
%TO.N,Net-(J3-Pin_2)*%
X85677057Y-40008896D03*
%TO.P,J3,3,Pin_3*%
%TO.N,Net-(A1-AREF)*%
X88217057Y-40008896D03*
%TO.P,J3,4,Pin_4*%
%TO.N,GND*%
X90757057Y-40008896D03*
%TO.P,J3,5,Pin_5*%
%TO.N,SCLK*%
X93297057Y-40008896D03*
%TO.P,J3,6,Pin_6*%
%TO.N,SDO*%
X95837057Y-40008896D03*
%TO.P,J3,7,Pin_7*%
%TO.N,SDI*%
X98377057Y-40008896D03*
%TO.P,J3,8,Pin_8*%
%TO.N,NCS*%
X100917057Y-40008896D03*
%TO.P,J3,9,Pin_9*%
%TO.N,IO_2*%
X103457057Y-40008896D03*
%TO.P,J3,10,Pin_10*%
%TO.N,IO_1*%
X105997057Y-40008896D03*
%TD*%
D14*
%TO.P,J4,1,Pin_1*%
%TO.N,Net-(J1-Pin_2)*%
X81775000Y-69500000D03*
D15*
%TO.P,J4,2,Pin_2*%
%TO.N,VCC*%
X84315000Y-69500000D03*
%TO.P,J4,3,Pin_3*%
%TO.N,Net-(A1-VIN)*%
X86855000Y-69500000D03*
%TD*%
D14*
%TO.P,JP5,1,A*%
%TO.N,Net-(JP5-A)*%
X118740000Y-53000000D03*
D15*
%TO.P,JP5,2,B*%
%TO.N,Net-(JP1-B)*%
X116200000Y-53000000D03*
%TD*%
D14*
%TO.P,JP1,1,A*%
%TO.N,Net-(JP1-A)*%
X118740000Y-45600000D03*
D15*
%TO.P,JP1,2,B*%
%TO.N,Net-(JP1-B)*%
X116200000Y-45600000D03*
%TD*%
D14*
%TO.P,JP6,1,A*%
%TO.N,Net-(JP6-A)*%
X118740000Y-62025000D03*
D15*
%TO.P,JP6,2,B*%
%TO.N,Net-(JP2-B)*%
X116200000Y-62025000D03*
%TD*%
D19*
%TO.P,A1,1,NC*%
%TO.N,unconnected-(A1-NC-Pad1)*%
X92320000Y-85160000D03*
D20*
%TO.P,A1,2,IOREF*%
%TO.N,UREF*%
X94860000Y-85160000D03*
%TO.P,A1,3,~{RESET}*%
%TO.N,RESET*%
X97400000Y-85160000D03*
%TO.P,A1,4,3V3*%
%TO.N,+3.3V*%
X99940000Y-85160000D03*
%TO.P,A1,5,+5V*%
%TO.N,+5V*%
X102480000Y-85160000D03*
%TO.P,A1,6,GND*%
%TO.N,GND*%
X105020000Y-85160000D03*
%TO.P,A1,7,GND*%
X107560000Y-85160000D03*
%TO.P,A1,8,VIN*%
%TO.N,Net-(A1-VIN)*%
X110100000Y-85160000D03*
%TO.P,A1,9,A0*%
%TO.N,ADC*%
X115180000Y-85160000D03*
%TO.P,A1,10,A1*%
%TO.N,Net-(A1-A1)*%
X117720000Y-85160000D03*
%TO.P,A1,11,A2*%
%TO.N,Net-(A1-A2)*%
X120260000Y-85160000D03*
%TO.P,A1,12,A3*%
%TO.N,Net-(A1-A3)*%
X122800000Y-85160000D03*
%TO.P,A1,13,SDA/A4*%
%TO.N,Net-(J6-Pin_5)*%
X125340000Y-85160000D03*
%TO.P,A1,14,SCL/A5*%
%TO.N,Net-(J6-Pin_6)*%
X127880000Y-85160000D03*
%TO.P,A1,15,D0/RX*%
%TO.N,Net-(A1-D0{slash}RX)*%
X127880000Y-36900000D03*
%TO.P,A1,16,D1/TX*%
%TO.N,Net-(A1-D1{slash}TX)*%
X125340000Y-36900000D03*
%TO.P,A1,17,D2*%
%TO.N,Net-(A1-D2)*%
X122800000Y-36900000D03*
%TO.P,A1,18,D3*%
%TO.N,Net-(A1-D3)*%
X120260000Y-36900000D03*
%TO.P,A1,19,D4*%
%TO.N,Net-(A1-D4)*%
X117720000Y-36900000D03*
%TO.P,A1,20,D5*%
%TO.N,OUT_4*%
X115180000Y-36900000D03*
%TO.P,A1,21,D6*%
%TO.N,OUT_3*%
X112640000Y-36900000D03*
%TO.P,A1,22,D7*%
%TO.N,Net-(A1-D7)*%
X110100000Y-36900000D03*
%TO.P,A1,23,D8*%
%TO.N,IO_1*%
X106040000Y-36900000D03*
%TO.P,A1,24,D9*%
%TO.N,IO_2*%
X103500000Y-36900000D03*
%TO.P,A1,25,D10*%
%TO.N,NCS*%
X100960000Y-36900000D03*
%TO.P,A1,26,D11*%
%TO.N,SDI*%
X98420000Y-36900000D03*
%TO.P,A1,27,D12*%
%TO.N,SDO*%
X95880000Y-36900000D03*
%TO.P,A1,28,D13*%
%TO.N,SCLK*%
X93340000Y-36900000D03*
%TO.P,A1,29,GND*%
%TO.N,GND*%
X90800000Y-36900000D03*
%TO.P,A1,30,AREF*%
%TO.N,Net-(A1-AREF)*%
X88260000Y-36900000D03*
%TO.P,A1,31,SDA/A4*%
%TO.N,Net-(J3-Pin_2)*%
X85720000Y-36900000D03*
%TO.P,A1,32,SCL/A5*%
%TO.N,Net-(J3-Pin_1)*%
X83180000Y-36900000D03*
%TD*%
D21*
%TO.N,GND*%
X122750000Y-44650000D03*
X122600000Y-48800000D03*
X108500000Y-56300000D03*
X109300000Y-68800000D03*
X85000000Y-79800000D03*
X124400000Y-53900000D03*
X131800000Y-57400000D03*
X118100000Y-67500000D03*
X96400000Y-48200000D03*
X98000000Y-52100000D03*
X74200000Y-63700000D03*
X115000000Y-63900000D03*
X116200000Y-43000000D03*
X82200000Y-66100000D03*
X122900000Y-72300000D03*
X95300000Y-55100000D03*
X128900000Y-75800000D03*
X102600000Y-51300000D03*
X121100000Y-57300000D03*
X108700000Y-66000000D03*
X130400000Y-72300000D03*
X87800000Y-55900000D03*
X81400000Y-85900000D03*
X104300000Y-66800000D03*
X104800000Y-64000000D03*
X110600000Y-77100000D03*
X124200000Y-74000000D03*
X123900000Y-75800000D03*
X122750000Y-52450000D03*
X77900000Y-60600000D03*
X106700000Y-53200000D03*
X126400000Y-75800000D03*
X110500000Y-46700000D03*
X128900000Y-72300000D03*
X128200000Y-74000000D03*
X121500000Y-59900000D03*
X130400000Y-75800000D03*
X74400000Y-70100000D03*
X125700000Y-74000000D03*
X126600000Y-53900000D03*
X104300000Y-72600000D03*
X114800000Y-60400000D03*
X124300000Y-56800000D03*
X83800000Y-60100000D03*
X84500000Y-73800000D03*
X109200000Y-57000000D03*
X70600000Y-83100000D03*
X123200000Y-74000000D03*
X125400000Y-75800000D03*
X86400000Y-64000000D03*
X131700000Y-53900000D03*
X106000000Y-49800000D03*
X106800000Y-69300000D03*
X106100000Y-46600000D03*
X101100000Y-69300000D03*
X91400000Y-78200000D03*
X108100000Y-51400000D03*
X104000000Y-77100000D03*
X127900000Y-72300000D03*
X100300000Y-44300000D03*
X130700000Y-74000000D03*
X112800000Y-45500000D03*
X81400000Y-64200000D03*
X113200000Y-48800000D03*
X114900000Y-77300000D03*
X88000000Y-84500000D03*
X93200000Y-51000000D03*
X109800000Y-63100000D03*
X73600000Y-78400000D03*
X113800000Y-68300000D03*
X131400000Y-75800000D03*
X117800000Y-47500000D03*
X102700000Y-47000000D03*
X113700000Y-63900000D03*
X131400000Y-72300000D03*
X126700000Y-56900000D03*
X122700000Y-64200000D03*
X118100000Y-63800000D03*
X122900000Y-75800000D03*
X126700000Y-74000000D03*
X114700000Y-74300000D03*
X112600000Y-69900000D03*
X89800000Y-75900000D03*
X123900000Y-72300000D03*
X67000000Y-79400000D03*
X129200000Y-74000000D03*
X125400000Y-72300000D03*
X105800000Y-60300000D03*
X91000000Y-59200000D03*
X110800000Y-73900000D03*
X102400000Y-56400000D03*
X86700000Y-67200000D03*
X108000000Y-37600000D03*
X126400000Y-72300000D03*
X100800000Y-49400000D03*
X117800000Y-51100000D03*
X127900000Y-75800000D03*
X102300000Y-43100000D03*
X122700000Y-67900000D03*
X108100000Y-41200000D03*
X100300000Y-73200000D03*
X131700000Y-74000000D03*
X102100000Y-60800000D03*
%TO.N,NCS*%
X107000000Y-56500000D03*
%TO.N,SDO*%
X108400000Y-60900000D03*
%TO.N,SCLK*%
X105300000Y-58000000D03*
%TO.N,+5V*%
X103500000Y-70100000D03*
X113500000Y-66400000D03*
%TO.N,SDI*%
X108400000Y-59000000D03*
%TO.N,VCC*%
X106400000Y-44800000D03*
X101492893Y-45892893D03*
X101942893Y-45442893D03*
X107000000Y-44800000D03*
%TD*%
D22*
%TO.N,NCS*%
X98780000Y-49214314D02*
X106065686Y-56500000D01*
X98780000Y-42145953D02*
X100917057Y-40008896D01*
X98780000Y-43700000D02*
X98780000Y-42145953D01*
X98780000Y-43700000D02*
X98780000Y-49214314D01*
X106065686Y-56500000D02*
X107000000Y-56500000D01*
%TO.N,SDO*%
X97977057Y-42148896D02*
X95837057Y-40008896D01*
X97977057Y-49542743D02*
X97977057Y-42148896D01*
X108400000Y-60900000D02*
X108400000Y-59965686D01*
X108400000Y-59965686D02*
X97977057Y-49542743D01*
%TO.N,SCLK*%
X105300000Y-57431372D02*
X97577057Y-49708429D01*
X105300000Y-58000000D02*
X105300000Y-57431372D01*
X95644080Y-42355920D02*
X93297057Y-40008896D01*
X97577057Y-44288897D02*
X95644080Y-42355920D01*
X97577057Y-49708429D02*
X97577057Y-44288897D01*
D23*
%TO.N,+5V*%
X102440000Y-71160000D02*
X103500000Y-70100000D01*
X102440000Y-85260000D02*
X102440000Y-71160000D01*
X112500000Y-67400000D02*
X113500000Y-66400000D01*
X106200000Y-67400000D02*
X112500000Y-67400000D01*
X103500000Y-70100000D02*
X106200000Y-67400000D01*
D22*
%TO.N,SDI*%
X108000000Y-59000000D02*
X108400000Y-59000000D01*
X98377057Y-40008896D02*
X98377057Y-49377057D01*
X98377057Y-49377057D02*
X108000000Y-59000000D01*
D24*
%TO.N,VCC*%
X107000000Y-44800000D02*
X106400000Y-44800000D01*
X106400000Y-44800000D02*
X103500000Y-44800000D01*
X101492893Y-45892893D02*
X102585786Y-44800000D01*
X102585786Y-44800000D02*
X103500000Y-44800000D01*
%TD*%
%TA.AperFunction,Conductor*%
%TO.N,GND*%
G36*
X107094075Y-84967007D02*
G01*
X107060000Y-85094174D01*
X107060000Y-85225826D01*
X107094075Y-85352993D01*
X107126988Y-85410000D01*
X105453012Y-85410000D01*
X105485925Y-85352993D01*
X105520000Y-85225826D01*
X105520000Y-85094174D01*
X105485925Y-84967007D01*
X105453012Y-84910000D01*
X107126988Y-84910000D01*
X107094075Y-84967007D01*
G37*
%TD.AperFunction*%
%TA.AperFunction,Conductor*%
G36*
X107066750Y-81806196D02*
G01*
X107032675Y-81933363D01*
X107032675Y-82065015D01*
X107066750Y-82192182D01*
X107099663Y-82249189D01*
X105425687Y-82249189D01*
X105458600Y-82192182D01*
X105492675Y-82065015D01*
X105492675Y-81933363D01*
X105458600Y-81806196D01*
X105425687Y-81749189D01*
X107099663Y-81749189D01*
X107066750Y-81806196D01*
G37*
%TD.AperFunction*%
%TA.AperFunction,Conductor*%
G36*
X128608363Y-34720185D02*
G01*
X128629005Y-34736819D01*
X130063181Y-36170995D01*
X130096666Y-36232318D01*
X130099500Y-36258676D01*
X130099500Y-47465891D01*
X130133608Y-47593187D01*
X130166554Y-47650250D01*
X130199500Y-47707314D01*
X130199502Y-47707316D01*
X132563181Y-50070995D01*
X132596666Y-50132318D01*
X132599500Y-50158676D01*
X132599500Y-82541324D01*
X132579815Y-82608363D01*
X132563181Y-82629005D01*
X130199502Y-84992683D01*
X130199500Y-84992686D01*
X130133608Y-85106812D01*
X130099500Y-85234108D01*
X130099500Y-87375500D01*
X130079815Y-87442539D01*
X130027011Y-87488294D01*
X129975500Y-87499500D01*
X64724500Y-87499500D01*
X64657461Y-87479815D01*
X64611706Y-87427011D01*
X64600500Y-87375500D01*
X64600500Y-81101324D01*
X90942175Y-81101324D01*
X90942175Y-82897059D01*
X90942176Y-82897065D01*
X90948583Y-82956672D01*
X90998877Y-83091517D01*
X90998881Y-83091524D01*
X91085127Y-83206733D01*
X91085130Y-83206736D01*
X91200339Y-83292982D01*
X91200346Y-83292986D01*
X91335192Y-83343280D01*
X91335191Y-83343280D01*
X91342119Y-83344024D01*
X91394802Y-83349689D01*
X93190547Y-83349688D01*
X93250158Y-83343280D01*
X93385006Y-83292985D01*
X93500221Y-83206735D01*
X93586471Y-83091520D01*
X93635485Y-82960105D01*
X93677356Y-82904173D01*
X93742820Y-82879755D01*
X93811093Y-82894606D01*
X93839348Y-82915758D01*
X93961274Y-83037684D01*
X94039314Y-83092328D01*
X94154840Y-83173221D01*
X94154842Y-83173222D01*
X94154845Y-83173224D01*
X94369012Y-83273092D01*
X94369018Y-83273093D01*
X94369019Y-83273094D01*
X94372046Y-83273905D01*
X94597267Y-83334252D01*
X94773709Y-83349689D01*
X94832674Y-83354848D01*
X94832675Y-83354848D01*
X94832676Y-83354848D01*
X94871909Y-83351415D01*
X95068083Y-83334252D01*
X95296338Y-83273092D01*
X95510505Y-83173224D01*
X95704076Y-83037684D01*
X95871170Y-82870590D01*
X96001100Y-82685031D01*
X96055677Y-82641406D01*
X96125175Y-82634212D01*
X96187530Y-82665735D01*
X96204250Y-82685031D01*
X96334175Y-82870584D01*
X96334180Y-82870590D01*
X96501274Y-83037684D01*
X96579314Y-83092328D01*
X96694840Y-83173221D01*
X96694842Y-83173222D01*
X96694845Y-83173224D01*
X96909012Y-83273092D01*
X96909018Y-83273093D01*
X96909019Y-83273094D01*
X96912046Y-83273905D01*
X97137267Y-83334252D01*
X97313709Y-83349689D01*
X97372674Y-83354848D01*
X97372675Y-83354848D01*
X97372676Y-83354848D01*
X97411909Y-83351415D01*
X97608083Y-83334252D01*
X97836338Y-83273092D01*
X98050505Y-83173224D01*
X98244076Y-83037684D01*
X98411170Y-82870590D01*
X98541100Y-82685031D01*
X98595677Y-82641406D01*
X98665175Y-82634212D01*
X98727530Y-82665735D01*
X98744250Y-82685031D01*
X98874175Y-82870584D01*
X98874180Y-82870590D01*
X99041274Y-83037684D01*
X99119314Y-83092328D01*
X99234840Y-83173221D01*
X99234842Y-83173222D01*
X99234845Y-83173224D01*
X99449012Y-83273092D01*
X99449018Y-83273093D01*
X99449019Y-83273094D01*
X99452046Y-83273905D01*
X99677267Y-83334252D01*
X99853709Y-83349689D01*
X99912674Y-83354848D01*
X99912675Y-83354848D01*
X99912676Y-83354848D01*
X99951909Y-83351415D01*
X100148083Y-83334252D01*
X100376338Y-83273092D01*
X100590505Y-83173224D01*
X100784076Y-83037684D01*
X100951170Y-82870590D01*
X101081100Y-82685031D01*
X101135677Y-82641406D01*
X101205175Y-82634212D01*
X101267530Y-82665735D01*
X101284250Y-82685031D01*
X101414176Y-82870585D01*
X101414181Y-82870591D01*
X101581270Y-83037681D01*
X101581273Y-83037683D01*
X101581274Y-83037684D01*
X101636623Y-83076439D01*
X101680248Y-83131014D01*
X101689500Y-83178014D01*
X101689500Y-84061345D01*
X101669815Y-84128384D01*
X101644004Y-84155272D01*
X101645011Y-84156471D01*
X101640863Y-84159951D01*
X101479951Y-84320862D01*
X101349432Y-84507265D01*
X101349431Y-84507267D01*
X101322382Y-84565275D01*
X101276209Y-84617714D01*
X101209016Y-84636866D01*
X101142135Y-84616650D01*
X101097618Y-84565275D01*
X101070686Y-84507520D01*
X101070568Y-84507266D01*
X100940047Y-84320861D01*
X100940045Y-84320858D01*
X100779141Y-84159954D01*
X100592734Y-84029432D01*
X100592732Y-84029431D01*
X100386497Y-83933261D01*
X100386488Y-83933258D01*
X100166697Y-83874366D01*
X100166693Y-83874365D01*
X100166692Y-83874365D01*
X100166691Y-83874364D01*
X100166686Y-83874364D01*
X99940002Y-83854532D01*
X99939998Y-83854532D01*
X99713313Y-83874364D01*
X99713302Y-83874366D01*
X99493511Y-83933258D01*
X99493502Y-83933261D01*
X99287267Y-84029431D01*
X99287265Y-84029432D01*
X99100858Y-84159954D01*
X98939954Y-84320858D01*
X98809432Y-84507265D01*
X98809431Y-84507267D01*
X98782382Y-84565275D01*
X98736209Y-84617714D01*
X98669016Y-84636866D01*
X98602135Y-84616650D01*
X98557618Y-84565275D01*
X98530686Y-84507520D01*
X98530568Y-84507266D01*
X98400047Y-84320861D01*
X98400045Y-84320858D01*
X98239141Y-84159954D01*
X98052734Y-84029432D01*
X98052732Y-84029431D01*
X97846497Y-83933261D01*
X97846488Y-83933258D01*
X97626697Y-83874366D01*
X97626693Y-83874365D01*
X97626692Y-83874365D01*
X97626691Y-83874364D01*
X97626686Y-83874364D01*
X97400002Y-83854532D01*
X97399998Y-83854532D01*
X97173313Y-83874364D01*
X97173302Y-83874366D01*
X96953511Y-83933258D01*
X96953502Y-83933261D01*
X96747267Y-84029431D01*
X96747265Y-84029432D01*
X96560858Y-84159954D01*
X96399954Y-84320858D01*
X96269432Y-84507265D01*
X96269431Y-84507267D01*
X96242382Y-84565275D01*
X96196209Y-84617714D01*
X96129016Y-84636866D01*
X96062135Y-84616650D01*
X96017618Y-84565275D01*
X95990686Y-84507520D01*
X95990568Y-84507266D01*
X95860047Y-84320861D01*
X95860045Y-84320858D01*
X95699141Y-84159954D01*
X95512734Y-84029432D01*
X95512732Y-84029431D01*
X95306497Y-83933261D01*
X95306488Y-83933258D01*
X95086697Y-83874366D01*
X95086693Y-83874365D01*
X95086692Y-83874365D01*
X95086691Y-83874364D01*
X95086686Y-83874364D01*
X94860002Y-83854532D01*
X94859998Y-83854532D01*
X94633313Y-83874364D01*
X94633302Y-83874366D01*
X94413511Y-83933258D01*
X94413502Y-83933261D01*
X94207267Y-84029431D01*
X94207265Y-84029432D01*
X94020858Y-84159954D01*
X93859954Y-84320858D01*
X93842725Y-84345464D01*
X93788147Y-84389088D01*
X93718648Y-84396280D01*
X93656294Y-84364757D01*
X93620882Y-84304526D01*
X93617861Y-84287591D01*
X93614091Y-84252516D01*
X93563797Y-84117671D01*
X93563793Y-84117664D01*
X93477547Y-84002455D01*
X93477544Y-84002452D01*
X93362335Y-83916206D01*
X93362328Y-83916202D01*
X93227482Y-83865908D01*
X93227483Y-83865908D01*
X93167883Y-83859501D01*
X93167881Y-83859500D01*
X93167873Y-83859500D01*
X93167864Y-83859500D01*
X91472129Y-83859500D01*
X91472123Y-83859501D01*
X91412516Y-83865908D01*
X91277671Y-83916202D01*
X91277664Y-83916206D01*
X91162455Y-84002452D01*
X91162452Y-84002455D01*
X91076206Y-84117664D01*
X91076202Y-84117671D01*
X91025908Y-84252517D01*
X91019501Y-84312116D01*
X91019500Y-84312135D01*
X91019500Y-86007870D01*
X91019501Y-86007876D01*
X91025908Y-86067483D01*
X91076202Y-86202328D01*
X91076206Y-86202335D01*
X91162452Y-86317544D01*
X91162455Y-86317547D01*
X91277664Y-86403793D01*
X91277671Y-86403797D01*
X91412517Y-86454091D01*
X91412516Y-86454091D01*
X91419444Y-86454835D01*
X91472127Y-86460500D01*
X93167872Y-86460499D01*
X93227483Y-86454091D01*
X93362331Y-86403796D01*
X93477546Y-86317546D01*
X93563796Y-86202331D01*
X93614091Y-86067483D01*
X93617862Y-86032401D01*
X93644599Y-85967855D01*
X93701990Y-85928006D01*
X93771816Y-85925511D01*
X93831905Y-85961163D01*
X93842726Y-85974536D01*
X93859956Y-85999143D01*
X94020858Y-86160045D01*
X94020861Y-86160047D01*
X94207266Y-86290568D01*
X94413504Y-86386739D01*
X94633308Y-86445635D01*
X94795230Y-86459801D01*
X94859998Y-86465468D01*
X94860000Y-86465468D01*
X94860002Y-86465468D01*
X94916807Y-86460498D01*
X95086692Y-86445635D01*
X95306496Y-86386739D01*
X95512734Y-86290568D01*
X95699139Y-86160047D01*
X95860047Y-85999139D01*
X95990568Y-85812734D01*
X96017618Y-85754724D01*
X96063790Y-85702285D01*
X96130983Y-85683133D01*
X96197865Y-85703348D01*
X96242382Y-85754725D01*
X96269429Y-85812728D01*
X96269432Y-85812734D01*
X96399954Y-85999141D01*
X96560858Y-86160045D01*
X96560861Y-86160047D01*
X96747266Y-86290568D01*
X96953504Y-86386739D01*
X97173308Y-86445635D01*
X97335230Y-86459801D01*
X97399998Y-86465468D01*
X97400000Y-86465468D01*
X97400002Y-86465468D01*
X97456807Y-86460498D01*
X97626692Y-86445635D01*
X97846496Y-86386739D01*
X98052734Y-86290568D01*
X98239139Y-86160047D01*
X98400047Y-85999139D01*
X98530568Y-85812734D01*
X98557618Y-85754724D01*
X98603790Y-85702285D01*
X98670983Y-85683133D01*
X98737865Y-85703348D01*
X98782382Y-85754725D01*
X98809429Y-85812728D01*
X98809432Y-85812734D01*
X98939954Y-85999141D01*
X99100858Y-86160045D01*
X99100861Y-86160047D01*
X99287266Y-86290568D01*
X99493504Y-86386739D01*
X99713308Y-86445635D01*
X99875230Y-86459801D01*
X99939998Y-86465468D01*
X99940000Y-86465468D01*
X99940002Y-86465468D01*
X99996807Y-86460498D01*
X100166692Y-86445635D01*
X100386496Y-86386739D01*
X100592734Y-86290568D01*
X100779139Y-86160047D01*
X100940047Y-85999139D01*
X101070568Y-85812734D01*
X101097618Y-85754724D01*
X101143790Y-85702285D01*
X101210983Y-85683133D01*
X101277865Y-85703348D01*
X101322382Y-85754725D01*
X101349429Y-85812728D01*
X101349432Y-85812734D01*
X101479954Y-85999141D01*
X101640858Y-86160045D01*
X101640861Y-86160047D01*
X101827266Y-86290568D01*
X102033504Y-86386739D01*
X102253308Y-86445635D01*
X102415230Y-86459801D01*
X102479998Y-86465468D01*
X102480000Y-86465468D01*
X102480002Y-86465468D01*
X102536807Y-86460498D01*
X102706692Y-86445635D01*
X102926496Y-86386739D01*
X103132734Y-86290568D01*
X103319139Y-86160047D01*
X103480047Y-85999139D01*
X103610568Y-85812734D01*
X103637895Y-85754129D01*
X103684064Y-85701695D01*
X103751257Y-85682542D01*
X103818139Y-85702757D01*
X103862657Y-85754133D01*
X103889865Y-85812482D01*
X104020342Y-85998820D01*
X104181179Y-86159657D01*
X104367517Y-86290134D01*
X104573673Y-86386265D01*
X104573682Y-86386269D01*
X104769999Y-86438872D01*
X104770000Y-86438871D01*
X104770000Y-85593012D01*
X104827007Y-85625925D01*
X104954174Y-85660000D01*
X105085826Y-85660000D01*
X105212993Y-85625925D01*
X105270000Y-85593012D01*
X105270000Y-86438872D01*
X105466317Y-86386269D01*
X105466326Y-86386265D01*
X105672482Y-86290134D01*
X105858820Y-86159657D01*
X106019657Y-85998820D01*
X106150134Y-85812481D01*
X106150135Y-85812479D01*
X106177618Y-85753543D01*
X106223790Y-85701103D01*
X106290983Y-85681951D01*
X106357864Y-85702166D01*
X106402382Y-85753543D01*
X106429864Y-85812479D01*
X106429865Y-85812481D01*
X106560342Y-85998820D01*
X106721179Y-86159657D01*
X106907517Y-86290134D01*
X107113673Y-86386265D01*
X107113682Y-86386269D01*
X107309999Y-86438872D01*
X107310000Y-86438871D01*
X107310000Y-85593012D01*
X107367007Y-85625925D01*
X107494174Y-85660000D01*
X107625826Y-85660000D01*
X107752993Y-85625925D01*
X107810000Y-85593012D01*
X107810000Y-86438872D01*
X108006317Y-86386269D01*
X108006326Y-86386265D01*
X108212482Y-86290134D01*
X108398820Y-86159657D01*
X108559657Y-85998820D01*
X108690132Y-85812484D01*
X108717341Y-85754134D01*
X108763513Y-85701695D01*
X108830707Y-85682542D01*
X108897588Y-85702757D01*
X108942106Y-85754133D01*
X108969431Y-85812732D01*
X108969432Y-85812734D01*
X109099954Y-85999141D01*
X109260858Y-86160045D01*
X109260861Y-86160047D01*
X109447266Y-86290568D01*
X109653504Y-86386739D01*
X109873308Y-86445635D01*
X110035230Y-86459801D01*
X110099998Y-86465468D01*
X110100000Y-86465468D01*
X110100002Y-86465468D01*
X110156807Y-86460498D01*
X110326692Y-86445635D01*
X110546496Y-86386739D01*
X110752734Y-86290568D01*
X110939139Y-86160047D01*
X111100047Y-85999139D01*
X111230568Y-85812734D01*
X111326739Y-85606496D01*
X111385635Y-85386692D01*
X111405468Y-85160000D01*
X111405468Y-85159998D01*
X113874532Y-85159998D01*
X113874532Y-85160001D01*
X113894364Y-85386686D01*
X113894366Y-85386697D01*
X113953258Y-85606488D01*
X113953261Y-85606497D01*
X114049431Y-85812732D01*
X114049432Y-85812734D01*
X114179954Y-85999141D01*
X114340858Y-86160045D01*
X114340861Y-86160047D01*
X114527266Y-86290568D01*
X114733504Y-86386739D01*
X114953308Y-86445635D01*
X115115230Y-86459801D01*
X115179998Y-86465468D01*
X115180000Y-86465468D01*
X115180002Y-86465468D01*
X115236807Y-86460498D01*
X115406692Y-86445635D01*
X115626496Y-86386739D01*
X115832734Y-86290568D01*
X116019139Y-86160047D01*
X116180047Y-85999139D01*
X116310568Y-85812734D01*
X116337618Y-85754724D01*
X116383790Y-85702285D01*
X116450983Y-85683133D01*
X116517865Y-85703348D01*
X116562382Y-85754725D01*
X116589429Y-85812728D01*
X116589432Y-85812734D01*
X116719954Y-85999141D01*
X116880858Y-86160045D01*
X116880861Y-86160047D01*
X117067266Y-86290568D01*
X117273504Y-86386739D01*
X117493308Y-86445635D01*
X117655230Y-86459801D01*
X117719998Y-86465468D01*
X117720000Y-86465468D01*
X117720002Y-86465468D01*
X117776807Y-86460498D01*
X117946692Y-86445635D01*
X118166496Y-86386739D01*
X118372734Y-86290568D01*
X118559139Y-86160047D01*
X118720047Y-85999139D01*
X118850568Y-85812734D01*
X118877618Y-85754724D01*
X118923790Y-85702285D01*
X118990983Y-85683133D01*
X119057865Y-85703348D01*
X119102382Y-85754725D01*
X119129429Y-85812728D01*
X119129432Y-85812734D01*
X119259954Y-85999141D01*
X119420858Y-86160045D01*
X119420861Y-86160047D01*
X119607266Y-86290568D01*
X119813504Y-86386739D01*
X120033308Y-86445635D01*
X120195230Y-86459801D01*
X120259998Y-86465468D01*
X120260000Y-86465468D01*
X120260002Y-86465468D01*
X120316807Y-86460498D01*
X120486692Y-86445635D01*
X120706496Y-86386739D01*
X120912734Y-86290568D01*
X121099139Y-86160047D01*
X121260047Y-85999139D01*
X121390568Y-85812734D01*
X121417618Y-85754724D01*
X121463790Y-85702285D01*
X121530983Y-85683133D01*
X121597865Y-85703348D01*
X121642382Y-85754725D01*
X121669429Y-85812728D01*
X121669432Y-85812734D01*
X121799954Y-85999141D01*
X121960858Y-86160045D01*
X121960861Y-86160047D01*
X122147266Y-86290568D01*
X122353504Y-86386739D01*
X122573308Y-86445635D01*
X122735230Y-86459801D01*
X122799998Y-86465468D01*
X122800000Y-86465468D01*
X122800002Y-86465468D01*
X122856807Y-86460498D01*
X123026692Y-86445635D01*
X123246496Y-86386739D01*
X123452734Y-86290568D01*
X123639139Y-86160047D01*
X123800047Y-85999139D01*
X123930568Y-85812734D01*
X123957618Y-85754724D01*
X124003790Y-85702285D01*
X124070983Y-85683133D01*
X124137865Y-85703348D01*
X124182382Y-85754725D01*
X124209429Y-85812728D01*
X124209432Y-85812734D01*
X124339954Y-85999141D01*
X124500858Y-86160045D01*
X124500861Y-86160047D01*
X124687266Y-86290568D01*
X124893504Y-86386739D01*
X125113308Y-86445635D01*
X125275230Y-86459801D01*
X125339998Y-86465468D01*
X125340000Y-86465468D01*
X125340002Y-86465468D01*
X125396807Y-86460498D01*
X125566692Y-86445635D01*
X125786496Y-86386739D01*
X125992734Y-86290568D01*
X126179139Y-86160047D01*
X126340047Y-85999139D01*
X126470568Y-85812734D01*
X126497618Y-85754724D01*
X126543790Y-85702285D01*
X126610983Y-85683133D01*
X126677865Y-85703348D01*
X126722382Y-85754725D01*
X126749429Y-85812728D01*
X126749432Y-85812734D01*
X126879954Y-85999141D01*
X127040858Y-86160045D01*
X127040861Y-86160047D01*
X127227266Y-86290568D01*
X127433504Y-86386739D01*
X127653308Y-86445635D01*
X127815230Y-86459801D01*
X127879998Y-86465468D01*
X127880000Y-86465468D01*
X127880002Y-86465468D01*
X127936807Y-86460498D01*
X128106692Y-86445635D01*
X128326496Y-86386739D01*
X128532734Y-86290568D01*
X128719139Y-86160047D01*
X128880047Y-85999139D01*
X129010568Y-85812734D01*
X129106739Y-85606496D01*
X129165635Y-85386692D01*
X129185468Y-85160000D01*
X129165635Y-84933308D01*
X129106739Y-84713504D01*
X129010568Y-84507266D01*
X128880047Y-84320861D01*
X128880045Y-84320858D01*
X128719141Y-84159954D01*
X128532734Y-84029432D01*
X128532732Y-84029431D01*
X128326497Y-83933261D01*
X128326488Y-83933258D01*
X128106697Y-83874366D01*
X128106693Y-83874365D01*
X128106692Y-83874365D01*
X128106691Y-83874364D01*
X128106686Y-83874364D01*
X127880002Y-83854532D01*
X127879998Y-83854532D01*
X127653313Y-83874364D01*
X127653302Y-83874366D01*
X127433511Y-83933258D01*
X127433502Y-83933261D01*
X127227267Y-84029431D01*
X127227265Y-84029432D01*
X127040858Y-84159954D01*
X126879954Y-84320858D01*
X126749432Y-84507265D01*
X126749431Y-84507267D01*
X126722382Y-84565275D01*
X126676209Y-84617714D01*
X126609016Y-84636866D01*
X126542135Y-84616650D01*
X126497618Y-84565275D01*
X126470686Y-84507520D01*
X126470568Y-84507266D01*
X126340047Y-84320861D01*
X126340045Y-84320858D01*
X126179141Y-84159954D01*
X125992734Y-84029432D01*
X125992732Y-84029431D01*
X125786497Y-83933261D01*
X125786488Y-83933258D01*
X125566697Y-83874366D01*
X125566693Y-83874365D01*
X125566692Y-83874365D01*
X125566691Y-83874364D01*
X125566686Y-83874364D01*
X125340002Y-83854532D01*
X125339998Y-83854532D01*
X125113313Y-83874364D01*
X125113302Y-83874366D01*
X124893511Y-83933258D01*
X124893502Y-83933261D01*
X124687267Y-84029431D01*
X124687265Y-84029432D01*
X124500858Y-84159954D01*
X124339954Y-84320858D01*
X124209432Y-84507265D01*
X124209431Y-84507267D01*
X124182382Y-84565275D01*
X124136209Y-84617714D01*
X124069016Y-84636866D01*
X124002135Y-84616650D01*
X123957618Y-84565275D01*
X123930686Y-84507520D01*
X123930568Y-84507266D01*
X123800047Y-84320861D01*
X123800045Y-84320858D01*
X123639141Y-84159954D01*
X123452734Y-84029432D01*
X123452732Y-84029431D01*
X123246497Y-83933261D01*
X123246488Y-83933258D01*
X123026697Y-83874366D01*
X123026693Y-83874365D01*
X123026692Y-83874365D01*
X123026691Y-83874364D01*
X123026686Y-83874364D01*
X122800002Y-83854532D01*
X122799998Y-83854532D01*
X122573313Y-83874364D01*
X122573302Y-83874366D01*
X122353511Y-83933258D01*
X122353502Y-83933261D01*
X122147267Y-84029431D01*
X122147265Y-84029432D01*
X121960858Y-84159954D01*
X121799954Y-84320858D01*
X121669432Y-84507265D01*
X121669431Y-84507267D01*
X121642382Y-84565275D01*
X121596209Y-84617714D01*
X121529016Y-84636866D01*
X121462135Y-84616650D01*
X121417618Y-84565275D01*
X121390686Y-84507520D01*
X121390568Y-84507266D01*
X121260047Y-84320861D01*
X121260045Y-84320858D01*
X121099141Y-84159954D01*
X120912734Y-84029432D01*
X120912732Y-84029431D01*
X120706497Y-83933261D01*
X120706488Y-83933258D01*
X120486697Y-83874366D01*
X120486693Y-83874365D01*
X120486692Y-83874365D01*
X120486691Y-83874364D01*
X120486686Y-83874364D01*
X120260002Y-83854532D01*
X120259998Y-83854532D01*
X120033313Y-83874364D01*
X120033302Y-83874366D01*
X119813511Y-83933258D01*
X119813502Y-83933261D01*
X119607267Y-84029431D01*
X119607265Y-84029432D01*
X119420858Y-84159954D01*
X119259954Y-84320858D01*
X119129432Y-84507265D01*
X119129431Y-84507267D01*
X119102382Y-84565275D01*
X119056209Y-84617714D01*
X118989016Y-84636866D01*
X118922135Y-84616650D01*
X118877618Y-84565275D01*
X118850686Y-84507520D01*
X118850568Y-84507266D01*
X118720047Y-84320861D01*
X118720045Y-84320858D01*
X118559141Y-84159954D01*
X118372734Y-84029432D01*
X118372732Y-84029431D01*
X118166497Y-83933261D01*
X118166488Y-83933258D01*
X117946697Y-83874366D01*
X117946693Y-83874365D01*
X117946692Y-83874365D01*
X117946691Y-83874364D01*
X117946686Y-83874364D01*
X117720002Y-83854532D01*
X117719998Y-83854532D01*
X117493313Y-83874364D01*
X117493302Y-83874366D01*
X117273511Y-83933258D01*
X117273502Y-83933261D01*
X117067267Y-84029431D01*
X117067265Y-84029432D01*
X116880858Y-84159954D01*
X116719954Y-84320858D01*
X116589432Y-84507265D01*
X116589431Y-84507267D01*
X116562382Y-84565275D01*
X116516209Y-84617714D01*
X116449016Y-84636866D01*
X116382135Y-84616650D01*
X116337618Y-84565275D01*
X116310686Y-84507520D01*
X116310568Y-84507266D01*
X116180047Y-84320861D01*
X116180045Y-84320858D01*
X116019141Y-84159954D01*
X115832734Y-84029432D01*
X115832732Y-84029431D01*
X115626497Y-83933261D01*
X115626488Y-83933258D01*
X115406697Y-83874366D01*
X115406693Y-83874365D01*
X115406692Y-83874365D01*
X115406691Y-83874364D01*
X115406686Y-83874364D01*
X115180002Y-83854532D01*
X115179998Y-83854532D01*
X114953313Y-83874364D01*
X114953302Y-83874366D01*
X114733511Y-83933258D01*
X114733502Y-83933261D01*
X114527267Y-84029431D01*
X114527265Y-84029432D01*
X114340858Y-84159954D01*
X114179954Y-84320858D01*
X114049432Y-84507265D01*
X114049431Y-84507267D01*
X113953261Y-84713502D01*
X113953258Y-84713511D01*
X113894366Y-84933302D01*
X113894364Y-84933313D01*
X113874532Y-85159998D01*
X111405468Y-85159998D01*
X111385635Y-84933308D01*
X111326739Y-84713504D01*
X111230568Y-84507266D01*
X111100047Y-84320861D01*
X111100045Y-84320858D01*
X110939141Y-84159954D01*
X110752734Y-84029432D01*
X110752732Y-84029431D01*
X110546497Y-83933261D01*
X110546488Y-83933258D01*
X110326697Y-83874366D01*
X110326693Y-83874365D01*
X110326692Y-83874365D01*
X110326691Y-83874364D01*
X110326686Y-83874364D01*
X110100002Y-83854532D01*
X110099998Y-83854532D01*
X109873313Y-83874364D01*
X109873302Y-83874366D01*
X109653511Y-83933258D01*
X109653502Y-83933261D01*
X109447267Y-84029431D01*
X109447265Y-84029432D01*
X109260858Y-84159954D01*
X109099954Y-84320858D01*
X108969433Y-84507264D01*
X108969432Y-84507266D01*
X108969315Y-84507518D01*
X108942106Y-84565867D01*
X108895933Y-84618306D01*
X108828739Y-84637457D01*
X108761858Y-84617241D01*
X108717342Y-84565865D01*
X108690135Y-84507520D01*
X108690134Y-84507518D01*
X108559657Y-84321179D01*
X108398820Y-84160342D01*
X108212482Y-84029865D01*
X108006328Y-83933734D01*
X107810000Y-83881127D01*
X107810000Y-84726988D01*
X107752993Y-84694075D01*
X107625826Y-84660000D01*
X107494174Y-84660000D01*
X107367007Y-84694075D01*
X107310000Y-84726988D01*
X107310000Y-83881127D01*
X107113671Y-83933734D01*
X106907517Y-84029865D01*
X106721179Y-84160342D01*
X106560342Y-84321179D01*
X106429865Y-84507517D01*
X106402382Y-84566457D01*
X106356210Y-84618896D01*
X106289016Y-84638048D01*
X106222135Y-84617832D01*
X106177618Y-84566457D01*
X106150134Y-84507517D01*
X106019657Y-84321179D01*
X105858820Y-84160342D01*
X105672482Y-84029865D01*
X105466328Y-83933734D01*
X105270000Y-83881127D01*
X105270000Y-84726988D01*
X105212993Y-84694075D01*
X105085826Y-84660000D01*
X104954174Y-84660000D01*
X104827007Y-84694075D01*
X104770000Y-84726988D01*
X104770000Y-83881127D01*
X104573671Y-83933734D01*
X104367517Y-84029865D01*
X104181179Y-84160342D01*
X104020342Y-84321179D01*
X103889867Y-84507515D01*
X103862657Y-84565867D01*
X103816484Y-84618306D01*
X103749290Y-84637457D01*
X103682409Y-84617241D01*
X103637893Y-84565865D01*
X103610685Y-84507518D01*
X103610568Y-84507266D01*
X103545307Y-84414063D01*
X103480048Y-84320862D01*
X103411702Y-84252516D01*
X103319139Y-84159953D01*
X103243376Y-84106903D01*
X103199751Y-84052326D01*
X103190500Y-84005328D01*
X103190500Y-83195765D01*
X103210185Y-83128726D01*
X103243377Y-83094190D01*
X103246036Y-83092328D01*
X103324076Y-83037684D01*
X103491170Y-82870590D01*
X103621405Y-82684594D01*
X103675982Y-82640970D01*
X103745480Y-82633776D01*
X103807835Y-82665299D01*
X103824554Y-82684594D01*
X103954565Y-82870267D01*
X104121592Y-83037294D01*
X104315096Y-83172789D01*
X104529182Y-83272618D01*
X104529191Y-83272622D01*
X104742675Y-83329823D01*
X104742675Y-82432201D01*
X104799682Y-82465114D01*
X104926849Y-82499189D01*
X105058501Y-82499189D01*
X105185668Y-82465114D01*
X105242675Y-82432201D01*
X105242675Y-83329822D01*
X105456158Y-83272622D01*
X105456167Y-83272618D01*
X105670253Y-83172789D01*
X105863757Y-83037294D01*
X106030780Y-82870271D01*
X106161100Y-82684157D01*
X106215677Y-82640533D01*
X106285176Y-82633340D01*
X106347530Y-82664862D01*
X106364250Y-82684157D01*
X106494569Y-82870271D01*
X106661592Y-83037294D01*
X106855096Y-83172789D01*
X107069182Y-83272618D01*
X107069191Y-83272622D01*
X107282675Y-83329823D01*
X107282675Y-82432201D01*
X107339682Y-82465114D01*
X107466849Y-82499189D01*
X107598501Y-82499189D01*
X107725668Y-82465114D01*
X107782675Y-82432201D01*
X107782675Y-83329822D01*
X107996158Y-83272622D01*
X107996167Y-83272618D01*
X108210253Y-83172789D01*
X108403757Y-83037294D01*
X108570780Y-82870271D01*
X108700794Y-82684594D01*
X108755371Y-82640970D01*
X108824870Y-82633777D01*
X108887224Y-82665299D01*
X108903944Y-82684594D01*
X109034180Y-82870590D01*
X109201274Y-83037684D01*
X109279314Y-83092328D01*
X109394840Y-83173221D01*
X109394842Y-83173222D01*
X109394845Y-83173224D01*
X109609012Y-83273092D01*
X109609018Y-83273093D01*
X109609019Y-83273094D01*
X109612046Y-83273905D01*
X109837267Y-83334252D01*
X110013709Y-83349689D01*
X110072674Y-83354848D01*
X110072675Y-83354848D01*
X110072676Y-83354848D01*
X110111909Y-83351415D01*
X110308083Y-83334252D01*
X110536338Y-83273092D01*
X110750505Y-83173224D01*
X110944076Y-83037684D01*
X111111170Y-82870590D01*
X111246710Y-82677019D01*
X111346578Y-82462852D01*
X111407738Y-82234597D01*
X111428334Y-81999189D01*
X111407738Y-81763781D01*
X111346578Y-81535526D01*
X111246710Y-81321360D01*
X111241668Y-81314158D01*
X111111169Y-81127786D01*
X111085518Y-81102135D01*
X113792926Y-81102135D01*
X113792926Y-82897870D01*
X113792927Y-82897876D01*
X113799334Y-82957483D01*
X113849628Y-83092328D01*
X113849632Y-83092335D01*
X113935878Y-83207544D01*
X113935881Y-83207547D01*
X114051090Y-83293793D01*
X114051097Y-83293797D01*
X114185943Y-83344091D01*
X114185942Y-83344091D01*
X114192870Y-83344835D01*
X114245553Y-83350500D01*
X116041298Y-83350499D01*
X116100909Y-83344091D01*
X116235757Y-83293796D01*
X116350972Y-83207546D01*
X116437222Y-83092331D01*
X116486236Y-82960916D01*
X116528107Y-82904984D01*
X116593571Y-82880566D01*
X116661844Y-82895417D01*
X116690099Y-82916569D01*
X116812025Y-83038495D01*
X116891566Y-83094190D01*
X117005591Y-83174032D01*
X117005593Y-83174033D01*
X117005596Y-83174035D01*
X117219763Y-83273903D01*
X117448018Y-83335063D01*
X117624460Y-83350500D01*
X117683425Y-83355659D01*
X117683426Y-83355659D01*
X117683427Y-83355659D01*
X117742392Y-83350500D01*
X117918834Y-83335063D01*
X118147089Y-83273903D01*
X118361256Y-83174035D01*
X118554827Y-83038495D01*
X118721921Y-82871401D01*
X118851851Y-82685842D01*
X118906428Y-82642217D01*
X118975926Y-82635023D01*
X119038281Y-82666546D01*
X119055001Y-82685842D01*
X119184926Y-82871395D01*
X119184931Y-82871401D01*
X119352025Y-83038495D01*
X119431566Y-83094190D01*
X119545591Y-83174032D01*
X119545593Y-83174033D01*
X119545596Y-83174035D01*
X119759763Y-83273903D01*
X119988018Y-83335063D01*
X120164460Y-83350500D01*
X120223425Y-83355659D01*
X120223426Y-83355659D01*
X120223427Y-83355659D01*
X120282392Y-83350500D01*
X120458834Y-83335063D01*
X120687089Y-83273903D01*
X120901256Y-83174035D01*
X121094827Y-83038495D01*
X121261921Y-82871401D01*
X121391851Y-82685842D01*
X121446428Y-82642217D01*
X121515926Y-82635023D01*
X121578281Y-82666546D01*
X121595001Y-82685842D01*
X121724926Y-82871395D01*
X121724931Y-82871401D01*
X121892025Y-83038495D01*
X121971566Y-83094190D01*
X122085591Y-83174032D01*
X122085593Y-83174033D01*
X122085596Y-83174035D01*
X122299763Y-83273903D01*
X122528018Y-83335063D01*
X122704460Y-83350500D01*
X122763425Y-83355659D01*
X122763426Y-83355659D01*
X122763427Y-83355659D01*
X122822392Y-83350500D01*
X122998834Y-83335063D01*
X123227089Y-83273903D01*
X123441256Y-83174035D01*
X123634827Y-83038495D01*
X123801921Y-82871401D01*
X123931851Y-82685842D01*
X123986428Y-82642217D01*
X124055926Y-82635023D01*
X124118281Y-82666546D01*
X124135001Y-82685842D01*
X124264926Y-82871395D01*
X124264931Y-82871401D01*
X124432025Y-83038495D01*
X124511566Y-83094190D01*
X124625591Y-83174032D01*
X124625593Y-83174033D01*
X124625596Y-83174035D01*
X124839763Y-83273903D01*
X125068018Y-83335063D01*
X125244460Y-83350500D01*
X125303425Y-83355659D01*
X125303426Y-83355659D01*
X125303427Y-83355659D01*
X125362392Y-83350500D01*
X125538834Y-83335063D01*
X125767089Y-83273903D01*
X125981256Y-83174035D01*
X126174827Y-83038495D01*
X126341921Y-82871401D01*
X126471851Y-82685842D01*
X126526428Y-82642217D01*
X126595926Y-82635023D01*
X126658281Y-82666546D01*
X126675001Y-82685842D01*
X126804926Y-82871395D01*
X126804931Y-82871401D01*
X126972025Y-83038495D01*
X127051566Y-83094190D01*
X127165591Y-83174032D01*
X127165593Y-83174033D01*
X127165596Y-83174035D01*
X127379763Y-83273903D01*
X127608018Y-83335063D01*
X127784460Y-83350500D01*
X127843425Y-83355659D01*
X127843426Y-83355659D01*
X127843427Y-83355659D01*
X127902392Y-83350500D01*
X128078834Y-83335063D01*
X128307089Y-83273903D01*
X128521256Y-83174035D01*
X128714827Y-83038495D01*
X128881921Y-82871401D01*
X129017461Y-82677830D01*
X129117329Y-82463663D01*
X129178489Y-82235408D01*
X129199085Y-82000000D01*
X129178489Y-81764592D01*
X129117329Y-81536337D01*
X129017461Y-81322171D01*
X129016894Y-81321360D01*
X128881920Y-81128597D01*
X128714828Y-80961506D01*
X128714821Y-80961501D01*
X128713668Y-80960694D01*
X128637944Y-80907671D01*
X128521260Y-80825967D01*
X128521256Y-80825965D01*
X128471175Y-80802612D01*
X128307089Y-80726097D01*
X128307085Y-80726096D01*
X128307081Y-80726094D01*
X128078839Y-80664938D01*
X128078829Y-80664936D01*
X127843427Y-80644341D01*
X127843425Y-80644341D01*
X127608022Y-80664936D01*
X127608012Y-80664938D01*
X127379770Y-80726094D01*
X127379761Y-80726098D01*
X127165597Y-80825964D01*
X127165595Y-80825965D01*
X126972023Y-80961505D01*
X126804931Y-81128597D01*
X126675001Y-81314158D01*
X126620424Y-81357783D01*
X126550926Y-81364977D01*
X126488571Y-81333454D01*
X126471851Y-81314158D01*
X126341920Y-81128597D01*
X126174828Y-80961506D01*
X126174821Y-80961501D01*
X126173668Y-80960694D01*
X126097944Y-80907671D01*
X125981260Y-80825967D01*
X125981256Y-80825965D01*
X125931175Y-80802612D01*
X125767089Y-80726097D01*
X125767085Y-80726096D01*
X125767081Y-80726094D01*
X125538839Y-80664938D01*
X125538829Y-80664936D01*
X125303427Y-80644341D01*
X125303425Y-80644341D01*
X125068022Y-80664936D01*
X125068012Y-80664938D01*
X124839770Y-80726094D01*
X124839761Y-80726098D01*
X124625597Y-80825964D01*
X124625595Y-80825965D01*
X124432023Y-80961505D01*
X124264931Y-81128597D01*
X124135001Y-81314158D01*
X124080424Y-81357783D01*
X124010926Y-81364977D01*
X123948571Y-81333454D01*
X123931851Y-81314158D01*
X123801920Y-81128597D01*
X123634828Y-80961506D01*
X123634821Y-80961501D01*
X123633668Y-80960694D01*
X123557944Y-80907671D01*
X123441260Y-80825967D01*
X123441256Y-80825965D01*
X123391175Y-80802612D01*
X123227089Y-80726097D01*
X123227085Y-80726096D01*
X123227081Y-80726094D01*
X122998839Y-80664938D01*
X122998829Y-80664936D01*
X122763427Y-80644341D01*
X122763425Y-80644341D01*
X122528022Y-80664936D01*
X122528012Y-80664938D01*
X122299770Y-80726094D01*
X122299761Y-80726098D01*
X122085597Y-80825964D01*
X122085595Y-80825965D01*
X121892023Y-80961505D01*
X121724931Y-81128597D01*
X121595001Y-81314158D01*
X121540424Y-81357783D01*
X121470926Y-81364977D01*
X121408571Y-81333454D01*
X121391851Y-81314158D01*
X121261920Y-81128597D01*
X121094828Y-80961506D01*
X121094821Y-80961501D01*
X121093668Y-80960694D01*
X121017944Y-80907671D01*
X120901260Y-80825967D01*
X120901256Y-80825965D01*
X120851175Y-80802612D01*
X120687089Y-80726097D01*
X120687085Y-80726096D01*
X120687081Y-80726094D01*
X120458839Y-80664938D01*
X120458829Y-80664936D01*
X120223427Y-80644341D01*
X120223425Y-80644341D01*
X119988022Y-80664936D01*
X119988012Y-80664938D01*
X119759770Y-80726094D01*
X119759761Y-80726098D01*
X119545597Y-80825964D01*
X119545595Y-80825965D01*
X119352023Y-80961505D01*
X119184931Y-81128597D01*
X119055001Y-81314158D01*
X119000424Y-81357783D01*
X118930926Y-81364977D01*
X118868571Y-81333454D01*
X118851851Y-81314158D01*
X118721920Y-81128597D01*
X118554828Y-80961506D01*
X118554821Y-80961501D01*
X118553668Y-80960694D01*
X118477944Y-80907671D01*
X118361260Y-80825967D01*
X118361256Y-80825965D01*
X118311175Y-80802612D01*
X118147089Y-80726097D01*
X118147085Y-80726096D01*
X118147081Y-80726094D01*
X117918839Y-80664938D01*
X117918829Y-80664936D01*
X117683427Y-80644341D01*
X117683425Y-80644341D01*
X117448022Y-80664936D01*
X117448012Y-80664938D01*
X117219770Y-80726094D01*
X117219761Y-80726098D01*
X117005597Y-80825964D01*
X117005595Y-80825965D01*
X116812026Y-80961503D01*
X116690099Y-81083430D01*
X116628776Y-81116914D01*
X116559084Y-81111930D01*
X116503151Y-81070058D01*
X116486236Y-81039081D01*
X116437223Y-80907671D01*
X116437219Y-80907664D01*
X116350973Y-80792455D01*
X116350970Y-80792452D01*
X116235761Y-80706206D01*
X116235754Y-80706202D01*
X116100908Y-80655908D01*
X116100909Y-80655908D01*
X116041309Y-80649501D01*
X116041307Y-80649500D01*
X116041299Y-80649500D01*
X116041290Y-80649500D01*
X114245555Y-80649500D01*
X114245549Y-80649501D01*
X114185942Y-80655908D01*
X114051097Y-80706202D01*
X114051090Y-80706206D01*
X113935881Y-80792452D01*
X113935878Y-80792455D01*
X113849632Y-80907664D01*
X113849628Y-80907671D01*
X113799334Y-81042517D01*
X113792927Y-81102116D01*
X113792926Y-81102135D01*
X111085518Y-81102135D01*
X110944077Y-80960695D01*
X110944070Y-80960690D01*
X110750509Y-80825156D01*
X110750505Y-80825154D01*
X110750503Y-80825153D01*
X110536338Y-80725286D01*
X110536334Y-80725285D01*
X110536330Y-80725283D01*
X110308088Y-80664127D01*
X110308078Y-80664125D01*
X110072676Y-80643530D01*
X110072674Y-80643530D01*
X109837271Y-80664125D01*
X109837261Y-80664127D01*
X109609019Y-80725283D01*
X109609010Y-80725287D01*
X109394846Y-80825153D01*
X109394844Y-80825154D01*
X109201272Y-80960694D01*
X109034183Y-81127783D01*
X108903944Y-81313784D01*
X108849367Y-81357408D01*
X108779868Y-81364601D01*
X108717514Y-81333079D01*
X108700794Y-81313783D01*
X108570788Y-81128115D01*
X108570783Y-81128109D01*
X108403757Y-80961083D01*
X108210253Y-80825588D01*
X107996167Y-80725759D01*
X107996161Y-80725756D01*
X107782675Y-80668553D01*
X107782675Y-81566177D01*
X107725668Y-81533264D01*
X107598501Y-81499189D01*
X107466849Y-81499189D01*
X107339682Y-81533264D01*
X107282675Y-81566177D01*
X107282675Y-80668553D01*
X107282674Y-80668553D01*
X107069188Y-80725756D01*
X107069182Y-80725759D01*
X106855097Y-80825588D01*
X106855095Y-80825589D01*
X106661601Y-80961075D01*
X106661595Y-80961080D01*
X106494566Y-81128109D01*
X106494565Y-81128111D01*
X106364250Y-81314220D01*
X106309673Y-81357844D01*
X106240174Y-81365037D01*
X106177820Y-81333515D01*
X106161100Y-81314220D01*
X106030784Y-81128111D01*
X106030783Y-81128109D01*
X105863757Y-80961083D01*
X105670253Y-80825588D01*
X105456167Y-80725759D01*
X105456161Y-80725756D01*
X105242675Y-80668553D01*
X105242675Y-81566177D01*
X105185668Y-81533264D01*
X105058501Y-81499189D01*
X104926849Y-81499189D01*
X104799682Y-81533264D01*
X104742675Y-81566177D01*
X104742675Y-80668553D01*
X104742674Y-80668553D01*
X104529188Y-80725756D01*
X104529182Y-80725759D01*
X104315097Y-80825588D01*
X104315095Y-80825589D01*
X104121601Y-80961075D01*
X104121595Y-80961080D01*
X103954566Y-81128109D01*
X103954565Y-81128111D01*
X103824555Y-81313784D01*
X103769978Y-81357408D01*
X103700479Y-81364601D01*
X103638125Y-81333079D01*
X103621405Y-81313783D01*
X103491169Y-81127786D01*
X103324079Y-80960697D01*
X103324077Y-80960695D01*
X103324076Y-80960694D01*
X103324071Y-80960690D01*
X103324068Y-80960688D01*
X103243376Y-80904186D01*
X103199751Y-80849609D01*
X103190500Y-80802612D01*
X103190500Y-71522228D01*
X103210185Y-71455189D01*
X103226815Y-71434551D01*
X103808059Y-70853306D01*
X103844132Y-70830657D01*
X103843244Y-70828813D01*
X103849515Y-70825792D01*
X103849516Y-70825790D01*
X103849522Y-70825789D01*
X104002262Y-70729816D01*
X104129816Y-70602262D01*
X104225789Y-70449522D01*
X104225792Y-70449510D01*
X104228810Y-70443248D01*
X104230650Y-70444134D01*
X104253305Y-70408061D01*
X105261367Y-69399999D01*
X114844341Y-69399999D01*
X114844341Y-69400000D01*
X114864936Y-69635403D01*
X114864938Y-69635413D01*
X114926094Y-69863655D01*
X114926096Y-69863659D01*
X114926097Y-69863663D01*
X115010499Y-70044663D01*
X115025965Y-70077830D01*
X115025967Y-70077834D01*
X115101596Y-70185842D01*
X115161505Y-70271401D01*
X115328599Y-70438495D01*
X115425384Y-70506265D01*
X115522165Y-70574032D01*
X115522167Y-70574033D01*
X115522170Y-70574035D01*
X115736337Y-70673903D01*
X115736343Y-70673904D01*
X115736344Y-70673905D01*
X115764999Y-70681583D01*
X115964592Y-70735063D01*
X116141034Y-70750500D01*
X116199999Y-70755659D01*
X116200000Y-70755659D01*
X116200001Y-70755659D01*
X116258966Y-70750500D01*
X116435408Y-70735063D01*
X116663663Y-70673903D01*
X116877830Y-70574035D01*
X117071401Y-70438495D01*
X117193329Y-70316566D01*
X117254648Y-70283084D01*
X117324340Y-70288068D01*
X117380274Y-70329939D01*
X117397189Y-70360917D01*
X117446202Y-70492328D01*
X117446206Y-70492335D01*
X117532452Y-70607544D01*
X117532455Y-70607547D01*
X117647664Y-70693793D01*
X117647671Y-70693797D01*
X117782517Y-70744091D01*
X117782516Y-70744091D01*
X117789444Y-70744835D01*
X117842127Y-70750500D01*
X119637872Y-70750499D01*
X119697483Y-70744091D01*
X119832331Y-70693796D01*
X119947546Y-70607546D01*
X120033796Y-70492331D01*
X120084091Y-70357483D01*
X120090500Y-70297873D01*
X120090499Y-68502128D01*
X120084091Y-68442517D01*
X120082810Y-68439083D01*
X120033797Y-68307671D01*
X120033793Y-68307664D01*
X119947547Y-68192455D01*
X119947544Y-68192452D01*
X119832335Y-68106206D01*
X119832328Y-68106202D01*
X119697482Y-68055908D01*
X119697483Y-68055908D01*
X119637883Y-68049501D01*
X119637881Y-68049500D01*
X119637873Y-68049500D01*
X119637864Y-68049500D01*
X117842129Y-68049500D01*
X117842123Y-68049501D01*
X117782516Y-68055908D01*
X117647671Y-68106202D01*
X117647664Y-68106206D01*
X117532455Y-68192452D01*
X117532452Y-68192455D01*
X117446206Y-68307664D01*
X117446203Y-68307669D01*
X117397189Y-68439083D01*
X117355317Y-68495016D01*
X117289853Y-68519433D01*
X117221580Y-68504581D01*
X117193326Y-68483430D01*
X117071402Y-68361506D01*
X117071395Y-68361501D01*
X116877834Y-68225967D01*
X116877830Y-68225965D01*
X116835457Y-68206206D01*
X116663663Y-68126097D01*
X116663659Y-68126096D01*
X116663655Y-68126094D01*
X116435413Y-68064938D01*
X116435403Y-68064936D01*
X116200001Y-68044341D01*
X116199999Y-68044341D01*
X115964596Y-68064936D01*
X115964586Y-68064938D01*
X115736344Y-68126094D01*
X115736335Y-68126098D01*
X115522171Y-68225964D01*
X115522169Y-68225965D01*
X115328597Y-68361505D01*
X115161505Y-68528597D01*
X115025965Y-68722169D01*
X115025964Y-68722171D01*
X114926098Y-68936335D01*
X114926094Y-68936344D01*
X114864938Y-69164586D01*
X114864936Y-69164596D01*
X114844341Y-69399999D01*
X105261367Y-69399999D01*
X106474548Y-68186819D01*
X106535871Y-68153334D01*
X106562229Y-68150500D01*
X112573920Y-68150500D01*
X112696612Y-68126094D01*
X112718913Y-68121658D01*
X112855495Y-68065084D01*
X112904729Y-68032186D01*
X112978416Y-67982952D01*
X113808059Y-67153306D01*
X113844132Y-67130657D01*
X113843244Y-67128813D01*
X113849515Y-67125792D01*
X113849516Y-67125790D01*
X113849522Y-67125789D01*
X114002262Y-67029816D01*
X114129816Y-66902262D01*
X114225789Y-66749522D01*
X114285368Y-66579255D01*
X114286254Y-66571395D01*
X114305565Y-66400003D01*
X114305565Y-66399996D01*
X114285369Y-66220750D01*
X114285368Y-66220745D01*
X114227986Y-66056758D01*
X114225789Y-66050478D01*
X114129816Y-65897738D01*
X114002262Y-65770184D01*
X113890564Y-65699999D01*
X114844341Y-65699999D01*
X114844341Y-65700000D01*
X114864936Y-65935403D01*
X114864938Y-65935413D01*
X114926094Y-66163655D01*
X114926096Y-66163659D01*
X114926097Y-66163663D01*
X114988368Y-66297203D01*
X115025965Y-66377830D01*
X115025967Y-66377834D01*
X115082694Y-66458848D01*
X115161505Y-66571401D01*
X115328599Y-66738495D01*
X115425384Y-66806265D01*
X115522165Y-66874032D01*
X115522167Y-66874033D01*
X115522170Y-66874035D01*
X115736337Y-66973903D01*
X115964592Y-67035063D01*
X116141034Y-67050500D01*
X116199999Y-67055659D01*
X116200000Y-67055659D01*
X116200001Y-67055659D01*
X116258966Y-67050500D01*
X116435408Y-67035063D01*
X116663663Y-66973903D01*
X116877830Y-66874035D01*
X117071401Y-66738495D01*
X117193329Y-66616566D01*
X117254648Y-66583084D01*
X117324340Y-66588068D01*
X117380274Y-66629939D01*
X117397189Y-66660917D01*
X117446202Y-66792328D01*
X117446206Y-66792335D01*
X117532452Y-66907544D01*
X117532455Y-66907547D01*
X117647664Y-66993793D01*
X117647671Y-66993797D01*
X117782517Y-67044091D01*
X117782516Y-67044091D01*
X117789444Y-67044835D01*
X117842127Y-67050500D01*
X119637872Y-67050499D01*
X119697483Y-67044091D01*
X119832331Y-66993796D01*
X119947546Y-66907546D01*
X120033796Y-66792331D01*
X120084091Y-66657483D01*
X120090500Y-66597873D01*
X120090499Y-64802128D01*
X120084091Y-64742517D01*
X120082810Y-64739083D01*
X120033797Y-64607671D01*
X120033793Y-64607664D01*
X119947547Y-64492455D01*
X119947544Y-64492452D01*
X119832335Y-64406206D01*
X119832328Y-64406202D01*
X119697482Y-64355908D01*
X119697483Y-64355908D01*
X119637883Y-64349501D01*
X119637881Y-64349500D01*
X119637873Y-64349500D01*
X119637864Y-64349500D01*
X117842129Y-64349500D01*
X117842123Y-64349501D01*
X117782516Y-64355908D01*
X117647671Y-64406202D01*
X117647664Y-64406206D01*
X117532455Y-64492452D01*
X117532452Y-64492455D01*
X117446206Y-64607664D01*
X117446203Y-64607669D01*
X117397189Y-64739083D01*
X117355317Y-64795016D01*
X117289853Y-64819433D01*
X117221580Y-64804581D01*
X117193326Y-64783430D01*
X117071402Y-64661506D01*
X117071395Y-64661501D01*
X116877834Y-64525967D01*
X116877830Y-64525965D01*
X116877828Y-64525964D01*
X116663663Y-64426097D01*
X116663659Y-64426096D01*
X116663655Y-64426094D01*
X116435413Y-64364938D01*
X116435403Y-64364936D01*
X116200001Y-64344341D01*
X116199999Y-64344341D01*
X115964596Y-64364936D01*
X115964586Y-64364938D01*
X115736344Y-64426094D01*
X115736335Y-64426098D01*
X115522171Y-64525964D01*
X115522169Y-64525965D01*
X115328597Y-64661505D01*
X115161505Y-64828597D01*
X115025965Y-65022169D01*
X115025964Y-65022171D01*
X114926098Y-65236335D01*
X114926094Y-65236344D01*
X114864938Y-65464586D01*
X114864936Y-65464596D01*
X114844341Y-65699999D01*
X113890564Y-65699999D01*
X113849523Y-65674211D01*
X113679254Y-65614631D01*
X113679249Y-65614630D01*
X113500004Y-65594435D01*
X113499996Y-65594435D01*
X113320750Y-65614630D01*
X113320745Y-65614631D01*
X113150476Y-65674211D01*
X112997737Y-65770184D01*
X112870184Y-65897737D01*
X112774208Y-66050483D01*
X112771186Y-66056758D01*
X112769361Y-66055878D01*
X112746692Y-66091939D01*
X112225451Y-66613181D01*
X112164128Y-66646666D01*
X112137770Y-66649500D01*
X106126076Y-66649500D01*
X106097242Y-66655234D01*
X106097243Y-66655235D01*
X105981093Y-66678339D01*
X105981089Y-66678340D01*
X105917880Y-66704523D01*
X105844506Y-66734915D01*
X105844504Y-66734916D01*
X105822644Y-66749521D01*
X105822645Y-66749522D01*
X105721582Y-66817049D01*
X105721579Y-66817052D01*
X103191937Y-69346693D01*
X103155873Y-69369370D01*
X103156750Y-69371191D01*
X103150475Y-69374212D01*
X102997737Y-69470184D01*
X102870184Y-69597737D01*
X102774208Y-69750483D01*
X102771186Y-69756758D01*
X102769361Y-69755878D01*
X102746692Y-69791939D01*
X101857048Y-70681583D01*
X101839703Y-70707544D01*
X101817630Y-70740579D01*
X101774919Y-70804499D01*
X101774912Y-70804511D01*
X101718343Y-70941082D01*
X101718340Y-70941092D01*
X101689500Y-71086079D01*
X101689500Y-80820362D01*
X101669815Y-80887401D01*
X101636626Y-80921935D01*
X101581272Y-80960695D01*
X101414180Y-81127786D01*
X101284250Y-81313347D01*
X101229673Y-81356972D01*
X101160175Y-81364166D01*
X101097820Y-81332643D01*
X101081100Y-81313347D01*
X100951169Y-81127786D01*
X100784077Y-80960695D01*
X100784070Y-80960690D01*
X100590509Y-80825156D01*
X100590505Y-80825154D01*
X100590503Y-80825153D01*
X100376338Y-80725286D01*
X100376334Y-80725285D01*
X100376330Y-80725283D01*
X100148088Y-80664127D01*
X100148078Y-80664125D01*
X99912676Y-80643530D01*
X99912674Y-80643530D01*
X99677271Y-80664125D01*
X99677261Y-80664127D01*
X99449019Y-80725283D01*
X99449010Y-80725287D01*
X99234846Y-80825153D01*
X99234844Y-80825154D01*
X99041272Y-80960694D01*
X98874180Y-81127786D01*
X98744250Y-81313347D01*
X98689673Y-81356972D01*
X98620175Y-81364166D01*
X98557820Y-81332643D01*
X98541100Y-81313347D01*
X98411169Y-81127786D01*
X98244077Y-80960695D01*
X98244070Y-80960690D01*
X98050509Y-80825156D01*
X98050505Y-80825154D01*
X98050503Y-80825153D01*
X97836338Y-80725286D01*
X97836334Y-80725285D01*
X97836330Y-80725283D01*
X97608088Y-80664127D01*
X97608078Y-80664125D01*
X97372676Y-80643530D01*
X97372674Y-80643530D01*
X97137271Y-80664125D01*
X97137261Y-80664127D01*
X96909019Y-80725283D01*
X96909010Y-80725287D01*
X96694846Y-80825153D01*
X96694844Y-80825154D01*
X96501272Y-80960694D01*
X96334180Y-81127786D01*
X96204250Y-81313347D01*
X96149673Y-81356972D01*
X96080175Y-81364166D01*
X96017820Y-81332643D01*
X96001100Y-81313347D01*
X95871169Y-81127786D01*
X95704077Y-80960695D01*
X95704070Y-80960690D01*
X95510509Y-80825156D01*
X95510505Y-80825154D01*
X95510503Y-80825153D01*
X95296338Y-80725286D01*
X95296334Y-80725285D01*
X95296330Y-80725283D01*
X95068088Y-80664127D01*
X95068078Y-80664125D01*
X94832676Y-80643530D01*
X94832674Y-80643530D01*
X94597271Y-80664125D01*
X94597261Y-80664127D01*
X94369019Y-80725283D01*
X94369010Y-80725287D01*
X94154846Y-80825153D01*
X94154844Y-80825154D01*
X93961275Y-80960692D01*
X93839348Y-81082619D01*
X93778025Y-81116103D01*
X93708333Y-81111119D01*
X93652400Y-81069247D01*
X93635485Y-81038270D01*
X93586472Y-80906860D01*
X93586468Y-80906853D01*
X93500222Y-80791644D01*
X93500219Y-80791641D01*
X93385010Y-80705395D01*
X93385003Y-80705391D01*
X93250157Y-80655097D01*
X93250158Y-80655097D01*
X93190558Y-80648690D01*
X93190556Y-80648689D01*
X93190548Y-80648689D01*
X93190539Y-80648689D01*
X91394804Y-80648689D01*
X91394798Y-80648690D01*
X91335191Y-80655097D01*
X91200346Y-80705391D01*
X91200339Y-80705395D01*
X91085130Y-80791641D01*
X91085127Y-80791644D01*
X90998881Y-80906853D01*
X90998877Y-80906860D01*
X90948583Y-81041706D01*
X90942176Y-81101305D01*
X90942175Y-81101324D01*
X64600500Y-81101324D01*
X64600500Y-72499999D01*
X66469357Y-72499999D01*
X66469357Y-72500000D01*
X66489884Y-72721535D01*
X66489885Y-72721537D01*
X66550769Y-72935523D01*
X66550775Y-72935538D01*
X66649938Y-73134683D01*
X66649943Y-73134691D01*
X66784020Y-73312238D01*
X66948437Y-73462123D01*
X66948439Y-73462125D01*
X67137595Y-73579245D01*
X67137596Y-73579245D01*
X67137599Y-73579247D01*
X67345060Y-73659618D01*
X67563757Y-73700500D01*
X67563759Y-73700500D01*
X67786241Y-73700500D01*
X67786243Y-73700500D01*
X68004940Y-73659618D01*
X68212401Y-73579247D01*
X68401562Y-73462124D01*
X68565981Y-73312236D01*
X68700058Y-73134689D01*
X68799229Y-72935528D01*
X68860115Y-72721536D01*
X68880643Y-72500000D01*
X68860115Y-72278464D01*
X68799229Y-72064472D01*
X68799224Y-72064461D01*
X68700061Y-71865316D01*
X68700056Y-71865308D01*
X68565979Y-71687761D01*
X68401562Y-71537876D01*
X68401560Y-71537874D01*
X68212404Y-71420754D01*
X68212398Y-71420752D01*
X68004940Y-71340382D01*
X67786243Y-71299500D01*
X67563757Y-71299500D01*
X67345060Y-71340382D01*
X67213864Y-71391207D01*
X67137601Y-71420752D01*
X67137595Y-71420754D01*
X66948439Y-71537874D01*
X66948437Y-71537876D01*
X66784020Y-71687761D01*
X66649943Y-71865308D01*
X66649938Y-71865316D01*
X66550775Y-72064461D01*
X66550769Y-72064476D01*
X66489885Y-72278462D01*
X66489884Y-72278464D01*
X66469357Y-72499999D01*
X64600500Y-72499999D01*
X64600500Y-69499992D01*
X75419671Y-69499992D01*
X75419671Y-69500007D01*
X75438964Y-69794363D01*
X75438965Y-69794373D01*
X75438966Y-69794380D01*
X75472636Y-69963655D01*
X75496518Y-70083716D01*
X75496521Y-70083730D01*
X75591349Y-70363080D01*
X75721825Y-70627660D01*
X75721829Y-70627667D01*
X75885725Y-70872955D01*
X76080241Y-71094758D01*
X76302044Y-71289274D01*
X76498818Y-71420754D01*
X76547335Y-71453172D01*
X76811923Y-71583652D01*
X77091278Y-71678481D01*
X77380620Y-71736034D01*
X77408888Y-71737886D01*
X77674993Y-71755329D01*
X77675000Y-71755329D01*
X77675007Y-71755329D01*
X77910675Y-71739881D01*
X77969380Y-71736034D01*
X78258722Y-71678481D01*
X78538077Y-71583652D01*
X78802665Y-71453172D01*
X79047957Y-71289273D01*
X79269758Y-71094758D01*
X79464273Y-70872957D01*
X79628172Y-70627665D01*
X79758652Y-70363077D01*
X79853481Y-70083722D01*
X79911034Y-69794380D01*
X79914900Y-69735403D01*
X79930329Y-69500007D01*
X79930329Y-69499992D01*
X79911035Y-69205636D01*
X79911034Y-69205620D01*
X79853481Y-68916278D01*
X79758652Y-68636923D01*
X79741496Y-68602135D01*
X80424500Y-68602135D01*
X80424500Y-70397870D01*
X80424501Y-70397876D01*
X80430908Y-70457483D01*
X80481202Y-70592328D01*
X80481206Y-70592335D01*
X80567452Y-70707544D01*
X80567455Y-70707547D01*
X80682664Y-70793793D01*
X80682671Y-70793797D01*
X80817517Y-70844091D01*
X80817516Y-70844091D01*
X80824444Y-70844835D01*
X80877127Y-70850500D01*
X82672872Y-70850499D01*
X82732483Y-70844091D01*
X82867331Y-70793796D01*
X82982546Y-70707546D01*
X83068796Y-70592331D01*
X83117810Y-70460916D01*
X83159681Y-70404984D01*
X83225145Y-70380566D01*
X83293418Y-70395417D01*
X83321673Y-70416569D01*
X83443599Y-70538495D01*
X83534668Y-70602262D01*
X83637165Y-70674032D01*
X83637167Y-70674033D01*
X83637170Y-70674035D01*
X83851337Y-70773903D01*
X84079592Y-70835063D01*
X84256034Y-70850500D01*
X84314999Y-70855659D01*
X84315000Y-70855659D01*
X84315001Y-70855659D01*
X84373966Y-70850500D01*
X84550408Y-70835063D01*
X84778663Y-70773903D01*
X84992830Y-70674035D01*
X85186401Y-70538495D01*
X85353495Y-70371401D01*
X85483425Y-70185842D01*
X85538002Y-70142217D01*
X85607500Y-70135023D01*
X85669855Y-70166546D01*
X85686575Y-70185842D01*
X85816500Y-70371395D01*
X85816505Y-70371401D01*
X85983599Y-70538495D01*
X86074668Y-70602262D01*
X86177165Y-70674032D01*
X86177167Y-70674033D01*
X86177170Y-70674035D01*
X86391337Y-70773903D01*
X86619592Y-70835063D01*
X86796034Y-70850500D01*
X86854999Y-70855659D01*
X86855000Y-70855659D01*
X86855001Y-70855659D01*
X86913966Y-70850500D01*
X87090408Y-70835063D01*
X87318663Y-70773903D01*
X87532830Y-70674035D01*
X87726401Y-70538495D01*
X87893495Y-70371401D01*
X88029035Y-70177830D01*
X88128903Y-69963663D01*
X88190063Y-69735408D01*
X88210659Y-69500000D01*
X88190063Y-69264592D01*
X88128903Y-69036337D01*
X88029035Y-68822171D01*
X88023425Y-68814158D01*
X87893494Y-68628597D01*
X87726402Y-68461506D01*
X87726395Y-68461501D01*
X87532834Y-68325967D01*
X87532830Y-68325965D01*
X87532828Y-68325964D01*
X87318663Y-68226097D01*
X87318659Y-68226096D01*
X87318655Y-68226094D01*
X87090413Y-68164938D01*
X87090403Y-68164936D01*
X86855001Y-68144341D01*
X86854999Y-68144341D01*
X86619596Y-68164936D01*
X86619586Y-68164938D01*
X86391344Y-68226094D01*
X86391335Y-68226098D01*
X86177171Y-68325964D01*
X86177169Y-68325965D01*
X85983597Y-68461505D01*
X85816505Y-68628597D01*
X85686575Y-68814158D01*
X85631998Y-68857783D01*
X85562500Y-68864977D01*
X85500145Y-68833454D01*
X85483425Y-68814158D01*
X85353494Y-68628597D01*
X85186402Y-68461506D01*
X85186395Y-68461501D01*
X84992834Y-68325967D01*
X84992830Y-68325965D01*
X84992828Y-68325964D01*
X84778663Y-68226097D01*
X84778659Y-68226096D01*
X84778655Y-68226094D01*
X84550413Y-68164938D01*
X84550403Y-68164936D01*
X84315001Y-68144341D01*
X84314999Y-68144341D01*
X84079596Y-68164936D01*
X84079586Y-68164938D01*
X83851344Y-68226094D01*
X83851335Y-68226098D01*
X83637171Y-68325964D01*
X83637169Y-68325965D01*
X83443600Y-68461503D01*
X83321673Y-68583430D01*
X83260350Y-68616914D01*
X83190658Y-68611930D01*
X83134725Y-68570058D01*
X83117810Y-68539081D01*
X83068797Y-68407671D01*
X83068793Y-68407664D01*
X82982547Y-68292455D01*
X82982544Y-68292452D01*
X82867335Y-68206206D01*
X82867328Y-68206202D01*
X82732482Y-68155908D01*
X82732483Y-68155908D01*
X82672883Y-68149501D01*
X82672881Y-68149500D01*
X82672873Y-68149500D01*
X82672864Y-68149500D01*
X80877129Y-68149500D01*
X80877123Y-68149501D01*
X80817516Y-68155908D01*
X80682671Y-68206202D01*
X80682664Y-68206206D01*
X80567455Y-68292452D01*
X80567452Y-68292455D01*
X80481206Y-68407664D01*
X80481202Y-68407671D01*
X80430908Y-68542517D01*
X80424501Y-68602116D01*
X80424500Y-68602135D01*
X79741496Y-68602135D01*
X79628172Y-68372336D01*
X79620932Y-68361501D01*
X79530459Y-68226098D01*
X79464273Y-68127043D01*
X79396270Y-68049501D01*
X79269758Y-67905241D01*
X79047955Y-67710725D01*
X78802667Y-67546829D01*
X78802660Y-67546825D01*
X78538080Y-67416349D01*
X78258730Y-67321521D01*
X78258724Y-67321519D01*
X78258722Y-67321519D01*
X77969380Y-67263966D01*
X77969373Y-67263965D01*
X77969363Y-67263964D01*
X77675007Y-67244671D01*
X77674993Y-67244671D01*
X77380636Y-67263964D01*
X77380624Y-67263965D01*
X77380620Y-67263966D01*
X77380612Y-67263967D01*
X77380609Y-67263968D01*
X77091283Y-67321518D01*
X77091269Y-67321521D01*
X76811919Y-67416349D01*
X76547334Y-67546828D01*
X76302041Y-67710728D01*
X76080241Y-67905241D01*
X75885728Y-68127041D01*
X75721828Y-68372334D01*
X75591349Y-68636919D01*
X75496521Y-68916269D01*
X75496518Y-68916283D01*
X75438968Y-69205609D01*
X75438964Y-69205636D01*
X75419671Y-69499992D01*
X64600500Y-69499992D01*
X64600500Y-63454773D01*
X75425000Y-63454773D01*
X75425000Y-64250000D01*
X76756116Y-64250000D01*
X76725000Y-64406433D01*
X76725000Y-64593567D01*
X76756116Y-64750000D01*
X75425001Y-64750000D01*
X75425001Y-65545227D01*
X75435566Y-65679474D01*
X75491423Y-65901152D01*
X75585962Y-66109287D01*
X75585967Y-66109296D01*
X75716151Y-66297203D01*
X75877796Y-66458848D01*
X76065703Y-66589032D01*
X76065712Y-66589037D01*
X76273847Y-66683576D01*
X76495525Y-66739433D01*
X76629780Y-66749999D01*
X77424999Y-66749999D01*
X77425000Y-66749998D01*
X77425000Y-65418883D01*
X77581433Y-65450000D01*
X77768567Y-65450000D01*
X77925000Y-65418883D01*
X77925000Y-66749999D01*
X78720212Y-66749999D01*
X78720227Y-66749998D01*
X78854474Y-66739433D01*
X79076152Y-66683576D01*
X79284287Y-66589037D01*
X79284296Y-66589032D01*
X79472203Y-66458848D01*
X79633848Y-66297203D01*
X79764032Y-66109296D01*
X79764037Y-66109287D01*
X79858576Y-65901152D01*
X79914433Y-65679474D01*
X79924999Y-65545226D01*
X79925000Y-65545213D01*
X79925000Y-64750000D01*
X78593884Y-64750000D01*
X78625000Y-64593567D01*
X78625000Y-64406433D01*
X78593884Y-64250000D01*
X79924999Y-64250000D01*
X79924999Y-63454787D01*
X79924998Y-63454772D01*
X79914433Y-63320525D01*
X79858576Y-63098847D01*
X79764037Y-62890712D01*
X79764032Y-62890703D01*
X79633848Y-62702796D01*
X79472203Y-62541151D01*
X79284296Y-62410967D01*
X79284287Y-62410962D01*
X79076152Y-62316423D01*
X78854474Y-62260566D01*
X78720226Y-62250000D01*
X77925000Y-62250000D01*
X77925000Y-63581116D01*
X77768567Y-63550000D01*
X77581433Y-63550000D01*
X77425000Y-63581116D01*
X77425000Y-62250000D01*
X76629787Y-62250000D01*
X76629772Y-62250001D01*
X76495525Y-62260566D01*
X76273847Y-62316423D01*
X76065712Y-62410962D01*
X76065703Y-62410967D01*
X75877796Y-62541151D01*
X75716151Y-62702796D01*
X75585967Y-62890703D01*
X75585962Y-62890712D01*
X75491423Y-63098847D01*
X75435566Y-63320525D01*
X75425000Y-63454773D01*
X64600500Y-63454773D01*
X64600500Y-61499999D01*
X66469357Y-61499999D01*
X66469357Y-61500000D01*
X66489884Y-61721535D01*
X66489885Y-61721537D01*
X66550769Y-61935523D01*
X66550775Y-61935538D01*
X66649938Y-62134683D01*
X66649943Y-62134691D01*
X66784020Y-62312238D01*
X66948437Y-62462123D01*
X66948439Y-62462125D01*
X67137595Y-62579245D01*
X67137596Y-62579245D01*
X67137599Y-62579247D01*
X67345060Y-62659618D01*
X67563757Y-62700500D01*
X67563759Y-62700500D01*
X67786241Y-62700500D01*
X67786243Y-62700500D01*
X68004940Y-62659618D01*
X68212401Y-62579247D01*
X68401562Y-62462124D01*
X68565981Y-62312236D01*
X68700058Y-62134689D01*
X68754677Y-62024999D01*
X114844341Y-62024999D01*
X114844341Y-62025000D01*
X114864936Y-62260403D01*
X114864938Y-62260413D01*
X114926094Y-62488655D01*
X114926096Y-62488659D01*
X114926097Y-62488663D01*
X114968337Y-62579247D01*
X115025965Y-62702830D01*
X115025967Y-62702834D01*
X115134281Y-62857521D01*
X115161505Y-62896401D01*
X115328599Y-63063495D01*
X115425384Y-63131265D01*
X115522165Y-63199032D01*
X115522167Y-63199033D01*
X115522170Y-63199035D01*
X115736337Y-63298903D01*
X115964592Y-63360063D01*
X116141034Y-63375500D01*
X116199999Y-63380659D01*
X116200000Y-63380659D01*
X116200001Y-63380659D01*
X116258966Y-63375500D01*
X116435408Y-63360063D01*
X116663663Y-63298903D01*
X116877830Y-63199035D01*
X117071401Y-63063495D01*
X117193329Y-62941566D01*
X117254648Y-62908084D01*
X117324340Y-62913068D01*
X117380274Y-62954939D01*
X117397189Y-62985917D01*
X117446202Y-63117328D01*
X117446206Y-63117335D01*
X117532452Y-63232544D01*
X117532455Y-63232547D01*
X117647664Y-63318793D01*
X117647671Y-63318797D01*
X117782517Y-63369091D01*
X117782516Y-63369091D01*
X117789444Y-63369835D01*
X117842127Y-63375500D01*
X119637872Y-63375499D01*
X119697483Y-63369091D01*
X119832331Y-63318796D01*
X119947546Y-63232546D01*
X120033796Y-63117331D01*
X120084091Y-62982483D01*
X120090500Y-62922873D01*
X120090499Y-61127128D01*
X120084091Y-61067517D01*
X120082955Y-61064472D01*
X120033797Y-60932671D01*
X120033793Y-60932664D01*
X119947547Y-60817455D01*
X119947544Y-60817452D01*
X119832335Y-60731206D01*
X119832328Y-60731202D01*
X119697482Y-60680908D01*
X119697483Y-60680908D01*
X119637883Y-60674501D01*
X119637881Y-60674500D01*
X119637873Y-60674500D01*
X119637864Y-60674500D01*
X117842129Y-60674500D01*
X117842123Y-60674501D01*
X117782516Y-60680908D01*
X117647671Y-60731202D01*
X117647664Y-60731206D01*
X117532455Y-60817452D01*
X117532452Y-60817455D01*
X117446206Y-60932664D01*
X117446203Y-60932669D01*
X117397189Y-61064083D01*
X117355317Y-61120016D01*
X117289853Y-61144433D01*
X117221580Y-61129581D01*
X117193326Y-61108430D01*
X117071402Y-60986506D01*
X117071395Y-60986501D01*
X116877834Y-60850967D01*
X116877830Y-60850965D01*
X116877828Y-60850964D01*
X116663663Y-60751097D01*
X116663659Y-60751096D01*
X116663655Y-60751094D01*
X116435413Y-60689938D01*
X116435403Y-60689936D01*
X116200001Y-60669341D01*
X116199999Y-60669341D01*
X115964596Y-60689936D01*
X115964586Y-60689938D01*
X115736344Y-60751094D01*
X115736335Y-60751098D01*
X115522171Y-60850964D01*
X115522169Y-60850965D01*
X115328597Y-60986505D01*
X115161505Y-61153597D01*
X115025965Y-61347169D01*
X115025964Y-61347171D01*
X114926098Y-61561335D01*
X114926094Y-61561344D01*
X114864938Y-61789586D01*
X114864936Y-61789596D01*
X114844341Y-62024999D01*
X68754677Y-62024999D01*
X68799229Y-61935528D01*
X68860115Y-61721536D01*
X68880643Y-61500000D01*
X68860115Y-61278464D01*
X68799229Y-61064472D01*
X68799224Y-61064461D01*
X68700061Y-60865316D01*
X68700056Y-60865308D01*
X68565979Y-60687761D01*
X68401562Y-60537876D01*
X68401560Y-60537874D01*
X68212404Y-60420754D01*
X68212398Y-60420752D01*
X68004940Y-60340382D01*
X67786243Y-60299500D01*
X67563757Y-60299500D01*
X67345060Y-60340382D01*
X67272681Y-60368422D01*
X67137601Y-60420752D01*
X67137595Y-60420754D01*
X66948439Y-60537874D01*
X66948437Y-60537876D01*
X66784020Y-60687761D01*
X66649943Y-60865308D01*
X66649938Y-60865316D01*
X66550775Y-61064461D01*
X66550769Y-61064476D01*
X66489885Y-61278462D01*
X66489884Y-61278464D01*
X66469357Y-61499999D01*
X64600500Y-61499999D01*
X64600500Y-39111031D01*
X81786557Y-39111031D01*
X81786557Y-40906766D01*
X81786558Y-40906772D01*
X81792965Y-40966379D01*
X81843259Y-41101224D01*
X81843263Y-41101231D01*
X81929509Y-41216440D01*
X81929512Y-41216443D01*
X82044721Y-41302689D01*
X82044728Y-41302693D01*
X82179574Y-41352987D01*
X82179573Y-41352987D01*
X82186501Y-41353731D01*
X82239184Y-41359396D01*
X84034929Y-41359395D01*
X84094540Y-41352987D01*
X84229388Y-41302692D01*
X84344603Y-41216442D01*
X84430853Y-41101227D01*
X84479867Y-40969812D01*
X84521738Y-40913880D01*
X84587202Y-40889462D01*
X84655475Y-40904313D01*
X84683730Y-40925465D01*
X84805656Y-41047391D01*
X84902441Y-41115161D01*
X84999222Y-41182928D01*
X84999224Y-41182929D01*
X84999227Y-41182931D01*
X85213394Y-41282799D01*
X85213400Y-41282800D01*
X85213401Y-41282801D01*
X85268342Y-41297522D01*
X85441649Y-41343959D01*
X85618091Y-41359396D01*
X85677056Y-41364555D01*
X85677057Y-41364555D01*
X85677058Y-41364555D01*
X85736023Y-41359396D01*
X85912465Y-41343959D01*
X86140720Y-41282799D01*
X86354887Y-41182931D01*
X86548458Y-41047391D01*
X86715552Y-40880297D01*
X86845482Y-40694738D01*
X86900059Y-40651113D01*
X86969557Y-40643919D01*
X87031912Y-40675442D01*
X87048632Y-40694738D01*
X87178557Y-40880291D01*
X87178562Y-40880297D01*
X87345656Y-41047391D01*
X87442441Y-41115161D01*
X87539222Y-41182928D01*
X87539224Y-41182929D01*
X87539227Y-41182931D01*
X87753394Y-41282799D01*
X87753400Y-41282800D01*
X87753401Y-41282801D01*
X87808342Y-41297522D01*
X87981649Y-41343959D01*
X88158091Y-41359396D01*
X88217056Y-41364555D01*
X88217057Y-41364555D01*
X88217058Y-41364555D01*
X88276023Y-41359396D01*
X88452465Y-41343959D01*
X88680720Y-41282799D01*
X88894887Y-41182931D01*
X89088458Y-41047391D01*
X89255552Y-40880297D01*
X89385787Y-40694301D01*
X89440364Y-40650677D01*
X89509862Y-40643483D01*
X89572217Y-40675006D01*
X89588936Y-40694301D01*
X89718947Y-40879974D01*
X89885974Y-41047001D01*
X90079478Y-41182496D01*
X90293564Y-41282325D01*
X90293573Y-41282329D01*
X90507057Y-41339530D01*
X90507057Y-40441908D01*
X90564064Y-40474821D01*
X90691231Y-40508896D01*
X90822883Y-40508896D01*
X90950050Y-40474821D01*
X91007057Y-40441908D01*
X91007057Y-41339529D01*
X91220540Y-41282329D01*
X91220549Y-41282325D01*
X91434635Y-41182496D01*
X91628139Y-41047001D01*
X91795162Y-40879978D01*
X91925176Y-40694301D01*
X91979753Y-40650677D01*
X92049252Y-40643484D01*
X92111606Y-40675006D01*
X92128326Y-40694301D01*
X92258562Y-40880297D01*
X92425656Y-41047391D01*
X92522441Y-41115161D01*
X92619222Y-41182928D01*
X92619224Y-41182929D01*
X92619227Y-41182931D01*
X92833394Y-41282799D01*
X92833400Y-41282800D01*
X92833401Y-41282801D01*
X92888342Y-41297522D01*
X93061649Y-41343959D01*
X93238091Y-41359396D01*
X93297056Y-41364555D01*
X93297057Y-41364555D01*
X93297058Y-41364555D01*
X93356023Y-41359396D01*
X93532465Y-41343959D01*
X93660814Y-41309568D01*
X93730663Y-41311231D01*
X93780588Y-41341662D01*
X95163560Y-42724635D01*
X96940238Y-44501313D01*
X96973723Y-44562636D01*
X96976557Y-44588994D01*
X96976557Y-49621759D01*
X96976556Y-49621777D01*
X96976556Y-49787483D01*
X96976555Y-49787483D01*
X97017480Y-49940214D01*
X97032306Y-49965893D01*
X97032305Y-49965893D01*
X97032306Y-49965894D01*
X97096532Y-50077138D01*
X97096538Y-50077146D01*
X97215406Y-50196014D01*
X97215412Y-50196019D01*
X104543912Y-57524520D01*
X104577397Y-57585843D01*
X104573273Y-57653155D01*
X104514632Y-57820742D01*
X104514630Y-57820750D01*
X104494435Y-57999996D01*
X104494435Y-58000003D01*
X104514630Y-58179249D01*
X104514631Y-58179254D01*
X104574211Y-58349523D01*
X104656264Y-58480109D01*
X104670184Y-58502262D01*
X104797738Y-58629816D01*
X104950478Y-58725789D01*
X105120745Y-58785368D01*
X105120750Y-58785369D01*
X105299996Y-58805565D01*
X105300000Y-58805565D01*
X105300004Y-58805565D01*
X105479249Y-58785369D01*
X105479252Y-58785368D01*
X105479255Y-58785368D01*
X105649522Y-58725789D01*
X105802262Y-58629816D01*
X105920900Y-58511177D01*
X105982219Y-58477695D01*
X106051911Y-58482679D01*
X106096259Y-58511180D01*
X107763181Y-60178102D01*
X107796666Y-60239425D01*
X107799500Y-60265783D01*
X107799500Y-60317587D01*
X107779815Y-60384626D01*
X107772450Y-60394896D01*
X107770186Y-60397734D01*
X107674211Y-60550476D01*
X107614631Y-60720745D01*
X107614630Y-60720750D01*
X107594435Y-60899996D01*
X107594435Y-60900003D01*
X107614630Y-61079249D01*
X107614631Y-61079254D01*
X107674211Y-61249523D01*
X107692395Y-61278462D01*
X107770184Y-61402262D01*
X107897738Y-61529816D01*
X108050478Y-61625789D01*
X108220745Y-61685368D01*
X108220750Y-61685369D01*
X108399996Y-61705565D01*
X108400000Y-61705565D01*
X108400004Y-61705565D01*
X108579249Y-61685369D01*
X108579252Y-61685368D01*
X108579255Y-61685368D01*
X108749522Y-61625789D01*
X108902262Y-61529816D01*
X109029816Y-61402262D01*
X109125789Y-61249522D01*
X109185368Y-61079255D01*
X109186691Y-61067516D01*
X109205565Y-60900003D01*
X109205565Y-60899996D01*
X109185369Y-60720750D01*
X109185368Y-60720745D01*
X109171428Y-60680908D01*
X109125789Y-60550478D01*
X109117869Y-60537874D01*
X109044277Y-60420753D01*
X109029816Y-60397738D01*
X109029814Y-60397736D01*
X109029813Y-60397734D01*
X109027550Y-60394896D01*
X109026659Y-60392715D01*
X109026111Y-60391842D01*
X109026264Y-60391745D01*
X109001144Y-60330209D01*
X109000500Y-60317587D01*
X109000500Y-59886631D01*
X109000500Y-59886629D01*
X108959577Y-59733902D01*
X108948074Y-59713978D01*
X108931601Y-59646078D01*
X108954454Y-59580051D01*
X108967769Y-59564308D01*
X109029816Y-59502262D01*
X109125789Y-59349522D01*
X109185014Y-59180266D01*
X111135785Y-59180266D01*
X111294556Y-59235824D01*
X111462496Y-59254746D01*
X111462504Y-59254746D01*
X111630443Y-59235824D01*
X111789213Y-59180267D01*
X111789214Y-59180266D01*
X113135785Y-59180266D01*
X113294556Y-59235824D01*
X113462496Y-59254746D01*
X113462504Y-59254746D01*
X113630443Y-59235824D01*
X113789213Y-59180267D01*
X113789214Y-59180266D01*
X113462501Y-58853553D01*
X113462500Y-58853553D01*
X113135785Y-59180266D01*
X111789214Y-59180266D01*
X111462501Y-58853553D01*
X111462500Y-58853553D01*
X111135785Y-59180266D01*
X109185014Y-59180266D01*
X109185368Y-59179255D01*
X109199875Y-59050500D01*
X109205565Y-59000003D01*
X109205565Y-58999996D01*
X109185369Y-58820750D01*
X109185368Y-58820745D01*
X109175427Y-58792335D01*
X109125789Y-58650478D01*
X109031235Y-58499996D01*
X110707754Y-58499996D01*
X110707754Y-58500003D01*
X110726675Y-58667938D01*
X110726676Y-58667943D01*
X110782232Y-58826714D01*
X111108947Y-58500000D01*
X111089056Y-58480109D01*
X111362500Y-58480109D01*
X111362500Y-58519891D01*
X111377724Y-58556645D01*
X111405855Y-58584776D01*
X111442609Y-58600000D01*
X111482391Y-58600000D01*
X111519145Y-58584776D01*
X111547276Y-58556645D01*
X111562500Y-58519891D01*
X111562500Y-58499999D01*
X111816053Y-58499999D01*
X111816053Y-58500001D01*
X112142766Y-58826714D01*
X112142767Y-58826713D01*
X112198324Y-58667943D01*
X112217246Y-58500003D01*
X112217246Y-58499996D01*
X112707754Y-58499996D01*
X112707754Y-58500003D01*
X112726675Y-58667938D01*
X112726676Y-58667943D01*
X112782232Y-58826714D01*
X113108947Y-58500000D01*
X113089056Y-58480109D01*
X113362500Y-58480109D01*
X113362500Y-58519891D01*
X113377724Y-58556645D01*
X113405855Y-58584776D01*
X113442609Y-58600000D01*
X113482391Y-58600000D01*
X113519145Y-58584776D01*
X113547276Y-58556645D01*
X113562500Y-58519891D01*
X113562500Y-58499999D01*
X113816053Y-58499999D01*
X113816053Y-58500001D01*
X114142766Y-58826714D01*
X114142767Y-58826713D01*
X114198324Y-58667943D01*
X114217246Y-58500003D01*
X114217246Y-58499996D01*
X114198324Y-58332056D01*
X114142766Y-58173285D01*
X113816053Y-58499999D01*
X113562500Y-58499999D01*
X113562500Y-58480109D01*
X113547276Y-58443355D01*
X113519145Y-58415224D01*
X113482391Y-58400000D01*
X113442609Y-58400000D01*
X113405855Y-58415224D01*
X113377724Y-58443355D01*
X113362500Y-58480109D01*
X113089056Y-58480109D01*
X112782232Y-58173285D01*
X112726676Y-58332053D01*
X112726675Y-58332058D01*
X112707754Y-58499996D01*
X112217246Y-58499996D01*
X112198324Y-58332056D01*
X112142766Y-58173285D01*
X111816053Y-58499999D01*
X111562500Y-58499999D01*
X111562500Y-58480109D01*
X111547276Y-58443355D01*
X111519145Y-58415224D01*
X111482391Y-58400000D01*
X111442609Y-58400000D01*
X111405855Y-58415224D01*
X111377724Y-58443355D01*
X111362500Y-58480109D01*
X111089056Y-58480109D01*
X110782232Y-58173285D01*
X110726676Y-58332053D01*
X110726675Y-58332058D01*
X110707754Y-58499996D01*
X109031235Y-58499996D01*
X109029816Y-58497738D01*
X108902262Y-58370184D01*
X108841577Y-58332053D01*
X108749523Y-58274211D01*
X108579254Y-58214631D01*
X108579249Y-58214630D01*
X108400004Y-58194435D01*
X108399996Y-58194435D01*
X108220746Y-58214631D01*
X108220745Y-58214631D01*
X108178072Y-58229563D01*
X108108294Y-58233124D01*
X108049438Y-58200202D01*
X107668968Y-57819732D01*
X111135785Y-57819732D01*
X111462500Y-58146447D01*
X111462501Y-58146447D01*
X111789214Y-57819732D01*
X113135785Y-57819732D01*
X113462500Y-58146447D01*
X113462501Y-58146447D01*
X113789214Y-57819732D01*
X113630443Y-57764176D01*
X113630438Y-57764175D01*
X113462504Y-57745254D01*
X113462496Y-57745254D01*
X113294558Y-57764175D01*
X113294553Y-57764176D01*
X113135785Y-57819732D01*
X111789214Y-57819732D01*
X111630443Y-57764176D01*
X111630438Y-57764175D01*
X111462504Y-57745254D01*
X111462496Y-57745254D01*
X111294558Y-57764175D01*
X111294553Y-57764176D01*
X111135785Y-57819732D01*
X107668968Y-57819732D01*
X107285722Y-57436486D01*
X107252237Y-57375163D01*
X107257221Y-57305471D01*
X107299093Y-57249538D01*
X107332450Y-57231763D01*
X107336927Y-57230195D01*
X107349522Y-57225789D01*
X107421971Y-57180266D01*
X111135785Y-57180266D01*
X111294556Y-57235824D01*
X111462496Y-57254746D01*
X111462504Y-57254746D01*
X111630443Y-57235824D01*
X111789213Y-57180267D01*
X111789214Y-57180266D01*
X113135785Y-57180266D01*
X113294556Y-57235824D01*
X113462496Y-57254746D01*
X113462504Y-57254746D01*
X113630443Y-57235824D01*
X113789213Y-57180267D01*
X113789214Y-57180266D01*
X113462501Y-56853553D01*
X113462500Y-56853553D01*
X113135785Y-57180266D01*
X111789214Y-57180266D01*
X111462501Y-56853553D01*
X111462500Y-56853553D01*
X111135785Y-57180266D01*
X107421971Y-57180266D01*
X107502262Y-57129816D01*
X107629816Y-57002262D01*
X107725789Y-56849522D01*
X107785368Y-56679255D01*
X107805565Y-56500000D01*
X107805565Y-56499996D01*
X110707754Y-56499996D01*
X110707754Y-56500003D01*
X110726675Y-56667938D01*
X110726676Y-56667943D01*
X110782232Y-56826714D01*
X111108947Y-56500000D01*
X111089056Y-56480109D01*
X111362500Y-56480109D01*
X111362500Y-56519891D01*
X111377724Y-56556645D01*
X111405855Y-56584776D01*
X111442609Y-56600000D01*
X111482391Y-56600000D01*
X111519145Y-56584776D01*
X111547276Y-56556645D01*
X111562500Y-56519891D01*
X111562500Y-56499999D01*
X111816053Y-56499999D01*
X111816053Y-56500001D01*
X112142766Y-56826714D01*
X112142767Y-56826713D01*
X112198324Y-56667943D01*
X112217246Y-56500003D01*
X112217246Y-56499996D01*
X112707754Y-56499996D01*
X112707754Y-56500003D01*
X112726675Y-56667938D01*
X112726676Y-56667943D01*
X112782232Y-56826714D01*
X113108947Y-56500000D01*
X113089056Y-56480109D01*
X113362500Y-56480109D01*
X113362500Y-56519891D01*
X113377724Y-56556645D01*
X113405855Y-56584776D01*
X113442609Y-56600000D01*
X113482391Y-56600000D01*
X113519145Y-56584776D01*
X113547276Y-56556645D01*
X113562500Y-56519891D01*
X113562500Y-56499999D01*
X113816053Y-56499999D01*
X113816053Y-56500001D01*
X114142766Y-56826714D01*
X114142767Y-56826713D01*
X114198324Y-56667943D01*
X114217246Y-56500003D01*
X114217246Y-56499996D01*
X114198324Y-56332056D01*
X114142766Y-56173285D01*
X113816053Y-56499999D01*
X113562500Y-56499999D01*
X113562500Y-56480109D01*
X113547276Y-56443355D01*
X113519145Y-56415224D01*
X113482391Y-56400000D01*
X113442609Y-56400000D01*
X113405855Y-56415224D01*
X113377724Y-56443355D01*
X113362500Y-56480109D01*
X113089056Y-56480109D01*
X112782232Y-56173285D01*
X112726676Y-56332053D01*
X112726675Y-56332058D01*
X112707754Y-56499996D01*
X112217246Y-56499996D01*
X112198324Y-56332056D01*
X112142766Y-56173285D01*
X111816053Y-56499999D01*
X111562500Y-56499999D01*
X111562500Y-56480109D01*
X111547276Y-56443355D01*
X111519145Y-56415224D01*
X111482391Y-56400000D01*
X111442609Y-56400000D01*
X111405855Y-56415224D01*
X111377724Y-56443355D01*
X111362500Y-56480109D01*
X111089056Y-56480109D01*
X110782232Y-56173285D01*
X110726676Y-56332053D01*
X110726675Y-56332058D01*
X110707754Y-56499996D01*
X107805565Y-56499996D01*
X107796013Y-56415224D01*
X107785369Y-56320750D01*
X107785368Y-56320745D01*
X107725789Y-56150478D01*
X107629816Y-55997738D01*
X107502262Y-55870184D01*
X107491117Y-55863181D01*
X107421969Y-55819732D01*
X111135785Y-55819732D01*
X111462500Y-56146447D01*
X111462501Y-56146447D01*
X111789214Y-55819732D01*
X113135785Y-55819732D01*
X113462500Y-56146447D01*
X113462501Y-56146447D01*
X113789214Y-55819732D01*
X113630443Y-55764176D01*
X113630438Y-55764175D01*
X113462504Y-55745254D01*
X113462496Y-55745254D01*
X113294558Y-55764175D01*
X113294553Y-55764176D01*
X113135785Y-55819732D01*
X111789214Y-55819732D01*
X111630443Y-55764176D01*
X111630438Y-55764175D01*
X111462504Y-55745254D01*
X111462496Y-55745254D01*
X111294558Y-55764175D01*
X111294553Y-55764176D01*
X111135785Y-55819732D01*
X107421969Y-55819732D01*
X107349523Y-55774211D01*
X107179254Y-55714631D01*
X107179249Y-55714630D01*
X107000004Y-55694435D01*
X106999996Y-55694435D01*
X106820750Y-55714630D01*
X106820745Y-55714631D01*
X106650476Y-55774211D01*
X106497736Y-55870185D01*
X106494903Y-55872445D01*
X106492724Y-55873334D01*
X106491842Y-55873889D01*
X106491744Y-55873734D01*
X106430217Y-55898855D01*
X106417588Y-55899500D01*
X106365783Y-55899500D01*
X106298744Y-55879815D01*
X106278102Y-55863181D01*
X103414920Y-52999999D01*
X114844341Y-52999999D01*
X114844341Y-53000000D01*
X114864936Y-53235403D01*
X114864938Y-53235413D01*
X114926094Y-53463655D01*
X114926096Y-53463659D01*
X114926097Y-53463663D01*
X114987734Y-53595843D01*
X115025965Y-53677830D01*
X115025967Y-53677834D01*
X115134281Y-53832521D01*
X115161505Y-53871401D01*
X115328599Y-54038495D01*
X115422370Y-54104154D01*
X115522165Y-54174032D01*
X115522167Y-54174033D01*
X115522170Y-54174035D01*
X115736337Y-54273903D01*
X115964592Y-54335063D01*
X116141034Y-54350500D01*
X116199999Y-54355659D01*
X116200000Y-54355659D01*
X116200001Y-54355659D01*
X116258966Y-54350500D01*
X116435408Y-54335063D01*
X116663663Y-54273903D01*
X116877830Y-54174035D01*
X117071401Y-54038495D01*
X117193329Y-53916566D01*
X117254648Y-53883084D01*
X117324340Y-53888068D01*
X117380274Y-53929939D01*
X117397189Y-53960917D01*
X117446202Y-54092328D01*
X117446206Y-54092335D01*
X117532452Y-54207544D01*
X117532455Y-54207547D01*
X117647664Y-54293793D01*
X117647671Y-54293797D01*
X117782517Y-54344091D01*
X117782516Y-54344091D01*
X117789444Y-54344835D01*
X117842127Y-54350500D01*
X119637872Y-54350499D01*
X119697483Y-54344091D01*
X119832331Y-54293796D01*
X119947546Y-54207546D01*
X120033796Y-54092331D01*
X120084091Y-53957483D01*
X120090500Y-53897873D01*
X120090500Y-53849995D01*
X127194732Y-53849995D01*
X127194732Y-53850004D01*
X127213777Y-54104154D01*
X127270003Y-54350498D01*
X127270492Y-54352637D01*
X127363607Y-54589888D01*
X127491041Y-54810612D01*
X127649950Y-55009877D01*
X127836783Y-55183232D01*
X128047366Y-55326805D01*
X128047371Y-55326807D01*
X128047372Y-55326808D01*
X128047373Y-55326809D01*
X128172126Y-55386886D01*
X128227972Y-55413780D01*
X128279832Y-55460602D01*
X128298145Y-55528029D01*
X128277097Y-55594653D01*
X128223371Y-55639321D01*
X128174171Y-55649500D01*
X127652129Y-55649500D01*
X127652123Y-55649501D01*
X127592516Y-55655908D01*
X127457671Y-55706202D01*
X127457664Y-55706206D01*
X127342455Y-55792452D01*
X127342452Y-55792455D01*
X127256206Y-55907664D01*
X127256202Y-55907671D01*
X127205908Y-56042517D01*
X127199501Y-56102116D01*
X127199501Y-56102123D01*
X127199500Y-56102135D01*
X127199500Y-58597870D01*
X127199501Y-58597876D01*
X127205908Y-58657483D01*
X127256202Y-58792328D01*
X127256206Y-58792335D01*
X127342452Y-58907544D01*
X127342455Y-58907547D01*
X127457664Y-58993793D01*
X127457671Y-58993797D01*
X127592517Y-59044091D01*
X127592516Y-59044091D01*
X127599444Y-59044835D01*
X127652127Y-59050500D01*
X130147872Y-59050499D01*
X130207483Y-59044091D01*
X130342331Y-58993796D01*
X130457546Y-58907546D01*
X130543796Y-58792331D01*
X130594091Y-58657483D01*
X130600500Y-58597873D01*
X130600499Y-56102128D01*
X130594091Y-56042517D01*
X130543796Y-55907669D01*
X130543795Y-55907668D01*
X130543793Y-55907664D01*
X130457547Y-55792455D01*
X130457544Y-55792452D01*
X130342335Y-55706206D01*
X130342328Y-55706202D01*
X130207482Y-55655908D01*
X130207483Y-55655908D01*
X130147883Y-55649501D01*
X130147881Y-55649500D01*
X130147873Y-55649500D01*
X130147865Y-55649500D01*
X129625829Y-55649500D01*
X129558790Y-55629815D01*
X129513035Y-55577011D01*
X129503091Y-55507853D01*
X129532116Y-55444297D01*
X129572027Y-55413780D01*
X129752634Y-55326805D01*
X129963217Y-55183232D01*
X130150050Y-55009877D01*
X130308959Y-54810612D01*
X130436393Y-54589888D01*
X130529508Y-54352637D01*
X130586222Y-54104157D01*
X130596956Y-53960917D01*
X130605268Y-53850004D01*
X130605268Y-53849995D01*
X130586222Y-53595845D01*
X130556052Y-53463663D01*
X130529508Y-53347363D01*
X130436393Y-53110112D01*
X130308959Y-52889388D01*
X130150050Y-52690123D01*
X129963217Y-52516768D01*
X129752634Y-52373195D01*
X129752630Y-52373193D01*
X129752627Y-52373191D01*
X129752626Y-52373190D01*
X129523006Y-52262612D01*
X129523008Y-52262612D01*
X129279466Y-52187489D01*
X129279462Y-52187488D01*
X129279458Y-52187487D01*
X129158231Y-52169214D01*
X129027440Y-52149500D01*
X129027435Y-52149500D01*
X128772565Y-52149500D01*
X128772559Y-52149500D01*
X128615609Y-52173157D01*
X128520542Y-52187487D01*
X128520539Y-52187488D01*
X128520533Y-52187489D01*
X128276992Y-52262612D01*
X128047373Y-52373190D01*
X128047372Y-52373191D01*
X127836782Y-52516768D01*
X127649952Y-52690121D01*
X127649950Y-52690123D01*
X127491041Y-52889388D01*
X127363608Y-53110109D01*
X127270492Y-53347362D01*
X127270490Y-53347369D01*
X127213777Y-53595845D01*
X127194732Y-53849995D01*
X120090500Y-53849995D01*
X120090499Y-52102128D01*
X120084091Y-52042517D01*
X120082810Y-52039083D01*
X120033797Y-51907671D01*
X120033793Y-51907664D01*
X119947547Y-51792455D01*
X119947544Y-51792452D01*
X119832335Y-51706206D01*
X119832328Y-51706202D01*
X119697482Y-51655908D01*
X119697483Y-51655908D01*
X119637883Y-51649501D01*
X119637881Y-51649500D01*
X119637873Y-51649500D01*
X119637864Y-51649500D01*
X117842129Y-51649500D01*
X117842123Y-51649501D01*
X117782516Y-51655908D01*
X117647671Y-51706202D01*
X117647664Y-51706206D01*
X117532455Y-51792452D01*
X117532452Y-51792455D01*
X117446206Y-51907664D01*
X117446203Y-51907669D01*
X117397189Y-52039083D01*
X117355317Y-52095016D01*
X117289853Y-52119433D01*
X117221580Y-52104581D01*
X117193326Y-52083430D01*
X117071402Y-51961506D01*
X117071395Y-51961501D01*
X116877834Y-51825967D01*
X116877830Y-51825965D01*
X116877828Y-51825964D01*
X116663663Y-51726097D01*
X116663659Y-51726096D01*
X116663655Y-51726094D01*
X116435413Y-51664938D01*
X116435403Y-51664936D01*
X116200001Y-51644341D01*
X116199999Y-51644341D01*
X115964596Y-51664936D01*
X115964586Y-51664938D01*
X115736344Y-51726094D01*
X115736335Y-51726098D01*
X115522171Y-51825964D01*
X115522169Y-51825965D01*
X115328597Y-51961505D01*
X115161505Y-52128597D01*
X115025965Y-52322169D01*
X115025964Y-52322171D01*
X114926098Y-52536335D01*
X114926094Y-52536344D01*
X114864938Y-52764586D01*
X114864936Y-52764596D01*
X114844341Y-52999999D01*
X103414920Y-52999999D01*
X99714920Y-49299999D01*
X114844341Y-49299999D01*
X114844341Y-49300000D01*
X114864936Y-49535403D01*
X114864938Y-49535413D01*
X114926094Y-49763655D01*
X114926096Y-49763659D01*
X114926097Y-49763663D01*
X114937206Y-49787486D01*
X115025965Y-49977830D01*
X115025967Y-49977834D01*
X115091200Y-50070995D01*
X115161505Y-50171401D01*
X115328599Y-50338495D01*
X115425384Y-50406265D01*
X115522165Y-50474032D01*
X115522167Y-50474033D01*
X115522170Y-50474035D01*
X115736337Y-50573903D01*
X115964592Y-50635063D01*
X116141034Y-50650500D01*
X116199999Y-50655659D01*
X116200000Y-50655659D01*
X116200001Y-50655659D01*
X116258966Y-50650500D01*
X116435408Y-50635063D01*
X116663663Y-50573903D01*
X116877830Y-50474035D01*
X117071401Y-50338495D01*
X117193329Y-50216566D01*
X117254648Y-50183084D01*
X117324340Y-50188068D01*
X117380274Y-50229939D01*
X117397189Y-50260917D01*
X117446202Y-50392328D01*
X117446206Y-50392335D01*
X117532452Y-50507544D01*
X117532455Y-50507547D01*
X117647664Y-50593793D01*
X117647671Y-50593797D01*
X117782517Y-50644091D01*
X117782516Y-50644091D01*
X117789444Y-50644835D01*
X117842127Y-50650500D01*
X119637872Y-50650499D01*
X119697483Y-50644091D01*
X119832331Y-50593796D01*
X119947546Y-50507546D01*
X120033796Y-50392331D01*
X120084091Y-50257483D01*
X120090500Y-50197873D01*
X120090499Y-48402128D01*
X120084091Y-48342517D01*
X120082810Y-48339083D01*
X120033797Y-48207671D01*
X120033793Y-48207664D01*
X119947547Y-48092455D01*
X119947544Y-48092452D01*
X119832335Y-48006206D01*
X119832328Y-48006202D01*
X119697482Y-47955908D01*
X119697483Y-47955908D01*
X119637883Y-47949501D01*
X119637881Y-47949500D01*
X119637873Y-47949500D01*
X119637864Y-47949500D01*
X117842129Y-47949500D01*
X117842123Y-47949501D01*
X117782516Y-47955908D01*
X117647671Y-48006202D01*
X117647664Y-48006206D01*
X117532455Y-48092452D01*
X117532452Y-48092455D01*
X117446206Y-48207664D01*
X117446203Y-48207669D01*
X117397189Y-48339083D01*
X117355317Y-48395016D01*
X117289853Y-48419433D01*
X117221580Y-48404581D01*
X117193326Y-48383430D01*
X117071402Y-48261506D01*
X117071395Y-48261501D01*
X116877834Y-48125967D01*
X116877830Y-48125965D01*
X116877828Y-48125964D01*
X116663663Y-48026097D01*
X116663659Y-48026096D01*
X116663655Y-48026094D01*
X116435413Y-47964938D01*
X116435403Y-47964936D01*
X116200001Y-47944341D01*
X116199999Y-47944341D01*
X115964596Y-47964936D01*
X115964586Y-47964938D01*
X115736344Y-48026094D01*
X115736335Y-48026098D01*
X115522171Y-48125964D01*
X115522169Y-48125965D01*
X115328597Y-48261505D01*
X115161505Y-48428597D01*
X115025965Y-48622169D01*
X115025964Y-48622171D01*
X114926098Y-48836335D01*
X114926094Y-48836344D01*
X114864938Y-49064586D01*
X114864936Y-49064596D01*
X114844341Y-49299999D01*
X99714920Y-49299999D01*
X99416819Y-49001898D01*
X99383334Y-48940575D01*
X99380500Y-48914217D01*
X99380500Y-45794348D01*
X100492393Y-45794348D01*
X100492393Y-45991437D01*
X100530840Y-46184721D01*
X100530842Y-46184729D01*
X100606260Y-46366803D01*
X100606265Y-46366813D01*
X100715753Y-46530673D01*
X100715756Y-46530677D01*
X100855108Y-46670029D01*
X100855112Y-46670032D01*
X101018972Y-46779520D01*
X101018976Y-46779522D01*
X101018979Y-46779524D01*
X101201057Y-46854944D01*
X101394348Y-46893392D01*
X101394351Y-46893393D01*
X101394353Y-46893393D01*
X101591435Y-46893393D01*
X101591436Y-46893392D01*
X101784729Y-46854944D01*
X101966807Y-46779524D01*
X102130674Y-46670032D01*
X102963887Y-45836819D01*
X103025210Y-45803334D01*
X103051568Y-45800500D01*
X107098543Y-45800500D01*
X107228582Y-45774632D01*
X107291835Y-45762051D01*
X107473914Y-45686632D01*
X107603570Y-45599999D01*
X114844341Y-45599999D01*
X114844341Y-45600000D01*
X114864936Y-45835403D01*
X114864938Y-45835413D01*
X114926094Y-46063655D01*
X114926096Y-46063659D01*
X114926097Y-46063663D01*
X114982551Y-46184729D01*
X115025965Y-46277830D01*
X115025967Y-46277834D01*
X115134281Y-46432521D01*
X115161505Y-46471401D01*
X115328599Y-46638495D01*
X115425384Y-46706265D01*
X115522165Y-46774032D01*
X115522167Y-46774033D01*
X115522170Y-46774035D01*
X115736337Y-46873903D01*
X115964592Y-46935063D01*
X116141034Y-46950500D01*
X116199999Y-46955659D01*
X116200000Y-46955659D01*
X116200001Y-46955659D01*
X116258966Y-46950500D01*
X116435408Y-46935063D01*
X116663663Y-46873903D01*
X116877830Y-46774035D01*
X117071401Y-46638495D01*
X117193329Y-46516566D01*
X117254648Y-46483084D01*
X117324340Y-46488068D01*
X117380274Y-46529939D01*
X117397189Y-46560917D01*
X117446202Y-46692328D01*
X117446206Y-46692335D01*
X117532452Y-46807544D01*
X117532455Y-46807547D01*
X117647664Y-46893793D01*
X117647671Y-46893797D01*
X117782517Y-46944091D01*
X117782516Y-46944091D01*
X117789444Y-46944835D01*
X117842127Y-46950500D01*
X119637872Y-46950499D01*
X119697483Y-46944091D01*
X119832331Y-46893796D01*
X119947546Y-46807546D01*
X120033796Y-46692331D01*
X120084091Y-46557483D01*
X120090500Y-46497873D01*
X120090499Y-44702128D01*
X120084091Y-44642517D01*
X120082810Y-44639083D01*
X120033797Y-44507671D01*
X120033793Y-44507664D01*
X119947547Y-44392455D01*
X119947544Y-44392452D01*
X119832335Y-44306206D01*
X119832328Y-44306202D01*
X119697482Y-44255908D01*
X119697483Y-44255908D01*
X119637883Y-44249501D01*
X119637881Y-44249500D01*
X119637873Y-44249500D01*
X119637864Y-44249500D01*
X117842129Y-44249500D01*
X117842123Y-44249501D01*
X117782516Y-44255908D01*
X117647671Y-44306202D01*
X117647664Y-44306206D01*
X117532455Y-44392452D01*
X117532452Y-44392455D01*
X117446206Y-44507664D01*
X117446203Y-44507669D01*
X117397189Y-44639083D01*
X117355317Y-44695016D01*
X117289853Y-44719433D01*
X117221580Y-44704581D01*
X117193326Y-44683430D01*
X117071402Y-44561506D01*
X117071395Y-44561501D01*
X116877834Y-44425967D01*
X116877830Y-44425965D01*
X116877828Y-44425964D01*
X116663663Y-44326097D01*
X116663659Y-44326096D01*
X116663655Y-44326094D01*
X116435413Y-44264938D01*
X116435403Y-44264936D01*
X116200001Y-44244341D01*
X116199999Y-44244341D01*
X115964596Y-44264936D01*
X115964586Y-44264938D01*
X115736344Y-44326094D01*
X115736335Y-44326098D01*
X115522171Y-44425964D01*
X115522169Y-44425965D01*
X115328597Y-44561505D01*
X115161505Y-44728597D01*
X115025965Y-44922169D01*
X115025964Y-44922171D01*
X114926098Y-45136335D01*
X114926094Y-45136344D01*
X114864938Y-45364586D01*
X114864936Y-45364596D01*
X114844341Y-45599999D01*
X107603570Y-45599999D01*
X107637782Y-45577139D01*
X107777139Y-45437782D01*
X107886632Y-45273914D01*
X107962051Y-45091835D01*
X108000500Y-44898541D01*
X108000500Y-44701459D01*
X108000500Y-44701456D01*
X107962052Y-44508170D01*
X107962051Y-44508169D01*
X107962051Y-44508165D01*
X107961846Y-44507669D01*
X107886635Y-44326092D01*
X107886628Y-44326079D01*
X107777139Y-44162218D01*
X107777136Y-44162214D01*
X107637785Y-44022863D01*
X107637781Y-44022860D01*
X107473920Y-43913371D01*
X107473907Y-43913364D01*
X107291839Y-43837950D01*
X107291829Y-43837947D01*
X107098543Y-43799500D01*
X107098541Y-43799500D01*
X106498541Y-43799500D01*
X103598541Y-43799500D01*
X102487245Y-43799500D01*
X102487244Y-43799500D01*
X102464931Y-43803938D01*
X102442618Y-43808377D01*
X102442617Y-43808377D01*
X102293953Y-43837947D01*
X102293945Y-43837950D01*
X102240620Y-43860037D01*
X102240620Y-43860038D01*
X102195101Y-43878892D01*
X102111875Y-43913366D01*
X102111865Y-43913371D01*
X101948005Y-44022859D01*
X101878326Y-44092538D01*
X101808647Y-44162218D01*
X100715756Y-45255108D01*
X100715753Y-45255112D01*
X100606265Y-45418972D01*
X100606260Y-45418982D01*
X100530842Y-45601056D01*
X100530840Y-45601064D01*
X100492393Y-45794348D01*
X99380500Y-45794348D01*
X99380500Y-42446049D01*
X99400185Y-42379010D01*
X99416814Y-42358372D01*
X100433527Y-41341659D01*
X100494848Y-41308176D01*
X100553295Y-41309566D01*
X100681649Y-41343959D01*
X100858091Y-41359396D01*
X100917056Y-41364555D01*
X100917057Y-41364555D01*
X100917058Y-41364555D01*
X100976023Y-41359396D01*
X101152465Y-41343959D01*
X101380720Y-41282799D01*
X101594887Y-41182931D01*
X101788458Y-41047391D01*
X101955552Y-40880297D01*
X102085482Y-40694738D01*
X102140059Y-40651113D01*
X102209557Y-40643919D01*
X102271912Y-40675442D01*
X102288632Y-40694738D01*
X102418557Y-40880291D01*
X102418562Y-40880297D01*
X102585656Y-41047391D01*
X102682441Y-41115161D01*
X102779222Y-41182928D01*
X102779224Y-41182929D01*
X102779227Y-41182931D01*
X102993394Y-41282799D01*
X102993400Y-41282800D01*
X102993401Y-41282801D01*
X103048342Y-41297522D01*
X103221649Y-41343959D01*
X103398091Y-41359396D01*
X103457056Y-41364555D01*
X103457057Y-41364555D01*
X103457058Y-41364555D01*
X103516023Y-41359396D01*
X103692465Y-41343959D01*
X103920720Y-41282799D01*
X104134887Y-41182931D01*
X104328458Y-41047391D01*
X104495552Y-40880297D01*
X104625482Y-40694738D01*
X104680059Y-40651113D01*
X104749557Y-40643919D01*
X104811912Y-40675442D01*
X104828632Y-40694738D01*
X104958557Y-40880291D01*
X104958562Y-40880297D01*
X105125656Y-41047391D01*
X105222441Y-41115161D01*
X105319222Y-41182928D01*
X105319224Y-41182929D01*
X105319227Y-41182931D01*
X105533394Y-41282799D01*
X105533400Y-41282800D01*
X105533401Y-41282801D01*
X105588342Y-41297522D01*
X105761649Y-41343959D01*
X105938091Y-41359396D01*
X105997056Y-41364555D01*
X105997057Y-41364555D01*
X105997058Y-41364555D01*
X106056023Y-41359396D01*
X106232465Y-41343959D01*
X106460720Y-41282799D01*
X106674887Y-41182931D01*
X106868458Y-41047391D01*
X107035552Y-40880297D01*
X107171092Y-40686726D01*
X107270960Y-40472559D01*
X107332120Y-40244304D01*
X107352716Y-40008896D01*
X107332120Y-39773488D01*
X107270960Y-39545233D01*
X107171092Y-39331067D01*
X107165788Y-39323491D01*
X107035551Y-39137493D01*
X107000193Y-39102135D01*
X108712321Y-39102135D01*
X108712321Y-40897870D01*
X108712322Y-40897876D01*
X108718729Y-40957483D01*
X108769023Y-41092328D01*
X108769027Y-41092335D01*
X108855273Y-41207544D01*
X108855276Y-41207547D01*
X108970485Y-41293793D01*
X108970492Y-41293797D01*
X109105338Y-41344091D01*
X109105337Y-41344091D01*
X109112265Y-41344835D01*
X109164948Y-41350500D01*
X110960693Y-41350499D01*
X111020304Y-41344091D01*
X111155152Y-41293796D01*
X111270367Y-41207546D01*
X111356617Y-41092331D01*
X111405631Y-40960916D01*
X111447502Y-40904984D01*
X111512966Y-40880566D01*
X111581239Y-40895417D01*
X111609494Y-40916569D01*
X111731420Y-41038495D01*
X111821016Y-41101231D01*
X111924986Y-41174032D01*
X111924988Y-41174033D01*
X111924991Y-41174035D01*
X112139158Y-41273903D01*
X112139164Y-41273904D01*
X112139165Y-41273905D01*
X112172351Y-41282797D01*
X112367413Y-41335063D01*
X112543855Y-41350500D01*
X112602820Y-41355659D01*
X112602821Y-41355659D01*
X112602822Y-41355659D01*
X112661787Y-41350500D01*
X112838229Y-41335063D01*
X113066484Y-41273903D01*
X113280651Y-41174035D01*
X113474222Y-41038495D01*
X113641316Y-40871401D01*
X113771246Y-40685842D01*
X113825823Y-40642217D01*
X113895321Y-40635023D01*
X113957676Y-40666546D01*
X113974396Y-40685842D01*
X114104321Y-40871395D01*
X114104326Y-40871401D01*
X114271420Y-41038495D01*
X114361016Y-41101231D01*
X114464986Y-41174032D01*
X114464988Y-41174033D01*
X114464991Y-41174035D01*
X114679158Y-41273903D01*
X114679164Y-41273904D01*
X114679165Y-41273905D01*
X114712351Y-41282797D01*
X114907413Y-41335063D01*
X115083855Y-41350500D01*
X115142820Y-41355659D01*
X115142821Y-41355659D01*
X115142822Y-41355659D01*
X115201787Y-41350500D01*
X115378229Y-41335063D01*
X115606484Y-41273903D01*
X115820651Y-41174035D01*
X116014222Y-41038495D01*
X116181316Y-40871401D01*
X116311246Y-40685842D01*
X116365823Y-40642217D01*
X116435321Y-40635023D01*
X116497676Y-40666546D01*
X116514396Y-40685842D01*
X116644321Y-40871395D01*
X116644326Y-40871401D01*
X116811420Y-41038495D01*
X116901016Y-41101231D01*
X117004986Y-41174032D01*
X117004988Y-41174033D01*
X117004991Y-41174035D01*
X117219158Y-41273903D01*
X117219164Y-41273904D01*
X117219165Y-41273905D01*
X117252351Y-41282797D01*
X117447413Y-41335063D01*
X117623855Y-41350500D01*
X117682820Y-41355659D01*
X117682821Y-41355659D01*
X117682822Y-41355659D01*
X117741787Y-41350500D01*
X117918229Y-41335063D01*
X118146484Y-41273903D01*
X118360651Y-41174035D01*
X118554222Y-41038495D01*
X118721316Y-40871401D01*
X118851246Y-40685842D01*
X118905823Y-40642217D01*
X118975321Y-40635023D01*
X119037676Y-40666546D01*
X119054396Y-40685842D01*
X119184321Y-40871395D01*
X119184326Y-40871401D01*
X119351420Y-41038495D01*
X119441016Y-41101231D01*
X119544986Y-41174032D01*
X119544988Y-41174033D01*
X119544991Y-41174035D01*
X119759158Y-41273903D01*
X119759164Y-41273904D01*
X119759165Y-41273905D01*
X119792351Y-41282797D01*
X119987413Y-41335063D01*
X120163855Y-41350500D01*
X120222820Y-41355659D01*
X120222821Y-41355659D01*
X120222822Y-41355659D01*
X120281787Y-41350500D01*
X120458229Y-41335063D01*
X120686484Y-41273903D01*
X120900651Y-41174035D01*
X121094222Y-41038495D01*
X121261316Y-40871401D01*
X121391246Y-40685842D01*
X121445823Y-40642217D01*
X121515321Y-40635023D01*
X121577676Y-40666546D01*
X121594396Y-40685842D01*
X121724321Y-40871395D01*
X121724326Y-40871401D01*
X121891420Y-41038495D01*
X121981016Y-41101231D01*
X122084986Y-41174032D01*
X122084988Y-41174033D01*
X122084991Y-41174035D01*
X122299158Y-41273903D01*
X122299164Y-41273904D01*
X122299165Y-41273905D01*
X122332351Y-41282797D01*
X122527413Y-41335063D01*
X122703855Y-41350500D01*
X122762820Y-41355659D01*
X122762821Y-41355659D01*
X122762822Y-41355659D01*
X122821787Y-41350500D01*
X122998229Y-41335063D01*
X123226484Y-41273903D01*
X123440651Y-41174035D01*
X123634222Y-41038495D01*
X123801316Y-40871401D01*
X123931246Y-40685842D01*
X123985823Y-40642217D01*
X124055321Y-40635023D01*
X124117676Y-40666546D01*
X124134396Y-40685842D01*
X124264321Y-40871395D01*
X124264326Y-40871401D01*
X124431420Y-41038495D01*
X124521016Y-41101231D01*
X124624986Y-41174032D01*
X124624988Y-41174033D01*
X124624991Y-41174035D01*
X124839158Y-41273903D01*
X124839164Y-41273904D01*
X124839165Y-41273905D01*
X124872351Y-41282797D01*
X125067413Y-41335063D01*
X125243855Y-41350500D01*
X125302820Y-41355659D01*
X125302821Y-41355659D01*
X125302822Y-41355659D01*
X125361787Y-41350500D01*
X125538229Y-41335063D01*
X125766484Y-41273903D01*
X125980651Y-41174035D01*
X126174222Y-41038495D01*
X126341316Y-40871401D01*
X126471246Y-40685842D01*
X126525823Y-40642217D01*
X126595321Y-40635023D01*
X126657676Y-40666546D01*
X126674396Y-40685842D01*
X126804321Y-40871395D01*
X126804326Y-40871401D01*
X126971420Y-41038495D01*
X127061016Y-41101231D01*
X127164986Y-41174032D01*
X127164988Y-41174033D01*
X127164991Y-41174035D01*
X127379158Y-41273903D01*
X127379164Y-41273904D01*
X127379165Y-41273905D01*
X127412351Y-41282797D01*
X127607413Y-41335063D01*
X127783855Y-41350500D01*
X127842820Y-41355659D01*
X127842821Y-41355659D01*
X127842822Y-41355659D01*
X127901787Y-41350500D01*
X128078229Y-41335063D01*
X128306484Y-41273903D01*
X128520651Y-41174035D01*
X128714222Y-41038495D01*
X128881316Y-40871401D01*
X129016856Y-40677830D01*
X129116724Y-40463663D01*
X129177884Y-40235408D01*
X129198480Y-40000000D01*
X129177884Y-39764592D01*
X129116724Y-39536337D01*
X129016856Y-39322171D01*
X129011246Y-39314158D01*
X128881315Y-39128597D01*
X128714223Y-38961506D01*
X128714216Y-38961501D01*
X128520655Y-38825967D01*
X128520651Y-38825965D01*
X128467860Y-38801348D01*
X128306484Y-38726097D01*
X128306480Y-38726096D01*
X128306476Y-38726094D01*
X128078234Y-38664938D01*
X128078224Y-38664936D01*
X127842822Y-38644341D01*
X127842820Y-38644341D01*
X127607417Y-38664936D01*
X127607407Y-38664938D01*
X127379165Y-38726094D01*
X127379156Y-38726098D01*
X127164992Y-38825964D01*
X127164990Y-38825965D01*
X126971418Y-38961505D01*
X126804326Y-39128597D01*
X126674396Y-39314158D01*
X126619819Y-39357783D01*
X126550321Y-39364977D01*
X126487966Y-39333454D01*
X126471246Y-39314158D01*
X126341315Y-39128597D01*
X126174223Y-38961506D01*
X126174216Y-38961501D01*
X125980655Y-38825967D01*
X125980651Y-38825965D01*
X125927860Y-38801348D01*
X125766484Y-38726097D01*
X125766480Y-38726096D01*
X125766476Y-38726094D01*
X125538234Y-38664938D01*
X125538224Y-38664936D01*
X125302822Y-38644341D01*
X125302820Y-38644341D01*
X125067417Y-38664936D01*
X125067407Y-38664938D01*
X124839165Y-38726094D01*
X124839156Y-38726098D01*
X124624992Y-38825964D01*
X124624990Y-38825965D01*
X124431418Y-38961505D01*
X124264326Y-39128597D01*
X124134396Y-39314158D01*
X124079819Y-39357783D01*
X124010321Y-39364977D01*
X123947966Y-39333454D01*
X123931246Y-39314158D01*
X123801315Y-39128597D01*
X123634223Y-38961506D01*
X123634216Y-38961501D01*
X123440655Y-38825967D01*
X123440651Y-38825965D01*
X123387860Y-38801348D01*
X123226484Y-38726097D01*
X123226480Y-38726096D01*
X123226476Y-38726094D01*
X122998234Y-38664938D01*
X122998224Y-38664936D01*
X122762822Y-38644341D01*
X122762820Y-38644341D01*
X122527417Y-38664936D01*
X122527407Y-38664938D01*
X122299165Y-38726094D01*
X122299156Y-38726098D01*
X122084992Y-38825964D01*
X122084990Y-38825965D01*
X121891418Y-38961505D01*
X121724326Y-39128597D01*
X121594396Y-39314158D01*
X121539819Y-39357783D01*
X121470321Y-39364977D01*
X121407966Y-39333454D01*
X121391246Y-39314158D01*
X121261315Y-39128597D01*
X121094223Y-38961506D01*
X121094216Y-38961501D01*
X120900655Y-38825967D01*
X120900651Y-38825965D01*
X120847860Y-38801348D01*
X120686484Y-38726097D01*
X120686480Y-38726096D01*
X120686476Y-38726094D01*
X120458234Y-38664938D01*
X120458224Y-38664936D01*
X120222822Y-38644341D01*
X120222820Y-38644341D01*
X119987417Y-38664936D01*
X119987407Y-38664938D01*
X119759165Y-38726094D01*
X119759156Y-38726098D01*
X119544992Y-38825964D01*
X119544990Y-38825965D01*
X119351418Y-38961505D01*
X119184326Y-39128597D01*
X119054396Y-39314158D01*
X118999819Y-39357783D01*
X118930321Y-39364977D01*
X118867966Y-39333454D01*
X118851246Y-39314158D01*
X118721315Y-39128597D01*
X118554223Y-38961506D01*
X118554216Y-38961501D01*
X118360655Y-38825967D01*
X118360651Y-38825965D01*
X118307860Y-38801348D01*
X118146484Y-38726097D01*
X118146480Y-38726096D01*
X118146476Y-38726094D01*
X117918234Y-38664938D01*
X117918224Y-38664936D01*
X117682822Y-38644341D01*
X117682820Y-38644341D01*
X117447417Y-38664936D01*
X117447407Y-38664938D01*
X117219165Y-38726094D01*
X117219156Y-38726098D01*
X117004992Y-38825964D01*
X117004990Y-38825965D01*
X116811418Y-38961505D01*
X116644326Y-39128597D01*
X116514396Y-39314158D01*
X116459819Y-39357783D01*
X116390321Y-39364977D01*
X116327966Y-39333454D01*
X116311246Y-39314158D01*
X116181315Y-39128597D01*
X116014223Y-38961506D01*
X116014216Y-38961501D01*
X115820655Y-38825967D01*
X115820651Y-38825965D01*
X115767860Y-38801348D01*
X115606484Y-38726097D01*
X115606480Y-38726096D01*
X115606476Y-38726094D01*
X115378234Y-38664938D01*
X115378224Y-38664936D01*
X115142822Y-38644341D01*
X115142820Y-38644341D01*
X114907417Y-38664936D01*
X114907407Y-38664938D01*
X114679165Y-38726094D01*
X114679156Y-38726098D01*
X114464992Y-38825964D01*
X114464990Y-38825965D01*
X114271418Y-38961505D01*
X114104326Y-39128597D01*
X113974396Y-39314158D01*
X113919819Y-39357783D01*
X113850321Y-39364977D01*
X113787966Y-39333454D01*
X113771246Y-39314158D01*
X113641315Y-39128597D01*
X113474223Y-38961506D01*
X113474216Y-38961501D01*
X113280655Y-38825967D01*
X113280651Y-38825965D01*
X113227860Y-38801348D01*
X113066484Y-38726097D01*
X113066480Y-38726096D01*
X113066476Y-38726094D01*
X112838234Y-38664938D01*
X112838224Y-38664936D01*
X112602822Y-38644341D01*
X112602820Y-38644341D01*
X112367417Y-38664936D01*
X112367407Y-38664938D01*
X112139165Y-38726094D01*
X112139156Y-38726098D01*
X111924992Y-38825964D01*
X111924990Y-38825965D01*
X111731421Y-38961503D01*
X111609494Y-39083430D01*
X111548171Y-39116914D01*
X111478479Y-39111930D01*
X111422546Y-39070058D01*
X111405631Y-39039081D01*
X111356618Y-38907671D01*
X111356614Y-38907664D01*
X111270368Y-38792455D01*
X111270365Y-38792452D01*
X111155156Y-38706206D01*
X111155149Y-38706202D01*
X111020303Y-38655908D01*
X111020304Y-38655908D01*
X110960704Y-38649501D01*
X110960702Y-38649500D01*
X110960694Y-38649500D01*
X110960685Y-38649500D01*
X109164950Y-38649500D01*
X109164944Y-38649501D01*
X109105337Y-38655908D01*
X108970492Y-38706202D01*
X108970485Y-38706206D01*
X108855276Y-38792452D01*
X108855273Y-38792455D01*
X108769027Y-38907664D01*
X108769023Y-38907671D01*
X108718729Y-39042517D01*
X108712322Y-39102116D01*
X108712321Y-39102135D01*
X107000193Y-39102135D01*
X106868459Y-38970402D01*
X106868452Y-38970397D01*
X106855754Y-38961506D01*
X106791575Y-38916567D01*
X106674891Y-38834863D01*
X106674887Y-38834861D01*
X106655814Y-38825967D01*
X106460720Y-38734993D01*
X106460716Y-38734992D01*
X106460712Y-38734990D01*
X106232470Y-38673834D01*
X106232460Y-38673832D01*
X105997058Y-38653237D01*
X105997056Y-38653237D01*
X105761653Y-38673832D01*
X105761643Y-38673834D01*
X105533401Y-38734990D01*
X105533392Y-38734994D01*
X105319228Y-38834860D01*
X105319226Y-38834861D01*
X105125654Y-38970401D01*
X104958562Y-39137493D01*
X104828632Y-39323054D01*
X104774055Y-39366679D01*
X104704557Y-39373873D01*
X104642202Y-39342350D01*
X104625482Y-39323054D01*
X104495551Y-39137493D01*
X104328459Y-38970402D01*
X104328452Y-38970397D01*
X104315754Y-38961506D01*
X104251575Y-38916567D01*
X104134891Y-38834863D01*
X104134887Y-38834861D01*
X104115814Y-38825967D01*
X103920720Y-38734993D01*
X103920716Y-38734992D01*
X103920712Y-38734990D01*
X103692470Y-38673834D01*
X103692460Y-38673832D01*
X103457058Y-38653237D01*
X103457056Y-38653237D01*
X103221653Y-38673832D01*
X103221643Y-38673834D01*
X102993401Y-38734990D01*
X102993392Y-38734994D01*
X102779228Y-38834860D01*
X102779226Y-38834861D01*
X102585654Y-38970401D01*
X102418562Y-39137493D01*
X102288632Y-39323054D01*
X102234055Y-39366679D01*
X102164557Y-39373873D01*
X102102202Y-39342350D01*
X102085482Y-39323054D01*
X101955551Y-39137493D01*
X101788459Y-38970402D01*
X101788452Y-38970397D01*
X101775754Y-38961506D01*
X101711575Y-38916567D01*
X101594891Y-38834863D01*
X101594887Y-38834861D01*
X101575814Y-38825967D01*
X101380720Y-38734993D01*
X101380716Y-38734992D01*
X101380712Y-38734990D01*
X101152470Y-38673834D01*
X101152460Y-38673832D01*
X100917058Y-38653237D01*
X100917056Y-38653237D01*
X100681653Y-38673832D01*
X100681643Y-38673834D01*
X100453401Y-38734990D01*
X100453392Y-38734994D01*
X100239228Y-38834860D01*
X100239226Y-38834861D01*
X100045654Y-38970401D01*
X99878562Y-39137493D01*
X99748632Y-39323054D01*
X99694055Y-39366679D01*
X99624557Y-39373873D01*
X99562202Y-39342350D01*
X99545482Y-39323054D01*
X99415551Y-39137493D01*
X99248459Y-38970402D01*
X99248452Y-38970397D01*
X99235754Y-38961506D01*
X99171575Y-38916567D01*
X99054891Y-38834863D01*
X99054887Y-38834861D01*
X99035814Y-38825967D01*
X98840720Y-38734993D01*
X98840716Y-38734992D01*
X98840712Y-38734990D01*
X98612470Y-38673834D01*
X98612460Y-38673832D01*
X98377058Y-38653237D01*
X98377056Y-38653237D01*
X98141653Y-38673832D01*
X98141643Y-38673834D01*
X97913401Y-38734990D01*
X97913392Y-38734994D01*
X97699228Y-38834860D01*
X97699226Y-38834861D01*
X97505654Y-38970401D01*
X97338562Y-39137493D01*
X97208632Y-39323054D01*
X97154055Y-39366679D01*
X97084557Y-39373873D01*
X97022202Y-39342350D01*
X97005482Y-39323054D01*
X96875551Y-39137493D01*
X96708459Y-38970402D01*
X96708452Y-38970397D01*
X96695754Y-38961506D01*
X96631575Y-38916567D01*
X96514891Y-38834863D01*
X96514887Y-38834861D01*
X96495814Y-38825967D01*
X96300720Y-38734993D01*
X96300716Y-38734992D01*
X96300712Y-38734990D01*
X96072470Y-38673834D01*
X96072460Y-38673832D01*
X95837058Y-38653237D01*
X95837056Y-38653237D01*
X95601653Y-38673832D01*
X95601643Y-38673834D01*
X95373401Y-38734990D01*
X95373392Y-38734994D01*
X95159228Y-38834860D01*
X95159226Y-38834861D01*
X94965654Y-38970401D01*
X94798562Y-39137493D01*
X94668632Y-39323054D01*
X94614055Y-39366679D01*
X94544557Y-39373873D01*
X94482202Y-39342350D01*
X94465482Y-39323054D01*
X94335551Y-39137493D01*
X94168459Y-38970402D01*
X94168452Y-38970397D01*
X94155754Y-38961506D01*
X94091575Y-38916567D01*
X93974891Y-38834863D01*
X93974887Y-38834861D01*
X93955814Y-38825967D01*
X93760720Y-38734993D01*
X93760716Y-38734992D01*
X93760712Y-38734990D01*
X93532470Y-38673834D01*
X93532460Y-38673832D01*
X93297058Y-38653237D01*
X93297056Y-38653237D01*
X93061653Y-38673832D01*
X93061643Y-38673834D01*
X92833401Y-38734990D01*
X92833392Y-38734994D01*
X92619228Y-38834860D01*
X92619226Y-38834861D01*
X92425654Y-38970401D01*
X92258565Y-39137490D01*
X92128326Y-39323491D01*
X92073749Y-39367115D01*
X92004250Y-39374308D01*
X91941896Y-39342786D01*
X91925176Y-39323490D01*
X91795170Y-39137822D01*
X91795165Y-39137816D01*
X91628139Y-38970790D01*
X91434635Y-38835295D01*
X91220549Y-38735466D01*
X91220543Y-38735463D01*
X91007057Y-38678260D01*
X91007057Y-39575884D01*
X90950050Y-39542971D01*
X90822883Y-39508896D01*
X90691231Y-39508896D01*
X90564064Y-39542971D01*
X90507057Y-39575884D01*
X90507057Y-38678260D01*
X90507056Y-38678260D01*
X90293570Y-38735463D01*
X90293564Y-38735466D01*
X90079479Y-38835295D01*
X90079477Y-38835296D01*
X89885983Y-38970782D01*
X89885977Y-38970787D01*
X89718948Y-39137816D01*
X89718947Y-39137818D01*
X89588937Y-39323491D01*
X89534360Y-39367115D01*
X89464861Y-39374308D01*
X89402507Y-39342786D01*
X89385787Y-39323490D01*
X89255551Y-39137493D01*
X89088459Y-38970402D01*
X89088452Y-38970397D01*
X89075754Y-38961506D01*
X89011575Y-38916567D01*
X88894891Y-38834863D01*
X88894887Y-38834861D01*
X88875814Y-38825967D01*
X88680720Y-38734993D01*
X88680716Y-38734992D01*
X88680712Y-38734990D01*
X88452470Y-38673834D01*
X88452460Y-38673832D01*
X88217058Y-38653237D01*
X88217056Y-38653237D01*
X87981653Y-38673832D01*
X87981643Y-38673834D01*
X87753401Y-38734990D01*
X87753392Y-38734994D01*
X87539228Y-38834860D01*
X87539226Y-38834861D01*
X87345654Y-38970401D01*
X87178562Y-39137493D01*
X87048632Y-39323054D01*
X86994055Y-39366679D01*
X86924557Y-39373873D01*
X86862202Y-39342350D01*
X86845482Y-39323054D01*
X86715551Y-39137493D01*
X86548459Y-38970402D01*
X86548452Y-38970397D01*
X86535754Y-38961506D01*
X86471575Y-38916567D01*
X86354891Y-38834863D01*
X86354887Y-38834861D01*
X86335814Y-38825967D01*
X86140720Y-38734993D01*
X86140716Y-38734992D01*
X86140712Y-38734990D01*
X85912470Y-38673834D01*
X85912460Y-38673832D01*
X85677058Y-38653237D01*
X85677056Y-38653237D01*
X85441653Y-38673832D01*
X85441643Y-38673834D01*
X85213401Y-38734990D01*
X85213392Y-38734994D01*
X84999228Y-38834860D01*
X84999226Y-38834861D01*
X84805657Y-38970399D01*
X84683730Y-39092326D01*
X84622407Y-39125810D01*
X84552715Y-39120826D01*
X84496782Y-39078954D01*
X84479867Y-39047977D01*
X84430854Y-38916567D01*
X84430850Y-38916560D01*
X84344604Y-38801351D01*
X84344601Y-38801348D01*
X84229392Y-38715102D01*
X84229385Y-38715098D01*
X84094539Y-38664804D01*
X84094540Y-38664804D01*
X84034940Y-38658397D01*
X84034938Y-38658396D01*
X84034930Y-38658396D01*
X84034921Y-38658396D01*
X82239186Y-38658396D01*
X82239180Y-38658397D01*
X82179573Y-38664804D01*
X82044728Y-38715098D01*
X82044721Y-38715102D01*
X81929512Y-38801348D01*
X81929509Y-38801351D01*
X81843263Y-38916560D01*
X81843259Y-38916567D01*
X81792965Y-39051413D01*
X81786558Y-39111012D01*
X81786557Y-39111031D01*
X64600500Y-39111031D01*
X64600500Y-36899998D01*
X81874532Y-36899998D01*
X81874532Y-36900001D01*
X81894364Y-37126686D01*
X81894366Y-37126697D01*
X81953258Y-37346488D01*
X81953261Y-37346497D01*
X82049431Y-37552732D01*
X82049432Y-37552734D01*
X82179954Y-37739141D01*
X82340858Y-37900045D01*
X82340861Y-37900047D01*
X82527266Y-38030568D01*
X82733504Y-38126739D01*
X82953308Y-38185635D01*
X83115230Y-38199801D01*
X83179998Y-38205468D01*
X83180000Y-38205468D01*
X83180002Y-38205468D01*
X83236673Y-38200509D01*
X83406692Y-38185635D01*
X83626496Y-38126739D01*
X83832734Y-38030568D01*
X84019139Y-37900047D01*
X84180047Y-37739139D01*
X84310568Y-37552734D01*
X84337618Y-37494724D01*
X84383790Y-37442285D01*
X84450983Y-37423133D01*
X84517865Y-37443348D01*
X84562382Y-37494725D01*
X84589429Y-37552728D01*
X84589432Y-37552734D01*
X84719954Y-37739141D01*
X84880858Y-37900045D01*
X84880861Y-37900047D01*
X85067266Y-38030568D01*
X85273504Y-38126739D01*
X85493308Y-38185635D01*
X85655230Y-38199801D01*
X85719998Y-38205468D01*
X85720000Y-38205468D01*
X85720002Y-38205468D01*
X85776673Y-38200509D01*
X85946692Y-38185635D01*
X86166496Y-38126739D01*
X86372734Y-38030568D01*
X86559139Y-37900047D01*
X86720047Y-37739139D01*
X86850568Y-37552734D01*
X86877618Y-37494724D01*
X86923790Y-37442285D01*
X86990983Y-37423133D01*
X87057865Y-37443348D01*
X87102382Y-37494725D01*
X87129429Y-37552728D01*
X87129432Y-37552734D01*
X87259954Y-37739141D01*
X87420858Y-37900045D01*
X87420861Y-37900047D01*
X87607266Y-38030568D01*
X87813504Y-38126739D01*
X88033308Y-38185635D01*
X88195230Y-38199801D01*
X88259998Y-38205468D01*
X88260000Y-38205468D01*
X88260002Y-38205468D01*
X88316673Y-38200509D01*
X88486692Y-38185635D01*
X88706496Y-38126739D01*
X88912734Y-38030568D01*
X89099139Y-37900047D01*
X89260047Y-37739139D01*
X89390568Y-37552734D01*
X89417895Y-37494129D01*
X89464064Y-37441695D01*
X89531257Y-37422542D01*
X89598139Y-37442757D01*
X89642657Y-37494133D01*
X89669865Y-37552482D01*
X89800342Y-37738820D01*
X89961179Y-37899657D01*
X90147517Y-38030134D01*
X90353673Y-38126265D01*
X90353682Y-38126269D01*
X90549999Y-38178872D01*
X90550000Y-38178871D01*
X90550000Y-37333012D01*
X90607007Y-37365925D01*
X90734174Y-37400000D01*
X90865826Y-37400000D01*
X90992993Y-37365925D01*
X91050000Y-37333012D01*
X91050000Y-38178872D01*
X91246317Y-38126269D01*
X91246326Y-38126265D01*
X91452482Y-38030134D01*
X91638820Y-37899657D01*
X91799657Y-37738820D01*
X91930132Y-37552484D01*
X91957341Y-37494134D01*
X92003513Y-37441695D01*
X92070707Y-37422542D01*
X92137588Y-37442757D01*
X92182106Y-37494133D01*
X92209431Y-37552732D01*
X92209432Y-37552734D01*
X92339954Y-37739141D01*
X92500858Y-37900045D01*
X92500861Y-37900047D01*
X92687266Y-38030568D01*
X92893504Y-38126739D01*
X93113308Y-38185635D01*
X93275230Y-38199801D01*
X93339998Y-38205468D01*
X93340000Y-38205468D01*
X93340002Y-38205468D01*
X93396673Y-38200509D01*
X93566692Y-38185635D01*
X93786496Y-38126739D01*
X93992734Y-38030568D01*
X94179139Y-37900047D01*
X94340047Y-37739139D01*
X94470568Y-37552734D01*
X94497618Y-37494724D01*
X94543790Y-37442285D01*
X94610983Y-37423133D01*
X94677865Y-37443348D01*
X94722382Y-37494725D01*
X94749429Y-37552728D01*
X94749432Y-37552734D01*
X94879954Y-37739141D01*
X95040858Y-37900045D01*
X95040861Y-37900047D01*
X95227266Y-38030568D01*
X95433504Y-38126739D01*
X95653308Y-38185635D01*
X95815230Y-38199801D01*
X95879998Y-38205468D01*
X95880000Y-38205468D01*
X95880002Y-38205468D01*
X95936673Y-38200509D01*
X96106692Y-38185635D01*
X96326496Y-38126739D01*
X96532734Y-38030568D01*
X96719139Y-37900047D01*
X96880047Y-37739139D01*
X97010568Y-37552734D01*
X97037618Y-37494724D01*
X97083790Y-37442285D01*
X97150983Y-37423133D01*
X97217865Y-37443348D01*
X97262382Y-37494725D01*
X97289429Y-37552728D01*
X97289432Y-37552734D01*
X97419954Y-37739141D01*
X97580858Y-37900045D01*
X97580861Y-37900047D01*
X97767266Y-38030568D01*
X97973504Y-38126739D01*
X98193308Y-38185635D01*
X98355230Y-38199801D01*
X98419998Y-38205468D01*
X98420000Y-38205468D01*
X98420002Y-38205468D01*
X98476673Y-38200509D01*
X98646692Y-38185635D01*
X98866496Y-38126739D01*
X99072734Y-38030568D01*
X99259139Y-37900047D01*
X99420047Y-37739139D01*
X99550568Y-37552734D01*
X99577618Y-37494724D01*
X99623790Y-37442285D01*
X99690983Y-37423133D01*
X99757865Y-37443348D01*
X99802382Y-37494725D01*
X99829429Y-37552728D01*
X99829432Y-37552734D01*
X99959954Y-37739141D01*
X100120858Y-37900045D01*
X100120861Y-37900047D01*
X100307266Y-38030568D01*
X100513504Y-38126739D01*
X100733308Y-38185635D01*
X100895230Y-38199801D01*
X100959998Y-38205468D01*
X100960000Y-38205468D01*
X100960002Y-38205468D01*
X101016673Y-38200509D01*
X101186692Y-38185635D01*
X101406496Y-38126739D01*
X101612734Y-38030568D01*
X101799139Y-37900047D01*
X101960047Y-37739139D01*
X102090568Y-37552734D01*
X102117618Y-37494724D01*
X102163790Y-37442285D01*
X102230983Y-37423133D01*
X102297865Y-37443348D01*
X102342382Y-37494725D01*
X102369429Y-37552728D01*
X102369432Y-37552734D01*
X102499954Y-37739141D01*
X102660858Y-37900045D01*
X102660861Y-37900047D01*
X102847266Y-38030568D01*
X103053504Y-38126739D01*
X103273308Y-38185635D01*
X103435230Y-38199801D01*
X103499998Y-38205468D01*
X103500000Y-38205468D01*
X103500002Y-38205468D01*
X103556673Y-38200509D01*
X103726692Y-38185635D01*
X103946496Y-38126739D01*
X104152734Y-38030568D01*
X104339139Y-37900047D01*
X104500047Y-37739139D01*
X104630568Y-37552734D01*
X104657618Y-37494724D01*
X104703790Y-37442285D01*
X104770983Y-37423133D01*
X104837865Y-37443348D01*
X104882382Y-37494725D01*
X104909429Y-37552728D01*
X104909432Y-37552734D01*
X105039954Y-37739141D01*
X105200858Y-37900045D01*
X105200861Y-37900047D01*
X105387266Y-38030568D01*
X105593504Y-38126739D01*
X105813308Y-38185635D01*
X105975230Y-38199801D01*
X106039998Y-38205468D01*
X106040000Y-38205468D01*
X106040002Y-38205468D01*
X106096673Y-38200509D01*
X106266692Y-38185635D01*
X106486496Y-38126739D01*
X106692734Y-38030568D01*
X106879139Y-37900047D01*
X107040047Y-37739139D01*
X107170568Y-37552734D01*
X107266739Y-37346496D01*
X107325635Y-37126692D01*
X107345468Y-36900000D01*
X107345468Y-36899998D01*
X108794532Y-36899998D01*
X108794532Y-36900001D01*
X108814364Y-37126686D01*
X108814366Y-37126697D01*
X108873258Y-37346488D01*
X108873261Y-37346497D01*
X108969431Y-37552732D01*
X108969432Y-37552734D01*
X109099954Y-37739141D01*
X109260858Y-37900045D01*
X109260861Y-37900047D01*
X109447266Y-38030568D01*
X109653504Y-38126739D01*
X109873308Y-38185635D01*
X110035230Y-38199801D01*
X110099998Y-38205468D01*
X110100000Y-38205468D01*
X110100002Y-38205468D01*
X110156673Y-38200509D01*
X110326692Y-38185635D01*
X110546496Y-38126739D01*
X110752734Y-38030568D01*
X110939139Y-37900047D01*
X111100047Y-37739139D01*
X111230568Y-37552734D01*
X111257618Y-37494724D01*
X111303790Y-37442285D01*
X111370983Y-37423133D01*
X111437865Y-37443348D01*
X111482382Y-37494725D01*
X111509429Y-37552728D01*
X111509432Y-37552734D01*
X111639954Y-37739141D01*
X111800858Y-37900045D01*
X111800861Y-37900047D01*
X111987266Y-38030568D01*
X112193504Y-38126739D01*
X112413308Y-38185635D01*
X112575230Y-38199801D01*
X112639998Y-38205468D01*
X112640000Y-38205468D01*
X112640002Y-38205468D01*
X112696673Y-38200509D01*
X112866692Y-38185635D01*
X113086496Y-38126739D01*
X113292734Y-38030568D01*
X113479139Y-37900047D01*
X113640047Y-37739139D01*
X113770568Y-37552734D01*
X113797618Y-37494724D01*
X113843790Y-37442285D01*
X113910983Y-37423133D01*
X113977865Y-37443348D01*
X114022382Y-37494725D01*
X114049429Y-37552728D01*
X114049432Y-37552734D01*
X114179954Y-37739141D01*
X114340858Y-37900045D01*
X114340861Y-37900047D01*
X114527266Y-38030568D01*
X114733504Y-38126739D01*
X114953308Y-38185635D01*
X115115230Y-38199801D01*
X115179998Y-38205468D01*
X115180000Y-38205468D01*
X115180002Y-38205468D01*
X115236673Y-38200509D01*
X115406692Y-38185635D01*
X115626496Y-38126739D01*
X115832734Y-38030568D01*
X116019139Y-37900047D01*
X116180047Y-37739139D01*
X116310568Y-37552734D01*
X116337618Y-37494724D01*
X116383790Y-37442285D01*
X116450983Y-37423133D01*
X116517865Y-37443348D01*
X116562382Y-37494725D01*
X116589429Y-37552728D01*
X116589432Y-37552734D01*
X116719954Y-37739141D01*
X116880858Y-37900045D01*
X116880861Y-37900047D01*
X117067266Y-38030568D01*
X117273504Y-38126739D01*
X117493308Y-38185635D01*
X117655230Y-38199801D01*
X117719998Y-38205468D01*
X117720000Y-38205468D01*
X117720002Y-38205468D01*
X117776673Y-38200509D01*
X117946692Y-38185635D01*
X118166496Y-38126739D01*
X118372734Y-38030568D01*
X118559139Y-37900047D01*
X118720047Y-37739139D01*
X118850568Y-37552734D01*
X118877618Y-37494724D01*
X118923790Y-37442285D01*
X118990983Y-37423133D01*
X119057865Y-37443348D01*
X119102382Y-37494725D01*
X119129429Y-37552728D01*
X119129432Y-37552734D01*
X119259954Y-37739141D01*
X119420858Y-37900045D01*
X119420861Y-37900047D01*
X119607266Y-38030568D01*
X119813504Y-38126739D01*
X120033308Y-38185635D01*
X120195230Y-38199801D01*
X120259998Y-38205468D01*
X120260000Y-38205468D01*
X120260002Y-38205468D01*
X120316673Y-38200509D01*
X120486692Y-38185635D01*
X120706496Y-38126739D01*
X120912734Y-38030568D01*
X121099139Y-37900047D01*
X121260047Y-37739139D01*
X121390568Y-37552734D01*
X121417618Y-37494724D01*
X121463790Y-37442285D01*
X121530983Y-37423133D01*
X121597865Y-37443348D01*
X121642382Y-37494725D01*
X121669429Y-37552728D01*
X121669432Y-37552734D01*
X121799954Y-37739141D01*
X121960858Y-37900045D01*
X121960861Y-37900047D01*
X122147266Y-38030568D01*
X122353504Y-38126739D01*
X122573308Y-38185635D01*
X122735230Y-38199801D01*
X122799998Y-38205468D01*
X122800000Y-38205468D01*
X122800002Y-38205468D01*
X122856673Y-38200509D01*
X123026692Y-38185635D01*
X123246496Y-38126739D01*
X123452734Y-38030568D01*
X123639139Y-37900047D01*
X123800047Y-37739139D01*
X123930568Y-37552734D01*
X123957618Y-37494724D01*
X124003790Y-37442285D01*
X124070983Y-37423133D01*
X124137865Y-37443348D01*
X124182382Y-37494725D01*
X124209429Y-37552728D01*
X124209432Y-37552734D01*
X124339954Y-37739141D01*
X124500858Y-37900045D01*
X124500861Y-37900047D01*
X124687266Y-38030568D01*
X124893504Y-38126739D01*
X125113308Y-38185635D01*
X125275230Y-38199801D01*
X125339998Y-38205468D01*
X125340000Y-38205468D01*
X125340002Y-38205468D01*
X125396673Y-38200509D01*
X125566692Y-38185635D01*
X125786496Y-38126739D01*
X125992734Y-38030568D01*
X126179139Y-37900047D01*
X126340047Y-37739139D01*
X126470568Y-37552734D01*
X126497618Y-37494724D01*
X126543790Y-37442285D01*
X126610983Y-37423133D01*
X126677865Y-37443348D01*
X126722382Y-37494725D01*
X126749429Y-37552728D01*
X126749432Y-37552734D01*
X126879954Y-37739141D01*
X127040858Y-37900045D01*
X127040861Y-37900047D01*
X127227266Y-38030568D01*
X127433504Y-38126739D01*
X127653308Y-38185635D01*
X127815230Y-38199801D01*
X127879998Y-38205468D01*
X127880000Y-38205468D01*
X127880002Y-38205468D01*
X127936673Y-38200509D01*
X128106692Y-38185635D01*
X128326496Y-38126739D01*
X128532734Y-38030568D01*
X128719139Y-37900047D01*
X128880047Y-37739139D01*
X129010568Y-37552734D01*
X129106739Y-37346496D01*
X129165635Y-37126692D01*
X129185468Y-36900000D01*
X129165635Y-36673308D01*
X129106739Y-36453504D01*
X129010568Y-36247266D01*
X128880047Y-36060861D01*
X128880045Y-36060858D01*
X128719141Y-35899954D01*
X128532734Y-35769432D01*
X128532732Y-35769431D01*
X128326497Y-35673261D01*
X128326488Y-35673258D01*
X128106697Y-35614366D01*
X128106693Y-35614365D01*
X128106692Y-35614365D01*
X128106691Y-35614364D01*
X128106686Y-35614364D01*
X127880002Y-35594532D01*
X127879998Y-35594532D01*
X127653313Y-35614364D01*
X127653302Y-35614366D01*
X127433511Y-35673258D01*
X127433502Y-35673261D01*
X127227267Y-35769431D01*
X127227265Y-35769432D01*
X127040858Y-35899954D01*
X126879954Y-36060858D01*
X126749432Y-36247265D01*
X126749431Y-36247267D01*
X126722382Y-36305275D01*
X126676209Y-36357714D01*
X126609016Y-36376866D01*
X126542135Y-36356650D01*
X126497618Y-36305275D01*
X126470568Y-36247266D01*
X126340047Y-36060861D01*
X126340045Y-36060858D01*
X126179141Y-35899954D01*
X125992734Y-35769432D01*
X125992732Y-35769431D01*
X125786497Y-35673261D01*
X125786488Y-35673258D01*
X125566697Y-35614366D01*
X125566693Y-35614365D01*
X125566692Y-35614365D01*
X125566691Y-35614364D01*
X125566686Y-35614364D01*
X125340002Y-35594532D01*
X125339998Y-35594532D01*
X125113313Y-35614364D01*
X125113302Y-35614366D01*
X124893511Y-35673258D01*
X124893502Y-35673261D01*
X124687267Y-35769431D01*
X124687265Y-35769432D01*
X124500858Y-35899954D01*
X124339954Y-36060858D01*
X124209432Y-36247265D01*
X124209431Y-36247267D01*
X124182382Y-36305275D01*
X124136209Y-36357714D01*
X124069016Y-36376866D01*
X124002135Y-36356650D01*
X123957618Y-36305275D01*
X123930568Y-36247266D01*
X123800047Y-36060861D01*
X123800045Y-36060858D01*
X123639141Y-35899954D01*
X123452734Y-35769432D01*
X123452732Y-35769431D01*
X123246497Y-35673261D01*
X123246488Y-35673258D01*
X123026697Y-35614366D01*
X123026693Y-35614365D01*
X123026692Y-35614365D01*
X123026691Y-35614364D01*
X123026686Y-35614364D01*
X122800002Y-35594532D01*
X122799998Y-35594532D01*
X122573313Y-35614364D01*
X122573302Y-35614366D01*
X122353511Y-35673258D01*
X122353502Y-35673261D01*
X122147267Y-35769431D01*
X122147265Y-35769432D01*
X121960858Y-35899954D01*
X121799954Y-36060858D01*
X121669432Y-36247265D01*
X121669431Y-36247267D01*
X121642382Y-36305275D01*
X121596209Y-36357714D01*
X121529016Y-36376866D01*
X121462135Y-36356650D01*
X121417618Y-36305275D01*
X121390568Y-36247266D01*
X121260047Y-36060861D01*
X121260045Y-36060858D01*
X121099141Y-35899954D01*
X120912734Y-35769432D01*
X120912732Y-35769431D01*
X120706497Y-35673261D01*
X120706488Y-35673258D01*
X120486697Y-35614366D01*
X120486693Y-35614365D01*
X120486692Y-35614365D01*
X120486691Y-35614364D01*
X120486686Y-35614364D01*
X120260002Y-35594532D01*
X120259998Y-35594532D01*
X120033313Y-35614364D01*
X120033302Y-35614366D01*
X119813511Y-35673258D01*
X119813502Y-35673261D01*
X119607267Y-35769431D01*
X119607265Y-35769432D01*
X119420858Y-35899954D01*
X119259954Y-36060858D01*
X119129432Y-36247265D01*
X119129431Y-36247267D01*
X119102382Y-36305275D01*
X119056209Y-36357714D01*
X118989016Y-36376866D01*
X118922135Y-36356650D01*
X118877618Y-36305275D01*
X118850568Y-36247266D01*
X118720047Y-36060861D01*
X118720045Y-36060858D01*
X118559141Y-35899954D01*
X118372734Y-35769432D01*
X118372732Y-35769431D01*
X118166497Y-35673261D01*
X118166488Y-35673258D01*
X117946697Y-35614366D01*
X117946693Y-35614365D01*
X117946692Y-35614365D01*
X117946691Y-35614364D01*
X117946686Y-35614364D01*
X117720002Y-35594532D01*
X117719998Y-35594532D01*
X117493313Y-35614364D01*
X117493302Y-35614366D01*
X117273511Y-35673258D01*
X117273502Y-35673261D01*
X117067267Y-35769431D01*
X117067265Y-35769432D01*
X116880858Y-35899954D01*
X116719954Y-36060858D01*
X116589432Y-36247265D01*
X116589431Y-36247267D01*
X116562382Y-36305275D01*
X116516209Y-36357714D01*
X116449016Y-36376866D01*
X116382135Y-36356650D01*
X116337618Y-36305275D01*
X116310568Y-36247266D01*
X116180047Y-36060861D01*
X116180045Y-36060858D01*
X116019141Y-35899954D01*
X115832734Y-35769432D01*
X115832732Y-35769431D01*
X115626497Y-35673261D01*
X115626488Y-35673258D01*
X115406697Y-35614366D01*
X115406693Y-35614365D01*
X115406692Y-35614365D01*
X115406691Y-35614364D01*
X115406686Y-35614364D01*
X115180002Y-35594532D01*
X115179998Y-35594532D01*
X114953313Y-35614364D01*
X114953302Y-35614366D01*
X114733511Y-35673258D01*
X114733502Y-35673261D01*
X114527267Y-35769431D01*
X114527265Y-35769432D01*
X114340858Y-35899954D01*
X114179954Y-36060858D01*
X114049432Y-36247265D01*
X114049431Y-36247267D01*
X114022382Y-36305275D01*
X113976209Y-36357714D01*
X113909016Y-36376866D01*
X113842135Y-36356650D01*
X113797618Y-36305275D01*
X113770568Y-36247266D01*
X113640047Y-36060861D01*
X113640045Y-36060858D01*
X113479141Y-35899954D01*
X113292734Y-35769432D01*
X113292732Y-35769431D01*
X113086497Y-35673261D01*
X113086488Y-35673258D01*
X112866697Y-35614366D01*
X112866693Y-35614365D01*
X112866692Y-35614365D01*
X112866691Y-35614364D01*
X112866686Y-35614364D01*
X112640002Y-35594532D01*
X112639998Y-35594532D01*
X112413313Y-35614364D01*
X112413302Y-35614366D01*
X112193511Y-35673258D01*
X112193502Y-35673261D01*
X111987267Y-35769431D01*
X111987265Y-35769432D01*
X111800858Y-35899954D01*
X111639954Y-36060858D01*
X111509432Y-36247265D01*
X111509431Y-36247267D01*
X111482382Y-36305275D01*
X111436209Y-36357714D01*
X111369016Y-36376866D01*
X111302135Y-36356650D01*
X111257618Y-36305275D01*
X111230568Y-36247266D01*
X111100047Y-36060861D01*
X111100045Y-36060858D01*
X110939141Y-35899954D01*
X110752734Y-35769432D01*
X110752732Y-35769431D01*
X110546497Y-35673261D01*
X110546488Y-35673258D01*
X110326697Y-35614366D01*
X110326693Y-35614365D01*
X110326692Y-35614365D01*
X110326691Y-35614364D01*
X110326686Y-35614364D01*
X110100002Y-35594532D01*
X110099998Y-35594532D01*
X109873313Y-35614364D01*
X109873302Y-35614366D01*
X109653511Y-35673258D01*
X109653502Y-35673261D01*
X109447267Y-35769431D01*
X109447265Y-35769432D01*
X109260858Y-35899954D01*
X109099954Y-36060858D01*
X108969432Y-36247265D01*
X108969431Y-36247267D01*
X108873261Y-36453502D01*
X108873258Y-36453511D01*
X108814366Y-36673302D01*
X108814364Y-36673313D01*
X108794532Y-36899998D01*
X107345468Y-36899998D01*
X107325635Y-36673308D01*
X107266739Y-36453504D01*
X107170568Y-36247266D01*
X107040047Y-36060861D01*
X107040045Y-36060858D01*
X106879141Y-35899954D01*
X106692734Y-35769432D01*
X106692732Y-35769431D01*
X106486497Y-35673261D01*
X106486488Y-35673258D01*
X106266697Y-35614366D01*
X106266693Y-35614365D01*
X106266692Y-35614365D01*
X106266691Y-35614364D01*
X106266686Y-35614364D01*
X106040002Y-35594532D01*
X106039998Y-35594532D01*
X105813313Y-35614364D01*
X105813302Y-35614366D01*
X105593511Y-35673258D01*
X105593502Y-35673261D01*
X105387267Y-35769431D01*
X105387265Y-35769432D01*
X105200858Y-35899954D01*
X105039954Y-36060858D01*
X104909432Y-36247265D01*
X104909431Y-36247267D01*
X104882382Y-36305275D01*
X104836209Y-36357714D01*
X104769016Y-36376866D01*
X104702135Y-36356650D01*
X104657618Y-36305275D01*
X104630568Y-36247266D01*
X104500047Y-36060861D01*
X104500045Y-36060858D01*
X104339141Y-35899954D01*
X104152734Y-35769432D01*
X104152732Y-35769431D01*
X103946497Y-35673261D01*
X103946488Y-35673258D01*
X103726697Y-35614366D01*
X103726693Y-35614365D01*
X103726692Y-35614365D01*
X103726691Y-35614364D01*
X103726686Y-35614364D01*
X103500002Y-35594532D01*
X103499998Y-35594532D01*
X103273313Y-35614364D01*
X103273302Y-35614366D01*
X103053511Y-35673258D01*
X103053502Y-35673261D01*
X102847267Y-35769431D01*
X102847265Y-35769432D01*
X102660858Y-35899954D01*
X102499954Y-36060858D01*
X102369432Y-36247265D01*
X102369431Y-36247267D01*
X102342382Y-36305275D01*
X102296209Y-36357714D01*
X102229016Y-36376866D01*
X102162135Y-36356650D01*
X102117618Y-36305275D01*
X102090568Y-36247266D01*
X101960047Y-36060861D01*
X101960045Y-36060858D01*
X101799141Y-35899954D01*
X101612734Y-35769432D01*
X101612732Y-35769431D01*
X101406497Y-35673261D01*
X101406488Y-35673258D01*
X101186697Y-35614366D01*
X101186693Y-35614365D01*
X101186692Y-35614365D01*
X101186691Y-35614364D01*
X101186686Y-35614364D01*
X100960002Y-35594532D01*
X100959998Y-35594532D01*
X100733313Y-35614364D01*
X100733302Y-35614366D01*
X100513511Y-35673258D01*
X100513502Y-35673261D01*
X100307267Y-35769431D01*
X100307265Y-35769432D01*
X100120858Y-35899954D01*
X99959954Y-36060858D01*
X99829432Y-36247265D01*
X99829431Y-36247267D01*
X99802382Y-36305275D01*
X99756209Y-36357714D01*
X99689016Y-36376866D01*
X99622135Y-36356650D01*
X99577618Y-36305275D01*
X99550568Y-36247266D01*
X99420047Y-36060861D01*
X99420045Y-36060858D01*
X99259141Y-35899954D01*
X99072734Y-35769432D01*
X99072732Y-35769431D01*
X98866497Y-35673261D01*
X98866488Y-35673258D01*
X98646697Y-35614366D01*
X98646693Y-35614365D01*
X98646692Y-35614365D01*
X98646691Y-35614364D01*
X98646686Y-35614364D01*
X98420002Y-35594532D01*
X98419998Y-35594532D01*
X98193313Y-35614364D01*
X98193302Y-35614366D01*
X97973511Y-35673258D01*
X97973502Y-35673261D01*
X97767267Y-35769431D01*
X97767265Y-35769432D01*
X97580858Y-35899954D01*
X97419954Y-36060858D01*
X97289432Y-36247265D01*
X97289431Y-36247267D01*
X97262382Y-36305275D01*
X97216209Y-36357714D01*
X97149016Y-36376866D01*
X97082135Y-36356650D01*
X97037618Y-36305275D01*
X97010568Y-36247266D01*
X96880047Y-36060861D01*
X96880045Y-36060858D01*
X96719141Y-35899954D01*
X96532734Y-35769432D01*
X96532732Y-35769431D01*
X96326497Y-35673261D01*
X96326488Y-35673258D01*
X96106697Y-35614366D01*
X96106693Y-35614365D01*
X96106692Y-35614365D01*
X96106691Y-35614364D01*
X96106686Y-35614364D01*
X95880002Y-35594532D01*
X95879998Y-35594532D01*
X95653313Y-35614364D01*
X95653302Y-35614366D01*
X95433511Y-35673258D01*
X95433502Y-35673261D01*
X95227267Y-35769431D01*
X95227265Y-35769432D01*
X95040858Y-35899954D01*
X94879954Y-36060858D01*
X94749432Y-36247265D01*
X94749431Y-36247267D01*
X94722382Y-36305275D01*
X94676209Y-36357714D01*
X94609016Y-36376866D01*
X94542135Y-36356650D01*
X94497618Y-36305275D01*
X94470568Y-36247266D01*
X94340047Y-36060861D01*
X94340045Y-36060858D01*
X94179141Y-35899954D01*
X93992734Y-35769432D01*
X93992732Y-35769431D01*
X93786497Y-35673261D01*
X93786488Y-35673258D01*
X93566697Y-35614366D01*
X93566693Y-35614365D01*
X93566692Y-35614365D01*
X93566691Y-35614364D01*
X93566686Y-35614364D01*
X93340002Y-35594532D01*
X93339998Y-35594532D01*
X93113313Y-35614364D01*
X93113302Y-35614366D01*
X92893511Y-35673258D01*
X92893502Y-35673261D01*
X92687267Y-35769431D01*
X92687265Y-35769432D01*
X92500858Y-35899954D01*
X92339954Y-36060858D01*
X92209433Y-36247264D01*
X92209432Y-36247266D01*
X92204112Y-36258676D01*
X92182106Y-36305867D01*
X92135933Y-36358306D01*
X92068739Y-36377457D01*
X92001858Y-36357241D01*
X91957342Y-36305865D01*
X91930135Y-36247520D01*
X91930134Y-36247518D01*
X91799657Y-36061179D01*
X91638820Y-35900342D01*
X91452482Y-35769865D01*
X91246328Y-35673734D01*
X91050000Y-35621127D01*
X91050000Y-36466988D01*
X90992993Y-36434075D01*
X90865826Y-36400000D01*
X90734174Y-36400000D01*
X90607007Y-36434075D01*
X90550000Y-36466988D01*
X90550000Y-35621127D01*
X90353671Y-35673734D01*
X90147517Y-35769865D01*
X89961179Y-35900342D01*
X89800342Y-36061179D01*
X89669867Y-36247515D01*
X89642657Y-36305867D01*
X89596484Y-36358306D01*
X89529290Y-36377457D01*
X89462409Y-36357241D01*
X89417893Y-36305865D01*
X89395888Y-36258676D01*
X89390568Y-36247266D01*
X89260047Y-36060861D01*
X89260045Y-36060858D01*
X89099141Y-35899954D01*
X88912734Y-35769432D01*
X88912732Y-35769431D01*
X88706497Y-35673261D01*
X88706488Y-35673258D01*
X88486697Y-35614366D01*
X88486693Y-35614365D01*
X88486692Y-35614365D01*
X88486691Y-35614364D01*
X88486686Y-35614364D01*
X88260002Y-35594532D01*
X88259998Y-35594532D01*
X88033313Y-35614364D01*
X88033302Y-35614366D01*
X87813511Y-35673258D01*
X87813502Y-35673261D01*
X87607267Y-35769431D01*
X87607265Y-35769432D01*
X87420858Y-35899954D01*
X87259954Y-36060858D01*
X87129432Y-36247265D01*
X87129431Y-36247267D01*
X87102382Y-36305275D01*
X87056209Y-36357714D01*
X86989016Y-36376866D01*
X86922135Y-36356650D01*
X86877618Y-36305275D01*
X86850568Y-36247266D01*
X86720047Y-36060861D01*
X86720045Y-36060858D01*
X86559141Y-35899954D01*
X86372734Y-35769432D01*
X86372732Y-35769431D01*
X86166497Y-35673261D01*
X86166488Y-35673258D01*
X85946697Y-35614366D01*
X85946693Y-35614365D01*
X85946692Y-35614365D01*
X85946691Y-35614364D01*
X85946686Y-35614364D01*
X85720002Y-35594532D01*
X85719998Y-35594532D01*
X85493313Y-35614364D01*
X85493302Y-35614366D01*
X85273511Y-35673258D01*
X85273502Y-35673261D01*
X85067267Y-35769431D01*
X85067265Y-35769432D01*
X84880858Y-35899954D01*
X84719954Y-36060858D01*
X84589432Y-36247265D01*
X84589431Y-36247267D01*
X84562382Y-36305275D01*
X84516209Y-36357714D01*
X84449016Y-36376866D01*
X84382135Y-36356650D01*
X84337618Y-36305275D01*
X84310568Y-36247266D01*
X84180047Y-36060861D01*
X84180045Y-36060858D01*
X84019141Y-35899954D01*
X83832734Y-35769432D01*
X83832732Y-35769431D01*
X83626497Y-35673261D01*
X83626488Y-35673258D01*
X83406697Y-35614366D01*
X83406693Y-35614365D01*
X83406692Y-35614365D01*
X83406691Y-35614364D01*
X83406686Y-35614364D01*
X83180002Y-35594532D01*
X83179998Y-35594532D01*
X82953313Y-35614364D01*
X82953302Y-35614366D01*
X82733511Y-35673258D01*
X82733502Y-35673261D01*
X82527267Y-35769431D01*
X82527265Y-35769432D01*
X82340858Y-35899954D01*
X82179954Y-36060858D01*
X82049432Y-36247265D01*
X82049431Y-36247267D01*
X81953261Y-36453502D01*
X81953258Y-36453511D01*
X81894366Y-36673302D01*
X81894364Y-36673313D01*
X81874532Y-36899998D01*
X64600500Y-36899998D01*
X64600500Y-34824500D01*
X64620185Y-34757461D01*
X64672989Y-34711706D01*
X64724500Y-34700500D01*
X128541324Y-34700500D01*
X128608363Y-34720185D01*
G37*
%TD.AperFunction*%
%TD*%
M02*
