M48
; DRILL file {KiCad 8.0.6} date 2024-12-12T11:47:05+0100
; FORMAT={-:-/ absolute / metric / decimal}
; #@! TF.CreationDate,2024-12-12T11:47:05+01:00
; #@! TF.GenerationSoftware,Kicad,Pcbnew,8.0.6
; #@! TF.FileFunction,Plated,1,2,PTH
FMAT,2
METRIC
; #@! TA.AperFunction,Plated,PTH,ComponentDrill
T1C0.200
; #@! TA.AperFunction,Plated,PTH,ViaDrill
T2C0.300
; #@! TA.AperFunction,Plated,PTH,ComponentDrill
T3C1.000
; #@! TA.AperFunction,Plated,PTH,ComponentDrill
T4C1.200
; #@! TA.AperFunction,Plated,PTH,ComponentDrill
T5C1.900
%
G90
G05
T1
X111.462Y-56.5
X111.462Y-58.5
X113.462Y-56.5
X113.462Y-58.5
T2
X67.0Y-79.4
X70.6Y-83.1
X73.6Y-78.4
X74.2Y-63.7
X74.4Y-70.1
X77.9Y-60.6
X81.4Y-64.2
X81.4Y-85.9
X82.2Y-66.1
X83.8Y-60.1
X84.5Y-73.8
X85.0Y-79.8
X86.4Y-64.0
X86.7Y-67.2
X87.8Y-55.9
X88.0Y-84.5
X89.8Y-75.9
X91.0Y-59.2
X91.4Y-78.2
X93.2Y-51.0
X95.3Y-55.1
X96.4Y-48.2
X98.0Y-52.1
X100.3Y-44.3
X100.3Y-73.2
X100.8Y-49.4
X101.1Y-69.3
X101.493Y-45.893
X101.943Y-45.443
X102.1Y-60.8
X102.3Y-43.1
X102.4Y-56.4
X102.6Y-51.3
X102.7Y-47.0
X103.5Y-70.1
X104.0Y-77.1
X104.3Y-66.8
X104.3Y-72.6
X104.8Y-64.0
X105.3Y-58.0
X105.8Y-60.3
X106.0Y-49.8
X106.1Y-46.6
X106.4Y-44.8
X106.7Y-53.2
X106.8Y-69.3
X107.0Y-44.8
X107.0Y-56.5
X108.0Y-37.6
X108.1Y-41.2
X108.1Y-51.4
X108.4Y-59.0
X108.4Y-60.9
X108.5Y-56.3
X108.7Y-66.0
X109.2Y-57.0
X109.3Y-68.8
X109.8Y-63.1
X110.5Y-46.7
X110.6Y-77.1
X110.8Y-73.9
X112.6Y-69.9
X112.8Y-45.5
X113.2Y-48.8
X113.5Y-66.4
X113.7Y-63.9
X113.8Y-68.3
X114.7Y-74.3
X114.8Y-60.4
X114.9Y-77.3
X115.0Y-63.9
X116.2Y-43.0
X117.8Y-47.5
X117.8Y-51.1
X118.1Y-63.8
X118.1Y-67.5
X121.1Y-57.3
X121.5Y-59.9
X122.6Y-48.8
X122.7Y-64.2
X122.7Y-67.9
X122.75Y-44.65
X122.75Y-52.45
X122.9Y-72.3
X122.9Y-75.8
X123.2Y-74.0
X123.9Y-72.3
X123.9Y-75.8
X124.2Y-74.0
X124.3Y-56.8
X124.4Y-53.9
X125.4Y-72.3
X125.4Y-75.8
X125.7Y-74.0
X126.4Y-72.3
X126.4Y-75.8
X126.6Y-53.9
X126.7Y-56.9
X126.7Y-74.0
X127.9Y-72.3
X127.9Y-75.8
X128.2Y-74.0
X128.9Y-72.3
X128.9Y-75.8
X129.2Y-74.0
X130.4Y-72.3
X130.4Y-75.8
X130.7Y-74.0
X131.4Y-72.3
X131.4Y-75.8
X131.7Y-53.9
X131.7Y-74.0
X131.8Y-57.4
T3
X67.675Y-61.5
X67.675Y-72.5
X81.775Y-69.5
X83.137Y-40.009
X83.18Y-36.9
X84.315Y-69.5
X85.677Y-40.009
X85.72Y-36.9
X86.855Y-69.5
X88.217Y-40.009
X88.26Y-36.9
X90.757Y-40.009
X90.8Y-36.9
X92.293Y-81.999
X92.32Y-85.16
X93.297Y-40.009
X93.34Y-36.9
X94.833Y-81.999
X94.86Y-85.16
X95.837Y-40.009
X95.88Y-36.9
X97.373Y-81.999
X97.4Y-85.16
X98.377Y-40.009
X98.42Y-36.9
X99.913Y-81.999
X99.94Y-85.16
X100.917Y-40.009
X100.96Y-36.9
X102.453Y-81.999
X102.48Y-85.16
X103.457Y-40.009
X103.5Y-36.9
X104.993Y-81.999
X105.02Y-85.16
X105.997Y-40.009
X106.04Y-36.9
X107.533Y-81.999
X107.56Y-85.16
X110.063Y-40.0
X110.073Y-81.999
X110.1Y-36.9
X110.1Y-85.16
X112.603Y-40.0
X112.64Y-36.9
X115.143Y-40.0
X115.143Y-82.0
X115.18Y-36.9
X115.18Y-85.16
X116.2Y-45.6
X116.2Y-49.3
X116.2Y-53.0
X116.2Y-62.025
X116.2Y-65.7
X116.2Y-69.4
X117.683Y-40.0
X117.683Y-82.0
X117.72Y-36.9
X117.72Y-85.16
X118.74Y-45.6
X118.74Y-49.3
X118.74Y-53.0
X118.74Y-62.025
X118.74Y-65.7
X118.74Y-69.4
X120.223Y-40.0
X120.223Y-82.0
X120.26Y-36.9
X120.26Y-85.16
X122.763Y-40.0
X122.763Y-82.0
X122.8Y-36.9
X122.8Y-85.16
X125.303Y-40.0
X125.303Y-82.0
X125.34Y-36.9
X125.34Y-85.16
X127.843Y-40.0
X127.843Y-82.0
X127.88Y-36.9
X127.88Y-85.16
T4
X128.9Y-53.85
X128.9Y-57.35
T5
X77.675Y-64.5
X77.675Y-69.5
M30
