%TF.GenerationSoftware,KiCad,Pcbnew,8.0.6*%
%TF.CreationDate,2024-12-10T20:38:08+01:00*%
%TF.ProjectId,TUSS4470_shield,54555353-3434-4373-905f-736869656c64,rev?*%
%TF.SameCoordinates,Original*%
%TF.FileFunction,Copper,L1,Top*%
%TF.FilePolarity,Positive*%
%FSLAX46Y46*%
G04 Gerber Fmt 4.6, Leading zero omitted, Abs format (unit mm)*
G04 Created by KiCad (PCBNEW 8.0.6) date 2024-12-10 20:38:08*
%MOMM*%
%LPD*%
G01*
G04 APERTURE LIST*
G04 Aperture macros list*
%AMRoundRect*
0 Rectangle with rounded corners*
0 $1 Rounding radius*
0 $2 $3 $4 $5 $6 $7 $8 $9 X,Y pos of 4 corners*
0 Add a 4 corners polygon primitive as box body*
4,1,4,$2,$3,$4,$5,$6,$7,$8,$9,$2,$3,0*
0 Add four circle primitives for the rounded corners*
1,1,$1+$1,$2,$3*
1,1,$1+$1,$4,$5*
1,1,$1+$1,$6,$7*
1,1,$1+$1,$8,$9*
0 Add four rect primitives between the rounded corners*
20,1,$1+$1,$2,$3,$4,$5,0*
20,1,$1+$1,$4,$5,$6,$7,0*
20,1,$1+$1,$6,$7,$8,$9,0*
20,1,$1+$1,$8,$9,$2,$3,0*%
G04 Aperture macros list end*
%TA.AperFunction,SMDPad,CuDef*%
%ADD10R,2.800000X1.000000*%
%TD*%
%TA.AperFunction,SMDPad,CuDef*%
%ADD11RoundRect,0.200000X0.275000X-0.200000X0.275000X0.200000X-0.275000X0.200000X-0.275000X-0.200000X0*%
%TD*%
%TA.AperFunction,SMDPad,CuDef*%
%ADD12RoundRect,0.243750X-0.456250X0.243750X-0.456250X-0.243750X0.456250X-0.243750X0.456250X0.243750X0*%
%TD*%
%TA.AperFunction,SMDPad,CuDef*%
%ADD13RoundRect,0.243750X0.456250X-0.243750X0.456250X0.243750X-0.456250X0.243750X-0.456250X-0.243750X0*%
%TD*%
%TA.AperFunction,SMDPad,CuDef*%
%ADD14RoundRect,0.250000X0.312500X0.625000X-0.312500X0.625000X-0.312500X-0.625000X0.312500X-0.625000X0*%
%TD*%
%TA.AperFunction,ComponentPad*%
%ADD15R,2.400000X2.400000*%
%TD*%
%TA.AperFunction,ComponentPad*%
%ADD16C,2.400000*%
%TD*%
%TA.AperFunction,SMDPad,CuDef*%
%ADD17RoundRect,0.062500X-0.350000X-0.062500X0.350000X-0.062500X0.350000X0.062500X-0.350000X0.062500X0*%
%TD*%
%TA.AperFunction,SMDPad,CuDef*%
%ADD18RoundRect,0.062500X-0.062500X-0.350000X0.062500X-0.350000X0.062500X0.350000X-0.062500X0.350000X0*%
%TD*%
%TA.AperFunction,HeatsinkPad*%
%ADD19C,0.500000*%
%TD*%
%TA.AperFunction,HeatsinkPad*%
%ADD20R,2.500000X2.500000*%
%TD*%
%TA.AperFunction,SMDPad,CuDef*%
%ADD21RoundRect,0.250000X0.650000X-1.000000X0.650000X1.000000X-0.650000X1.000000X-0.650000X-1.000000X0*%
%TD*%
%TA.AperFunction,SMDPad,CuDef*%
%ADD22RoundRect,0.225000X0.225000X0.250000X-0.225000X0.250000X-0.225000X-0.250000X0.225000X-0.250000X0*%
%TD*%
%TA.AperFunction,ComponentPad*%
%ADD23R,1.700000X1.700000*%
%TD*%
%TA.AperFunction,ComponentPad*%
%ADD24O,1.700000X1.700000*%
%TD*%
%TA.AperFunction,SMDPad,CuDef*%
%ADD25RoundRect,0.225000X0.250000X-0.225000X0.250000X0.225000X-0.250000X0.225000X-0.250000X-0.225000X0*%
%TD*%
%TA.AperFunction,ComponentPad*%
%ADD26C,1.400000*%
%TD*%
%TA.AperFunction,ComponentPad*%
%ADD27RoundRect,0.770000X0.980000X-0.980000X0.980000X0.980000X-0.980000X0.980000X-0.980000X-0.980000X0*%
%TD*%
%TA.AperFunction,ComponentPad*%
%ADD28C,3.500000*%
%TD*%
%TA.AperFunction,SMDPad,CuDef*%
%ADD29RoundRect,0.250000X0.650000X-0.325000X0.650000X0.325000X-0.650000X0.325000X-0.650000X-0.325000X0*%
%TD*%
%TA.AperFunction,SMDPad,CuDef*%
%ADD30RoundRect,0.250000X0.625000X-0.312500X0.625000X0.312500X-0.625000X0.312500X-0.625000X-0.312500X0*%
%TD*%
%TA.AperFunction,SMDPad,CuDef*%
%ADD31RoundRect,0.100000X0.100000X-0.130000X0.100000X0.130000X-0.100000X0.130000X-0.100000X-0.130000X0*%
%TD*%
%TA.AperFunction,ComponentPad*%
%ADD32O,1.600000X1.600000*%
%TD*%
%TA.AperFunction,ComponentPad*%
%ADD33R,1.600000X1.600000*%
%TD*%
%TA.AperFunction,ViaPad*%
%ADD34C,0.600000*%
%TD*%
%TA.AperFunction,Conductor*%
%ADD35C,0.200000*%
%TD*%
%TA.AperFunction,Conductor*%
%ADD36C,1.000000*%
%TD*%
%TA.AperFunction,Conductor*%
%ADD37C,0.500000*%
%TD*%
G04 APERTURE END LIST*
D10*
%TO.P,SW1,1,1*%
%TO.N,RESET*%
X69300000Y-38200000D03*
X75100000Y-38200000D03*
%TO.P,SW1,2,2*%
%TO.N,GND*%
X69300000Y-42200000D03*
X75100000Y-42200000D03*
%TD*%
D11*
%TO.P,R5,1*%
%TO.N,Net-(D4-A)*%
X80000000Y-79525000D03*
%TO.P,R5,2*%
%TO.N,Net-(J1-Pin_2)*%
X80000000Y-77875000D03*
%TD*%
%TO.P,R4,1*%
%TO.N,Net-(D3-A)*%
X85000000Y-77925000D03*
%TO.P,R4,2*%
%TO.N,Net-(A1-VIN)*%
X85000000Y-76275000D03*
%TD*%
%TO.P,R3,1*%
%TO.N,Net-(D2-A)*%
X102400000Y-72925000D03*
%TO.P,R3,2*%
%TO.N,+5V*%
X102400000Y-71275000D03*
%TD*%
D12*
%TO.P,D4,1,K*%
%TO.N,GND*%
X81700000Y-77562500D03*
%TO.P,D4,2,A*%
%TO.N,Net-(D4-A)*%
X81700000Y-79437500D03*
%TD*%
%TO.P,D3,1,K*%
%TO.N,GND*%
X86700000Y-75962500D03*
%TO.P,D3,2,A*%
%TO.N,Net-(D3-A)*%
X86700000Y-77837500D03*
%TD*%
D13*
%TO.P,D2,1,K*%
%TO.N,GND*%
X102400000Y-76237500D03*
%TO.P,D2,2,A*%
%TO.N,Net-(D2-A)*%
X102400000Y-74362500D03*
%TD*%
D14*
%TO.P,R2,1*%
%TO.N,Net-(C5-Pad1)*%
X118962500Y-57000000D03*
%TO.P,R2,2*%
%TO.N,Net-(J2-Pin_1)*%
X116037500Y-57000000D03*
%TD*%
D15*
%TO.P,J2,1,Pin_1*%
%TO.N,Net-(J2-Pin_1)*%
X128900000Y-57350000D03*
D16*
%TO.P,J2,2,Pin_2*%
%TO.N,Net-(J2-Pin_2)*%
X128900000Y-53850000D03*
%TD*%
D17*
%TO.P,U1,1,OUT3*%
%TO.N,OUT_3*%
X110525000Y-56500000D03*
%TO.P,U1,2,DGND*%
%TO.N,GND*%
X110525000Y-57000000D03*
%TO.P,U1,3,NCS*%
%TO.N,NCS*%
X110525000Y-57500000D03*
%TO.P,U1,4,SCLK*%
%TO.N,SCLK*%
X110525000Y-58000000D03*
%TO.P,U1,5,SDI*%
%TO.N,SDI*%
X110525000Y-58500000D03*
D18*
%TO.P,U1,6,SDO*%
%TO.N,SDO*%
X111462500Y-59437500D03*
%TO.P,U1,7,IO1*%
%TO.N,IO_1*%
X111962500Y-59437500D03*
%TO.P,U1,8,IO2*%
%TO.N,IO_2*%
X112462500Y-59437500D03*
%TO.P,U1,9,VOUT*%
%TO.N,ADC*%
X112962500Y-59437500D03*
%TO.P,U1,10,VDD*%
%TO.N,+5V*%
X113462500Y-59437500D03*
D17*
%TO.P,U1,11,INN*%
%TO.N,Net-(JP2-B)*%
X114400000Y-58500000D03*
%TO.P,U1,12,INP*%
%TO.N,Net-(U1-INP)*%
X114400000Y-58000000D03*
%TO.P,U1,13,SGND*%
%TO.N,GND*%
X114400000Y-57500000D03*
%TO.P,U1,14,GND*%
X114400000Y-57000000D03*
%TO.P,U1,15,OUTA*%
%TO.N,Net-(J2-Pin_1)*%
X114400000Y-56500000D03*
D18*
%TO.P,U1,16,OUTB*%
%TO.N,Net-(J2-Pin_2)*%
X113462500Y-55562500D03*
%TO.P,U1,17,VDRV*%
%TO.N,Net-(U1-VDRV)*%
X112962500Y-55562500D03*
%TO.P,U1,18,FLT*%
%TO.N,Net-(JP1-B)*%
X112462500Y-55562500D03*
%TO.P,U1,19,OUT4*%
%TO.N,OUT_4*%
X111962500Y-55562500D03*
%TO.P,U1,20,VPWR*%
%TO.N,Net-(U1-VPWR)*%
X111462500Y-55562500D03*
D19*
%TO.P,U1,21,EXP*%
%TO.N,GND*%
X111462500Y-56500000D03*
X111462500Y-58500000D03*
D20*
X112462500Y-57500000D03*
D19*
X113462500Y-56500000D03*
X113462500Y-58500000D03*
%TD*%
D21*
%TO.P,D1,1,K*%
%TO.N,Net-(D1-K)*%
X109300000Y-48700000D03*
%TO.P,D1,2,A*%
%TO.N,VCC*%
X109300000Y-44700000D03*
%TD*%
D22*
%TO.P,C5,1*%
%TO.N,Net-(C5-Pad1)*%
X117475000Y-58900000D03*
%TO.P,C5,2*%
%TO.N,Net-(U1-INP)*%
X115925000Y-58900000D03*
%TD*%
D23*
%TO.P,JP2,1,A*%
%TO.N,Net-(JP2-A)*%
X118740000Y-65700000D03*
D24*
%TO.P,JP2,2,B*%
%TO.N,Net-(JP2-B)*%
X116200000Y-65700000D03*
%TD*%
D23*
%TO.P,JP3,1,A*%
%TO.N,Net-(JP3-A)*%
X118740000Y-49300000D03*
D24*
%TO.P,JP3,2,B*%
%TO.N,Net-(JP1-B)*%
X116200000Y-49300000D03*
%TD*%
D25*
%TO.P,C2,1*%
%TO.N,Net-(JP2-A)*%
X121400000Y-66775000D03*
%TO.P,C2,2*%
%TO.N,GND*%
X121400000Y-65225000D03*
%TD*%
%TO.P,C8,1*%
%TO.N,GND*%
X113500000Y-62475000D03*
%TO.P,C8,2*%
%TO.N,+5V*%
X113500000Y-60925000D03*
%TD*%
D23*
%TO.P,J6,1,Pin_1*%
%TO.N,ADC*%
X115143426Y-82000000D03*
D24*
%TO.P,J6,2,Pin_2*%
%TO.N,Net-(A1-A1)*%
X117683426Y-82000000D03*
%TO.P,J6,3,Pin_3*%
%TO.N,Net-(A1-A2)*%
X120223426Y-82000000D03*
%TO.P,J6,4,Pin_4*%
%TO.N,Net-(A1-A3)*%
X122763426Y-82000000D03*
%TO.P,J6,5,Pin_5*%
%TO.N,Net-(J6-Pin_5)*%
X125303426Y-82000000D03*
%TO.P,J6,6,Pin_6*%
%TO.N,Net-(J6-Pin_6)*%
X127843426Y-82000000D03*
%TD*%
D26*
%TO.P,J1,*%
%TO.N,*%
X67675000Y-72500000D03*
X67675000Y-61500000D03*
D27*
%TO.P,J1,1,Pin_1*%
%TO.N,GND*%
X77675000Y-64500000D03*
D28*
%TO.P,J1,2,Pin_2*%
%TO.N,Net-(J1-Pin_2)*%
X77675000Y-69500000D03*
%TD*%
D29*
%TO.P,C6,1*%
%TO.N,Net-(U1-VDRV)*%
X113200000Y-53575000D03*
%TO.P,C6,2*%
%TO.N,GND*%
X113200000Y-50625000D03*
%TD*%
D25*
%TO.P,C10,1*%
%TO.N,Net-(JP6-A)*%
X121400000Y-63100000D03*
%TO.P,C10,2*%
%TO.N,GND*%
X121400000Y-61550000D03*
%TD*%
%TO.P,C9,1*%
%TO.N,Net-(JP5-A)*%
X121400000Y-54075000D03*
%TO.P,C9,2*%
%TO.N,GND*%
X121400000Y-52525000D03*
%TD*%
D23*
%TO.P,JP4,1,A*%
%TO.N,Net-(JP4-A)*%
X118740000Y-69400000D03*
D24*
%TO.P,JP4,2,B*%
%TO.N,Net-(JP2-B)*%
X116200000Y-69400000D03*
%TD*%
D25*
%TO.P,C1,1*%
%TO.N,Net-(JP1-A)*%
X121400000Y-46700000D03*
%TO.P,C1,2*%
%TO.N,GND*%
X121400000Y-45150000D03*
%TD*%
D30*
%TO.P,R1,1*%
%TO.N,Net-(U1-VPWR)*%
X110000000Y-54062500D03*
%TO.P,R1,2*%
%TO.N,Net-(D1-K)*%
X110000000Y-51137500D03*
%TD*%
D31*
%TO.P,C3,1*%
%TO.N,Net-(JP3-A)*%
X121000000Y-50720000D03*
%TO.P,C3,2*%
%TO.N,GND*%
X121000000Y-50080000D03*
%TD*%
D23*
%TO.P,J7,1,Pin_1*%
%TO.N,unconnected-(J7-Pin_1-Pad1)*%
X92292675Y-81999189D03*
D24*
%TO.P,J7,2,Pin_2*%
%TO.N,UREF*%
X94832675Y-81999189D03*
%TO.P,J7,3,Pin_3*%
%TO.N,RESET*%
X97372675Y-81999189D03*
%TO.P,J7,4,Pin_4*%
%TO.N,+3.3V*%
X99912675Y-81999189D03*
%TO.P,J7,5,Pin_5*%
%TO.N,+5V*%
X102452675Y-81999189D03*
%TO.P,J7,6,Pin_6*%
%TO.N,GND*%
X104992675Y-81999189D03*
%TO.P,J7,7,Pin_7*%
X107532675Y-81999189D03*
%TO.P,J7,8,Pin_8*%
%TO.N,Net-(A1-VIN)*%
X110072675Y-81999189D03*
%TD*%
D23*
%TO.P,J5,1,Pin_1*%
%TO.N,Net-(A1-D7)*%
X110062821Y-40000000D03*
D24*
%TO.P,J5,2,Pin_2*%
%TO.N,OUT_3*%
X112602821Y-40000000D03*
%TO.P,J5,3,Pin_3*%
%TO.N,OUT_4*%
X115142821Y-40000000D03*
%TO.P,J5,4,Pin_4*%
%TO.N,Net-(A1-D4)*%
X117682821Y-40000000D03*
%TO.P,J5,5,Pin_5*%
%TO.N,Net-(A1-D3)*%
X120222821Y-40000000D03*
%TO.P,J5,6,Pin_6*%
%TO.N,Net-(A1-D2)*%
X122762821Y-40000000D03*
%TO.P,J5,7,Pin_7*%
%TO.N,Net-(A1-D1{slash}TX)*%
X125302821Y-40000000D03*
%TO.P,J5,8,Pin_8*%
%TO.N,Net-(A1-D0{slash}RX)*%
X127842821Y-40000000D03*
%TD*%
D23*
%TO.P,J3,1,Pin_1*%
%TO.N,Net-(J3-Pin_1)*%
X83137057Y-40008896D03*
D24*
%TO.P,J3,2,Pin_2*%
%TO.N,Net-(J3-Pin_2)*%
X85677057Y-40008896D03*
%TO.P,J3,3,Pin_3*%
%TO.N,Net-(A1-AREF)*%
X88217057Y-40008896D03*
%TO.P,J3,4,Pin_4*%
%TO.N,GND*%
X90757057Y-40008896D03*
%TO.P,J3,5,Pin_5*%
%TO.N,SCLK*%
X93297057Y-40008896D03*
%TO.P,J3,6,Pin_6*%
%TO.N,SDO*%
X95837057Y-40008896D03*
%TO.P,J3,7,Pin_7*%
%TO.N,SDI*%
X98377057Y-40008896D03*
%TO.P,J3,8,Pin_8*%
%TO.N,NCS*%
X100917057Y-40008896D03*
%TO.P,J3,9,Pin_9*%
%TO.N,IO_2*%
X103457057Y-40008896D03*
%TO.P,J3,10,Pin_10*%
%TO.N,IO_1*%
X105997057Y-40008896D03*
%TD*%
D25*
%TO.P,C7,1*%
%TO.N,Net-(U1-VPWR)*%
X108100000Y-54175000D03*
%TO.P,C7,2*%
%TO.N,GND*%
X108100000Y-52625000D03*
%TD*%
D23*
%TO.P,J4,1,Pin_1*%
%TO.N,Net-(J1-Pin_2)*%
X81775000Y-69500000D03*
D24*
%TO.P,J4,2,Pin_2*%
%TO.N,VCC*%
X84315000Y-69500000D03*
%TO.P,J4,3,Pin_3*%
%TO.N,Net-(A1-VIN)*%
X86855000Y-69500000D03*
%TD*%
D25*
%TO.P,C4,1*%
%TO.N,Net-(JP4-A)*%
X121400000Y-70500000D03*
%TO.P,C4,2*%
%TO.N,GND*%
X121400000Y-68950000D03*
%TD*%
D23*
%TO.P,JP5,1,A*%
%TO.N,Net-(JP5-A)*%
X118740000Y-53000000D03*
D24*
%TO.P,JP5,2,B*%
%TO.N,Net-(JP1-B)*%
X116200000Y-53000000D03*
%TD*%
D23*
%TO.P,JP1,1,A*%
%TO.N,Net-(JP1-A)*%
X118740000Y-45600000D03*
D24*
%TO.P,JP1,2,B*%
%TO.N,Net-(JP1-B)*%
X116200000Y-45600000D03*
%TD*%
D23*
%TO.P,JP6,1,A*%
%TO.N,Net-(JP6-A)*%
X118740000Y-62025000D03*
D24*
%TO.P,JP6,2,B*%
%TO.N,Net-(JP2-B)*%
X116200000Y-62025000D03*
%TD*%
D32*
%TO.P,A1,32,SCL/A5*%
%TO.N,Net-(J3-Pin_1)*%
X83180000Y-36900000D03*
%TO.P,A1,31,SDA/A4*%
%TO.N,Net-(J3-Pin_2)*%
X85720000Y-36900000D03*
%TO.P,A1,30,AREF*%
%TO.N,Net-(A1-AREF)*%
X88260000Y-36900000D03*
%TO.P,A1,29,GND*%
%TO.N,GND*%
X90800000Y-36900000D03*
%TO.P,A1,28,D13*%
%TO.N,SCLK*%
X93340000Y-36900000D03*
%TO.P,A1,27,D12*%
%TO.N,SDO*%
X95880000Y-36900000D03*
%TO.P,A1,26,D11*%
%TO.N,SDI*%
X98420000Y-36900000D03*
%TO.P,A1,25,D10*%
%TO.N,NCS*%
X100960000Y-36900000D03*
%TO.P,A1,24,D9*%
%TO.N,IO_2*%
X103500000Y-36900000D03*
%TO.P,A1,23,D8*%
%TO.N,IO_1*%
X106040000Y-36900000D03*
%TO.P,A1,22,D7*%
%TO.N,Net-(A1-D7)*%
X110100000Y-36900000D03*
%TO.P,A1,21,D6*%
%TO.N,OUT_3*%
X112640000Y-36900000D03*
%TO.P,A1,20,D5*%
%TO.N,OUT_4*%
X115180000Y-36900000D03*
%TO.P,A1,19,D4*%
%TO.N,Net-(A1-D4)*%
X117720000Y-36900000D03*
%TO.P,A1,18,D3*%
%TO.N,Net-(A1-D3)*%
X120260000Y-36900000D03*
%TO.P,A1,17,D2*%
%TO.N,Net-(A1-D2)*%
X122800000Y-36900000D03*
%TO.P,A1,16,D1/TX*%
%TO.N,Net-(A1-D1{slash}TX)*%
X125340000Y-36900000D03*
%TO.P,A1,15,D0/RX*%
%TO.N,Net-(A1-D0{slash}RX)*%
X127880000Y-36900000D03*
%TO.P,A1,14,SCL/A5*%
%TO.N,Net-(J6-Pin_6)*%
X127880000Y-85160000D03*
%TO.P,A1,13,SDA/A4*%
%TO.N,Net-(J6-Pin_5)*%
X125340000Y-85160000D03*
%TO.P,A1,12,A3*%
%TO.N,Net-(A1-A3)*%
X122800000Y-85160000D03*
%TO.P,A1,11,A2*%
%TO.N,Net-(A1-A2)*%
X120260000Y-85160000D03*
%TO.P,A1,10,A1*%
%TO.N,Net-(A1-A1)*%
X117720000Y-85160000D03*
%TO.P,A1,9,A0*%
%TO.N,ADC*%
X115180000Y-85160000D03*
%TO.P,A1,8,VIN*%
%TO.N,Net-(A1-VIN)*%
X110100000Y-85160000D03*
%TO.P,A1,7,GND*%
%TO.N,GND*%
X107560000Y-85160000D03*
%TO.P,A1,6,GND*%
X105020000Y-85160000D03*
%TO.P,A1,5,+5V*%
%TO.N,+5V*%
X102480000Y-85160000D03*
%TO.P,A1,4,3V3*%
%TO.N,+3.3V*%
X99940000Y-85160000D03*
%TO.P,A1,3,~{RESET}*%
%TO.N,RESET*%
X97400000Y-85160000D03*
%TO.P,A1,2,IOREF*%
%TO.N,UREF*%
X94860000Y-85160000D03*
D33*
%TO.P,A1,1,NC*%
%TO.N,unconnected-(A1-NC-Pad1)*%
X92320000Y-85160000D03*
%TD*%
D34*
%TO.N,GND*%
X73600000Y-78400000D03*
X67000000Y-79400000D03*
X70600000Y-83100000D03*
X81400000Y-85900000D03*
X88000000Y-84500000D03*
%TO.N,+5V*%
X103500000Y-70100000D03*
%TO.N,GND*%
X108500000Y-56300000D03*
X109300000Y-68800000D03*
X85000000Y-79800000D03*
X124400000Y-53900000D03*
X131800000Y-57400000D03*
X118100000Y-67500000D03*
X96400000Y-48200000D03*
X98000000Y-52100000D03*
X74200000Y-63700000D03*
X115000000Y-63900000D03*
X116200000Y-43000000D03*
X82200000Y-66100000D03*
X122900000Y-72300000D03*
X95300000Y-55100000D03*
X128900000Y-75800000D03*
X102600000Y-51300000D03*
X121100000Y-57300000D03*
X108700000Y-66000000D03*
X130400000Y-72300000D03*
X87800000Y-55900000D03*
X104300000Y-66800000D03*
X104800000Y-64000000D03*
X110600000Y-77100000D03*
X124200000Y-74000000D03*
X123900000Y-75800000D03*
X122700000Y-51900000D03*
X77900000Y-60600000D03*
X106700000Y-53200000D03*
X126400000Y-75800000D03*
X110500000Y-46700000D03*
X128900000Y-72300000D03*
X128200000Y-74000000D03*
X121500000Y-59900000D03*
X130400000Y-75800000D03*
X74400000Y-70100000D03*
X125700000Y-74000000D03*
X126600000Y-53900000D03*
X104300000Y-72600000D03*
X114800000Y-60400000D03*
X124300000Y-56800000D03*
X83800000Y-60100000D03*
X84500000Y-73800000D03*
X121000000Y-49000000D03*
X109200000Y-57000000D03*
X123200000Y-74000000D03*
X125400000Y-75800000D03*
X86400000Y-64000000D03*
X131700000Y-53900000D03*
X106000000Y-49800000D03*
X106800000Y-69300000D03*
X106100000Y-46600000D03*
X101100000Y-69300000D03*
X91400000Y-78200000D03*
X108100000Y-51400000D03*
X104000000Y-77100000D03*
X127900000Y-72300000D03*
X100300000Y-44300000D03*
X130700000Y-74000000D03*
X112800000Y-45500000D03*
X81400000Y-64200000D03*
X113200000Y-48800000D03*
X114900000Y-77300000D03*
X121400000Y-43900000D03*
X93200000Y-51000000D03*
X109800000Y-63100000D03*
X113800000Y-68300000D03*
X131400000Y-75800000D03*
X117800000Y-47500000D03*
X102700000Y-47000000D03*
X113700000Y-63900000D03*
X131400000Y-72300000D03*
X126700000Y-56900000D03*
X122700000Y-64200000D03*
X118100000Y-63800000D03*
X122900000Y-75800000D03*
X126700000Y-74000000D03*
X114700000Y-74300000D03*
X112600000Y-69900000D03*
X89800000Y-75900000D03*
X123900000Y-72300000D03*
X129200000Y-74000000D03*
X125400000Y-72300000D03*
X105800000Y-60300000D03*
X91000000Y-59200000D03*
X110800000Y-73900000D03*
X102400000Y-56400000D03*
X86700000Y-67200000D03*
X108000000Y-37600000D03*
X126400000Y-72300000D03*
X100800000Y-49400000D03*
X117800000Y-51100000D03*
X127900000Y-75800000D03*
X102300000Y-43100000D03*
X122700000Y-67900000D03*
X108100000Y-41200000D03*
X100300000Y-73200000D03*
X131700000Y-74000000D03*
X102100000Y-60800000D03*
%TO.N,NCS*%
X107000000Y-56500000D03*
%TO.N,SDO*%
X108400000Y-60900000D03*
%TO.N,SCLK*%
X105300000Y-58000000D03*
%TO.N,+5V*%
X113500000Y-66400000D03*
%TO.N,SDI*%
X108400000Y-59000000D03*
%TO.N,VCC*%
X106400000Y-44800000D03*
X101492893Y-45892893D03*
X101942893Y-45442893D03*
X107000000Y-44800000D03*
%TD*%
D35*
%TO.N,Net-(A1-VIN)*%
X85000000Y-76275000D02*
X85000000Y-75000000D01*
X85000000Y-75000000D02*
X86855000Y-73145000D01*
X86855000Y-73145000D02*
X86855000Y-69500000D01*
%TO.N,Net-(D3-A)*%
X85000000Y-77925000D02*
X86612500Y-77925000D01*
X86612500Y-77925000D02*
X86700000Y-77837500D01*
%TO.N,Net-(D4-A)*%
X80000000Y-79525000D02*
X81612500Y-79525000D01*
X81612500Y-79525000D02*
X81700000Y-79437500D01*
%TO.N,Net-(J1-Pin_2)*%
X81100000Y-74600000D02*
X81775000Y-73925000D01*
X81100000Y-74600000D02*
X80000000Y-75700000D01*
X80000000Y-75700000D02*
X80000000Y-77875000D01*
%TO.N,RESET*%
X97372675Y-81999189D02*
X97372675Y-80772675D01*
X97372675Y-80772675D02*
X96000000Y-79400000D01*
X96000000Y-79400000D02*
X89600000Y-79400000D01*
X89600000Y-79400000D02*
X85100000Y-83900000D01*
X85100000Y-83900000D02*
X77200000Y-83900000D01*
X77200000Y-83900000D02*
X72100000Y-78800000D01*
X72100000Y-78800000D02*
X72100000Y-41200000D01*
X72100000Y-41200000D02*
X75100000Y-38200000D01*
D36*
%TO.N,Net-(A1-VIN)*%
X107900000Y-78400000D02*
X98300000Y-78400000D01*
X98300000Y-78400000D02*
X89400000Y-69500000D01*
X89400000Y-69500000D02*
X86855000Y-69500000D01*
D35*
%TO.N,RESET*%
X75100000Y-38200000D02*
X69300000Y-38200000D01*
%TO.N,Net-(J1-Pin_2)*%
X81775000Y-73925000D02*
X81775000Y-69500000D01*
%TO.N,Net-(D4-A)*%
X81537500Y-79700000D02*
X81600000Y-79637500D01*
%TO.N,Net-(D3-A)*%
X85187500Y-77737500D02*
X85100000Y-77825000D01*
%TO.N,+5V*%
X102400000Y-71275000D02*
X102400000Y-71200000D01*
X102400000Y-71200000D02*
X103500000Y-70100000D01*
%TO.N,Net-(D2-A)*%
X102400000Y-72925000D02*
X102400000Y-74362500D01*
%TO.N,Net-(J2-Pin_1)*%
X128900000Y-57350000D02*
X127150000Y-55600000D01*
X115537500Y-56500000D02*
X116037500Y-57000000D01*
X117437500Y-55600000D02*
X116037500Y-57000000D01*
X127150000Y-55600000D02*
X117437500Y-55600000D01*
X114400000Y-56500000D02*
X115537500Y-56500000D01*
%TO.N,Net-(J2-Pin_2)*%
X128900000Y-53850000D02*
X127750000Y-55000000D01*
X114025000Y-55000000D02*
X113462500Y-55562500D01*
X127750000Y-55000000D02*
X114025000Y-55000000D01*
%TO.N,GND*%
X90760000Y-40005953D02*
X90757057Y-40008896D01*
X114400000Y-57000000D02*
X114400000Y-57500000D01*
X107532675Y-85247325D02*
X107520000Y-85260000D01*
X110525000Y-57000000D02*
X111962500Y-57000000D01*
X114400000Y-57000000D02*
X113962500Y-57000000D01*
X111962500Y-57000000D02*
X112462500Y-57500000D01*
X114400000Y-57000000D02*
X112962500Y-57000000D01*
X113462500Y-58500000D02*
X111462500Y-58500000D01*
X104992675Y-85247325D02*
X104980000Y-85260000D01*
X112962500Y-57000000D02*
X112462500Y-57500000D01*
X111462500Y-58500000D02*
X111462500Y-56500000D01*
X113200000Y-50625000D02*
X113200000Y-48800000D01*
X110525000Y-57000000D02*
X109200000Y-57000000D01*
X104992675Y-81999189D02*
X104992675Y-85247325D01*
X113462500Y-56500000D02*
X113462500Y-58500000D01*
X107532675Y-81999189D02*
X107532675Y-85247325D01*
X90760000Y-37000000D02*
X90760000Y-40005953D01*
X111462500Y-56500000D02*
X113462500Y-56500000D01*
%TO.N,NCS*%
X110525000Y-57500000D02*
X109548529Y-57500000D01*
X100920000Y-40005953D02*
X100917057Y-40008896D01*
X109548529Y-57500000D02*
X109448529Y-57600000D01*
X108100000Y-57600000D02*
X107000000Y-56500000D01*
X100920000Y-37000000D02*
X100920000Y-40005953D01*
X109448529Y-57600000D02*
X108100000Y-57600000D01*
%TO.N,OUT_4*%
X115140000Y-37000000D02*
X115140000Y-39997179D01*
X115142821Y-41557179D02*
X115142821Y-40000000D01*
X111962500Y-55562500D02*
X111962500Y-55135614D01*
X111400000Y-54573114D02*
X111400000Y-45300000D01*
X111962500Y-55135614D02*
X111400000Y-54573114D01*
X115140000Y-39997179D02*
X115142821Y-40000000D01*
X111400000Y-45300000D02*
X115142821Y-41557179D01*
%TO.N,ADC*%
X112962500Y-60238804D02*
X111100000Y-62101304D01*
X115143426Y-80718426D02*
X112725000Y-78300000D01*
X112725000Y-72900000D02*
X112725000Y-78300000D01*
X115143426Y-85256574D02*
X115140000Y-85260000D01*
X115143426Y-82000000D02*
X115143426Y-85256574D01*
X112962500Y-59437500D02*
X112962500Y-60238804D01*
X111100000Y-62101304D02*
X111100000Y-71275000D01*
X111100000Y-71275000D02*
X112725000Y-72900000D01*
X115143426Y-82000000D02*
X115143426Y-80718426D01*
%TO.N,IO_2*%
X103800000Y-39640000D02*
X103460000Y-39300000D01*
X103800000Y-60765686D02*
X103800000Y-42200000D01*
X103457057Y-41857057D02*
X103800000Y-42200000D01*
X103460000Y-37000000D02*
X103460000Y-40005953D01*
X104934314Y-61900000D02*
X103800000Y-60765686D01*
X103460000Y-40005953D02*
X103457057Y-40008896D01*
X112462500Y-59930072D02*
X110492572Y-61900000D01*
X110492572Y-61900000D02*
X104934314Y-61900000D01*
X103457057Y-40008896D02*
X103457057Y-41857057D01*
X112462500Y-59437500D02*
X112462500Y-59930072D01*
D36*
%TO.N,Net-(A1-VIN)*%
X110060000Y-85260000D02*
X110060000Y-83060000D01*
X110072675Y-81999189D02*
X110072675Y-80572675D01*
X110060000Y-85260000D02*
X110060000Y-82011864D01*
X110072675Y-80572675D02*
X107900000Y-78400000D01*
X110060000Y-82011864D02*
X110072675Y-81999189D01*
D35*
%TO.N,OUT_3*%
X109325000Y-55300000D02*
X110525000Y-56500000D01*
X104600000Y-43600000D02*
X104600000Y-52700000D01*
X112602821Y-41497179D02*
X111400000Y-42700000D01*
X111400000Y-42700000D02*
X105500000Y-42700000D01*
X105500000Y-42700000D02*
X104600000Y-43600000D01*
X107200000Y-55300000D02*
X109325000Y-55300000D01*
X112600000Y-37000000D02*
X112600000Y-39997179D01*
X112600000Y-39997179D02*
X112602821Y-40000000D01*
X104600000Y-52700000D02*
X107200000Y-55300000D01*
X112602821Y-40000000D02*
X112602821Y-41497179D01*
%TO.N,SDO*%
X95840000Y-40005953D02*
X95837057Y-40008896D01*
X111262500Y-59437500D02*
X111462500Y-59437500D01*
X95840000Y-37000000D02*
X95840000Y-40005953D01*
X108400000Y-60900000D02*
X109000000Y-60900000D01*
X109000000Y-60900000D02*
X110400000Y-59500000D01*
X111200000Y-59500000D02*
X111262500Y-59437500D01*
X110400000Y-59500000D02*
X111200000Y-59500000D01*
%TO.N,SCLK*%
X93300000Y-37000000D02*
X93300000Y-40005953D01*
X93300000Y-40005953D02*
X93297057Y-40008896D01*
X110525000Y-58000000D02*
X105300000Y-58000000D01*
%TO.N,IO_1*%
X110326886Y-61500000D02*
X111962500Y-59864386D01*
X104200000Y-43400000D02*
X104200000Y-60600000D01*
X105100000Y-61500000D02*
X110326886Y-61500000D01*
X106000000Y-40005953D02*
X105997057Y-40008896D01*
X104200000Y-60600000D02*
X105100000Y-61500000D01*
X104200000Y-43400000D02*
X105997057Y-41602943D01*
X106000000Y-37000000D02*
X106000000Y-40005953D01*
X111962500Y-59864386D02*
X111962500Y-59437500D01*
X105997057Y-41602943D02*
X105997057Y-40008896D01*
D37*
%TO.N,+5V*%
X113700000Y-60725000D02*
X113700000Y-59675000D01*
X113500000Y-60925000D02*
X113700000Y-60725000D01*
X112400000Y-65300000D02*
X112400000Y-62025000D01*
D35*
X113462500Y-59437500D02*
X113700000Y-59675000D01*
D37*
X112400000Y-62025000D02*
X113500000Y-60925000D01*
X113500000Y-66400000D02*
X112400000Y-65300000D01*
D35*
%TO.N,SDI*%
X110525000Y-58500000D02*
X108900000Y-58500000D01*
X108900000Y-58500000D02*
X108400000Y-59000000D01*
X98380000Y-37000000D02*
X98380000Y-40005953D01*
X98380000Y-40005953D02*
X98377057Y-40008896D01*
%TO.N,Net-(JP1-A)*%
X118740000Y-45600000D02*
X120300000Y-45600000D01*
X120300000Y-45600000D02*
X121400000Y-46700000D01*
%TO.N,Net-(JP2-A)*%
X118740000Y-65700000D02*
X120325000Y-65700000D01*
X120325000Y-65700000D02*
X121400000Y-66775000D01*
%TO.N,Net-(JP3-A)*%
X118740000Y-49300000D02*
X120160000Y-50720000D01*
X120160000Y-50720000D02*
X121000000Y-50720000D01*
%TO.N,Net-(JP4-A)*%
X118740000Y-69400000D02*
X120300000Y-69400000D01*
X120300000Y-69400000D02*
X121400000Y-70500000D01*
%TO.N,Net-(C5-Pad1)*%
X117475000Y-58487500D02*
X118962500Y-57000000D01*
X117475000Y-58900000D02*
X117475000Y-58487500D01*
%TO.N,Net-(U1-INP)*%
X115025000Y-58000000D02*
X114400000Y-58000000D01*
X115925000Y-58900000D02*
X115025000Y-58000000D01*
%TO.N,Net-(U1-VDRV)*%
X112962500Y-54212500D02*
X113200000Y-53975000D01*
X112962500Y-55562500D02*
X112962500Y-54212500D01*
D37*
%TO.N,Net-(U1-VPWR)*%
X110000000Y-54062500D02*
X108212500Y-54062500D01*
X110000000Y-54062500D02*
X110000000Y-55100000D01*
X108212500Y-54062500D02*
X108100000Y-54175000D01*
X110000000Y-55100000D02*
X110462500Y-55562500D01*
D35*
X111462500Y-55562500D02*
X110462500Y-55562500D01*
%TO.N,Net-(JP5-A)*%
X118740000Y-53000000D02*
X120325000Y-53000000D01*
X120325000Y-53000000D02*
X121400000Y-54075000D01*
%TO.N,Net-(JP6-A)*%
X120325000Y-62025000D02*
X121400000Y-63100000D01*
X118740000Y-62025000D02*
X120325000Y-62025000D01*
D37*
%TO.N,Net-(D1-K)*%
X109300000Y-50437500D02*
X110000000Y-51137500D01*
X109300000Y-48700000D02*
X109300000Y-50437500D01*
D35*
X109600000Y-50737500D02*
X110000000Y-51137500D01*
D36*
%TO.N,VCC*%
X84315000Y-64700000D02*
X84315000Y-63070786D01*
X107100000Y-44700000D02*
X107000000Y-44800000D01*
X84315000Y-64700000D02*
X84315000Y-69500000D01*
X106500000Y-44700000D02*
X106400000Y-44800000D01*
X84315000Y-63070786D02*
X101492893Y-45892893D01*
X109300000Y-44700000D02*
X106500000Y-44700000D01*
X109300000Y-44700000D02*
X107100000Y-44700000D01*
X101492893Y-45892893D02*
X101942893Y-45442893D01*
X101942893Y-45442893D02*
X102000000Y-45385786D01*
%TO.N,Net-(J1-Pin_2)*%
X77675000Y-69500000D02*
X81775000Y-69500000D01*
D35*
%TO.N,Net-(JP1-B)*%
X112000000Y-53015256D02*
X112315256Y-52700000D01*
X112462500Y-54597244D02*
X112000000Y-54134744D01*
X112462500Y-55562500D02*
X112462500Y-54597244D01*
X115900000Y-52700000D02*
X116200000Y-53000000D01*
X112000000Y-54134744D02*
X112000000Y-53015256D01*
X112315256Y-52700000D02*
X115900000Y-52700000D01*
X116200000Y-45600000D02*
X116200000Y-53000000D01*
%TO.N,Net-(JP2-B)*%
X114400000Y-58800000D02*
X116200000Y-60600000D01*
X116200000Y-60600000D02*
X116200000Y-69400000D01*
X114400000Y-58500000D02*
X114400000Y-58800000D01*
%TO.N,+3.3V*%
X99912675Y-81999189D02*
X99912675Y-85247325D01*
X99912675Y-85247325D02*
X99900000Y-85260000D01*
%TO.N,Net-(A1-A3)*%
X122763426Y-82000000D02*
X122763426Y-85256574D01*
X122763426Y-85256574D02*
X122760000Y-85260000D01*
%TO.N,RESET*%
X97372675Y-81999189D02*
X97372675Y-85247325D01*
X97372675Y-85247325D02*
X97360000Y-85260000D01*
%TO.N,Net-(A1-D1{slash}TX)*%
X125300000Y-37000000D02*
X125300000Y-39997179D01*
X125300000Y-39997179D02*
X125302821Y-40000000D01*
%TO.N,Net-(J6-Pin_6)*%
X127843426Y-85256574D02*
X127840000Y-85260000D01*
X127843426Y-82000000D02*
X127843426Y-85256574D01*
%TO.N,Net-(J6-Pin_5)*%
X125303426Y-82000000D02*
X125303426Y-85256574D01*
X125303426Y-85256574D02*
X125300000Y-85260000D01*
%TO.N,Net-(A1-D4)*%
X117680000Y-39997179D02*
X117682821Y-40000000D01*
X117680000Y-37000000D02*
X117680000Y-39997179D01*
%TO.N,Net-(A1-D2)*%
X122760000Y-39997179D02*
X122762821Y-40000000D01*
X122760000Y-37000000D02*
X122760000Y-39997179D01*
%TO.N,Net-(J3-Pin_2)*%
X85680000Y-37000000D02*
X85680000Y-40005953D01*
X85680000Y-40005953D02*
X85677057Y-40008896D01*
%TO.N,Net-(A1-D0{slash}RX)*%
X127840000Y-37000000D02*
X127840000Y-39997179D01*
X127840000Y-39997179D02*
X127842821Y-40000000D01*
%TO.N,Net-(J3-Pin_1)*%
X83140000Y-40005953D02*
X83137057Y-40008896D01*
X83140000Y-37000000D02*
X83140000Y-40005953D01*
%TO.N,Net-(A1-A1)*%
X117683426Y-82000000D02*
X117683426Y-85256574D01*
X117683426Y-85256574D02*
X117680000Y-85260000D01*
%TO.N,Net-(A1-D3)*%
X120220000Y-39997179D02*
X120222821Y-40000000D01*
X120220000Y-37000000D02*
X120220000Y-39997179D01*
%TO.N,Net-(A1-AREF)*%
X88220000Y-40005953D02*
X88217057Y-40008896D01*
X88220000Y-37000000D02*
X88220000Y-40005953D01*
%TO.N,UREF*%
X94832675Y-85247325D02*
X94820000Y-85260000D01*
X94832675Y-81999189D02*
X94832675Y-85247325D01*
%TO.N,Net-(A1-D7)*%
X110060000Y-37000000D02*
X110060000Y-39997179D01*
X110060000Y-39997179D02*
X110062821Y-40000000D01*
%TO.N,Net-(A1-A2)*%
X120223426Y-85256574D02*
X120220000Y-85260000D01*
X120223426Y-82000000D02*
X120223426Y-85256574D01*
%TD*%
%TA.AperFunction,Conductor*%
%TO.N,GND*%
G36*
X107094075Y-84967007D02*
G01*
X107060000Y-85094174D01*
X107060000Y-85225826D01*
X107094075Y-85352993D01*
X107126988Y-85410000D01*
X105453012Y-85410000D01*
X105485925Y-85352993D01*
X105520000Y-85225826D01*
X105520000Y-85094174D01*
X105485925Y-84967007D01*
X105453012Y-84910000D01*
X107126988Y-84910000D01*
X107094075Y-84967007D01*
G37*
%TD.AperFunction*%
%TA.AperFunction,Conductor*%
G36*
X107782675Y-83329822D02*
G01*
X107996158Y-83272622D01*
X107996167Y-83272618D01*
X108210253Y-83172789D01*
X108403757Y-83037294D01*
X108570780Y-82870271D01*
X108700794Y-82684594D01*
X108755371Y-82640970D01*
X108824870Y-82633777D01*
X108887224Y-82665299D01*
X108903944Y-82684594D01*
X109034176Y-82870585D01*
X109037075Y-82874724D01*
X109059402Y-82940930D01*
X109059500Y-82945848D01*
X109059500Y-84339537D01*
X109039815Y-84406576D01*
X109037076Y-84410659D01*
X108969432Y-84507265D01*
X108942106Y-84565867D01*
X108895933Y-84618306D01*
X108828739Y-84637457D01*
X108761858Y-84617241D01*
X108717342Y-84565865D01*
X108690135Y-84507520D01*
X108690134Y-84507518D01*
X108559657Y-84321179D01*
X108398820Y-84160342D01*
X108212482Y-84029865D01*
X108006328Y-83933734D01*
X107810000Y-83881127D01*
X107810000Y-84726988D01*
X107752993Y-84694075D01*
X107625826Y-84660000D01*
X107494174Y-84660000D01*
X107367007Y-84694075D01*
X107310000Y-84726988D01*
X107310000Y-83881127D01*
X107113671Y-83933734D01*
X106907517Y-84029865D01*
X106721179Y-84160342D01*
X106560342Y-84321179D01*
X106429865Y-84507517D01*
X106402382Y-84566457D01*
X106356210Y-84618896D01*
X106289016Y-84638048D01*
X106222135Y-84617832D01*
X106177618Y-84566457D01*
X106150134Y-84507517D01*
X106019657Y-84321179D01*
X105858820Y-84160342D01*
X105672482Y-84029865D01*
X105466328Y-83933734D01*
X105270000Y-83881127D01*
X105270000Y-84726988D01*
X105212993Y-84694075D01*
X105085826Y-84660000D01*
X104954174Y-84660000D01*
X104827007Y-84694075D01*
X104770000Y-84726988D01*
X104770000Y-83881127D01*
X104573671Y-83933734D01*
X104367517Y-84029865D01*
X104181179Y-84160342D01*
X104020342Y-84321179D01*
X103889867Y-84507515D01*
X103862657Y-84565867D01*
X103816484Y-84618306D01*
X103749290Y-84637457D01*
X103682409Y-84617241D01*
X103637893Y-84565865D01*
X103610685Y-84507518D01*
X103610568Y-84507266D01*
X103480047Y-84320861D01*
X103480045Y-84320858D01*
X103319141Y-84159954D01*
X103132734Y-84029432D01*
X103132732Y-84029431D01*
X102926497Y-83933261D01*
X102926488Y-83933258D01*
X102706697Y-83874366D01*
X102706693Y-83874365D01*
X102706692Y-83874365D01*
X102706691Y-83874364D01*
X102706686Y-83874364D01*
X102480002Y-83854532D01*
X102479998Y-83854532D01*
X102253313Y-83874364D01*
X102253302Y-83874366D01*
X102033511Y-83933258D01*
X102033502Y-83933261D01*
X101827267Y-84029431D01*
X101827265Y-84029432D01*
X101640858Y-84159954D01*
X101479954Y-84320858D01*
X101349432Y-84507265D01*
X101349431Y-84507267D01*
X101322382Y-84565275D01*
X101276209Y-84617714D01*
X101209016Y-84636866D01*
X101142135Y-84616650D01*
X101097618Y-84565275D01*
X101070686Y-84507520D01*
X101070568Y-84507266D01*
X100940047Y-84320861D01*
X100940045Y-84320858D01*
X100779141Y-84159954D01*
X100592735Y-84029432D01*
X100592727Y-84029427D01*
X100584762Y-84025713D01*
X100532326Y-83979537D01*
X100513175Y-83913335D01*
X100513175Y-83288279D01*
X100532860Y-83221240D01*
X100584776Y-83175895D01*
X100590505Y-83173224D01*
X100784076Y-83037684D01*
X100951170Y-82870590D01*
X101081100Y-82685031D01*
X101135677Y-82641406D01*
X101205175Y-82634212D01*
X101267530Y-82665735D01*
X101284250Y-82685031D01*
X101414175Y-82870584D01*
X101414180Y-82870590D01*
X101581274Y-83037684D01*
X101659314Y-83092328D01*
X101774840Y-83173221D01*
X101774842Y-83173222D01*
X101774845Y-83173224D01*
X101989012Y-83273092D01*
X102217267Y-83334252D01*
X102393709Y-83349689D01*
X102452674Y-83354848D01*
X102452675Y-83354848D01*
X102452676Y-83354848D01*
X102491909Y-83351415D01*
X102688083Y-83334252D01*
X102916338Y-83273092D01*
X103130505Y-83173224D01*
X103324076Y-83037684D01*
X103491170Y-82870590D01*
X103621405Y-82684594D01*
X103675982Y-82640970D01*
X103745480Y-82633776D01*
X103807835Y-82665299D01*
X103824554Y-82684594D01*
X103954565Y-82870267D01*
X104121592Y-83037294D01*
X104315096Y-83172789D01*
X104529182Y-83272618D01*
X104529191Y-83272622D01*
X104742675Y-83329823D01*
X104742675Y-82432201D01*
X104799682Y-82465114D01*
X104926849Y-82499189D01*
X105058501Y-82499189D01*
X105185668Y-82465114D01*
X105242675Y-82432201D01*
X105242675Y-83329822D01*
X105456158Y-83272622D01*
X105456167Y-83272618D01*
X105670253Y-83172789D01*
X105863757Y-83037294D01*
X106030780Y-82870271D01*
X106161100Y-82684157D01*
X106215677Y-82640533D01*
X106285176Y-82633340D01*
X106347530Y-82664862D01*
X106364250Y-82684157D01*
X106494569Y-82870271D01*
X106661592Y-83037294D01*
X106855096Y-83172789D01*
X107069182Y-83272618D01*
X107069191Y-83272622D01*
X107282675Y-83329823D01*
X107282675Y-82432201D01*
X107339682Y-82465114D01*
X107466849Y-82499189D01*
X107598501Y-82499189D01*
X107725668Y-82465114D01*
X107782675Y-82432201D01*
X107782675Y-83329822D01*
G37*
%TD.AperFunction*%
%TA.AperFunction,Conductor*%
G36*
X107066750Y-81806196D02*
G01*
X107032675Y-81933363D01*
X107032675Y-82065015D01*
X107066750Y-82192182D01*
X107099663Y-82249189D01*
X105425687Y-82249189D01*
X105458600Y-82192182D01*
X105492675Y-82065015D01*
X105492675Y-81933363D01*
X105458600Y-81806196D01*
X105425687Y-81749189D01*
X107099663Y-81749189D01*
X107066750Y-81806196D01*
G37*
%TD.AperFunction*%
%TA.AperFunction,Conductor*%
G36*
X120301249Y-62850484D02*
G01*
X120388182Y-62937417D01*
X120421666Y-62998738D01*
X120424500Y-63025097D01*
X120424500Y-63373337D01*
X120424501Y-63373355D01*
X120434650Y-63472707D01*
X120434651Y-63472710D01*
X120487996Y-63633694D01*
X120488001Y-63633705D01*
X120577029Y-63778040D01*
X120577032Y-63778044D01*
X120696955Y-63897967D01*
X120696959Y-63897970D01*
X120841294Y-63986998D01*
X120841297Y-63986999D01*
X120841303Y-63987003D01*
X121002292Y-64040349D01*
X121002295Y-64040349D01*
X121007684Y-64041503D01*
X121069119Y-64074782D01*
X121102809Y-64135993D01*
X121098058Y-64205701D01*
X121056375Y-64261775D01*
X121007692Y-64284009D01*
X121002397Y-64285142D01*
X120841518Y-64338452D01*
X120841507Y-64338457D01*
X120697271Y-64427424D01*
X120697267Y-64427427D01*
X120577427Y-64547267D01*
X120577424Y-64547271D01*
X120488457Y-64691507D01*
X120488452Y-64691518D01*
X120435144Y-64852393D01*
X120425000Y-64951677D01*
X120425000Y-64975499D01*
X120405315Y-65042538D01*
X120352511Y-65088293D01*
X120301000Y-65099499D01*
X120238347Y-65099499D01*
X120238331Y-65099500D01*
X120214499Y-65099500D01*
X120147460Y-65079815D01*
X120101705Y-65027011D01*
X120090499Y-64975500D01*
X120090499Y-64802129D01*
X120090498Y-64802123D01*
X120084091Y-64742516D01*
X120033797Y-64607671D01*
X120033793Y-64607664D01*
X119947547Y-64492455D01*
X119947544Y-64492452D01*
X119832335Y-64406206D01*
X119832328Y-64406202D01*
X119697482Y-64355908D01*
X119697483Y-64355908D01*
X119637883Y-64349501D01*
X119637881Y-64349500D01*
X119637873Y-64349500D01*
X119637864Y-64349500D01*
X117842129Y-64349500D01*
X117842123Y-64349501D01*
X117782516Y-64355908D01*
X117647671Y-64406202D01*
X117647664Y-64406206D01*
X117532455Y-64492452D01*
X117532452Y-64492455D01*
X117446206Y-64607664D01*
X117446203Y-64607669D01*
X117397189Y-64739083D01*
X117355317Y-64795016D01*
X117289853Y-64819433D01*
X117221580Y-64804581D01*
X117193326Y-64783430D01*
X117071402Y-64661506D01*
X117071395Y-64661501D01*
X116877831Y-64525965D01*
X116877826Y-64525962D01*
X116872091Y-64523288D01*
X116819653Y-64477113D01*
X116800500Y-64410908D01*
X116800500Y-63314090D01*
X116820185Y-63247051D01*
X116872101Y-63201706D01*
X116877830Y-63199035D01*
X117071401Y-63063495D01*
X117193329Y-62941566D01*
X117254648Y-62908084D01*
X117324340Y-62913068D01*
X117380274Y-62954939D01*
X117397189Y-62985917D01*
X117446202Y-63117328D01*
X117446206Y-63117335D01*
X117532452Y-63232544D01*
X117532455Y-63232547D01*
X117647664Y-63318793D01*
X117647671Y-63318797D01*
X117782517Y-63369091D01*
X117782516Y-63369091D01*
X117789444Y-63369835D01*
X117842127Y-63375500D01*
X119637872Y-63375499D01*
X119697483Y-63369091D01*
X119832331Y-63318796D01*
X119947546Y-63232546D01*
X120033796Y-63117331D01*
X120084091Y-62982483D01*
X120090281Y-62924907D01*
X120117017Y-62860362D01*
X120174409Y-62820513D01*
X120244234Y-62818018D01*
X120301249Y-62850484D01*
G37*
%TD.AperFunction*%
%TA.AperFunction,Conductor*%
G36*
X107583976Y-58620185D02*
G01*
X107629731Y-58672989D01*
X107639675Y-58742147D01*
X107633978Y-58765455D01*
X107614633Y-58820737D01*
X107614630Y-58820750D01*
X107594435Y-58999996D01*
X107594435Y-59000003D01*
X107614630Y-59179249D01*
X107614631Y-59179254D01*
X107674211Y-59349523D01*
X107742808Y-59458694D01*
X107770184Y-59502262D01*
X107897738Y-59629816D01*
X107977936Y-59680208D01*
X108045991Y-59722970D01*
X108050478Y-59725789D01*
X108220745Y-59785368D01*
X108220750Y-59785369D01*
X108399996Y-59805565D01*
X108400000Y-59805565D01*
X108400004Y-59805565D01*
X108579249Y-59785369D01*
X108579252Y-59785368D01*
X108579255Y-59785368D01*
X108749522Y-59725789D01*
X108902262Y-59629816D01*
X109029816Y-59502262D01*
X109125789Y-59349522D01*
X109183867Y-59183545D01*
X109224589Y-59126769D01*
X109289542Y-59101022D01*
X109300909Y-59100500D01*
X109650902Y-59100500D01*
X109717941Y-59120185D01*
X109763696Y-59172989D01*
X109773640Y-59242147D01*
X109744615Y-59305703D01*
X109738583Y-59312181D01*
X108897457Y-60153306D01*
X108836134Y-60186791D01*
X108766442Y-60181807D01*
X108756066Y-60176665D01*
X108755794Y-60177231D01*
X108749521Y-60174210D01*
X108579262Y-60114633D01*
X108579249Y-60114630D01*
X108400004Y-60094435D01*
X108399996Y-60094435D01*
X108220750Y-60114630D01*
X108220745Y-60114631D01*
X108050476Y-60174211D01*
X107897737Y-60270184D01*
X107770184Y-60397737D01*
X107674210Y-60550478D01*
X107614630Y-60720750D01*
X107606898Y-60789383D01*
X107579832Y-60853797D01*
X107522237Y-60893352D01*
X107483678Y-60899500D01*
X105400097Y-60899500D01*
X105333058Y-60879815D01*
X105312416Y-60863181D01*
X104836819Y-60387584D01*
X104803334Y-60326261D01*
X104800500Y-60299903D01*
X104800500Y-58848071D01*
X104820185Y-58781032D01*
X104872989Y-58735277D01*
X104942147Y-58725333D01*
X104965455Y-58731030D01*
X105120737Y-58785366D01*
X105120743Y-58785367D01*
X105120745Y-58785368D01*
X105120746Y-58785368D01*
X105120750Y-58785369D01*
X105299996Y-58805565D01*
X105300000Y-58805565D01*
X105300004Y-58805565D01*
X105479249Y-58785369D01*
X105479252Y-58785368D01*
X105479255Y-58785368D01*
X105649522Y-58725789D01*
X105802262Y-58629816D01*
X105802267Y-58629810D01*
X105805097Y-58627555D01*
X105807275Y-58626665D01*
X105808158Y-58626111D01*
X105808255Y-58626265D01*
X105869783Y-58601145D01*
X105882412Y-58600500D01*
X107516937Y-58600500D01*
X107583976Y-58620185D01*
G37*
%TD.AperFunction*%
%TA.AperFunction,Conductor*%
G36*
X113245014Y-56459501D02*
G01*
X113245174Y-56458905D01*
X113253024Y-56461008D01*
X113253026Y-56461008D01*
X113253028Y-56461009D01*
X113363099Y-56475500D01*
X113363103Y-56475499D01*
X113363104Y-56475500D01*
X113364374Y-56475583D01*
X113362500Y-56480109D01*
X113362500Y-56519891D01*
X113377724Y-56556645D01*
X113405855Y-56584776D01*
X113442609Y-56600000D01*
X113482391Y-56600000D01*
X113486916Y-56598125D01*
X113487000Y-56599399D01*
X113501488Y-56709463D01*
X113503594Y-56717318D01*
X113501702Y-56717825D01*
X113508033Y-56776701D01*
X113476759Y-56839180D01*
X113473684Y-56842367D01*
X113135785Y-57180266D01*
X113294556Y-57235824D01*
X113380511Y-57245508D01*
X113444925Y-57272574D01*
X113484481Y-57330168D01*
X113488383Y-57372160D01*
X113490874Y-57375000D01*
X113520529Y-57375000D01*
X113587568Y-57394685D01*
X113633323Y-57447489D01*
X113643267Y-57516647D01*
X113618897Y-57574497D01*
X113617362Y-57576497D01*
X113560929Y-57617694D01*
X113518994Y-57625000D01*
X113490873Y-57625000D01*
X113487405Y-57628954D01*
X113478802Y-57684122D01*
X113432422Y-57736377D01*
X113380513Y-57754491D01*
X113294557Y-57764175D01*
X113294553Y-57764176D01*
X113135785Y-57819732D01*
X113469199Y-58153146D01*
X113497659Y-58202437D01*
X113498443Y-58202114D01*
X113498684Y-58202698D01*
X113498880Y-58204551D01*
X113501291Y-58208726D01*
X113503593Y-58217315D01*
X113500329Y-58218189D01*
X113506062Y-58272177D01*
X113503023Y-58282523D01*
X113503595Y-58282677D01*
X113501490Y-58290529D01*
X113487001Y-58400589D01*
X113486916Y-58401874D01*
X113482391Y-58400000D01*
X113442609Y-58400000D01*
X113405855Y-58415224D01*
X113377724Y-58443355D01*
X113362500Y-58480109D01*
X113362500Y-58519891D01*
X113364374Y-58524416D01*
X113363100Y-58524500D01*
X113253031Y-58538989D01*
X113245178Y-58541094D01*
X113244302Y-58537824D01*
X113190353Y-58543567D01*
X113179969Y-58540516D01*
X113179815Y-58541093D01*
X113171226Y-58538791D01*
X113168252Y-58537073D01*
X113165128Y-58536156D01*
X113164545Y-58535915D01*
X113164872Y-58535122D01*
X113115646Y-58506699D01*
X112782232Y-58173285D01*
X112726676Y-58332053D01*
X112726675Y-58332057D01*
X112717047Y-58417517D01*
X112689981Y-58481930D01*
X112632386Y-58521486D01*
X112577643Y-58526572D01*
X112561903Y-58524500D01*
X112363103Y-58524500D01*
X112350951Y-58526100D01*
X112347353Y-58526573D01*
X112278319Y-58515806D01*
X112226065Y-58469425D01*
X112207951Y-58417516D01*
X112198322Y-58332052D01*
X112142766Y-58173285D01*
X111809351Y-58506700D01*
X111760062Y-58535158D01*
X111760386Y-58535943D01*
X111759802Y-58536184D01*
X111757944Y-58536381D01*
X111753769Y-58538792D01*
X111745183Y-58541093D01*
X111744308Y-58537829D01*
X111690323Y-58543562D01*
X111679976Y-58540523D01*
X111679823Y-58541095D01*
X111671970Y-58538990D01*
X111561910Y-58524501D01*
X111561907Y-58524500D01*
X111561901Y-58524500D01*
X111561895Y-58524500D01*
X111560625Y-58524416D01*
X111562500Y-58519891D01*
X111562500Y-58480109D01*
X111547276Y-58443355D01*
X111519145Y-58415224D01*
X111482391Y-58400000D01*
X111442609Y-58400000D01*
X111438082Y-58401874D01*
X111437999Y-58400603D01*
X111437999Y-58400600D01*
X111423509Y-58290528D01*
X111423508Y-58290525D01*
X111421405Y-58282674D01*
X111424707Y-58281789D01*
X111418892Y-58228075D01*
X111422002Y-58217482D01*
X111421405Y-58217323D01*
X111423707Y-58208732D01*
X111425466Y-58205684D01*
X111426413Y-58202461D01*
X111426655Y-58201878D01*
X111427469Y-58202215D01*
X111455801Y-58153145D01*
X111789214Y-57819732D01*
X111630443Y-57764176D01*
X111630438Y-57764175D01*
X111544983Y-57754547D01*
X111480569Y-57727481D01*
X111441013Y-57669886D01*
X111435927Y-57615142D01*
X111438000Y-57599401D01*
X111437999Y-57400600D01*
X111435926Y-57384856D01*
X111446690Y-57315825D01*
X111493069Y-57263568D01*
X111544983Y-57245451D01*
X111630447Y-57235822D01*
X111789213Y-57180267D01*
X111789213Y-57180266D01*
X111451315Y-56842368D01*
X111417830Y-56781045D01*
X111422368Y-56717584D01*
X111421405Y-56717326D01*
X111422744Y-56712326D01*
X111422814Y-56711354D01*
X111423412Y-56709832D01*
X111423508Y-56709475D01*
X111423508Y-56709474D01*
X111423509Y-56709472D01*
X111438000Y-56599401D01*
X111438000Y-56599395D01*
X111438083Y-56598125D01*
X111442609Y-56600000D01*
X111482391Y-56600000D01*
X111519145Y-56584776D01*
X111547276Y-56556645D01*
X111562500Y-56519891D01*
X111562500Y-56480109D01*
X111560625Y-56475582D01*
X111561896Y-56475499D01*
X111561900Y-56475499D01*
X111671972Y-56461009D01*
X111671975Y-56461007D01*
X111679826Y-56458905D01*
X111680710Y-56462207D01*
X111734425Y-56456392D01*
X111745011Y-56459500D01*
X111745171Y-56458904D01*
X111753760Y-56461205D01*
X111756806Y-56462963D01*
X111760039Y-56463913D01*
X111760622Y-56464155D01*
X111760283Y-56464971D01*
X111809353Y-56493300D01*
X112142766Y-56826713D01*
X112142767Y-56826713D01*
X112198322Y-56667947D01*
X112207951Y-56582484D01*
X112235017Y-56518070D01*
X112292612Y-56478514D01*
X112347356Y-56473427D01*
X112363099Y-56475500D01*
X112561900Y-56475499D01*
X112577641Y-56473426D01*
X112646672Y-56484190D01*
X112698929Y-56530568D01*
X112717046Y-56582480D01*
X112726675Y-56667940D01*
X112726676Y-56667943D01*
X112782232Y-56826713D01*
X112782232Y-56826714D01*
X113115645Y-56493301D01*
X113164715Y-56464969D01*
X113164378Y-56464155D01*
X113164961Y-56463913D01*
X113166910Y-56463701D01*
X113171232Y-56461207D01*
X113171969Y-56461009D01*
X113171972Y-56461009D01*
X113171973Y-56461008D01*
X113179823Y-56458905D01*
X113180708Y-56462208D01*
X113234425Y-56456392D01*
X113245014Y-56459501D01*
G37*
%TD.AperFunction*%
%TA.AperFunction,Conductor*%
G36*
X109091942Y-55920185D02*
G01*
X109112584Y-55936819D01*
X109575681Y-56399916D01*
X109609166Y-56461239D01*
X109612000Y-56487596D01*
X109612000Y-56599402D01*
X109626489Y-56709468D01*
X109628594Y-56717322D01*
X109625510Y-56718148D01*
X109631349Y-56772737D01*
X109628514Y-56782652D01*
X109629082Y-56782804D01*
X109626978Y-56790654D01*
X109626843Y-56791686D01*
X109626486Y-56792491D01*
X109624876Y-56798504D01*
X109623937Y-56798252D01*
X109598576Y-56855583D01*
X109540251Y-56894053D01*
X109503904Y-56899500D01*
X109469469Y-56899500D01*
X109428548Y-56910464D01*
X109428548Y-56910465D01*
X109391280Y-56920451D01*
X109316743Y-56940423D01*
X109316742Y-56940424D01*
X109243195Y-56982887D01*
X109181195Y-56999500D01*
X108400097Y-56999500D01*
X108333058Y-56979815D01*
X108312416Y-56963181D01*
X107830700Y-56481465D01*
X107797215Y-56420142D01*
X107795163Y-56407686D01*
X107785368Y-56320745D01*
X107725789Y-56150478D01*
X107725788Y-56150476D01*
X107688085Y-56090472D01*
X107669085Y-56023235D01*
X107689453Y-55956400D01*
X107742721Y-55911186D01*
X107793079Y-55900500D01*
X109024903Y-55900500D01*
X109091942Y-55920185D01*
G37*
%TD.AperFunction*%
%TA.AperFunction,Conductor*%
G36*
X105405703Y-45048260D02*
G01*
X105439061Y-45094520D01*
X105513367Y-45273910D01*
X105513372Y-45273920D01*
X105622860Y-45437780D01*
X105622863Y-45437784D01*
X105762215Y-45577136D01*
X105762219Y-45577139D01*
X105926079Y-45686627D01*
X105926083Y-45686629D01*
X105926086Y-45686631D01*
X106108164Y-45762051D01*
X106301455Y-45800499D01*
X106301458Y-45800500D01*
X106301460Y-45800500D01*
X106498542Y-45800500D01*
X106636847Y-45772989D01*
X106675809Y-45765239D01*
X106724191Y-45765239D01*
X106763153Y-45772989D01*
X106901457Y-45800500D01*
X106901460Y-45800500D01*
X107098542Y-45800500D01*
X107098543Y-45800499D01*
X107291836Y-45762051D01*
X107417644Y-45709938D01*
X107465097Y-45700500D01*
X107782465Y-45700500D01*
X107849504Y-45720185D01*
X107895259Y-45772989D01*
X107905823Y-45811898D01*
X107910001Y-45852797D01*
X107910001Y-45852799D01*
X107965185Y-46019331D01*
X107965187Y-46019336D01*
X107992523Y-46063655D01*
X108057288Y-46168656D01*
X108181344Y-46292712D01*
X108330666Y-46384814D01*
X108497203Y-46439999D01*
X108599991Y-46450500D01*
X110000008Y-46450499D01*
X110102797Y-46439999D01*
X110269334Y-46384814D01*
X110418656Y-46292712D01*
X110542712Y-46168656D01*
X110569961Y-46124477D01*
X110621909Y-46077753D01*
X110690871Y-46066530D01*
X110754953Y-46094373D01*
X110793810Y-46152442D01*
X110799500Y-46189574D01*
X110799500Y-47210425D01*
X110779815Y-47277464D01*
X110727011Y-47323219D01*
X110657853Y-47333163D01*
X110594297Y-47304138D01*
X110569962Y-47275522D01*
X110542714Y-47231347D01*
X110542711Y-47231343D01*
X110418657Y-47107289D01*
X110418656Y-47107288D01*
X110269334Y-47015186D01*
X110102797Y-46960001D01*
X110102795Y-46960000D01*
X110000010Y-46949500D01*
X108599998Y-46949500D01*
X108599981Y-46949501D01*
X108497203Y-46960000D01*
X108497200Y-46960001D01*
X108330668Y-47015185D01*
X108330663Y-47015187D01*
X108181342Y-47107289D01*
X108057289Y-47231342D01*
X107965187Y-47380663D01*
X107965186Y-47380666D01*
X107910001Y-47547203D01*
X107910001Y-47547204D01*
X107910000Y-47547204D01*
X107899500Y-47649983D01*
X107899500Y-49750001D01*
X107899501Y-49750018D01*
X107910000Y-49852796D01*
X107910001Y-49852799D01*
X107965185Y-50019331D01*
X107965187Y-50019336D01*
X107993639Y-50065464D01*
X108057288Y-50168656D01*
X108181344Y-50292712D01*
X108330666Y-50384814D01*
X108469452Y-50430803D01*
X108526897Y-50470576D01*
X108552065Y-50524317D01*
X108578340Y-50656407D01*
X108578342Y-50656413D01*
X108615061Y-50745060D01*
X108624500Y-50792513D01*
X108624500Y-51500001D01*
X108624502Y-51500022D01*
X108629481Y-51548768D01*
X108616711Y-51617461D01*
X108568829Y-51668344D01*
X108501039Y-51685264D01*
X108493521Y-51684726D01*
X108398324Y-51675000D01*
X108350000Y-51675000D01*
X108350000Y-52375000D01*
X109074999Y-52375000D01*
X109074999Y-52351692D01*
X109074998Y-52351682D01*
X109072139Y-52323695D01*
X109084908Y-52255002D01*
X109132788Y-52204117D01*
X109200577Y-52187195D01*
X109221462Y-52189840D01*
X109222199Y-52189997D01*
X109222203Y-52189999D01*
X109324991Y-52200500D01*
X110675008Y-52200499D01*
X110675500Y-52200499D01*
X110742539Y-52220184D01*
X110788294Y-52272987D01*
X110799500Y-52324499D01*
X110799500Y-52875500D01*
X110779815Y-52942539D01*
X110727011Y-52988294D01*
X110675500Y-52999500D01*
X109324998Y-52999500D01*
X109324981Y-52999501D01*
X109215468Y-53010689D01*
X109215263Y-53008690D01*
X109155259Y-53004187D01*
X109099472Y-52962119D01*
X109075286Y-52896570D01*
X109075000Y-52888158D01*
X109075000Y-52875000D01*
X107125001Y-52875000D01*
X107125001Y-52898322D01*
X107135144Y-52997607D01*
X107188452Y-53158481D01*
X107188457Y-53158492D01*
X107277424Y-53302728D01*
X107277427Y-53302732D01*
X107286660Y-53311965D01*
X107320145Y-53373288D01*
X107315161Y-53442980D01*
X107286663Y-53487324D01*
X107277033Y-53496953D01*
X107277029Y-53496959D01*
X107188001Y-53641294D01*
X107187996Y-53641305D01*
X107134651Y-53802290D01*
X107124500Y-53901647D01*
X107124500Y-54075903D01*
X107104815Y-54142942D01*
X107052011Y-54188697D01*
X106982853Y-54198641D01*
X106919297Y-54169616D01*
X106912819Y-54163584D01*
X105236819Y-52487584D01*
X105203334Y-52426261D01*
X105200500Y-52399903D01*
X105200500Y-52351677D01*
X107125000Y-52351677D01*
X107125000Y-52375000D01*
X107850000Y-52375000D01*
X107850000Y-51675000D01*
X107849999Y-51674999D01*
X107801693Y-51675000D01*
X107801675Y-51675001D01*
X107702392Y-51685144D01*
X107541518Y-51738452D01*
X107541507Y-51738457D01*
X107397271Y-51827424D01*
X107397267Y-51827427D01*
X107277427Y-51947267D01*
X107277424Y-51947271D01*
X107188457Y-52091507D01*
X107188452Y-52091518D01*
X107135144Y-52252393D01*
X107125000Y-52351677D01*
X105200500Y-52351677D01*
X105200500Y-45141973D01*
X105220185Y-45074934D01*
X105272989Y-45029179D01*
X105342147Y-45019235D01*
X105405703Y-45048260D01*
G37*
%TD.AperFunction*%
%TA.AperFunction,Conductor*%
G36*
X117324340Y-50188068D02*
G01*
X117380274Y-50229939D01*
X117397189Y-50260917D01*
X117446202Y-50392328D01*
X117446206Y-50392335D01*
X117532452Y-50507544D01*
X117532455Y-50507547D01*
X117647664Y-50593793D01*
X117647671Y-50593797D01*
X117782517Y-50644091D01*
X117782516Y-50644091D01*
X117789444Y-50644835D01*
X117842127Y-50650500D01*
X119189902Y-50650499D01*
X119256941Y-50670184D01*
X119277583Y-50686818D01*
X119675139Y-51084374D01*
X119675149Y-51084385D01*
X119679479Y-51088715D01*
X119679480Y-51088716D01*
X119791284Y-51200520D01*
X119878095Y-51250639D01*
X119878097Y-51250641D01*
X119928213Y-51279576D01*
X119928215Y-51279577D01*
X120080942Y-51320500D01*
X120080943Y-51320500D01*
X120484646Y-51320500D01*
X120551685Y-51340185D01*
X120560118Y-51346113D01*
X120597159Y-51374536D01*
X120597162Y-51374537D01*
X120597163Y-51374538D01*
X120670198Y-51404790D01*
X120743238Y-51435044D01*
X120750425Y-51435990D01*
X120814322Y-51464255D01*
X120852794Y-51522579D01*
X120853627Y-51592443D01*
X120816556Y-51651667D01*
X120799340Y-51664467D01*
X120697268Y-51727426D01*
X120577427Y-51847267D01*
X120577424Y-51847271D01*
X120488457Y-51991507D01*
X120488452Y-51991518D01*
X120435144Y-52152393D01*
X120425000Y-52251677D01*
X120425000Y-52275499D01*
X120405315Y-52342538D01*
X120352511Y-52388293D01*
X120301000Y-52399499D01*
X120238347Y-52399499D01*
X120238331Y-52399500D01*
X120214499Y-52399500D01*
X120147460Y-52379815D01*
X120101705Y-52327011D01*
X120090499Y-52275500D01*
X120090499Y-52102129D01*
X120090498Y-52102123D01*
X120089911Y-52096666D01*
X120084091Y-52042517D01*
X120082810Y-52039083D01*
X120033797Y-51907671D01*
X120033793Y-51907664D01*
X119947547Y-51792455D01*
X119947544Y-51792452D01*
X119832335Y-51706206D01*
X119832328Y-51706202D01*
X119697482Y-51655908D01*
X119697483Y-51655908D01*
X119637883Y-51649501D01*
X119637881Y-51649500D01*
X119637873Y-51649500D01*
X119637864Y-51649500D01*
X117842129Y-51649500D01*
X117842123Y-51649501D01*
X117782516Y-51655908D01*
X117647671Y-51706202D01*
X117647664Y-51706206D01*
X117532455Y-51792452D01*
X117532452Y-51792455D01*
X117446206Y-51907664D01*
X117446203Y-51907669D01*
X117397189Y-52039083D01*
X117355317Y-52095016D01*
X117289853Y-52119433D01*
X117221580Y-52104581D01*
X117193326Y-52083430D01*
X117071402Y-51961506D01*
X117071395Y-51961501D01*
X116877831Y-51825965D01*
X116877826Y-51825962D01*
X116872091Y-51823288D01*
X116819653Y-51777113D01*
X116800500Y-51710908D01*
X116800500Y-50589090D01*
X116820185Y-50522051D01*
X116872101Y-50476706D01*
X116877830Y-50474035D01*
X117071401Y-50338495D01*
X117193329Y-50216566D01*
X117254648Y-50183084D01*
X117324340Y-50188068D01*
G37*
%TD.AperFunction*%
%TA.AperFunction,Conductor*%
G36*
X91050000Y-38178872D02*
G01*
X91246317Y-38126269D01*
X91246326Y-38126265D01*
X91452482Y-38030134D01*
X91638820Y-37899657D01*
X91799657Y-37738820D01*
X91930132Y-37552484D01*
X91957341Y-37494134D01*
X92003513Y-37441695D01*
X92070707Y-37422542D01*
X92137588Y-37442757D01*
X92182106Y-37494133D01*
X92209431Y-37552732D01*
X92209432Y-37552734D01*
X92339954Y-37739141D01*
X92500855Y-37900042D01*
X92500858Y-37900044D01*
X92500861Y-37900047D01*
X92646626Y-38002111D01*
X92690248Y-38056685D01*
X92699500Y-38103684D01*
X92699500Y-38718432D01*
X92679815Y-38785471D01*
X92627909Y-38830812D01*
X92619231Y-38834858D01*
X92619226Y-38834861D01*
X92425654Y-38970401D01*
X92258565Y-39137490D01*
X92128326Y-39323491D01*
X92073749Y-39367115D01*
X92004250Y-39374308D01*
X91941896Y-39342786D01*
X91925176Y-39323490D01*
X91795170Y-39137822D01*
X91795165Y-39137816D01*
X91628139Y-38970790D01*
X91434635Y-38835295D01*
X91220549Y-38735466D01*
X91220543Y-38735463D01*
X91007057Y-38678260D01*
X91007057Y-39575884D01*
X90950050Y-39542971D01*
X90822883Y-39508896D01*
X90691231Y-39508896D01*
X90564064Y-39542971D01*
X90507057Y-39575884D01*
X90507057Y-38678260D01*
X90507056Y-38678260D01*
X90293570Y-38735463D01*
X90293564Y-38735466D01*
X90079479Y-38835295D01*
X90079477Y-38835296D01*
X89885983Y-38970782D01*
X89885977Y-38970787D01*
X89718948Y-39137816D01*
X89718947Y-39137818D01*
X89588937Y-39323491D01*
X89534360Y-39367115D01*
X89464861Y-39374308D01*
X89402507Y-39342786D01*
X89385787Y-39323490D01*
X89255551Y-39137493D01*
X89088459Y-38970402D01*
X89088452Y-38970397D01*
X89075754Y-38961506D01*
X89011575Y-38916567D01*
X88894888Y-38834861D01*
X88894878Y-38834855D01*
X88892085Y-38833553D01*
X88891063Y-38832653D01*
X88890197Y-38832153D01*
X88890297Y-38831978D01*
X88839650Y-38787376D01*
X88820500Y-38721176D01*
X88820500Y-38152573D01*
X88840185Y-38085534D01*
X88892093Y-38040192D01*
X88912734Y-38030568D01*
X89099139Y-37900047D01*
X89260047Y-37739139D01*
X89390568Y-37552734D01*
X89417895Y-37494129D01*
X89464064Y-37441695D01*
X89531257Y-37422542D01*
X89598139Y-37442757D01*
X89642657Y-37494133D01*
X89669865Y-37552482D01*
X89800342Y-37738820D01*
X89961179Y-37899657D01*
X90147517Y-38030134D01*
X90353673Y-38126265D01*
X90353682Y-38126269D01*
X90549999Y-38178872D01*
X90550000Y-38178871D01*
X90550000Y-37333012D01*
X90607007Y-37365925D01*
X90734174Y-37400000D01*
X90865826Y-37400000D01*
X90992993Y-37365925D01*
X91050000Y-37333012D01*
X91050000Y-38178872D01*
G37*
%TD.AperFunction*%
%TA.AperFunction,Conductor*%
G36*
X128608363Y-34720185D02*
G01*
X128629005Y-34736819D01*
X130063181Y-36170995D01*
X130096666Y-36232318D01*
X130099500Y-36258676D01*
X130099500Y-47334108D01*
X130099500Y-47465892D01*
X130108095Y-47497968D01*
X130133608Y-47593187D01*
X130160837Y-47640348D01*
X130199500Y-47707314D01*
X130199502Y-47707316D01*
X132563181Y-50070995D01*
X132596666Y-50132318D01*
X132599500Y-50158676D01*
X132599500Y-82541324D01*
X132579815Y-82608363D01*
X132563181Y-82629005D01*
X130199502Y-84992683D01*
X130199500Y-84992686D01*
X130133608Y-85106812D01*
X130099500Y-85234108D01*
X130099500Y-87375500D01*
X130079815Y-87442539D01*
X130027011Y-87488294D01*
X129975500Y-87499500D01*
X64724500Y-87499500D01*
X64657461Y-87479815D01*
X64611706Y-87427011D01*
X64600500Y-87375500D01*
X64600500Y-72499999D01*
X66469357Y-72499999D01*
X66469357Y-72500000D01*
X66489884Y-72721535D01*
X66489885Y-72721537D01*
X66550769Y-72935523D01*
X66550775Y-72935538D01*
X66649938Y-73134683D01*
X66649943Y-73134691D01*
X66784020Y-73312238D01*
X66948437Y-73462123D01*
X66948439Y-73462125D01*
X67137595Y-73579245D01*
X67137596Y-73579245D01*
X67137599Y-73579247D01*
X67345060Y-73659618D01*
X67563757Y-73700500D01*
X67563759Y-73700500D01*
X67786241Y-73700500D01*
X67786243Y-73700500D01*
X68004940Y-73659618D01*
X68212401Y-73579247D01*
X68401562Y-73462124D01*
X68565981Y-73312236D01*
X68700058Y-73134689D01*
X68799229Y-72935528D01*
X68860115Y-72721536D01*
X68880643Y-72500000D01*
X68874656Y-72435394D01*
X68860115Y-72278464D01*
X68860114Y-72278462D01*
X68809337Y-72100000D01*
X68799229Y-72064472D01*
X68799224Y-72064461D01*
X68700061Y-71865316D01*
X68700056Y-71865308D01*
X68565979Y-71687761D01*
X68401562Y-71537876D01*
X68401560Y-71537874D01*
X68212404Y-71420754D01*
X68212398Y-71420752D01*
X68004940Y-71340382D01*
X67786243Y-71299500D01*
X67563757Y-71299500D01*
X67345060Y-71340382D01*
X67224731Y-71386998D01*
X67137601Y-71420752D01*
X67137595Y-71420754D01*
X66948439Y-71537874D01*
X66948437Y-71537876D01*
X66784020Y-71687761D01*
X66649943Y-71865308D01*
X66649938Y-71865316D01*
X66550775Y-72064461D01*
X66550769Y-72064476D01*
X66489885Y-72278462D01*
X66489884Y-72278464D01*
X66469357Y-72499999D01*
X64600500Y-72499999D01*
X64600500Y-61499999D01*
X66469357Y-61499999D01*
X66469357Y-61500000D01*
X66489884Y-61721535D01*
X66489885Y-61721537D01*
X66550769Y-61935523D01*
X66550775Y-61935538D01*
X66649938Y-62134683D01*
X66649943Y-62134691D01*
X66784020Y-62312238D01*
X66948437Y-62462123D01*
X66948439Y-62462125D01*
X67137595Y-62579245D01*
X67137596Y-62579245D01*
X67137599Y-62579247D01*
X67345060Y-62659618D01*
X67563757Y-62700500D01*
X67563759Y-62700500D01*
X67786241Y-62700500D01*
X67786243Y-62700500D01*
X68004940Y-62659618D01*
X68212401Y-62579247D01*
X68401562Y-62462124D01*
X68565981Y-62312236D01*
X68700058Y-62134689D01*
X68799229Y-61935528D01*
X68860115Y-61721536D01*
X68880643Y-61500000D01*
X68876815Y-61458694D01*
X68860115Y-61278464D01*
X68860114Y-61278462D01*
X68859610Y-61276692D01*
X68799229Y-61064472D01*
X68799224Y-61064461D01*
X68700061Y-60865316D01*
X68700056Y-60865308D01*
X68565979Y-60687761D01*
X68401562Y-60537876D01*
X68401560Y-60537874D01*
X68212404Y-60420754D01*
X68212398Y-60420752D01*
X68004940Y-60340382D01*
X67786243Y-60299500D01*
X67563757Y-60299500D01*
X67345060Y-60340382D01*
X67223218Y-60387584D01*
X67137601Y-60420752D01*
X67137595Y-60420754D01*
X66948439Y-60537874D01*
X66948437Y-60537876D01*
X66784020Y-60687761D01*
X66649943Y-60865308D01*
X66649938Y-60865316D01*
X66550775Y-61064461D01*
X66550769Y-61064476D01*
X66489885Y-61278462D01*
X66489884Y-61278464D01*
X66469357Y-61499999D01*
X64600500Y-61499999D01*
X64600500Y-42747844D01*
X67400000Y-42747844D01*
X67406401Y-42807372D01*
X67406403Y-42807379D01*
X67456645Y-42942086D01*
X67456649Y-42942093D01*
X67542809Y-43057187D01*
X67542812Y-43057190D01*
X67657906Y-43143350D01*
X67657913Y-43143354D01*
X67792620Y-43193596D01*
X67792627Y-43193598D01*
X67852155Y-43199999D01*
X67852172Y-43200000D01*
X69050000Y-43200000D01*
X69550000Y-43200000D01*
X70747828Y-43200000D01*
X70747844Y-43199999D01*
X70807372Y-43193598D01*
X70807379Y-43193596D01*
X70942086Y-43143354D01*
X70942093Y-43143350D01*
X71057187Y-43057190D01*
X71057190Y-43057187D01*
X71143350Y-42942093D01*
X71143354Y-42942086D01*
X71193596Y-42807379D01*
X71193598Y-42807372D01*
X71199999Y-42747844D01*
X71200000Y-42747827D01*
X71200000Y-42450000D01*
X69550000Y-42450000D01*
X69550000Y-43200000D01*
X69050000Y-43200000D01*
X69050000Y-42450000D01*
X67400000Y-42450000D01*
X67400000Y-42747844D01*
X64600500Y-42747844D01*
X64600500Y-41652155D01*
X67400000Y-41652155D01*
X67400000Y-41950000D01*
X69050000Y-41950000D01*
X69550000Y-41950000D01*
X71200000Y-41950000D01*
X71200000Y-41652172D01*
X71199999Y-41652155D01*
X71193598Y-41592627D01*
X71193596Y-41592620D01*
X71143354Y-41457913D01*
X71143350Y-41457906D01*
X71057190Y-41342812D01*
X71057187Y-41342809D01*
X70942093Y-41256649D01*
X70942086Y-41256645D01*
X70807379Y-41206403D01*
X70807372Y-41206401D01*
X70747844Y-41200000D01*
X69550000Y-41200000D01*
X69550000Y-41950000D01*
X69050000Y-41950000D01*
X69050000Y-41200000D01*
X67852155Y-41200000D01*
X67792627Y-41206401D01*
X67792620Y-41206403D01*
X67657913Y-41256645D01*
X67657906Y-41256649D01*
X67542812Y-41342809D01*
X67542809Y-41342812D01*
X67456649Y-41457906D01*
X67456645Y-41457913D01*
X67406403Y-41592620D01*
X67406401Y-41592627D01*
X67400000Y-41652155D01*
X64600500Y-41652155D01*
X64600500Y-37652135D01*
X67399500Y-37652135D01*
X67399500Y-38747870D01*
X67399501Y-38747876D01*
X67405908Y-38807483D01*
X67456202Y-38942328D01*
X67456206Y-38942335D01*
X67542452Y-39057544D01*
X67542455Y-39057547D01*
X67657664Y-39143793D01*
X67657671Y-39143797D01*
X67792517Y-39194091D01*
X67792516Y-39194091D01*
X67799444Y-39194835D01*
X67852127Y-39200500D01*
X70747872Y-39200499D01*
X70807483Y-39194091D01*
X70942331Y-39143796D01*
X71057546Y-39057546D01*
X71143796Y-38942331D01*
X71166609Y-38881167D01*
X71208480Y-38825233D01*
X71273944Y-38800816D01*
X71282791Y-38800500D01*
X73117209Y-38800500D01*
X73184248Y-38820185D01*
X73230003Y-38872989D01*
X73233391Y-38881167D01*
X73256202Y-38942328D01*
X73256203Y-38942329D01*
X73256204Y-38942331D01*
X73299576Y-39000268D01*
X73299795Y-39000561D01*
X73324212Y-39066025D01*
X73309361Y-39134298D01*
X73288209Y-39162553D01*
X71731286Y-40719478D01*
X71619481Y-40831282D01*
X71619477Y-40831287D01*
X71596322Y-40871395D01*
X71596319Y-40871401D01*
X71571794Y-40913880D01*
X71544637Y-40960917D01*
X71540423Y-40968215D01*
X71499499Y-41120943D01*
X71499499Y-41120945D01*
X71499499Y-41289046D01*
X71499500Y-41289059D01*
X71499500Y-78713330D01*
X71499499Y-78713348D01*
X71499499Y-78879054D01*
X71499498Y-78879054D01*
X71540422Y-79031781D01*
X71540425Y-79031789D01*
X71546453Y-79042229D01*
X71619477Y-79168712D01*
X71619481Y-79168717D01*
X71738349Y-79287585D01*
X71738355Y-79287590D01*
X76715139Y-84264374D01*
X76715149Y-84264385D01*
X76719479Y-84268715D01*
X76719480Y-84268716D01*
X76831284Y-84380520D01*
X76876416Y-84406576D01*
X76918095Y-84430639D01*
X76918097Y-84430641D01*
X76956151Y-84452611D01*
X76968215Y-84459577D01*
X77120943Y-84500500D01*
X77279057Y-84500500D01*
X85013331Y-84500500D01*
X85013347Y-84500501D01*
X85020943Y-84500501D01*
X85179054Y-84500501D01*
X85179057Y-84500501D01*
X85331785Y-84459577D01*
X85381904Y-84430639D01*
X85468716Y-84380520D01*
X85580520Y-84268716D01*
X85580520Y-84268714D01*
X85590728Y-84258507D01*
X85590729Y-84258504D01*
X89812416Y-80036819D01*
X89873739Y-80003334D01*
X89900097Y-80000500D01*
X95699903Y-80000500D01*
X95766942Y-80020185D01*
X95787584Y-80036819D01*
X96520402Y-80769638D01*
X96553887Y-80830961D01*
X96548903Y-80900653D01*
X96507031Y-80956586D01*
X96503848Y-80958891D01*
X96501281Y-80960688D01*
X96501270Y-80960697D01*
X96334180Y-81127786D01*
X96204250Y-81313347D01*
X96149673Y-81356972D01*
X96080175Y-81364166D01*
X96017820Y-81332643D01*
X96001100Y-81313347D01*
X95871169Y-81127786D01*
X95704077Y-80960695D01*
X95704070Y-80960690D01*
X95689891Y-80950762D01*
X95665196Y-80933470D01*
X95510509Y-80825156D01*
X95510505Y-80825154D01*
X95440382Y-80792455D01*
X95296338Y-80725286D01*
X95296334Y-80725285D01*
X95296330Y-80725283D01*
X95068088Y-80664127D01*
X95068078Y-80664125D01*
X94832676Y-80643530D01*
X94832674Y-80643530D01*
X94597271Y-80664125D01*
X94597261Y-80664127D01*
X94369019Y-80725283D01*
X94369010Y-80725287D01*
X94154846Y-80825153D01*
X94154844Y-80825154D01*
X93961275Y-80960692D01*
X93839348Y-81082619D01*
X93778025Y-81116103D01*
X93708333Y-81111119D01*
X93652400Y-81069247D01*
X93635485Y-81038270D01*
X93586472Y-80906860D01*
X93586468Y-80906853D01*
X93500222Y-80791644D01*
X93500219Y-80791641D01*
X93385010Y-80705395D01*
X93385003Y-80705391D01*
X93250157Y-80655097D01*
X93250158Y-80655097D01*
X93190558Y-80648690D01*
X93190556Y-80648689D01*
X93190548Y-80648689D01*
X93190539Y-80648689D01*
X91394804Y-80648689D01*
X91394798Y-80648690D01*
X91335191Y-80655097D01*
X91200346Y-80705391D01*
X91200339Y-80705395D01*
X91085130Y-80791641D01*
X91085127Y-80791644D01*
X90998881Y-80906853D01*
X90998877Y-80906860D01*
X90948583Y-81041706D01*
X90942176Y-81101305D01*
X90942175Y-81101324D01*
X90942175Y-82897059D01*
X90942176Y-82897065D01*
X90948583Y-82956672D01*
X90998877Y-83091517D01*
X90998881Y-83091524D01*
X91085127Y-83206733D01*
X91085130Y-83206736D01*
X91200339Y-83292982D01*
X91200346Y-83292986D01*
X91335192Y-83343280D01*
X91335191Y-83343280D01*
X91342119Y-83344024D01*
X91394802Y-83349689D01*
X93190547Y-83349688D01*
X93250158Y-83343280D01*
X93385006Y-83292985D01*
X93500221Y-83206735D01*
X93586471Y-83091520D01*
X93635485Y-82960105D01*
X93677356Y-82904173D01*
X93742820Y-82879755D01*
X93811093Y-82894606D01*
X93839348Y-82915758D01*
X93961274Y-83037684D01*
X94039314Y-83092328D01*
X94154840Y-83173221D01*
X94154842Y-83173222D01*
X94154845Y-83173224D01*
X94160573Y-83175895D01*
X94213014Y-83222061D01*
X94232175Y-83288279D01*
X94232175Y-83947439D01*
X94212490Y-84014478D01*
X94179298Y-84049014D01*
X94020859Y-84159953D01*
X93859954Y-84320858D01*
X93842725Y-84345464D01*
X93788147Y-84389088D01*
X93718648Y-84396280D01*
X93656294Y-84364757D01*
X93620882Y-84304526D01*
X93617861Y-84287591D01*
X93617186Y-84281314D01*
X93614091Y-84252517D01*
X93605674Y-84229951D01*
X93563797Y-84117671D01*
X93563793Y-84117664D01*
X93477547Y-84002455D01*
X93477544Y-84002452D01*
X93362335Y-83916206D01*
X93362328Y-83916202D01*
X93227482Y-83865908D01*
X93227483Y-83865908D01*
X93167883Y-83859501D01*
X93167881Y-83859500D01*
X93167873Y-83859500D01*
X93167864Y-83859500D01*
X91472129Y-83859500D01*
X91472123Y-83859501D01*
X91412516Y-83865908D01*
X91277671Y-83916202D01*
X91277664Y-83916206D01*
X91162455Y-84002452D01*
X91162452Y-84002455D01*
X91076206Y-84117664D01*
X91076202Y-84117671D01*
X91025908Y-84252517D01*
X91019501Y-84312116D01*
X91019500Y-84312135D01*
X91019500Y-86007870D01*
X91019501Y-86007876D01*
X91025908Y-86067483D01*
X91076202Y-86202328D01*
X91076206Y-86202335D01*
X91162452Y-86317544D01*
X91162455Y-86317547D01*
X91277664Y-86403793D01*
X91277671Y-86403797D01*
X91412517Y-86454091D01*
X91412516Y-86454091D01*
X91419444Y-86454835D01*
X91472127Y-86460500D01*
X93167872Y-86460499D01*
X93227483Y-86454091D01*
X93362331Y-86403796D01*
X93477546Y-86317546D01*
X93563796Y-86202331D01*
X93614091Y-86067483D01*
X93617862Y-86032401D01*
X93644599Y-85967855D01*
X93701990Y-85928006D01*
X93771816Y-85925511D01*
X93831905Y-85961163D01*
X93842726Y-85974536D01*
X93859956Y-85999143D01*
X94020858Y-86160045D01*
X94020861Y-86160047D01*
X94207266Y-86290568D01*
X94413504Y-86386739D01*
X94633308Y-86445635D01*
X94795230Y-86459801D01*
X94859998Y-86465468D01*
X94860000Y-86465468D01*
X94860002Y-86465468D01*
X94916807Y-86460498D01*
X95086692Y-86445635D01*
X95306496Y-86386739D01*
X95512734Y-86290568D01*
X95699139Y-86160047D01*
X95860047Y-85999139D01*
X95990568Y-85812734D01*
X96017618Y-85754724D01*
X96063790Y-85702285D01*
X96130983Y-85683133D01*
X96197865Y-85703348D01*
X96242382Y-85754725D01*
X96269429Y-85812728D01*
X96269432Y-85812734D01*
X96399954Y-85999141D01*
X96560858Y-86160045D01*
X96560861Y-86160047D01*
X96747266Y-86290568D01*
X96953504Y-86386739D01*
X97173308Y-86445635D01*
X97335230Y-86459801D01*
X97399998Y-86465468D01*
X97400000Y-86465468D01*
X97400002Y-86465468D01*
X97456807Y-86460498D01*
X97626692Y-86445635D01*
X97846496Y-86386739D01*
X98052734Y-86290568D01*
X98239139Y-86160047D01*
X98400047Y-85999139D01*
X98530568Y-85812734D01*
X98557618Y-85754724D01*
X98603790Y-85702285D01*
X98670983Y-85683133D01*
X98737865Y-85703348D01*
X98782382Y-85754725D01*
X98809429Y-85812728D01*
X98809432Y-85812734D01*
X98939954Y-85999141D01*
X99100858Y-86160045D01*
X99100861Y-86160047D01*
X99287266Y-86290568D01*
X99493504Y-86386739D01*
X99713308Y-86445635D01*
X99875230Y-86459801D01*
X99939998Y-86465468D01*
X99940000Y-86465468D01*
X99940002Y-86465468D01*
X99996807Y-86460498D01*
X100166692Y-86445635D01*
X100386496Y-86386739D01*
X100592734Y-86290568D01*
X100779139Y-86160047D01*
X100940047Y-85999139D01*
X101070568Y-85812734D01*
X101097618Y-85754724D01*
X101143790Y-85702285D01*
X101210983Y-85683133D01*
X101277865Y-85703348D01*
X101322382Y-85754725D01*
X101349429Y-85812728D01*
X101349432Y-85812734D01*
X101479954Y-85999141D01*
X101640858Y-86160045D01*
X101640861Y-86160047D01*
X101827266Y-86290568D01*
X102033504Y-86386739D01*
X102253308Y-86445635D01*
X102415230Y-86459801D01*
X102479998Y-86465468D01*
X102480000Y-86465468D01*
X102480002Y-86465468D01*
X102536807Y-86460498D01*
X102706692Y-86445635D01*
X102926496Y-86386739D01*
X103132734Y-86290568D01*
X103319139Y-86160047D01*
X103480047Y-85999139D01*
X103610568Y-85812734D01*
X103637895Y-85754129D01*
X103684064Y-85701695D01*
X103751257Y-85682542D01*
X103818139Y-85702757D01*
X103862657Y-85754133D01*
X103889865Y-85812482D01*
X104020342Y-85998820D01*
X104181179Y-86159657D01*
X104367517Y-86290134D01*
X104573673Y-86386265D01*
X104573682Y-86386269D01*
X104769999Y-86438872D01*
X104770000Y-86438871D01*
X104770000Y-85593012D01*
X104827007Y-85625925D01*
X104954174Y-85660000D01*
X105085826Y-85660000D01*
X105212993Y-85625925D01*
X105270000Y-85593012D01*
X105270000Y-86438872D01*
X105466317Y-86386269D01*
X105466326Y-86386265D01*
X105672482Y-86290134D01*
X105858820Y-86159657D01*
X106019657Y-85998820D01*
X106150134Y-85812481D01*
X106150135Y-85812479D01*
X106177618Y-85753543D01*
X106223790Y-85701103D01*
X106290983Y-85681951D01*
X106357864Y-85702166D01*
X106402382Y-85753543D01*
X106429864Y-85812479D01*
X106429865Y-85812481D01*
X106560342Y-85998820D01*
X106721179Y-86159657D01*
X106907517Y-86290134D01*
X107113673Y-86386265D01*
X107113682Y-86386269D01*
X107309999Y-86438872D01*
X107310000Y-86438871D01*
X107310000Y-85593012D01*
X107367007Y-85625925D01*
X107494174Y-85660000D01*
X107625826Y-85660000D01*
X107752993Y-85625925D01*
X107810000Y-85593012D01*
X107810000Y-86438872D01*
X108006317Y-86386269D01*
X108006326Y-86386265D01*
X108212482Y-86290134D01*
X108398820Y-86159657D01*
X108559657Y-85998820D01*
X108690132Y-85812484D01*
X108717341Y-85754134D01*
X108763513Y-85701695D01*
X108830707Y-85682542D01*
X108897588Y-85702757D01*
X108942106Y-85754133D01*
X108969431Y-85812732D01*
X108969432Y-85812734D01*
X109099954Y-85999141D01*
X109260858Y-86160045D01*
X109260861Y-86160047D01*
X109447266Y-86290568D01*
X109653504Y-86386739D01*
X109873308Y-86445635D01*
X110035230Y-86459801D01*
X110099998Y-86465468D01*
X110100000Y-86465468D01*
X110100002Y-86465468D01*
X110156807Y-86460498D01*
X110326692Y-86445635D01*
X110546496Y-86386739D01*
X110752734Y-86290568D01*
X110939139Y-86160047D01*
X111100047Y-85999139D01*
X111230568Y-85812734D01*
X111326739Y-85606496D01*
X111385635Y-85386692D01*
X111405468Y-85160000D01*
X111385635Y-84933308D01*
X111326739Y-84713504D01*
X111230568Y-84507266D01*
X111100047Y-84320861D01*
X111100045Y-84320858D01*
X111096819Y-84317632D01*
X111063334Y-84256309D01*
X111060500Y-84229951D01*
X111060500Y-82972622D01*
X111080185Y-82905583D01*
X111096819Y-82884941D01*
X111102005Y-82879755D01*
X111111170Y-82870590D01*
X111246710Y-82677019D01*
X111346578Y-82462852D01*
X111407738Y-82234597D01*
X111428334Y-81999189D01*
X111407738Y-81763781D01*
X111346578Y-81535526D01*
X111246710Y-81321360D01*
X111241668Y-81314158D01*
X111111169Y-81127786D01*
X111109494Y-81126111D01*
X111108990Y-81125189D01*
X111107689Y-81123638D01*
X111108000Y-81123376D01*
X111076009Y-81064788D01*
X111073175Y-81038430D01*
X111073175Y-80474131D01*
X111059216Y-80403959D01*
X111059216Y-80403958D01*
X111034727Y-80280846D01*
X111034726Y-80280839D01*
X110970383Y-80125501D01*
X110970383Y-80125500D01*
X110959310Y-80098767D01*
X110959303Y-80098754D01*
X110849815Y-79934894D01*
X110849814Y-79934893D01*
X110710457Y-79795536D01*
X110710456Y-79795535D01*
X108684208Y-77769288D01*
X108684206Y-77769285D01*
X108684206Y-77769286D01*
X108677139Y-77762219D01*
X108677139Y-77762218D01*
X108537782Y-77622861D01*
X108537781Y-77622860D01*
X108537780Y-77622859D01*
X108373920Y-77513371D01*
X108373907Y-77513364D01*
X108236100Y-77456284D01*
X108191836Y-77437949D01*
X108191828Y-77437947D01*
X108095188Y-77418724D01*
X107998544Y-77399500D01*
X107998541Y-77399500D01*
X103218085Y-77399500D01*
X103151046Y-77379815D01*
X103105291Y-77327011D01*
X103095347Y-77257853D01*
X103124372Y-77194297D01*
X103167398Y-77165591D01*
X103166169Y-77162955D01*
X103172714Y-77159903D01*
X103320691Y-77068629D01*
X103443629Y-76945691D01*
X103534903Y-76797714D01*
X103534905Y-76797709D01*
X103589592Y-76632673D01*
X103599999Y-76530815D01*
X103600000Y-76530802D01*
X103600000Y-76487500D01*
X101200000Y-76487500D01*
X101200000Y-76530815D01*
X101210407Y-76632673D01*
X101265094Y-76797709D01*
X101265096Y-76797714D01*
X101356370Y-76945691D01*
X101479308Y-77068629D01*
X101627285Y-77159903D01*
X101633831Y-77162955D01*
X101632498Y-77165813D01*
X101678357Y-77197559D01*
X101705186Y-77262072D01*
X101692877Y-77330849D01*
X101645338Y-77382053D01*
X101581915Y-77399500D01*
X98765783Y-77399500D01*
X98698744Y-77379815D01*
X98678102Y-77363181D01*
X95384065Y-74069144D01*
X101199500Y-74069144D01*
X101199500Y-74655855D01*
X101209913Y-74757776D01*
X101264637Y-74922922D01*
X101264642Y-74922933D01*
X101355971Y-75070999D01*
X101355974Y-75071003D01*
X101478999Y-75194028D01*
X101480183Y-75194758D01*
X101480823Y-75195470D01*
X101484664Y-75198507D01*
X101484145Y-75199163D01*
X101526906Y-75246708D01*
X101538125Y-75315671D01*
X101510279Y-75379752D01*
X101484877Y-75401762D01*
X101484977Y-75401888D01*
X101482177Y-75404101D01*
X101480184Y-75405829D01*
X101479315Y-75406364D01*
X101479309Y-75406369D01*
X101356370Y-75529308D01*
X101265096Y-75677285D01*
X101265094Y-75677290D01*
X101210407Y-75842326D01*
X101200000Y-75944184D01*
X101200000Y-75987500D01*
X103600000Y-75987500D01*
X103600000Y-75944197D01*
X103599999Y-75944184D01*
X103589592Y-75842326D01*
X103534905Y-75677290D01*
X103534903Y-75677285D01*
X103443629Y-75529308D01*
X103320690Y-75406369D01*
X103320685Y-75406365D01*
X103319822Y-75405833D01*
X103319353Y-75405312D01*
X103315023Y-75401888D01*
X103315608Y-75401148D01*
X103273096Y-75353886D01*
X103261873Y-75284924D01*
X103289716Y-75220841D01*
X103315398Y-75198586D01*
X103315336Y-75198507D01*
X103317106Y-75197107D01*
X103319820Y-75194755D01*
X103321003Y-75194026D01*
X103444026Y-75071003D01*
X103535362Y-74922925D01*
X103590087Y-74757775D01*
X103600500Y-74655848D01*
X103600500Y-74069152D01*
X103590087Y-73967225D01*
X103535362Y-73802075D01*
X103535358Y-73802069D01*
X103535357Y-73802066D01*
X103444028Y-73654000D01*
X103444027Y-73653999D01*
X103444026Y-73653997D01*
X103343664Y-73553635D01*
X103310181Y-73492313D01*
X103315165Y-73422621D01*
X103318274Y-73415058D01*
X103318474Y-73414612D01*
X103318478Y-73414606D01*
X103369086Y-73252196D01*
X103375500Y-73181616D01*
X103375500Y-72668384D01*
X103369086Y-72597804D01*
X103318478Y-72435394D01*
X103230472Y-72289815D01*
X103230470Y-72289813D01*
X103230469Y-72289811D01*
X103128339Y-72187681D01*
X103094854Y-72126358D01*
X103099838Y-72056666D01*
X103128339Y-72012319D01*
X103230468Y-71910189D01*
X103230469Y-71910188D01*
X103230472Y-71910185D01*
X103318478Y-71764606D01*
X103369086Y-71602196D01*
X103375500Y-71531616D01*
X103375500Y-71125096D01*
X103395185Y-71058057D01*
X103411810Y-71037424D01*
X103518536Y-70930697D01*
X103579855Y-70897215D01*
X103592311Y-70895163D01*
X103679255Y-70885368D01*
X103849522Y-70825789D01*
X104002262Y-70729816D01*
X104129816Y-70602262D01*
X104225789Y-70449522D01*
X104285368Y-70279255D01*
X104291294Y-70226662D01*
X104305565Y-70100003D01*
X104305565Y-70099996D01*
X104285369Y-69920750D01*
X104285368Y-69920745D01*
X104225788Y-69750476D01*
X104153489Y-69635413D01*
X104129816Y-69597738D01*
X104002262Y-69470184D01*
X103849523Y-69374211D01*
X103679254Y-69314631D01*
X103679249Y-69314630D01*
X103500004Y-69294435D01*
X103499996Y-69294435D01*
X103320750Y-69314630D01*
X103320745Y-69314631D01*
X103150476Y-69374211D01*
X102997737Y-69470184D01*
X102870184Y-69597737D01*
X102774210Y-69750478D01*
X102714630Y-69920750D01*
X102704837Y-70007668D01*
X102677770Y-70072082D01*
X102669298Y-70081465D01*
X102412582Y-70338182D01*
X102351262Y-70371666D01*
X102324903Y-70374500D01*
X102068384Y-70374500D01*
X102049145Y-70376248D01*
X101997807Y-70380913D01*
X101835393Y-70431522D01*
X101689811Y-70519530D01*
X101569530Y-70639811D01*
X101481522Y-70785393D01*
X101430913Y-70947807D01*
X101424500Y-71018386D01*
X101424500Y-71531613D01*
X101430913Y-71602192D01*
X101481522Y-71764606D01*
X101569530Y-71910188D01*
X101671661Y-72012319D01*
X101705146Y-72073642D01*
X101700162Y-72143334D01*
X101671661Y-72187681D01*
X101569531Y-72289810D01*
X101569530Y-72289811D01*
X101481522Y-72435393D01*
X101430913Y-72597807D01*
X101425782Y-72654275D01*
X101424500Y-72668384D01*
X101424500Y-73181616D01*
X101426423Y-73202778D01*
X101430913Y-73252192D01*
X101430913Y-73252194D01*
X101430914Y-73252196D01*
X101481522Y-73414606D01*
X101481524Y-73414612D01*
X101481731Y-73415071D01*
X101481781Y-73415437D01*
X101483754Y-73421767D01*
X101482701Y-73422095D01*
X101491290Y-73484284D01*
X101461912Y-73547677D01*
X101456334Y-73553635D01*
X101355974Y-73653996D01*
X101355971Y-73654000D01*
X101264642Y-73802066D01*
X101264637Y-73802077D01*
X101209913Y-73967223D01*
X101199500Y-74069144D01*
X95384065Y-74069144D01*
X90184209Y-68869289D01*
X90184206Y-68869285D01*
X90184206Y-68869286D01*
X90177139Y-68862219D01*
X90177139Y-68862218D01*
X90037782Y-68722861D01*
X90037781Y-68722860D01*
X90037780Y-68722859D01*
X89873917Y-68613369D01*
X89733152Y-68555063D01*
X89733149Y-68555061D01*
X89691840Y-68537950D01*
X89691828Y-68537947D01*
X89568259Y-68513368D01*
X89498543Y-68499500D01*
X89498541Y-68499500D01*
X87815758Y-68499500D01*
X87748719Y-68479815D01*
X87728077Y-68463181D01*
X87726402Y-68461506D01*
X87726395Y-68461501D01*
X87532834Y-68325967D01*
X87532830Y-68325965D01*
X87532828Y-68325964D01*
X87318663Y-68226097D01*
X87318659Y-68226096D01*
X87318655Y-68226094D01*
X87090413Y-68164938D01*
X87090403Y-68164936D01*
X86855001Y-68144341D01*
X86854999Y-68144341D01*
X86619596Y-68164936D01*
X86619586Y-68164938D01*
X86391344Y-68226094D01*
X86391335Y-68226098D01*
X86177171Y-68325964D01*
X86177169Y-68325965D01*
X85983597Y-68461505D01*
X85816505Y-68628597D01*
X85686575Y-68814158D01*
X85631998Y-68857783D01*
X85562500Y-68864977D01*
X85500145Y-68833454D01*
X85483425Y-68814158D01*
X85353494Y-68628597D01*
X85351819Y-68626922D01*
X85351315Y-68626000D01*
X85350014Y-68624449D01*
X85350325Y-68624187D01*
X85318334Y-68565599D01*
X85315500Y-68539241D01*
X85315500Y-63536568D01*
X85335185Y-63469529D01*
X85351819Y-63448887D01*
X93790830Y-55009876D01*
X102270032Y-46530675D01*
X102270033Y-46530673D01*
X102277093Y-46523613D01*
X102277098Y-46523606D01*
X102641129Y-46159577D01*
X102777139Y-46023568D01*
X102886631Y-45859701D01*
X102960939Y-45680305D01*
X103004780Y-45625903D01*
X103071074Y-45603838D01*
X103138773Y-45621117D01*
X103186384Y-45672254D01*
X103199500Y-45727759D01*
X103199500Y-60679016D01*
X103199499Y-60679034D01*
X103199499Y-60844740D01*
X103199498Y-60844740D01*
X103240424Y-60997473D01*
X103256943Y-61026084D01*
X103256944Y-61026086D01*
X103319477Y-61134398D01*
X103319481Y-61134403D01*
X103438349Y-61253271D01*
X103438355Y-61253276D01*
X104449453Y-62264374D01*
X104449463Y-62264385D01*
X104453793Y-62268715D01*
X104453794Y-62268716D01*
X104565598Y-62380520D01*
X104637368Y-62421956D01*
X104702529Y-62459577D01*
X104855256Y-62500500D01*
X104855257Y-62500500D01*
X110375500Y-62500500D01*
X110442539Y-62520185D01*
X110488294Y-62572989D01*
X110499500Y-62624500D01*
X110499500Y-71188330D01*
X110499499Y-71188348D01*
X110499499Y-71354054D01*
X110499498Y-71354054D01*
X110499499Y-71354057D01*
X110540423Y-71506785D01*
X110540424Y-71506787D01*
X110540423Y-71506787D01*
X110558371Y-71537872D01*
X110558373Y-71537874D01*
X110558374Y-71537876D01*
X110595506Y-71602192D01*
X110619479Y-71643715D01*
X110738349Y-71762585D01*
X110738355Y-71762590D01*
X112088181Y-73112416D01*
X112121666Y-73173739D01*
X112124500Y-73200097D01*
X112124500Y-78213330D01*
X112124499Y-78213348D01*
X112124499Y-78379054D01*
X112124498Y-78379054D01*
X112134024Y-78414606D01*
X112165423Y-78531785D01*
X112173630Y-78546000D01*
X112173631Y-78546003D01*
X112173632Y-78546003D01*
X112244477Y-78668712D01*
X112244481Y-78668717D01*
X112363349Y-78787585D01*
X112363355Y-78787590D01*
X114083298Y-80507533D01*
X114116783Y-80568856D01*
X114111799Y-80638548D01*
X114069927Y-80694481D01*
X114055053Y-80704041D01*
X114051097Y-80706201D01*
X113935881Y-80792452D01*
X113935878Y-80792455D01*
X113849632Y-80907664D01*
X113849628Y-80907671D01*
X113799334Y-81042517D01*
X113792927Y-81102116D01*
X113792926Y-81102135D01*
X113792926Y-82897870D01*
X113792927Y-82897876D01*
X113799334Y-82957483D01*
X113849628Y-83092328D01*
X113849632Y-83092335D01*
X113935878Y-83207544D01*
X113935881Y-83207547D01*
X114051090Y-83293793D01*
X114051097Y-83293797D01*
X114066388Y-83299500D01*
X114185943Y-83344091D01*
X114245553Y-83350500D01*
X114418926Y-83350499D01*
X114485965Y-83370183D01*
X114531720Y-83422987D01*
X114542926Y-83474499D01*
X114542926Y-83953916D01*
X114523241Y-84020955D01*
X114490049Y-84055491D01*
X114340858Y-84159954D01*
X114179954Y-84320858D01*
X114049432Y-84507265D01*
X114049431Y-84507267D01*
X113953261Y-84713502D01*
X113953258Y-84713511D01*
X113894366Y-84933302D01*
X113894364Y-84933313D01*
X113874532Y-85159998D01*
X113874532Y-85160001D01*
X113894364Y-85386686D01*
X113894366Y-85386697D01*
X113953258Y-85606488D01*
X113953261Y-85606497D01*
X114049431Y-85812732D01*
X114049432Y-85812734D01*
X114179954Y-85999141D01*
X114340858Y-86160045D01*
X114340861Y-86160047D01*
X114527266Y-86290568D01*
X114733504Y-86386739D01*
X114953308Y-86445635D01*
X115115230Y-86459801D01*
X115179998Y-86465468D01*
X115180000Y-86465468D01*
X115180002Y-86465468D01*
X115236807Y-86460498D01*
X115406692Y-86445635D01*
X115626496Y-86386739D01*
X115832734Y-86290568D01*
X116019139Y-86160047D01*
X116180047Y-85999139D01*
X116310568Y-85812734D01*
X116337618Y-85754724D01*
X116383790Y-85702285D01*
X116450983Y-85683133D01*
X116517865Y-85703348D01*
X116562382Y-85754725D01*
X116589429Y-85812728D01*
X116589432Y-85812734D01*
X116719954Y-85999141D01*
X116880858Y-86160045D01*
X116880861Y-86160047D01*
X117067266Y-86290568D01*
X117273504Y-86386739D01*
X117493308Y-86445635D01*
X117655230Y-86459801D01*
X117719998Y-86465468D01*
X117720000Y-86465468D01*
X117720002Y-86465468D01*
X117776807Y-86460498D01*
X117946692Y-86445635D01*
X118166496Y-86386739D01*
X118372734Y-86290568D01*
X118559139Y-86160047D01*
X118720047Y-85999139D01*
X118850568Y-85812734D01*
X118877618Y-85754724D01*
X118923790Y-85702285D01*
X118990983Y-85683133D01*
X119057865Y-85703348D01*
X119102382Y-85754725D01*
X119129429Y-85812728D01*
X119129432Y-85812734D01*
X119259954Y-85999141D01*
X119420858Y-86160045D01*
X119420861Y-86160047D01*
X119607266Y-86290568D01*
X119813504Y-86386739D01*
X120033308Y-86445635D01*
X120195230Y-86459801D01*
X120259998Y-86465468D01*
X120260000Y-86465468D01*
X120260002Y-86465468D01*
X120316807Y-86460498D01*
X120486692Y-86445635D01*
X120706496Y-86386739D01*
X120912734Y-86290568D01*
X121099139Y-86160047D01*
X121260047Y-85999139D01*
X121390568Y-85812734D01*
X121417618Y-85754724D01*
X121463790Y-85702285D01*
X121530983Y-85683133D01*
X121597865Y-85703348D01*
X121642382Y-85754725D01*
X121669429Y-85812728D01*
X121669432Y-85812734D01*
X121799954Y-85999141D01*
X121960858Y-86160045D01*
X121960861Y-86160047D01*
X122147266Y-86290568D01*
X122353504Y-86386739D01*
X122573308Y-86445635D01*
X122735230Y-86459801D01*
X122799998Y-86465468D01*
X122800000Y-86465468D01*
X122800002Y-86465468D01*
X122856807Y-86460498D01*
X123026692Y-86445635D01*
X123246496Y-86386739D01*
X123452734Y-86290568D01*
X123639139Y-86160047D01*
X123800047Y-85999139D01*
X123930568Y-85812734D01*
X123957618Y-85754724D01*
X124003790Y-85702285D01*
X124070983Y-85683133D01*
X124137865Y-85703348D01*
X124182382Y-85754725D01*
X124209429Y-85812728D01*
X124209432Y-85812734D01*
X124339954Y-85999141D01*
X124500858Y-86160045D01*
X124500861Y-86160047D01*
X124687266Y-86290568D01*
X124893504Y-86386739D01*
X125113308Y-86445635D01*
X125275230Y-86459801D01*
X125339998Y-86465468D01*
X125340000Y-86465468D01*
X125340002Y-86465468D01*
X125396807Y-86460498D01*
X125566692Y-86445635D01*
X125786496Y-86386739D01*
X125992734Y-86290568D01*
X126179139Y-86160047D01*
X126340047Y-85999139D01*
X126470568Y-85812734D01*
X126497618Y-85754724D01*
X126543790Y-85702285D01*
X126610983Y-85683133D01*
X126677865Y-85703348D01*
X126722382Y-85754725D01*
X126749429Y-85812728D01*
X126749432Y-85812734D01*
X126879954Y-85999141D01*
X127040858Y-86160045D01*
X127040861Y-86160047D01*
X127227266Y-86290568D01*
X127433504Y-86386739D01*
X127653308Y-86445635D01*
X127815230Y-86459801D01*
X127879998Y-86465468D01*
X127880000Y-86465468D01*
X127880002Y-86465468D01*
X127936807Y-86460498D01*
X128106692Y-86445635D01*
X128326496Y-86386739D01*
X128532734Y-86290568D01*
X128719139Y-86160047D01*
X128880047Y-85999139D01*
X129010568Y-85812734D01*
X129106739Y-85606496D01*
X129165635Y-85386692D01*
X129185468Y-85160000D01*
X129165635Y-84933308D01*
X129106739Y-84713504D01*
X129010568Y-84507266D01*
X128880047Y-84320861D01*
X128880045Y-84320858D01*
X128719141Y-84159954D01*
X128532735Y-84029432D01*
X128532734Y-84029431D01*
X128515516Y-84021402D01*
X128463079Y-83975227D01*
X128443926Y-83909022D01*
X128443926Y-83289090D01*
X128463611Y-83222051D01*
X128515527Y-83176706D01*
X128521256Y-83174035D01*
X128714827Y-83038495D01*
X128881921Y-82871401D01*
X129017461Y-82677830D01*
X129117329Y-82463663D01*
X129178489Y-82235408D01*
X129199085Y-82000000D01*
X129178489Y-81764592D01*
X129117329Y-81536337D01*
X129017461Y-81322171D01*
X129016894Y-81321360D01*
X128881920Y-81128597D01*
X128714828Y-80961506D01*
X128714821Y-80961501D01*
X128713668Y-80960694D01*
X128637944Y-80907671D01*
X128521260Y-80825967D01*
X128521256Y-80825965D01*
X128513772Y-80822475D01*
X128307089Y-80726097D01*
X128307085Y-80726096D01*
X128307081Y-80726094D01*
X128078839Y-80664938D01*
X128078829Y-80664936D01*
X127843427Y-80644341D01*
X127843425Y-80644341D01*
X127608022Y-80664936D01*
X127608012Y-80664938D01*
X127379770Y-80726094D01*
X127379761Y-80726098D01*
X127165597Y-80825964D01*
X127165595Y-80825965D01*
X126972023Y-80961505D01*
X126804931Y-81128597D01*
X126675001Y-81314158D01*
X126620424Y-81357783D01*
X126550926Y-81364977D01*
X126488571Y-81333454D01*
X126471851Y-81314158D01*
X126341920Y-81128597D01*
X126174828Y-80961506D01*
X126174821Y-80961501D01*
X126173668Y-80960694D01*
X126097944Y-80907671D01*
X125981260Y-80825967D01*
X125981256Y-80825965D01*
X125973772Y-80822475D01*
X125767089Y-80726097D01*
X125767085Y-80726096D01*
X125767081Y-80726094D01*
X125538839Y-80664938D01*
X125538829Y-80664936D01*
X125303427Y-80644341D01*
X125303425Y-80644341D01*
X125068022Y-80664936D01*
X125068012Y-80664938D01*
X124839770Y-80726094D01*
X124839761Y-80726098D01*
X124625597Y-80825964D01*
X124625595Y-80825965D01*
X124432023Y-80961505D01*
X124264931Y-81128597D01*
X124135001Y-81314158D01*
X124080424Y-81357783D01*
X124010926Y-81364977D01*
X123948571Y-81333454D01*
X123931851Y-81314158D01*
X123801920Y-81128597D01*
X123634828Y-80961506D01*
X123634821Y-80961501D01*
X123633668Y-80960694D01*
X123557944Y-80907671D01*
X123441260Y-80825967D01*
X123441256Y-80825965D01*
X123433772Y-80822475D01*
X123227089Y-80726097D01*
X123227085Y-80726096D01*
X123227081Y-80726094D01*
X122998839Y-80664938D01*
X122998829Y-80664936D01*
X122763427Y-80644341D01*
X122763425Y-80644341D01*
X122528022Y-80664936D01*
X122528012Y-80664938D01*
X122299770Y-80726094D01*
X122299761Y-80726098D01*
X122085597Y-80825964D01*
X122085595Y-80825965D01*
X121892023Y-80961505D01*
X121724931Y-81128597D01*
X121595001Y-81314158D01*
X121540424Y-81357783D01*
X121470926Y-81364977D01*
X121408571Y-81333454D01*
X121391851Y-81314158D01*
X121261920Y-81128597D01*
X121094828Y-80961506D01*
X121094821Y-80961501D01*
X121093668Y-80960694D01*
X121017944Y-80907671D01*
X120901260Y-80825967D01*
X120901256Y-80825965D01*
X120893772Y-80822475D01*
X120687089Y-80726097D01*
X120687085Y-80726096D01*
X120687081Y-80726094D01*
X120458839Y-80664938D01*
X120458829Y-80664936D01*
X120223427Y-80644341D01*
X120223425Y-80644341D01*
X119988022Y-80664936D01*
X119988012Y-80664938D01*
X119759770Y-80726094D01*
X119759761Y-80726098D01*
X119545597Y-80825964D01*
X119545595Y-80825965D01*
X119352023Y-80961505D01*
X119184931Y-81128597D01*
X119055001Y-81314158D01*
X119000424Y-81357783D01*
X118930926Y-81364977D01*
X118868571Y-81333454D01*
X118851851Y-81314158D01*
X118721920Y-81128597D01*
X118554828Y-80961506D01*
X118554821Y-80961501D01*
X118553668Y-80960694D01*
X118477944Y-80907671D01*
X118361260Y-80825967D01*
X118361256Y-80825965D01*
X118353772Y-80822475D01*
X118147089Y-80726097D01*
X118147085Y-80726096D01*
X118147081Y-80726094D01*
X117918839Y-80664938D01*
X117918829Y-80664936D01*
X117683427Y-80644341D01*
X117683425Y-80644341D01*
X117448022Y-80664936D01*
X117448012Y-80664938D01*
X117219770Y-80726094D01*
X117219761Y-80726098D01*
X117005597Y-80825964D01*
X117005595Y-80825965D01*
X116812026Y-80961503D01*
X116690099Y-81083430D01*
X116628776Y-81116914D01*
X116559084Y-81111930D01*
X116503151Y-81070058D01*
X116486236Y-81039081D01*
X116437223Y-80907671D01*
X116437219Y-80907664D01*
X116350973Y-80792455D01*
X116350970Y-80792452D01*
X116235761Y-80706206D01*
X116235754Y-80706202D01*
X116100908Y-80655908D01*
X116100909Y-80655908D01*
X116041309Y-80649501D01*
X116041307Y-80649500D01*
X116041299Y-80649500D01*
X116041291Y-80649500D01*
X115841790Y-80649500D01*
X115774751Y-80629815D01*
X115728996Y-80577011D01*
X115722015Y-80557594D01*
X115717539Y-80540889D01*
X115703003Y-80486641D01*
X115703002Y-80486640D01*
X115703002Y-80486638D01*
X115703001Y-80486637D01*
X115655266Y-80403958D01*
X115655265Y-80403957D01*
X115623947Y-80349712D01*
X115623946Y-80349710D01*
X115512142Y-80237906D01*
X115512141Y-80237905D01*
X115507811Y-80233575D01*
X115507800Y-80233565D01*
X113361819Y-78087584D01*
X113328334Y-78026261D01*
X113325500Y-77999903D01*
X113325500Y-72989059D01*
X113325501Y-72989046D01*
X113325501Y-72820945D01*
X113325501Y-72820943D01*
X113284577Y-72668215D01*
X113236777Y-72585423D01*
X113205520Y-72531284D01*
X113093716Y-72419480D01*
X113093715Y-72419479D01*
X113089385Y-72415149D01*
X113089374Y-72415139D01*
X111736819Y-71062584D01*
X111703334Y-71001261D01*
X111700500Y-70974903D01*
X111700500Y-65961230D01*
X111720185Y-65894191D01*
X111772989Y-65848436D01*
X111842147Y-65838492D01*
X111905703Y-65867517D01*
X111912181Y-65873549D01*
X112746692Y-66708060D01*
X112769356Y-66744129D01*
X112771188Y-66743247D01*
X112774207Y-66749516D01*
X112852448Y-66874035D01*
X112870184Y-66902262D01*
X112997738Y-67029816D01*
X113150478Y-67125789D01*
X113213119Y-67147708D01*
X113320745Y-67185368D01*
X113320750Y-67185369D01*
X113499996Y-67205565D01*
X113500000Y-67205565D01*
X113500004Y-67205565D01*
X113679249Y-67185369D01*
X113679252Y-67185368D01*
X113679255Y-67185368D01*
X113849522Y-67125789D01*
X114002262Y-67029816D01*
X114129816Y-66902262D01*
X114225789Y-66749522D01*
X114285368Y-66579255D01*
X114290314Y-66535362D01*
X114305565Y-66400003D01*
X114305565Y-66399996D01*
X114285369Y-66220750D01*
X114285368Y-66220745D01*
X114225788Y-66050476D01*
X114169711Y-65961230D01*
X114129816Y-65897738D01*
X114002262Y-65770184D01*
X113890565Y-65700000D01*
X113849516Y-65674207D01*
X113843247Y-65671188D01*
X113844129Y-65669356D01*
X113808060Y-65646692D01*
X113186819Y-65025451D01*
X113153334Y-64964128D01*
X113150500Y-64937770D01*
X113150500Y-63548998D01*
X113170185Y-63481959D01*
X113222989Y-63436204D01*
X113243189Y-63431809D01*
X113249999Y-63424999D01*
X113750000Y-63424999D01*
X113798308Y-63424999D01*
X113798322Y-63424998D01*
X113897607Y-63414855D01*
X114058481Y-63361547D01*
X114058492Y-63361542D01*
X114202728Y-63272575D01*
X114202732Y-63272572D01*
X114322572Y-63152732D01*
X114322575Y-63152728D01*
X114411542Y-63008492D01*
X114411547Y-63008481D01*
X114464855Y-62847606D01*
X114474999Y-62748322D01*
X114475000Y-62748309D01*
X114475000Y-62725000D01*
X113750000Y-62725000D01*
X113750000Y-63424999D01*
X113249999Y-63424999D01*
X113250000Y-63424998D01*
X113250000Y-62349000D01*
X113269685Y-62281961D01*
X113322489Y-62236206D01*
X113374000Y-62225000D01*
X114474999Y-62225000D01*
X114474999Y-62201692D01*
X114474998Y-62201677D01*
X114464855Y-62102392D01*
X114411547Y-61941518D01*
X114411542Y-61941507D01*
X114322575Y-61797271D01*
X114322572Y-61797267D01*
X114313339Y-61788034D01*
X114279854Y-61726711D01*
X114284838Y-61657019D01*
X114313343Y-61612668D01*
X114322968Y-61603044D01*
X114412003Y-61458697D01*
X114465349Y-61297708D01*
X114475500Y-61198345D01*
X114475499Y-60651656D01*
X114470222Y-60600001D01*
X114465349Y-60552292D01*
X114465348Y-60552289D01*
X114456794Y-60526474D01*
X114450500Y-60487470D01*
X114450500Y-59999097D01*
X114470185Y-59932058D01*
X114522989Y-59886303D01*
X114592147Y-59876359D01*
X114655703Y-59905384D01*
X114662181Y-59911416D01*
X115464470Y-60713705D01*
X115497955Y-60775028D01*
X115492971Y-60844720D01*
X115451099Y-60900653D01*
X115447912Y-60902961D01*
X115328597Y-60986505D01*
X115161505Y-61153597D01*
X115025965Y-61347169D01*
X115025964Y-61347171D01*
X114926098Y-61561335D01*
X114926094Y-61561344D01*
X114864938Y-61789586D01*
X114864936Y-61789596D01*
X114844341Y-62024999D01*
X114844341Y-62025000D01*
X114864936Y-62260403D01*
X114864938Y-62260413D01*
X114926094Y-62488655D01*
X114926096Y-62488659D01*
X114926097Y-62488663D01*
X114968337Y-62579247D01*
X115025965Y-62702830D01*
X115025967Y-62702834D01*
X115112668Y-62826655D01*
X115161505Y-62896401D01*
X115328599Y-63063495D01*
X115425384Y-63131265D01*
X115522165Y-63199032D01*
X115522167Y-63199033D01*
X115522170Y-63199035D01*
X115527898Y-63201706D01*
X115580339Y-63247872D01*
X115599500Y-63314090D01*
X115599500Y-64410908D01*
X115579815Y-64477947D01*
X115527914Y-64523286D01*
X115522173Y-64525963D01*
X115522169Y-64525965D01*
X115328597Y-64661505D01*
X115161505Y-64828597D01*
X115025965Y-65022169D01*
X115025964Y-65022171D01*
X114926098Y-65236335D01*
X114926094Y-65236344D01*
X114864938Y-65464586D01*
X114864936Y-65464596D01*
X114844341Y-65699999D01*
X114844341Y-65700000D01*
X114864936Y-65935403D01*
X114864938Y-65935413D01*
X114926094Y-66163655D01*
X114926096Y-66163659D01*
X114926097Y-66163663D01*
X114988368Y-66297203D01*
X115025965Y-66377830D01*
X115025967Y-66377834D01*
X115112669Y-66501656D01*
X115161505Y-66571401D01*
X115328599Y-66738495D01*
X115425384Y-66806265D01*
X115522165Y-66874032D01*
X115522167Y-66874033D01*
X115522170Y-66874035D01*
X115527898Y-66876706D01*
X115580339Y-66922872D01*
X115599500Y-66989090D01*
X115599500Y-68110908D01*
X115579815Y-68177947D01*
X115527914Y-68223286D01*
X115522173Y-68225963D01*
X115522169Y-68225965D01*
X115328597Y-68361505D01*
X115161505Y-68528597D01*
X115025965Y-68722169D01*
X115025964Y-68722171D01*
X114926098Y-68936335D01*
X114926094Y-68936344D01*
X114864938Y-69164586D01*
X114864936Y-69164596D01*
X114844341Y-69399999D01*
X114844341Y-69400000D01*
X114864936Y-69635403D01*
X114864938Y-69635413D01*
X114926094Y-69863655D01*
X114926096Y-69863659D01*
X114926097Y-69863663D01*
X115010499Y-70044663D01*
X115025965Y-70077830D01*
X115025967Y-70077834D01*
X115095986Y-70177830D01*
X115161505Y-70271401D01*
X115328599Y-70438495D01*
X115417151Y-70500500D01*
X115522165Y-70574032D01*
X115522167Y-70574033D01*
X115522170Y-70574035D01*
X115736337Y-70673903D01*
X115736343Y-70673904D01*
X115736344Y-70673905D01*
X115791285Y-70688626D01*
X115964592Y-70735063D01*
X116141034Y-70750500D01*
X116199999Y-70755659D01*
X116200000Y-70755659D01*
X116200001Y-70755659D01*
X116258966Y-70750500D01*
X116435408Y-70735063D01*
X116663663Y-70673903D01*
X116877830Y-70574035D01*
X117071401Y-70438495D01*
X117193329Y-70316566D01*
X117254648Y-70283084D01*
X117324340Y-70288068D01*
X117380274Y-70329939D01*
X117397189Y-70360917D01*
X117446202Y-70492328D01*
X117446206Y-70492335D01*
X117532452Y-70607544D01*
X117532455Y-70607547D01*
X117647664Y-70693793D01*
X117647671Y-70693797D01*
X117782517Y-70744091D01*
X117782516Y-70744091D01*
X117789444Y-70744835D01*
X117842127Y-70750500D01*
X119637872Y-70750499D01*
X119697483Y-70744091D01*
X119832331Y-70693796D01*
X119947546Y-70607546D01*
X120033796Y-70492331D01*
X120078902Y-70371396D01*
X120084090Y-70357486D01*
X120084090Y-70357485D01*
X120084091Y-70357483D01*
X120087854Y-70322481D01*
X120114589Y-70257935D01*
X120171980Y-70218086D01*
X120241805Y-70215590D01*
X120298823Y-70248058D01*
X120388181Y-70337416D01*
X120421666Y-70398739D01*
X120424500Y-70425097D01*
X120424500Y-70773337D01*
X120424501Y-70773355D01*
X120434650Y-70872707D01*
X120434651Y-70872710D01*
X120487996Y-71033694D01*
X120488001Y-71033705D01*
X120577029Y-71178040D01*
X120577032Y-71178044D01*
X120696955Y-71297967D01*
X120696959Y-71297970D01*
X120841294Y-71386998D01*
X120841297Y-71386999D01*
X120841303Y-71387003D01*
X121002292Y-71440349D01*
X121101655Y-71450500D01*
X121698344Y-71450499D01*
X121698352Y-71450498D01*
X121698355Y-71450498D01*
X121752760Y-71444940D01*
X121797708Y-71440349D01*
X121958697Y-71387003D01*
X122103044Y-71297968D01*
X122222968Y-71178044D01*
X122312003Y-71033697D01*
X122365349Y-70872708D01*
X122375500Y-70773345D01*
X122375499Y-70226656D01*
X122370511Y-70177830D01*
X122365349Y-70127292D01*
X122365348Y-70127289D01*
X122350909Y-70083716D01*
X122312003Y-69966303D01*
X122311999Y-69966297D01*
X122311998Y-69966294D01*
X122222970Y-69821959D01*
X122222967Y-69821955D01*
X122213339Y-69812327D01*
X122179854Y-69751004D01*
X122184838Y-69681312D01*
X122213345Y-69636959D01*
X122222573Y-69627731D01*
X122311542Y-69483492D01*
X122311547Y-69483481D01*
X122364855Y-69322606D01*
X122374999Y-69223322D01*
X122375000Y-69223309D01*
X122375000Y-69200000D01*
X121274000Y-69200000D01*
X121206961Y-69180315D01*
X121161206Y-69127511D01*
X121150000Y-69076000D01*
X121150000Y-68700000D01*
X121650000Y-68700000D01*
X122374999Y-68700000D01*
X122374999Y-68676692D01*
X122374998Y-68676677D01*
X122364855Y-68577392D01*
X122311547Y-68416518D01*
X122311542Y-68416507D01*
X122222575Y-68272271D01*
X122222572Y-68272267D01*
X122102732Y-68152427D01*
X122102728Y-68152424D01*
X121958492Y-68063457D01*
X121958481Y-68063452D01*
X121797606Y-68010144D01*
X121698322Y-68000000D01*
X121650000Y-68000000D01*
X121650000Y-68700000D01*
X121150000Y-68700000D01*
X121150000Y-68000000D01*
X121149999Y-67999999D01*
X121101693Y-68000000D01*
X121101675Y-68000001D01*
X121002392Y-68010144D01*
X120841518Y-68063452D01*
X120841507Y-68063457D01*
X120697271Y-68152424D01*
X120697267Y-68152427D01*
X120577427Y-68272267D01*
X120577424Y-68272271D01*
X120488457Y-68416507D01*
X120488452Y-68416518D01*
X120435144Y-68577393D01*
X120425000Y-68676677D01*
X120424840Y-68679833D01*
X120424679Y-68679824D01*
X120424679Y-68679826D01*
X120424655Y-68679823D01*
X120423743Y-68679777D01*
X120405315Y-68742538D01*
X120352511Y-68788293D01*
X120301000Y-68799499D01*
X120214499Y-68799499D01*
X120147460Y-68779814D01*
X120101705Y-68727010D01*
X120090499Y-68675499D01*
X120090499Y-68502129D01*
X120090498Y-68502123D01*
X120090182Y-68499184D01*
X120084091Y-68442517D01*
X120082810Y-68439083D01*
X120033797Y-68307671D01*
X120033793Y-68307664D01*
X119947547Y-68192455D01*
X119947544Y-68192452D01*
X119832335Y-68106206D01*
X119832328Y-68106202D01*
X119697482Y-68055908D01*
X119697483Y-68055908D01*
X119637883Y-68049501D01*
X119637881Y-68049500D01*
X119637873Y-68049500D01*
X119637864Y-68049500D01*
X117842129Y-68049500D01*
X117842123Y-68049501D01*
X117782516Y-68055908D01*
X117647671Y-68106202D01*
X117647664Y-68106206D01*
X117532455Y-68192452D01*
X117532452Y-68192455D01*
X117446206Y-68307664D01*
X117446203Y-68307669D01*
X117397189Y-68439083D01*
X117355317Y-68495016D01*
X117289853Y-68519433D01*
X117221580Y-68504581D01*
X117193326Y-68483430D01*
X117071402Y-68361506D01*
X117071395Y-68361501D01*
X116877831Y-68225965D01*
X116877826Y-68225962D01*
X116872091Y-68223288D01*
X116819653Y-68177113D01*
X116800500Y-68110908D01*
X116800500Y-66989090D01*
X116820185Y-66922051D01*
X116872101Y-66876706D01*
X116877830Y-66874035D01*
X117071401Y-66738495D01*
X117193329Y-66616566D01*
X117254648Y-66583084D01*
X117324340Y-66588068D01*
X117380274Y-66629939D01*
X117397189Y-66660917D01*
X117446202Y-66792328D01*
X117446206Y-66792335D01*
X117532452Y-66907544D01*
X117532455Y-66907547D01*
X117647664Y-66993793D01*
X117647671Y-66993797D01*
X117782517Y-67044091D01*
X117782516Y-67044091D01*
X117789444Y-67044835D01*
X117842127Y-67050500D01*
X119637872Y-67050499D01*
X119697483Y-67044091D01*
X119832331Y-66993796D01*
X119947546Y-66907546D01*
X120033796Y-66792331D01*
X120084091Y-66657483D01*
X120090281Y-66599907D01*
X120117017Y-66535362D01*
X120174409Y-66495513D01*
X120244234Y-66493018D01*
X120301249Y-66525484D01*
X120388182Y-66612417D01*
X120421666Y-66673738D01*
X120424500Y-66700097D01*
X120424500Y-67048337D01*
X120424501Y-67048355D01*
X120434650Y-67147707D01*
X120434651Y-67147710D01*
X120487996Y-67308694D01*
X120488001Y-67308705D01*
X120577029Y-67453040D01*
X120577032Y-67453044D01*
X120696955Y-67572967D01*
X120696959Y-67572970D01*
X120841294Y-67661998D01*
X120841297Y-67661999D01*
X120841303Y-67662003D01*
X121002292Y-67715349D01*
X121101655Y-67725500D01*
X121698344Y-67725499D01*
X121698352Y-67725498D01*
X121698355Y-67725498D01*
X121752760Y-67719940D01*
X121797708Y-67715349D01*
X121958697Y-67662003D01*
X122103044Y-67572968D01*
X122222968Y-67453044D01*
X122312003Y-67308697D01*
X122365349Y-67147708D01*
X122375500Y-67048345D01*
X122375499Y-66501656D01*
X122374871Y-66495513D01*
X122365349Y-66402292D01*
X122365348Y-66402289D01*
X122312003Y-66241303D01*
X122311999Y-66241297D01*
X122311998Y-66241294D01*
X122222970Y-66096959D01*
X122222967Y-66096955D01*
X122213339Y-66087327D01*
X122179854Y-66026004D01*
X122184838Y-65956312D01*
X122213345Y-65911959D01*
X122222573Y-65902731D01*
X122311542Y-65758492D01*
X122311547Y-65758481D01*
X122364855Y-65597606D01*
X122374999Y-65498322D01*
X122375000Y-65498309D01*
X122375000Y-65475000D01*
X121274000Y-65475000D01*
X121206961Y-65455315D01*
X121161206Y-65402511D01*
X121150000Y-65351000D01*
X121150000Y-65099000D01*
X121169685Y-65031961D01*
X121222489Y-64986206D01*
X121274000Y-64975000D01*
X122374999Y-64975000D01*
X122374999Y-64951692D01*
X122374998Y-64951677D01*
X122364855Y-64852392D01*
X122311547Y-64691518D01*
X122311542Y-64691507D01*
X122222575Y-64547271D01*
X122222572Y-64547267D01*
X122102732Y-64427427D01*
X122102728Y-64427424D01*
X121958492Y-64338457D01*
X121958481Y-64338452D01*
X121797608Y-64285144D01*
X121792309Y-64284010D01*
X121730876Y-64250727D01*
X121697188Y-64189515D01*
X121701943Y-64119807D01*
X121743629Y-64063736D01*
X121792317Y-64041503D01*
X121797708Y-64040349D01*
X121797711Y-64040348D01*
X121958697Y-63987003D01*
X122103044Y-63897968D01*
X122222968Y-63778044D01*
X122312003Y-63633697D01*
X122365349Y-63472708D01*
X122375500Y-63373345D01*
X122375499Y-62826656D01*
X122374871Y-62820513D01*
X122365349Y-62727292D01*
X122365348Y-62727289D01*
X122312003Y-62566303D01*
X122311999Y-62566297D01*
X122311998Y-62566294D01*
X122222970Y-62421959D01*
X122222967Y-62421955D01*
X122213339Y-62412327D01*
X122179854Y-62351004D01*
X122184838Y-62281312D01*
X122213345Y-62236959D01*
X122222573Y-62227731D01*
X122311542Y-62083492D01*
X122311547Y-62083481D01*
X122364855Y-61922606D01*
X122374999Y-61823322D01*
X122375000Y-61823309D01*
X122375000Y-61800000D01*
X121274000Y-61800000D01*
X121206961Y-61780315D01*
X121161206Y-61727511D01*
X121150000Y-61676000D01*
X121150000Y-61300000D01*
X121650000Y-61300000D01*
X122374999Y-61300000D01*
X122374999Y-61276692D01*
X122374998Y-61276677D01*
X122364855Y-61177392D01*
X122311547Y-61016518D01*
X122311542Y-61016507D01*
X122222575Y-60872271D01*
X122222572Y-60872267D01*
X122102732Y-60752427D01*
X122102728Y-60752424D01*
X121958492Y-60663457D01*
X121958481Y-60663452D01*
X121797606Y-60610144D01*
X121698322Y-60600000D01*
X121650000Y-60600000D01*
X121650000Y-61300000D01*
X121150000Y-61300000D01*
X121150000Y-60600000D01*
X121149999Y-60599999D01*
X121101693Y-60600000D01*
X121101675Y-60600001D01*
X121002392Y-60610144D01*
X120841518Y-60663452D01*
X120841507Y-60663457D01*
X120697271Y-60752424D01*
X120697267Y-60752427D01*
X120577427Y-60872267D01*
X120577424Y-60872271D01*
X120488457Y-61016507D01*
X120488452Y-61016518D01*
X120435144Y-61177393D01*
X120425000Y-61276677D01*
X120425000Y-61300499D01*
X120405315Y-61367538D01*
X120352511Y-61413293D01*
X120301000Y-61424499D01*
X120238347Y-61424499D01*
X120238331Y-61424500D01*
X120214499Y-61424500D01*
X120147460Y-61404815D01*
X120101705Y-61352011D01*
X120090499Y-61300500D01*
X120090499Y-61127129D01*
X120090498Y-61127123D01*
X120084091Y-61067516D01*
X120033797Y-60932671D01*
X120033793Y-60932664D01*
X119947547Y-60817455D01*
X119947544Y-60817452D01*
X119832335Y-60731206D01*
X119832328Y-60731202D01*
X119697482Y-60680908D01*
X119697483Y-60680908D01*
X119637883Y-60674501D01*
X119637881Y-60674500D01*
X119637873Y-60674500D01*
X119637864Y-60674500D01*
X117842129Y-60674500D01*
X117842123Y-60674501D01*
X117782516Y-60680908D01*
X117647671Y-60731202D01*
X117647664Y-60731206D01*
X117532455Y-60817452D01*
X117532452Y-60817455D01*
X117446206Y-60932664D01*
X117446203Y-60932669D01*
X117397189Y-61064083D01*
X117355317Y-61120016D01*
X117289853Y-61144433D01*
X117221580Y-61129581D01*
X117193326Y-61108430D01*
X117071402Y-60986506D01*
X117071395Y-60986501D01*
X116877831Y-60850965D01*
X116877826Y-60850962D01*
X116872091Y-60848288D01*
X116819653Y-60802113D01*
X116800500Y-60735908D01*
X116800500Y-60520943D01*
X116796519Y-60506088D01*
X116796519Y-60506087D01*
X116785480Y-60464886D01*
X116759577Y-60368216D01*
X116759573Y-60368209D01*
X116680524Y-60231290D01*
X116680521Y-60231286D01*
X116680520Y-60231284D01*
X116568716Y-60119480D01*
X116568715Y-60119479D01*
X116564385Y-60115149D01*
X116564374Y-60115139D01*
X116447459Y-59998224D01*
X116413974Y-59936901D01*
X116418958Y-59867209D01*
X116460830Y-59811276D01*
X116470043Y-59805005D01*
X116598470Y-59725789D01*
X116603044Y-59722968D01*
X116612319Y-59713693D01*
X116673642Y-59680208D01*
X116743334Y-59685192D01*
X116787681Y-59713693D01*
X116796955Y-59722967D01*
X116796959Y-59722970D01*
X116941294Y-59811998D01*
X116941297Y-59811999D01*
X116941303Y-59812003D01*
X117102292Y-59865349D01*
X117201655Y-59875500D01*
X117748344Y-59875499D01*
X117748352Y-59875498D01*
X117748355Y-59875498D01*
X117829499Y-59867209D01*
X117847708Y-59865349D01*
X118008697Y-59812003D01*
X118153044Y-59722968D01*
X118272968Y-59603044D01*
X118362003Y-59458697D01*
X118415349Y-59297708D01*
X118425500Y-59198345D01*
X118425499Y-58601656D01*
X118415781Y-58506526D01*
X118428550Y-58437837D01*
X118476431Y-58386953D01*
X118544221Y-58370032D01*
X118551711Y-58370567D01*
X118599991Y-58375500D01*
X119325008Y-58375499D01*
X119325016Y-58375498D01*
X119325019Y-58375498D01*
X119381302Y-58369748D01*
X119427797Y-58364999D01*
X119594334Y-58309814D01*
X119743656Y-58217712D01*
X119867712Y-58093656D01*
X119959814Y-57944334D01*
X120014999Y-57777797D01*
X120025500Y-57675009D01*
X120025499Y-56324992D01*
X120025499Y-56324991D01*
X120025499Y-56324500D01*
X120045184Y-56257461D01*
X120097987Y-56211706D01*
X120149499Y-56200500D01*
X126849903Y-56200500D01*
X126916942Y-56220185D01*
X126937584Y-56236819D01*
X127163181Y-56462416D01*
X127196666Y-56523739D01*
X127199500Y-56550097D01*
X127199500Y-58597870D01*
X127199501Y-58597876D01*
X127205908Y-58657483D01*
X127256202Y-58792328D01*
X127256206Y-58792335D01*
X127342452Y-58907544D01*
X127342455Y-58907547D01*
X127457664Y-58993793D01*
X127457671Y-58993797D01*
X127592517Y-59044091D01*
X127592516Y-59044091D01*
X127599444Y-59044835D01*
X127652127Y-59050500D01*
X130147872Y-59050499D01*
X130207483Y-59044091D01*
X130342331Y-58993796D01*
X130457546Y-58907546D01*
X130543796Y-58792331D01*
X130594091Y-58657483D01*
X130600500Y-58597873D01*
X130600499Y-56102128D01*
X130594091Y-56042517D01*
X130586899Y-56023235D01*
X130543797Y-55907671D01*
X130543793Y-55907664D01*
X130457547Y-55792455D01*
X130457544Y-55792452D01*
X130342335Y-55706206D01*
X130342328Y-55706202D01*
X130207482Y-55655908D01*
X130207483Y-55655908D01*
X130147883Y-55649501D01*
X130147881Y-55649500D01*
X130147873Y-55649500D01*
X130147865Y-55649500D01*
X129625830Y-55649500D01*
X129558791Y-55629815D01*
X129513036Y-55577011D01*
X129503092Y-55507853D01*
X129532117Y-55444297D01*
X129572029Y-55413780D01*
X129639649Y-55381215D01*
X129752634Y-55326805D01*
X129963217Y-55183232D01*
X130150050Y-55009877D01*
X130308959Y-54810612D01*
X130436393Y-54589888D01*
X130529508Y-54352637D01*
X130586222Y-54104157D01*
X130597213Y-53957486D01*
X130605268Y-53850004D01*
X130605268Y-53849995D01*
X130586222Y-53595845D01*
X130573773Y-53541303D01*
X130529508Y-53347363D01*
X130436393Y-53110112D01*
X130308959Y-52889388D01*
X130150050Y-52690123D01*
X129963217Y-52516768D01*
X129752634Y-52373195D01*
X129752630Y-52373193D01*
X129752627Y-52373191D01*
X129752626Y-52373190D01*
X129523006Y-52262612D01*
X129523008Y-52262612D01*
X129279466Y-52187489D01*
X129279462Y-52187488D01*
X129279458Y-52187487D01*
X129158231Y-52169214D01*
X129027440Y-52149500D01*
X129027435Y-52149500D01*
X128772565Y-52149500D01*
X128772559Y-52149500D01*
X128615609Y-52173157D01*
X128520542Y-52187487D01*
X128520539Y-52187488D01*
X128520533Y-52187489D01*
X128276992Y-52262612D01*
X128047373Y-52373190D01*
X128047372Y-52373191D01*
X127836782Y-52516768D01*
X127649952Y-52690121D01*
X127649950Y-52690123D01*
X127491041Y-52889388D01*
X127363608Y-53110109D01*
X127270492Y-53347362D01*
X127270490Y-53347369D01*
X127213777Y-53595845D01*
X127194732Y-53849995D01*
X127194732Y-53850004D01*
X127213777Y-54104154D01*
X127246588Y-54247907D01*
X127242315Y-54317646D01*
X127201016Y-54374004D01*
X127135804Y-54399087D01*
X127125697Y-54399500D01*
X122499500Y-54399500D01*
X122432461Y-54379815D01*
X122386706Y-54327011D01*
X122375500Y-54275500D01*
X122375499Y-53801662D01*
X122375498Y-53801644D01*
X122365349Y-53702292D01*
X122365348Y-53702289D01*
X122345136Y-53641294D01*
X122312003Y-53541303D01*
X122311999Y-53541297D01*
X122311998Y-53541294D01*
X122222970Y-53396959D01*
X122222967Y-53396955D01*
X122213339Y-53387327D01*
X122179854Y-53326004D01*
X122184838Y-53256312D01*
X122213345Y-53211959D01*
X122222573Y-53202731D01*
X122311542Y-53058492D01*
X122311547Y-53058481D01*
X122364855Y-52897606D01*
X122374999Y-52798322D01*
X122375000Y-52798309D01*
X122375000Y-52775000D01*
X121274000Y-52775000D01*
X121206961Y-52755315D01*
X121161206Y-52702511D01*
X121150000Y-52651000D01*
X121150000Y-52399000D01*
X121169685Y-52331961D01*
X121222489Y-52286206D01*
X121274000Y-52275000D01*
X122374999Y-52275000D01*
X122374999Y-52251692D01*
X122374998Y-52251677D01*
X122364855Y-52152392D01*
X122311547Y-51991518D01*
X122311542Y-51991507D01*
X122222575Y-51847271D01*
X122222572Y-51847267D01*
X122102732Y-51727427D01*
X122102728Y-51727424D01*
X121958492Y-51638457D01*
X121958481Y-51638452D01*
X121797606Y-51585144D01*
X121698322Y-51575000D01*
X121506883Y-51575000D01*
X121439844Y-51555315D01*
X121394089Y-51502511D01*
X121384145Y-51433353D01*
X121413170Y-51369797D01*
X121431397Y-51352624D01*
X121473262Y-51320500D01*
X121528282Y-51278282D01*
X121624536Y-51152841D01*
X121685044Y-51006762D01*
X121700500Y-50889361D01*
X121700499Y-50550640D01*
X121700499Y-50550636D01*
X121685046Y-50433249D01*
X121685044Y-50433244D01*
X121685044Y-50433238D01*
X121685041Y-50433231D01*
X121684477Y-50431125D01*
X121684477Y-50428924D01*
X121683984Y-50425179D01*
X121684477Y-50425114D01*
X121684477Y-50374817D01*
X121683495Y-50374688D01*
X121684477Y-50367229D01*
X121684477Y-50366923D01*
X121684556Y-50366627D01*
X121695961Y-50280000D01*
X121680193Y-50280000D01*
X121613154Y-50260315D01*
X121581817Y-50231487D01*
X121528282Y-50161718D01*
X121450943Y-50102374D01*
X121409743Y-50045948D01*
X121405588Y-49976202D01*
X121439801Y-49915281D01*
X121501518Y-49882529D01*
X121526432Y-49880000D01*
X121695959Y-49880000D01*
X121695960Y-49879998D01*
X121684557Y-49793372D01*
X121684555Y-49793366D01*
X121624100Y-49647414D01*
X121527924Y-49522075D01*
X121402586Y-49425899D01*
X121256631Y-49365444D01*
X121200000Y-49357987D01*
X121200000Y-49865500D01*
X121180315Y-49932539D01*
X121127511Y-49978294D01*
X121076000Y-49989500D01*
X120924000Y-49989500D01*
X120856961Y-49969815D01*
X120811206Y-49917011D01*
X120800000Y-49865500D01*
X120800000Y-49357987D01*
X120743368Y-49365444D01*
X120597413Y-49425899D01*
X120472075Y-49522075D01*
X120375899Y-49647413D01*
X120329060Y-49760496D01*
X120285219Y-49814900D01*
X120218925Y-49836965D01*
X120151226Y-49819686D01*
X120103615Y-49768549D01*
X120090499Y-49713044D01*
X120090499Y-48402129D01*
X120090498Y-48402123D01*
X120084091Y-48342516D01*
X120033797Y-48207671D01*
X120033793Y-48207664D01*
X119947547Y-48092455D01*
X119947544Y-48092452D01*
X119832335Y-48006206D01*
X119832328Y-48006202D01*
X119697482Y-47955908D01*
X119697483Y-47955908D01*
X119637883Y-47949501D01*
X119637881Y-47949500D01*
X119637873Y-47949500D01*
X119637864Y-47949500D01*
X117842129Y-47949500D01*
X117842123Y-47949501D01*
X117782516Y-47955908D01*
X117647671Y-48006202D01*
X117647664Y-48006206D01*
X117532455Y-48092452D01*
X117532452Y-48092455D01*
X117446206Y-48207664D01*
X117446203Y-48207669D01*
X117397189Y-48339083D01*
X117355317Y-48395016D01*
X117289853Y-48419433D01*
X117221580Y-48404581D01*
X117193326Y-48383430D01*
X117071402Y-48261506D01*
X117071395Y-48261501D01*
X116877831Y-48125965D01*
X116877826Y-48125962D01*
X116872091Y-48123288D01*
X116819653Y-48077113D01*
X116800500Y-48010908D01*
X116800500Y-46889090D01*
X116820185Y-46822051D01*
X116872101Y-46776706D01*
X116877830Y-46774035D01*
X117071401Y-46638495D01*
X117193329Y-46516566D01*
X117254648Y-46483084D01*
X117324340Y-46488068D01*
X117380274Y-46529939D01*
X117397189Y-46560917D01*
X117446202Y-46692328D01*
X117446206Y-46692335D01*
X117532452Y-46807544D01*
X117532455Y-46807547D01*
X117647664Y-46893793D01*
X117647671Y-46893797D01*
X117782517Y-46944091D01*
X117782516Y-46944091D01*
X117789444Y-46944835D01*
X117842127Y-46950500D01*
X119637872Y-46950499D01*
X119697483Y-46944091D01*
X119832331Y-46893796D01*
X119947546Y-46807546D01*
X120033796Y-46692331D01*
X120084091Y-46557483D01*
X120087854Y-46522481D01*
X120114589Y-46457935D01*
X120171980Y-46418086D01*
X120241805Y-46415590D01*
X120298823Y-46448058D01*
X120388181Y-46537416D01*
X120421666Y-46598739D01*
X120424500Y-46625097D01*
X120424500Y-46973337D01*
X120424501Y-46973355D01*
X120434650Y-47072707D01*
X120434651Y-47072710D01*
X120487996Y-47233694D01*
X120488001Y-47233705D01*
X120577029Y-47378040D01*
X120577032Y-47378044D01*
X120696955Y-47497967D01*
X120696959Y-47497970D01*
X120841294Y-47586998D01*
X120841297Y-47586999D01*
X120841303Y-47587003D01*
X121002292Y-47640349D01*
X121101655Y-47650500D01*
X121698344Y-47650499D01*
X121698352Y-47650498D01*
X121698355Y-47650498D01*
X121752760Y-47644940D01*
X121797708Y-47640349D01*
X121958697Y-47587003D01*
X122103044Y-47497968D01*
X122222968Y-47378044D01*
X122312003Y-47233697D01*
X122365349Y-47072708D01*
X122375500Y-46973345D01*
X122375499Y-46426656D01*
X122365349Y-46327292D01*
X122312003Y-46166303D01*
X122311999Y-46166297D01*
X122311998Y-46166294D01*
X122222970Y-46021959D01*
X122222967Y-46021955D01*
X122213339Y-46012327D01*
X122179854Y-45951004D01*
X122184838Y-45881312D01*
X122213345Y-45836959D01*
X122222573Y-45827731D01*
X122311542Y-45683492D01*
X122311547Y-45683481D01*
X122364855Y-45522606D01*
X122374999Y-45423322D01*
X122375000Y-45423309D01*
X122375000Y-45400000D01*
X121274000Y-45400000D01*
X121206961Y-45380315D01*
X121161206Y-45327511D01*
X121150000Y-45276000D01*
X121150000Y-44900000D01*
X121650000Y-44900000D01*
X122374999Y-44900000D01*
X122374999Y-44876692D01*
X122374998Y-44876677D01*
X122364855Y-44777392D01*
X122311547Y-44616518D01*
X122311542Y-44616507D01*
X122222575Y-44472271D01*
X122222572Y-44472267D01*
X122102732Y-44352427D01*
X122102728Y-44352424D01*
X121958492Y-44263457D01*
X121958481Y-44263452D01*
X121797606Y-44210144D01*
X121698322Y-44200000D01*
X121650000Y-44200000D01*
X121650000Y-44900000D01*
X121150000Y-44900000D01*
X121150000Y-44200000D01*
X121149999Y-44199999D01*
X121101693Y-44200000D01*
X121101675Y-44200001D01*
X121002392Y-44210144D01*
X120841518Y-44263452D01*
X120841507Y-44263457D01*
X120697271Y-44352424D01*
X120697267Y-44352427D01*
X120577427Y-44472267D01*
X120577424Y-44472271D01*
X120488457Y-44616507D01*
X120488452Y-44616518D01*
X120435144Y-44777393D01*
X120425000Y-44876677D01*
X120424840Y-44879833D01*
X120424679Y-44879824D01*
X120424679Y-44879826D01*
X120424655Y-44879823D01*
X120423743Y-44879777D01*
X120405315Y-44942538D01*
X120352511Y-44988293D01*
X120301000Y-44999499D01*
X120214499Y-44999499D01*
X120147460Y-44979814D01*
X120101705Y-44927010D01*
X120090499Y-44875499D01*
X120090499Y-44702129D01*
X120090498Y-44702123D01*
X120084091Y-44642516D01*
X120033797Y-44507671D01*
X120033793Y-44507664D01*
X119947547Y-44392455D01*
X119947544Y-44392452D01*
X119832335Y-44306206D01*
X119832328Y-44306202D01*
X119697482Y-44255908D01*
X119697483Y-44255908D01*
X119637883Y-44249501D01*
X119637881Y-44249500D01*
X119637873Y-44249500D01*
X119637864Y-44249500D01*
X117842129Y-44249500D01*
X117842123Y-44249501D01*
X117782516Y-44255908D01*
X117647671Y-44306202D01*
X117647664Y-44306206D01*
X117532455Y-44392452D01*
X117532452Y-44392455D01*
X117446206Y-44507664D01*
X117446203Y-44507669D01*
X117397189Y-44639083D01*
X117355317Y-44695016D01*
X117289853Y-44719433D01*
X117221580Y-44704581D01*
X117193326Y-44683430D01*
X117071402Y-44561506D01*
X117071395Y-44561501D01*
X116877834Y-44425967D01*
X116877830Y-44425965D01*
X116873043Y-44423733D01*
X116663663Y-44326097D01*
X116663659Y-44326096D01*
X116663655Y-44326094D01*
X116435413Y-44264938D01*
X116435403Y-44264936D01*
X116200001Y-44244341D01*
X116199999Y-44244341D01*
X115964596Y-44264936D01*
X115964586Y-44264938D01*
X115736344Y-44326094D01*
X115736335Y-44326098D01*
X115522171Y-44425964D01*
X115522169Y-44425965D01*
X115328597Y-44561505D01*
X115161505Y-44728597D01*
X115025965Y-44922169D01*
X115025964Y-44922171D01*
X114926098Y-45136335D01*
X114926094Y-45136344D01*
X114864938Y-45364586D01*
X114864936Y-45364596D01*
X114844341Y-45599999D01*
X114844341Y-45600000D01*
X114864936Y-45835403D01*
X114864938Y-45835413D01*
X114926094Y-46063655D01*
X114926096Y-46063659D01*
X114926097Y-46063663D01*
X115010499Y-46244663D01*
X115025965Y-46277830D01*
X115025967Y-46277834D01*
X115100876Y-46384814D01*
X115161505Y-46471401D01*
X115328599Y-46638495D01*
X115425384Y-46706265D01*
X115522165Y-46774032D01*
X115522167Y-46774033D01*
X115522170Y-46774035D01*
X115527898Y-46776706D01*
X115580339Y-46822872D01*
X115599500Y-46889090D01*
X115599500Y-48010908D01*
X115579815Y-48077947D01*
X115527914Y-48123286D01*
X115522173Y-48125963D01*
X115522169Y-48125965D01*
X115328597Y-48261505D01*
X115161505Y-48428597D01*
X115025965Y-48622169D01*
X115025964Y-48622171D01*
X114926098Y-48836335D01*
X114926094Y-48836344D01*
X114864938Y-49064586D01*
X114864936Y-49064596D01*
X114844341Y-49299999D01*
X114844341Y-49300000D01*
X114864936Y-49535403D01*
X114864938Y-49535413D01*
X114926094Y-49763655D01*
X114926096Y-49763659D01*
X114926097Y-49763663D01*
X115010499Y-49944663D01*
X115025965Y-49977830D01*
X115025967Y-49977834D01*
X115087327Y-50065464D01*
X115161505Y-50171401D01*
X115328599Y-50338495D01*
X115425384Y-50406265D01*
X115522165Y-50474032D01*
X115522167Y-50474033D01*
X115522170Y-50474035D01*
X115527898Y-50476706D01*
X115580339Y-50522872D01*
X115599500Y-50589090D01*
X115599500Y-51710908D01*
X115579815Y-51777947D01*
X115527914Y-51823286D01*
X115522173Y-51825963D01*
X115522169Y-51825965D01*
X115328600Y-51961503D01*
X115298597Y-51991507D01*
X115226921Y-52063182D01*
X115165601Y-52096666D01*
X115139242Y-52099500D01*
X112236198Y-52099500D01*
X112156593Y-52120830D01*
X112086743Y-52119167D01*
X112028881Y-52080004D01*
X112001377Y-52015776D01*
X112000500Y-52001055D01*
X112000500Y-51714434D01*
X112020185Y-51647395D01*
X112072989Y-51601640D01*
X112142147Y-51591696D01*
X112189597Y-51608896D01*
X112230869Y-51634353D01*
X112230880Y-51634358D01*
X112397302Y-51689505D01*
X112397309Y-51689506D01*
X112500019Y-51699999D01*
X112949999Y-51699999D01*
X113450000Y-51699999D01*
X113899972Y-51699999D01*
X113899986Y-51699998D01*
X114002697Y-51689505D01*
X114169119Y-51634358D01*
X114169124Y-51634356D01*
X114318345Y-51542315D01*
X114442315Y-51418345D01*
X114534356Y-51269124D01*
X114534358Y-51269119D01*
X114589505Y-51102697D01*
X114589506Y-51102690D01*
X114599999Y-50999986D01*
X114600000Y-50999973D01*
X114600000Y-50875000D01*
X113450000Y-50875000D01*
X113450000Y-51699999D01*
X112949999Y-51699999D01*
X112950000Y-51699998D01*
X112950000Y-50375000D01*
X113450000Y-50375000D01*
X114599999Y-50375000D01*
X114599999Y-50250028D01*
X114599998Y-50250013D01*
X114589505Y-50147302D01*
X114534358Y-49980880D01*
X114534356Y-49980875D01*
X114442315Y-49831654D01*
X114318345Y-49707684D01*
X114169124Y-49615643D01*
X114169119Y-49615641D01*
X114002697Y-49560494D01*
X114002690Y-49560493D01*
X113899986Y-49550000D01*
X113450000Y-49550000D01*
X113450000Y-50375000D01*
X112950000Y-50375000D01*
X112950000Y-49550000D01*
X112500028Y-49550000D01*
X112500012Y-49550001D01*
X112397302Y-49560494D01*
X112230880Y-49615641D01*
X112230866Y-49615648D01*
X112189595Y-49641104D01*
X112122203Y-49659544D01*
X112055540Y-49638621D01*
X112010771Y-49584978D01*
X112000500Y-49535565D01*
X112000500Y-45600096D01*
X112020185Y-45533057D01*
X112036814Y-45512420D01*
X115501327Y-42047906D01*
X115501332Y-42047903D01*
X115511535Y-42037699D01*
X115511537Y-42037699D01*
X115623341Y-41925895D01*
X115695737Y-41800501D01*
X115702398Y-41788964D01*
X115743321Y-41636237D01*
X115743321Y-41478122D01*
X115743321Y-41289090D01*
X115763006Y-41222051D01*
X115814922Y-41176706D01*
X115820651Y-41174035D01*
X116014222Y-41038495D01*
X116181316Y-40871401D01*
X116311246Y-40685842D01*
X116365823Y-40642217D01*
X116435321Y-40635023D01*
X116497676Y-40666546D01*
X116514396Y-40685842D01*
X116644321Y-40871395D01*
X116644326Y-40871401D01*
X116811420Y-41038495D01*
X116901016Y-41101231D01*
X117004986Y-41174032D01*
X117004988Y-41174033D01*
X117004991Y-41174035D01*
X117219158Y-41273903D01*
X117219164Y-41273904D01*
X117219165Y-41273905D01*
X117252351Y-41282797D01*
X117447413Y-41335063D01*
X117623855Y-41350500D01*
X117682820Y-41355659D01*
X117682821Y-41355659D01*
X117682822Y-41355659D01*
X117741787Y-41350500D01*
X117918229Y-41335063D01*
X118146484Y-41273903D01*
X118360651Y-41174035D01*
X118554222Y-41038495D01*
X118721316Y-40871401D01*
X118851246Y-40685842D01*
X118905823Y-40642217D01*
X118975321Y-40635023D01*
X119037676Y-40666546D01*
X119054396Y-40685842D01*
X119184321Y-40871395D01*
X119184326Y-40871401D01*
X119351420Y-41038495D01*
X119441016Y-41101231D01*
X119544986Y-41174032D01*
X119544988Y-41174033D01*
X119544991Y-41174035D01*
X119759158Y-41273903D01*
X119759164Y-41273904D01*
X119759165Y-41273905D01*
X119792351Y-41282797D01*
X119987413Y-41335063D01*
X120163855Y-41350500D01*
X120222820Y-41355659D01*
X120222821Y-41355659D01*
X120222822Y-41355659D01*
X120281787Y-41350500D01*
X120458229Y-41335063D01*
X120686484Y-41273903D01*
X120900651Y-41174035D01*
X121094222Y-41038495D01*
X121261316Y-40871401D01*
X121391246Y-40685842D01*
X121445823Y-40642217D01*
X121515321Y-40635023D01*
X121577676Y-40666546D01*
X121594396Y-40685842D01*
X121724321Y-40871395D01*
X121724326Y-40871401D01*
X121891420Y-41038495D01*
X121981016Y-41101231D01*
X122084986Y-41174032D01*
X122084988Y-41174033D01*
X122084991Y-41174035D01*
X122299158Y-41273903D01*
X122299164Y-41273904D01*
X122299165Y-41273905D01*
X122332351Y-41282797D01*
X122527413Y-41335063D01*
X122703855Y-41350500D01*
X122762820Y-41355659D01*
X122762821Y-41355659D01*
X122762822Y-41355659D01*
X122821787Y-41350500D01*
X122998229Y-41335063D01*
X123226484Y-41273903D01*
X123440651Y-41174035D01*
X123634222Y-41038495D01*
X123801316Y-40871401D01*
X123931246Y-40685842D01*
X123985823Y-40642217D01*
X124055321Y-40635023D01*
X124117676Y-40666546D01*
X124134396Y-40685842D01*
X124264321Y-40871395D01*
X124264326Y-40871401D01*
X124431420Y-41038495D01*
X124521016Y-41101231D01*
X124624986Y-41174032D01*
X124624988Y-41174033D01*
X124624991Y-41174035D01*
X124839158Y-41273903D01*
X124839164Y-41273904D01*
X124839165Y-41273905D01*
X124872351Y-41282797D01*
X125067413Y-41335063D01*
X125243855Y-41350500D01*
X125302820Y-41355659D01*
X125302821Y-41355659D01*
X125302822Y-41355659D01*
X125361787Y-41350500D01*
X125538229Y-41335063D01*
X125766484Y-41273903D01*
X125980651Y-41174035D01*
X126174222Y-41038495D01*
X126341316Y-40871401D01*
X126471246Y-40685842D01*
X126525823Y-40642217D01*
X126595321Y-40635023D01*
X126657676Y-40666546D01*
X126674396Y-40685842D01*
X126804321Y-40871395D01*
X126804326Y-40871401D01*
X126971420Y-41038495D01*
X127061016Y-41101231D01*
X127164986Y-41174032D01*
X127164988Y-41174033D01*
X127164991Y-41174035D01*
X127379158Y-41273903D01*
X127379164Y-41273904D01*
X127379165Y-41273905D01*
X127412351Y-41282797D01*
X127607413Y-41335063D01*
X127783855Y-41350500D01*
X127842820Y-41355659D01*
X127842821Y-41355659D01*
X127842822Y-41355659D01*
X127901787Y-41350500D01*
X128078229Y-41335063D01*
X128306484Y-41273903D01*
X128520651Y-41174035D01*
X128714222Y-41038495D01*
X128881316Y-40871401D01*
X129016856Y-40677830D01*
X129116724Y-40463663D01*
X129177884Y-40235408D01*
X129198480Y-40000000D01*
X129177884Y-39764592D01*
X129116724Y-39536337D01*
X129016856Y-39322171D01*
X129011246Y-39314158D01*
X128881315Y-39128597D01*
X128714223Y-38961506D01*
X128714216Y-38961501D01*
X128520652Y-38825965D01*
X128520649Y-38825963D01*
X128512088Y-38821971D01*
X128459652Y-38775795D01*
X128440500Y-38709592D01*
X128440500Y-38152573D01*
X128460185Y-38085534D01*
X128512093Y-38040192D01*
X128532734Y-38030568D01*
X128719139Y-37900047D01*
X128880047Y-37739139D01*
X129010568Y-37552734D01*
X129106739Y-37346496D01*
X129165635Y-37126692D01*
X129185468Y-36900000D01*
X129165635Y-36673308D01*
X129106739Y-36453504D01*
X129010568Y-36247266D01*
X128880047Y-36060861D01*
X128880045Y-36060858D01*
X128719141Y-35899954D01*
X128532734Y-35769432D01*
X128532732Y-35769431D01*
X128326497Y-35673261D01*
X128326488Y-35673258D01*
X128106697Y-35614366D01*
X128106693Y-35614365D01*
X128106692Y-35614365D01*
X128106691Y-35614364D01*
X128106686Y-35614364D01*
X127880002Y-35594532D01*
X127879998Y-35594532D01*
X127653313Y-35614364D01*
X127653302Y-35614366D01*
X127433511Y-35673258D01*
X127433502Y-35673261D01*
X127227267Y-35769431D01*
X127227265Y-35769432D01*
X127040858Y-35899954D01*
X126879954Y-36060858D01*
X126749432Y-36247265D01*
X126749431Y-36247267D01*
X126722382Y-36305275D01*
X126676209Y-36357714D01*
X126609016Y-36376866D01*
X126542135Y-36356650D01*
X126497618Y-36305275D01*
X126470568Y-36247266D01*
X126340047Y-36060861D01*
X126340045Y-36060858D01*
X126179141Y-35899954D01*
X125992734Y-35769432D01*
X125992732Y-35769431D01*
X125786497Y-35673261D01*
X125786488Y-35673258D01*
X125566697Y-35614366D01*
X125566693Y-35614365D01*
X125566692Y-35614365D01*
X125566691Y-35614364D01*
X125566686Y-35614364D01*
X125340002Y-35594532D01*
X125339998Y-35594532D01*
X125113313Y-35614364D01*
X125113302Y-35614366D01*
X124893511Y-35673258D01*
X124893502Y-35673261D01*
X124687267Y-35769431D01*
X124687265Y-35769432D01*
X124500858Y-35899954D01*
X124339954Y-36060858D01*
X124209432Y-36247265D01*
X124209431Y-36247267D01*
X124182382Y-36305275D01*
X124136209Y-36357714D01*
X124069016Y-36376866D01*
X124002135Y-36356650D01*
X123957618Y-36305275D01*
X123930568Y-36247266D01*
X123800047Y-36060861D01*
X123800045Y-36060858D01*
X123639141Y-35899954D01*
X123452734Y-35769432D01*
X123452732Y-35769431D01*
X123246497Y-35673261D01*
X123246488Y-35673258D01*
X123026697Y-35614366D01*
X123026693Y-35614365D01*
X123026692Y-35614365D01*
X123026691Y-35614364D01*
X123026686Y-35614364D01*
X122800002Y-35594532D01*
X122799998Y-35594532D01*
X122573313Y-35614364D01*
X122573302Y-35614366D01*
X122353511Y-35673258D01*
X122353502Y-35673261D01*
X122147267Y-35769431D01*
X122147265Y-35769432D01*
X121960858Y-35899954D01*
X121799954Y-36060858D01*
X121669432Y-36247265D01*
X121669431Y-36247267D01*
X121642382Y-36305275D01*
X121596209Y-36357714D01*
X121529016Y-36376866D01*
X121462135Y-36356650D01*
X121417618Y-36305275D01*
X121390568Y-36247266D01*
X121260047Y-36060861D01*
X121260045Y-36060858D01*
X121099141Y-35899954D01*
X120912734Y-35769432D01*
X120912732Y-35769431D01*
X120706497Y-35673261D01*
X120706488Y-35673258D01*
X120486697Y-35614366D01*
X120486693Y-35614365D01*
X120486692Y-35614365D01*
X120486691Y-35614364D01*
X120486686Y-35614364D01*
X120260002Y-35594532D01*
X120259998Y-35594532D01*
X120033313Y-35614364D01*
X120033302Y-35614366D01*
X119813511Y-35673258D01*
X119813502Y-35673261D01*
X119607267Y-35769431D01*
X119607265Y-35769432D01*
X119420858Y-35899954D01*
X119259954Y-36060858D01*
X119129432Y-36247265D01*
X119129431Y-36247267D01*
X119102382Y-36305275D01*
X119056209Y-36357714D01*
X118989016Y-36376866D01*
X118922135Y-36356650D01*
X118877618Y-36305275D01*
X118850568Y-36247266D01*
X118720047Y-36060861D01*
X118720045Y-36060858D01*
X118559141Y-35899954D01*
X118372734Y-35769432D01*
X118372732Y-35769431D01*
X118166497Y-35673261D01*
X118166488Y-35673258D01*
X117946697Y-35614366D01*
X117946693Y-35614365D01*
X117946692Y-35614365D01*
X117946691Y-35614364D01*
X117946686Y-35614364D01*
X117720002Y-35594532D01*
X117719998Y-35594532D01*
X117493313Y-35614364D01*
X117493302Y-35614366D01*
X117273511Y-35673258D01*
X117273502Y-35673261D01*
X117067267Y-35769431D01*
X117067265Y-35769432D01*
X116880858Y-35899954D01*
X116719954Y-36060858D01*
X116589432Y-36247265D01*
X116589431Y-36247267D01*
X116562382Y-36305275D01*
X116516209Y-36357714D01*
X116449016Y-36376866D01*
X116382135Y-36356650D01*
X116337618Y-36305275D01*
X116310568Y-36247266D01*
X116180047Y-36060861D01*
X116180045Y-36060858D01*
X116019141Y-35899954D01*
X115832734Y-35769432D01*
X115832732Y-35769431D01*
X115626497Y-35673261D01*
X115626488Y-35673258D01*
X115406697Y-35614366D01*
X115406693Y-35614365D01*
X115406692Y-35614365D01*
X115406691Y-35614364D01*
X115406686Y-35614364D01*
X115180002Y-35594532D01*
X115179998Y-35594532D01*
X114953313Y-35614364D01*
X114953302Y-35614366D01*
X114733511Y-35673258D01*
X114733502Y-35673261D01*
X114527267Y-35769431D01*
X114527265Y-35769432D01*
X114340858Y-35899954D01*
X114179954Y-36060858D01*
X114049432Y-36247265D01*
X114049431Y-36247267D01*
X114022382Y-36305275D01*
X113976209Y-36357714D01*
X113909016Y-36376866D01*
X113842135Y-36356650D01*
X113797618Y-36305275D01*
X113770568Y-36247266D01*
X113640047Y-36060861D01*
X113640045Y-36060858D01*
X113479141Y-35899954D01*
X113292734Y-35769432D01*
X113292732Y-35769431D01*
X113086497Y-35673261D01*
X113086488Y-35673258D01*
X112866697Y-35614366D01*
X112866693Y-35614365D01*
X112866692Y-35614365D01*
X112866691Y-35614364D01*
X112866686Y-35614364D01*
X112640002Y-35594532D01*
X112639998Y-35594532D01*
X112413313Y-35614364D01*
X112413302Y-35614366D01*
X112193511Y-35673258D01*
X112193502Y-35673261D01*
X111987267Y-35769431D01*
X111987265Y-35769432D01*
X111800858Y-35899954D01*
X111639954Y-36060858D01*
X111509432Y-36247265D01*
X111509431Y-36247267D01*
X111482382Y-36305275D01*
X111436209Y-36357714D01*
X111369016Y-36376866D01*
X111302135Y-36356650D01*
X111257618Y-36305275D01*
X111230568Y-36247266D01*
X111100047Y-36060861D01*
X111100045Y-36060858D01*
X110939141Y-35899954D01*
X110752734Y-35769432D01*
X110752732Y-35769431D01*
X110546497Y-35673261D01*
X110546488Y-35673258D01*
X110326697Y-35614366D01*
X110326693Y-35614365D01*
X110326692Y-35614365D01*
X110326691Y-35614364D01*
X110326686Y-35614364D01*
X110100002Y-35594532D01*
X110099998Y-35594532D01*
X109873313Y-35614364D01*
X109873302Y-35614366D01*
X109653511Y-35673258D01*
X109653502Y-35673261D01*
X109447267Y-35769431D01*
X109447265Y-35769432D01*
X109260858Y-35899954D01*
X109099954Y-36060858D01*
X108969432Y-36247265D01*
X108969431Y-36247267D01*
X108873261Y-36453502D01*
X108873258Y-36453511D01*
X108814366Y-36673302D01*
X108814364Y-36673313D01*
X108794532Y-36899998D01*
X108794532Y-36900001D01*
X108814364Y-37126686D01*
X108814366Y-37126697D01*
X108873258Y-37346488D01*
X108873261Y-37346497D01*
X108969431Y-37552732D01*
X108969432Y-37552734D01*
X109099954Y-37739141D01*
X109260855Y-37900042D01*
X109260858Y-37900044D01*
X109260861Y-37900047D01*
X109406626Y-38002111D01*
X109450248Y-38056685D01*
X109459500Y-38103684D01*
X109459500Y-38525500D01*
X109439815Y-38592539D01*
X109387011Y-38638294D01*
X109335501Y-38649500D01*
X109164951Y-38649500D01*
X109164944Y-38649501D01*
X109105337Y-38655908D01*
X108970492Y-38706202D01*
X108970485Y-38706206D01*
X108855276Y-38792452D01*
X108855273Y-38792455D01*
X108769027Y-38907664D01*
X108769023Y-38907671D01*
X108718729Y-39042517D01*
X108712322Y-39102116D01*
X108712321Y-39102135D01*
X108712321Y-40897870D01*
X108712322Y-40897876D01*
X108718729Y-40957483D01*
X108769023Y-41092328D01*
X108769027Y-41092335D01*
X108855273Y-41207544D01*
X108855276Y-41207547D01*
X108970485Y-41293793D01*
X108970492Y-41293797D01*
X109105338Y-41344091D01*
X109105337Y-41344091D01*
X109112265Y-41344835D01*
X109164948Y-41350500D01*
X110960693Y-41350499D01*
X111020304Y-41344091D01*
X111155152Y-41293796D01*
X111270367Y-41207546D01*
X111356617Y-41092331D01*
X111405631Y-40960916D01*
X111447502Y-40904984D01*
X111512966Y-40880566D01*
X111581239Y-40895417D01*
X111609494Y-40916569D01*
X111731420Y-41038495D01*
X111821010Y-41101227D01*
X111893185Y-41151764D01*
X111936810Y-41206341D01*
X111944004Y-41275839D01*
X111912481Y-41338194D01*
X111909743Y-41341020D01*
X111187584Y-42063181D01*
X111126261Y-42096666D01*
X111099903Y-42099500D01*
X106618542Y-42099500D01*
X106551503Y-42079815D01*
X106505748Y-42027011D01*
X106495804Y-41957853D01*
X106511155Y-41913501D01*
X106538643Y-41865888D01*
X106556634Y-41834727D01*
X106597557Y-41682000D01*
X106597557Y-41297986D01*
X106617242Y-41230947D01*
X106669158Y-41185602D01*
X106674887Y-41182931D01*
X106868458Y-41047391D01*
X107035552Y-40880297D01*
X107171092Y-40686726D01*
X107270960Y-40472559D01*
X107332120Y-40244304D01*
X107352716Y-40008896D01*
X107332120Y-39773488D01*
X107270960Y-39545233D01*
X107171092Y-39331067D01*
X107165788Y-39323491D01*
X107035551Y-39137493D01*
X106868459Y-38970402D01*
X106868452Y-38970397D01*
X106855754Y-38961506D01*
X106791575Y-38916567D01*
X106674888Y-38834861D01*
X106674878Y-38834855D01*
X106672085Y-38833553D01*
X106671063Y-38832653D01*
X106670197Y-38832153D01*
X106670297Y-38831978D01*
X106619650Y-38787376D01*
X106600500Y-38721176D01*
X106600500Y-38152573D01*
X106620185Y-38085534D01*
X106672093Y-38040192D01*
X106692734Y-38030568D01*
X106879139Y-37900047D01*
X107040047Y-37739139D01*
X107170568Y-37552734D01*
X107266739Y-37346496D01*
X107325635Y-37126692D01*
X107345468Y-36900000D01*
X107325635Y-36673308D01*
X107266739Y-36453504D01*
X107170568Y-36247266D01*
X107040047Y-36060861D01*
X107040045Y-36060858D01*
X106879141Y-35899954D01*
X106692734Y-35769432D01*
X106692732Y-35769431D01*
X106486497Y-35673261D01*
X106486488Y-35673258D01*
X106266697Y-35614366D01*
X106266693Y-35614365D01*
X106266692Y-35614365D01*
X106266691Y-35614364D01*
X106266686Y-35614364D01*
X106040002Y-35594532D01*
X106039998Y-35594532D01*
X105813313Y-35614364D01*
X105813302Y-35614366D01*
X105593511Y-35673258D01*
X105593502Y-35673261D01*
X105387267Y-35769431D01*
X105387265Y-35769432D01*
X105200858Y-35899954D01*
X105039954Y-36060858D01*
X104909432Y-36247265D01*
X104909431Y-36247267D01*
X104882382Y-36305275D01*
X104836209Y-36357714D01*
X104769016Y-36376866D01*
X104702135Y-36356650D01*
X104657618Y-36305275D01*
X104630568Y-36247266D01*
X104500047Y-36060861D01*
X104500045Y-36060858D01*
X104339141Y-35899954D01*
X104152734Y-35769432D01*
X104152732Y-35769431D01*
X103946497Y-35673261D01*
X103946488Y-35673258D01*
X103726697Y-35614366D01*
X103726693Y-35614365D01*
X103726692Y-35614365D01*
X103726691Y-35614364D01*
X103726686Y-35614364D01*
X103500002Y-35594532D01*
X103499998Y-35594532D01*
X103273313Y-35614364D01*
X103273302Y-35614366D01*
X103053511Y-35673258D01*
X103053502Y-35673261D01*
X102847267Y-35769431D01*
X102847265Y-35769432D01*
X102660858Y-35899954D01*
X102499954Y-36060858D01*
X102369432Y-36247265D01*
X102369431Y-36247267D01*
X102342382Y-36305275D01*
X102296209Y-36357714D01*
X102229016Y-36376866D01*
X102162135Y-36356650D01*
X102117618Y-36305275D01*
X102090568Y-36247266D01*
X101960047Y-36060861D01*
X101960045Y-36060858D01*
X101799141Y-35899954D01*
X101612734Y-35769432D01*
X101612732Y-35769431D01*
X101406497Y-35673261D01*
X101406488Y-35673258D01*
X101186697Y-35614366D01*
X101186693Y-35614365D01*
X101186692Y-35614365D01*
X101186691Y-35614364D01*
X101186686Y-35614364D01*
X100960002Y-35594532D01*
X100959998Y-35594532D01*
X100733313Y-35614364D01*
X100733302Y-35614366D01*
X100513511Y-35673258D01*
X100513502Y-35673261D01*
X100307267Y-35769431D01*
X100307265Y-35769432D01*
X100120858Y-35899954D01*
X99959954Y-36060858D01*
X99829432Y-36247265D01*
X99829431Y-36247267D01*
X99802382Y-36305275D01*
X99756209Y-36357714D01*
X99689016Y-36376866D01*
X99622135Y-36356650D01*
X99577618Y-36305275D01*
X99550568Y-36247266D01*
X99420047Y-36060861D01*
X99420045Y-36060858D01*
X99259141Y-35899954D01*
X99072734Y-35769432D01*
X99072732Y-35769431D01*
X98866497Y-35673261D01*
X98866488Y-35673258D01*
X98646697Y-35614366D01*
X98646693Y-35614365D01*
X98646692Y-35614365D01*
X98646691Y-35614364D01*
X98646686Y-35614364D01*
X98420002Y-35594532D01*
X98419998Y-35594532D01*
X98193313Y-35614364D01*
X98193302Y-35614366D01*
X97973511Y-35673258D01*
X97973502Y-35673261D01*
X97767267Y-35769431D01*
X97767265Y-35769432D01*
X97580858Y-35899954D01*
X97419954Y-36060858D01*
X97289432Y-36247265D01*
X97289431Y-36247267D01*
X97262382Y-36305275D01*
X97216209Y-36357714D01*
X97149016Y-36376866D01*
X97082135Y-36356650D01*
X97037618Y-36305275D01*
X97010568Y-36247266D01*
X96880047Y-36060861D01*
X96880045Y-36060858D01*
X96719141Y-35899954D01*
X96532734Y-35769432D01*
X96532732Y-35769431D01*
X96326497Y-35673261D01*
X96326488Y-35673258D01*
X96106697Y-35614366D01*
X96106693Y-35614365D01*
X96106692Y-35614365D01*
X96106691Y-35614364D01*
X96106686Y-35614364D01*
X95880002Y-35594532D01*
X95879998Y-35594532D01*
X95653313Y-35614364D01*
X95653302Y-35614366D01*
X95433511Y-35673258D01*
X95433502Y-35673261D01*
X95227267Y-35769431D01*
X95227265Y-35769432D01*
X95040858Y-35899954D01*
X94879954Y-36060858D01*
X94749432Y-36247265D01*
X94749431Y-36247267D01*
X94722382Y-36305275D01*
X94676209Y-36357714D01*
X94609016Y-36376866D01*
X94542135Y-36356650D01*
X94497618Y-36305275D01*
X94470568Y-36247266D01*
X94340047Y-36060861D01*
X94340045Y-36060858D01*
X94179141Y-35899954D01*
X93992734Y-35769432D01*
X93992732Y-35769431D01*
X93786497Y-35673261D01*
X93786488Y-35673258D01*
X93566697Y-35614366D01*
X93566693Y-35614365D01*
X93566692Y-35614365D01*
X93566691Y-35614364D01*
X93566686Y-35614364D01*
X93340002Y-35594532D01*
X93339998Y-35594532D01*
X93113313Y-35614364D01*
X93113302Y-35614366D01*
X92893511Y-35673258D01*
X92893502Y-35673261D01*
X92687267Y-35769431D01*
X92687265Y-35769432D01*
X92500858Y-35899954D01*
X92339954Y-36060858D01*
X92209433Y-36247264D01*
X92209432Y-36247266D01*
X92204112Y-36258676D01*
X92182106Y-36305867D01*
X92135933Y-36358306D01*
X92068739Y-36377457D01*
X92001858Y-36357241D01*
X91957342Y-36305865D01*
X91930135Y-36247520D01*
X91930134Y-36247518D01*
X91799657Y-36061179D01*
X91638820Y-35900342D01*
X91452482Y-35769865D01*
X91246328Y-35673734D01*
X91050000Y-35621127D01*
X91050000Y-36466988D01*
X90992993Y-36434075D01*
X90865826Y-36400000D01*
X90734174Y-36400000D01*
X90607007Y-36434075D01*
X90550000Y-36466988D01*
X90550000Y-35621127D01*
X90353671Y-35673734D01*
X90147517Y-35769865D01*
X89961179Y-35900342D01*
X89800342Y-36061179D01*
X89669867Y-36247515D01*
X89642657Y-36305867D01*
X89596484Y-36358306D01*
X89529290Y-36377457D01*
X89462409Y-36357241D01*
X89417893Y-36305865D01*
X89395888Y-36258676D01*
X89390568Y-36247266D01*
X89260047Y-36060861D01*
X89260045Y-36060858D01*
X89099141Y-35899954D01*
X88912734Y-35769432D01*
X88912732Y-35769431D01*
X88706497Y-35673261D01*
X88706488Y-35673258D01*
X88486697Y-35614366D01*
X88486693Y-35614365D01*
X88486692Y-35614365D01*
X88486691Y-35614364D01*
X88486686Y-35614364D01*
X88260002Y-35594532D01*
X88259998Y-35594532D01*
X88033313Y-35614364D01*
X88033302Y-35614366D01*
X87813511Y-35673258D01*
X87813502Y-35673261D01*
X87607267Y-35769431D01*
X87607265Y-35769432D01*
X87420858Y-35899954D01*
X87259954Y-36060858D01*
X87129432Y-36247265D01*
X87129431Y-36247267D01*
X87102382Y-36305275D01*
X87056209Y-36357714D01*
X86989016Y-36376866D01*
X86922135Y-36356650D01*
X86877618Y-36305275D01*
X86850568Y-36247266D01*
X86720047Y-36060861D01*
X86720045Y-36060858D01*
X86559141Y-35899954D01*
X86372734Y-35769432D01*
X86372732Y-35769431D01*
X86166497Y-35673261D01*
X86166488Y-35673258D01*
X85946697Y-35614366D01*
X85946693Y-35614365D01*
X85946692Y-35614365D01*
X85946691Y-35614364D01*
X85946686Y-35614364D01*
X85720002Y-35594532D01*
X85719998Y-35594532D01*
X85493313Y-35614364D01*
X85493302Y-35614366D01*
X85273511Y-35673258D01*
X85273502Y-35673261D01*
X85067267Y-35769431D01*
X85067265Y-35769432D01*
X84880858Y-35899954D01*
X84719954Y-36060858D01*
X84589432Y-36247265D01*
X84589431Y-36247267D01*
X84562382Y-36305275D01*
X84516209Y-36357714D01*
X84449016Y-36376866D01*
X84382135Y-36356650D01*
X84337618Y-36305275D01*
X84310568Y-36247266D01*
X84180047Y-36060861D01*
X84180045Y-36060858D01*
X84019141Y-35899954D01*
X83832734Y-35769432D01*
X83832732Y-35769431D01*
X83626497Y-35673261D01*
X83626488Y-35673258D01*
X83406697Y-35614366D01*
X83406693Y-35614365D01*
X83406692Y-35614365D01*
X83406691Y-35614364D01*
X83406686Y-35614364D01*
X83180002Y-35594532D01*
X83179998Y-35594532D01*
X82953313Y-35614364D01*
X82953302Y-35614366D01*
X82733511Y-35673258D01*
X82733502Y-35673261D01*
X82527267Y-35769431D01*
X82527265Y-35769432D01*
X82340858Y-35899954D01*
X82179954Y-36060858D01*
X82049432Y-36247265D01*
X82049431Y-36247267D01*
X81953261Y-36453502D01*
X81953258Y-36453511D01*
X81894366Y-36673302D01*
X81894364Y-36673313D01*
X81874532Y-36899998D01*
X81874532Y-36900001D01*
X81894364Y-37126686D01*
X81894366Y-37126697D01*
X81953258Y-37346488D01*
X81953261Y-37346497D01*
X82049431Y-37552732D01*
X82049432Y-37552734D01*
X82179954Y-37739141D01*
X82340855Y-37900042D01*
X82340858Y-37900044D01*
X82340861Y-37900047D01*
X82486626Y-38002111D01*
X82530248Y-38056685D01*
X82539500Y-38103684D01*
X82539500Y-38534396D01*
X82519815Y-38601435D01*
X82467011Y-38647190D01*
X82415501Y-38658396D01*
X82239187Y-38658396D01*
X82239180Y-38658397D01*
X82179573Y-38664804D01*
X82044728Y-38715098D01*
X82044721Y-38715102D01*
X81929512Y-38801348D01*
X81929509Y-38801351D01*
X81843263Y-38916560D01*
X81843259Y-38916567D01*
X81792965Y-39051413D01*
X81786558Y-39111012D01*
X81786557Y-39111031D01*
X81786557Y-40906766D01*
X81786558Y-40906772D01*
X81792965Y-40966379D01*
X81843259Y-41101224D01*
X81843263Y-41101231D01*
X81929509Y-41216440D01*
X81929512Y-41216443D01*
X82044721Y-41302689D01*
X82044728Y-41302693D01*
X82179574Y-41352987D01*
X82179573Y-41352987D01*
X82186501Y-41353731D01*
X82239184Y-41359396D01*
X84034929Y-41359395D01*
X84094540Y-41352987D01*
X84229388Y-41302692D01*
X84344603Y-41216442D01*
X84430853Y-41101227D01*
X84479867Y-40969812D01*
X84521738Y-40913880D01*
X84587202Y-40889462D01*
X84655475Y-40904313D01*
X84683730Y-40925465D01*
X84805656Y-41047391D01*
X84902441Y-41115161D01*
X84999222Y-41182928D01*
X84999224Y-41182929D01*
X84999227Y-41182931D01*
X85213394Y-41282799D01*
X85213400Y-41282800D01*
X85213401Y-41282801D01*
X85268342Y-41297522D01*
X85441649Y-41343959D01*
X85618091Y-41359396D01*
X85677056Y-41364555D01*
X85677057Y-41364555D01*
X85677058Y-41364555D01*
X85736023Y-41359396D01*
X85912465Y-41343959D01*
X86140720Y-41282799D01*
X86354887Y-41182931D01*
X86548458Y-41047391D01*
X86715552Y-40880297D01*
X86845482Y-40694738D01*
X86900059Y-40651113D01*
X86969557Y-40643919D01*
X87031912Y-40675442D01*
X87048632Y-40694738D01*
X87178557Y-40880291D01*
X87178562Y-40880297D01*
X87345656Y-41047391D01*
X87442441Y-41115161D01*
X87539222Y-41182928D01*
X87539224Y-41182929D01*
X87539227Y-41182931D01*
X87753394Y-41282799D01*
X87753400Y-41282800D01*
X87753401Y-41282801D01*
X87808342Y-41297522D01*
X87981649Y-41343959D01*
X88158091Y-41359396D01*
X88217056Y-41364555D01*
X88217057Y-41364555D01*
X88217058Y-41364555D01*
X88276023Y-41359396D01*
X88452465Y-41343959D01*
X88680720Y-41282799D01*
X88894887Y-41182931D01*
X89088458Y-41047391D01*
X89255552Y-40880297D01*
X89385787Y-40694301D01*
X89440364Y-40650677D01*
X89509862Y-40643483D01*
X89572217Y-40675006D01*
X89588936Y-40694301D01*
X89718947Y-40879974D01*
X89885974Y-41047001D01*
X90079478Y-41182496D01*
X90293564Y-41282325D01*
X90293573Y-41282329D01*
X90507057Y-41339530D01*
X90507057Y-40441908D01*
X90564064Y-40474821D01*
X90691231Y-40508896D01*
X90822883Y-40508896D01*
X90950050Y-40474821D01*
X91007057Y-40441908D01*
X91007057Y-41339529D01*
X91220540Y-41282329D01*
X91220549Y-41282325D01*
X91434635Y-41182496D01*
X91628139Y-41047001D01*
X91795162Y-40879978D01*
X91925176Y-40694301D01*
X91979753Y-40650677D01*
X92049252Y-40643484D01*
X92111606Y-40675006D01*
X92128326Y-40694301D01*
X92258562Y-40880297D01*
X92425656Y-41047391D01*
X92522441Y-41115161D01*
X92619222Y-41182928D01*
X92619224Y-41182929D01*
X92619227Y-41182931D01*
X92833394Y-41282799D01*
X92833400Y-41282800D01*
X92833401Y-41282801D01*
X92888342Y-41297522D01*
X93061649Y-41343959D01*
X93238091Y-41359396D01*
X93297056Y-41364555D01*
X93297057Y-41364555D01*
X93297058Y-41364555D01*
X93356023Y-41359396D01*
X93532465Y-41343959D01*
X93760720Y-41282799D01*
X93974887Y-41182931D01*
X94168458Y-41047391D01*
X94335552Y-40880297D01*
X94465482Y-40694738D01*
X94520059Y-40651113D01*
X94589557Y-40643919D01*
X94651912Y-40675442D01*
X94668632Y-40694738D01*
X94798557Y-40880291D01*
X94798562Y-40880297D01*
X94965656Y-41047391D01*
X95062441Y-41115161D01*
X95159222Y-41182928D01*
X95159224Y-41182929D01*
X95159227Y-41182931D01*
X95373394Y-41282799D01*
X95373400Y-41282800D01*
X95373401Y-41282801D01*
X95428342Y-41297522D01*
X95601649Y-41343959D01*
X95778091Y-41359396D01*
X95837056Y-41364555D01*
X95837057Y-41364555D01*
X95837058Y-41364555D01*
X95896023Y-41359396D01*
X96072465Y-41343959D01*
X96300720Y-41282799D01*
X96514887Y-41182931D01*
X96708458Y-41047391D01*
X96875552Y-40880297D01*
X97005482Y-40694738D01*
X97060059Y-40651113D01*
X97129557Y-40643919D01*
X97191912Y-40675442D01*
X97208632Y-40694738D01*
X97338557Y-40880291D01*
X97338562Y-40880297D01*
X97505656Y-41047391D01*
X97602441Y-41115161D01*
X97699222Y-41182928D01*
X97699224Y-41182929D01*
X97699227Y-41182931D01*
X97913394Y-41282799D01*
X97913400Y-41282800D01*
X97913401Y-41282801D01*
X97968342Y-41297522D01*
X98141649Y-41343959D01*
X98318091Y-41359396D01*
X98377056Y-41364555D01*
X98377057Y-41364555D01*
X98377058Y-41364555D01*
X98436023Y-41359396D01*
X98612465Y-41343959D01*
X98840720Y-41282799D01*
X99054887Y-41182931D01*
X99248458Y-41047391D01*
X99415552Y-40880297D01*
X99545482Y-40694738D01*
X99600059Y-40651113D01*
X99669557Y-40643919D01*
X99731912Y-40675442D01*
X99748632Y-40694738D01*
X99878557Y-40880291D01*
X99878562Y-40880297D01*
X100045656Y-41047391D01*
X100142441Y-41115161D01*
X100239222Y-41182928D01*
X100239224Y-41182929D01*
X100239227Y-41182931D01*
X100453394Y-41282799D01*
X100453400Y-41282800D01*
X100453401Y-41282801D01*
X100508342Y-41297522D01*
X100681649Y-41343959D01*
X100858091Y-41359396D01*
X100917056Y-41364555D01*
X100917057Y-41364555D01*
X100917058Y-41364555D01*
X100976023Y-41359396D01*
X101152465Y-41343959D01*
X101380720Y-41282799D01*
X101594887Y-41182931D01*
X101788458Y-41047391D01*
X101955552Y-40880297D01*
X102085482Y-40694738D01*
X102140059Y-40651113D01*
X102209557Y-40643919D01*
X102271912Y-40675442D01*
X102288632Y-40694738D01*
X102418557Y-40880291D01*
X102418562Y-40880297D01*
X102585656Y-41047391D01*
X102682441Y-41115161D01*
X102779222Y-41182928D01*
X102779224Y-41182929D01*
X102779227Y-41182931D01*
X102784955Y-41185602D01*
X102837396Y-41231768D01*
X102856557Y-41297986D01*
X102856557Y-41770387D01*
X102856556Y-41770405D01*
X102856556Y-41936111D01*
X102856555Y-41936111D01*
X102896038Y-42083464D01*
X102897480Y-42088842D01*
X102916013Y-42120942D01*
X102916014Y-42120944D01*
X102916015Y-42120944D01*
X102932752Y-42149934D01*
X102976536Y-42225771D01*
X102976538Y-42225774D01*
X103163181Y-42412417D01*
X103196666Y-42473740D01*
X103199500Y-42500098D01*
X103199500Y-45043813D01*
X103179815Y-45110852D01*
X103127011Y-45156607D01*
X103057853Y-45166551D01*
X102994297Y-45137526D01*
X102960939Y-45091266D01*
X102911624Y-44972211D01*
X102886631Y-44911872D01*
X102886629Y-44911869D01*
X102886627Y-44911865D01*
X102777139Y-44748005D01*
X102777136Y-44748001D01*
X102637784Y-44608649D01*
X102637780Y-44608646D01*
X102473920Y-44499158D01*
X102473911Y-44499153D01*
X102291835Y-44423735D01*
X102291827Y-44423733D01*
X102098543Y-44385286D01*
X102098540Y-44385286D01*
X101901459Y-44385286D01*
X101901456Y-44385286D01*
X101708171Y-44423733D01*
X101708163Y-44423735D01*
X101526087Y-44499153D01*
X101526078Y-44499158D01*
X101362220Y-44608644D01*
X101362217Y-44608647D01*
X92507210Y-53463655D01*
X83677220Y-62293645D01*
X83677218Y-62293647D01*
X83634997Y-62335868D01*
X83537859Y-62433005D01*
X83428371Y-62596866D01*
X83428364Y-62596879D01*
X83389759Y-62690083D01*
X83389759Y-62690084D01*
X83365636Y-62748322D01*
X83352949Y-62778950D01*
X83343460Y-62826655D01*
X83343460Y-62826656D01*
X83314500Y-62972242D01*
X83314500Y-68379140D01*
X83294815Y-68446179D01*
X83242011Y-68491934D01*
X83172853Y-68501878D01*
X83109297Y-68472853D01*
X83074318Y-68422473D01*
X83068797Y-68407671D01*
X83068793Y-68407664D01*
X82982547Y-68292455D01*
X82982544Y-68292452D01*
X82867335Y-68206206D01*
X82867328Y-68206202D01*
X82732482Y-68155908D01*
X82732483Y-68155908D01*
X82672883Y-68149501D01*
X82672881Y-68149500D01*
X82672873Y-68149500D01*
X82672864Y-68149500D01*
X80877129Y-68149500D01*
X80877123Y-68149501D01*
X80817516Y-68155908D01*
X80682671Y-68206202D01*
X80682664Y-68206206D01*
X80567455Y-68292452D01*
X80567452Y-68292455D01*
X80481206Y-68407664D01*
X80481204Y-68407668D01*
X80481204Y-68407669D01*
X80477039Y-68418834D01*
X80435171Y-68474766D01*
X80369707Y-68499184D01*
X80360859Y-68499500D01*
X79767990Y-68499500D01*
X79700951Y-68479815D01*
X79656778Y-68430344D01*
X79628172Y-68372336D01*
X79620932Y-68361501D01*
X79530459Y-68226098D01*
X79464273Y-68127043D01*
X79396270Y-68049501D01*
X79269758Y-67905241D01*
X79047955Y-67710725D01*
X78802667Y-67546829D01*
X78802660Y-67546825D01*
X78538080Y-67416349D01*
X78258730Y-67321521D01*
X78258724Y-67321519D01*
X78258722Y-67321519D01*
X77969380Y-67263966D01*
X77969373Y-67263965D01*
X77969363Y-67263964D01*
X77675007Y-67244671D01*
X77674993Y-67244671D01*
X77380636Y-67263964D01*
X77380624Y-67263965D01*
X77380620Y-67263966D01*
X77380612Y-67263967D01*
X77380609Y-67263968D01*
X77091283Y-67321518D01*
X77091269Y-67321521D01*
X76811919Y-67416349D01*
X76547334Y-67546828D01*
X76302041Y-67710728D01*
X76080241Y-67905241D01*
X75885728Y-68127041D01*
X75721828Y-68372334D01*
X75591349Y-68636919D01*
X75496521Y-68916269D01*
X75496518Y-68916283D01*
X75438968Y-69205609D01*
X75438964Y-69205636D01*
X75419671Y-69499992D01*
X75419671Y-69500007D01*
X75438964Y-69794363D01*
X75438965Y-69794373D01*
X75438966Y-69794380D01*
X75487769Y-70039734D01*
X75496518Y-70083716D01*
X75496521Y-70083730D01*
X75591349Y-70363080D01*
X75721825Y-70627660D01*
X75721829Y-70627667D01*
X75885725Y-70872955D01*
X76080241Y-71094758D01*
X76302044Y-71289274D01*
X76528144Y-71440349D01*
X76547335Y-71453172D01*
X76811923Y-71583652D01*
X77091278Y-71678481D01*
X77380620Y-71736034D01*
X77408888Y-71737886D01*
X77674993Y-71755329D01*
X77675000Y-71755329D01*
X77675007Y-71755329D01*
X77910675Y-71739881D01*
X77969380Y-71736034D01*
X78258722Y-71678481D01*
X78538077Y-71583652D01*
X78802665Y-71453172D01*
X79047957Y-71289273D01*
X79269758Y-71094758D01*
X79464273Y-70872957D01*
X79628172Y-70627665D01*
X79656778Y-70569655D01*
X79704084Y-70518237D01*
X79767991Y-70500500D01*
X80360859Y-70500500D01*
X80427898Y-70520185D01*
X80473653Y-70572989D01*
X80477030Y-70581140D01*
X80481204Y-70592331D01*
X80481205Y-70592332D01*
X80481206Y-70592335D01*
X80567452Y-70707544D01*
X80567455Y-70707547D01*
X80682664Y-70793793D01*
X80682671Y-70793797D01*
X80727618Y-70810561D01*
X80817517Y-70844091D01*
X80877127Y-70850500D01*
X81050500Y-70850499D01*
X81117539Y-70870183D01*
X81163294Y-70922987D01*
X81174500Y-70974499D01*
X81174500Y-73624903D01*
X81154815Y-73691942D01*
X81138181Y-73712584D01*
X80731284Y-74119481D01*
X79631286Y-75219478D01*
X79519481Y-75331282D01*
X79519479Y-75331285D01*
X79506431Y-75353886D01*
X79476133Y-75406365D01*
X79469361Y-75418094D01*
X79469359Y-75418096D01*
X79440425Y-75468209D01*
X79440424Y-75468210D01*
X79426673Y-75519530D01*
X79399499Y-75620943D01*
X79399499Y-75620945D01*
X79399499Y-75789046D01*
X79399500Y-75789059D01*
X79399500Y-76983284D01*
X79379815Y-77050323D01*
X79339652Y-77089400D01*
X79289811Y-77119530D01*
X79169530Y-77239811D01*
X79081522Y-77385393D01*
X79030913Y-77547807D01*
X79024500Y-77618386D01*
X79024500Y-78131613D01*
X79030913Y-78202192D01*
X79030913Y-78202194D01*
X79030914Y-78202196D01*
X79081522Y-78364606D01*
X79132842Y-78449500D01*
X79169530Y-78510188D01*
X79271661Y-78612319D01*
X79305146Y-78673642D01*
X79300162Y-78743334D01*
X79271661Y-78787681D01*
X79169531Y-78889810D01*
X79169530Y-78889811D01*
X79081522Y-79035393D01*
X79030913Y-79197807D01*
X79024500Y-79268386D01*
X79024500Y-79781613D01*
X79030913Y-79852192D01*
X79030913Y-79852194D01*
X79030914Y-79852196D01*
X79081522Y-80014606D01*
X79132391Y-80098754D01*
X79169530Y-80160188D01*
X79289811Y-80280469D01*
X79289813Y-80280470D01*
X79289815Y-80280472D01*
X79435394Y-80368478D01*
X79597804Y-80419086D01*
X79668384Y-80425500D01*
X79668387Y-80425500D01*
X80331613Y-80425500D01*
X80331616Y-80425500D01*
X80402196Y-80419086D01*
X80564606Y-80368478D01*
X80689510Y-80292969D01*
X80757062Y-80275134D01*
X80818753Y-80293548D01*
X80927075Y-80360362D01*
X81092225Y-80415087D01*
X81194152Y-80425500D01*
X81194157Y-80425500D01*
X82205843Y-80425500D01*
X82205848Y-80425500D01*
X82307775Y-80415087D01*
X82472925Y-80360362D01*
X82621003Y-80269026D01*
X82744026Y-80146003D01*
X82835362Y-79997925D01*
X82890087Y-79832775D01*
X82900500Y-79730848D01*
X82900500Y-79144152D01*
X82890087Y-79042225D01*
X82835362Y-78877075D01*
X82835358Y-78877069D01*
X82835357Y-78877066D01*
X82744028Y-78729000D01*
X82744025Y-78728996D01*
X82621003Y-78605974D01*
X82620995Y-78605968D01*
X82619812Y-78605238D01*
X82619171Y-78604525D01*
X82615336Y-78601493D01*
X82615854Y-78600837D01*
X82573091Y-78553287D01*
X82561875Y-78484323D01*
X82589723Y-78420243D01*
X82615123Y-78398238D01*
X82615023Y-78398112D01*
X82617842Y-78395882D01*
X82619832Y-78394159D01*
X82620692Y-78393628D01*
X82743629Y-78270691D01*
X82834903Y-78122714D01*
X82834905Y-78122709D01*
X82889592Y-77957673D01*
X82899999Y-77855815D01*
X82900000Y-77855802D01*
X82900000Y-77812500D01*
X81574000Y-77812500D01*
X81506961Y-77792815D01*
X81461206Y-77740011D01*
X81450000Y-77688500D01*
X81450000Y-77312500D01*
X81950000Y-77312500D01*
X82900000Y-77312500D01*
X82900000Y-77269197D01*
X82899999Y-77269184D01*
X82889592Y-77167326D01*
X82834905Y-77002290D01*
X82834903Y-77002285D01*
X82743629Y-76854308D01*
X82620691Y-76731370D01*
X82472714Y-76640096D01*
X82472709Y-76640094D01*
X82307673Y-76585407D01*
X82205815Y-76575000D01*
X81950000Y-76575000D01*
X81950000Y-77312500D01*
X81450000Y-77312500D01*
X81450000Y-76575000D01*
X81194184Y-76575000D01*
X81092326Y-76585407D01*
X80927290Y-76640094D01*
X80927285Y-76640096D01*
X80789597Y-76725024D01*
X80722204Y-76743464D01*
X80655541Y-76722541D01*
X80610771Y-76668899D01*
X80600500Y-76619485D01*
X80600500Y-76000097D01*
X80620185Y-75933058D01*
X80636819Y-75912416D01*
X81580519Y-74968716D01*
X81701696Y-74847539D01*
X82143713Y-74405521D01*
X82143716Y-74405520D01*
X82255520Y-74293716D01*
X82305639Y-74206904D01*
X82334577Y-74156785D01*
X82375500Y-74004057D01*
X82375500Y-73845943D01*
X82375500Y-70974499D01*
X82395185Y-70907460D01*
X82447989Y-70861705D01*
X82499500Y-70850499D01*
X82672871Y-70850499D01*
X82672872Y-70850499D01*
X82732483Y-70844091D01*
X82867331Y-70793796D01*
X82982546Y-70707546D01*
X83068796Y-70592331D01*
X83117810Y-70460916D01*
X83159681Y-70404984D01*
X83225145Y-70380566D01*
X83293418Y-70395417D01*
X83321673Y-70416569D01*
X83443599Y-70538495D01*
X83534668Y-70602262D01*
X83637165Y-70674032D01*
X83637167Y-70674033D01*
X83637170Y-70674035D01*
X83851337Y-70773903D01*
X83851343Y-70773904D01*
X83851344Y-70773905D01*
X83906285Y-70788626D01*
X84079592Y-70835063D01*
X84256034Y-70850500D01*
X84314999Y-70855659D01*
X84315000Y-70855659D01*
X84315001Y-70855659D01*
X84373966Y-70850500D01*
X84550408Y-70835063D01*
X84778663Y-70773903D01*
X84992830Y-70674035D01*
X85186401Y-70538495D01*
X85353495Y-70371401D01*
X85483425Y-70185842D01*
X85538002Y-70142217D01*
X85607500Y-70135023D01*
X85669855Y-70166546D01*
X85686575Y-70185842D01*
X85810678Y-70363080D01*
X85816505Y-70371401D01*
X85983599Y-70538495D01*
X86074668Y-70602262D01*
X86177165Y-70674032D01*
X86177167Y-70674033D01*
X86177170Y-70674035D01*
X86182898Y-70676706D01*
X86235339Y-70722872D01*
X86254500Y-70789090D01*
X86254500Y-72844902D01*
X86234815Y-72911941D01*
X86218181Y-72932583D01*
X84519481Y-74631282D01*
X84519479Y-74631285D01*
X84469361Y-74718094D01*
X84469359Y-74718096D01*
X84440425Y-74768209D01*
X84440424Y-74768210D01*
X84440423Y-74768215D01*
X84399499Y-74920943D01*
X84399499Y-74920945D01*
X84399499Y-75089046D01*
X84399500Y-75089059D01*
X84399500Y-75383284D01*
X84379815Y-75450323D01*
X84339652Y-75489400D01*
X84289811Y-75519530D01*
X84169530Y-75639811D01*
X84081522Y-75785393D01*
X84030913Y-75947807D01*
X84024500Y-76018386D01*
X84024500Y-76531613D01*
X84030913Y-76602192D01*
X84030913Y-76602194D01*
X84030914Y-76602196D01*
X84081522Y-76764606D01*
X84132842Y-76849500D01*
X84169530Y-76910188D01*
X84271661Y-77012319D01*
X84305146Y-77073642D01*
X84300162Y-77143334D01*
X84271661Y-77187681D01*
X84169531Y-77289810D01*
X84169530Y-77289811D01*
X84081522Y-77435393D01*
X84030913Y-77597807D01*
X84024500Y-77668386D01*
X84024500Y-78181613D01*
X84030913Y-78252192D01*
X84030913Y-78252194D01*
X84030914Y-78252196D01*
X84076323Y-78397922D01*
X84081522Y-78414606D01*
X84169530Y-78560188D01*
X84289811Y-78680469D01*
X84289813Y-78680470D01*
X84289815Y-78680472D01*
X84435394Y-78768478D01*
X84597804Y-78819086D01*
X84668384Y-78825500D01*
X84668387Y-78825500D01*
X85331613Y-78825500D01*
X85331616Y-78825500D01*
X85402196Y-78819086D01*
X85564606Y-78768478D01*
X85689510Y-78692969D01*
X85757062Y-78675134D01*
X85818753Y-78693548D01*
X85927075Y-78760362D01*
X86092225Y-78815087D01*
X86194152Y-78825500D01*
X86194157Y-78825500D01*
X87205843Y-78825500D01*
X87205848Y-78825500D01*
X87307775Y-78815087D01*
X87472925Y-78760362D01*
X87621003Y-78669026D01*
X87744026Y-78546003D01*
X87744027Y-78546000D01*
X87744030Y-78545998D01*
X87835357Y-78397933D01*
X87835356Y-78397933D01*
X87835362Y-78397925D01*
X87890087Y-78232775D01*
X87900500Y-78130848D01*
X87900500Y-77544152D01*
X87890087Y-77442225D01*
X87835362Y-77277075D01*
X87835358Y-77277069D01*
X87835357Y-77277066D01*
X87744028Y-77129000D01*
X87744025Y-77128996D01*
X87621003Y-77005974D01*
X87620995Y-77005968D01*
X87619812Y-77005238D01*
X87619171Y-77004525D01*
X87615336Y-77001493D01*
X87615854Y-77000837D01*
X87573091Y-76953287D01*
X87561875Y-76884323D01*
X87589723Y-76820243D01*
X87615123Y-76798238D01*
X87615023Y-76798112D01*
X87617842Y-76795882D01*
X87619832Y-76794159D01*
X87620692Y-76793628D01*
X87743629Y-76670691D01*
X87834903Y-76522714D01*
X87834905Y-76522709D01*
X87889592Y-76357673D01*
X87899999Y-76255815D01*
X87900000Y-76255802D01*
X87900000Y-76212500D01*
X86574000Y-76212500D01*
X86506961Y-76192815D01*
X86461206Y-76140011D01*
X86450000Y-76088500D01*
X86450000Y-75712500D01*
X86950000Y-75712500D01*
X87900000Y-75712500D01*
X87900000Y-75669197D01*
X87899999Y-75669184D01*
X87889592Y-75567326D01*
X87834905Y-75402290D01*
X87834903Y-75402285D01*
X87743629Y-75254308D01*
X87620691Y-75131370D01*
X87472714Y-75040096D01*
X87472709Y-75040094D01*
X87307673Y-74985407D01*
X87205815Y-74975000D01*
X86950000Y-74975000D01*
X86950000Y-75712500D01*
X86450000Y-75712500D01*
X86450000Y-74975000D01*
X86194197Y-74975000D01*
X86194174Y-74975001D01*
X86184571Y-74975982D01*
X86115878Y-74963211D01*
X86064995Y-74915329D01*
X86048076Y-74847539D01*
X86070494Y-74781363D01*
X86084287Y-74764947D01*
X87213506Y-73635727D01*
X87213511Y-73635724D01*
X87223714Y-73625520D01*
X87223716Y-73625520D01*
X87335520Y-73513716D01*
X87392741Y-73414606D01*
X87414577Y-73376785D01*
X87455500Y-73224057D01*
X87455500Y-73065943D01*
X87455500Y-70789090D01*
X87475185Y-70722051D01*
X87527101Y-70676706D01*
X87532830Y-70674035D01*
X87726401Y-70538495D01*
X87728077Y-70536819D01*
X87728995Y-70536317D01*
X87730544Y-70535018D01*
X87730805Y-70535329D01*
X87789400Y-70503334D01*
X87815758Y-70500500D01*
X88934218Y-70500500D01*
X89001257Y-70520185D01*
X89021899Y-70536819D01*
X97662215Y-79177137D01*
X97662219Y-79177140D01*
X97826079Y-79286628D01*
X97826088Y-79286633D01*
X97917125Y-79324342D01*
X98008165Y-79362052D01*
X98169389Y-79394121D01*
X98201457Y-79400499D01*
X98201458Y-79400500D01*
X98201459Y-79400500D01*
X98201460Y-79400500D01*
X98398540Y-79400500D01*
X107434218Y-79400500D01*
X107501257Y-79420185D01*
X107521899Y-79436819D01*
X109035842Y-80950762D01*
X109069327Y-81012085D01*
X109064343Y-81081777D01*
X109037518Y-81123518D01*
X109037661Y-81123638D01*
X109036727Y-81124750D01*
X109035850Y-81126116D01*
X109034184Y-81127781D01*
X108903944Y-81313784D01*
X108849367Y-81357408D01*
X108779868Y-81364601D01*
X108717514Y-81333079D01*
X108700794Y-81313783D01*
X108570788Y-81128115D01*
X108570783Y-81128109D01*
X108403757Y-80961083D01*
X108210253Y-80825588D01*
X107996167Y-80725759D01*
X107996161Y-80725756D01*
X107782675Y-80668553D01*
X107782675Y-81566177D01*
X107725668Y-81533264D01*
X107598501Y-81499189D01*
X107466849Y-81499189D01*
X107339682Y-81533264D01*
X107282675Y-81566177D01*
X107282675Y-80668553D01*
X107282674Y-80668553D01*
X107069188Y-80725756D01*
X107069182Y-80725759D01*
X106855097Y-80825588D01*
X106855095Y-80825589D01*
X106661601Y-80961075D01*
X106661595Y-80961080D01*
X106494566Y-81128109D01*
X106494565Y-81128111D01*
X106364250Y-81314220D01*
X106309673Y-81357844D01*
X106240174Y-81365037D01*
X106177820Y-81333515D01*
X106161100Y-81314220D01*
X106030784Y-81128111D01*
X106030783Y-81128109D01*
X105863757Y-80961083D01*
X105670253Y-80825588D01*
X105456167Y-80725759D01*
X105456161Y-80725756D01*
X105242675Y-80668553D01*
X105242675Y-81566177D01*
X105185668Y-81533264D01*
X105058501Y-81499189D01*
X104926849Y-81499189D01*
X104799682Y-81533264D01*
X104742675Y-81566177D01*
X104742675Y-80668553D01*
X104742674Y-80668553D01*
X104529188Y-80725756D01*
X104529182Y-80725759D01*
X104315097Y-80825588D01*
X104315095Y-80825589D01*
X104121601Y-80961075D01*
X104121595Y-80961080D01*
X103954566Y-81128109D01*
X103954565Y-81128111D01*
X103824555Y-81313784D01*
X103769978Y-81357408D01*
X103700479Y-81364601D01*
X103638125Y-81333079D01*
X103621405Y-81313783D01*
X103491169Y-81127786D01*
X103324077Y-80960695D01*
X103324070Y-80960690D01*
X103309891Y-80950762D01*
X103285196Y-80933470D01*
X103130509Y-80825156D01*
X103130505Y-80825154D01*
X103060382Y-80792455D01*
X102916338Y-80725286D01*
X102916334Y-80725285D01*
X102916330Y-80725283D01*
X102688088Y-80664127D01*
X102688078Y-80664125D01*
X102452676Y-80643530D01*
X102452674Y-80643530D01*
X102217271Y-80664125D01*
X102217261Y-80664127D01*
X101989019Y-80725283D01*
X101989010Y-80725287D01*
X101774846Y-80825153D01*
X101774844Y-80825154D01*
X101581272Y-80960694D01*
X101414180Y-81127786D01*
X101284250Y-81313347D01*
X101229673Y-81356972D01*
X101160175Y-81364166D01*
X101097820Y-81332643D01*
X101081100Y-81313347D01*
X100951169Y-81127786D01*
X100784077Y-80960695D01*
X100784070Y-80960690D01*
X100769891Y-80950762D01*
X100745196Y-80933470D01*
X100590509Y-80825156D01*
X100590505Y-80825154D01*
X100520382Y-80792455D01*
X100376338Y-80725286D01*
X100376334Y-80725285D01*
X100376330Y-80725283D01*
X100148088Y-80664127D01*
X100148078Y-80664125D01*
X99912676Y-80643530D01*
X99912674Y-80643530D01*
X99677271Y-80664125D01*
X99677261Y-80664127D01*
X99449019Y-80725283D01*
X99449010Y-80725287D01*
X99234846Y-80825153D01*
X99234844Y-80825154D01*
X99041272Y-80960694D01*
X98874180Y-81127786D01*
X98744250Y-81313347D01*
X98689673Y-81356972D01*
X98620175Y-81364166D01*
X98557820Y-81332643D01*
X98541100Y-81313347D01*
X98411169Y-81127786D01*
X98244077Y-80960695D01*
X98244070Y-80960690D01*
X98229891Y-80950762D01*
X98200857Y-80930431D01*
X98050506Y-80825154D01*
X98050502Y-80825152D01*
X98044762Y-80822475D01*
X97992327Y-80776299D01*
X97973176Y-80710097D01*
X97973176Y-80693619D01*
X97973176Y-80693618D01*
X97932252Y-80540891D01*
X97900931Y-80486641D01*
X97853199Y-80403965D01*
X97853193Y-80403957D01*
X96487590Y-79038355D01*
X96487588Y-79038352D01*
X96368717Y-78919481D01*
X96368716Y-78919480D01*
X96264960Y-78859577D01*
X96264959Y-78859576D01*
X96231783Y-78840422D01*
X96175881Y-78825443D01*
X96079057Y-78799499D01*
X95920943Y-78799499D01*
X95913347Y-78799499D01*
X95913331Y-78799500D01*
X89686669Y-78799500D01*
X89686653Y-78799499D01*
X89679057Y-78799499D01*
X89520943Y-78799499D01*
X89441010Y-78820917D01*
X89368216Y-78840422D01*
X89335038Y-78859578D01*
X89335037Y-78859577D01*
X89231287Y-78919477D01*
X89231282Y-78919481D01*
X89119478Y-79031286D01*
X84887584Y-83263181D01*
X84826261Y-83296666D01*
X84799903Y-83299500D01*
X77500097Y-83299500D01*
X77433058Y-83279815D01*
X77412416Y-83263181D01*
X72736819Y-78587584D01*
X72703334Y-78526261D01*
X72700500Y-78499903D01*
X72700500Y-63454773D01*
X75425000Y-63454773D01*
X75425000Y-64250000D01*
X76756116Y-64250000D01*
X76725000Y-64406433D01*
X76725000Y-64593567D01*
X76756116Y-64750000D01*
X75425001Y-64750000D01*
X75425001Y-65545227D01*
X75435566Y-65679474D01*
X75491423Y-65901152D01*
X75585962Y-66109287D01*
X75585967Y-66109296D01*
X75716151Y-66297203D01*
X75877796Y-66458848D01*
X76065703Y-66589032D01*
X76065712Y-66589037D01*
X76273847Y-66683576D01*
X76495525Y-66739433D01*
X76629780Y-66749999D01*
X77424999Y-66749999D01*
X77425000Y-66749998D01*
X77425000Y-65418883D01*
X77581433Y-65450000D01*
X77768567Y-65450000D01*
X77925000Y-65418883D01*
X77925000Y-66749999D01*
X78720212Y-66749999D01*
X78720227Y-66749998D01*
X78854474Y-66739433D01*
X79076152Y-66683576D01*
X79284287Y-66589037D01*
X79284296Y-66589032D01*
X79472203Y-66458848D01*
X79633848Y-66297203D01*
X79764032Y-66109296D01*
X79764037Y-66109287D01*
X79858576Y-65901152D01*
X79914433Y-65679474D01*
X79924999Y-65545226D01*
X79925000Y-65545213D01*
X79925000Y-64750000D01*
X78593884Y-64750000D01*
X78625000Y-64593567D01*
X78625000Y-64406433D01*
X78593884Y-64250000D01*
X79924999Y-64250000D01*
X79924999Y-63454787D01*
X79924998Y-63454772D01*
X79914433Y-63320525D01*
X79858576Y-63098847D01*
X79764037Y-62890712D01*
X79764032Y-62890703D01*
X79633848Y-62702796D01*
X79472203Y-62541151D01*
X79284296Y-62410967D01*
X79284287Y-62410962D01*
X79076152Y-62316423D01*
X78854474Y-62260566D01*
X78720226Y-62250000D01*
X77925000Y-62250000D01*
X77925000Y-63581116D01*
X77768567Y-63550000D01*
X77581433Y-63550000D01*
X77425000Y-63581116D01*
X77425000Y-62250000D01*
X76629787Y-62250000D01*
X76629772Y-62250001D01*
X76495525Y-62260566D01*
X76273847Y-62316423D01*
X76065712Y-62410962D01*
X76065703Y-62410967D01*
X75877796Y-62541151D01*
X75716151Y-62702796D01*
X75585967Y-62890703D01*
X75585962Y-62890712D01*
X75491423Y-63098847D01*
X75435566Y-63320525D01*
X75425000Y-63454773D01*
X72700500Y-63454773D01*
X72700500Y-42747844D01*
X73200000Y-42747844D01*
X73206401Y-42807372D01*
X73206403Y-42807379D01*
X73256645Y-42942086D01*
X73256649Y-42942093D01*
X73342809Y-43057187D01*
X73342812Y-43057190D01*
X73457906Y-43143350D01*
X73457913Y-43143354D01*
X73592620Y-43193596D01*
X73592627Y-43193598D01*
X73652155Y-43199999D01*
X73652172Y-43200000D01*
X74850000Y-43200000D01*
X75350000Y-43200000D01*
X76547828Y-43200000D01*
X76547844Y-43199999D01*
X76607372Y-43193598D01*
X76607379Y-43193596D01*
X76742086Y-43143354D01*
X76742093Y-43143350D01*
X76857187Y-43057190D01*
X76857190Y-43057187D01*
X76943350Y-42942093D01*
X76943354Y-42942086D01*
X76993596Y-42807379D01*
X76993598Y-42807372D01*
X76999999Y-42747844D01*
X77000000Y-42747827D01*
X77000000Y-42450000D01*
X75350000Y-42450000D01*
X75350000Y-43200000D01*
X74850000Y-43200000D01*
X74850000Y-42450000D01*
X73200000Y-42450000D01*
X73200000Y-42747844D01*
X72700500Y-42747844D01*
X72700500Y-41652155D01*
X73200000Y-41652155D01*
X73200000Y-41950000D01*
X74850000Y-41950000D01*
X75350000Y-41950000D01*
X77000000Y-41950000D01*
X77000000Y-41652172D01*
X76999999Y-41652155D01*
X76993598Y-41592627D01*
X76993596Y-41592620D01*
X76943354Y-41457913D01*
X76943350Y-41457906D01*
X76857190Y-41342812D01*
X76857187Y-41342809D01*
X76742093Y-41256649D01*
X76742086Y-41256645D01*
X76607379Y-41206403D01*
X76607372Y-41206401D01*
X76547844Y-41200000D01*
X75350000Y-41200000D01*
X75350000Y-41950000D01*
X74850000Y-41950000D01*
X74850000Y-41200000D01*
X73652155Y-41200000D01*
X73592627Y-41206401D01*
X73592620Y-41206403D01*
X73457913Y-41256645D01*
X73457906Y-41256649D01*
X73342812Y-41342809D01*
X73342809Y-41342812D01*
X73256649Y-41457906D01*
X73256645Y-41457913D01*
X73206403Y-41592620D01*
X73206401Y-41592627D01*
X73200000Y-41652155D01*
X72700500Y-41652155D01*
X72700500Y-41500097D01*
X72720185Y-41433058D01*
X72736819Y-41412416D01*
X74912417Y-39236818D01*
X74973740Y-39203333D01*
X75000098Y-39200499D01*
X76547871Y-39200499D01*
X76547872Y-39200499D01*
X76607483Y-39194091D01*
X76742331Y-39143796D01*
X76857546Y-39057546D01*
X76943796Y-38942331D01*
X76994091Y-38807483D01*
X77000500Y-38747873D01*
X77000499Y-37652128D01*
X76994091Y-37592517D01*
X76989353Y-37579815D01*
X76943797Y-37457671D01*
X76943793Y-37457664D01*
X76857547Y-37342455D01*
X76857544Y-37342452D01*
X76742335Y-37256206D01*
X76742328Y-37256202D01*
X76607482Y-37205908D01*
X76607483Y-37205908D01*
X76547883Y-37199501D01*
X76547881Y-37199500D01*
X76547873Y-37199500D01*
X76547864Y-37199500D01*
X73652129Y-37199500D01*
X73652123Y-37199501D01*
X73592516Y-37205908D01*
X73457671Y-37256202D01*
X73457664Y-37256206D01*
X73342455Y-37342452D01*
X73342452Y-37342455D01*
X73256206Y-37457664D01*
X73256202Y-37457671D01*
X73233391Y-37518833D01*
X73191520Y-37574767D01*
X73126056Y-37599184D01*
X73117209Y-37599500D01*
X71282791Y-37599500D01*
X71215752Y-37579815D01*
X71169997Y-37527011D01*
X71166609Y-37518833D01*
X71143797Y-37457671D01*
X71143793Y-37457664D01*
X71057547Y-37342455D01*
X71057544Y-37342452D01*
X70942335Y-37256206D01*
X70942328Y-37256202D01*
X70807482Y-37205908D01*
X70807483Y-37205908D01*
X70747883Y-37199501D01*
X70747881Y-37199500D01*
X70747873Y-37199500D01*
X70747864Y-37199500D01*
X67852129Y-37199500D01*
X67852123Y-37199501D01*
X67792516Y-37205908D01*
X67657671Y-37256202D01*
X67657664Y-37256206D01*
X67542455Y-37342452D01*
X67542452Y-37342455D01*
X67456206Y-37457664D01*
X67456202Y-37457671D01*
X67405908Y-37592517D01*
X67399501Y-37652116D01*
X67399501Y-37652123D01*
X67399500Y-37652135D01*
X64600500Y-37652135D01*
X64600500Y-34824500D01*
X64620185Y-34757461D01*
X64672989Y-34711706D01*
X64724500Y-34700500D01*
X128541324Y-34700500D01*
X128608363Y-34720185D01*
G37*
%TD.AperFunction*%
%TD*%
M02*
