%TF.GenerationSoftware,KiCad,Pcbnew,8.0.6*%
%TF.CreationDate,2024-12-12T11:47:03+01:00*%
%TF.ProjectId,TUSS4470_shield,54555353-3434-4373-905f-736869656c64,rev?*%
%TF.SameCoordinates,Original*%
%TF.FileFunction,Soldermask,Top*%
%TF.FilePolarity,Negative*%
%FSLAX46Y46*%
G04 Gerber Fmt 4.6, Leading zero omitted, Abs format (unit mm)*
G04 Created by KiCad (PCBNEW 8.0.6) date 2024-12-12 11:47:03*
%MOMM*%
%LPD*%
G01*
G04 APERTURE LIST*
G04 Aperture macros list*
%AMRoundRect*
0 Rectangle with rounded corners*
0 $1 Rounding radius*
0 $2 $3 $4 $5 $6 $7 $8 $9 X,Y pos of 4 corners*
0 Add a 4 corners polygon primitive as box body*
4,1,4,$2,$3,$4,$5,$6,$7,$8,$9,$2,$3,0*
0 Add four circle primitives for the rounded corners*
1,1,$1+$1,$2,$3*
1,1,$1+$1,$4,$5*
1,1,$1+$1,$6,$7*
1,1,$1+$1,$8,$9*
0 Add four rect primitives between the rounded corners*
20,1,$1+$1,$2,$3,$4,$5,0*
20,1,$1+$1,$4,$5,$6,$7,0*
20,1,$1+$1,$6,$7,$8,$9,0*
20,1,$1+$1,$8,$9,$2,$3,0*%
G04 Aperture macros list end*
%ADD10RoundRect,0.250000X0.312500X0.625000X-0.312500X0.625000X-0.312500X-0.625000X0.312500X-0.625000X0*%
%ADD11RoundRect,0.243750X0.456250X-0.243750X0.456250X0.243750X-0.456250X0.243750X-0.456250X-0.243750X0*%
%ADD12R,2.400000X2.400000*%
%ADD13C,2.400000*%
%ADD14RoundRect,0.062500X-0.350000X-0.062500X0.350000X-0.062500X0.350000X0.062500X-0.350000X0.062500X0*%
%ADD15RoundRect,0.062500X-0.062500X-0.350000X0.062500X-0.350000X0.062500X0.350000X-0.062500X0.350000X0*%
%ADD16R,2.500000X2.500000*%
%ADD17RoundRect,0.250000X0.650000X-1.000000X0.650000X1.000000X-0.650000X1.000000X-0.650000X-1.000000X0*%
%ADD18RoundRect,0.225000X0.225000X0.250000X-0.225000X0.250000X-0.225000X-0.250000X0.225000X-0.250000X0*%
%ADD19R,1.700000X1.700000*%
%ADD20O,1.700000X1.700000*%
%ADD21RoundRect,0.225000X0.250000X-0.225000X0.250000X0.225000X-0.250000X0.225000X-0.250000X-0.225000X0*%
%ADD22C,1.400000*%
%ADD23RoundRect,0.770000X0.980000X-0.980000X0.980000X0.980000X-0.980000X0.980000X-0.980000X-0.980000X0*%
%ADD24C,3.500000*%
%ADD25RoundRect,0.243750X-0.456250X0.243750X-0.456250X-0.243750X0.456250X-0.243750X0.456250X0.243750X0*%
%ADD26RoundRect,0.200000X0.275000X-0.200000X0.275000X0.200000X-0.275000X0.200000X-0.275000X-0.200000X0*%
%ADD27RoundRect,0.250000X0.650000X-0.325000X0.650000X0.325000X-0.650000X0.325000X-0.650000X-0.325000X0*%
%ADD28RoundRect,0.250000X0.625000X-0.312500X0.625000X0.312500X-0.625000X0.312500X-0.625000X-0.312500X0*%
%ADD29R,2.800000X1.000000*%
%ADD30R,1.600000X1.600000*%
%ADD31O,1.600000X1.600000*%
G04 APERTURE END LIST*
D10*
%TO.C,R2*%
X118962500Y-57000000D03*
X116037500Y-57000000D03*
%TD*%
D11*
%TO.C,D2*%
X102400000Y-76237500D03*
X102400000Y-74362500D03*
%TD*%
D12*
%TO.C,J2*%
X128900000Y-57350000D03*
D13*
X128900000Y-53850000D03*
%TD*%
D14*
%TO.C,U1*%
X110525000Y-56500000D03*
X110525000Y-57000000D03*
X110525000Y-57500000D03*
X110525000Y-58000000D03*
X110525000Y-58500000D03*
D15*
X111462500Y-59437500D03*
X111962500Y-59437500D03*
X112462500Y-59437500D03*
X112962500Y-59437500D03*
X113462500Y-59437500D03*
D14*
X114400000Y-58500000D03*
X114400000Y-58000000D03*
X114400000Y-57500000D03*
X114400000Y-57000000D03*
X114400000Y-56500000D03*
D15*
X113462500Y-55562500D03*
X112962500Y-55562500D03*
X112462500Y-55562500D03*
X111962500Y-55562500D03*
X111462500Y-55562500D03*
D16*
X112462500Y-57500000D03*
%TD*%
D17*
%TO.C,D1*%
X109300000Y-48700000D03*
X109300000Y-44700000D03*
%TD*%
D18*
%TO.C,C5*%
X117475000Y-58900000D03*
X115925000Y-58900000D03*
%TD*%
D19*
%TO.C,JP2*%
X118740000Y-65700000D03*
D20*
X116200000Y-65700000D03*
%TD*%
D19*
%TO.C,JP3*%
X118740000Y-49300000D03*
D20*
X116200000Y-49300000D03*
%TD*%
D21*
%TO.C,C2*%
X121400000Y-66775000D03*
X121400000Y-65225000D03*
%TD*%
%TO.C,C8*%
X113500000Y-62475000D03*
X113500000Y-60925000D03*
%TD*%
D19*
%TO.C,J6*%
X115143426Y-82000000D03*
D20*
X117683426Y-82000000D03*
X120223426Y-82000000D03*
X122763426Y-82000000D03*
X125303426Y-82000000D03*
X127843426Y-82000000D03*
%TD*%
D22*
%TO.C,J1*%
X67675000Y-72500000D03*
X67675000Y-61500000D03*
D23*
X77675000Y-64500000D03*
D24*
X77675000Y-69500000D03*
%TD*%
D25*
%TO.C,D3*%
X86700000Y-75962500D03*
X86700000Y-77837500D03*
%TD*%
%TO.C,D4*%
X81700000Y-77562500D03*
X81700000Y-79437500D03*
%TD*%
D26*
%TO.C,R3*%
X102400000Y-72925000D03*
X102400000Y-71275000D03*
%TD*%
D27*
%TO.C,C6*%
X113200000Y-53575000D03*
X113200000Y-50625000D03*
%TD*%
D21*
%TO.C,C10*%
X121400000Y-63100000D03*
X121400000Y-61550000D03*
%TD*%
%TO.C,C9*%
X121400000Y-54075000D03*
X121400000Y-52525000D03*
%TD*%
D19*
%TO.C,JP4*%
X118740000Y-69400000D03*
D20*
X116200000Y-69400000D03*
%TD*%
D21*
%TO.C,C1*%
X121400000Y-46275000D03*
X121400000Y-44725000D03*
%TD*%
D26*
%TO.C,R4*%
X85000000Y-77925000D03*
X85000000Y-76275000D03*
%TD*%
D28*
%TO.C,R1*%
X110000000Y-54062500D03*
X110000000Y-51137500D03*
%TD*%
D26*
%TO.C,R5*%
X80000000Y-79525000D03*
X80000000Y-77875000D03*
%TD*%
D21*
%TO.C,C3*%
X121400000Y-50375000D03*
X121400000Y-48825000D03*
%TD*%
D19*
%TO.C,J7*%
X92292675Y-81999189D03*
D20*
X94832675Y-81999189D03*
X97372675Y-81999189D03*
X99912675Y-81999189D03*
X102452675Y-81999189D03*
X104992675Y-81999189D03*
X107532675Y-81999189D03*
X110072675Y-81999189D03*
%TD*%
D19*
%TO.C,J5*%
X110062821Y-40000000D03*
D20*
X112602821Y-40000000D03*
X115142821Y-40000000D03*
X117682821Y-40000000D03*
X120222821Y-40000000D03*
X122762821Y-40000000D03*
X125302821Y-40000000D03*
X127842821Y-40000000D03*
%TD*%
D19*
%TO.C,J3*%
X83137057Y-40008896D03*
D20*
X85677057Y-40008896D03*
X88217057Y-40008896D03*
X90757057Y-40008896D03*
X93297057Y-40008896D03*
X95837057Y-40008896D03*
X98377057Y-40008896D03*
X100917057Y-40008896D03*
X103457057Y-40008896D03*
X105997057Y-40008896D03*
%TD*%
D21*
%TO.C,C7*%
X108100000Y-54175000D03*
X108100000Y-52625000D03*
%TD*%
D29*
%TO.C,SW1*%
X69300000Y-38200000D03*
X75100000Y-38200000D03*
X69300000Y-42200000D03*
X75100000Y-42200000D03*
%TD*%
D19*
%TO.C,J4*%
X81775000Y-69500000D03*
D20*
X84315000Y-69500000D03*
X86855000Y-69500000D03*
%TD*%
D21*
%TO.C,C4*%
X121400000Y-70500000D03*
X121400000Y-68950000D03*
%TD*%
D19*
%TO.C,JP5*%
X118740000Y-53000000D03*
D20*
X116200000Y-53000000D03*
%TD*%
D19*
%TO.C,JP1*%
X118740000Y-45600000D03*
D20*
X116200000Y-45600000D03*
%TD*%
D19*
%TO.C,JP6*%
X118740000Y-62025000D03*
D20*
X116200000Y-62025000D03*
%TD*%
D30*
%TO.C,A1*%
X92320000Y-85160000D03*
D31*
X94860000Y-85160000D03*
X97400000Y-85160000D03*
X99940000Y-85160000D03*
X102480000Y-85160000D03*
X105020000Y-85160000D03*
X107560000Y-85160000D03*
X110100000Y-85160000D03*
X115180000Y-85160000D03*
X117720000Y-85160000D03*
X120260000Y-85160000D03*
X122800000Y-85160000D03*
X125340000Y-85160000D03*
X127880000Y-85160000D03*
X127880000Y-36900000D03*
X125340000Y-36900000D03*
X122800000Y-36900000D03*
X120260000Y-36900000D03*
X117720000Y-36900000D03*
X115180000Y-36900000D03*
X112640000Y-36900000D03*
X110100000Y-36900000D03*
X106040000Y-36900000D03*
X103500000Y-36900000D03*
X100960000Y-36900000D03*
X98420000Y-36900000D03*
X95880000Y-36900000D03*
X93340000Y-36900000D03*
X90800000Y-36900000D03*
X88260000Y-36900000D03*
X85720000Y-36900000D03*
X83180000Y-36900000D03*
%TD*%
G36*
X133043039Y-71319685D02*
G01*
X133088794Y-71372489D01*
X133100000Y-71424000D01*
X133100000Y-76576000D01*
X133080315Y-76643039D01*
X133027511Y-76688794D01*
X132976000Y-76700000D01*
X122024000Y-76700000D01*
X121956961Y-76680315D01*
X121911206Y-76627511D01*
X121900000Y-76576000D01*
X121900000Y-71424000D01*
X121919685Y-71356961D01*
X121972489Y-71311206D01*
X122024000Y-71300000D01*
X132976000Y-71300000D01*
X133043039Y-71319685D01*
G37*
M02*
