<svg width="1567" height="1032" viewBox="0 0 1567 1032" fill="none" xmlns="http://www.w3.org/2000/svg">
<path d="M942.191 17.9807C1288.8 100.612 1586 468.738 1554.4 740.91C1516.95 1011.4 834.824 1071.23 488.218 988.6C141.611 905.969 217.613 553.364 580.65 468.269C797.616 417.413 595.584 -64.6507 942.191 17.9807Z" fill="#BDE2FD"/>
<path d="M950.063 101.949C1240.58 171.209 1489.96 472.186 1470.79 697.982C1444.21 926.944 896.962 989.036 606.445 919.776C315.929 850.517 356.346 585.404 660.634 514.08C842.489 471.454 659.546 32.69 950.063 101.949Z" fill="#72C4FF"/>
<path d="M969.361 195.801C1196.23 249.887 1384.1 473.486 1372.53 659.895C1360.95 846.304 922.609 894.129 695.737 840.043C468.865 785.956 509.095 605.105 746.722 549.406C888.737 516.119 742.489 141.714 969.361 195.801Z" fill="#33AAFF"/>
<path d="M996.176 290.022C1155.44 327.991 1286.55 516.019 1259.89 637.253C1232.15 763.396 909.734 805.171 750.467 767.202C591.201 729.232 678.438 613.477 845.254 574.376C944.95 551.007 836.91 252.053 996.176 290.022Z" fill="#0095FF"/>
<g style="mix-blend-mode:darken">
<path d="M169.26 280.624C169.26 290.13 167.88 298.87 165.12 306.844C162.36 314.664 158.373 321.41 153.16 327.084C147.947 332.604 141.66 336.897 134.3 339.964C127.093 343.03 118.967 344.564 109.92 344.564C101.027 344.564 92.9 343.03 85.54 339.964C78.3333 336.897 72.1233 332.604 66.91 327.084C61.6967 321.41 57.6333 314.664 54.72 306.844C51.8067 298.87 50.35 290.13 50.35 280.624C50.35 271.117 51.8067 262.454 54.72 254.634C57.7867 246.814 61.9267 240.144 67.14 234.624C72.5067 229.104 78.7933 224.81 86 221.744C93.36 218.677 101.333 217.144 109.92 217.144C118.66 217.144 126.633 218.677 133.84 221.744C141.2 224.81 147.487 229.104 152.7 234.624C157.913 240.144 161.977 246.814 164.89 254.634C167.803 262.454 169.26 271.117 169.26 280.624ZM134.3 280.624C134.3 270.044 132.153 261.764 127.86 255.784C123.72 249.65 117.74 246.584 109.92 246.584C102.1 246.584 96.0433 249.65 91.75 255.784C87.4567 261.764 85.31 270.044 85.31 280.624C85.31 291.204 87.4567 299.637 91.75 305.924C96.0433 312.057 102.1 315.124 109.92 315.124C117.74 315.124 123.72 312.057 127.86 305.924C132.153 299.637 134.3 291.204 134.3 280.624ZM273.317 281.774C273.317 271.194 270.94 262.76 266.187 256.474C261.434 250.034 254.38 246.814 245.027 246.814C241.96 246.814 239.124 246.967 236.517 247.274C233.91 247.427 231.764 247.657 230.077 247.964V309.834C232.224 311.214 234.984 312.364 238.357 313.284C241.884 314.204 245.41 314.664 248.937 314.664C265.19 314.664 273.317 303.7 273.317 281.774ZM308.277 280.854C308.277 290.207 307.127 298.717 304.827 306.384C302.527 314.05 299.154 320.644 294.707 326.164C290.26 331.684 284.74 335.977 278.147 339.044C271.554 342.11 263.964 343.644 255.377 343.644C250.624 343.644 246.177 343.184 242.037 342.264C237.897 341.344 233.91 340.04 230.077 338.354V383.894H195.807V224.504C198.874 223.584 202.4 222.74 206.387 221.974C210.374 221.054 214.514 220.287 218.807 219.674C223.254 219.06 227.7 218.6 232.147 218.294C236.747 217.834 241.117 217.604 245.257 217.604C255.224 217.604 264.117 219.137 271.937 222.204C279.757 225.117 286.35 229.334 291.717 234.854C297.084 240.22 301.147 246.814 303.907 254.634C306.82 262.454 308.277 271.194 308.277 280.854ZM328.866 281.774C328.866 271.04 330.476 261.687 333.696 253.714C337.069 245.587 341.439 238.84 346.806 233.474C352.172 228.107 358.306 224.044 365.206 221.284C372.259 218.524 379.466 217.144 386.826 217.144C403.999 217.144 417.569 222.434 427.536 233.014C437.502 243.44 442.486 258.85 442.486 279.244C442.486 281.237 442.409 283.46 442.256 285.914C442.102 288.214 441.949 290.284 441.796 292.124H364.056C364.822 299.177 368.119 304.774 373.946 308.914C379.772 313.054 387.592 315.124 397.406 315.124C403.692 315.124 409.826 314.587 415.806 313.514C421.939 312.287 426.922 310.83 430.756 309.144L435.356 336.974C433.516 337.894 431.062 338.814 427.996 339.734C424.929 340.654 421.479 341.42 417.646 342.034C413.966 342.8 409.979 343.414 405.686 343.874C401.392 344.334 397.099 344.564 392.806 344.564C381.919 344.564 372.412 342.954 364.286 339.734C356.312 336.514 349.642 332.144 344.276 326.624C339.062 320.95 335.152 314.28 332.546 306.614C330.092 298.947 328.866 290.667 328.866 281.774ZM409.366 268.664C409.212 265.75 408.676 262.914 407.756 260.154C406.989 257.394 405.686 254.94 403.846 252.794C402.159 250.647 399.936 248.884 397.176 247.504C394.569 246.124 391.272 245.434 387.286 245.434C383.452 245.434 380.156 246.124 377.396 247.504C374.636 248.73 372.336 250.417 370.496 252.564C368.656 254.71 367.199 257.24 366.126 260.154C365.206 262.914 364.516 265.75 364.056 268.664H409.366ZM468.932 224.504C474.759 222.817 482.272 221.284 491.472 219.904C500.672 218.37 510.332 217.604 520.452 217.604C530.725 217.604 539.235 218.984 545.982 221.744C552.882 224.35 558.325 228.107 562.312 233.014C566.299 237.92 569.135 243.747 570.822 250.494C572.509 257.24 573.352 264.754 573.352 273.034V341.344H539.082V277.174C539.082 266.134 537.625 258.314 534.712 253.714C531.799 249.114 526.355 246.814 518.382 246.814C515.929 246.814 513.322 246.967 510.562 247.274C507.802 247.427 505.349 247.657 503.202 247.964V341.344H468.932V224.504Z" fill="#303030"/>
</g>
<g style="mix-blend-mode:darken">
<path d="M23.85 552.074C23.85 527.34 27.56 505.787 34.98 487.414C42.7533 468.687 52.8233 453.14 65.19 440.774C77.5567 428.407 91.69 419.044 107.59 412.684C123.843 406.324 140.45 403.144 157.41 403.144C196.983 403.144 228.253 415.334 251.22 439.714C274.187 463.74 285.67 499.25 285.67 546.244C285.67 550.837 285.493 555.96 285.14 561.614C284.787 566.914 284.433 571.684 284.08 575.924H104.94C106.707 592.177 114.303 605.074 127.73 614.614C141.157 624.154 159.177 628.924 181.79 628.924C196.277 628.924 210.41 627.687 224.19 625.214C238.323 622.387 249.807 619.03 258.64 615.144L269.24 679.274C265 681.394 259.347 683.514 252.28 685.634C245.213 687.754 237.263 689.52 228.43 690.934C219.95 692.7 210.763 694.114 200.87 695.174C190.977 696.234 181.083 696.764 171.19 696.764C146.103 696.764 124.197 693.054 105.47 685.634C87.0967 678.214 71.7267 668.144 59.36 655.424C47.3467 642.35 38.3367 626.98 32.33 609.314C26.6767 591.647 23.85 572.567 23.85 552.074ZM209.35 521.864C208.997 515.15 207.76 508.614 205.64 502.254C203.873 495.894 200.87 490.24 196.63 485.294C192.743 480.347 187.62 476.284 181.26 473.104C175.253 469.924 167.657 468.334 158.47 468.334C149.637 468.334 142.04 469.924 135.68 473.104C129.32 475.93 124.02 479.817 119.78 484.764C115.54 489.71 112.183 495.54 109.71 502.254C107.59 508.614 106 515.15 104.94 521.864H209.35ZM333.362 549.954C333.362 529.814 336.542 510.91 342.902 493.244C349.615 475.224 359.155 459.677 371.522 446.604C383.888 433.177 398.905 422.577 416.572 414.804C434.238 407.03 454.378 403.144 476.992 403.144C491.832 403.144 505.435 404.557 517.802 407.384C530.168 409.857 542.182 413.567 553.842 418.514L537.412 481.584C529.992 478.757 521.865 476.284 513.032 474.164C504.198 472.044 494.305 470.984 483.352 470.984C460.032 470.984 442.542 478.227 430.882 492.714C419.575 507.2 413.922 526.28 413.922 549.954C413.922 575.04 419.222 594.474 429.822 608.254C440.775 622.034 459.678 628.924 486.532 628.924C496.072 628.924 506.318 628.04 517.272 626.274C528.225 624.507 538.295 621.68 547.482 617.794L558.612 682.454C549.425 686.34 537.942 689.697 524.162 692.524C510.382 695.35 495.188 696.764 478.582 696.764C453.142 696.764 431.235 693.054 412.862 685.634C394.488 677.86 379.295 667.437 367.282 654.364C355.622 641.29 346.965 625.92 341.312 608.254C336.012 590.234 333.362 570.8 333.362 549.954ZM611.612 689.344V290.784L690.582 278.064V411.624C695.882 409.857 702.595 408.267 710.722 406.854C719.202 405.087 727.328 404.204 735.102 404.204C757.715 404.204 776.442 407.384 791.282 413.744C806.475 419.75 818.488 428.407 827.322 439.714C836.508 451.02 842.868 464.447 846.402 479.994C850.288 495.54 852.232 512.854 852.232 531.934V689.344H773.262V541.474C773.262 516.034 769.905 498.014 763.192 487.414C756.832 476.814 744.818 471.514 727.152 471.514C720.085 471.514 713.372 472.22 707.012 473.634C701.005 474.694 695.528 475.93 690.582 477.344V689.344H611.612ZM1184.47 549.424C1184.47 571.33 1181.29 591.47 1174.93 609.844C1168.57 627.864 1159.38 643.41 1147.37 656.484C1135.36 669.204 1120.87 679.097 1103.91 686.164C1087.3 693.23 1068.58 696.764 1047.73 696.764C1027.24 696.764 1008.51 693.23 991.551 686.164C974.945 679.097 960.635 669.204 948.621 656.484C936.608 643.41 927.245 627.864 920.531 609.844C913.818 591.47 910.461 571.33 910.461 549.424C910.461 527.517 913.818 507.554 920.531 489.534C927.598 471.514 937.138 456.144 949.151 443.424C961.518 430.704 976.005 420.81 992.611 413.744C1009.57 406.677 1027.94 403.144 1047.73 403.144C1067.87 403.144 1086.24 406.677 1102.85 413.744C1119.81 420.81 1134.3 430.704 1146.31 443.424C1158.32 456.144 1167.69 471.514 1174.4 489.534C1181.11 507.554 1184.47 527.517 1184.47 549.424ZM1103.91 549.424C1103.91 525.044 1098.96 505.964 1089.07 492.184C1079.53 478.05 1065.75 470.984 1047.73 470.984C1029.71 470.984 1015.75 478.05 1005.86 492.184C995.968 505.964 991.021 525.044 991.021 549.424C991.021 573.804 995.968 593.237 1005.86 607.724C1015.75 621.857 1029.71 628.924 1047.73 628.924C1065.75 628.924 1079.53 621.857 1089.07 607.724C1098.96 593.237 1103.91 573.804 1103.91 549.424Z" fill="#FF0000"/>
</g>
</svg>
